<?xml version="1.0" encoding="UTF-8"?>
<!DOCTYPE X3D PUBLIC "ISO//Web3D//DTD X3D 3.0//EN" "http://www.web3d.org/specifications/x3d-3.0.dtd">
<X3D version="3.0" profile="Immersive" xmlns:xsd="http://www.w3.org/2001/XMLSchema-instance" xsd:noNamespaceSchemaLocation="http://www.web3d.org/specifications/x3d-3.0.xsd">
	<head>
		<meta name="filename" content="01-1.x3d" />
		<meta name="created" content="2026-06-21 15:09:37" />
		<meta name="generator" content="Blender 4.5.4 LTS" />
		<meta name="translator" content="Web3D X3D/VRML2 format v2.5.1" />
	</head>
	<Scene>
		<NavigationInfo headlight="true"
		                visibilityLimit="0.0"
		                type='"EXAMINE", "ANY"'
		                avatarSize="0.25, 1.75, 0.75"
		                />
		<Background DEF="WO_World"
		            groundColor="0.051 0.051 0.051"
		            skyColor="0.051 0.051 0.051"
		            />
		<Transform DEF="_01-1_TRANSFORM"
		           translation="0.000000 0.000000 0.000000"
		           scale="1.000000 1.000000 1.000000"
		           rotation="0.000000 0.707107 0.707107 3.141593"
		           >
			<Transform DEF="_01-1_ifs_TRANSFORM"
			           translation="0.000000 0.000000 0.000000"
			           scale="1.000000 1.000000 1.000000"
			           rotation="0.000000 1.000000 0.000000 0.000000"
			           >
				<Group DEF="group_ME_01-1_001">
					<Shape>
						<Appearance>
						</Appearance>
						<IndexedFaceSet solid="false"
						                coordIndex="0 1 2 -1 1 0 3 -1 4 5 3 -1 5 4 6 -1 1 7 8 -1 7 1 9 -1 9 1 3 -1 9 3 5 -1 7 10 8 -1 10 7 11 -1 12 4 13 -1 4 12 6 -1 1 10 2 -1 10 1 8 -1 5 12 14 -1 12 5 6 -1 12 0 14 -1 0 12 13 -1 15 10 11 -1 10 15 2 -1 2 15 14 -1 2 14 0 -1 4 0 13 -1 0 4 3 -1 7 15 11 -1 15 7 9 -1 15 5 14 -1 5 15 9 -1 16 17 18 -1 17 16 19 -1 20 21 19 -1 21 20 22 -1 17 23 24 -1 23 17 25 -1 25 17 19 -1 25 19 21 -1 23 26 24 -1 26 23 27 -1 28 20 29 -1 20 28 22 -1 17 26 18 -1 26 17 24 -1 21 28 30 -1 28 21 22 -1 28 16 30 -1 16 28 29 -1 31 26 27 -1 26 31 18 -1 18 31 30 -1 18 30 16 -1 20 16 29 -1 16 20 19 -1 23 31 27 -1 31 23 25 -1 31 21 30 -1 21 31 25 -1 32 33 34 -1 33 32 35 -1 36 37 35 -1 37 36 38 -1 33 39 40 -1 39 33 41 -1 41 33 35 -1 41 35 37 -1 39 42 40 -1 42 39 43 -1 44 36 45 -1 36 44 38 -1 33 42 34 -1 42 33 40 -1 37 44 46 -1 44 37 38 -1 44 32 46 -1 32 44 45 -1 47 42 43 -1 42 47 34 -1 34 47 46 -1 34 46 32 -1 36 32 45 -1 32 36 35 -1 39 47 43 -1 47 39 41 -1 47 37 46 -1 37 47 41 -1 48 49 50 -1 49 48 51 -1 52 53 51 -1 53 52 54 -1 49 55 56 -1 55 49 57 -1 57 49 51 -1 57 51 53 -1 55 58 56 -1 58 55 59 -1 60 52 61 -1 52 60 54 -1 49 58 50 -1 58 49 56 -1 53 60 62 -1 60 53 54 -1 60 48 62 -1 48 60 61 -1 63 58 59 -1 58 63 50 -1 50 63 62 -1 50 62 48 -1 52 48 61 -1 48 52 51 -1 55 63 59 -1 63 55 57 -1 63 53 62 -1 53 63 57 -1 64 65 66 -1 65 64 67 -1 68 69 67 -1 69 68 70 -1 65 71 72 -1 71 65 73 -1 73 65 67 -1 73 67 69 -1 71 74 72 -1 74 71 75 -1 76 68 77 -1 68 76 70 -1 65 74 66 -1 74 65 72 -1 69 76 78 -1 76 69 70 -1 76 64 78 -1 64 76 77 -1 79 74 75 -1 74 79 66 -1 66 79 78 -1 66 78 64 -1 68 64 77 -1 64 68 67 -1 71 79 75 -1 79 71 73 -1 79 69 78 -1 69 79 73 -1 80 81 82 -1 81 80 83 -1 84 85 83 -1 85 84 86 -1 81 87 88 -1 87 81 89 -1 89 81 83 -1 89 83 85 -1 87 90 88 -1 90 87 91 -1 92 84 93 -1 84 92 86 -1 81 90 82 -1 90 81 88 -1 85 92 94 -1 92 85 86 -1 92 80 94 -1 80 92 93 -1 95 90 91 -1 90 95 82 -1 82 95 94 -1 82 94 80 -1 84 80 93 -1 80 84 83 -1 87 95 91 -1 95 87 89 -1 95 85 94 -1 85 95 89 -1 96 97 98 -1 97 96 99 -1 100 101 99 -1 101 100 102 -1 97 103 104 -1 103 97 105 -1 105 97 99 -1 105 99 101 -1 103 106 104 -1 106 103 107 -1 108 100 109 -1 100 108 102 -1 97 106 98 -1 106 97 104 -1 101 108 110 -1 108 101 102 -1 108 96 110 -1 96 108 109 -1 111 106 107 -1 106 111 98 -1 98 111 110 -1 98 110 96 -1 100 96 109 -1 96 100 99 -1 103 111 107 -1 111 103 105 -1 111 101 110 -1 101 111 105 -1 112 113 114 -1 113 112 115 -1 116 117 115 -1 117 116 118 -1 113 119 120 -1 119 113 121 -1 121 113 115 -1 121 115 117 -1 119 122 120 -1 122 119 123 -1 124 116 125 -1 116 124 118 -1 113 122 114 -1 122 113 120 -1 117 124 126 -1 124 117 118 -1 124 112 126 -1 112 124 125 -1 127 122 123 -1 122 127 114 -1 114 127 126 -1 114 126 112 -1 116 112 125 -1 112 116 115 -1 119 127 123 -1 127 119 121 -1 127 117 126 -1 117 127 121 -1 "
						                >
							<Coordinate DEF="coords_ME_01-1_001"
							            point="1.181102 0.000000 5.905512 0.000000 39.370079 5.905512 0.000000 0.000000 5.905512 1.181102 39.370079 5.905512 1.181102 39.370079 8.267716 2.755906 39.370079 5.905512 2.755906 39.370079 8.267716 3.937008 39.370079 0.000000 0.000000 39.370079 0.000000 3.937008 39.370079 5.905512 0.000000 0.000000 0.000000 3.937008 0.000000 0.000000 2.755906 0.000000 8.267716 1.181102 0.000000 8.267716 2.755906 0.000000 5.905512 3.937008 0.000000 5.905512 22.716103 0.000000 4.330512 21.850000 28.870079 4.330512 21.850000 0.000000 4.330512 22.716103 28.870079 4.330512 22.716103 28.870079 6.062716 23.870905 28.870079 4.330512 23.870905 28.870079 6.062716 24.737007 28.870079 0.000000 21.850000 28.870079 0.000000 24.737007 28.870079 4.330512 21.850000 0.000000 0.000000 24.737007 0.000000 0.000000 23.870905 0.000000 6.062716 22.716103 0.000000 6.062716 23.870905 0.000000 4.330512 24.737007 0.000000 4.330512 17.676771 0.000000 4.724410 16.731890 31.496063 4.724410 16.731890 0.000000 4.724410 17.676771 31.496063 4.724410 17.676771 31.496063 6.614173 18.936615 31.496063 4.724410 18.936615 31.496063 6.614173 19.881496 31.496063 0.000000 16.731890 31.496063 0.000000 19.881496 31.496063 4.724410 16.731890 0.000000 0.000000 19.881496 0.000000 0.000000 18.936615 0.000000 6.614173 17.676771 0.000000 6.614173 18.936615 0.000000 4.724410 19.881496 0.000000 4.724410 31.987362 0.000000 3.444685 31.298426 22.964567 3.444685 31.298426 0.000000 3.444685 31.987362 22.964567 3.444685 31.987362 22.964567 4.822559 32.905945 22.964567 3.444685 32.905945 22.964567 4.822559 33.594883 22.964567 0.000000 31.298426 22.964567 0.000000 33.594883 22.964567 3.444685 31.298426 0.000000 0.000000 33.594883 0.000000 0.000000 32.905945 0.000000 4.822559 31.987362 0.000000 4.822559 32.905945 0.000000 3.444685 33.594883 0.000000 3.444685 36.153938 0.000000 2.952756 35.563385 19.685040 2.952756 35.563385 0.000000 2.952756 36.153938 19.685040 2.952756 36.153938 19.685040 4.133858 36.941338 19.685040 2.952756 36.941338 19.685040 4.133858 37.531891 19.685040 0.000000 35.563385 19.685040 0.000000 37.531891 19.685040 2.952756 35.563385 0.000000 0.000000 37.531891 0.000000 0.000000 36.941338 0.000000 4.133858 36.153938 0.000000 4.133858 36.941338 0.000000 2.952756 37.531891 0.000000 2.952756 6.988110 0.000000 5.412992 5.905512 36.086613 5.412992 5.905512 0.000000 5.412992 6.988110 36.086613 5.412992 6.988110 36.086613 7.578189 8.431575 36.086613 5.412992 8.431575 36.086613 7.578189 9.514174 36.086613 0.000000 5.905512 36.086613 0.000000 9.514174 36.086613 5.412992 5.905512 0.000000 0.000000 9.514174 0.000000 0.000000 8.431575 0.000000 7.578189 6.988110 0.000000 7.578189 8.431575 0.000000 5.412992 9.514174 0.000000 5.412992 12.466889 0.000000 4.921063 11.482677 32.807087 4.921063 11.482677 0.000000 4.921063 12.466889 32.807087 4.921063 12.466889 32.807087 6.889488 13.779173 32.807087 4.921063 13.779173 32.807087 6.889488 14.763386 32.807087 0.000000 11.482677 32.807087 0.000000 14.763386 32.807087 4.921063 11.482677 0.000000 0.000000 14.763386 0.000000 0.000000 13.779173 0.000000 6.889488 12.466889 0.000000 6.889488 13.779173 0.000000 4.921063 14.763386 0.000000 4.921063 27.492834 0.000000 3.936614 26.705511 26.244095 3.936614 26.705511 0.000000 3.936614 27.492834 26.244095 3.936614 27.492834 26.244095 5.511260 28.542599 26.244095 3.936614 28.542599 26.244095 5.511260 29.329922 26.244095 0.000000 26.705511 26.244095 0.000000 29.329922 26.244095 3.936614 26.705511 0.000000 0.000000 29.329922 0.000000 0.000000 28.542599 0.000000 5.511260 27.492834 0.000000 5.511260 28.542599 0.000000 3.936614 29.329922 0.000000 3.936614 "
							            />
						</IndexedFaceSet>
					</Shape>
				</Group>
			</Transform>
		</Transform>
	</Scene>
</X3D>