<?xml version="1.0" encoding="UTF-8"?>
<!DOCTYPE X3D PUBLIC "ISO//Web3D//DTD X3D 3.0//EN" "http://www.web3d.org/specifications/x3d-3.0.dtd">
<X3D version="3.0" profile="Immersive" xmlns:xsd="http://www.w3.org/2001/XMLSchema-instance" xsd:noNamespaceSchemaLocation="http://www.web3d.org/specifications/x3d-3.0.xsd">
	<head>
		<meta name="filename" content="02-1-3.x3d" />
		<meta name="created" content="2026-06-21 15:09:37" />
		<meta name="generator" content="Blender 4.5.4 LTS" />
		<meta name="translator" content="Web3D X3D/VRML2 format v2.5.1" />
	</head>
	<Scene>
		<NavigationInfo headlight="true"
		                visibilityLimit="0.0"
		                type='"EXAMINE", "ANY"'
		                avatarSize="0.25, 1.75, 0.75"
		                />
		<Background DEF="WO_World"
		            groundColor="0.051 0.051 0.051"
		            skyColor="0.051 0.051 0.051"
		            />
		<Transform DEF="_02-1-3_TRANSFORM"
		           translation="0.000000 0.000000 0.000000"
		           scale="1.000000 1.000000 1.000000"
		           rotation="0.000000 0.707107 0.707107 3.141593"
		           >
			<Transform DEF="_02-1-3_ifs_TRANSFORM"
			           translation="0.000000 0.000000 0.000000"
			           scale="1.000000 1.000000 1.000000"
			           rotation="0.000000 1.000000 0.000000 0.000000"
			           >
				<Group DEF="group_ME_02-1-3_001">
					<Shape>
						<Appearance>
						</Appearance>
						<IndexedFaceSet solid="false"
						                coordIndex="0 1 2 -1 1 0 3 -1 4 5 6 -1 5 4 7 -1 0 5 7 -1 5 0 2 -1 8 1 3 -1 1 8 9 -1 10 11 12 -1 11 10 13 -1 14 15 16 -1 15 14 17 -1 17 14 18 -1 17 18 19 -1 19 18 20 -1 19 20 21 -1 21 20 22 -1 21 22 23 -1 23 22 24 -1 23 24 25 -1 25 24 26 -1 25 26 27 -1 27 26 28 -1 27 28 29 -1 15 30 31 -1 30 15 17 -1 19 30 17 -1 30 19 32 -1 18 33 20 -1 33 18 34 -1 14 34 18 -1 34 14 35 -1 9 36 37 -1 36 9 35 -1 35 9 34 -1 34 9 8 -1 36 35 38 -1 38 35 39 -1 38 39 40 -1 40 39 41 -1 34 8 33 -1 33 8 42 -1 42 8 43 -1 43 8 44 -1 44 8 45 -1 41 31 46 -1 31 41 39 -1 46 31 30 -1 46 30 32 -1 46 32 47 -1 48 49 50 -1 49 48 51 -1 14 39 35 -1 39 14 16 -1 52 51 48 -1 51 52 53 -1 44 28 26 -1 28 44 45 -1 16 31 39 -1 31 16 15 -1 54 55 56 -1 55 54 57 -1 54 58 57 -1 58 54 59 -1 33 22 20 -1 22 33 42 -1 60 49 61 -1 49 60 50 -1 24 44 26 -1 44 24 43 -1 49 58 61 -1 58 49 57 -1 57 49 51 -1 57 51 55 -1 55 51 53 -1 55 53 10 -1 10 53 62 -1 10 62 13 -1 13 62 63 -1 13 63 64 -1 64 63 65 -1 64 65 66 -1 66 65 67 -1 66 67 68 -1 21 32 19 -1 32 21 47 -1 56 10 12 -1 10 56 55 -1 59 61 58 -1 61 59 60 -1 4 69 70 -1 69 4 6 -1 71 66 72 -1 66 71 64 -1 11 64 71 -1 64 11 13 -1 22 43 24 -1 43 22 42 -1 66 73 72 -1 73 66 68 -1 38 74 36 -1 74 38 75 -1 36 76 37 -1 76 36 74 -1 40 77 78 -1 77 40 41 -1 27 67 65 -1 67 27 29 -1 63 27 65 -1 27 63 25 -1 53 23 62 -1 23 53 21 -1 0 8 3 -1 8 0 45 -1 73 4 70 -1 4 73 7 -1 7 73 0 -1 0 73 28 -1 0 28 45 -1 28 73 68 -1 68 29 28 -1 29 68 67 -1 79 60 77 -1 60 79 50 -1 50 79 48 -1 48 79 52 -1 69 56 70 -1 56 69 54 -1 54 69 76 -1 54 76 74 -1 54 74 75 -1 54 75 59 -1 59 75 78 -1 59 78 77 -1 59 77 60 -1 70 56 12 -1 70 12 11 -1 70 11 71 -1 70 71 72 -1 70 72 73 -1 62 25 63 -1 25 62 23 -1 21 46 47 -1 46 21 53 -1 46 53 52 -1 46 52 79 -1 41 79 77 -1 79 41 46 -1 40 75 38 -1 75 40 78 -1 9 2 1 -1 2 9 37 -1 6 76 69 -1 76 6 5 -1 76 5 2 -1 76 2 37 -1 80 81 82 -1 81 80 83 -1 84 82 85 -1 82 84 80 -1 86 87 88 -1 87 86 89 -1 90 89 86 -1 89 90 91 -1 92 90 93 -1 90 92 91 -1 94 93 95 -1 93 94 92 -1 96 95 97 -1 95 96 94 -1 98 84 85 -1 84 98 99 -1 100 99 98 -1 99 100 101 -1 102 101 100 -1 101 102 103 -1 104 103 102 -1 103 104 105 -1 88 105 104 -1 105 88 87 -1 106 107 108 -1 107 106 109 -1 110 111 112 -1 111 110 113 -1 106 111 113 -1 111 106 108 -1 114 107 109 -1 107 114 115 -1 116 117 118 -1 117 116 119 -1 120 121 122 -1 121 120 123 -1 123 120 124 -1 123 124 125 -1 125 124 126 -1 125 126 127 -1 127 126 128 -1 127 128 129 -1 129 128 130 -1 129 130 131 -1 131 130 132 -1 131 132 133 -1 133 132 134 -1 133 134 135 -1 121 136 137 -1 136 121 123 -1 125 136 123 -1 136 125 138 -1 124 139 126 -1 139 124 140 -1 120 140 124 -1 140 120 141 -1 115 142 143 -1 142 115 141 -1 141 115 140 -1 140 115 114 -1 142 141 144 -1 144 141 145 -1 144 145 146 -1 146 145 147 -1 140 114 139 -1 139 114 148 -1 148 114 149 -1 149 114 150 -1 150 114 151 -1 147 137 152 -1 137 147 145 -1 152 137 136 -1 152 136 138 -1 152 138 153 -1 154 155 156 -1 155 154 157 -1 120 145 141 -1 145 120 122 -1 158 157 154 -1 157 158 159 -1 150 134 132 -1 134 150 151 -1 122 137 145 -1 137 122 121 -1 160 161 162 -1 161 160 163 -1 160 164 163 -1 164 160 165 -1 139 128 126 -1 128 139 148 -1 166 155 167 -1 155 166 156 -1 130 150 132 -1 150 130 149 -1 155 164 167 -1 164 155 163 -1 163 155 157 -1 163 157 161 -1 161 157 159 -1 161 159 116 -1 116 159 168 -1 116 168 119 -1 119 168 169 -1 119 169 170 -1 170 169 171 -1 170 171 172 -1 172 171 173 -1 172 173 174 -1 127 138 125 -1 138 127 153 -1 162 116 118 -1 116 162 161 -1 165 167 164 -1 167 165 166 -1 110 175 176 -1 175 110 112 -1 177 172 178 -1 172 177 170 -1 117 170 177 -1 170 117 119 -1 128 149 130 -1 149 128 148 -1 172 179 178 -1 179 172 174 -1 144 180 142 -1 180 144 181 -1 142 182 143 -1 182 142 180 -1 146 183 184 -1 183 146 147 -1 133 173 171 -1 173 133 135 -1 169 133 171 -1 133 169 131 -1 159 129 168 -1 129 159 127 -1 106 114 109 -1 114 106 151 -1 179 110 176 -1 110 179 113 -1 113 179 106 -1 106 179 134 -1 106 134 151 -1 134 179 174 -1 174 135 134 -1 135 174 173 -1 185 166 183 -1 166 185 156 -1 156 185 154 -1 154 185 158 -1 175 162 176 -1 162 175 160 -1 160 175 182 -1 160 182 180 -1 160 180 181 -1 160 181 165 -1 165 181 184 -1 165 184 183 -1 165 183 166 -1 176 162 118 -1 176 118 117 -1 176 117 177 -1 176 177 178 -1 176 178 179 -1 168 131 169 -1 131 168 129 -1 127 152 153 -1 152 127 159 -1 152 159 158 -1 152 158 185 -1 147 185 183 -1 185 147 152 -1 146 181 144 -1 181 146 184 -1 115 108 107 -1 108 115 143 -1 112 182 175 -1 182 112 111 -1 182 111 108 -1 182 108 143 -1 186 187 188 -1 187 186 189 -1 190 188 191 -1 188 190 186 -1 192 193 194 -1 193 192 195 -1 196 195 192 -1 195 196 197 -1 198 196 199 -1 196 198 197 -1 200 199 201 -1 199 200 198 -1 202 201 203 -1 201 202 200 -1 204 191 205 -1 191 204 190 -1 206 204 205 -1 204 206 207 -1 208 207 206 -1 207 208 209 -1 210 209 208 -1 209 210 211 -1 194 211 210 -1 211 194 193 -1 "
						                >
							<Coordinate DEF="coords_ME_02-1-3_001"
							            point="13.011127 4.125984 12.204068 15.354331 12.393701 12.204068 13.011127 12.393701 12.204068 15.354331 4.125984 12.204068 15.354331 4.125984 13.516404 13.011127 12.393701 13.516404 15.354331 12.393701 13.516404 13.011127 4.125984 13.516404 15.354331 4.125984 10.891732 15.354331 12.393701 10.891732 12.598425 6.488189 14.435040 12.496026 5.892836 14.828740 12.598425 6.488189 14.828740 12.496026 5.892836 14.435040 12.007874 7.511054 11.285433 5.905512 7.669291 11.285433 11.417323 7.669291 11.285433 5.314960 7.511054 11.285433 12.440187 7.078740 11.285433 4.882647 7.078740 11.285433 12.598425 6.488189 11.285433 4.724410 6.488189 11.285433 12.496026 5.892836 11.285433 4.826808 5.892836 11.285433 12.225866 5.352517 11.285433 5.096968 5.352517 11.285433 11.811024 4.913386 11.285433 5.511811 4.913386 11.285433 11.811024 4.125984 11.285433 5.511811 4.125984 11.285433 5.314960 7.511054 10.891732 5.905512 7.669291 10.891732 4.882647 7.078740 10.891732 12.598425 6.488189 10.891732 12.440187 7.078740 10.891732 12.007874 7.511054 10.891732 3.779528 12.039371 10.891732 6.299212 12.393701 10.891732 1.889764 11.330709 10.891732 11.417323 7.669291 10.891732 0.629921 10.267716 10.891732 0.000000 8.850393 10.891732 12.496026 5.892836 10.891732 12.225866 5.352517 10.891732 11.811024 4.913386 10.891732 11.811024 4.125984 10.891732 0.000000 6.488189 10.891732 4.724410 6.488189 10.891732 4.882647 7.078740 14.828740 5.314960 7.511054 14.435040 5.314960 7.511054 14.828740 4.882647 7.078740 14.435040 4.724410 6.488189 14.828740 4.724410 6.488189 14.435040 12.007874 7.511054 14.828740 12.440187 7.078740 14.435040 12.440187 7.078740 14.828740 12.007874 7.511054 14.435040 11.417323 7.669291 14.435040 11.417323 7.669291 14.828740 5.905512 7.669291 14.828740 5.905512 7.669291 14.435040 4.826808 5.892836 14.435040 5.096968 5.352517 14.435040 12.225866 5.352517 14.435040 5.511811 4.913386 14.435040 11.811024 4.913386 14.435040 5.511811 4.125984 14.435040 11.811024 4.125984 14.435040 15.354331 12.393701 14.828740 15.354331 4.125984 14.828740 12.225866 5.352517 14.828740 11.811024 4.913386 14.828740 11.811024 4.125984 14.828740 3.779528 12.039371 14.828740 1.889764 11.330709 14.828740 6.299212 12.393701 14.828740 0.000000 8.850393 14.828740 0.629921 10.267716 14.828740 0.000000 6.488189 14.828740 19.317549 0.000000 21.416666 21.610237 21.043306 21.718504 19.317549 21.043306 21.416666 21.610237 -0.000000 21.718504 17.181103 0.000000 20.531721 17.181103 21.043306 20.531721 13.938751 21.043306 8.431103 13.053806 0.000000 10.567548 13.053806 21.043306 10.567548 13.938751 0.000000 8.431103 15.346495 21.043306 6.596495 15.346495 0.000000 6.596495 17.181103 0.000000 5.188751 17.181103 21.043306 5.188751 19.317549 0.000000 4.303807 19.317549 21.043306 4.303807 21.610237 -0.000000 4.001968 21.610237 21.043306 4.001968 15.346495 21.043306 19.123978 15.346495 0.000000 19.123978 13.938751 21.043306 17.289370 13.938751 0.000000 17.289370 13.053806 21.043306 15.152925 13.053806 0.000000 15.152925 12.751968 21.043306 12.860236 12.751968 0.000000 12.860236 34.748714 11.177821 16.917322 32.405510 11.177821 8.649607 34.748714 11.177821 8.649607 32.405510 11.177821 16.917322 32.405510 9.865485 16.917322 34.748714 9.865485 8.649607 32.405510 9.865485 8.649607 34.748714 9.865485 16.917322 32.405510 12.490157 16.917322 32.405510 12.490157 8.649607 35.161419 8.946851 14.555119 35.263817 8.553149 15.150472 35.161419 8.553149 14.555119 35.263817 8.946851 15.150472 35.751968 12.096457 13.532253 41.854332 12.096457 13.374016 36.342518 12.096457 13.374016 42.444881 12.096457 13.532253 35.319656 12.096457 13.964567 42.877197 12.096457 13.964567 35.161419 12.096457 14.555119 43.035435 12.096457 14.555119 35.263817 12.096457 15.150472 42.933033 12.096457 15.150472 35.533978 12.096457 15.690790 42.662876 12.096457 15.690790 35.948818 12.096457 16.129921 42.248032 12.096457 16.129921 35.948818 12.096457 16.917322 42.248032 12.096457 16.917322 42.444881 12.490157 13.532253 41.854332 12.490157 13.374016 42.877197 12.490157 13.964567 35.161419 12.490157 14.555119 35.319656 12.490157 13.964567 35.751968 12.490157 13.532253 43.980316 12.490157 9.003937 41.460629 12.490157 8.649607 45.870079 12.490157 9.712599 36.342518 12.490157 13.374016 47.129921 12.490157 10.775591 47.759842 12.490157 12.192913 35.263817 12.490157 15.150472 35.533978 12.490157 15.690790 35.948818 12.490157 16.129921 35.948818 12.490157 16.917322 47.759842 12.490157 14.555119 43.035435 12.490157 14.555119 42.877197 8.553149 13.964567 42.444881 8.946851 13.532253 42.444881 8.553149 13.532253 42.877197 8.946851 13.964567 43.035435 8.553149 14.555119 43.035435 8.946851 14.555119 35.751968 8.553149 13.532253 35.319656 8.946851 13.964567 35.319656 8.553149 13.964567 35.751968 8.946851 13.532253 36.342518 8.946851 13.374016 36.342518 8.553149 13.374016 41.854332 8.553149 13.374016 41.854332 8.946851 13.374016 42.933033 8.946851 15.150472 42.662876 8.946851 15.690790 35.533978 8.946851 15.690790 42.248032 8.946851 16.129921 35.948818 8.946851 16.129921 42.248032 8.946851 16.917322 35.948818 8.946851 16.917322 32.405510 8.553149 8.649607 32.405510 8.553149 16.917322 35.533978 8.553149 15.690790 35.948818 8.553149 16.129921 35.948818 8.553149 16.917322 43.980316 8.553149 9.003937 45.870079 8.553149 9.712599 41.460629 8.553149 8.649607 47.759842 8.553149 12.192913 47.129921 8.553149 10.775591 47.759842 8.553149 14.555119 28.442295 1.965224 21.043306 26.149607 1.663386 0.000000 28.442295 1.965224 0.000000 26.149607 1.663386 21.043306 30.578741 2.850169 21.043306 30.578741 2.850169 0.000000 33.821091 14.950788 0.000000 34.706036 12.814342 21.043306 34.706036 12.814342 0.000000 33.821091 14.950788 21.043306 32.413349 16.785395 0.000000 32.413349 16.785395 21.043306 30.578741 18.193138 21.043306 30.578741 18.193138 0.000000 28.442295 19.078083 21.043306 28.442295 19.078083 0.000000 26.149607 19.379921 21.043306 26.149607 19.379921 0.000000 32.413349 4.257912 21.043306 32.413349 4.257912 0.000000 33.821091 6.092520 0.000000 33.821091 6.092520 21.043306 34.706036 8.228965 0.000000 34.706036 8.228965 21.043306 35.007874 10.521653 0.000000 35.007874 10.521653 21.043306 "
							            />
						</IndexedFaceSet>
					</Shape>
				</Group>
			</Transform>
		</Transform>
	</Scene>
</X3D>