<?xml version="1.0" encoding="UTF-8"?>
<!DOCTYPE X3D PUBLIC "ISO//Web3D//DTD X3D 3.0//EN" "http://www.web3d.org/specifications/x3d-3.0.dtd">
<X3D version="3.0" profile="Immersive" xmlns:xsd="http://www.w3.org/2001/XMLSchema-instance" xsd:noNamespaceSchemaLocation="http://www.web3d.org/specifications/x3d-3.0.xsd">
	<head>
		<meta name="filename" content="02-1-2.x3d" />
		<meta name="created" content="2026-06-21 15:09:37" />
		<meta name="generator" content="Blender 4.5.4 LTS" />
		<meta name="translator" content="Web3D X3D/VRML2 format v2.5.1" />
	</head>
	<Scene>
		<NavigationInfo headlight="true"
		                visibilityLimit="0.0"
		                type='"EXAMINE", "ANY"'
		                avatarSize="0.25, 1.75, 0.75"
		                />
		<Background DEF="WO_World"
		            groundColor="0.051 0.051 0.051"
		            skyColor="0.051 0.051 0.051"
		            />
		<Transform DEF="_02-1-2_TRANSFORM"
		           translation="0.000000 0.000000 0.000000"
		           scale="1.000000 1.000000 1.000000"
		           rotation="0.000000 0.707107 0.707107 3.141593"
		           >
			<Transform DEF="_02-1-2_ifs_TRANSFORM"
			           translation="0.000000 0.000000 0.000000"
			           scale="1.000000 1.000000 1.000000"
			           rotation="0.000000 1.000000 0.000000 0.000000"
			           >
				<Group DEF="group_ME_02-1-2_001">
					<Shape>
						<Appearance>
						</Appearance>
						<IndexedFaceSet solid="false"
						                coordIndex="0 1 2 -1 1 0 3 -1 3 0 4 -1 4 0 5 -1 4 5 6 -1 6 5 7 -1 7 5 8 -1 8 5 9 -1 0 10 11 -1 10 0 12 -1 12 0 13 -1 12 13 14 -1 12 14 15 -1 12 15 16 -1 13 0 17 -1 17 0 2 -1 16 15 18 -1 16 18 19 -1 16 19 20 -1 16 20 21 -1 22 23 24 -1 23 22 10 -1 23 10 25 -1 25 10 12 -1 26 27 28 -1 27 26 29 -1 28 30 26 -1 30 28 31 -1 30 31 5 -1 5 31 9 -1 32 31 33 -1 31 32 34 -1 31 34 9 -1 34 32 35 -1 36 37 38 -1 37 36 39 -1 37 39 40 -1 40 39 41 -1 42 43 44 -1 43 42 45 -1 43 45 46 -1 43 46 47 -1 47 46 48 -1 47 48 49 -1 50 51 52 -1 51 50 53 -1 51 53 54 -1 51 54 55 -1 55 54 56 -1 51 55 57 -1 55 58 57 -1 58 55 59 -1 49 50 47 -1 50 49 53 -1 39 42 41 -1 42 39 45 -1 35 60 34 -1 60 35 61 -1 62 63 64 -1 63 62 65 -1 63 65 66 -1 66 65 37 -1 66 37 67 -1 67 37 40 -1 60 16 21 -1 16 60 61 -1 16 61 64 -1 16 64 63 -1 68 11 69 -1 11 68 70 -1 11 70 71 -1 11 71 0 -1 72 73 74 -1 73 72 75 -1 76 77 78 -1 77 76 79 -1 71 27 29 -1 27 71 70 -1 80 81 82 -1 81 80 83 -1 84 80 85 -1 80 84 83 -1 83 84 69 -1 69 84 68 -1 68 84 86 -1 86 84 87 -1 87 84 88 -1 88 84 62 -1 68 86 89 -1 88 62 90 -1 90 62 91 -1 91 62 92 -1 92 62 64 -1 68 93 33 -1 93 68 94 -1 94 68 95 -1 95 68 96 -1 96 68 89 -1 33 93 97 -1 33 97 98 -1 33 98 99 -1 33 99 32 -1 10 81 83 -1 81 10 22 -1 73 100 74 -1 100 73 101 -1 101 73 102 -1 102 73 103 -1 104 105 106 -1 105 104 107 -1 107 104 108 -1 107 108 109 -1 107 109 110 -1 110 109 111 -1 111 109 112 -1 111 112 113 -1 111 113 114 -1 111 114 115 -1 111 115 54 -1 112 109 74 -1 112 74 100 -1 54 115 116 -1 54 116 117 -1 54 117 118 -1 54 118 56 -1 10 69 11 -1 69 10 83 -1 119 105 120 -1 105 119 106 -1 53 111 54 -1 111 53 121 -1 122 123 124 -1 123 122 125 -1 126 104 127 -1 104 126 108 -1 128 75 129 -1 75 128 130 -1 75 130 103 -1 75 103 73 -1 131 74 109 -1 74 131 72 -1 132 49 48 -1 49 132 133 -1 111 134 110 -1 134 111 121 -1 134 121 135 -1 134 135 136 -1 135 137 138 -1 137 135 121 -1 139 125 122 -1 125 139 140 -1 141 110 134 -1 110 141 107 -1 123 59 124 -1 59 123 58 -1 128 139 130 -1 139 128 140 -1 127 106 119 -1 106 127 104 -1 131 108 126 -1 108 131 109 -1 141 105 107 -1 105 141 120 -1 142 143 144 -1 143 142 145 -1 146 147 148 -1 147 146 149 -1 150 151 152 -1 151 150 153 -1 154 155 156 -1 155 154 157 -1 158 159 160 -1 159 158 161 -1 162 147 149 -1 147 162 163 -1 150 145 142 -1 145 150 152 -1 153 148 151 -1 148 153 146 -1 143 164 144 -1 164 143 165 -1 166 36 167 -1 36 166 39 -1 161 154 159 -1 154 161 157 -1 156 163 162 -1 163 156 155 -1 147 151 148 -1 151 147 152 -1 152 147 163 -1 152 163 145 -1 145 163 155 -1 145 155 143 -1 143 155 157 -1 143 157 165 -1 165 157 168 -1 168 157 161 -1 168 161 158 -1 168 158 166 -1 166 158 45 -1 166 45 39 -1 169 166 167 -1 166 169 168 -1 164 168 169 -1 168 164 165 -1 46 158 160 -1 158 46 45 -1 117 170 118 -1 170 117 171 -1 172 173 174 -1 173 172 175 -1 24 81 22 -1 81 24 82 -1 176 47 177 -1 47 176 43 -1 52 135 50 -1 135 52 136 -1 178 179 180 -1 179 178 181 -1 25 84 85 -1 84 25 179 -1 179 25 180 -1 180 25 12 -1 24 80 82 -1 80 24 23 -1 182 183 184 -1 183 182 185 -1 185 182 186 -1 185 186 187 -1 187 186 188 -1 187 188 128 -1 128 188 140 -1 140 188 189 -1 140 189 125 -1 125 189 172 -1 125 172 123 -1 123 172 174 -1 123 174 58 -1 58 174 57 -1 190 191 192 -1 191 190 181 -1 191 181 178 -1 191 178 193 -1 47 138 177 -1 138 47 135 -1 135 47 50 -1 113 194 195 -1 194 113 112 -1 63 178 180 -1 178 63 66 -1 128 196 187 -1 196 128 129 -1 67 178 66 -1 178 67 193 -1 102 197 101 -1 197 102 198 -1 184 199 200 -1 199 184 183 -1 116 171 117 -1 171 116 201 -1 182 200 202 -1 200 182 184 -1 113 203 114 -1 203 113 195 -1 103 198 102 -1 198 103 130 -1 186 204 188 -1 204 186 205 -1 170 56 118 -1 56 170 55 -1 197 194 206 -1 194 197 195 -1 195 197 198 -1 195 198 203 -1 203 198 130 -1 203 130 207 -1 207 130 139 -1 207 139 201 -1 201 139 171 -1 171 139 122 -1 171 122 124 -1 171 124 170 -1 170 124 59 -1 170 59 55 -1 189 175 172 -1 175 189 208 -1 209 192 191 -1 192 209 210 -1 12 63 180 -1 63 12 16 -1 183 211 199 -1 211 183 185 -1 114 207 115 -1 207 114 203 -1 204 189 188 -1 189 204 208 -1 4 212 213 -1 212 4 6 -1 212 7 214 -1 7 212 6 -1 215 3 216 -1 3 215 1 -1 214 8 217 -1 8 214 7 -1 5 71 30 -1 71 5 0 -1 173 57 174 -1 57 173 51 -1 8 34 217 -1 34 8 9 -1 112 206 194 -1 206 112 100 -1 187 211 185 -1 211 187 196 -1 182 205 186 -1 205 182 202 -1 215 2 1 -1 2 215 218 -1 219 13 17 -1 13 219 220 -1 221 14 222 -1 14 221 15 -1 223 15 221 -1 15 223 18 -1 19 223 224 -1 223 19 18 -1 100 197 206 -1 197 100 101 -1 25 80 23 -1 80 25 85 -1 222 13 220 -1 13 222 14 -1 60 20 225 -1 20 60 21 -1 207 116 115 -1 116 207 201 -1 20 224 225 -1 224 20 19 -1 218 17 2 -1 17 218 219 -1 26 71 29 -1 71 26 30 -1 215 219 218 -1 219 215 220 -1 220 215 216 -1 220 216 222 -1 222 216 213 -1 222 213 221 -1 221 213 212 -1 221 212 223 -1 223 212 214 -1 223 214 224 -1 224 214 225 -1 225 214 217 -1 225 217 60 -1 60 217 34 -1 209 77 210 -1 77 209 78 -1 216 4 213 -1 4 216 3 -1 136 141 134 -1 141 119 120 -1 119 141 127 -1 127 141 126 -1 126 141 131 -1 131 141 136 -1 131 136 200 -1 200 136 202 -1 202 136 205 -1 205 136 204 -1 204 136 52 -1 131 200 72 -1 204 52 208 -1 208 52 175 -1 175 52 173 -1 173 52 51 -1 72 199 75 -1 199 72 200 -1 75 199 211 -1 75 211 196 -1 75 196 129 -1 226 132 227 -1 132 226 133 -1 133 226 177 -1 177 226 176 -1 177 137 133 -1 137 177 138 -1 226 228 229 -1 228 226 227 -1 76 228 79 -1 228 76 229 -1 31 68 33 -1 68 31 70 -1 89 230 231 -1 230 89 86 -1 232 233 234 -1 233 232 235 -1 230 236 231 -1 236 230 237 -1 237 230 238 -1 237 238 239 -1 239 238 240 -1 239 240 241 -1 241 240 242 -1 241 242 243 -1 243 242 244 -1 244 242 245 -1 244 245 246 -1 244 246 247 -1 247 246 61 -1 247 61 35 -1 248 249 250 -1 249 248 251 -1 88 238 87 -1 238 88 240 -1 97 244 98 -1 244 97 243 -1 94 241 93 -1 241 94 239 -1 64 246 92 -1 246 64 61 -1 245 90 91 -1 90 245 242 -1 98 247 99 -1 247 98 244 -1 90 240 88 -1 240 90 242 -1 252 248 253 -1 248 252 251 -1 251 252 254 -1 251 254 255 -1 255 254 256 -1 255 256 234 -1 234 256 257 -1 234 257 232 -1 232 257 258 -1 232 258 259 -1 259 258 260 -1 260 258 261 -1 260 261 42 -1 42 261 41 -1 252 262 263 -1 262 252 253 -1 241 97 93 -1 97 241 243 -1 264 41 261 -1 41 264 40 -1 31 27 70 -1 27 31 28 -1 95 239 94 -1 239 95 237 -1 265 257 256 -1 257 265 266 -1 87 230 86 -1 230 87 238 -1 253 250 262 -1 250 253 248 -1 267 232 259 -1 232 267 235 -1 96 231 236 -1 231 96 89 -1 247 32 99 -1 32 247 35 -1 95 236 237 -1 236 95 96 -1 246 91 92 -1 91 246 245 -1 254 265 256 -1 265 254 268 -1 252 268 254 -1 268 252 263 -1 257 269 258 -1 269 257 266 -1 234 270 255 -1 270 234 233 -1 42 271 260 -1 271 42 44 -1 255 249 251 -1 249 255 270 -1 258 264 261 -1 264 258 269 -1 271 259 260 -1 259 271 267 -1 193 263 262 -1 263 193 268 -1 268 193 265 -1 265 193 67 -1 265 67 266 -1 266 67 269 -1 269 67 264 -1 264 67 40 -1 193 209 191 -1 209 193 176 -1 176 193 249 -1 176 249 270 -1 176 270 233 -1 176 233 43 -1 249 193 250 -1 250 193 262 -1 43 233 235 -1 43 235 267 -1 43 267 271 -1 43 271 44 -1 78 229 76 -1 229 78 209 -1 229 209 226 -1 226 209 176 -1 228 77 79 -1 77 228 210 -1 132 228 227 -1 228 132 210 -1 210 132 192 -1 192 132 190 -1 190 132 149 -1 149 132 162 -1 162 132 156 -1 156 132 48 -1 190 149 146 -1 156 48 154 -1 154 48 159 -1 159 48 160 -1 160 48 46 -1 190 144 38 -1 144 190 142 -1 142 190 150 -1 150 190 153 -1 153 190 146 -1 38 144 164 -1 38 164 169 -1 38 169 167 -1 38 167 36 -1 53 137 121 -1 137 53 133 -1 133 53 49 -1 37 179 181 -1 179 37 65 -1 37 190 38 -1 190 37 181 -1 84 65 62 -1 65 84 179 -1 "
						                >
							<Coordinate DEF="coords_ME_02-1-2_001"
							            point="1.968504 3.937008 1.968504 2.952756 3.937008 4.882647 3.543307 3.937008 4.724410 2.520442 3.937008 5.314960 2.362205 3.937008 5.905512 1.968504 3.937008 8.267716 2.464604 3.937008 6.500865 2.734763 3.937008 7.041184 3.149606 3.937008 7.480315 3.149606 3.937008 8.267716 3.149606 3.937008 1.574803 1.968504 3.937008 1.574803 9.842520 3.937008 1.968504 8.858268 3.937008 4.882647 9.290581 3.937008 5.314960 9.448819 3.937008 5.905512 9.842520 3.937008 8.267716 8.267716 3.937008 4.724410 9.346420 3.937008 6.500865 9.076261 3.937008 7.041184 8.661417 3.937008 7.480315 8.661417 3.937008 8.267716 3.149606 3.937008 0.000000 8.661417 3.937008 1.574803 8.661417 3.937008 0.000000 9.842520 3.937008 1.574803 0.000000 3.543307 8.267716 0.000000 0.393701 1.968504 0.000000 0.393701 8.267716 0.000000 3.543307 1.968504 1.968504 3.543307 8.267716 1.968504 0.393701 8.267716 3.149606 0.000000 8.267716 1.968504 0.000000 8.267716 3.149606 3.543307 8.267716 3.149606 0.393701 8.267716 14.960629 0.000000 8.267716 13.779528 0.393701 8.267716 13.779528 0.000000 8.267716 14.960629 0.393701 8.267716 14.960629 3.937008 8.267716 14.960629 3.543307 8.267716 20.472441 3.543307 8.267716 21.653543 3.937008 8.267716 20.472441 3.937008 8.267716 20.472441 0.393701 8.267716 20.472441 0.000000 8.267716 21.653543 3.543307 8.267716 21.653543 0.000000 8.267716 21.653543 0.393701 8.267716 25.590551 3.543307 8.267716 26.771654 3.937008 8.267716 25.590551 3.937008 8.267716 25.590551 0.393701 8.267716 25.590551 0.000000 8.267716 26.771654 0.393701 8.267716 26.771654 0.000000 8.267716 26.771654 3.543307 8.267716 32.283466 3.543307 8.267716 32.283466 0.393701 8.267716 8.661417 3.543307 8.267716 8.661417 0.393701 8.267716 9.842520 0.000000 8.267716 9.842520 3.543307 8.267716 8.661417 0.000000 8.267716 9.842520 0.393701 8.267716 13.779528 3.543307 8.267716 13.779528 3.937008 8.267716 1.968504 0.000000 1.968504 1.968504 0.000000 1.574803 1.968504 0.393701 1.968504 1.968504 3.543307 1.968504 37.795277 3.937008 3.543307 37.795277 0.000000 5.905512 37.795277 0.000000 3.543307 37.795277 3.937008 5.905512 20.472441 3.937008 0.000000 14.960629 0.000000 0.000000 14.960629 3.937008 0.000000 20.472441 0.000000 0.000000 8.661417 0.000000 1.574803 3.149606 0.000000 0.000000 8.661417 0.000000 0.000000 3.149606 0.000000 1.574803 9.842520 0.000000 1.968504 9.842520 0.000000 1.574803 8.858268 0.000000 4.882647 9.290581 0.000000 5.314960 9.448819 0.000000 5.905512 8.267716 0.000000 4.724410 9.346420 0.000000 6.500865 9.076261 0.000000 7.041184 8.661417 0.000000 7.480315 2.362205 0.000000 5.905512 2.520442 0.000000 5.314960 2.952756 0.000000 4.882647 3.543307 0.000000 4.724410 2.464604 0.000000 6.500865 2.734763 0.000000 7.041184 3.149606 0.000000 7.480315 31.889763 0.000000 4.724410 32.480316 0.000000 4.882647 32.912628 0.000000 5.314960 33.070866 0.000000 5.905512 34.015747 0.000000 0.354331 26.771654 0.000000 0.000000 31.496063 0.000000 0.000000 26.771654 0.000000 1.574803 35.905510 0.000000 1.062992 37.165356 0.000000 2.125984 25.590551 0.000000 1.574803 25.590551 0.000000 1.968504 27.165354 0.000000 4.724410 26.574802 0.000000 4.882647 26.142490 0.000000 5.314960 25.984251 0.000000 5.905512 26.086651 0.000000 6.500865 26.356810 0.000000 7.041184 26.771654 0.000000 7.480315 31.496063 3.937008 0.000000 26.771654 3.937008 0.000000 25.590551 0.393701 1.968504 32.698307 0.393701 7.041184 32.283466 3.543307 7.480315 32.283466 0.393701 7.480315 32.698307 3.543307 7.041184 35.905510 3.937008 1.062992 34.015747 3.937008 0.354331 33.070866 3.543307 5.905512 33.070866 3.937008 5.905512 33.070866 0.393701 5.905512 37.165356 3.937008 2.125984 21.653543 0.000000 1.968504 21.653543 0.393701 1.968504 25.590551 3.937008 1.574803 25.590551 3.543307 1.968504 25.590551 3.937008 1.968504 23.622047 0.393701 1.968504 23.622047 3.543307 1.968504 32.968468 0.393701 6.500865 32.968468 3.543307 6.500865 26.771654 3.937008 1.574803 14.331466 0.000000 5.314960 14.173228 0.393701 5.905512 14.173228 0.000000 5.905512 14.331466 0.393701 5.314960 20.078741 0.000000 4.724410 20.669291 0.393701 4.882647 20.078741 0.393701 4.724410 20.669291 0.000000 4.882647 14.763780 0.000000 4.882647 15.354331 0.393701 4.724410 14.763780 0.393701 4.882647 15.354331 0.000000 4.724410 21.157444 0.000000 6.500865 21.259842 0.393701 5.905512 21.259842 0.000000 5.905512 21.157444 0.393701 6.500865 20.472441 0.393701 7.480315 20.887283 0.000000 7.041184 20.472441 0.000000 7.480315 20.887283 0.393701 7.041184 21.101604 0.000000 5.314960 21.101604 0.393701 5.314960 14.275627 0.000000 6.500865 14.275627 0.393701 6.500865 14.960629 0.393701 7.480315 14.960629 0.000000 7.480315 14.545787 0.393701 7.041184 14.545787 0.000000 7.041184 26.771654 0.393701 7.480315 26.356810 0.393701 7.041184 26.356810 3.543307 7.041184 26.771654 3.937008 7.480315 26.771654 3.543307 7.480315 26.356810 3.937008 7.041184 21.653543 3.937008 1.968504 21.653543 3.543307 1.968504 13.779528 3.543307 1.968504 9.842520 0.393701 1.968504 9.842520 3.543307 1.968504 13.779528 0.393701 1.968504 26.574802 3.543307 4.882647 31.889763 3.543307 4.724410 27.165354 3.543307 4.724410 32.480316 3.543307 4.882647 26.142490 3.543307 5.314960 32.912628 3.543307 5.314960 25.984251 3.543307 5.905512 26.086651 3.543307 6.500865 13.779528 0.000000 1.968504 13.779528 3.937008 1.574803 13.779528 0.000000 1.574803 13.779528 3.937008 1.968504 27.165354 0.393701 4.724410 26.574802 0.393701 4.882647 32.912628 3.937008 5.314960 32.480316 0.393701 4.882647 32.912628 0.393701 5.314960 31.889763 3.937008 4.724410 27.165354 3.937008 4.724410 26.086651 0.393701 6.500865 26.574802 3.937008 4.882647 26.142490 0.393701 5.314960 25.984251 3.937008 5.905512 26.142490 3.937008 5.314960 31.889763 0.393701 4.724410 25.984251 0.393701 5.905512 26.086651 3.937008 6.500865 14.960629 3.937008 1.574803 14.960629 0.000000 1.574803 32.480316 3.937008 4.882647 2.464604 3.543307 6.500865 2.362205 3.543307 5.905512 2.734763 3.543307 7.041184 2.952756 3.543307 4.882647 2.520442 3.543307 5.314960 3.149606 3.543307 7.480315 3.543307 3.543307 4.724410 8.267716 3.543307 4.724410 8.858268 3.543307 4.882647 9.448819 3.543307 5.905512 9.290581 3.543307 5.314960 9.346420 3.543307 6.500865 9.076261 3.543307 7.041184 8.661417 3.543307 7.480315 21.653543 3.937008 1.574803 21.653543 0.000000 1.574803 20.472441 0.000000 1.574803 20.472441 3.937008 1.574803 8.858268 0.393701 4.882647 8.267716 0.393701 4.724410 21.157444 3.543307 6.500865 21.259842 3.937008 5.905512 21.259842 3.543307 5.905512 21.157444 3.937008 6.500865 3.543307 0.393701 4.724410 2.952756 0.393701 4.882647 9.290581 0.393701 5.314960 2.520442 0.393701 5.314960 9.448819 0.393701 5.905512 2.362205 0.393701 5.905512 9.346420 0.393701 6.500865 2.464604 0.393701 6.500865 2.734763 0.393701 7.041184 9.076261 0.393701 7.041184 8.661417 0.393701 7.480315 3.149606 0.393701 7.480315 20.078741 3.543307 4.724410 20.669291 3.937008 4.882647 20.078741 3.937008 4.724410 20.669291 3.543307 4.882647 14.763780 3.543307 4.882647 15.354331 3.543307 4.724410 14.331466 3.543307 5.314960 21.101604 3.543307 5.314960 14.173228 3.543307 5.905512 14.275627 3.543307 6.500865 14.545787 3.543307 7.041184 20.887283 3.543307 7.041184 20.472441 3.543307 7.480315 14.960629 3.543307 7.480315 15.354331 3.937008 4.724410 14.763780 3.937008 4.882647 14.960629 3.937008 7.480315 14.173228 3.937008 5.905512 14.275627 3.937008 6.500865 20.887283 3.937008 7.041184 14.331466 3.937008 5.314960 14.545787 3.937008 7.041184 21.101604 3.937008 5.314960 20.472441 3.937008 7.480315 "
							            />
						</IndexedFaceSet>
					</Shape>
				</Group>
			</Transform>
		</Transform>
	</Scene>
</X3D>