<?xml version="1.0" encoding="UTF-8"?>
<!DOCTYPE X3D PUBLIC "ISO//Web3D//DTD X3D 3.0//EN" "http://www.web3d.org/specifications/x3d-3.0.dtd">
<X3D version="3.0" profile="Immersive" xmlns:xsd="http://www.w3.org/2001/XMLSchema-instance" xsd:noNamespaceSchemaLocation="http://www.web3d.org/specifications/x3d-3.0.xsd">
	<head>
		<meta name="filename" content="02-1-1.x3d" />
		<meta name="created" content="2026-06-21 15:09:37" />
		<meta name="generator" content="Blender 4.5.4 LTS" />
		<meta name="translator" content="Web3D X3D/VRML2 format v2.5.1" />
	</head>
	<Scene>
		<NavigationInfo headlight="true"
		                visibilityLimit="0.0"
		                type='"EXAMINE", "ANY"'
		                avatarSize="0.25, 1.75, 0.75"
		                />
		<Background DEF="WO_World"
		            groundColor="0.051 0.051 0.051"
		            skyColor="0.051 0.051 0.051"
		            />
		<Transform DEF="_02-1-1_TRANSFORM"
		           translation="0.000000 0.000000 0.000000"
		           scale="1.000000 1.000000 1.000000"
		           rotation="0.000000 0.707107 0.707107 3.141593"
		           >
			<Transform DEF="_02-1-1_ifs_TRANSFORM"
			           translation="0.000000 0.000000 0.000000"
			           scale="1.000000 1.000000 1.000000"
			           rotation="0.000000 1.000000 0.000000 0.000000"
			           >
				<Group DEF="group_ME_02-1-1_001">
					<Shape>
						<Appearance>
						</Appearance>
						<IndexedFaceSet solid="false"
						                coordIndex="0 1 2 -1 3 4 5 -1 4 3 6 -1 3 7 6 -1 7 3 8 -1 1 7 8 -1 9 1 8 -1 1 9 2 -1 10 8 3 -1 8 10 9 -1 7 11 6 -1 6 12 4 -1 12 6 11 -1 11 13 12 -1 10 5 14 -1 5 10 3 -1 15 16 17 -1 16 15 18 -1 16 19 20 -1 19 16 18 -1 21 22 23 -1 22 21 24 -1 19 25 26 -1 25 19 27 -1 25 27 28 -1 27 19 18 -1 27 18 29 -1 29 18 15 -1 29 30 31 -1 30 29 15 -1 32 33 34 -1 33 32 25 -1 33 25 35 -1 35 25 28 -1 36 15 37 -1 15 36 38 -1 15 38 30 -1 38 36 39 -1 39 40 38 -1 40 39 41 -1 42 43 44 -1 43 42 45 -1 37 17 46 -1 17 37 15 -1 47 48 49 -1 48 47 50 -1 51 41 52 -1 41 51 40 -1 53 0 1 -1 0 53 54 -1 55 56 57 -1 56 55 58 -1 47 59 60 -1 59 47 49 -1 59 49 61 -1 59 61 62 -1 48 63 64 -1 63 48 50 -1 65 11 66 -1 11 65 7 -1 53 7 65 -1 7 53 1 -1 66 13 67 -1 13 66 11 -1 67 68 69 -1 68 67 13 -1 58 70 56 -1 70 58 71 -1 72 73 74 -1 73 72 75 -1 62 76 0 -1 76 62 77 -1 77 62 78 -1 78 62 61 -1 11 68 13 -1 68 11 79 -1 79 11 7 -1 79 7 1 -1 79 1 46 -1 46 1 80 -1 46 80 81 -1 46 81 82 -1 46 82 83 -1 46 83 37 -1 80 1 0 -1 80 0 76 -1 37 83 84 -1 37 84 85 -1 37 85 86 -1 37 86 36 -1 73 55 57 -1 55 73 75 -1 26 87 88 -1 87 26 25 -1 87 74 88 -1 74 87 72 -1 64 51 52 -1 51 64 63 -1 54 62 0 -1 62 54 59 -1 42 89 45 -1 89 42 90 -1 90 42 91 -1 91 42 92 -1 93 21 23 -1 21 93 94 -1 94 93 95 -1 94 95 96 -1 94 96 97 -1 97 96 98 -1 97 98 99 -1 97 99 100 -1 97 100 101 -1 97 101 28 -1 98 96 45 -1 98 45 89 -1 28 101 102 -1 28 102 103 -1 28 103 104 -1 28 104 35 -1 69 66 67 -1 66 69 105 -1 66 105 65 -1 65 105 53 -1 106 107 105 -1 107 106 108 -1 108 106 31 -1 105 107 109 -1 105 109 110 -1 105 110 53 -1 53 110 54 -1 108 31 111 -1 111 31 112 -1 112 31 113 -1 113 31 30 -1 54 114 59 -1 114 54 110 -1 59 114 115 -1 59 115 116 -1 59 116 60 -1 117 108 118 -1 108 117 107 -1 119 107 117 -1 107 119 109 -1 119 110 109 -1 110 119 120 -1 120 114 110 -1 114 120 121 -1 121 115 114 -1 115 121 122 -1 123 115 122 -1 115 123 116 -1 47 116 123 -1 116 47 60 -1 119 121 120 -1 121 119 122 -1 122 119 117 -1 122 117 123 -1 123 117 118 -1 123 118 47 -1 47 118 124 -1 47 124 50 -1 50 124 125 -1 50 125 63 -1 63 125 126 -1 63 126 51 -1 51 126 38 -1 51 38 40 -1 113 38 126 -1 38 113 30 -1 31 127 29 -1 127 31 106 -1 128 28 27 -1 28 128 97 -1 27 127 128 -1 127 27 29 -1 125 113 126 -1 113 125 112 -1 108 124 118 -1 124 108 111 -1 100 129 130 -1 129 100 99 -1 129 98 131 -1 98 129 99 -1 124 112 125 -1 112 124 111 -1 132 131 133 -1 131 132 129 -1 129 132 134 -1 129 134 130 -1 130 134 135 -1 130 135 136 -1 136 135 137 -1 137 135 138 -1 137 138 139 -1 139 138 140 -1 139 140 141 -1 141 140 142 -1 141 142 33 -1 33 142 34 -1 33 104 141 -1 104 33 35 -1 104 139 141 -1 139 104 103 -1 103 137 139 -1 137 103 102 -1 101 130 136 -1 130 101 100 -1 137 101 136 -1 101 137 102 -1 131 89 133 -1 89 131 98 -1 133 90 132 -1 90 133 89 -1 90 134 132 -1 134 90 91 -1 91 135 134 -1 135 91 92 -1 143 144 145 -1 144 143 146 -1 147 145 148 -1 145 147 143 -1 149 147 148 -1 147 149 150 -1 71 150 151 -1 150 71 147 -1 147 71 58 -1 147 58 143 -1 143 58 55 -1 143 55 146 -1 146 55 75 -1 146 75 152 -1 152 75 72 -1 152 72 153 -1 153 72 87 -1 153 87 154 -1 154 87 25 -1 154 25 32 -1 70 151 155 -1 151 70 71 -1 155 150 149 -1 150 155 151 -1 105 127 106 -1 97 16 94 -1 16 97 128 -1 16 128 17 -1 17 128 127 -1 17 127 46 -1 46 127 79 -1 79 127 105 -1 94 20 156 -1 20 94 16 -1 105 68 79 -1 68 105 69 -1 43 96 157 -1 96 43 45 -1 78 158 77 -1 158 78 159 -1 95 157 96 -1 157 95 160 -1 144 135 44 -1 135 144 146 -1 44 92 42 -1 92 44 135 -1 142 153 154 -1 153 142 140 -1 156 22 24 -1 22 156 161 -1 161 156 160 -1 160 156 157 -1 20 56 156 -1 56 20 57 -1 57 20 19 -1 156 56 70 -1 156 70 155 -1 156 155 157 -1 157 155 43 -1 57 19 73 -1 73 19 74 -1 74 19 88 -1 88 19 26 -1 43 149 44 -1 149 43 155 -1 44 149 148 -1 44 148 145 -1 44 145 144 -1 24 94 156 -1 94 24 21 -1 23 161 93 -1 161 23 22 -1 152 135 146 -1 135 152 138 -1 32 142 154 -1 142 32 34 -1 140 152 153 -1 152 140 138 -1 93 160 95 -1 160 93 161 -1 158 162 163 -1 162 158 164 -1 164 158 159 -1 164 159 165 -1 165 159 49 -1 165 49 166 -1 166 49 167 -1 167 49 48 -1 167 48 168 -1 168 48 64 -1 168 64 169 -1 169 64 52 -1 169 52 39 -1 39 52 41 -1 166 84 83 -1 84 166 167 -1 61 159 78 -1 159 61 49 -1 169 36 86 -1 36 169 39 -1 85 169 86 -1 169 85 168 -1 81 165 82 -1 165 81 164 -1 82 166 83 -1 166 82 165 -1 76 158 163 -1 158 76 77 -1 80 163 162 -1 163 80 76 -1 84 168 85 -1 168 84 167 -1 81 162 164 -1 162 81 80 -1 "
						                >
							<Coordinate DEF="coords_ME_02-1-1_001"
							            point="28.346457 0.000000 3.543307 27.716536 0.000000 2.125984 28.346457 0.000000 2.657480 27.086615 0.000000 0.708661 25.196850 0.000000 0.000000 26.771654 0.000000 0.000000 25.826771 0.000000 0.531496 26.456694 0.000000 1.062992 27.401575 0.000000 1.417323 28.346457 0.000000 1.771654 28.346457 0.000000 0.885827 24.566929 0.000000 0.354331 23.622047 0.000000 0.000000 22.047245 0.000000 0.000000 28.346457 0.000000 0.000000 16.141733 0.393701 8.267716 12.204724 0.393701 1.968504 16.141733 0.393701 1.968504 12.204724 0.393701 8.267716 12.204724 0.000000 8.267716 12.204724 0.000000 1.968504 10.236220 3.937008 0.000000 6.299212 0.000000 0.000000 6.299212 3.937008 0.000000 10.236220 0.000000 0.000000 11.023623 0.393701 8.267716 11.023623 0.000000 8.267716 12.204724 3.543307 8.267716 12.204724 3.937008 8.267716 16.141733 3.543307 8.267716 17.322834 3.937008 8.267716 16.141733 3.937008 8.267716 5.511811 0.393701 8.267716 11.023623 3.543307 8.267716 5.511811 3.543307 8.267716 11.023623 3.937008 8.267716 17.322834 0.000000 8.267716 16.141733 0.000000 8.267716 17.322834 3.543307 8.267716 17.322834 0.393701 8.267716 22.834646 3.543307 8.267716 22.834646 0.393701 8.267716 0.000000 3.937008 5.905512 0.000000 0.000000 3.543307 0.000000 0.000000 5.905512 0.000000 3.937008 3.543307 16.141733 0.000000 1.968504 23.622047 3.543307 5.905512 23.519648 0.393701 6.500865 23.622047 0.393701 5.905512 23.519648 3.543307 6.500865 22.834646 3.543307 7.480315 22.834646 0.393701 7.480315 27.716536 3.937008 2.125984 28.346457 3.937008 3.543307 11.811024 0.393701 5.905512 11.652786 0.000000 5.314960 11.811024 0.000000 5.905512 11.652786 0.393701 5.314960 28.346457 3.937008 5.905512 23.622047 3.937008 5.905512 23.622047 0.000000 5.905512 28.346457 0.000000 5.905512 23.249489 3.543307 7.041184 23.249489 0.393701 7.041184 26.456694 3.937008 1.062992 24.566929 3.937008 0.354331 22.047245 3.937008 0.000000 18.110237 0.000000 0.000000 18.110237 3.937008 0.000000 11.220472 0.000000 4.882647 11.220472 0.393701 4.882647 11.438465 0.393701 7.041184 11.708625 0.000000 6.500865 11.438465 0.000000 7.041184 11.708625 0.393701 6.500865 22.440945 0.000000 4.724410 23.031496 0.000000 4.882647 23.463810 0.000000 5.314960 18.110237 0.000000 1.968504 17.716536 0.000000 4.724410 17.125984 0.000000 4.882647 16.693670 0.000000 5.314960 16.535433 0.000000 5.905512 16.637833 0.000000 6.500865 16.907991 0.000000 7.041184 17.322834 0.000000 7.480315 11.023623 0.393701 7.480315 11.023623 0.000000 7.480315 5.905512 3.937008 4.724410 5.314960 3.937008 4.882647 4.882647 3.937008 5.314960 4.724410 3.937008 5.905512 3.779528 3.937008 0.354331 10.236220 3.937008 1.968504 1.889764 3.937008 1.062992 0.629921 3.937008 2.125984 12.204724 3.937008 1.968504 10.629921 3.937008 4.724410 11.220472 3.937008 4.882647 11.652786 3.937008 5.314960 11.811024 3.937008 5.905512 11.708625 3.937008 6.500865 11.438465 3.937008 7.041184 11.023623 3.937008 7.480315 18.110237 3.937008 1.968504 16.141733 3.937008 1.968504 16.693670 3.937008 5.314960 16.535433 3.937008 5.905512 17.125984 3.937008 4.882647 17.716536 3.937008 4.724410 16.637833 3.937008 6.500865 16.907991 3.937008 7.041184 17.322834 3.937008 7.480315 22.440945 3.937008 4.724410 23.031496 3.937008 4.882647 23.463810 3.937008 5.314960 16.693670 3.543307 5.314960 16.535433 3.543307 5.905512 17.125984 3.543307 4.882647 17.716536 3.543307 4.724410 22.440945 3.543307 4.724410 23.031496 3.543307 4.882647 23.463810 3.543307 5.314960 16.637833 3.543307 6.500865 16.907991 3.543307 7.041184 17.322834 3.543307 7.480315 16.141733 3.543307 1.968504 12.204724 3.543307 1.968504 11.220472 3.543307 4.882647 11.652786 3.543307 5.314960 10.629921 3.543307 4.724410 5.314960 3.543307 4.882647 5.905512 3.543307 4.724410 4.882647 3.543307 5.314960 4.724410 3.543307 5.905512 11.811024 3.543307 5.905512 11.708625 3.543307 6.500865 4.826808 3.543307 6.500865 11.438465 3.543307 7.041184 5.096968 3.543307 7.041184 11.023623 3.543307 7.480315 5.511811 3.543307 7.480315 4.882647 0.393701 5.314960 4.724410 0.000000 5.905512 4.882647 0.000000 5.314960 4.724410 0.393701 5.905512 5.314960 0.393701 4.882647 5.314960 0.000000 4.882647 5.905512 0.000000 4.724410 5.905512 0.393701 4.724410 10.629921 0.393701 4.724410 4.826808 0.393701 6.500865 5.096968 0.393701 7.041184 5.511811 0.393701 7.480315 10.629921 0.000000 4.724410 10.236220 0.000000 1.968504 0.629921 0.000000 2.125984 23.031496 0.393701 4.882647 23.463810 0.393701 5.314960 1.889764 0.000000 1.062992 3.779528 0.000000 0.354331 17.716536 0.393701 4.724410 22.440945 0.393701 4.724410 17.125984 0.393701 4.882647 16.693670 0.393701 5.314960 16.535433 0.393701 5.905512 16.637833 0.393701 6.500865 16.907991 0.393701 7.041184 17.322834 0.393701 7.480315 "
							            />
						</IndexedFaceSet>
					</Shape>
				</Group>
			</Transform>
		</Transform>
	</Scene>
</X3D>