<?xml version="1.0" encoding="UTF-8"?>
<!DOCTYPE X3D PUBLIC "ISO//Web3D//DTD X3D 3.0//EN" "http://www.web3d.org/specifications/x3d-3.0.dtd">
<X3D version="3.0" profile="Immersive" xmlns:xsd="http://www.w3.org/2001/XMLSchema-instance" xsd:noNamespaceSchemaLocation="http://www.web3d.org/specifications/x3d-3.0.xsd">
	<head>
		<meta name="filename" content="02-2.x3d" />
		<meta name="created" content="2026-06-21 15:09:37" />
		<meta name="generator" content="Blender 4.5.4 LTS" />
		<meta name="translator" content="Web3D X3D/VRML2 format v2.5.1" />
	</head>
	<Scene>
		<NavigationInfo headlight="true"
		                visibilityLimit="0.0"
		                type='"EXAMINE", "ANY"'
		                avatarSize="0.25, 1.75, 0.75"
		                />
		<Background DEF="WO_World"
		            groundColor="0.051 0.051 0.051"
		            skyColor="0.051 0.051 0.051"
		            />
		<Transform DEF="_02-2_TRANSFORM"
		           translation="0.000000 0.000000 0.000000"
		           scale="1.000000 1.000000 1.000000"
		           rotation="0.000000 0.707107 0.707107 3.141593"
		           >
			<Transform DEF="_02-2_ifs_TRANSFORM"
			           translation="0.000000 0.000000 0.000000"
			           scale="1.000000 1.000000 1.000000"
			           rotation="0.000000 1.000000 0.000000 0.000000"
			           >
				<Group DEF="group_ME_02-2_001">
					<Shape>
						<Appearance>
						</Appearance>
						<IndexedFaceSet solid="false"
						                coordIndex="0 1 2 -1 1 0 3 -1 4 5 0 -1 5 4 6 -1 7 5 6 -1 8 9 10 -1 9 8 4 -1 11 7 12 -1 13 7 6 -1 7 13 12 -1 3 14 1 -1 8 6 4 -1 6 8 13 -1 5 3 0 -1 4 2 9 -1 2 4 0 -1 15 16 17 -1 16 15 18 -1 19 20 21 -1 20 19 22 -1 23 24 25 -1 24 23 26 -1 27 28 29 -1 28 27 30 -1 23 19 26 -1 19 23 22 -1 22 23 15 -1 22 15 29 -1 29 15 17 -1 29 17 27 -1 29 20 22 -1 20 29 28 -1 26 21 24 -1 21 26 19 -1 23 18 15 -1 18 23 25 -1 31 32 33 -1 32 31 34 -1 35 36 37 -1 36 35 38 -1 36 38 39 -1 39 38 32 -1 39 32 40 -1 40 32 34 -1 37 41 42 -1 41 37 36 -1 43 44 45 -1 44 43 46 -1 44 47 45 -1 47 44 48 -1 48 44 49 -1 49 44 50 -1 51 52 53 -1 52 51 54 -1 54 51 55 -1 54 55 56 -1 56 55 57 -1 56 57 58 -1 58 57 59 -1 58 59 60 -1 58 60 61 -1 59 57 62 -1 62 57 45 -1 62 45 47 -1 61 60 63 -1 56 64 65 -1 64 56 58 -1 65 64 66 -1 66 64 67 -1 67 64 31 -1 65 66 68 -1 65 68 69 -1 67 31 33 -1 69 70 37 -1 70 69 68 -1 37 70 71 -1 37 71 72 -1 37 72 35 -1 42 69 37 -1 69 42 73 -1 74 52 75 -1 52 74 53 -1 76 35 72 -1 35 76 38 -1 60 77 63 -1 77 60 78 -1 64 79 80 -1 79 64 58 -1 81 82 83 -1 82 81 84 -1 85 72 71 -1 72 85 76 -1 86 87 88 -1 87 86 85 -1 85 86 89 -1 85 89 76 -1 76 89 32 -1 76 32 38 -1 90 45 57 -1 45 90 43 -1 91 92 93 -1 92 91 94 -1 83 95 96 -1 95 83 82 -1 97 53 74 -1 53 97 51 -1 59 78 60 -1 78 59 98 -1 32 67 33 -1 67 32 89 -1 70 85 71 -1 85 70 87 -1 64 34 31 -1 34 64 80 -1 99 58 61 -1 58 99 79 -1 100 51 97 -1 51 100 55 -1 68 87 70 -1 87 68 88 -1 101 81 102 -1 81 101 84 -1 66 88 68 -1 88 66 86 -1 47 103 104 -1 103 47 48 -1 49 103 48 -1 103 49 105 -1 103 106 104 -1 106 103 98 -1 98 103 105 -1 98 105 78 -1 78 105 107 -1 78 107 77 -1 59 106 98 -1 106 59 62 -1 93 83 96 -1 83 93 81 -1 81 93 92 -1 81 92 102 -1 102 92 36 -1 102 36 39 -1 40 102 39 -1 102 40 101 -1 96 91 93 -1 91 96 95 -1 62 104 106 -1 104 62 47 -1 50 105 49 -1 105 50 107 -1 90 55 100 -1 55 90 57 -1 94 36 92 -1 36 94 41 -1 89 66 67 -1 66 89 86 -1 108 65 109 -1 65 108 56 -1 42 95 73 -1 95 42 91 -1 91 42 94 -1 94 42 41 -1 110 74 75 -1 74 110 97 -1 97 110 108 -1 97 108 100 -1 100 108 109 -1 100 109 80 -1 80 109 84 -1 80 84 101 -1 80 101 34 -1 84 109 82 -1 82 109 73 -1 82 73 95 -1 34 101 40 -1 100 79 90 -1 79 100 80 -1 90 79 25 -1 25 79 18 -1 18 79 99 -1 90 25 24 -1 90 24 43 -1 18 99 16 -1 43 21 46 -1 21 43 24 -1 46 21 20 -1 46 20 28 -1 46 28 30 -1 69 109 65 -1 109 69 73 -1 61 16 99 -1 16 61 17 -1 17 61 63 -1 17 63 77 -1 77 27 17 -1 27 77 107 -1 27 46 30 -1 46 27 107 -1 46 107 50 -1 46 50 44 -1 110 56 108 -1 56 110 54 -1 75 54 110 -1 54 75 52 -1 "
						                >
							<Coordinate DEF="coords_ME_02-2_001"
							            point="21.381889 0.000000 0.531496 19.452755 0.000000 0.000000 20.830709 0.000000 0.000000 20.279528 0.000000 0.354331 22.484251 0.000000 0.708661 21.933071 0.000000 1.062992 22.759842 0.000000 1.417323 23.035433 0.000000 2.125984 23.586615 0.000000 0.885827 22.208662 0.000000 0.000000 23.586615 0.000000 0.000000 23.586615 0.000000 3.543307 23.586615 0.000000 2.657480 23.586615 0.000000 1.771654 18.074802 0.000000 0.000000 13.508632 3.543307 5.314960 13.350393 3.937008 5.905512 13.350393 3.543307 5.905512 13.508632 3.937008 5.314960 18.468504 3.543307 4.724410 19.059055 3.937008 4.882647 18.468504 3.937008 4.724410 19.059055 3.543307 4.882647 13.940945 3.543307 4.882647 14.531496 3.937008 4.724410 13.940945 3.937008 4.882647 14.531496 3.543307 4.724410 19.649607 3.543307 5.905512 19.491369 3.937008 5.314960 19.491369 3.543307 5.314960 19.649607 3.937008 5.905512 9.807087 0.000000 5.905512 9.413385 0.393701 5.905512 9.413385 0.000000 5.905512 9.807087 3.937008 5.905512 3.114173 0.000000 5.905512 3.114173 3.543307 5.905512 -0.822835 0.000000 5.905512 3.114173 0.393701 5.905512 9.413385 3.543307 5.905512 9.413385 3.937008 5.905512 3.114173 3.937008 5.905512 -0.822835 3.937008 5.905512 23.586615 3.937008 3.543307 23.586615 0.000000 5.905512 23.586615 0.000000 3.543307 23.586615 3.937008 5.905512 18.468504 0.000000 4.724410 19.059055 0.000000 4.882647 19.491369 0.000000 5.314960 19.649607 0.000000 5.905512 20.279528 0.000000 0.354331 4.688976 0.000000 0.000000 18.074802 0.000000 0.000000 2.484252 0.000000 0.354331 21.933071 0.000000 1.062992 0.830709 0.000000 1.062992 23.035433 0.000000 2.125984 12.956693 0.000000 1.968504 13.940945 0.000000 4.882647 13.508632 0.000000 5.314960 12.956693 0.000000 5.905512 14.531496 0.000000 4.724410 13.350393 0.000000 5.905512 9.807087 0.000000 1.968504 -0.271654 0.000000 2.125984 8.822835 0.000000 4.882647 9.255148 0.000000 5.314960 8.232284 0.000000 4.724410 -0.822835 0.000000 3.543307 4.295276 0.000000 4.724410 3.704724 0.000000 4.882647 3.272411 0.000000 5.314960 -0.822835 3.937008 3.543307 18.074802 3.937008 0.000000 4.688976 3.937008 0.000000 3.272411 0.393701 5.314960 13.350393 0.393701 5.905512 13.508632 0.393701 5.314960 12.956693 3.937008 1.968504 9.807087 3.937008 1.968504 8.822835 3.543307 4.882647 8.232284 3.937008 4.724410 8.232284 3.543307 4.724410 8.822835 3.937008 4.882647 3.704724 0.393701 4.882647 8.822835 0.393701 4.882647 4.295276 0.393701 4.724410 8.232284 0.393701 4.724410 9.255148 0.393701 5.314960 23.035433 3.937008 2.125984 3.704724 3.937008 4.882647 3.272411 3.543307 5.314960 3.704724 3.543307 4.882647 3.272411 3.937008 5.314960 4.295276 3.937008 4.724410 4.295276 3.543307 4.724410 20.279528 3.937008 0.354331 13.940945 0.393701 4.882647 12.956693 3.937008 5.905512 21.933071 3.937008 1.062992 9.255148 3.937008 5.314960 9.255148 3.543307 5.314960 19.059055 0.393701 4.882647 18.468504 0.393701 4.724410 19.491369 0.393701 5.314960 14.531496 0.393701 4.724410 19.649607 0.393701 5.905512 0.830709 3.937008 1.062992 -0.271654 3.937008 2.125984 2.484252 3.937008 0.354331 "
							            />
						</IndexedFaceSet>
					</Shape>
				</Group>
			</Transform>
		</Transform>
	</Scene>
</X3D>