<?xml version="1.0" encoding="UTF-8"?>
<!DOCTYPE X3D PUBLIC "ISO//Web3D//DTD X3D 3.0//EN" "http://www.web3d.org/specifications/x3d-3.0.dtd">
<X3D version="3.0" profile="Immersive" xmlns:xsd="http://www.w3.org/2001/XMLSchema-instance" xsd:noNamespaceSchemaLocation="http://www.web3d.org/specifications/x3d-3.0.xsd">
	<head>
		<meta name="filename" content="02-3.x3d" />
		<meta name="created" content="2026-06-21 15:09:37" />
		<meta name="generator" content="Blender 4.5.4 LTS" />
		<meta name="translator" content="Web3D X3D/VRML2 format v2.5.1" />
	</head>
	<Scene>
		<NavigationInfo headlight="true"
		                visibilityLimit="0.0"
		                type='"EXAMINE", "ANY"'
		                avatarSize="0.25, 1.75, 0.75"
		                />
		<Background DEF="WO_World"
		            groundColor="0.051 0.051 0.051"
		            skyColor="0.051 0.051 0.051"
		            />
		<Transform DEF="_02-3_TRANSFORM"
		           translation="0.000000 0.000000 0.000000"
		           scale="1.000000 1.000000 1.000000"
		           rotation="0.000000 0.707107 0.707107 3.141593"
		           >
			<Transform DEF="_02-3_ifs_TRANSFORM"
			           translation="0.000000 0.000000 0.000000"
			           scale="1.000000 1.000000 1.000000"
			           rotation="0.000000 1.000000 0.000000 0.000000"
			           >
				<Group DEF="group_ME_02-3_001">
					<Shape>
						<Appearance>
						</Appearance>
						<IndexedFaceSet solid="false"
						                coordIndex="0 1 2 -1 1 0 3 -1 4 2 5 -1 2 4 0 -1 6 5 7 -1 5 6 4 -1 8 6 7 -1 6 8 9 -1 7 10 8 -1 10 7 5 -1 10 5 2 -1 10 2 1 -1 10 1 11 -1 10 11 12 -1 13 14 15 -1 16 17 18 -1 17 16 19 -1 19 16 20 -1 20 16 21 -1 21 16 22 -1 21 22 23 -1 23 22 24 -1 23 24 25 -1 23 25 26 -1 23 26 27 -1 23 27 28 -1 27 26 29 -1 27 29 30 -1 27 30 31 -1 27 31 32 -1 28 27 14 -1 28 14 33 -1 33 14 13 -1 28 33 34 -1 28 34 35 -1 28 35 36 -1 28 36 37 -1 37 36 38 -1 37 38 39 -1 37 39 40 -1 37 40 41 -1 37 41 42 -1 42 41 43 -1 43 41 44 -1 3 11 1 -1 11 3 45 -1 46 37 42 -1 37 46 47 -1 48 42 43 -1 42 48 46 -1 44 48 43 -1 48 44 49 -1 50 12 51 -1 12 50 10 -1 52 14 53 -1 14 52 15 -1 47 28 37 -1 28 47 54 -1 45 12 11 -1 12 45 51 -1 55 19 56 -1 19 55 17 -1 57 19 20 -1 19 57 56 -1 58 21 23 -1 21 58 59 -1 59 20 21 -1 20 59 57 -1 56 60 55 -1 60 56 61 -1 61 56 57 -1 61 57 59 -1 61 59 62 -1 62 59 58 -1 62 58 63 -1 63 58 64 -1 64 58 65 -1 65 58 66 -1 66 58 54 -1 65 66 67 -1 67 66 68 -1 68 66 69 -1 66 54 53 -1 53 54 52 -1 52 54 6 -1 52 6 9 -1 6 54 4 -1 4 54 0 -1 0 54 3 -1 3 54 47 -1 3 47 45 -1 45 47 51 -1 51 47 50 -1 50 47 70 -1 70 47 46 -1 70 46 48 -1 70 48 49 -1 71 69 66 -1 60 16 18 -1 16 60 72 -1 72 60 73 -1 73 60 74 -1 74 60 61 -1 31 71 32 -1 71 31 73 -1 71 73 75 -1 75 73 74 -1 71 75 69 -1 66 14 27 -1 14 66 53 -1 32 66 27 -1 66 32 71 -1 76 34 33 -1 34 76 77 -1 13 76 33 -1 76 13 78 -1 79 39 38 -1 39 79 80 -1 81 76 78 -1 76 81 77 -1 77 81 82 -1 82 81 83 -1 83 81 79 -1 79 81 80 -1 82 36 35 -1 36 82 83 -1 81 39 80 -1 39 81 40 -1 77 35 34 -1 35 77 82 -1 83 38 36 -1 38 83 79 -1 16 84 22 -1 84 16 72 -1 67 85 86 -1 85 67 68 -1 62 87 88 -1 87 62 63 -1 63 89 87 -1 89 63 64 -1 69 85 68 -1 85 69 75 -1 74 62 88 -1 62 74 61 -1 90 29 26 -1 29 90 91 -1 73 84 72 -1 84 73 92 -1 92 73 93 -1 93 73 90 -1 90 73 91 -1 91 73 94 -1 73 30 94 -1 30 73 31 -1 91 30 29 -1 30 91 94 -1 92 25 24 -1 25 92 93 -1 88 75 74 -1 75 88 87 -1 75 87 89 -1 75 89 95 -1 75 95 86 -1 75 86 85 -1 84 24 22 -1 24 84 92 -1 93 26 25 -1 26 93 90 -1 65 86 95 -1 86 65 67 -1 64 95 89 -1 95 64 65 -1 60 17 55 -1 17 60 18 -1 41 49 44 -1 49 41 70 -1 52 13 15 -1 13 52 78 -1 78 52 8 -1 78 8 81 -1 8 52 9 -1 81 41 40 -1 41 81 70 -1 70 81 10 -1 10 81 8 -1 70 10 50 -1 28 58 23 -1 58 28 54 -1 "
						                >
							<Coordinate DEF="coords_ME_02-3_001"
							            point="3.937008 15.354331 4.724410 3.543307 19.291338 4.724410 3.543307 15.354331 4.724410 3.937008 19.291338 4.724410 3.937008 14.763780 4.882647 3.543307 14.763780 4.882647 3.937008 14.331466 5.314960 3.543307 14.331466 5.314960 3.543307 14.173228 5.905512 3.937008 14.173228 5.905512 3.543307 20.472441 5.905512 3.543307 19.881889 4.882647 3.543307 20.314203 5.314960 0.000000 14.173228 5.905512 0.000000 13.779528 1.968504 0.000000 13.779528 5.905512 0.000000 3.937008 5.905512 0.000000 0.000000 3.543307 0.000000 0.000000 5.905512 0.000000 0.629921 2.125984 0.000000 1.889764 1.062992 0.000000 3.779528 0.354331 0.000000 4.095245 5.314960 0.000000 6.299212 0.000000 0.000000 4.527559 4.882647 0.000000 5.118110 4.724410 0.000000 9.055119 4.724410 0.000000 10.629921 1.968504 0.000000 18.110237 0.000000 0.000000 9.645669 4.882647 0.000000 10.077983 5.314960 0.000000 10.236220 5.905512 0.000000 10.629921 5.905512 0.000000 14.331466 5.314960 0.000000 14.763780 4.882647 0.000000 15.354331 4.724410 0.000000 19.291338 4.724410 0.000000 20.629921 0.354331 0.000000 19.881889 4.882647 0.000000 20.314203 5.314960 0.000000 20.472441 5.905512 0.000000 24.409449 5.905512 0.000000 22.519686 1.062992 0.000000 23.779528 2.125984 0.000000 24.409449 3.543307 3.937008 19.881889 4.882647 3.937008 22.519686 1.062992 3.937008 20.629921 0.354331 3.937008 23.779528 2.125984 3.937008 24.409449 3.543307 3.937008 20.472441 5.905512 3.937008 20.314203 5.314960 3.937008 13.779528 5.905512 3.937008 13.779528 1.968504 3.937008 18.110237 0.000000 3.937008 0.000000 3.543307 3.937008 0.629921 2.125984 3.937008 1.889764 1.062992 3.937008 6.299212 0.000000 3.937008 3.779528 0.354331 3.937008 0.000000 5.905512 3.937008 3.937008 5.905512 3.937008 4.095245 5.314960 3.937008 4.527559 4.882647 3.937008 5.118110 4.724410 3.937008 9.055119 4.724410 3.937008 10.629921 1.968504 3.937008 9.645669 4.882647 3.937008 10.077983 5.314960 3.937008 10.236220 5.905512 3.937008 24.409449 5.905512 3.937008 10.629921 5.905512 0.393701 3.937008 5.905512 0.393701 10.236220 5.905512 3.543307 3.937008 5.905512 3.543307 10.236220 5.905512 0.393701 14.331466 5.314960 0.393701 14.763780 4.882647 0.393701 14.173228 5.905512 0.393701 19.881889 4.882647 0.393701 20.314203 5.314960 0.393701 20.472441 5.905512 0.393701 15.354331 4.724410 0.393701 19.291338 4.724410 0.393701 4.095245 5.314960 3.543307 10.077983 5.314960 3.543307 9.645669 4.882647 3.543307 4.527559 4.882647 3.543307 4.095245 5.314960 3.543307 5.118110 4.724410 0.393701 9.055119 4.724410 0.393701 9.645669 4.882647 0.393701 4.527559 4.882647 0.393701 5.118110 4.724410 0.393701 10.077983 5.314960 3.543307 9.055119 4.724410 "
							            />
						</IndexedFaceSet>
					</Shape>
				</Group>
			</Transform>
		</Transform>
	</Scene>
</X3D>