<?xml version="1.0" encoding="UTF-8"?>
<!DOCTYPE X3D PUBLIC "ISO//Web3D//DTD X3D 3.0//EN" "http://www.web3d.org/specifications/x3d-3.0.dtd">
<X3D version="3.0" profile="Immersive" xmlns:xsd="http://www.w3.org/2001/XMLSchema-instance" xsd:noNamespaceSchemaLocation="http://www.web3d.org/specifications/x3d-3.0.xsd">
	<head>
		<meta name="filename" content="02-4.x3d" />
		<meta name="created" content="2026-06-21 15:09:37" />
		<meta name="generator" content="Blender 4.5.4 LTS" />
		<meta name="translator" content="Web3D X3D/VRML2 format v2.5.1" />
	</head>
	<Scene>
		<NavigationInfo headlight="true"
		                visibilityLimit="0.0"
		                type='"EXAMINE", "ANY"'
		                avatarSize="0.25, 1.75, 0.75"
		                />
		<Background DEF="WO_World"
		            groundColor="0.051 0.051 0.051"
		            skyColor="0.051 0.051 0.051"
		            />
		<Transform DEF="_02-4_TRANSFORM"
		           translation="0.000000 0.000000 0.000000"
		           scale="1.000000 1.000000 1.000000"
		           rotation="0.000000 0.707107 0.707107 3.141593"
		           >
			<Transform DEF="_02-4_ifs_TRANSFORM"
			           translation="0.000000 0.000000 0.000000"
			           scale="1.000000 1.000000 1.000000"
			           rotation="0.000000 1.000000 0.000000 0.000000"
			           >
				<Group DEF="group_ME_02-4_001">
					<Shape>
						<Appearance>
						</Appearance>
						<IndexedFaceSet solid="false"
						                coordIndex="0 1 2 -1 1 0 3 -1 3 0 4 -1 5 6 7 -1 6 5 8 -1 9 6 10 -1 6 9 7 -1 11 10 12 -1 10 11 9 -1 3 12 1 -1 12 3 11 -1 13 14 15 -1 14 13 16 -1 16 13 17 -1 16 17 18 -1 17 13 19 -1 18 20 21 -1 20 18 22 -1 22 18 23 -1 23 18 17 -1 22 23 24 -1 25 2 26 -1 2 25 0 -1 20 27 28 -1 27 20 22 -1 29 0 25 -1 0 29 4 -1 30 31 32 -1 31 30 33 -1 33 30 34 -1 34 30 35 -1 35 30 36 -1 34 37 38 -1 37 34 39 -1 39 34 40 -1 40 34 35 -1 39 40 41 -1 30 8 5 -1 8 30 32 -1 37 42 43 -1 42 37 39 -1 43 44 45 -1 44 43 42 -1 7 30 5 -1 30 7 36 -1 36 7 9 -1 36 9 11 -1 36 11 3 -1 36 3 46 -1 46 3 47 -1 47 3 48 -1 48 3 49 -1 49 3 4 -1 49 4 42 -1 42 4 29 -1 49 42 50 -1 50 42 51 -1 51 42 41 -1 42 29 44 -1 44 29 13 -1 13 29 52 -1 13 52 19 -1 52 29 53 -1 53 29 54 -1 54 29 55 -1 55 29 56 -1 55 56 57 -1 55 57 58 -1 58 57 59 -1 59 57 24 -1 24 57 22 -1 22 57 60 -1 22 60 61 -1 22 61 27 -1 39 41 42 -1 13 45 44 -1 45 13 15 -1 18 62 63 -1 62 18 21 -1 14 64 65 -1 64 14 16 -1 64 66 65 -1 66 64 67 -1 67 68 66 -1 68 67 69 -1 69 70 68 -1 70 69 71 -1 71 72 70 -1 72 71 73 -1 73 62 72 -1 62 73 63 -1 18 64 16 -1 64 18 67 -1 67 18 69 -1 69 18 71 -1 71 18 73 -1 73 18 63 -1 35 46 74 -1 46 35 36 -1 58 75 76 -1 75 58 59 -1 77 78 79 -1 78 77 80 -1 81 77 79 -1 77 81 82 -1 74 47 83 -1 47 74 46 -1 31 82 81 -1 82 31 33 -1 84 23 17 -1 23 84 85 -1 23 85 86 -1 23 86 87 -1 23 87 76 -1 23 76 75 -1 54 87 86 -1 87 54 55 -1 17 52 84 -1 52 17 19 -1 55 76 87 -1 76 55 58 -1 53 86 85 -1 86 53 54 -1 34 82 33 -1 82 34 77 -1 77 34 80 -1 80 34 88 -1 88 34 89 -1 89 34 90 -1 34 91 90 -1 91 34 38 -1 89 91 92 -1 91 89 90 -1 88 92 93 -1 92 88 89 -1 80 93 78 -1 93 80 88 -1 24 75 59 -1 75 24 23 -1 47 94 83 -1 94 47 48 -1 74 40 35 -1 40 74 83 -1 40 83 94 -1 40 94 95 -1 40 95 96 -1 40 96 97 -1 52 85 84 -1 85 52 53 -1 49 96 95 -1 96 49 50 -1 48 95 94 -1 95 48 49 -1 41 97 51 -1 97 41 40 -1 50 97 96 -1 97 50 51 -1 98 25 26 -1 25 98 56 -1 25 56 29 -1 28 61 99 -1 61 28 27 -1 61 100 99 -1 100 61 60 -1 60 101 100 -1 101 60 57 -1 57 98 101 -1 98 57 56 -1 14 45 15 -1 31 8 32 -1 8 31 6 -1 6 31 10 -1 10 31 12 -1 12 31 1 -1 1 31 81 -1 1 81 79 -1 1 79 78 -1 1 78 93 -1 1 93 2 -1 2 93 43 -1 2 43 26 -1 43 93 92 -1 43 92 91 -1 43 91 38 -1 43 38 37 -1 26 43 45 -1 26 45 65 -1 65 45 14 -1 26 65 66 -1 26 66 68 -1 26 68 70 -1 26 70 98 -1 98 70 101 -1 101 70 72 -1 101 72 62 -1 101 62 21 -1 101 21 20 -1 101 20 100 -1 100 20 99 -1 99 20 28 -1 "
						                >
							<Coordinate DEF="coords_ME_02-4_001"
							            point="0.393701 7.874016 0.000000 0.000000 5.249344 0.236220 0.000000 7.874016 0.000000 4.330709 5.249344 0.236220 4.330709 7.874016 0.000000 4.330709 0.000000 3.543307 0.000000 0.524934 2.362205 4.330709 0.524934 2.362205 0.000000 0.000000 3.543307 4.330709 1.574803 1.417323 0.000000 1.574803 1.417323 4.330709 3.149606 0.708661 0.000000 3.149606 0.708661 4.330709 15.748032 5.905512 0.000000 16.141733 5.905512 0.000000 15.748032 5.905512 0.393701 16.141733 5.905512 3.937008 16.141733 5.905512 0.393701 24.409449 5.905512 4.330709 16.141733 5.905512 0.000000 28.346457 5.905512 0.000000 24.409449 5.905512 4.330709 28.346457 5.905512 3.937008 24.409449 5.905512 4.330709 24.409449 5.905512 0.393701 20.472441 0.000000 0.000000 20.472441 0.000000 4.330709 28.346457 3.543307 0.000000 28.346457 3.543307 4.330709 20.472441 0.000000 4.330709 0.000000 5.905512 0.000000 3.937008 5.905512 0.000000 0.000000 5.905512 0.393701 3.937008 5.905512 0.393701 12.204724 5.905512 3.937008 3.937008 5.905512 4.330709 3.937008 5.905512 0.000000 12.598425 5.905512 0.000000 12.204724 5.905512 4.330709 12.598425 5.905512 3.937008 12.204724 5.905512 4.330709 12.204724 5.905512 4.330709 12.598425 1.968504 0.000000 12.598425 1.968504 4.330709 15.748032 1.968504 0.000000 15.748032 1.968504 4.330709 4.095245 5.314960 4.330709 4.527559 4.882647 4.330709 5.118110 4.724410 4.330709 11.023623 4.724410 4.330709 11.614173 4.882647 4.330709 12.046487 5.314960 4.330709 16.299971 5.314960 4.330709 16.732283 4.882647 4.330709 17.322834 4.724410 4.330709 23.228346 4.724410 4.330709 23.097113 0.236220 4.330709 25.196850 0.708661 4.330709 23.818897 4.882647 4.330709 24.251211 5.314960 4.330709 26.771654 1.417323 4.330709 27.821522 2.362205 0.000000 24.251211 5.314960 0.393701 24.251211 5.314960 0.393701 16.299971 5.314960 0.000000 16.299971 5.314960 0.000000 16.732283 4.882647 0.393701 16.732283 4.882647 0.000000 17.322834 4.724410 0.393701 17.322834 4.724410 0.000000 23.228346 4.724410 0.393701 23.228346 4.724410 0.000000 23.818897 4.882647 0.393701 23.818897 4.882647 3.937008 4.095245 5.314960 3.937008 24.251211 5.314960 3.937008 23.818897 4.882647 0.393701 4.527559 4.882647 0.000000 5.118110 4.724410 0.000000 4.527559 4.882647 0.393701 5.118110 4.724410 0.000000 4.095245 5.314960 0.393701 4.095245 5.314960 3.937008 4.527559 4.882647 3.937008 16.299971 5.314960 3.937008 16.732283 4.882647 3.937008 17.322834 4.724410 3.937008 23.228346 4.724410 0.393701 11.023623 4.724410 0.393701 11.614173 4.882647 0.393701 12.046487 5.314960 0.000000 12.046487 5.314960 0.000000 11.614173 4.882647 0.000000 11.023623 4.724410 3.937008 5.118110 4.724410 3.937008 11.023623 4.724410 3.937008 11.614173 4.882647 3.937008 12.046487 5.314960 0.000000 23.097113 0.236220 0.000000 27.821522 2.362205 0.000000 26.771654 1.417323 0.000000 25.196850 0.708661 "
							            />
						</IndexedFaceSet>
					</Shape>
				</Group>
			</Transform>
		</Transform>
	</Scene>
</X3D>