<?xml version="1.0" encoding="UTF-8"?>
<!DOCTYPE X3D PUBLIC "ISO//Web3D//DTD X3D 3.0//EN" "http://www.web3d.org/specifications/x3d-3.0.dtd">
<X3D version="3.0" profile="Immersive" xmlns:xsd="http://www.w3.org/2001/XMLSchema-instance" xsd:noNamespaceSchemaLocation="http://www.web3d.org/specifications/x3d-3.0.xsd">
	<head>
		<meta name="filename" content="02-5.x3d" />
		<meta name="created" content="2026-06-21 15:09:37" />
		<meta name="generator" content="Blender 4.5.4 LTS" />
		<meta name="translator" content="Web3D X3D/VRML2 format v2.5.1" />
	</head>
	<Scene>
		<NavigationInfo headlight="true"
		                visibilityLimit="0.0"
		                type='"EXAMINE", "ANY"'
		                avatarSize="0.25, 1.75, 0.75"
		                />
		<Background DEF="WO_World"
		            groundColor="0.051 0.051 0.051"
		            skyColor="0.051 0.051 0.051"
		            />
		<Transform DEF="_02-5_TRANSFORM"
		           translation="0.000000 0.000000 0.000000"
		           scale="1.000000 1.000000 1.000000"
		           rotation="0.000000 0.707107 0.707107 3.141593"
		           >
			<Transform DEF="_02-5_ifs_TRANSFORM"
			           translation="0.000000 0.000000 0.000000"
			           scale="1.000000 1.000000 1.000000"
			           rotation="0.000000 1.000000 0.000000 0.000000"
			           >
				<Group DEF="group_ME_02-5_001">
					<Shape>
						<Appearance>
						</Appearance>
						<IndexedFaceSet solid="false"
						                coordIndex="0 1 2 -1 1 0 3 -1 3 0 4 -1 4 0 5 -1 5 0 6 -1 4 7 8 -1 7 4 9 -1 9 4 10 -1 10 4 5 -1 9 10 11 -1 12 13 14 -1 13 12 15 -1 16 13 17 -1 13 16 14 -1 18 17 19 -1 17 18 16 -1 20 15 12 -1 15 20 21 -1 0 21 20 -1 21 0 2 -1 22 23 24 -1 23 22 25 -1 23 25 26 -1 23 26 27 -1 26 25 28 -1 27 29 30 -1 29 27 31 -1 31 27 32 -1 32 27 26 -1 31 32 33 -1 34 18 19 -1 18 34 35 -1 29 36 37 -1 36 29 31 -1 12 0 20 -1 0 12 6 -1 6 12 14 -1 6 14 16 -1 6 16 18 -1 6 18 38 -1 38 18 39 -1 39 18 40 -1 40 18 41 -1 41 18 35 -1 40 41 42 -1 42 41 43 -1 43 41 44 -1 44 41 11 -1 41 35 45 -1 45 35 46 -1 45 46 47 -1 45 47 25 -1 25 47 28 -1 46 35 48 -1 48 35 49 -1 49 35 50 -1 50 35 51 -1 50 51 52 -1 52 51 33 -1 33 51 31 -1 31 51 53 -1 31 53 54 -1 31 54 36 -1 9 11 41 -1 53 55 56 -1 55 53 51 -1 37 54 57 -1 54 37 36 -1 57 53 56 -1 53 57 54 -1 51 34 55 -1 34 51 35 -1 41 58 59 -1 58 41 45 -1 27 60 23 -1 60 27 61 -1 61 27 62 -1 62 27 63 -1 63 27 64 -1 64 27 65 -1 66 67 68 -1 67 66 69 -1 4 67 69 -1 67 4 8 -1 60 70 71 -1 70 60 61 -1 61 72 70 -1 72 61 62 -1 27 73 65 -1 73 27 30 -1 64 73 74 -1 73 64 65 -1 75 68 76 -1 68 75 66 -1 77 78 79 -1 78 77 80 -1 62 81 72 -1 81 62 63 -1 1 82 83 -1 82 1 3 -1 24 60 71 -1 60 24 23 -1 82 79 83 -1 79 82 77 -1 63 74 81 -1 74 63 64 -1 24 58 22 -1 1 21 2 -1 21 1 15 -1 15 1 13 -1 13 1 17 -1 17 1 19 -1 19 1 83 -1 19 83 79 -1 19 79 78 -1 19 78 59 -1 19 59 34 -1 59 78 76 -1 59 76 68 -1 59 68 67 -1 59 67 8 -1 59 8 7 -1 34 59 58 -1 34 58 70 -1 70 58 71 -1 71 58 24 -1 34 70 72 -1 34 72 81 -1 34 81 74 -1 34 74 55 -1 55 74 73 -1 55 73 30 -1 55 30 29 -1 55 29 56 -1 56 29 57 -1 57 29 37 -1 84 10 5 -1 10 84 85 -1 10 85 86 -1 10 86 87 -1 10 87 88 -1 10 88 89 -1 7 41 59 -1 41 7 9 -1 25 58 45 -1 58 25 22 -1 48 90 91 -1 90 48 49 -1 39 86 85 -1 86 39 40 -1 11 89 44 -1 89 11 10 -1 38 85 84 -1 85 38 39 -1 43 89 88 -1 89 43 44 -1 5 38 84 -1 38 5 6 -1 42 88 87 -1 88 42 43 -1 33 92 52 -1 92 33 32 -1 40 87 86 -1 87 40 42 -1 47 93 94 -1 93 47 46 -1 94 32 26 -1 32 94 93 -1 32 93 91 -1 32 91 90 -1 32 90 95 -1 32 95 92 -1 50 92 95 -1 92 50 52 -1 80 76 78 -1 76 80 75 -1 26 47 94 -1 47 26 28 -1 46 91 93 -1 91 46 48 -1 49 95 90 -1 95 49 50 -1 4 82 3 -1 82 4 77 -1 77 4 80 -1 80 4 75 -1 75 4 66 -1 66 4 69 -1 "
						                >
							<Coordinate DEF="coords_ME_02-5_001"
							            point="3.937008 0.000000 5.905512 0.000000 3.937008 5.905512 0.000000 0.000000 5.905512 0.393701 3.937008 5.905512 0.393701 16.141733 5.905512 3.543307 3.937008 5.905512 3.937008 3.937008 5.905512 0.000000 16.535433 5.905512 0.000000 16.141733 5.905512 3.937008 16.535433 5.905512 3.543307 16.141733 5.905512 3.937008 16.141733 5.905512 3.937008 0.472441 2.125984 0.000000 1.417323 1.062992 3.937008 1.417323 1.062992 0.000000 0.472441 2.125984 3.937008 2.834646 0.354331 0.000000 2.834646 0.354331 3.937008 4.724410 0.000000 0.000000 4.724410 0.000000 3.937008 0.000000 3.543307 0.000000 0.000000 3.543307 0.000000 19.685040 5.905512 0.393701 20.078741 5.905512 0.000000 20.078741 5.905512 3.937008 19.685040 5.905512 3.543307 20.078741 5.905512 0.393701 32.283466 5.905512 3.937008 20.078741 5.905512 0.000000 36.220474 5.905512 0.000000 32.283466 5.905512 3.937008 36.220474 5.905512 3.543307 32.283466 5.905512 3.937008 32.283466 5.905512 0.000000 31.496063 0.000000 3.937008 31.496063 0.000000 3.937008 36.220474 3.543307 0.000000 36.220474 3.543307 3.937008 4.095245 5.314960 3.937008 4.527559 4.882647 3.937008 5.118110 4.724410 3.937008 16.535433 1.968504 3.937008 14.960629 4.724410 3.937008 15.551181 4.882647 3.937008 15.983495 5.314960 3.937008 19.685040 1.968504 3.937008 20.669291 4.882647 3.937008 20.236979 5.314960 3.937008 21.259842 4.724410 3.937008 31.102362 4.724410 3.937008 31.692913 4.882647 3.937008 33.385826 0.354331 3.937008 32.125225 5.314960 3.937008 34.803150 1.062992 3.937008 35.748032 2.125984 0.000000 33.385826 0.354331 0.000000 34.803150 1.062992 0.000000 35.748032 2.125984 0.000000 19.685040 1.968504 0.000000 16.535433 1.968504 0.393701 20.236979 5.314960 0.393701 20.669291 4.882647 0.393701 21.259842 4.724410 0.393701 31.102362 4.724410 0.393701 31.692913 4.882647 0.393701 32.125225 5.314960 0.393701 15.551181 4.882647 0.000000 15.983495 5.314960 0.000000 15.551181 4.882647 0.393701 15.983495 5.314960 0.000000 20.669291 4.882647 0.000000 20.236979 5.314960 0.000000 21.259842 4.724410 0.000000 32.125225 5.314960 0.000000 31.692913 4.882647 0.393701 14.960629 4.724410 0.000000 14.960629 4.724410 0.393701 4.527559 4.882647 0.000000 5.118110 4.724410 0.000000 4.527559 4.882647 0.393701 5.118110 4.724410 0.000000 31.102362 4.724410 0.393701 4.095245 5.314960 0.000000 4.095245 5.314960 3.543307 4.095245 5.314960 3.543307 4.527559 4.882647 3.543307 5.118110 4.724410 3.543307 14.960629 4.724410 3.543307 15.551181 4.882647 3.543307 15.983495 5.314960 3.543307 31.102362 4.724410 3.543307 21.259842 4.724410 3.543307 32.125225 5.314960 3.543307 20.669291 4.882647 3.543307 20.236979 5.314960 3.543307 31.692913 4.882647 "
							            />
						</IndexedFaceSet>
					</Shape>
				</Group>
			</Transform>
		</Transform>
	</Scene>
</X3D>