<?xml version="1.0" encoding="UTF-8"?>
<!DOCTYPE X3D PUBLIC "ISO//Web3D//DTD X3D 3.0//EN" "http://www.web3d.org/specifications/x3d-3.0.dtd">
<X3D version="3.0" profile="Immersive" xmlns:xsd="http://www.w3.org/2001/XMLSchema-instance" xsd:noNamespaceSchemaLocation="http://www.web3d.org/specifications/x3d-3.0.xsd">
	<head>
		<meta name="filename" content="02-6.x3d" />
		<meta name="created" content="2026-06-21 15:09:37" />
		<meta name="generator" content="Blender 4.5.4 LTS" />
		<meta name="translator" content="Web3D X3D/VRML2 format v2.5.1" />
	</head>
	<Scene>
		<NavigationInfo headlight="true"
		                visibilityLimit="0.0"
		                type='"EXAMINE", "ANY"'
		                avatarSize="0.25, 1.75, 0.75"
		                />
		<Background DEF="WO_World"
		            groundColor="0.051 0.051 0.051"
		            skyColor="0.051 0.051 0.051"
		            />
		<Transform DEF="_02-6_TRANSFORM"
		           translation="0.000000 0.000000 0.000000"
		           scale="1.000000 1.000000 1.000000"
		           rotation="0.000000 0.707107 0.707107 3.141593"
		           >
			<Transform DEF="_02-6_ifs_TRANSFORM"
			           translation="0.000000 0.000000 0.000000"
			           scale="1.000000 1.000000 1.000000"
			           rotation="0.000000 1.000000 0.000000 0.000000"
			           >
				<Group DEF="group_ME_02-6_001">
					<Shape>
						<Appearance>
						</Appearance>
						<IndexedFaceSet solid="false"
						                coordIndex="0 1 2 -1 1 0 3 -1 4 3 0 -1 3 4 5 -1 6 7 8 -1 7 9 10 -1 9 7 11 -1 11 7 12 -1 12 7 6 -1 11 12 13 -1 14 15 16 -1 15 14 17 -1 18 19 20 -1 19 18 21 -1 19 16 20 -1 16 19 14 -1 22 23 24 -1 23 22 25 -1 26 23 25 -1 23 26 27 -1 28 29 30 -1 29 28 31 -1 32 33 34 -1 33 32 35 -1 36 37 38 -1 37 36 39 -1 40 41 42 -1 41 40 43 -1 39 34 37 -1 34 39 32 -1 40 44 45 -1 44 40 36 -1 36 40 39 -1 39 40 32 -1 32 40 35 -1 35 40 42 -1 35 41 33 -1 41 35 42 -1 46 44 47 -1 44 46 45 -1 44 38 47 -1 38 44 36 -1 48 49 50 -1 49 48 51 -1 49 52 50 -1 52 49 53 -1 54 28 55 -1 28 54 31 -1 31 54 56 -1 56 54 18 -1 18 54 21 -1 56 48 57 -1 48 56 51 -1 51 56 27 -1 27 56 18 -1 51 27 26 -1 58 54 59 -1 54 58 21 -1 21 58 60 -1 21 60 61 -1 21 61 19 -1 19 61 62 -1 19 62 14 -1 14 62 17 -1 17 62 63 -1 63 62 49 -1 49 62 64 -1 63 49 22 -1 22 49 25 -1 25 49 26 -1 49 64 53 -1 53 64 65 -1 65 64 66 -1 65 66 67 -1 66 64 68 -1 68 64 69 -1 69 64 70 -1 70 64 71 -1 70 71 72 -1 72 71 73 -1 73 71 74 -1 74 71 75 -1 75 71 1 -1 75 1 3 -1 75 3 5 -1 75 5 76 -1 75 76 77 -1 77 76 78 -1 78 76 79 -1 79 76 80 -1 80 76 81 -1 80 81 82 -1 82 81 83 -1 80 82 84 -1 84 82 85 -1 85 82 13 -1 82 83 86 -1 86 83 87 -1 87 83 88 -1 87 88 89 -1 88 83 90 -1 90 83 91 -1 91 83 92 -1 92 83 93 -1 92 93 94 -1 92 94 95 -1 95 94 96 -1 96 94 97 -1 97 94 98 -1 98 94 99 -1 98 99 100 -1 98 100 101 -1 11 13 82 -1 51 26 49 -1 61 102 103 -1 102 61 60 -1 62 103 104 -1 103 62 61 -1 60 105 102 -1 105 60 58 -1 59 105 58 -1 105 59 106 -1 72 107 108 -1 107 72 73 -1 71 109 110 -1 109 71 64 -1 65 52 53 -1 52 65 111 -1 74 107 73 -1 107 74 112 -1 1 110 2 -1 110 1 71 -1 70 108 113 -1 108 70 72 -1 114 112 115 -1 112 114 116 -1 112 116 117 -1 112 117 113 -1 112 113 108 -1 112 108 107 -1 115 66 114 -1 66 115 67 -1 66 116 114 -1 116 66 68 -1 68 117 116 -1 117 68 69 -1 69 113 117 -1 113 69 70 -1 112 40 115 -1 65 46 111 -1 46 65 45 -1 45 65 115 -1 45 115 40 -1 115 65 67 -1 64 104 109 -1 104 64 62 -1 63 24 118 -1 24 63 22 -1 119 120 121 -1 120 119 122 -1 122 123 120 -1 123 122 124 -1 20 27 18 -1 27 20 16 -1 27 16 15 -1 27 15 118 -1 27 118 24 -1 27 24 23 -1 56 125 126 -1 125 56 57 -1 127 121 128 -1 121 127 119 -1 124 125 123 -1 125 124 126 -1 56 29 31 -1 29 56 127 -1 127 56 119 -1 119 56 122 -1 122 56 124 -1 124 56 126 -1 17 118 15 -1 118 17 63 -1 54 106 59 -1 106 54 55 -1 29 128 30 -1 128 29 127 -1 76 4 129 -1 4 76 5 -1 87 130 131 -1 130 87 132 -1 132 87 133 -1 132 133 134 -1 133 87 89 -1 134 135 136 -1 135 134 98 -1 98 134 137 -1 137 134 133 -1 98 137 97 -1 135 101 138 -1 101 135 98 -1 83 139 140 -1 139 83 81 -1 40 141 43 -1 141 40 8 -1 8 40 6 -1 6 40 112 -1 6 112 75 -1 75 112 74 -1 9 82 142 -1 82 9 11 -1 82 143 142 -1 143 82 86 -1 87 143 86 -1 143 87 131 -1 134 144 145 -1 144 134 136 -1 130 146 147 -1 146 130 132 -1 146 148 147 -1 148 146 149 -1 149 150 148 -1 150 149 151 -1 151 152 150 -1 152 151 153 -1 153 154 152 -1 154 153 155 -1 155 144 154 -1 144 155 145 -1 134 146 132 -1 146 134 149 -1 149 134 151 -1 151 134 153 -1 153 134 155 -1 155 134 145 -1 6 77 156 -1 77 6 75 -1 95 157 158 -1 157 95 96 -1 159 160 161 -1 160 159 162 -1 163 161 164 -1 161 163 159 -1 156 78 165 -1 78 156 77 -1 141 163 164 -1 163 141 8 -1 166 137 133 -1 137 166 167 -1 137 167 168 -1 137 168 169 -1 137 169 158 -1 137 158 157 -1 91 169 168 -1 169 91 92 -1 133 88 166 -1 88 133 89 -1 92 158 169 -1 158 92 95 -1 90 168 167 -1 168 90 91 -1 7 163 8 -1 163 7 159 -1 159 7 162 -1 162 7 170 -1 170 7 171 -1 171 7 172 -1 7 173 172 -1 173 7 10 -1 171 173 174 -1 173 171 172 -1 170 174 175 -1 174 170 171 -1 162 175 160 -1 175 162 170 -1 97 157 96 -1 157 97 137 -1 78 176 165 -1 176 78 79 -1 156 12 6 -1 12 156 165 -1 12 165 176 -1 12 176 177 -1 12 177 178 -1 12 178 179 -1 88 167 166 -1 167 88 90 -1 80 178 177 -1 178 80 84 -1 79 177 176 -1 177 79 80 -1 100 180 181 -1 180 100 99 -1 99 182 180 -1 182 99 94 -1 13 179 85 -1 179 13 12 -1 84 179 178 -1 179 84 85 -1 93 140 183 -1 140 93 83 -1 138 100 181 -1 100 138 101 -1 94 183 182 -1 183 94 93 -1 46 52 111 -1 130 143 131 -1 28 106 55 -1 106 28 105 -1 105 28 102 -1 102 28 103 -1 103 28 30 -1 103 30 104 -1 104 30 128 -1 104 128 121 -1 104 121 120 -1 104 120 50 -1 104 50 109 -1 50 120 123 -1 50 123 125 -1 50 125 57 -1 50 57 48 -1 109 50 52 -1 109 52 47 -1 47 52 46 -1 109 47 38 -1 109 38 37 -1 109 37 34 -1 109 34 110 -1 110 34 33 -1 110 33 41 -1 110 41 43 -1 110 43 141 -1 110 141 2 -1 2 141 0 -1 0 141 4 -1 4 141 129 -1 129 141 164 -1 129 164 161 -1 129 161 160 -1 129 160 175 -1 129 175 139 -1 139 175 142 -1 139 142 140 -1 142 175 174 -1 142 174 173 -1 142 173 10 -1 142 10 9 -1 140 142 143 -1 140 143 147 -1 147 143 130 -1 140 147 148 -1 140 148 150 -1 140 150 152 -1 140 152 183 -1 183 152 182 -1 182 152 154 -1 182 154 144 -1 182 144 136 -1 182 136 135 -1 182 135 180 -1 180 135 181 -1 181 135 138 -1 81 129 139 -1 129 81 76 -1 "
						                >
							<Coordinate DEF="coords_ME_02-6_001"
							            point="-5.050274 26.208750 1.155426 -1.113266 26.099197 1.062992 -5.050274 26.099197 1.062992 -1.113266 26.208750 1.155426 -5.050274 27.201559 0.708661 -1.113266 27.201559 0.708661 -1.506967 27.988960 5.905512 -4.656573 36.256680 5.905512 -4.656573 27.988960 5.905512 -5.050274 36.650379 5.905512 -5.050274 36.256680 5.905512 -1.113266 36.650379 5.905512 -1.506967 36.256680 5.905512 -1.113266 36.256680 5.905512 -1.113266 8.107071 4.882647 -1.506967 8.697622 4.724410 -1.506967 8.107071 4.882647 -1.113266 8.697622 4.724410 -1.506967 7.516520 5.905512 -1.113266 7.674758 5.314960 -1.506967 7.674758 5.314960 -1.113266 7.516520 5.905512 -1.113266 13.225182 4.882647 -1.506967 13.657495 5.314960 -1.506967 13.225182 4.882647 -1.113266 13.657495 5.314960 -1.113266 13.815733 5.905512 -1.506967 13.815733 5.905512 -5.050274 7.516520 5.905512 -4.656573 7.674758 5.314960 -5.050274 7.674758 5.314960 -4.656573 7.516520 5.905512 -4.656573 22.870852 4.724410 -5.050274 23.461403 4.882647 -5.050274 22.870852 4.724410 -4.656573 23.461403 4.882647 -4.656573 18.343292 4.882647 -5.050274 18.933844 4.724410 -5.050274 18.343292 4.882647 -4.656573 18.933844 4.724410 -4.656573 24.051952 5.905512 -5.050274 23.893715 5.314960 -4.656573 23.893715 5.314960 -5.050274 24.051952 5.905512 -4.656573 17.910978 5.314960 -4.656573 17.752741 5.905512 -5.050274 17.752741 5.905512 -5.050274 17.910978 5.314960 -5.050274 14.209434 5.905512 -1.113266 14.209434 1.968504 -5.050274 14.209434 1.968504 -1.113266 14.209434 5.905512 -5.050274 17.359039 1.968504 -1.113266 17.359039 1.968504 -1.113266 3.579512 5.905512 -5.050274 3.579512 5.905512 -4.656573 13.815733 5.905512 -5.050274 13.815733 5.905512 -1.113266 4.209434 2.125984 -1.113266 3.579512 3.543307 -1.113266 5.469276 1.062992 -1.113266 7.359040 0.354331 -1.113266 9.878725 -0.000000 -1.113266 12.634630 4.724410 -1.113266 21.689749 -0.000000 -1.113266 17.359039 5.905512 -1.113266 17.910978 5.314960 -1.113266 17.752741 5.905512 -1.113266 18.343292 4.882647 -1.113266 18.933844 4.724410 -1.113266 22.870852 4.724410 -1.113266 24.209433 0.354331 -1.113266 23.461403 4.882647 -1.113266 23.893715 5.314960 -1.113266 24.051952 5.905512 -1.113266 27.988960 5.905512 -1.113266 29.301296 0.236220 -1.113266 28.147200 5.314960 -1.113266 28.579512 4.882647 -1.113266 29.170063 4.724410 -1.113266 35.075577 4.724410 -1.113266 31.925968 -0.000000 -1.113266 36.650379 1.968504 -1.113266 44.524395 -0.000000 -1.113266 35.666126 4.882647 -1.113266 36.098438 5.314960 -1.113266 39.799984 1.968504 -1.113266 39.799984 5.905512 -1.113266 40.351925 5.314960 -1.113266 40.193684 5.905512 -1.113266 40.784237 4.882647 -1.113266 41.374786 4.724410 -1.113266 47.280300 4.724410 -1.113266 47.149067 0.236220 -1.113266 49.248802 0.708661 -1.113266 47.870850 4.882647 -1.113266 48.303165 5.314960 -1.113266 48.461403 5.905512 -1.113266 52.398411 5.905512 -1.113266 50.823608 1.417323 -1.113266 51.873474 2.362205 -1.113266 52.398411 3.543307 -5.050274 5.469276 1.062992 -5.050274 7.359040 0.354331 -5.050274 9.878725 -0.000000 -5.050274 4.209434 2.125984 -5.050274 3.579512 3.543307 -1.506967 23.893715 5.314960 -1.506967 23.461403 4.882647 -5.050274 21.689749 -0.000000 -5.050274 24.209433 0.354331 -5.050274 17.359039 5.905512 -1.506967 24.051952 5.905512 -1.506967 22.870852 4.724410 -1.506967 17.910978 5.314960 -1.506967 17.752741 5.905512 -1.506967 18.343292 4.882647 -1.506967 18.933844 4.724410 -1.506967 12.634630 4.724410 -4.656573 8.697622 4.724410 -5.050274 12.634630 4.724410 -5.050274 8.697622 4.724410 -4.656573 12.634630 4.724410 -5.050274 13.225182 4.882647 -4.656573 13.225182 4.882647 -5.050274 13.657495 5.314960 -4.656573 13.657495 5.314960 -4.656573 8.107071 4.882647 -5.050274 8.107071 4.882647 -5.050274 29.301296 0.236220 -5.050274 40.193684 5.905512 -5.050274 39.799984 5.905512 -4.656573 40.193684 5.905512 -1.506967 40.193684 5.905512 -4.656573 48.461403 5.905512 -5.050274 52.398411 5.905512 -5.050274 48.461403 5.905512 -1.506967 48.461403 5.905512 -5.050274 52.398411 3.543307 -5.050274 31.925968 -0.000000 -5.050274 44.524395 -0.000000 -5.050274 27.988960 5.905512 -5.050274 36.650379 1.968504 -5.050274 39.799984 1.968504 -5.050274 48.303165 5.314960 -4.656573 48.303165 5.314960 -4.656573 40.351925 5.314960 -5.050274 40.351925 5.314960 -5.050274 40.784237 4.882647 -4.656573 40.784237 4.882647 -5.050274 41.374786 4.724410 -4.656573 41.374786 4.724410 -5.050274 47.280300 4.724410 -4.656573 47.280300 4.724410 -5.050274 47.870850 4.882647 -4.656573 47.870850 4.882647 -1.506967 28.147200 5.314960 -1.506967 48.303165 5.314960 -1.506967 47.870850 4.882647 -4.656573 28.579512 4.882647 -5.050274 29.170063 4.724410 -5.050274 28.579512 4.882647 -4.656573 29.170063 4.724410 -4.656573 28.147200 5.314960 -5.050274 28.147200 5.314960 -1.506967 28.579512 4.882647 -1.506967 40.351925 5.314960 -1.506967 40.784237 4.882647 -1.506967 41.374786 4.724410 -1.506967 47.280300 4.724410 -4.656573 35.075577 4.724410 -4.656573 35.666126 4.882647 -4.656573 36.098438 5.314960 -5.050274 36.098438 5.314960 -5.050274 35.666126 4.882647 -5.050274 35.075577 4.724410 -1.506967 29.170063 4.724410 -1.506967 35.075577 4.724410 -1.506967 35.666126 4.882647 -1.506967 36.098438 5.314960 -5.050274 50.823608 1.417323 -5.050274 51.873474 2.362205 -5.050274 49.248802 0.708661 -5.050274 47.149067 0.236220 "
							            />
						</IndexedFaceSet>
					</Shape>
				</Group>
			</Transform>
		</Transform>
	</Scene>
</X3D>