<?xml version="1.0" encoding="UTF-8"?>
<!DOCTYPE X3D PUBLIC "ISO//Web3D//DTD X3D 3.0//EN" "http://www.web3d.org/specifications/x3d-3.0.dtd">
<X3D version="3.0" profile="Immersive" xmlns:xsd="http://www.w3.org/2001/XMLSchema-instance" xsd:noNamespaceSchemaLocation="http://www.web3d.org/specifications/x3d-3.0.xsd">
	<head>
		<meta name="filename" content="03-1-1.x3d" />
		<meta name="created" content="2026-06-21 15:09:37" />
		<meta name="generator" content="Blender 4.5.4 LTS" />
		<meta name="translator" content="Web3D X3D/VRML2 format v2.5.1" />
	</head>
	<Scene>
		<NavigationInfo headlight="true"
		                visibilityLimit="0.0"
		                type='"EXAMINE", "ANY"'
		                avatarSize="0.25, 1.75, 0.75"
		                />
		<Background DEF="WO_World"
		            groundColor="0.051 0.051 0.051"
		            skyColor="0.051 0.051 0.051"
		            />
		<Transform DEF="_03-1-1_TRANSFORM"
		           translation="0.000000 0.000000 0.000000"
		           scale="1.000000 1.000000 1.000000"
		           rotation="0.000000 0.707107 0.707107 3.141593"
		           >
			<Transform DEF="_03-1-1_ifs_TRANSFORM"
			           translation="0.000000 0.000000 0.000000"
			           scale="1.000000 1.000000 1.000000"
			           rotation="0.000000 1.000000 0.000000 0.000000"
			           >
				<Group DEF="group_ME_03-1-1_001">
					<Shape>
						<Appearance>
						</Appearance>
						<IndexedFaceSet solid="false"
						                coordIndex="0 1 2 -1 1 0 3 -1 4 5 6 -1 5 4 7 -1 8 9 10 -1 9 8 11 -1 5 12 6 -1 12 5 13 -1 10 14 15 -1 14 10 9 -1 14 9 16 -1 16 9 17 -1 17 9 18 -1 19 15 14 -1 20 21 22 -1 23 8 24 -1 8 23 25 -1 8 25 11 -1 11 25 21 -1 11 21 20 -1 26 0 27 -1 0 26 3 -1 28 29 30 -1 29 28 31 -1 30 32 33 -1 32 30 29 -1 34 29 31 -1 29 34 35 -1 35 32 29 -1 32 35 36 -1 36 37 32 -1 37 36 38 -1 36 39 38 -1 39 36 40 -1 34 41 35 -1 41 34 42 -1 35 40 36 -1 40 35 41 -1 43 23 24 -1 23 43 44 -1 33 37 45 -1 37 33 32 -1 46 5 7 -1 5 46 13 -1 13 46 21 -1 21 46 22 -1 23 12 25 -1 12 4 6 -1 4 12 44 -1 44 12 23 -1 14 26 27 -1 26 14 16 -1 12 21 25 -1 21 12 13 -1 47 0 2 -1 0 47 27 -1 27 47 14 -1 14 47 19 -1 17 26 16 -1 26 1 3 -1 1 26 48 -1 48 26 17 -1 34 9 42 -1 9 34 49 -1 9 49 18 -1 42 11 50 -1 11 42 9 -1 50 11 20 -1 33 51 30 -1 51 33 52 -1 51 52 40 -1 51 40 41 -1 39 37 38 -1 37 39 45 -1 30 53 28 -1 53 30 51 -1 53 51 41 -1 53 41 42 -1 45 52 33 -1 52 45 39 -1 52 39 40 -1 28 8 31 -1 8 28 43 -1 8 43 24 -1 31 10 54 -1 10 31 8 -1 54 10 15 -1 49 1 48 -1 47 31 54 -1 31 47 2 -1 31 2 34 -1 34 2 1 -1 34 1 49 -1 53 4 28 -1 4 53 7 -1 7 53 46 -1 46 53 50 -1 50 53 42 -1 28 44 43 -1 44 28 4 -1 17 49 48 -1 49 17 18 -1 46 20 22 -1 20 46 50 -1 15 47 54 -1 47 15 19 -1 55 56 57 -1 56 55 58 -1 59 60 61 -1 60 59 62 -1 63 64 65 -1 64 63 66 -1 60 67 61 -1 67 60 68 -1 65 69 70 -1 69 65 64 -1 69 64 71 -1 71 64 72 -1 72 64 73 -1 74 70 69 -1 75 76 77 -1 78 63 79 -1 63 78 80 -1 63 80 66 -1 66 80 76 -1 66 76 75 -1 81 55 82 -1 55 81 58 -1 83 84 85 -1 84 83 86 -1 85 87 88 -1 87 85 84 -1 89 84 86 -1 84 89 90 -1 90 87 84 -1 87 90 91 -1 91 92 87 -1 92 91 93 -1 91 94 93 -1 94 91 95 -1 89 96 90 -1 96 89 97 -1 90 95 91 -1 95 90 96 -1 98 78 79 -1 78 98 99 -1 88 92 100 -1 92 88 87 -1 101 60 62 -1 60 101 68 -1 68 101 76 -1 76 101 77 -1 78 67 80 -1 67 59 61 -1 59 67 99 -1 99 67 78 -1 69 81 82 -1 81 69 71 -1 67 76 80 -1 76 67 68 -1 102 55 57 -1 55 102 82 -1 82 102 69 -1 69 102 74 -1 72 81 71 -1 81 56 58 -1 56 81 103 -1 103 81 72 -1 89 64 97 -1 64 89 104 -1 64 104 73 -1 97 66 105 -1 66 97 64 -1 105 66 75 -1 88 106 85 -1 106 88 107 -1 106 107 95 -1 106 95 96 -1 94 92 93 -1 92 94 100 -1 85 108 83 -1 108 85 106 -1 108 106 96 -1 108 96 97 -1 100 107 88 -1 107 100 94 -1 107 94 95 -1 83 63 86 -1 63 83 98 -1 63 98 79 -1 86 65 109 -1 65 86 63 -1 109 65 70 -1 104 56 103 -1 102 86 109 -1 86 102 57 -1 86 57 89 -1 89 57 56 -1 89 56 104 -1 108 59 83 -1 59 108 62 -1 62 108 101 -1 101 108 105 -1 105 108 97 -1 83 99 98 -1 99 83 59 -1 72 104 103 -1 104 72 73 -1 101 75 77 -1 75 101 105 -1 70 102 109 -1 102 70 74 -1 110 111 112 -1 111 110 113 -1 114 115 116 -1 115 114 117 -1 118 119 120 -1 119 118 121 -1 122 123 124 -1 123 122 125 -1 113 126 127 -1 126 124 123 -1 124 126 110 -1 110 126 113 -1 116 128 114 -1 128 116 129 -1 119 130 120 -1 130 119 131 -1 118 130 132 -1 130 118 120 -1 119 133 131 -1 133 119 134 -1 134 119 121 -1 135 136 137 -1 136 135 138 -1 139 140 141 -1 140 139 127 -1 127 139 111 -1 111 113 127 -1 134 142 133 -1 142 134 143 -1 143 134 144 -1 144 134 121 -1 143 145 142 -1 145 143 146 -1 146 143 147 -1 147 143 144 -1 148 127 126 -1 127 148 140 -1 149 118 132 -1 118 149 150 -1 151 139 147 -1 139 151 112 -1 139 112 111 -1 147 152 136 -1 152 147 139 -1 136 152 137 -1 141 152 139 -1 152 141 153 -1 151 144 150 -1 144 151 147 -1 138 114 128 -1 114 138 117 -1 117 138 154 -1 154 138 135 -1 150 121 118 -1 121 150 144 -1 126 125 148 -1 125 126 123 -1 137 154 135 -1 154 153 155 -1 153 154 152 -1 152 154 137 -1 151 149 156 -1 149 151 150 -1 155 117 154 -1 117 155 115 -1 145 128 129 -1 128 145 146 -1 128 136 138 -1 136 128 146 -1 136 146 147 -1 112 124 110 -1 124 156 122 -1 156 124 151 -1 151 124 112 -1 115 153 116 -1 153 115 155 -1 140 125 141 -1 125 140 148 -1 133 130 131 -1 130 133 132 -1 132 133 142 -1 132 142 149 -1 149 142 156 -1 156 142 145 -1 156 145 122 -1 122 145 129 -1 122 129 116 -1 122 116 153 -1 122 153 141 -1 122 141 125 -1 157 158 159 -1 158 157 160 -1 161 162 163 -1 162 161 164 -1 165 166 167 -1 166 165 168 -1 162 169 163 -1 169 162 170 -1 167 171 172 -1 171 167 166 -1 171 166 173 -1 173 166 174 -1 174 166 175 -1 176 172 171 -1 177 178 179 -1 180 165 181 -1 165 180 182 -1 165 182 168 -1 168 182 178 -1 168 178 177 -1 183 157 184 -1 157 183 160 -1 185 186 187 -1 186 185 188 -1 187 189 190 -1 189 187 186 -1 191 186 188 -1 186 191 192 -1 192 189 186 -1 189 192 193 -1 193 194 189 -1 194 193 195 -1 193 196 195 -1 196 193 197 -1 191 198 192 -1 198 191 199 -1 192 197 193 -1 197 192 198 -1 200 180 181 -1 180 200 201 -1 190 194 202 -1 194 190 189 -1 203 162 164 -1 162 203 170 -1 170 203 178 -1 178 203 179 -1 180 169 182 -1 169 161 163 -1 161 169 201 -1 201 169 180 -1 171 183 184 -1 183 171 173 -1 169 178 182 -1 178 169 170 -1 204 157 159 -1 157 204 184 -1 184 204 171 -1 171 204 176 -1 174 183 173 -1 183 158 160 -1 158 183 205 -1 205 183 174 -1 191 166 199 -1 166 191 206 -1 166 206 175 -1 199 168 207 -1 168 199 166 -1 207 168 177 -1 190 208 187 -1 208 190 209 -1 208 209 197 -1 208 197 198 -1 196 194 195 -1 194 196 202 -1 187 210 185 -1 210 187 208 -1 210 208 198 -1 210 198 199 -1 202 209 190 -1 209 202 196 -1 209 196 197 -1 185 165 188 -1 165 185 200 -1 165 200 181 -1 188 167 211 -1 167 188 165 -1 211 167 172 -1 206 158 205 -1 204 188 211 -1 188 204 159 -1 188 159 191 -1 191 159 158 -1 191 158 206 -1 210 161 185 -1 161 210 164 -1 164 210 203 -1 203 210 207 -1 207 210 199 -1 185 201 200 -1 201 185 161 -1 174 206 205 -1 206 174 175 -1 203 177 179 -1 177 203 207 -1 172 204 211 -1 204 172 176 -1 "
						                >
							<Coordinate DEF="coords_ME_03-1-1_001"
							            point="3.149606 26.114174 26.716536 0.000000 30.051182 26.716536 0.000000 26.114174 26.716536 3.149606 30.051182 26.716536 12.598425 26.114174 26.716536 9.448819 30.051182 26.716536 9.448819 26.114174 26.716536 12.598425 30.051182 26.716536 8.267716 21.783464 26.716536 4.330709 34.381889 26.716536 4.330709 21.783464 26.716536 8.267716 34.381889 26.716536 9.448819 26.114174 28.291338 9.448819 30.051182 28.291338 4.330709 26.114174 28.291338 4.330709 21.783464 29.866142 4.330709 30.051182 28.291338 4.330709 30.051182 29.866142 4.330709 34.381889 29.866142 4.330709 26.114174 29.866142 8.267716 34.381889 29.866142 8.267716 30.051182 28.291338 8.267716 30.051182 29.866142 8.267716 26.114174 29.866142 8.267716 21.783464 29.866142 8.267716 26.114174 28.291338 3.149606 30.051182 28.291338 3.149606 26.114174 28.291338 12.598425 21.783464 25.141733 0.829686 22.613152 24.263470 11.768739 22.613152 24.263470 0.000000 21.783464 25.141733 1.370005 23.153469 23.182833 11.228420 23.153469 23.182833 0.000000 34.381889 25.141733 0.829686 33.552204 24.263470 1.370005 33.011883 23.182833 1.574803 23.358267 21.992126 1.574803 32.807087 21.992126 11.023623 32.807087 21.992126 11.228420 33.011883 23.182833 11.768739 33.552204 24.263470 12.598425 34.381889 25.141733 12.598425 21.783464 29.866142 12.598425 26.114174 29.866142 11.023623 23.358267 21.992126 12.598425 30.051182 29.866142 0.000000 26.114174 29.866142 0.000000 30.051182 29.866142 0.000000 34.381889 29.866142 12.598425 34.381889 29.866142 11.768739 32.807087 24.263470 11.228420 32.807087 23.182833 12.598425 32.807087 25.141733 0.000000 21.783464 29.866142 4.330709 9.448819 26.716536 8.267716 12.598425 26.716536 4.330709 12.598425 26.716536 8.267716 9.448819 26.716536 4.330709 0.000000 26.716536 8.267716 3.149606 26.716536 4.330709 3.149606 26.716536 8.267716 0.000000 26.716536 0.000000 4.330709 26.716536 12.598425 8.267716 26.716536 0.000000 8.267716 26.716536 12.598425 4.330709 26.716536 4.330709 3.149606 28.291338 8.267716 3.149606 28.291338 4.330709 8.267716 28.291338 0.000000 8.267716 29.866142 8.267716 8.267716 28.291338 8.267716 8.267716 29.866142 12.598425 8.267716 29.866142 4.330709 8.267716 29.866142 12.598425 4.330709 29.866142 8.267716 4.330709 28.291338 8.267716 4.330709 29.866142 4.330709 4.330709 29.866142 0.000000 4.330709 29.866142 4.330709 4.330709 28.291338 8.267716 9.448819 28.291338 4.330709 9.448819 28.291338 0.000000 0.000000 25.141733 0.829686 11.768739 24.263470 0.829686 0.829686 24.263470 0.000000 12.598425 25.141733 1.370005 11.228420 23.182833 1.370005 1.370005 23.182833 12.598425 12.598425 25.141733 11.768739 11.768739 24.263470 11.228420 11.228420 23.182833 1.574803 11.023623 21.992126 11.023623 11.023623 21.992126 11.023623 1.574803 21.992126 11.228420 1.370005 23.182833 11.768739 0.829686 24.263470 12.598425 0.000000 25.141733 0.000000 0.000000 29.866142 4.330709 0.000000 29.866142 1.574803 1.574803 21.992126 8.267716 0.000000 29.866142 4.330709 12.598425 29.866142 8.267716 12.598425 29.866142 12.598425 12.598425 29.866142 12.598425 0.000000 29.866142 11.023623 0.829686 24.263470 11.023623 1.370005 23.182833 11.023623 0.000000 25.141733 0.000000 12.598425 29.866142 8.267716 12.566929 11.417323 12.598425 8.236220 11.417323 12.598425 12.566929 11.417323 8.267716 8.236220 11.417323 8.267716 3.118110 8.267716 6.299212 3.118110 9.842520 6.299212 3.118110 8.267716 8.267716 3.118110 9.842520 11.228420 11.196924 4.734013 11.023623 1.543307 3.543307 11.023623 10.992126 3.543307 11.228420 1.338509 4.734013 6.299212 12.566929 8.267716 8.267716 9.417323 8.267716 8.267716 12.566929 8.267716 6.299212 9.417323 8.267716 8.267716 9.417323 9.842520 8.267716 8.236220 9.842520 8.267716 -0.031496 8.267716 6.299212 -0.031496 8.267716 6.299212 10.992126 3.543307 6.299212 1.543307 3.543307 6.299212 11.196924 4.734013 6.299212 1.338509 4.734013 11.023623 1.338509 4.734013 8.267716 4.299212 11.417323 12.598425 -0.031496 11.417323 12.598425 4.299212 11.417323 8.267716 -0.031496 11.417323 12.598425 8.236220 8.267716 6.299212 8.236220 9.842520 6.299212 8.236220 8.267716 6.299212 0.798190 5.814651 11.023623 0.798190 5.814651 11.768739 0.798190 5.814651 6.299212 -0.031496 6.692914 11.023623 -0.031496 6.692914 12.598425 -0.031496 6.692914 6.299212 9.417323 9.842520 6.299212 11.737243 5.814651 11.768739 11.737243 5.814651 12.598425 12.566929 6.692914 12.598425 4.299212 8.267716 6.299212 4.299212 8.267716 8.267716 4.299212 9.842520 6.299212 4.299212 9.842520 6.299212 12.566929 6.692914 5.511811 26.114174 3.149606 5.511811 30.051182 0.000000 5.511811 26.114174 0.000000 5.511811 30.051182 3.149606 5.511811 26.114174 12.598425 5.511811 30.051182 9.448819 5.511811 26.114174 9.448819 5.511811 30.051182 12.598425 5.511811 21.783464 8.267716 5.511811 34.381889 4.330709 5.511811 21.783464 4.330709 5.511811 34.381889 8.267716 3.937008 26.114174 9.448819 3.937008 30.051182 9.448819 3.937008 26.114174 4.330709 2.362205 21.783464 4.330709 3.937008 30.051182 4.330709 2.362205 30.051182 4.330709 2.362205 34.381889 4.330709 2.362205 26.114174 4.330709 2.362205 34.381889 8.267716 3.937008 30.051182 8.267716 2.362205 30.051182 8.267716 2.362205 26.114174 8.267716 2.362205 21.783464 8.267716 3.937008 26.114174 8.267716 3.937008 30.051182 3.149606 3.937008 26.114174 3.149606 7.086614 21.783464 12.598425 7.964876 22.613152 0.829686 7.964876 22.613152 11.768739 7.086614 21.783464 0.000000 9.045514 23.153469 1.370005 9.045514 23.153469 11.228420 7.086614 34.381889 0.000000 7.964876 33.552204 0.829686 9.045514 33.011883 1.370005 10.236220 23.358267 1.574803 10.236220 32.807087 1.574803 10.236220 32.807087 11.023623 9.045514 33.011883 11.228420 7.964876 33.552204 11.768739 7.086614 34.381889 12.598425 2.362205 21.783464 12.598425 2.362205 26.114174 12.598425 10.236220 23.358267 11.023623 2.362205 30.051182 12.598425 2.362205 26.114174 0.000000 2.362205 30.051182 0.000000 2.362205 34.381889 0.000000 2.362205 34.381889 12.598425 7.964876 32.807087 11.768739 9.045514 32.807087 11.228420 7.086614 32.807087 12.598425 2.362205 21.783464 0.000000 "
							            />
						</IndexedFaceSet>
					</Shape>
				</Group>
			</Transform>
		</Transform>
	</Scene>
</X3D>