<?xml version="1.0" encoding="UTF-8"?>
<!DOCTYPE X3D PUBLIC "ISO//Web3D//DTD X3D 3.0//EN" "http://www.web3d.org/specifications/x3d-3.0.dtd">
<X3D version="3.0" profile="Immersive" xmlns:xsd="http://www.w3.org/2001/XMLSchema-instance" xsd:noNamespaceSchemaLocation="http://www.web3d.org/specifications/x3d-3.0.xsd">
	<head>
		<meta name="filename" content="03-1-2.x3d" />
		<meta name="created" content="2026-06-21 15:09:37" />
		<meta name="generator" content="Blender 4.5.4 LTS" />
		<meta name="translator" content="Web3D X3D/VRML2 format v2.5.1" />
	</head>
	<Scene>
		<NavigationInfo headlight="true"
		                visibilityLimit="0.0"
		                type='"EXAMINE", "ANY"'
		                avatarSize="0.25, 1.75, 0.75"
		                />
		<Background DEF="WO_World"
		            groundColor="0.051 0.051 0.051"
		            skyColor="0.051 0.051 0.051"
		            />
		<Transform DEF="_03-1-2_TRANSFORM"
		           translation="0.000000 0.000000 0.000000"
		           scale="1.000000 1.000000 1.000000"
		           rotation="0.000000 0.707107 0.707107 3.141593"
		           >
			<Transform DEF="_03-1-2_ifs_TRANSFORM"
			           translation="0.000000 0.000000 0.000000"
			           scale="1.000000 1.000000 1.000000"
			           rotation="0.000000 1.000000 0.000000 0.000000"
			           >
				<Group DEF="group_ME_03-1-2_001">
					<Shape>
						<Appearance>
						</Appearance>
						<IndexedFaceSet solid="false"
						                coordIndex="0 1 2 -1 1 0 3 -1 4 5 6 -1 5 4 7 -1 6 8 9 -1 8 6 5 -1 8 5 10 -1 10 5 11 -1 11 5 12 -1 13 9 8 -1 14 15 16 -1 17 4 18 -1 4 17 19 -1 4 19 7 -1 7 19 15 -1 7 15 14 -1 9 20 21 -1 20 9 13 -1 22 5 23 -1 5 22 12 -1 24 25 26 -1 25 24 7 -1 25 7 27 -1 7 24 23 -1 7 23 5 -1 27 7 14 -1 28 29 30 -1 20 31 21 -1 31 20 32 -1 31 32 26 -1 26 32 29 -1 26 29 33 -1 33 29 28 -1 26 33 24 -1 34 4 35 -1 4 34 18 -1 36 31 37 -1 31 36 6 -1 31 6 21 -1 6 36 35 -1 6 35 4 -1 21 6 9 -1 38 39 40 -1 39 38 41 -1 42 43 37 -1 43 42 44 -1 43 44 45 -1 43 45 25 -1 46 44 42 -1 44 46 47 -1 44 47 48 -1 44 48 45 -1 41 47 46 -1 47 41 38 -1 47 38 48 -1 37 49 42 -1 49 37 31 -1 42 50 46 -1 50 42 49 -1 46 39 41 -1 39 46 50 -1 26 49 31 -1 49 26 51 -1 51 50 49 -1 50 51 52 -1 53 14 16 -1 14 53 27 -1 51 48 52 -1 48 51 45 -1 52 38 40 -1 38 52 48 -1 43 36 37 -1 36 43 54 -1 54 43 0 -1 54 0 55 -1 0 43 3 -1 3 43 53 -1 53 43 27 -1 27 43 25 -1 56 55 0 -1 52 39 50 -1 39 52 40 -1 1 57 2 -1 57 1 58 -1 26 45 51 -1 45 26 25 -1 30 59 28 -1 59 30 11 -1 59 11 60 -1 60 12 22 -1 12 60 11 -1 35 61 62 -1 61 35 36 -1 61 36 54 -1 60 23 63 -1 23 60 22 -1 60 64 59 -1 64 60 63 -1 28 64 33 -1 64 28 59 -1 55 61 54 -1 61 55 65 -1 64 24 33 -1 24 64 23 -1 23 64 63 -1 61 66 62 -1 66 61 65 -1 66 56 17 -1 56 66 65 -1 56 65 55 -1 18 66 17 -1 66 18 34 -1 66 35 62 -1 35 66 34 -1 11 67 10 -1 67 29 68 -1 29 67 30 -1 30 67 11 -1 67 69 70 -1 69 67 68 -1 20 69 32 -1 69 20 70 -1 70 20 8 -1 8 20 13 -1 8 67 70 -1 67 8 10 -1 69 29 32 -1 29 69 68 -1 53 1 3 -1 1 53 58 -1 58 53 15 -1 15 53 16 -1 17 57 19 -1 57 0 2 -1 0 57 56 -1 56 57 17 -1 57 15 19 -1 15 57 58 -1 71 72 73 -1 72 74 75 -1 74 72 76 -1 76 72 71 -1 77 78 79 -1 71 80 81 -1 80 71 73 -1 80 73 82 -1 82 73 78 -1 82 78 77 -1 83 84 85 -1 84 83 86 -1 87 83 88 -1 83 87 89 -1 83 89 86 -1 86 89 90 -1 90 89 91 -1 92 88 83 -1 93 94 95 -1 94 93 96 -1 94 96 97 -1 97 96 98 -1 97 98 99 -1 84 98 85 -1 98 84 99 -1 100 101 102 -1 101 100 103 -1 103 100 78 -1 78 100 79 -1 104 105 106 -1 105 104 107 -1 108 107 104 -1 107 108 109 -1 110 109 108 -1 109 110 111 -1 112 111 110 -1 111 112 113 -1 107 114 105 -1 114 107 115 -1 109 115 107 -1 115 109 116 -1 111 116 109 -1 116 111 117 -1 113 117 111 -1 117 113 82 -1 117 82 118 -1 118 82 77 -1 115 119 114 -1 119 115 120 -1 116 120 115 -1 120 116 121 -1 117 121 116 -1 121 117 122 -1 118 122 117 -1 122 118 123 -1 124 98 96 -1 98 124 85 -1 85 124 83 -1 83 124 92 -1 119 125 126 -1 125 119 120 -1 120 127 125 -1 127 120 121 -1 122 127 121 -1 127 122 128 -1 128 123 129 -1 123 128 122 -1 126 130 131 -1 130 126 125 -1 125 132 130 -1 132 125 127 -1 128 132 127 -1 132 128 133 -1 133 102 134 -1 102 133 128 -1 102 128 100 -1 100 128 129 -1 135 136 137 -1 136 135 138 -1 136 138 139 -1 139 138 140 -1 140 138 141 -1 140 141 142 -1 142 141 143 -1 142 143 144 -1 142 144 145 -1 145 144 146 -1 146 144 106 -1 146 106 105 -1 146 105 147 -1 147 105 114 -1 147 114 148 -1 148 114 119 -1 148 119 149 -1 149 119 150 -1 150 119 126 -1 150 126 151 -1 151 126 131 -1 151 131 152 -1 131 153 152 -1 153 131 130 -1 130 154 153 -1 154 130 132 -1 132 155 154 -1 155 132 133 -1 155 134 156 -1 134 155 133 -1 151 153 157 -1 153 151 152 -1 157 154 158 -1 154 157 153 -1 158 155 159 -1 155 158 154 -1 155 160 159 -1 160 155 156 -1 150 157 161 -1 157 150 151 -1 161 158 162 -1 158 161 157 -1 158 163 162 -1 163 158 159 -1 159 164 163 -1 164 159 165 -1 165 159 166 -1 166 159 74 -1 74 159 160 -1 76 166 74 -1 167 89 87 -1 89 167 168 -1 168 167 169 -1 168 169 112 -1 112 169 170 -1 112 170 113 -1 113 170 80 -1 113 80 82 -1 149 161 171 -1 161 149 150 -1 171 162 172 -1 162 171 161 -1 162 173 172 -1 173 162 163 -1 163 174 173 -1 174 163 164 -1 171 148 149 -1 148 171 175 -1 172 175 171 -1 175 172 176 -1 172 177 176 -1 177 172 173 -1 174 177 173 -1 177 174 178 -1 179 92 124 -1 92 179 180 -1 92 180 181 -1 92 181 88 -1 175 147 148 -1 147 175 182 -1 176 182 175 -1 182 176 183 -1 176 184 183 -1 184 176 177 -1 185 80 186 -1 80 185 81 -1 178 184 177 -1 184 178 170 -1 170 178 186 -1 170 186 80 -1 187 188 189 -1 188 187 90 -1 188 90 190 -1 190 91 191 -1 91 190 90 -1 182 146 147 -1 146 182 192 -1 183 192 182 -1 192 183 193 -1 184 193 183 -1 193 184 194 -1 170 194 184 -1 194 170 169 -1 192 145 146 -1 145 192 195 -1 193 195 192 -1 195 193 196 -1 194 196 193 -1 196 194 197 -1 169 197 194 -1 197 169 167 -1 195 142 145 -1 142 195 198 -1 196 198 195 -1 198 196 199 -1 199 197 200 -1 197 199 196 -1 167 200 197 -1 200 167 87 -1 200 87 181 -1 181 87 88 -1 198 140 142 -1 140 198 201 -1 199 201 198 -1 201 199 202 -1 202 200 203 -1 200 202 199 -1 181 203 200 -1 203 181 180 -1 204 140 201 -1 140 204 139 -1 205 201 202 -1 201 205 204 -1 205 203 206 -1 203 205 202 -1 180 206 203 -1 206 180 179 -1 207 139 204 -1 139 207 136 -1 208 204 205 -1 204 208 207 -1 208 206 209 -1 206 208 205 -1 179 209 206 -1 209 179 96 -1 96 179 124 -1 209 96 93 -1 210 136 207 -1 136 210 137 -1 211 207 208 -1 207 211 210 -1 212 208 209 -1 208 212 211 -1 93 212 209 -1 212 93 95 -1 213 137 210 -1 137 213 135 -1 214 210 211 -1 210 214 213 -1 212 214 211 -1 214 212 215 -1 94 212 95 -1 212 94 215 -1 213 138 135 -1 138 213 216 -1 214 216 213 -1 216 214 217 -1 218 214 215 -1 214 218 217 -1 189 97 187 -1 94 218 215 -1 218 94 97 -1 218 97 219 -1 219 97 189 -1 218 219 220 -1 72 78 73 -1 78 72 103 -1 216 141 138 -1 141 216 221 -1 217 221 216 -1 221 217 222 -1 223 217 218 -1 217 223 222 -1 220 223 218 -1 223 220 224 -1 221 143 141 -1 143 221 225 -1 222 225 221 -1 225 222 226 -1 227 222 223 -1 222 227 226 -1 224 227 223 -1 227 224 228 -1 225 144 143 -1 144 225 229 -1 226 229 225 -1 229 226 230 -1 231 226 227 -1 226 231 230 -1 191 89 232 -1 89 191 91 -1 228 231 227 -1 231 228 168 -1 168 228 232 -1 168 232 89 -1 233 76 71 -1 76 233 234 -1 76 234 166 -1 81 233 71 -1 233 81 185 -1 229 106 144 -1 106 229 104 -1 230 104 229 -1 104 230 108 -1 231 108 230 -1 108 231 110 -1 168 110 231 -1 110 168 112 -1 90 84 86 -1 84 97 99 -1 97 84 187 -1 187 84 90 -1 100 77 79 -1 77 100 118 -1 118 100 123 -1 123 100 129 -1 74 101 75 -1 101 74 102 -1 102 74 160 -1 102 160 134 -1 134 160 156 -1 101 72 75 -1 72 101 103 -1 235 185 186 -1 185 235 233 -1 186 236 235 -1 236 186 178 -1 236 178 174 -1 236 174 164 -1 236 164 165 -1 234 165 166 -1 165 234 236 -1 234 235 236 -1 235 234 233 -1 191 237 190 -1 237 191 232 -1 219 188 238 -1 188 219 189 -1 238 220 219 -1 220 238 224 -1 224 238 237 -1 224 237 228 -1 228 237 232 -1 190 238 188 -1 238 190 237 -1 239 240 241 -1 240 239 242 -1 243 244 245 -1 244 243 246 -1 245 247 248 -1 247 245 244 -1 247 244 249 -1 249 244 250 -1 250 244 251 -1 252 248 247 -1 253 254 255 -1 256 243 257 -1 243 256 258 -1 243 258 246 -1 246 258 254 -1 246 254 253 -1 248 259 260 -1 259 248 252 -1 261 244 262 -1 244 261 251 -1 263 264 265 -1 264 263 246 -1 264 246 266 -1 246 263 262 -1 246 262 244 -1 266 246 253 -1 267 268 269 -1 259 270 260 -1 270 259 271 -1 270 271 265 -1 265 271 268 -1 265 268 272 -1 272 268 267 -1 265 272 263 -1 273 243 274 -1 243 273 257 -1 275 270 276 -1 270 275 245 -1 270 245 260 -1 245 275 274 -1 245 274 243 -1 260 245 248 -1 277 278 279 -1 278 277 280 -1 281 282 276 -1 282 281 283 -1 282 283 284 -1 282 284 264 -1 285 283 281 -1 283 285 286 -1 283 286 287 -1 283 287 284 -1 280 286 285 -1 286 280 277 -1 286 277 287 -1 276 288 281 -1 288 276 270 -1 281 289 285 -1 289 281 288 -1 285 278 280 -1 278 285 289 -1 265 288 270 -1 288 265 290 -1 290 289 288 -1 289 290 291 -1 292 253 255 -1 253 292 266 -1 290 287 291 -1 287 290 284 -1 291 277 279 -1 277 291 287 -1 282 275 276 -1 275 282 293 -1 293 282 239 -1 293 239 294 -1 239 282 242 -1 242 282 292 -1 292 282 266 -1 266 282 264 -1 295 294 239 -1 291 278 289 -1 278 291 279 -1 240 296 241 -1 296 240 297 -1 265 284 290 -1 284 265 264 -1 269 298 267 -1 298 269 250 -1 298 250 299 -1 299 251 261 -1 251 299 250 -1 274 300 301 -1 300 274 275 -1 300 275 293 -1 299 262 302 -1 262 299 261 -1 299 303 298 -1 303 299 302 -1 267 303 272 -1 303 267 298 -1 294 300 293 -1 300 294 304 -1 303 263 272 -1 263 303 262 -1 262 303 302 -1 300 305 301 -1 305 300 304 -1 305 295 256 -1 295 305 304 -1 295 304 294 -1 257 305 256 -1 305 257 273 -1 305 274 301 -1 274 305 273 -1 250 306 249 -1 306 268 307 -1 268 306 269 -1 269 306 250 -1 306 308 309 -1 308 306 307 -1 259 308 271 -1 308 259 309 -1 309 259 247 -1 247 259 252 -1 247 306 309 -1 306 247 249 -1 308 268 271 -1 268 308 307 -1 292 240 242 -1 240 292 297 -1 297 292 254 -1 254 292 255 -1 256 296 258 -1 296 239 241 -1 239 296 295 -1 295 296 256 -1 296 254 258 -1 254 296 297 -1 310 311 312 -1 311 313 314 -1 313 311 315 -1 315 311 310 -1 316 317 318 -1 310 319 320 -1 319 310 312 -1 319 312 321 -1 321 312 317 -1 321 317 316 -1 322 323 324 -1 323 322 325 -1 326 322 327 -1 322 326 328 -1 322 328 325 -1 325 328 329 -1 329 328 330 -1 331 327 322 -1 332 333 334 -1 333 332 335 -1 333 335 336 -1 336 335 337 -1 336 337 338 -1 323 337 324 -1 337 323 338 -1 339 340 341 -1 340 339 342 -1 342 339 317 -1 317 339 318 -1 343 344 345 -1 344 343 346 -1 347 346 343 -1 346 347 348 -1 349 348 347 -1 348 349 350 -1 351 350 349 -1 350 351 352 -1 346 353 344 -1 353 346 354 -1 348 354 346 -1 354 348 355 -1 350 355 348 -1 355 350 356 -1 352 356 350 -1 356 352 321 -1 356 321 357 -1 357 321 316 -1 354 358 353 -1 358 354 359 -1 355 359 354 -1 359 355 360 -1 356 360 355 -1 360 356 361 -1 357 361 356 -1 361 357 362 -1 363 337 335 -1 337 363 324 -1 324 363 322 -1 322 363 331 -1 358 364 365 -1 364 358 359 -1 359 366 364 -1 366 359 360 -1 361 366 360 -1 366 361 367 -1 367 362 368 -1 362 367 361 -1 365 369 370 -1 369 365 364 -1 364 371 369 -1 371 364 366 -1 367 371 366 -1 371 367 372 -1 372 341 373 -1 341 372 367 -1 341 367 339 -1 339 367 368 -1 374 375 376 -1 375 374 377 -1 375 377 378 -1 378 377 379 -1 379 377 380 -1 379 380 381 -1 381 380 382 -1 381 382 383 -1 381 383 384 -1 384 383 385 -1 385 383 345 -1 385 345 344 -1 385 344 386 -1 386 344 353 -1 386 353 387 -1 387 353 358 -1 387 358 388 -1 388 358 389 -1 389 358 365 -1 389 365 390 -1 390 365 370 -1 390 370 391 -1 370 392 391 -1 392 370 369 -1 369 393 392 -1 393 369 371 -1 371 394 393 -1 394 371 372 -1 394 373 395 -1 373 394 372 -1 390 392 396 -1 392 390 391 -1 396 393 397 -1 393 396 392 -1 397 394 398 -1 394 397 393 -1 394 399 398 -1 399 394 395 -1 389 396 400 -1 396 389 390 -1 400 397 401 -1 397 400 396 -1 397 402 401 -1 402 397 398 -1 398 403 402 -1 403 398 404 -1 404 398 405 -1 405 398 313 -1 313 398 399 -1 315 405 313 -1 406 328 326 -1 328 406 407 -1 407 406 408 -1 407 408 351 -1 351 408 409 -1 351 409 352 -1 352 409 319 -1 352 319 321 -1 388 400 410 -1 400 388 389 -1 410 401 411 -1 401 410 400 -1 401 412 411 -1 412 401 402 -1 402 413 412 -1 413 402 403 -1 410 387 388 -1 387 410 414 -1 411 414 410 -1 414 411 415 -1 411 416 415 -1 416 411 412 -1 413 416 412 -1 416 413 417 -1 418 331 363 -1 331 418 419 -1 331 419 420 -1 331 420 327 -1 414 386 387 -1 386 414 421 -1 415 421 414 -1 421 415 422 -1 415 423 422 -1 423 415 416 -1 424 319 425 -1 319 424 320 -1 417 423 416 -1 423 417 409 -1 409 417 425 -1 409 425 319 -1 426 427 428 -1 427 426 329 -1 427 329 429 -1 429 330 430 -1 330 429 329 -1 421 385 386 -1 385 421 431 -1 422 431 421 -1 431 422 432 -1 423 432 422 -1 432 423 433 -1 409 433 423 -1 433 409 408 -1 431 384 385 -1 384 431 434 -1 432 434 431 -1 434 432 435 -1 433 435 432 -1 435 433 436 -1 408 436 433 -1 436 408 406 -1 434 381 384 -1 381 434 437 -1 435 437 434 -1 437 435 438 -1 438 436 439 -1 436 438 435 -1 406 439 436 -1 439 406 326 -1 439 326 420 -1 420 326 327 -1 437 379 381 -1 379 437 440 -1 438 440 437 -1 440 438 441 -1 441 439 442 -1 439 441 438 -1 420 442 439 -1 442 420 419 -1 443 379 440 -1 379 443 378 -1 444 440 441 -1 440 444 443 -1 444 442 445 -1 442 444 441 -1 419 445 442 -1 445 419 418 -1 446 378 443 -1 378 446 375 -1 447 443 444 -1 443 447 446 -1 447 445 448 -1 445 447 444 -1 418 448 445 -1 448 418 335 -1 335 418 363 -1 448 335 332 -1 449 375 446 -1 375 449 376 -1 450 446 447 -1 446 450 449 -1 451 447 448 -1 447 451 450 -1 332 451 448 -1 451 332 334 -1 452 376 449 -1 376 452 374 -1 453 449 450 -1 449 453 452 -1 451 453 450 -1 453 451 454 -1 333 451 334 -1 451 333 454 -1 452 377 374 -1 377 452 455 -1 453 455 452 -1 455 453 456 -1 457 453 454 -1 453 457 456 -1 428 336 426 -1 333 457 454 -1 457 333 336 -1 457 336 458 -1 458 336 428 -1 457 458 459 -1 311 317 312 -1 317 311 342 -1 455 380 377 -1 380 455 460 -1 456 460 455 -1 460 456 461 -1 462 456 457 -1 456 462 461 -1 459 462 457 -1 462 459 463 -1 460 382 380 -1 382 460 464 -1 461 464 460 -1 464 461 465 -1 466 461 462 -1 461 466 465 -1 463 466 462 -1 466 463 467 -1 464 383 382 -1 383 464 468 -1 465 468 464 -1 468 465 469 -1 470 465 466 -1 465 470 469 -1 430 328 471 -1 328 430 330 -1 467 470 466 -1 470 467 407 -1 407 467 471 -1 407 471 328 -1 472 315 310 -1 315 472 473 -1 315 473 405 -1 320 472 310 -1 472 320 424 -1 468 345 383 -1 345 468 343 -1 469 343 468 -1 343 469 347 -1 470 347 469 -1 347 470 349 -1 407 349 470 -1 349 407 351 -1 329 323 325 -1 323 336 338 -1 336 323 426 -1 426 323 329 -1 339 316 318 -1 316 339 357 -1 357 339 362 -1 362 339 368 -1 313 340 314 -1 340 313 341 -1 341 313 399 -1 341 399 373 -1 373 399 395 -1 340 311 314 -1 311 340 342 -1 474 424 425 -1 424 474 472 -1 425 475 474 -1 475 425 417 -1 475 417 413 -1 475 413 403 -1 475 403 404 -1 473 404 405 -1 404 473 475 -1 473 474 475 -1 474 473 472 -1 430 476 429 -1 476 430 471 -1 458 427 477 -1 427 458 428 -1 477 459 458 -1 459 477 463 -1 463 477 476 -1 463 476 467 -1 467 476 471 -1 429 477 427 -1 477 429 476 -1 "
						                >
							<Coordinate DEF="coords_ME_03-1-2_001"
							            point="14.819760 27.331934 23.429134 10.882752 31.268942 23.429134 10.882752 27.331934 23.429134 14.819760 31.268942 23.429134 9.701650 22.213823 23.429134 5.764642 36.387051 23.429134 5.764642 22.213823 23.429134 9.701650 36.387051 23.429134 5.764642 27.331934 25.003937 5.764642 22.213823 26.578741 5.764642 31.268942 25.003937 5.764642 31.268942 26.578741 5.764642 36.387051 26.578741 5.764642 27.331934 26.578741 9.701650 36.387051 26.578741 9.701650 31.268942 25.003937 9.701650 31.268942 26.578741 9.701650 27.331934 26.578741 9.701650 22.213823 26.578741 9.701650 27.331934 25.003937 0.646532 27.331934 26.578741 0.646532 22.213823 26.578741 3.430417 36.387051 26.578741 3.430417 36.387051 23.429134 0.646532 36.387051 23.429134 14.819760 36.387051 21.854330 0.646532 36.387051 21.854330 14.819760 36.387051 26.578741 0.646532 33.603168 26.578741 0.646532 31.268942 23.429134 0.646532 31.268942 26.578741 0.646532 22.213823 21.854330 0.646532 27.331934 23.429134 0.646532 33.603168 23.429134 12.035875 22.213823 26.578741 12.035875 22.213823 23.429134 14.819760 22.213823 23.429134 14.819760 22.213823 21.854330 13.244957 34.812248 18.704725 2.221335 23.788628 18.704725 2.221335 34.812248 18.704725 13.244957 23.788628 18.704725 13.990074 23.043510 20.976068 14.819760 34.812248 21.854330 13.990074 34.812248 20.976068 13.990074 35.557365 20.976068 13.449755 23.583830 19.895432 13.449755 34.812248 19.895432 13.449755 35.017048 19.895432 1.476218 23.043510 20.976068 2.016537 23.583830 19.895432 1.476218 35.557365 20.976068 2.016537 35.017048 19.895432 14.819760 31.268942 26.578741 14.819760 24.997709 23.429134 14.819760 24.997709 26.578741 14.819760 27.331934 26.578741 10.882752 27.331934 25.003937 10.882752 31.268942 25.003937 0.785726 33.463974 26.578741 3.569611 36.247856 26.578741 14.680566 25.136904 23.429134 11.896681 22.353018 23.429134 3.569611 36.247856 23.429134 0.785726 33.463974 23.429134 14.680566 25.136904 26.578741 11.896681 22.353018 26.578741 4.583539 31.268942 25.003937 4.583539 31.268942 23.429134 4.583539 27.331934 23.429134 4.583539 27.331934 25.003937 11.023623 5.118110 5.118110 9.448819 5.118110 3.937008 9.448819 5.118110 5.118110 7.874016 5.118110 0.297121 7.874016 5.118110 3.937008 11.023623 5.118110 0.297121 11.023623 13.876107 5.118110 9.448819 9.055119 5.118110 11.023623 9.055119 5.118110 7.874016 0.297121 5.118110 11.023623 0.297121 5.118110 7.874016 13.876107 5.118110 9.448819 5.118110 9.055119 9.448819 9.055119 10.236220 9.448819 5.118110 10.236220 9.448819 9.055119 9.055119 7.874016 0.297121 9.055119 11.023623 0.297121 9.055119 7.874016 13.876107 9.055119 11.023623 9.055119 9.055119 11.023623 13.876107 9.055119 11.023623 5.118110 9.055119 7.874016 5.252463 13.931758 7.874016 8.920765 13.931758 7.874016 7.086614 14.173228 7.874016 5.118110 13.876107 7.874016 9.055119 13.876107 7.874016 5.118110 10.236220 7.874016 9.055119 10.236220 11.023623 9.055119 0.297121 7.874016 9.055119 3.937008 7.874016 9.055119 0.297121 9.448819 9.055119 3.937008 4.340312 12.803223 7.086614 3.149606 12.410615 5.660052 3.149606 12.598425 7.086614 4.340312 12.608435 5.607047 5.420951 13.343542 7.086614 5.420951 13.130342 5.467202 6.299212 14.173228 7.086614 6.299212 13.931758 5.252463 7.874016 14.173228 7.086614 7.874016 13.931758 5.252463 3.149606 11.859982 4.330709 4.340312 12.037343 4.228310 5.420951 12.505273 3.958150 6.299212 13.223802 3.543307 11.023623 13.223802 3.543307 3.149606 10.984053 3.189175 4.340312 11.128867 3.044361 5.420951 11.510930 2.662298 6.299212 12.097607 2.075621 11.023623 12.097607 2.075621 11.023623 5.118110 13.876107 4.340312 9.944919 2.135886 3.149606 9.842520 2.313246 5.420951 10.215078 1.667956 6.299212 10.629921 0.949426 11.023623 10.629921 0.949426 4.340312 8.566181 1.564794 3.149606 8.513176 1.762614 5.420951 8.706026 1.042886 6.299212 8.920765 0.241471 7.874016 8.920765 0.241471 3.149606 8.513176 12.410615 3.149606 5.660052 12.410615 3.149606 7.086614 12.598425 3.149606 9.842520 11.859982 3.149606 4.330709 11.859982 3.149606 3.189175 10.984053 3.149606 10.984053 10.984053 3.149606 2.313246 9.842520 3.149606 11.859982 9.842520 3.149606 12.410615 8.513176 3.149606 1.762614 8.513176 3.149606 1.574803 7.086614 3.149606 1.762614 5.660052 3.149606 2.313246 4.330709 3.149606 3.189175 3.189175 3.149606 4.330709 2.313246 3.149606 5.660052 1.762614 3.149606 7.086614 1.574803 4.340312 7.086614 1.370005 5.420951 7.086614 0.829686 6.299212 7.086614 0.000000 7.874016 7.086614 0.000000 4.340312 5.607047 1.564794 5.420951 5.467202 1.042886 6.299212 5.252463 0.241471 7.874016 5.252463 0.241471 4.340312 4.228310 2.135886 5.420951 3.958150 1.667956 6.299212 3.543307 0.949426 7.874016 3.543307 0.949426 7.874016 3.677660 0.893775 11.023623 3.677660 0.893775 7.874016 0.241471 8.920765 7.874016 13.931758 8.920765 7.874016 0.000000 7.086614 7.874016 0.241471 5.252463 4.340312 3.044361 3.044361 5.420951 2.662298 2.662298 6.299212 2.075621 2.075621 7.874016 2.075621 2.075621 4.340312 2.135886 4.228310 5.420951 1.667956 3.958150 6.299212 0.949426 3.543307 7.874016 0.949426 3.543307 11.023623 3.543307 13.223802 11.023623 2.075621 12.097607 11.023623 0.949426 10.629921 4.340312 1.564794 5.607047 5.420951 1.042886 5.467202 6.299212 0.241471 5.252463 11.023623 0.893775 3.677660 7.874016 0.893775 3.677660 11.023623 9.055119 13.876107 11.023623 10.356374 13.140259 11.023623 10.495568 13.279453 11.023623 13.140259 10.356374 11.023623 13.279453 10.495568 4.340312 1.370005 7.086614 5.420951 0.829686 7.086614 6.299212 0.000000 7.086614 4.340312 1.564794 8.566181 5.420951 1.042886 8.706026 6.299212 0.241471 8.920765 4.340312 2.135886 9.944919 5.420951 1.667956 10.215078 6.299212 0.949426 10.629921 4.340312 3.044361 11.128867 5.420951 2.662298 11.510930 6.299212 2.075621 12.097607 4.340312 4.228310 12.037343 5.420951 3.958150 12.505273 6.299212 3.543307 13.223802 4.340312 5.607047 12.608435 5.420951 5.467202 13.130342 6.299212 5.252463 13.931758 4.340312 7.086614 12.803223 5.420951 7.086614 13.343542 6.299212 7.086614 14.173228 4.340312 8.566181 12.608435 5.420951 8.706026 13.130342 6.299212 8.920765 13.931758 4.340312 9.944919 12.037343 5.420951 10.215078 12.505273 6.299212 10.629921 13.223802 7.874016 10.495568 13.279453 7.874016 10.629921 13.223802 4.340312 11.128867 11.128867 5.420951 11.510930 11.510930 6.299212 12.097607 12.097607 7.874016 12.097607 12.097607 4.340312 12.037343 9.944919 5.420951 12.505273 10.215078 6.299212 13.223802 10.629921 7.874016 13.223802 10.629921 4.340312 12.608435 8.566181 5.420951 13.130342 8.706026 6.299212 13.931758 8.920765 7.874016 13.279453 10.495568 11.023623 1.032970 3.816854 11.023623 3.816854 1.032970 7.874016 1.032970 3.816854 7.874016 3.816854 1.032970 7.874016 13.140259 10.356374 7.874016 10.356374 13.140259 8.520548 27.331934 0.000000 8.520548 31.268942 3.937008 8.520548 27.331934 3.937008 8.520548 31.268942 0.000000 8.520548 22.213823 5.118110 8.520548 36.387051 9.055119 8.520548 22.213823 9.055119 8.520548 36.387051 5.118110 10.095350 27.331934 9.055119 11.670154 22.213823 9.055119 10.095350 31.268942 9.055119 11.670154 31.268942 9.055119 11.670154 36.387051 9.055119 11.670154 27.331934 9.055119 11.670154 36.387051 5.118110 10.095350 31.268942 5.118110 11.670154 31.268942 5.118110 11.670154 27.331934 5.118110 11.670154 22.213823 5.118110 10.095350 27.331934 5.118110 11.670154 27.331934 14.173228 11.670154 22.213823 14.173228 11.670154 36.387051 11.389343 8.520548 36.387051 11.389343 8.520548 36.387051 14.173228 6.945745 36.387051 0.000000 6.945745 36.387051 14.173228 11.670154 36.387051 0.000000 11.670154 33.603168 14.173228 8.520548 31.268942 14.173228 11.670154 31.268942 14.173228 6.945745 22.213823 14.173228 8.520548 27.331934 14.173228 8.520548 33.603168 14.173228 11.670154 22.213823 2.783885 8.520548 22.213823 2.783885 8.520548 22.213823 0.000000 6.945745 22.213823 0.000000 3.796138 34.812248 1.574803 3.796138 23.788628 12.598425 3.796138 34.812248 12.598425 3.796138 23.788628 1.574803 6.067482 23.043510 0.829686 6.945745 34.812248 0.000000 6.067482 34.812248 0.829686 6.067482 35.557365 0.829686 4.986845 23.583830 1.370005 4.986845 34.812248 1.370005 4.986845 35.017048 1.370005 6.067482 23.043510 13.343542 4.986845 23.583830 12.803223 6.067482 35.557365 13.343542 4.986845 35.017048 12.803223 11.670154 31.268942 0.000000 8.520548 24.997709 0.000000 11.670154 24.997709 0.000000 11.670154 27.331934 0.000000 10.095350 27.331934 3.937008 10.095350 31.268942 3.937008 11.670154 33.463974 14.034034 11.670154 36.247856 11.250149 8.520548 25.136904 0.139194 8.520548 22.353018 2.923079 8.520548 36.247856 11.250149 8.520548 33.463974 14.034034 11.670154 25.136904 0.139194 11.670154 22.353018 2.923079 10.095350 31.268942 10.236220 8.520548 31.268942 10.236220 8.520548 27.331934 10.236220 10.095350 27.331934 10.236220 9.055119 5.118110 26.578741 10.236220 5.118110 25.003937 9.055119 5.118110 25.003937 13.876107 5.118110 23.429134 10.236220 5.118110 23.429134 13.876107 5.118110 26.578741 9.055119 13.876107 26.578741 9.055119 9.055119 25.003937 9.055119 9.055119 26.578741 9.055119 0.297121 23.429134 9.055119 0.297121 26.578741 9.055119 13.876107 23.429134 5.118110 5.118110 25.003937 3.937008 9.055119 25.003937 3.937008 5.118110 25.003937 5.118110 9.055119 25.003937 5.118110 0.297121 23.429134 5.118110 0.297121 26.578741 5.118110 13.876107 23.429134 5.118110 9.055119 26.578741 5.118110 13.876107 26.578741 5.118110 5.118110 26.578741 0.241471 5.252463 23.429134 0.241471 8.920765 23.429134 0.000000 7.086614 23.429134 0.297121 5.118110 23.429134 0.297121 9.055119 23.429134 3.937008 5.118110 23.429134 3.937008 9.055119 23.429134 13.876107 9.055119 26.578741 10.236220 9.055119 23.429134 13.876107 9.055119 23.429134 10.236220 9.055119 25.003937 7.086614 12.803223 19.895432 8.513176 12.410615 18.704725 7.086614 12.598425 18.704725 8.566181 12.608435 19.895432 7.086614 13.343542 20.976068 8.706026 13.130342 20.976068 7.086614 14.173228 21.854330 8.920765 13.931758 21.854330 7.086614 14.173228 23.429134 8.920765 13.931758 23.429134 9.842520 11.859982 18.704725 9.944919 12.037343 19.895432 10.215078 12.505273 20.976068 10.629921 13.223802 21.854330 10.629921 13.223802 26.578741 10.984053 10.984053 18.704725 11.128867 11.128867 19.895432 11.510930 11.510930 20.976068 12.097607 12.097607 21.854330 12.097607 12.097607 26.578741 0.297121 5.118110 26.578741 12.037343 9.944919 19.895432 11.859982 9.842520 18.704725 12.505273 10.215078 20.976068 13.223802 10.629921 21.854330 13.223802 10.629921 26.578741 12.608435 8.566181 19.895432 12.410615 8.513176 18.704725 13.130342 8.706026 20.976068 13.931758 8.920765 21.854330 13.931758 8.920765 23.429134 1.762614 8.513176 18.704725 1.762614 5.660052 18.704725 1.574803 7.086614 18.704725 2.313246 9.842520 18.704725 2.313246 4.330709 18.704725 3.189175 3.189175 18.704725 3.189175 10.984053 18.704725 4.330709 2.313246 18.704725 4.330709 11.859982 18.704725 5.660052 12.410615 18.704725 5.660052 1.762614 18.704725 7.086614 1.574803 18.704725 8.513176 1.762614 18.704725 9.842520 2.313246 18.704725 10.984053 3.189175 18.704725 11.859982 4.330709 18.704725 12.410615 5.660052 18.704725 12.598425 7.086614 18.704725 12.803223 7.086614 19.895432 13.343542 7.086614 20.976068 14.173228 7.086614 21.854330 14.173228 7.086614 23.429134 12.608435 5.607047 19.895432 13.130342 5.467202 20.976068 13.931758 5.252463 21.854330 13.931758 5.252463 23.429134 12.037343 4.228310 19.895432 12.505273 3.958150 20.976068 13.223802 3.543307 21.854330 13.223802 3.543307 23.429134 13.279453 3.677660 23.429134 13.279453 3.677660 26.578741 5.252463 0.241471 23.429134 5.252463 13.931758 23.429134 7.086614 0.000000 23.429134 8.920765 0.241471 23.429134 11.128867 3.044361 19.895432 11.510930 2.662298 20.976068 12.097607 2.075621 21.854330 12.097607 2.075621 23.429134 9.944919 2.135886 19.895432 10.215078 1.667956 20.976068 10.629921 0.949426 21.854330 10.629921 0.949426 23.429134 0.949426 3.543307 26.578741 2.075621 2.075621 26.578741 3.543307 0.949426 26.578741 8.566181 1.564794 19.895432 8.706026 1.042886 20.976068 8.920765 0.241471 21.854330 10.495568 0.893775 26.578741 10.495568 0.893775 23.429134 0.297121 9.055119 26.578741 1.032970 10.356374 26.578741 0.893775 10.495568 26.578741 3.816854 13.140259 26.578741 3.677660 13.279453 26.578741 7.086614 1.370005 19.895432 7.086614 0.829686 20.976068 7.086614 0.000000 21.854330 5.607047 1.564794 19.895432 5.467202 1.042886 20.976068 5.252463 0.241471 21.854330 4.228310 2.135886 19.895432 3.958150 1.667956 20.976068 3.543307 0.949426 21.854330 3.044361 3.044361 19.895432 2.662298 2.662298 20.976068 2.075621 2.075621 21.854330 2.135886 4.228310 19.895432 1.667956 3.958150 20.976068 0.949426 3.543307 21.854330 1.564794 5.607047 19.895432 1.042886 5.467202 20.976068 0.241471 5.252463 21.854330 1.370005 7.086614 19.895432 0.829686 7.086614 20.976068 0.000000 7.086614 21.854330 1.564794 8.566181 19.895432 1.042886 8.706026 20.976068 0.241471 8.920765 21.854330 2.135886 9.944919 19.895432 1.667956 10.215078 20.976068 0.949426 10.629921 21.854330 0.893775 10.495568 23.429134 0.949426 10.629921 23.429134 3.044361 11.128867 19.895432 2.662298 11.510930 20.976068 2.075621 12.097607 21.854330 2.075621 12.097607 23.429134 4.228310 12.037343 19.895432 3.958150 12.505273 20.976068 3.543307 13.223802 21.854330 3.543307 13.223802 23.429134 5.607047 12.608435 19.895432 5.467202 13.130342 20.976068 5.252463 13.931758 21.854330 3.677660 13.279453 23.429134 10.356374 1.032970 26.578741 13.140259 3.816854 26.578741 10.356374 1.032970 23.429134 13.140259 3.816854 23.429134 3.816854 13.140259 23.429134 1.032970 10.356374 23.429134 "
							            />
						</IndexedFaceSet>
					</Shape>
				</Group>
			</Transform>
		</Transform>
	</Scene>
</X3D>