<?xml version="1.0" encoding="UTF-8"?>
<!DOCTYPE X3D PUBLIC "ISO//Web3D//DTD X3D 3.0//EN" "http://www.web3d.org/specifications/x3d-3.0.dtd">
<X3D version="3.0" profile="Immersive" xmlns:xsd="http://www.w3.org/2001/XMLSchema-instance" xsd:noNamespaceSchemaLocation="http://www.web3d.org/specifications/x3d-3.0.xsd">
	<head>
		<meta name="filename" content="03-2-4.x3d" />
		<meta name="created" content="2026-06-21 15:09:37" />
		<meta name="generator" content="Blender 4.5.4 LTS" />
		<meta name="translator" content="Web3D X3D/VRML2 format v2.5.1" />
	</head>
	<Scene>
		<NavigationInfo headlight="true"
		                visibilityLimit="0.0"
		                type='"EXAMINE", "ANY"'
		                avatarSize="0.25, 1.75, 0.75"
		                />
		<Background DEF="WO_World"
		            groundColor="0.051 0.051 0.051"
		            skyColor="0.051 0.051 0.051"
		            />
		<Transform DEF="_03-2-4_TRANSFORM"
		           translation="0.000000 0.000000 0.000000"
		           scale="1.000000 1.000000 1.000000"
		           rotation="0.000000 0.707107 0.707107 3.141593"
		           >
			<Transform DEF="_03-2-4_ifs_TRANSFORM"
			           translation="0.000000 0.000000 0.000000"
			           scale="1.000000 1.000000 1.000000"
			           rotation="0.000000 1.000000 0.000000 0.000000"
			           >
				<Group DEF="group_ME_03-2-4_001">
					<Shape>
						<Appearance>
						</Appearance>
						<IndexedFaceSet solid="false"
						                coordIndex="0 1 2 -1 2 3 0 -1 2 4 3 -1 5 2 1 -1 6 7 3 -1 3 4 6 -1 8 9 10 -1 10 11 8 -1 12 13 14 -1 14 15 12 -1 15 16 12 -1 16 17 12 -1 17 18 12 -1 17 7 18 -1 17 3 7 -1 17 9 3 -1 17 10 9 -1 19 20 21 -1 21 22 19 -1 19 23 24 -1 24 16 19 -1 24 17 16 -1 25 24 23 -1 26 27 28 -1 28 29 26 -1 29 2 26 -1 2 5 26 -1 13 12 30 -1 30 31 13 -1 6 29 28 -1 28 7 6 -1 32 33 31 -1 31 30 32 -1 30 34 32 -1 30 35 34 -1 35 22 21 -1 21 34 35 -1 36 37 14 -1 14 31 36 -1 14 13 31 -1 2 29 6 -1 6 4 2 -1 38 39 8 -1 8 11 38 -1 24 40 10 -1 10 17 24 -1 10 40 38 -1 38 11 10 -1 19 22 41 -1 41 23 19 -1 41 42 23 -1 22 43 0 -1 0 41 22 -1 43 1 0 -1 41 0 3 -1 3 9 41 -1 34 21 44 -1 44 32 34 -1 1 43 26 -1 26 5 1 -1 28 27 18 -1 18 7 28 -1 32 44 45 -1 45 33 32 -1 18 27 30 -1 30 12 18 -1 26 43 22 -1 22 27 26 -1 22 35 27 -1 35 30 27 -1 46 42 41 -1 41 39 46 -1 41 9 39 -1 9 8 39 -1 37 36 45 -1 45 44 37 -1 46 39 38 -1 38 40 24 -1 24 25 38 -1 25 46 38 -1 20 37 44 -1 44 21 20 -1 37 20 15 -1 15 14 37 -1 23 42 46 -1 46 25 23 -1 20 19 16 -1 16 15 20 -1 31 33 45 -1 45 36 31 -1 47 48 49 -1 48 47 50 -1 50 47 51 -1 51 47 52 -1 53 54 55 -1 54 53 56 -1 57 58 59 -1 58 57 60 -1 57 61 62 -1 61 57 63 -1 61 63 49 -1 49 63 47 -1 47 63 64 -1 64 63 65 -1 66 62 61 -1 67 53 55 -1 53 67 68 -1 69 70 65 -1 70 69 71 -1 70 71 72 -1 65 73 64 -1 73 65 70 -1 64 73 74 -1 75 56 54 -1 56 75 76 -1 76 75 77 -1 76 77 78 -1 79 71 80 -1 71 79 72 -1 81 82 83 -1 82 81 84 -1 84 81 85 -1 85 81 86 -1 56 87 76 -1 87 56 88 -1 89 82 84 -1 82 89 90 -1 91 88 92 -1 88 91 87 -1 87 91 93 -1 87 93 94 -1 94 58 60 -1 58 94 93 -1 95 96 97 -1 96 95 88 -1 96 88 56 -1 96 56 53 -1 96 53 68 -1 85 89 84 -1 89 85 98 -1 99 51 100 -1 51 99 50 -1 61 48 101 -1 48 61 49 -1 79 89 98 -1 89 102 90 -1 102 89 80 -1 80 89 79 -1 48 99 101 -1 99 48 50 -1 57 103 60 -1 103 57 62 -1 103 62 104 -1 60 105 106 -1 105 60 103 -1 106 105 107 -1 103 70 105 -1 70 103 73 -1 93 108 58 -1 108 93 91 -1 47 74 52 -1 74 47 64 -1 107 81 106 -1 81 107 86 -1 82 102 83 -1 102 82 90 -1 91 109 108 -1 109 91 92 -1 71 102 80 -1 102 71 69 -1 102 87 83 -1 87 102 76 -1 76 102 78 -1 78 102 69 -1 81 60 106 -1 60 81 83 -1 60 83 94 -1 94 83 87 -1 74 51 52 -1 110 103 104 -1 103 110 100 -1 103 100 73 -1 73 100 51 -1 73 51 74 -1 97 109 95 -1 109 97 108 -1 111 68 67 -1 68 111 112 -1 105 85 107 -1 85 105 70 -1 85 70 98 -1 98 70 79 -1 79 70 72 -1 86 107 85 -1 110 99 100 -1 99 61 101 -1 61 99 66 -1 66 99 110 -1 69 112 111 -1 112 69 65 -1 59 108 97 -1 108 59 58 -1 97 113 59 -1 113 97 96 -1 113 96 68 -1 113 68 112 -1 62 110 104 -1 110 62 66 -1 59 63 57 -1 63 59 113 -1 63 113 112 -1 63 112 65 -1 88 109 92 -1 109 88 95 -1 69 77 78 -1 77 69 111 -1 77 67 75 -1 67 77 111 -1 67 54 75 -1 54 67 55 -1 "
						                >
							<Coordinate DEF="coords_ME_03-2-4_001"
							            point="7.070184 5.137209 4.151819 7.070184 5.137209 5.726622 5.495381 5.137209 4.939220 3.526877 5.137209 4.151819 3.526877 5.137209 4.939220 5.495381 5.137209 5.726622 3.526877 5.727760 4.939220 3.526877 5.727760 4.151819 3.526877 1.200201 4.939220 3.526877 1.200201 4.151819 3.526877 0.609650 4.151819 3.526877 0.609650 4.939220 3.526877 6.318311 3.945946 3.526877 0.806500 1.789614 3.526877 0.704101 2.384967 3.526877 0.433942 2.925286 3.526877 0.019099 3.364417 3.526877 0.019099 4.151819 3.526877 6.318311 4.151819 7.070184 0.019099 3.364417 6.655341 0.433942 2.925286 6.655341 5.903468 2.925286 7.070184 6.318311 3.364417 7.070184 0.019099 5.726622 5.495381 0.019099 4.151819 5.495381 0.019099 5.726622 5.495381 6.318311 5.726622 5.495381 6.318311 4.151819 5.495381 5.727760 4.151819 5.495381 5.727760 4.939220 4.707979 6.318311 3.945946 4.707979 0.806500 1.789614 4.707979 5.633308 2.384967 4.707979 5.530910 1.789614 4.707979 5.903468 2.925286 4.707979 6.318311 3.364417 6.282783 0.806500 1.789614 6.385181 0.704101 2.384967 5.495381 0.609650 4.939220 5.495381 1.200201 4.939220 5.495381 0.609650 4.151819 7.070184 1.200201 4.151819 7.070184 1.200201 5.726622 7.070184 6.318311 5.726622 6.385181 5.633308 2.384967 6.282783 5.530910 1.789614 5.495381 1.200201 5.726622 6.676483 15.137209 5.726622 6.085932 15.137209 4.151819 6.676483 15.137209 4.151819 6.085932 15.137209 4.939220 5.495381 15.137209 4.939220 5.495381 15.137209 5.726622 5.889082 15.924610 1.789614 1.164672 14.349808 1.789614 1.164672 15.924610 1.789614 5.889082 14.349808 1.789614 6.676483 9.625398 3.364417 0.792114 10.040241 2.925286 6.261640 10.040241 2.925286 0.377271 9.625398 3.364417 6.676483 11.200201 4.151819 6.676483 9.625398 5.726622 6.676483 15.924610 3.364417 6.676483 16.712011 5.726622 6.676483 16.712011 3.364417 6.676483 11.200201 5.726622 1.062274 16.027010 2.384967 5.991481 16.027010 2.384967 0.377271 16.712011 3.364417 1.558373 16.712011 4.151819 0.377271 16.712011 5.726622 1.558373 16.712011 5.726622 5.495381 16.712011 4.151819 5.495381 16.712011 5.726622 1.062274 14.349808 2.384967 0.377271 14.349808 3.945946 0.792114 14.349808 2.925286 0.377271 14.349808 3.364417 1.558373 15.137209 5.726622 0.377271 15.137209 5.726622 0.377271 11.200201 5.726622 0.967822 11.200201 4.151819 0.377271 11.200201 4.151819 0.967822 11.200201 4.939220 1.558373 11.200201 4.939220 1.558373 11.200201 5.726622 0.377271 11.987602 3.945946 5.889082 11.987602 1.789614 0.967822 15.137209 4.939220 0.967822 15.137209 4.151819 1.062274 11.987602 2.384967 1.164672 11.987602 1.789614 0.792114 11.987602 2.925286 0.377271 11.987602 3.364417 5.889082 10.412800 1.789614 5.991481 15.924610 2.384967 5.991481 10.310401 2.384967 1.558373 15.137209 4.939220 6.085932 11.200201 4.939220 5.495381 11.200201 4.939220 6.085932 11.200201 4.151819 0.377271 15.137209 4.151819 5.495381 9.625398 4.151819 5.495381 9.625398 5.726622 1.558373 9.625398 4.151819 0.377271 9.625398 5.726622 1.558373 9.625398 5.726622 1.062274 10.310401 2.384967 1.164672 10.412800 1.789614 5.495381 11.200201 5.726622 0.792114 16.297169 2.925286 6.261640 16.297169 2.925286 6.261640 15.924610 2.925286 "
							            />
						</IndexedFaceSet>
					</Shape>
				</Group>
			</Transform>
		</Transform>
	</Scene>
</X3D>