<?xml version="1.0" encoding="UTF-8"?>
<!DOCTYPE X3D PUBLIC "ISO//Web3D//DTD X3D 3.0//EN" "http://www.web3d.org/specifications/x3d-3.0.dtd">
<X3D version="3.0" profile="Immersive" xmlns:xsd="http://www.w3.org/2001/XMLSchema-instance" xsd:noNamespaceSchemaLocation="http://www.web3d.org/specifications/x3d-3.0.xsd">
	<head>
		<meta name="filename" content="03-2-1.x3d" />
		<meta name="created" content="2026-06-21 15:09:37" />
		<meta name="generator" content="Blender 4.5.4 LTS" />
		<meta name="translator" content="Web3D X3D/VRML2 format v2.5.1" />
	</head>
	<Scene>
		<NavigationInfo headlight="true"
		                visibilityLimit="0.0"
		                type='"EXAMINE", "ANY"'
		                avatarSize="0.25, 1.75, 0.75"
		                />
		<Background DEF="WO_World"
		            groundColor="0.051 0.051 0.051"
		            skyColor="0.051 0.051 0.051"
		            />
		<Transform DEF="_03-2-1_TRANSFORM"
		           translation="0.000000 0.000000 0.000000"
		           scale="1.000000 1.000000 1.000000"
		           rotation="0.000000 0.707107 0.707107 3.141593"
		           >
			<Transform DEF="_03-2-1_ifs_TRANSFORM"
			           translation="0.000000 0.000000 0.000000"
			           scale="1.000000 1.000000 1.000000"
			           rotation="0.000000 1.000000 0.000000 0.000000"
			           >
				<Group DEF="group_ME_03-2-1_001">
					<Shape>
						<Appearance>
						</Appearance>
						<IndexedFaceSet solid="false"
						                coordIndex="0 1 2 -1 1 0 3 -1 1 3 4 -1 5 4 6 -1 4 5 7 -1 4 7 1 -1 8 9 10 -1 9 8 11 -1 3 12 4 -1 12 3 13 -1 14 15 16 -1 15 14 17 -1 15 17 18 -1 18 17 19 -1 15 2 16 -1 2 15 0 -1 15 3 0 -1 3 15 18 -1 3 18 20 -1 20 18 21 -1 13 10 12 -1 10 13 8 -1 22 8 13 -1 8 22 23 -1 24 6 25 -1 6 24 5 -1 26 14 27 -1 14 26 17 -1 26 19 17 -1 19 26 28 -1 25 29 24 -1 29 25 30 -1 29 30 31 -1 32 24 29 -1 4 25 6 -1 25 4 30 -1 30 4 33 -1 30 33 34 -1 9 35 10 -1 35 9 36 -1 11 36 9 -1 36 11 37 -1 21 19 28 -1 19 21 18 -1 33 38 34 -1 38 33 39 -1 39 33 40 -1 40 33 28 -1 28 33 21 -1 21 33 20 -1 20 33 41 -1 20 41 22 -1 22 41 35 -1 22 35 23 -1 23 35 36 -1 23 36 37 -1 40 26 27 -1 26 40 28 -1 38 42 43 -1 42 38 39 -1 31 43 29 -1 43 31 38 -1 12 33 4 -1 33 12 41 -1 10 41 12 -1 41 10 35 -1 20 13 3 -1 13 20 22 -1 42 29 43 -1 29 42 32 -1 1 16 2 -1 16 1 14 -1 14 1 40 -1 14 40 27 -1 24 7 5 -1 7 24 32 -1 7 32 39 -1 39 32 42 -1 38 30 34 -1 30 38 31 -1 23 11 8 -1 11 23 37 -1 40 7 39 -1 7 40 1 -1 44 45 46 -1 45 44 47 -1 45 47 48 -1 48 47 49 -1 49 47 50 -1 51 46 45 -1 46 52 53 -1 52 46 51 -1 54 55 56 -1 55 57 58 -1 57 55 59 -1 59 55 54 -1 60 61 62 -1 61 60 63 -1 64 54 65 -1 54 64 59 -1 66 67 68 -1 67 66 69 -1 68 70 71 -1 70 68 67 -1 72 73 74 -1 73 72 75 -1 73 75 70 -1 73 70 67 -1 72 76 77 -1 76 72 78 -1 74 78 72 -1 78 74 79 -1 74 80 81 -1 80 74 73 -1 80 73 67 -1 80 67 69 -1 71 76 78 -1 76 71 82 -1 83 61 84 -1 61 83 66 -1 52 85 53 -1 85 52 62 -1 85 62 66 -1 66 62 61 -1 86 87 88 -1 87 86 89 -1 87 90 88 -1 54 91 65 -1 91 54 56 -1 91 56 92 -1 92 56 90 -1 92 90 87 -1 68 78 79 -1 78 68 71 -1 71 93 82 -1 93 71 70 -1 91 47 44 -1 47 91 92 -1 81 79 74 -1 79 81 85 -1 93 76 82 -1 76 93 77 -1 66 79 85 -1 79 66 68 -1 94 55 58 -1 55 94 95 -1 49 83 84 -1 83 49 50 -1 57 94 58 -1 94 57 96 -1 81 91 85 -1 91 81 64 -1 91 64 65 -1 85 44 53 -1 44 85 91 -1 53 44 46 -1 80 57 81 -1 57 80 96 -1 96 80 86 -1 86 80 89 -1 89 80 69 -1 81 59 64 -1 59 81 57 -1 66 47 69 -1 47 66 83 -1 47 83 50 -1 69 92 89 -1 92 69 47 -1 89 92 87 -1 77 75 72 -1 75 77 93 -1 75 93 70 -1 52 60 62 -1 60 52 97 -1 97 52 45 -1 45 52 51 -1 55 90 56 -1 90 55 95 -1 98 60 97 -1 60 98 63 -1 49 98 48 -1 98 61 63 -1 61 98 84 -1 84 98 49 -1 45 98 97 -1 98 45 48 -1 86 94 96 -1 94 86 95 -1 95 86 90 -1 90 86 88 -1 99 100 101 -1 100 99 102 -1 100 102 103 -1 103 102 104 -1 104 102 105 -1 106 101 100 -1 101 107 108 -1 107 101 106 -1 109 110 111 -1 110 112 113 -1 112 110 114 -1 114 110 109 -1 115 116 117 -1 116 115 118 -1 119 109 120 -1 109 119 114 -1 121 122 123 -1 122 121 124 -1 123 125 126 -1 125 123 122 -1 127 128 129 -1 128 127 130 -1 128 130 125 -1 128 125 122 -1 127 131 132 -1 131 127 133 -1 129 133 127 -1 133 129 134 -1 129 135 136 -1 135 129 128 -1 135 128 122 -1 135 122 124 -1 126 131 133 -1 131 126 137 -1 138 116 139 -1 116 138 121 -1 107 140 108 -1 140 107 117 -1 140 117 121 -1 121 117 116 -1 141 142 143 -1 142 141 144 -1 142 145 143 -1 109 146 120 -1 146 109 111 -1 146 111 147 -1 147 111 145 -1 147 145 142 -1 123 133 134 -1 133 123 126 -1 126 148 137 -1 148 126 125 -1 146 102 99 -1 102 146 147 -1 136 134 129 -1 134 136 140 -1 148 131 137 -1 131 148 132 -1 121 134 140 -1 134 121 123 -1 149 110 113 -1 110 149 150 -1 104 138 139 -1 138 104 105 -1 112 149 113 -1 149 112 151 -1 136 146 140 -1 146 136 119 -1 146 119 120 -1 140 99 108 -1 99 140 146 -1 108 99 101 -1 135 112 136 -1 112 135 151 -1 151 135 141 -1 141 135 144 -1 144 135 124 -1 136 114 119 -1 114 136 112 -1 121 102 124 -1 102 121 138 -1 102 138 105 -1 124 147 144 -1 147 124 102 -1 144 147 142 -1 132 130 127 -1 130 132 148 -1 130 148 125 -1 107 115 117 -1 115 107 152 -1 152 107 100 -1 100 107 106 -1 110 145 111 -1 145 110 150 -1 153 115 152 -1 115 153 118 -1 104 153 103 -1 153 116 118 -1 116 153 139 -1 139 153 104 -1 100 153 152 -1 153 100 103 -1 141 149 151 -1 149 141 150 -1 150 141 145 -1 145 141 143 -1 154 155 156 -1 155 154 157 -1 155 157 158 -1 158 157 159 -1 159 157 160 -1 161 156 155 -1 156 162 163 -1 162 156 161 -1 164 165 166 -1 165 167 168 -1 167 165 169 -1 169 165 164 -1 170 171 172 -1 171 170 173 -1 174 164 175 -1 164 174 169 -1 176 177 178 -1 177 176 179 -1 178 180 181 -1 180 178 177 -1 182 183 184 -1 183 182 185 -1 183 185 180 -1 183 180 177 -1 182 186 187 -1 186 182 188 -1 184 188 182 -1 188 184 189 -1 184 190 191 -1 190 184 183 -1 190 183 177 -1 190 177 179 -1 181 186 188 -1 186 181 192 -1 193 171 194 -1 171 193 176 -1 162 195 163 -1 195 162 172 -1 195 172 176 -1 176 172 171 -1 196 197 198 -1 197 196 199 -1 197 200 198 -1 164 201 175 -1 201 164 166 -1 201 166 202 -1 202 166 200 -1 202 200 197 -1 178 188 189 -1 188 178 181 -1 181 203 192 -1 203 181 180 -1 201 157 154 -1 157 201 202 -1 191 189 184 -1 189 191 195 -1 203 186 192 -1 186 203 187 -1 176 189 195 -1 189 176 178 -1 204 165 168 -1 165 204 205 -1 159 193 194 -1 193 159 160 -1 167 204 168 -1 204 167 206 -1 191 201 195 -1 201 191 174 -1 201 174 175 -1 195 154 163 -1 154 195 201 -1 163 154 156 -1 190 167 191 -1 167 190 206 -1 206 190 196 -1 196 190 199 -1 199 190 179 -1 191 169 174 -1 169 191 167 -1 176 157 179 -1 157 176 193 -1 157 193 160 -1 179 202 199 -1 202 179 157 -1 199 202 197 -1 187 185 182 -1 185 187 203 -1 185 203 180 -1 162 170 172 -1 170 162 207 -1 207 162 155 -1 155 162 161 -1 165 200 166 -1 200 165 205 -1 208 170 207 -1 170 208 173 -1 159 208 158 -1 208 171 173 -1 171 208 194 -1 194 208 159 -1 155 208 207 -1 208 155 158 -1 196 204 206 -1 204 196 205 -1 205 196 200 -1 200 196 198 -1 "
						                >
							<Coordinate DEF="coords_ME_03-2-1_001"
							            point="0.000000 20.924423 5.861130 0.000000 19.743320 4.286327 0.000000 19.743320 5.861130 0.000000 20.924423 3.498925 0.000000 14.625210 3.498925 0.000000 15.806313 5.861130 0.000000 14.625210 5.861130 0.000000 15.806313 4.286327 0.685003 20.239420 2.519475 0.787402 15.412612 1.924122 0.685003 15.310213 2.519475 0.787402 20.137022 1.924122 0.414843 15.040053 3.059794 0.414843 20.509579 3.059794 1.574803 19.743320 5.073728 1.574803 20.924423 5.861130 1.574803 19.743320 5.861130 1.574803 20.333872 5.073728 1.574803 20.924423 4.286327 1.574803 20.333872 4.286327 3.543307 20.924423 3.498925 3.543307 20.924423 4.286327 3.543307 20.509579 3.059794 3.543307 20.239420 2.519475 1.574803 15.806313 5.861130 1.574803 14.625210 5.861130 3.543307 20.333872 5.073728 3.543307 19.743320 5.073728 3.543307 20.333872 4.286327 1.574803 15.215761 5.073728 1.574803 14.625210 4.286327 1.574803 15.215761 4.286327 1.574803 15.806313 5.073728 3.543307 14.625210 3.498925 3.543307 14.625210 4.286327 3.543307 15.310213 2.519475 3.543307 15.412612 1.924122 3.543307 20.137022 1.924122 3.543307 15.215761 4.286327 3.543307 15.806313 4.286327 3.543307 19.743320 4.286327 3.543307 15.040053 3.059794 3.543307 15.806313 5.073728 3.543307 15.215761 5.073728 1.574803 0.000000 12.854331 1.574803 1.574803 13.641732 1.574803 0.000000 14.429133 1.574803 7.086614 12.854331 1.574803 5.511811 13.641732 1.574803 5.511811 14.429133 1.574803 7.086614 14.429133 1.574803 1.574803 14.429133 0.393701 1.574803 14.429133 0.393701 0.000000 14.429133 5.511811 1.574803 14.429133 6.102362 1.574803 13.641732 5.511811 1.574803 13.641732 6.692914 1.574803 12.854331 6.102362 1.574803 12.854331 6.692914 1.574803 14.429133 0.984252 1.574803 12.854331 0.393701 5.511811 12.854331 0.393701 1.574803 12.854331 0.984252 5.511811 12.854331 6.692914 0.000000 14.429133 5.511811 0.000000 14.429133 0.393701 7.086614 12.066929 6.278070 6.671771 11.627798 0.808544 6.671771 11.627798 6.692914 7.086614 12.066929 6.007911 6.401611 11.087479 1.078704 6.401611 11.087479 6.007911 0.685003 11.087479 6.278070 6.299212 11.627798 6.278070 0.414843 11.627798 6.007911 6.299212 11.087479 1.181102 0.787402 10.492126 5.905512 0.787402 10.492126 1.078704 0.685003 11.087479 0.808544 0.414843 11.627798 6.692914 6.299212 12.066929 6.692914 0.000000 12.066929 1.181102 6.299212 10.492126 0.393701 7.086614 14.429133 0.393701 5.511811 14.429133 0.393701 0.000000 12.066929 6.692914 5.511811 14.429133 5.511811 7.086614 14.429133 5.511811 5.511811 14.429133 6.692914 7.086614 14.429133 5.511811 5.511811 13.641732 5.511811 0.000000 12.854331 5.511811 7.086614 12.854331 5.905512 6.299212 10.492126 6.102362 5.511811 12.854331 6.102362 5.511811 13.641732 6.692914 5.511811 12.854331 0.984252 1.574803 13.641732 0.984252 5.511811 13.641732 3.937008 0.000000 5.118110 4.724410 1.574803 5.118110 5.511811 0.000000 5.118110 3.937008 7.086614 5.118110 4.724410 5.511811 5.118110 5.511811 5.511811 5.118110 5.511811 7.086614 5.118110 5.511811 1.574803 5.118110 5.511811 1.574803 6.299212 5.511811 0.000000 6.299212 5.511811 1.574803 1.181102 4.724410 1.574803 0.590551 4.724410 1.574803 1.181102 3.937008 1.574803 0.000000 3.937008 1.574803 0.590551 5.511811 1.574803 0.000000 3.937008 1.574803 5.708662 3.937008 5.511811 6.299212 3.937008 1.574803 6.299212 3.937008 5.511811 5.708662 5.511811 0.000000 0.000000 5.511811 0.000000 1.181102 3.149606 7.086614 6.299212 2.710475 6.671771 0.414843 2.710475 6.671771 5.884369 3.149606 7.086614 0.000000 2.170156 6.401611 0.685003 2.170156 6.401611 5.614210 2.170156 0.685003 0.685003 2.710475 6.299212 0.414843 2.710475 0.414843 0.414843 2.170156 6.299212 0.685003 1.574803 0.787402 5.511811 1.574803 0.787402 0.787402 2.170156 0.685003 5.614210 2.710475 0.414843 5.884369 3.149606 6.299212 0.000000 3.149606 0.000000 0.000000 1.574803 6.299212 5.511811 5.511811 7.086614 6.299212 5.511811 5.511811 6.299212 3.149606 0.000000 6.299212 5.511811 5.511811 0.000000 5.511811 7.086614 1.181102 5.511811 5.511811 1.181102 5.511811 7.086614 0.000000 4.724410 5.511811 1.181102 3.937008 0.000000 1.181102 3.937008 7.086614 1.181102 1.574803 6.299212 0.787402 3.937008 5.511811 0.590551 4.724410 5.511811 0.590551 3.937008 5.511811 0.000000 4.724410 1.574803 5.708662 4.724410 5.511811 5.708662 0.000000 19.413385 12.854331 1.574803 19.413385 13.641732 0.000000 19.413385 14.429133 7.086614 19.413385 12.854331 5.511811 19.413385 13.641732 5.511811 19.413385 14.429133 7.086614 19.413385 14.429133 1.574803 19.413385 14.429133 1.574803 20.594488 14.429133 0.000000 20.594488 14.429133 1.574803 15.476377 14.429133 1.574803 14.885827 13.641732 1.574803 15.476377 13.641732 1.574803 14.295276 12.854331 1.574803 14.885827 12.854331 1.574803 14.295276 14.429133 1.574803 20.003937 12.854331 5.511811 20.594488 12.854331 1.574803 20.594488 12.854331 5.511811 20.003937 12.854331 -0.000000 14.295276 14.429133 0.000000 15.476377 14.429133 7.086614 20.594488 12.066929 6.671771 14.710118 11.627798 6.671771 20.179646 11.627798 7.086614 14.295276 12.066929 6.401611 14.980278 11.087479 6.401611 19.909485 11.087479 0.685003 14.980278 11.087479 6.299212 14.710118 11.627798 0.414843 14.710118 11.627798 6.299212 14.980278 11.087479 0.787402 19.807087 10.492126 0.787402 15.082677 10.492126 0.685003 19.909485 11.087479 0.414843 20.179646 11.627798 6.299212 14.295276 12.066929 -0.000000 14.295276 12.066929 6.299212 19.807087 10.492126 7.086614 20.594488 14.429133 5.511811 20.594488 14.429133 0.000000 20.594488 12.066929 5.511811 14.295276 14.429133 7.086614 15.476377 14.429133 5.511811 15.476377 14.429133 7.086614 14.295276 14.429133 5.511811 15.476377 13.641732 0.000000 15.476377 12.854331 7.086614 15.476377 12.854331 6.299212 15.082677 10.492126 5.511811 14.885827 12.854331 5.511811 14.885827 13.641732 5.511811 14.295276 12.854331 1.574803 20.003937 13.641732 5.511811 20.003937 13.641732 "
							            />
						</IndexedFaceSet>
					</Shape>
				</Group>
			</Transform>
		</Transform>
	</Scene>
</X3D>