<?xml version="1.0" encoding="UTF-8"?>
<!DOCTYPE X3D PUBLIC "ISO//Web3D//DTD X3D 3.0//EN" "http://www.web3d.org/specifications/x3d-3.0.dtd">
<X3D version="3.0" profile="Immersive" xmlns:xsd="http://www.w3.org/2001/XMLSchema-instance" xsd:noNamespaceSchemaLocation="http://www.web3d.org/specifications/x3d-3.0.xsd">
	<head>
		<meta name="filename" content="03-2-3.x3d" />
		<meta name="created" content="2026-06-21 15:09:37" />
		<meta name="generator" content="Blender 4.5.4 LTS" />
		<meta name="translator" content="Web3D X3D/VRML2 format v2.5.1" />
	</head>
	<Scene>
		<NavigationInfo headlight="true"
		                visibilityLimit="0.0"
		                type='"EXAMINE", "ANY"'
		                avatarSize="0.25, 1.75, 0.75"
		                />
		<Background DEF="WO_World"
		            groundColor="0.051 0.051 0.051"
		            skyColor="0.051 0.051 0.051"
		            />
		<Transform DEF="_03-2-3_TRANSFORM"
		           translation="0.000000 0.000000 0.000000"
		           scale="1.000000 1.000000 1.000000"
		           rotation="0.000000 0.707107 0.707107 3.141593"
		           >
			<Transform DEF="_03-2-3_ifs_TRANSFORM"
			           translation="0.000000 0.000000 0.000000"
			           scale="1.000000 1.000000 1.000000"
			           rotation="0.000000 1.000000 0.000000 0.000000"
			           >
				<Group DEF="group_ME_03-2-3_001">
					<Shape>
						<Appearance>
						</Appearance>
						<IndexedFaceSet solid="false"
						                coordIndex="0 1 2 -1 1 0 3 -1 4 5 6 -1 5 4 7 -1 8 1 9 -1 1 8 10 -1 1 10 11 -1 9 3 7 -1 3 9 1 -1 7 3 5 -1 10 12 13 -1 12 10 8 -1 9 4 14 -1 4 9 7 -1 15 16 17 -1 16 15 18 -1 19 16 18 -1 16 19 20 -1 20 19 21 -1 14 22 23 -1 22 14 24 -1 24 14 12 -1 12 14 25 -1 23 21 19 -1 21 23 20 -1 20 23 24 -1 24 23 22 -1 26 16 20 -1 16 26 17 -1 8 24 12 -1 24 8 27 -1 27 20 24 -1 20 27 26 -1 26 15 17 -1 15 26 28 -1 8 29 27 -1 29 8 9 -1 27 28 26 -1 28 27 29 -1 18 28 19 -1 28 18 15 -1 30 10 13 -1 10 30 11 -1 5 0 6 -1 0 5 3 -1 1 30 2 -1 30 1 11 -1 4 25 14 -1 25 4 0 -1 25 0 12 -1 0 4 6 -1 12 2 13 -1 2 12 0 -1 13 2 30 -1 23 9 14 -1 9 23 29 -1 19 29 23 -1 29 19 28 -1 31 32 33 -1 32 31 34 -1 35 36 37 -1 36 35 38 -1 39 32 40 -1 32 39 41 -1 32 41 42 -1 40 34 38 -1 34 40 32 -1 38 34 36 -1 41 43 44 -1 43 41 39 -1 40 35 45 -1 35 40 38 -1 46 47 48 -1 47 46 49 -1 50 47 49 -1 47 50 51 -1 51 50 52 -1 45 53 54 -1 53 45 55 -1 55 45 43 -1 43 45 56 -1 54 52 50 -1 52 54 51 -1 51 54 55 -1 55 54 53 -1 57 47 51 -1 47 57 48 -1 39 55 43 -1 55 39 58 -1 58 51 55 -1 51 58 57 -1 57 46 48 -1 46 57 59 -1 39 60 58 -1 60 39 40 -1 58 59 57 -1 59 58 60 -1 49 59 50 -1 59 49 46 -1 61 41 44 -1 41 61 42 -1 36 31 37 -1 31 36 34 -1 32 61 33 -1 61 32 42 -1 35 56 45 -1 56 35 31 -1 56 31 43 -1 31 35 37 -1 43 33 44 -1 33 43 31 -1 44 33 61 -1 54 40 45 -1 40 54 60 -1 50 60 54 -1 60 50 59 -1 "
						                >
							<Coordinate DEF="coords_ME_03-2-3_001"
							            point="19.685040 6.692914 2.362205 12.598425 0.393701 2.362205 19.685040 0.393701 2.362205 12.598425 6.692914 2.362205 19.685040 8.267716 4.921260 12.598425 6.692914 4.921260 19.685040 6.692914 4.921260 12.598425 8.267716 4.921260 12.598425 -1.181102 1.574803 12.598425 8.267716 1.574803 12.598425 -1.181102 4.921260 12.598425 0.393701 4.921260 19.685040 -1.181102 1.574803 19.685040 -1.181102 4.921260 19.685040 8.267716 1.574803 13.385827 7.480315 0.000000 18.897638 -0.393701 0.000000 13.385827 -0.393701 0.000000 18.897638 7.480315 0.000000 19.000036 7.582714 0.595353 19.000036 -0.496100 0.595353 19.000036 7.480315 0.595353 19.270197 7.480315 1.135672 19.270197 7.852873 1.135672 19.270197 -0.766259 1.135672 19.685040 7.480315 1.574803 13.283428 -0.496100 0.595353 13.013268 -0.766259 1.135672 13.283428 7.582714 0.595353 13.013268 7.852873 1.135672 19.685040 0.393701 4.921260 7.874016 0.000000 2.362205 1.574803 7.086614 2.362205 1.574803 0.000000 2.362205 7.874016 7.086614 2.362205 9.448819 0.000000 4.921260 7.874016 7.086614 4.921260 7.874016 0.000000 4.921260 9.448819 7.086614 4.921260 0.000000 7.086614 1.574803 9.448819 7.086614 1.574803 0.000000 7.086614 4.921260 1.574803 7.086614 4.921260 0.000000 0.000000 1.574803 0.000000 0.000000 4.921260 9.448819 0.000000 1.574803 8.661417 6.299212 0.000000 0.787402 0.787402 0.000000 0.787402 6.299212 0.000000 8.661417 0.787402 0.000000 8.763816 0.685003 0.595353 0.685003 0.685003 0.595353 8.661417 0.685003 0.595353 8.661417 0.414843 1.135672 9.033976 0.414843 1.135672 0.414843 0.414843 1.135672 8.661417 0.000000 1.574803 0.685003 6.401611 0.595353 0.414843 6.671771 1.135672 8.763816 6.401611 0.595353 9.033976 6.671771 1.135672 1.574803 0.000000 4.921260 "
							            />
						</IndexedFaceSet>
					</Shape>
				</Group>
			</Transform>
		</Transform>
	</Scene>
</X3D>