<?xml version="1.0" encoding="UTF-8"?>
<!DOCTYPE X3D PUBLIC "ISO//Web3D//DTD X3D 3.0//EN" "http://www.web3d.org/specifications/x3d-3.0.dtd">
<X3D version="3.0" profile="Immersive" xmlns:xsd="http://www.w3.org/2001/XMLSchema-instance" xsd:noNamespaceSchemaLocation="http://www.web3d.org/specifications/x3d-3.0.xsd">
	<head>
		<meta name="filename" content="03-2-2.x3d" />
		<meta name="created" content="2026-06-21 15:09:37" />
		<meta name="generator" content="Blender 4.5.4 LTS" />
		<meta name="translator" content="Web3D X3D/VRML2 format v2.5.1" />
	</head>
	<Scene>
		<NavigationInfo headlight="true"
		                visibilityLimit="0.0"
		                type='"EXAMINE", "ANY"'
		                avatarSize="0.25, 1.75, 0.75"
		                />
		<Background DEF="WO_World"
		            groundColor="0.051 0.051 0.051"
		            skyColor="0.051 0.051 0.051"
		            />
		<Transform DEF="_03-2-2_TRANSFORM"
		           translation="0.000000 0.000000 0.000000"
		           scale="1.000000 1.000000 1.000000"
		           rotation="0.000000 0.707107 0.707107 3.141593"
		           >
			<Transform DEF="_03-2-2_ifs_TRANSFORM"
			           translation="0.000000 0.000000 0.000000"
			           scale="1.000000 1.000000 1.000000"
			           rotation="0.000000 1.000000 0.000000 0.000000"
			           >
				<Group DEF="group_ME_03-2-2_001">
					<Shape>
						<Appearance>
						</Appearance>
						<IndexedFaceSet solid="false"
						                coordIndex="0 1 2 -1 1 0 3 -1 1 3 4 -1 5 6 7 -1 6 5 8 -1 9 10 4 -1 10 9 11 -1 10 11 12 -1 4 8 1 -1 8 4 10 -1 1 8 5 -1 13 14 15 -1 14 13 16 -1 14 16 17 -1 18 3 0 -1 3 18 19 -1 3 19 20 -1 3 20 4 -1 21 16 22 -1 16 21 17 -1 9 20 23 -1 20 9 4 -1 11 24 25 -1 24 11 9 -1 23 17 21 -1 17 23 20 -1 10 26 27 -1 26 10 12 -1 26 11 25 -1 11 26 12 -1 23 28 29 -1 28 23 21 -1 6 10 27 -1 10 6 8 -1 21 30 28 -1 30 21 22 -1 15 19 18 -1 19 15 14 -1 19 14 17 -1 19 17 20 -1 0 29 18 -1 29 0 24 -1 16 30 22 -1 30 16 13 -1 9 29 24 -1 29 9 23 -1 0 6 24 -1 6 0 2 -1 6 2 7 -1 24 27 25 -1 27 24 6 -1 25 27 26 -1 15 30 13 -1 30 15 28 -1 2 5 7 -1 5 2 1 -1 18 28 15 -1 28 18 29 -1 31 32 33 -1 32 31 34 -1 32 34 35 -1 36 37 38 -1 37 36 39 -1 40 41 35 -1 41 40 42 -1 41 42 43 -1 35 39 32 -1 39 35 41 -1 32 39 36 -1 44 45 46 -1 45 44 47 -1 45 47 48 -1 49 34 31 -1 34 49 50 -1 34 50 51 -1 34 51 35 -1 52 47 53 -1 47 52 48 -1 40 51 54 -1 51 40 35 -1 42 55 56 -1 55 42 40 -1 54 48 52 -1 48 54 51 -1 41 57 58 -1 57 41 43 -1 57 42 56 -1 42 57 43 -1 54 59 60 -1 59 54 52 -1 37 41 58 -1 41 37 39 -1 52 61 59 -1 61 52 53 -1 46 50 49 -1 50 46 45 -1 50 45 48 -1 50 48 51 -1 31 60 49 -1 60 31 55 -1 47 61 53 -1 61 47 44 -1 40 60 55 -1 60 40 54 -1 31 37 55 -1 37 31 33 -1 37 33 38 -1 55 58 56 -1 58 55 37 -1 56 58 57 -1 46 61 44 -1 61 46 59 -1 33 36 38 -1 36 33 32 -1 49 59 46 -1 59 49 60 -1 "
						                >
							<Coordinate DEF="coords_ME_03-2-2_001"
							            point="6.692914 0.000000 1.574803 6.692914 7.086614 3.937008 6.692914 0.000000 3.937008 6.692914 6.299212 1.574803 6.692914 7.086614 1.574803 5.511811 7.086614 3.937008 5.511811 0.000000 2.362205 5.511811 0.000000 3.937008 5.511811 7.086614 2.362205 0.393701 7.086614 1.574803 1.574803 7.086614 2.362205 0.393701 7.086614 3.937008 1.574803 7.086614 3.937008 5.905512 0.787402 0.000000 6.007911 6.299212 0.595353 6.007911 0.685003 0.595353 5.905512 6.299212 0.000000 6.007911 6.401611 0.595353 6.278070 0.414843 1.135672 6.278070 6.299212 1.135672 6.278070 6.671771 1.135672 1.078704 6.401611 0.595353 1.181102 6.299212 0.000000 0.808544 6.671771 1.135672 0.393701 0.000000 1.574803 0.393701 0.000000 3.937008 1.574803 0.000000 3.937008 1.574803 0.000000 2.362205 1.078704 0.685003 0.595353 0.808544 0.414843 1.135672 1.181102 0.787402 0.000000 0.000000 9.582677 1.574803 7.086614 9.582677 3.937008 0.000000 9.582677 3.937008 6.299212 9.582677 1.574803 7.086614 9.582677 1.574803 7.086614 10.763780 3.937008 0.000000 10.763780 2.362205 0.000000 10.763780 3.937008 7.086614 10.763780 2.362205 7.086614 15.881889 1.574803 7.086614 14.700788 2.362205 7.086614 15.881889 3.937008 7.086614 14.700788 3.937008 0.787402 10.370079 0.000000 6.299212 10.267680 0.595353 0.685003 10.267680 0.595353 6.299212 10.370079 0.000000 6.401611 10.267680 0.595353 0.414843 9.997520 1.135672 6.299212 9.997520 1.135672 6.671771 9.997520 1.135672 6.401611 15.196887 0.595353 6.299212 15.094488 0.000000 6.671771 15.467047 1.135672 0.000000 15.881889 1.574803 0.000000 15.881889 3.937008 0.000000 14.700788 3.937008 0.000000 14.700788 2.362205 0.685003 15.196887 0.595353 0.414843 15.467047 1.135672 0.787402 15.094488 0.000000 "
							            />
						</IndexedFaceSet>
					</Shape>
				</Group>
			</Transform>
		</Transform>
	</Scene>
</X3D>