<?xml version="1.0" encoding="UTF-8"?>
<!DOCTYPE X3D PUBLIC "ISO//Web3D//DTD X3D 3.0//EN" "http://www.web3d.org/specifications/x3d-3.0.dtd">
<X3D version="3.0" profile="Immersive" xmlns:xsd="http://www.w3.org/2001/XMLSchema-instance" xsd:noNamespaceSchemaLocation="http://www.web3d.org/specifications/x3d-3.0.xsd">
	<head>
		<meta name="filename" content="03-3-1.x3d" />
		<meta name="created" content="2026-06-21 15:09:37" />
		<meta name="generator" content="Blender 4.5.4 LTS" />
		<meta name="translator" content="Web3D X3D/VRML2 format v2.5.1" />
	</head>
	<Scene>
		<NavigationInfo headlight="true"
		                visibilityLimit="0.0"
		                type='"EXAMINE", "ANY"'
		                avatarSize="0.25, 1.75, 0.75"
		                />
		<Background DEF="WO_World"
		            groundColor="0.051 0.051 0.051"
		            skyColor="0.051 0.051 0.051"
		            />
		<Transform DEF="_03-3-1_TRANSFORM"
		           translation="0.000000 0.000000 0.000000"
		           scale="1.000000 1.000000 1.000000"
		           rotation="0.000000 0.707107 0.707107 3.141593"
		           >
			<Transform DEF="_03-3-1_ifs_TRANSFORM"
			           translation="0.000000 0.000000 0.000000"
			           scale="1.000000 1.000000 1.000000"
			           rotation="0.000000 1.000000 0.000000 0.000000"
			           >
				<Group DEF="group_ME_03-3-1_001">
					<Shape>
						<Appearance>
						</Appearance>
						<IndexedFaceSet solid="false"
						                coordIndex="0 1 2 -1 1 0 3 -1 3 0 4 -1 4 0 5 -1 2 6 7 -1 6 2 1 -1 8 9 10 -1 9 5 0 -1 5 9 8 -1 10 11 12 -1 11 0 13 -1 0 11 10 -1 0 10 9 -1 10 14 15 -1 14 10 12 -1 12 16 17 -1 16 13 18 -1 13 16 12 -1 13 12 11 -1 8 19 20 -1 21 15 22 -1 15 21 23 -1 15 23 10 -1 10 23 19 -1 10 19 8 -1 12 24 14 -1 24 12 17 -1 7 15 2 -1 15 7 22 -1 17 25 26 -1 25 17 18 -1 18 17 16 -1 27 0 2 -1 0 27 13 -1 28 13 27 -1 13 28 18 -1 29 18 28 -1 18 29 25 -1 2 14 27 -1 14 2 15 -1 27 24 28 -1 24 27 14 -1 28 30 29 -1 30 28 24 -1 17 30 24 -1 30 17 26 -1 25 30 26 -1 30 25 29 -1 1 19 23 -1 19 1 3 -1 21 1 23 -1 1 21 6 -1 4 19 3 -1 19 4 20 -1 7 21 22 -1 21 7 6 -1 4 8 20 -1 8 4 5 -1 31 32 33 -1 32 31 34 -1 34 31 35 -1 35 31 36 -1 33 37 38 -1 37 33 32 -1 39 40 41 -1 40 36 31 -1 36 40 39 -1 41 42 43 -1 42 31 44 -1 31 42 41 -1 31 41 40 -1 41 45 46 -1 45 41 43 -1 43 47 48 -1 47 44 49 -1 44 47 43 -1 44 43 42 -1 39 50 51 -1 52 46 53 -1 46 52 54 -1 46 54 41 -1 41 54 50 -1 41 50 39 -1 43 55 45 -1 55 43 48 -1 38 46 33 -1 46 38 53 -1 48 56 57 -1 56 48 49 -1 49 48 47 -1 58 31 33 -1 31 58 44 -1 59 44 58 -1 44 59 49 -1 60 49 59 -1 49 60 56 -1 33 45 58 -1 45 33 46 -1 58 55 59 -1 55 58 45 -1 59 61 60 -1 61 59 55 -1 48 61 55 -1 61 48 57 -1 56 61 57 -1 61 56 60 -1 32 50 54 -1 50 32 34 -1 52 32 54 -1 32 52 37 -1 35 50 34 -1 50 35 51 -1 38 52 53 -1 52 38 37 -1 35 39 51 -1 39 35 36 -1 62 63 64 -1 63 62 65 -1 65 62 66 -1 66 62 67 -1 64 68 69 -1 68 64 63 -1 70 71 72 -1 71 67 62 -1 67 71 70 -1 72 73 74 -1 73 62 75 -1 62 73 72 -1 62 72 71 -1 72 76 77 -1 76 72 74 -1 74 78 79 -1 78 75 80 -1 75 78 74 -1 75 74 73 -1 70 81 82 -1 83 77 84 -1 77 83 85 -1 77 85 72 -1 72 85 81 -1 72 81 70 -1 74 86 76 -1 86 74 79 -1 69 77 64 -1 77 69 84 -1 79 87 88 -1 87 79 80 -1 80 79 78 -1 89 62 64 -1 62 89 75 -1 90 75 89 -1 75 90 80 -1 91 80 90 -1 80 91 87 -1 64 76 89 -1 76 64 77 -1 89 86 90 -1 86 89 76 -1 90 92 91 -1 92 90 86 -1 79 92 86 -1 92 79 88 -1 87 92 88 -1 92 87 91 -1 63 81 85 -1 81 63 65 -1 83 63 85 -1 63 83 68 -1 66 81 65 -1 81 66 82 -1 69 83 84 -1 83 69 68 -1 66 70 82 -1 70 66 67 -1 "
						                >
							<Coordinate DEF="coords_ME_03-3-1_001"
							            point="18.586615 2.755906 0.000000 18.586615 3.543307 5.118110 18.586615 2.755906 6.299212 18.586615 3.543307 1.181102 18.586615 5.118110 1.181102 18.586615 5.118110 0.000000 18.586615 5.118110 5.118110 18.586615 5.118110 6.299212 12.287401 5.118110 0.000000 13.074803 2.755906 0.000000 12.287401 2.755906 -0.000000 13.074803 2.316775 0.414843 12.702245 2.316775 0.414843 18.171770 2.316775 0.414843 12.702245 2.316775 5.884369 12.287401 2.755906 6.299212 13.074803 1.776456 0.685003 12.972404 1.776456 0.685003 17.901611 1.776456 0.685003 12.287401 3.543307 1.181102 12.287401 5.118110 1.181102 12.287401 5.118110 5.118110 12.287401 5.118110 6.299212 12.287401 3.543307 5.118110 12.972404 1.776456 5.614210 17.799213 1.181102 0.787402 13.074803 1.181102 0.787402 18.171770 2.316775 5.884369 17.901611 1.776456 5.614210 17.799213 1.181102 5.511811 13.074803 1.181102 5.511811 6.299212 0.000000 11.543307 1.181102 0.000000 12.330709 0.000000 0.000000 11.543307 5.118110 0.000000 12.330709 5.118110 0.000000 13.905512 6.299212 0.000000 13.905512 1.181102 0.000000 13.905512 0.000000 0.000000 13.905512 6.299212 6.299212 13.905512 6.299212 5.511811 11.543307 6.299212 6.299212 11.543307 5.884369 5.511811 11.104177 5.884369 5.884369 11.104177 5.884369 0.414843 11.104177 0.414843 5.884369 11.104177 0.000000 6.299212 11.543307 5.614210 5.511811 10.563857 5.614210 5.614210 10.563857 5.614210 0.685003 10.563857 5.118110 6.299212 12.330709 5.118110 6.299212 13.905512 1.181102 6.299212 13.905512 0.000000 6.299212 13.905512 1.181102 6.299212 12.330709 0.685003 5.614210 10.563857 5.511811 0.787402 9.968504 5.511811 5.511811 9.968504 0.414843 0.414843 11.104177 0.685003 0.685003 10.563857 0.787402 0.787402 9.968504 0.787402 5.511811 9.968504 18.586615 6.299212 11.543307 18.586615 1.181102 12.330709 18.586615 0.000000 11.543307 18.586615 5.118110 12.330709 18.586615 5.118110 13.905512 18.586615 6.299212 13.905512 18.586615 1.181102 13.905512 18.586615 0.000000 13.905512 12.287401 6.299212 13.905512 13.074803 6.299212 11.543307 12.287401 6.299212 11.543307 13.074803 5.884369 11.104177 12.702245 5.884369 11.104177 18.171770 5.884369 11.104177 12.702245 0.414843 11.104177 12.287401 0.000000 11.543307 13.074803 5.614210 10.563857 12.972404 5.614210 10.563857 17.901611 5.614210 10.563857 12.287401 5.118110 12.330709 12.287401 5.118110 13.905512 12.287401 1.181102 13.905512 12.287401 0.000000 13.905512 12.287401 1.181102 12.330709 12.972404 0.685003 10.563857 17.799213 5.511811 9.968504 13.074803 5.511811 9.968504 18.171770 0.414843 11.104177 17.901611 0.685003 10.563857 17.799213 0.787402 9.968504 13.074803 0.787402 9.968504 "
							            />
						</IndexedFaceSet>
					</Shape>
				</Group>
			</Transform>
		</Transform>
	</Scene>
</X3D>