<?xml version="1.0" encoding="UTF-8"?>
<!DOCTYPE X3D PUBLIC "ISO//Web3D//DTD X3D 3.0//EN" "http://www.web3d.org/specifications/x3d-3.0.dtd">
<X3D version="3.0" profile="Immersive" xmlns:xsd="http://www.w3.org/2001/XMLSchema-instance" xsd:noNamespaceSchemaLocation="http://www.web3d.org/specifications/x3d-3.0.xsd">
	<head>
		<meta name="filename" content="03-3-2.x3d" />
		<meta name="created" content="2026-06-21 15:09:37" />
		<meta name="generator" content="Blender 4.5.4 LTS" />
		<meta name="translator" content="Web3D X3D/VRML2 format v2.5.1" />
	</head>
	<Scene>
		<NavigationInfo headlight="true"
		                visibilityLimit="0.0"
		                type='"EXAMINE", "ANY"'
		                avatarSize="0.25, 1.75, 0.75"
		                />
		<Background DEF="WO_World"
		            groundColor="0.051 0.051 0.051"
		            skyColor="0.051 0.051 0.051"
		            />
		<Transform DEF="_03-3-2_TRANSFORM"
		           translation="0.000000 0.000000 0.000000"
		           scale="1.000000 1.000000 1.000000"
		           rotation="0.000000 0.707107 0.707107 3.141593"
		           >
			<Transform DEF="_03-3-2_ifs_TRANSFORM"
			           translation="0.000000 0.000000 0.000000"
			           scale="1.000000 1.000000 1.000000"
			           rotation="0.000000 1.000000 0.000000 0.000000"
			           >
				<Group DEF="group_ME_03-3-2_001">
					<Shape>
						<Appearance>
						</Appearance>
						<IndexedFaceSet solid="false"
						                coordIndex="0 1 2 -1 1 0 3 -1 1 3 4 -1 1 4 5 -1 2 6 7 -1 6 2 1 -1 6 1 5 -1 6 5 8 -1 9 10 7 -1 10 9 11 -1 6 9 7 -1 9 6 12 -1 12 6 8 -1 13 3 0 -1 3 13 14 -1 3 14 4 -1 15 5 16 -1 5 15 8 -1 17 10 11 -1 10 17 15 -1 17 8 15 -1 8 17 12 -1 16 4 18 -1 4 16 5 -1 7 19 2 -1 19 7 10 -1 2 20 0 -1 20 2 19 -1 0 21 13 -1 21 0 20 -1 15 19 10 -1 19 15 16 -1 16 20 19 -1 20 16 18 -1 18 21 20 -1 21 18 22 -1 18 14 22 -1 14 18 4 -1 14 21 22 -1 21 14 13 -1 11 12 17 -1 12 11 9 -1 23 24 25 -1 24 26 27 -1 26 24 28 -1 28 24 23 -1 29 24 27 -1 24 29 30 -1 27 31 29 -1 31 27 26 -1 32 33 34 -1 33 32 35 -1 36 32 37 -1 32 38 35 -1 38 32 39 -1 39 32 36 -1 40 29 31 -1 29 40 30 -1 30 40 41 -1 41 40 42 -1 43 33 44 -1 33 43 34 -1 34 43 45 -1 45 43 46 -1 34 37 32 -1 37 34 45 -1 44 35 38 -1 35 44 33 -1 25 30 41 -1 30 25 24 -1 47 41 42 -1 23 48 49 -1 48 23 25 -1 48 25 50 -1 50 25 41 -1 50 41 47 -1 51 52 53 -1 52 51 54 -1 55 56 57 -1 56 55 58 -1 59 60 61 -1 60 59 62 -1 39 63 64 -1 63 39 36 -1 65 48 66 -1 48 65 67 -1 48 67 49 -1 66 68 69 -1 68 66 48 -1 69 68 70 -1 61 56 52 -1 56 61 57 -1 65 26 67 -1 26 65 71 -1 26 71 31 -1 31 71 40 -1 40 71 72 -1 72 71 73 -1 28 67 26 -1 51 71 65 -1 71 51 74 -1 71 74 62 -1 71 62 73 -1 61 55 57 -1 55 61 60 -1 64 38 39 -1 43 66 69 -1 66 43 44 -1 66 44 75 -1 75 44 38 -1 75 38 64 -1 53 74 51 -1 74 53 76 -1 74 76 60 -1 74 60 62 -1 53 56 58 -1 56 53 52 -1 65 54 51 -1 54 65 66 -1 75 62 59 -1 62 75 73 -1 59 52 54 -1 52 59 61 -1 68 50 77 -1 50 68 48 -1 49 28 23 -1 28 49 67 -1 75 54 66 -1 54 75 59 -1 58 76 53 -1 76 58 55 -1 76 55 60 -1 68 45 70 -1 45 68 77 -1 45 77 37 -1 37 77 36 -1 36 77 63 -1 46 70 45 -1 75 77 73 -1 77 75 64 -1 77 64 63 -1 73 50 72 -1 50 73 77 -1 72 50 47 -1 69 46 43 -1 46 69 70 -1 42 72 47 -1 72 42 40 -1 78 79 80 -1 79 81 82 -1 81 79 83 -1 83 79 78 -1 84 79 82 -1 79 84 85 -1 82 86 84 -1 86 82 81 -1 87 88 89 -1 88 87 90 -1 91 87 92 -1 87 93 90 -1 93 87 94 -1 94 87 91 -1 95 84 86 -1 84 95 85 -1 85 95 96 -1 96 95 97 -1 98 88 99 -1 88 98 89 -1 89 98 100 -1 100 98 101 -1 89 92 87 -1 92 89 100 -1 99 90 93 -1 90 99 88 -1 80 85 96 -1 85 80 79 -1 102 96 97 -1 78 103 104 -1 103 78 80 -1 103 80 105 -1 105 80 96 -1 105 96 102 -1 106 107 108 -1 107 106 109 -1 110 111 112 -1 111 110 113 -1 114 115 116 -1 115 114 117 -1 94 118 119 -1 118 94 91 -1 120 103 121 -1 103 120 122 -1 103 122 104 -1 121 123 124 -1 123 121 103 -1 124 123 125 -1 116 111 107 -1 111 116 112 -1 120 81 122 -1 81 120 126 -1 81 126 86 -1 86 126 95 -1 95 126 127 -1 127 126 128 -1 83 122 81 -1 106 126 120 -1 126 106 129 -1 126 129 117 -1 126 117 128 -1 116 110 112 -1 110 116 115 -1 119 93 94 -1 98 121 124 -1 121 98 99 -1 121 99 130 -1 130 99 93 -1 130 93 119 -1 108 129 106 -1 129 108 131 -1 129 131 115 -1 129 115 117 -1 108 111 113 -1 111 108 107 -1 120 109 106 -1 109 120 121 -1 130 117 114 -1 117 130 128 -1 114 107 109 -1 107 114 116 -1 123 105 132 -1 105 123 103 -1 104 83 78 -1 83 104 122 -1 130 109 121 -1 109 130 114 -1 113 131 108 -1 131 113 110 -1 131 110 115 -1 123 100 125 -1 100 123 132 -1 100 132 92 -1 92 132 91 -1 91 132 118 -1 101 125 100 -1 130 132 128 -1 132 130 119 -1 132 119 118 -1 128 105 127 -1 105 128 132 -1 127 105 102 -1 124 101 98 -1 101 124 125 -1 97 127 102 -1 127 97 95 -1 "
						                >
							<Coordinate DEF="coords_ME_03-3-2_001"
							            point="5.614210 0.685003 0.595353 5.884369 5.511811 1.135672 5.884369 0.414843 1.135672 5.614210 5.511811 0.595353 5.614210 5.614210 0.595353 5.884369 5.884369 1.135672 6.299212 5.511811 1.574803 6.299212 0.000000 1.574803 6.299212 6.299212 1.574803 6.299212 0.000000 2.362205 0.000000 0.000000 1.574803 0.000000 0.000000 2.362205 6.299212 6.299212 2.362205 5.511811 0.787402 0.000000 5.511811 5.511811 0.000000 0.000000 6.299212 1.574803 0.414843 5.884369 1.135672 0.000000 6.299212 2.362205 0.685003 5.614210 0.595353 0.414843 0.414843 1.135672 0.685003 0.685003 0.595353 0.787402 0.787402 0.000000 0.787402 5.511811 0.000000 19.673229 1.181102 11.255905 20.263779 1.181102 10.468504 19.673229 1.181102 10.468504 20.854330 1.181102 9.681103 20.263779 1.181102 9.681103 20.854330 1.181102 11.255905 20.263779 5.118110 9.681103 20.263779 5.118110 10.468504 20.854330 5.118110 9.681103 15.145669 5.118110 10.468504 15.145669 1.181102 9.681103 15.145669 1.181102 10.468504 15.145669 5.118110 9.681103 15.736220 5.118110 11.255905 15.736220 5.118110 10.468504 14.555119 5.118110 9.681103 14.555119 5.118110 11.255905 20.854330 5.118110 11.255905 19.673229 5.118110 10.468504 19.673229 5.118110 11.255905 14.555119 1.181102 11.255905 14.555119 1.181102 9.681103 15.736220 1.181102 10.468504 15.736220 1.181102 11.255905 19.673229 6.299212 11.255905 19.673229 0.000000 9.681103 19.673229 0.000000 11.255905 19.673229 6.299212 9.681103 20.439487 0.414843 8.454570 15.240121 0.685003 7.914251 20.169329 0.685003 7.914251 14.969961 0.414843 8.454570 20.066929 5.511811 7.318898 15.342520 0.787402 7.318898 15.342520 5.511811 7.318898 20.066929 0.787402 7.318898 14.969961 5.884369 8.454570 20.169329 5.614210 7.914251 15.240121 5.614210 7.914251 20.439487 5.884369 8.454570 15.736220 6.299212 11.255905 14.555119 6.299212 11.255905 20.854330 0.000000 8.893701 14.555119 0.000000 8.893701 20.854330 0.000000 11.255905 15.736220 0.000000 9.681103 14.555119 0.000000 11.255905 15.736220 0.000000 11.255905 20.854330 5.511811 8.893701 20.854330 6.299212 11.255905 20.854330 6.299212 8.893701 20.439487 5.511811 8.454570 14.555119 6.299212 8.893701 20.169329 5.511811 7.914251 15.736220 6.299212 9.681103 5.118110 5.118110 11.255905 5.118110 5.708662 10.468504 5.118110 5.118110 10.468504 5.118110 6.299212 9.681103 5.118110 5.708662 9.681103 5.118110 6.299212 11.255905 1.181102 5.708662 9.681103 1.181102 5.708662 10.468504 1.181102 6.299212 9.681103 1.181102 0.590551 10.468504 5.118110 0.590551 9.681103 5.118110 0.590551 10.468504 1.181102 0.590551 9.681103 1.181102 1.181102 11.255905 1.181102 1.181102 10.468504 1.181102 0.000000 9.681103 1.181102 0.000000 11.255905 1.181102 6.299212 11.255905 1.181102 5.118110 10.468504 1.181102 5.118110 11.255905 5.118110 0.000000 11.255905 5.118110 0.000000 9.681103 5.118110 1.181102 10.468504 5.118110 1.181102 11.255905 0.000000 5.118110 11.255905 6.299212 5.118110 9.681103 6.299212 5.118110 11.255905 0.000000 5.118110 9.681103 5.884369 5.884369 8.454570 5.614210 0.685003 7.914251 5.614210 5.614210 7.914251 5.884369 0.414843 8.454570 0.787402 5.511811 7.318898 5.511811 0.787402 7.318898 0.787402 0.787402 7.318898 5.511811 5.511811 7.318898 0.414843 0.414843 8.454570 0.685003 5.614210 7.914251 0.685003 0.685003 7.914251 0.414843 5.884369 8.454570 0.000000 1.181102 11.255905 0.000000 0.000000 11.255905 6.299212 6.299212 8.893701 6.299212 0.000000 8.893701 6.299212 6.299212 11.255905 6.299212 1.181102 9.681103 6.299212 0.000000 11.255905 6.299212 1.181102 11.255905 0.787402 6.299212 8.893701 0.000000 6.299212 11.255905 0.000000 6.299212 8.893701 0.787402 5.884369 8.454570 0.000000 0.000000 8.893701 0.787402 5.614210 7.914251 0.000000 1.181102 9.681103 "
							            />
						</IndexedFaceSet>
					</Shape>
				</Group>
			</Transform>
		</Transform>
	</Scene>
</X3D>