<?xml version="1.0" encoding="UTF-8"?>
<!DOCTYPE X3D PUBLIC "ISO//Web3D//DTD X3D 3.0//EN" "http://www.web3d.org/specifications/x3d-3.0.dtd">
<X3D version="3.0" profile="Immersive" xmlns:xsd="http://www.w3.org/2001/XMLSchema-instance" xsd:noNamespaceSchemaLocation="http://www.web3d.org/specifications/x3d-3.0.xsd">
	<head>
		<meta name="filename" content="03-4.x3d" />
		<meta name="created" content="2026-06-21 15:09:37" />
		<meta name="generator" content="Blender 4.5.4 LTS" />
		<meta name="translator" content="Web3D X3D/VRML2 format v2.5.1" />
	</head>
	<Scene>
		<NavigationInfo headlight="true"
		                visibilityLimit="0.0"
		                type='"EXAMINE", "ANY"'
		                avatarSize="0.25, 1.75, 0.75"
		                />
		<Background DEF="WO_World"
		            groundColor="0.051 0.051 0.051"
		            skyColor="0.051 0.051 0.051"
		            />
		<Transform DEF="_03-4_TRANSFORM"
		           translation="0.000000 0.000000 0.000000"
		           scale="1.000000 1.000000 1.000000"
		           rotation="0.000000 0.707107 0.707107 3.141593"
		           >
			<Transform DEF="_03-4_ifs_TRANSFORM"
			           translation="0.000000 0.000000 0.000000"
			           scale="1.000000 1.000000 1.000000"
			           rotation="0.000000 1.000000 0.000000 0.000000"
			           >
				<Group DEF="group_ME_03-4_001">
					<Shape>
						<Appearance>
						</Appearance>
						<IndexedFaceSet solid="false"
						                coordIndex="0 1 2 -1 1 0 3 -1 4 5 6 -1 5 4 7 -1 8 0 9 -1 0 8 3 -1 3 8 10 -1 7 11 5 -1 11 7 12 -1 13 6 14 -1 6 13 4 -1 15 16 17 -1 16 15 18 -1 13 19 10 -1 19 13 16 -1 19 16 18 -1 10 20 3 -1 20 10 19 -1 3 20 1 -1 1 21 2 -1 21 1 20 -1 21 19 22 -1 19 21 20 -1 23 11 24 -1 11 23 5 -1 23 25 26 -1 25 23 27 -1 25 27 28 -1 25 28 29 -1 26 5 23 -1 5 26 6 -1 19 15 22 -1 15 19 18 -1 26 8 9 -1 8 26 25 -1 8 25 29 -1 8 29 10 -1 4 28 7 -1 28 4 29 -1 13 29 4 -1 29 13 10 -1 24 27 23 -1 27 24 30 -1 27 30 28 -1 9 21 14 -1 21 9 0 -1 21 0 2 -1 14 22 17 -1 22 14 21 -1 17 22 15 -1 30 11 12 -1 11 30 24 -1 9 6 26 -1 6 9 14 -1 16 14 17 -1 14 16 13 -1 7 30 12 -1 30 7 28 -1 31 32 33 -1 32 31 34 -1 35 36 37 -1 36 35 38 -1 39 31 40 -1 31 39 34 -1 34 39 41 -1 38 42 36 -1 42 38 43 -1 44 37 45 -1 37 44 35 -1 46 47 48 -1 47 46 49 -1 44 50 41 -1 50 44 47 -1 50 47 49 -1 41 51 34 -1 51 41 50 -1 34 51 32 -1 32 52 33 -1 52 32 51 -1 52 50 53 -1 50 52 51 -1 54 42 55 -1 42 54 36 -1 54 56 57 -1 56 54 58 -1 56 58 59 -1 56 59 60 -1 57 36 54 -1 36 57 37 -1 50 46 53 -1 46 50 49 -1 57 39 40 -1 39 57 56 -1 39 56 60 -1 39 60 41 -1 35 59 38 -1 59 35 60 -1 44 60 35 -1 60 44 41 -1 55 58 54 -1 58 55 61 -1 58 61 59 -1 40 52 45 -1 52 40 31 -1 52 31 33 -1 45 53 48 -1 53 45 52 -1 48 53 46 -1 61 42 43 -1 42 61 55 -1 40 37 57 -1 37 40 45 -1 47 45 48 -1 45 47 44 -1 38 61 43 -1 61 38 59 -1 62 63 64 -1 63 62 65 -1 66 67 68 -1 67 66 69 -1 70 62 71 -1 62 70 65 -1 65 70 72 -1 69 73 67 -1 73 69 74 -1 75 68 76 -1 68 75 66 -1 77 78 79 -1 78 77 80 -1 75 81 72 -1 81 75 78 -1 81 78 80 -1 72 82 65 -1 82 72 81 -1 65 82 63 -1 63 83 64 -1 83 63 82 -1 83 81 84 -1 81 83 82 -1 85 73 86 -1 73 85 67 -1 85 87 88 -1 87 85 89 -1 87 89 90 -1 87 90 91 -1 88 67 85 -1 67 88 68 -1 81 77 84 -1 77 81 80 -1 88 70 71 -1 70 88 87 -1 70 87 91 -1 70 91 72 -1 66 90 69 -1 90 66 91 -1 75 91 66 -1 91 75 72 -1 86 89 85 -1 89 86 92 -1 89 92 90 -1 71 83 76 -1 83 71 62 -1 83 62 64 -1 76 84 79 -1 84 76 83 -1 79 84 77 -1 92 73 74 -1 73 92 86 -1 71 68 88 -1 68 71 76 -1 78 76 79 -1 76 78 75 -1 69 92 74 -1 92 69 90 -1 "
						                >
							<Coordinate DEF="coords_ME_03-4_001"
							            point="5.118110 0.000000 0.000000 5.118110 5.511811 1.181102 5.118110 0.000000 1.181102 5.118110 5.511811 0.000000 2.316775 5.096968 5.884369 1.776456 0.685003 5.614210 2.316775 0.414843 5.884369 1.776456 4.826808 5.614210 2.755906 4.724410 0.000000 2.755906 0.000000 0.000000 2.755906 5.511811 0.000000 1.181102 0.787402 5.511811 1.181102 4.724410 5.511811 2.755906 5.511811 6.299212 2.755906 0.000000 6.299212 5.118110 0.000000 5.118110 5.118110 5.511811 6.299212 5.118110 0.000000 6.299212 5.118110 5.511811 5.118110 3.543307 5.511811 5.118110 3.543307 5.511811 1.181102 3.543307 0.000000 1.181102 3.543307 0.000000 5.118110 1.776456 0.685003 0.685003 1.181102 0.787402 0.787402 2.316775 4.724410 0.414843 2.316775 0.414843 0.414843 1.776456 4.724410 0.685003 1.776456 4.826808 0.685003 2.316775 5.096968 0.414843 1.181102 4.724410 0.787402 6.299212 0.000000 12.771653 5.118110 5.511811 12.771653 5.118110 0.000000 12.771653 6.299212 5.511811 12.771653 0.414843 5.096968 9.970318 0.685003 0.685003 9.429998 0.414843 0.414843 9.970318 0.685003 4.826808 9.429998 6.299212 4.724410 10.409449 6.299212 0.000000 10.409449 6.299212 5.511811 10.409449 0.787402 0.787402 8.834645 0.787402 4.724410 8.834645 0.000000 5.511811 10.409449 0.000000 0.000000 10.409449 1.181102 0.000000 12.771653 0.000000 5.511811 12.771653 0.000000 0.000000 12.771653 1.181102 5.511811 12.771653 1.181102 5.511811 11.196851 5.118110 5.511811 11.196851 5.118110 0.000000 11.196851 1.181102 0.000000 11.196851 5.614210 0.685003 9.429998 5.511811 0.787402 8.834645 5.884369 4.724410 9.970318 5.884369 0.414843 9.970318 5.614210 4.724410 9.429998 5.614210 4.826808 9.429998 5.884369 5.096968 9.970318 5.511811 4.724410 8.834645 0.393701 8.877953 12.771653 5.905512 10.059055 12.771653 0.393701 10.059055 12.771653 5.905512 8.877953 12.771653 5.490669 14.762322 9.970318 1.078704 14.492163 9.429998 0.808544 14.762322 9.970318 5.220509 14.492163 9.429998 5.118110 8.877953 10.409449 0.393701 8.877953 10.409449 5.905512 8.877953 10.409449 1.181102 14.389764 8.834645 5.118110 14.389764 8.834645 5.905512 15.177165 10.409449 0.393701 15.177165 10.409449 0.393701 13.996063 12.771653 5.905512 15.177165 12.771653 0.393701 15.177165 12.771653 5.905512 13.996063 12.771653 5.905512 13.996063 11.196851 5.905512 10.059055 11.196851 0.393701 10.059055 11.196851 0.393701 13.996063 11.196851 1.078704 9.562956 9.429998 1.181102 9.665355 8.834645 5.118110 9.292796 9.970318 0.808544 9.292796 9.970318 5.118110 9.562956 9.429998 5.220509 9.562956 9.429998 5.490669 9.292796 9.970318 5.118110 9.665355 8.834645 "
							            />
						</IndexedFaceSet>
					</Shape>
				</Group>
			</Transform>
		</Transform>
	</Scene>
</X3D>