<?xml version="1.0" encoding="UTF-8"?>
<!DOCTYPE X3D PUBLIC "ISO//Web3D//DTD X3D 3.0//EN" "http://www.web3d.org/specifications/x3d-3.0.dtd">
<X3D version="3.0" profile="Immersive" xmlns:xsd="http://www.w3.org/2001/XMLSchema-instance" xsd:noNamespaceSchemaLocation="http://www.web3d.org/specifications/x3d-3.0.xsd">
	<head>
		<meta name="filename" content="04-1n.x3d" />
		<meta name="created" content="2026-06-21 15:09:37" />
		<meta name="generator" content="Blender 4.5.4 LTS" />
		<meta name="translator" content="Web3D X3D/VRML2 format v2.5.1" />
	</head>
	<Scene>
		<NavigationInfo headlight="true"
		                visibilityLimit="0.0"
		                type='"EXAMINE", "ANY"'
		                avatarSize="0.25, 1.75, 0.75"
		                />
		<Background DEF="WO_World"
		            groundColor="0.051 0.051 0.051"
		            skyColor="0.051 0.051 0.051"
		            />
		<Transform DEF="_04-1n_TRANSFORM"
		           translation="0.000000 0.000000 0.000000"
		           scale="1.000000 1.000000 1.000000"
		           rotation="0.000000 0.707107 0.707107 3.141593"
		           >
			<Transform DEF="_04-1n_ifs_TRANSFORM"
			           translation="0.000000 0.000000 0.000000"
			           scale="1.000000 1.000000 1.000000"
			           rotation="0.000000 1.000000 0.000000 0.000000"
			           >
				<Group DEF="group_ME_04-1n_001">
					<Shape>
						<Appearance>
						</Appearance>
						<IndexedFaceSet solid="false"
						                coordIndex="0 1 2 -1 1 0 3 -1 4 5 6 -1 5 4 7 -1 8 0 9 -1 0 8 3 -1 3 8 10 -1 7 11 5 -1 11 7 12 -1 13 6 14 -1 6 13 4 -1 15 16 17 -1 16 15 18 -1 13 19 10 -1 19 13 16 -1 19 16 18 -1 10 20 3 -1 20 10 19 -1 3 20 1 -1 1 21 2 -1 21 1 20 -1 21 19 22 -1 19 21 20 -1 23 11 24 -1 11 23 5 -1 23 25 26 -1 25 23 27 -1 25 27 28 -1 25 28 29 -1 26 5 23 -1 5 26 6 -1 19 15 22 -1 15 19 18 -1 26 8 9 -1 8 26 25 -1 8 25 29 -1 8 29 10 -1 4 28 7 -1 28 4 29 -1 13 29 4 -1 29 13 10 -1 24 27 23 -1 27 24 30 -1 27 30 28 -1 9 21 14 -1 21 9 0 -1 21 0 2 -1 14 22 17 -1 22 14 21 -1 17 22 15 -1 30 11 12 -1 11 30 24 -1 9 6 26 -1 6 9 14 -1 16 14 17 -1 14 16 13 -1 7 30 12 -1 30 7 28 -1 31 32 33 -1 32 31 34 -1 35 36 37 -1 36 35 38 -1 39 40 41 -1 40 39 42 -1 43 44 45 -1 44 43 46 -1 47 37 48 -1 37 47 35 -1 49 35 50 -1 35 49 38 -1 44 51 52 -1 51 44 53 -1 54 55 56 -1 55 54 57 -1 58 59 60 -1 59 58 61 -1 62 63 54 -1 63 62 64 -1 65 66 67 -1 66 65 68 -1 44 69 45 -1 69 44 52 -1 34 70 32 -1 70 34 71 -1 72 46 43 -1 46 72 73 -1 74 70 75 -1 70 74 33 -1 70 33 32 -1 76 40 77 -1 40 76 41 -1 78 79 80 -1 79 78 81 -1 57 82 83 -1 82 57 84 -1 85 57 83 -1 57 85 55 -1 49 77 38 -1 77 49 76 -1 50 47 86 -1 47 50 35 -1 34 48 71 -1 48 34 47 -1 85 73 72 -1 73 85 83 -1 39 87 42 -1 87 39 68 -1 68 39 66 -1 88 65 67 -1 65 88 89 -1 90 81 78 -1 81 90 91 -1 92 91 90 -1 91 92 93 -1 94 51 95 -1 51 94 69 -1 51 69 52 -1 40 96 77 -1 96 40 97 -1 54 84 57 -1 84 54 63 -1 86 34 31 -1 34 86 47 -1 46 98 99 -1 98 46 73 -1 80 61 58 -1 61 80 79 -1 77 36 38 -1 36 77 96 -1 89 93 92 -1 93 89 88 -1 46 53 44 -1 53 46 99 -1 95 98 100 -1 98 95 99 -1 99 95 53 -1 53 95 51 -1 60 80 58 -1 80 60 78 -1 78 60 101 -1 78 101 90 -1 90 101 102 -1 90 102 92 -1 92 102 103 -1 92 103 104 -1 104 103 82 -1 104 82 84 -1 104 84 63 -1 104 63 105 -1 82 103 100 -1 82 100 98 -1 105 63 64 -1 92 106 89 -1 106 92 104 -1 89 106 37 -1 37 106 48 -1 48 106 71 -1 71 106 75 -1 89 37 65 -1 71 75 70 -1 65 36 68 -1 36 65 37 -1 68 36 96 -1 68 96 97 -1 68 97 87 -1 73 82 98 -1 82 73 83 -1 42 97 40 -1 97 42 87 -1 62 56 107 -1 56 62 54 -1 95 108 94 -1 108 95 100 -1 102 109 103 -1 109 102 110 -1 100 109 108 -1 109 100 103 -1 75 111 74 -1 111 75 106 -1 66 49 67 -1 49 66 76 -1 76 66 41 -1 41 66 39 -1 88 111 93 -1 111 88 50 -1 111 50 86 -1 111 86 31 -1 111 31 74 -1 50 88 67 -1 50 67 49 -1 74 31 33 -1 81 61 79 -1 61 81 59 -1 59 81 91 -1 59 91 112 -1 112 91 93 -1 112 93 110 -1 110 93 109 -1 109 93 113 -1 113 93 111 -1 109 113 85 -1 85 113 55 -1 55 113 56 -1 56 113 114 -1 109 85 108 -1 56 114 107 -1 108 72 94 -1 72 108 85 -1 94 72 43 -1 94 43 45 -1 94 45 69 -1 107 64 62 -1 64 107 105 -1 105 107 114 -1 60 112 101 -1 112 60 59 -1 113 106 104 -1 106 113 111 -1 101 110 102 -1 110 101 112 -1 113 105 114 -1 105 113 104 -1 115 116 117 -1 117 118 115 -1 119 118 117 -1 117 120 119 -1 121 119 120 -1 120 122 121 -1 123 121 122 -1 122 124 123 -1 125 123 124 -1 124 126 125 -1 127 128 129 -1 129 130 127 -1 129 131 132 -1 132 130 129 -1 131 133 134 -1 134 132 131 -1 135 134 133 -1 133 136 135 -1 137 135 136 -1 136 138 137 -1 139 137 138 -1 138 140 139 -1 139 140 116 -1 116 115 139 -1 135 137 139 -1 123 125 141 -1 141 121 123 -1 141 119 121 -1 141 118 119 -1 141 115 118 -1 141 139 115 -1 141 135 139 -1 141 134 135 -1 141 142 134 -1 142 143 134 -1 143 132 134 -1 143 144 132 -1 144 130 132 -1 144 127 130 -1 145 146 147 -1 147 148 145 -1 143 149 150 -1 150 144 143 -1 151 152 153 -1 153 154 151 -1 147 128 127 -1 127 150 147 -1 150 148 147 -1 150 154 148 -1 154 153 148 -1 144 150 127 -1 146 155 156 -1 156 133 146 -1 133 131 146 -1 131 147 146 -1 131 129 147 -1 129 128 147 -1 156 126 124 -1 124 122 156 -1 122 120 156 -1 120 117 156 -1 117 116 156 -1 116 140 156 -1 140 136 156 -1 136 133 156 -1 136 140 138 -1 151 149 145 -1 145 152 151 -1 142 155 146 -1 146 145 142 -1 145 149 142 -1 149 143 142 -1 125 126 156 -1 156 141 125 -1 150 149 151 -1 151 154 150 -1 142 141 156 -1 156 155 142 -1 153 152 145 -1 145 148 153 -1 157 158 159 -1 158 157 160 -1 158 160 161 -1 161 160 162 -1 162 160 163 -1 164 159 158 -1 159 165 166 -1 165 159 164 -1 167 168 169 -1 168 170 171 -1 170 168 172 -1 172 168 167 -1 173 174 175 -1 174 173 176 -1 177 167 178 -1 167 177 172 -1 179 180 181 -1 180 179 182 -1 181 183 184 -1 183 181 180 -1 185 186 187 -1 186 185 188 -1 186 188 183 -1 186 183 180 -1 185 189 190 -1 189 185 191 -1 187 191 185 -1 191 187 192 -1 187 193 194 -1 193 187 186 -1 193 186 180 -1 193 180 182 -1 184 189 191 -1 189 184 195 -1 196 174 197 -1 174 196 179 -1 165 198 166 -1 198 165 175 -1 198 175 179 -1 179 175 174 -1 199 200 201 -1 200 199 202 -1 200 203 201 -1 167 204 178 -1 204 167 169 -1 204 169 205 -1 205 169 203 -1 205 203 200 -1 181 191 192 -1 191 181 184 -1 184 206 195 -1 206 184 183 -1 204 160 157 -1 160 204 205 -1 194 192 187 -1 192 194 198 -1 206 189 195 -1 189 206 190 -1 179 192 198 -1 192 179 181 -1 207 168 171 -1 168 207 208 -1 162 196 197 -1 196 162 163 -1 170 207 171 -1 207 170 209 -1 194 204 198 -1 204 194 177 -1 204 177 178 -1 198 157 166 -1 157 198 204 -1 166 157 159 -1 193 170 194 -1 170 193 209 -1 209 193 199 -1 199 193 202 -1 202 193 182 -1 194 172 177 -1 172 194 170 -1 179 160 182 -1 160 179 196 -1 160 196 163 -1 182 205 202 -1 205 182 160 -1 202 205 200 -1 190 188 185 -1 188 190 206 -1 188 206 183 -1 165 173 175 -1 173 165 210 -1 210 165 158 -1 158 165 164 -1 168 203 169 -1 203 168 208 -1 211 173 210 -1 173 211 176 -1 162 211 161 -1 211 174 176 -1 174 211 197 -1 197 211 162 -1 158 211 210 -1 211 158 161 -1 199 207 209 -1 207 199 208 -1 208 199 203 -1 203 199 201 -1 212 213 214 -1 213 212 215 -1 216 217 218 -1 217 216 219 -1 220 212 221 -1 212 220 215 -1 215 220 222 -1 219 223 217 -1 223 219 224 -1 225 218 226 -1 218 225 216 -1 227 228 229 -1 228 227 230 -1 225 231 222 -1 231 225 228 -1 231 228 230 -1 222 232 215 -1 232 222 231 -1 215 232 213 -1 213 233 214 -1 233 213 232 -1 233 231 234 -1 231 233 232 -1 235 223 236 -1 223 235 217 -1 235 237 238 -1 237 235 239 -1 237 239 240 -1 237 240 241 -1 238 217 235 -1 217 238 218 -1 231 227 234 -1 227 231 230 -1 238 220 221 -1 220 238 237 -1 220 237 241 -1 220 241 222 -1 216 240 219 -1 240 216 241 -1 225 241 216 -1 241 225 222 -1 236 239 235 -1 239 236 242 -1 239 242 240 -1 221 233 226 -1 233 221 212 -1 233 212 214 -1 226 234 229 -1 234 226 233 -1 229 234 227 -1 242 223 224 -1 223 242 236 -1 221 218 238 -1 218 221 226 -1 228 226 229 -1 226 228 225 -1 219 242 224 -1 242 219 240 -1 243 244 245 -1 244 243 246 -1 247 248 249 -1 248 247 250 -1 251 243 252 -1 243 251 246 -1 246 251 253 -1 250 254 248 -1 254 250 255 -1 256 249 257 -1 249 256 247 -1 258 259 260 -1 259 258 261 -1 256 262 253 -1 262 256 259 -1 262 259 261 -1 253 263 246 -1 263 253 262 -1 246 263 244 -1 244 264 245 -1 264 244 263 -1 264 262 265 -1 262 264 263 -1 266 254 267 -1 254 266 248 -1 266 268 269 -1 268 266 270 -1 268 270 271 -1 268 271 272 -1 269 248 266 -1 248 269 249 -1 262 258 265 -1 258 262 261 -1 269 251 252 -1 251 269 268 -1 251 268 272 -1 251 272 253 -1 247 271 250 -1 271 247 272 -1 256 272 247 -1 272 256 253 -1 267 270 266 -1 270 267 273 -1 270 273 271 -1 252 264 257 -1 264 252 243 -1 264 243 245 -1 257 265 260 -1 265 257 264 -1 260 265 258 -1 273 254 255 -1 254 273 267 -1 252 249 269 -1 249 252 257 -1 259 257 260 -1 257 259 256 -1 250 273 255 -1 273 250 271 -1 274 275 276 -1 275 274 277 -1 276 278 279 -1 278 276 275 -1 280 281 282 -1 281 280 283 -1 275 284 285 -1 284 275 277 -1 278 285 286 -1 285 278 275 -1 281 287 288 -1 287 281 283 -1 278 289 290 -1 289 278 286 -1 282 291 292 -1 291 282 281 -1 279 290 293 -1 290 279 278 -1 292 280 282 -1 280 292 294 -1 294 292 295 -1 296 277 274 -1 277 296 297 -1 298 299 300 -1 299 298 301 -1 301 302 299 -1 302 301 303 -1 304 301 298 -1 301 304 305 -1 306 307 308 -1 307 306 309 -1 308 310 311 -1 310 308 307 -1 281 312 291 -1 312 281 288 -1 277 313 284 -1 313 277 297 -1 288 313 297 -1 313 288 287 -1 296 288 297 -1 288 296 312 -1 295 296 314 -1 296 295 312 -1 312 295 291 -1 291 295 292 -1 315 316 317 -1 316 315 318 -1 318 315 319 -1 318 319 320 -1 320 319 321 -1 320 321 322 -1 322 321 276 -1 322 276 279 -1 322 279 323 -1 276 321 274 -1 274 321 314 -1 274 314 296 -1 323 279 293 -1 320 324 325 -1 324 320 322 -1 325 324 326 -1 326 324 310 -1 310 324 327 -1 325 326 328 -1 325 328 329 -1 310 327 311 -1 329 330 331 -1 330 329 328 -1 331 330 304 -1 331 304 298 -1 331 298 300 -1 307 332 333 -1 332 307 309 -1 334 295 314 -1 295 334 294 -1 323 289 335 -1 289 323 293 -1 289 293 290 -1 336 316 337 -1 316 336 317 -1 338 329 331 -1 329 338 339 -1 329 340 325 -1 340 329 339 -1 338 341 339 -1 341 338 342 -1 342 338 303 -1 303 338 302 -1 343 336 337 -1 336 343 344 -1 344 343 345 -1 345 343 346 -1 345 346 340 -1 345 340 149 -1 149 340 332 -1 149 332 309 -1 149 309 347 -1 332 340 348 -1 348 340 339 -1 348 339 341 -1 347 309 306 -1 345 145 349 -1 145 345 149 -1 349 145 285 -1 285 145 286 -1 286 145 335 -1 349 285 284 -1 349 284 334 -1 286 335 289 -1 334 313 294 -1 313 334 284 -1 294 313 287 -1 294 287 283 -1 294 283 280 -1 337 318 343 -1 318 337 316 -1 343 320 346 -1 320 343 318 -1 331 302 338 -1 302 331 300 -1 302 300 299 -1 345 315 344 -1 315 345 319 -1 346 325 340 -1 325 346 320 -1 335 322 323 -1 322 335 145 -1 324 145 149 -1 145 324 322 -1 311 306 308 -1 306 311 347 -1 347 311 327 -1 349 319 345 -1 319 349 321 -1 349 314 321 -1 314 349 334 -1 344 317 336 -1 317 344 315 -1 324 347 327 -1 347 324 149 -1 330 305 304 -1 305 330 350 -1 301 342 303 -1 342 301 305 -1 328 350 330 -1 350 328 351 -1 305 341 342 -1 341 305 350 -1 328 333 351 -1 333 328 326 -1 333 348 351 -1 348 333 332 -1 350 348 341 -1 348 350 351 -1 307 326 310 -1 326 307 333 -1 352 353 354 -1 353 352 355 -1 355 356 357 -1 356 355 352 -1 356 352 358 -1 358 352 359 -1 359 352 360 -1 360 352 361 -1 361 352 362 -1 362 352 363 -1 363 352 364 -1 364 352 365 -1 361 366 360 -1 366 361 367 -1 366 367 368 -1 369 366 368 -1 366 369 370 -1 371 370 369 -1 370 371 372 -1 373 372 371 -1 372 373 374 -1 375 373 376 -1 373 375 374 -1 377 378 379 -1 378 377 380 -1 381 382 383 -1 382 381 384 -1 380 385 378 -1 385 380 386 -1 387 388 389 -1 388 387 390 -1 389 361 391 -1 361 389 367 -1 367 389 368 -1 368 389 388 -1 368 388 369 -1 369 388 371 -1 371 388 376 -1 371 376 373 -1 390 376 388 -1 376 390 375 -1 387 391 392 -1 391 387 389 -1 377 353 393 -1 353 377 354 -1 354 377 379 -1 354 379 394 -1 354 394 392 -1 354 392 391 -1 354 391 395 -1 354 395 396 -1 354 396 397 -1 354 397 398 -1 366 392 387 -1 392 366 360 -1 370 360 366 -1 360 370 399 -1 372 399 370 -1 399 372 400 -1 374 400 372 -1 400 374 401 -1 402 374 375 -1 374 402 401 -1 403 375 390 -1 375 403 402 -1 392 390 387 -1 390 392 403 -1 360 394 392 -1 394 360 359 -1 399 359 360 -1 359 399 404 -1 400 404 399 -1 404 400 405 -1 401 405 400 -1 405 401 406 -1 407 401 402 -1 401 407 406 -1 408 402 403 -1 402 408 407 -1 394 403 392 -1 403 394 408 -1 358 394 359 -1 394 358 379 -1 404 358 359 -1 358 404 383 -1 405 383 404 -1 383 405 381 -1 406 381 405 -1 381 406 409 -1 385 406 407 -1 406 385 409 -1 378 407 408 -1 407 378 385 -1 379 408 394 -1 408 379 378 -1 383 356 358 -1 356 383 382 -1 409 384 381 -1 384 409 410 -1 386 409 385 -1 409 386 410 -1 411 377 393 -1 377 411 380 -1 380 411 386 -1 386 411 410 -1 410 411 384 -1 384 411 357 -1 384 357 382 -1 382 357 356 -1 397 365 398 -1 365 397 364 -1 396 364 397 -1 364 396 363 -1 395 363 396 -1 363 395 362 -1 361 395 391 -1 395 361 362 -1 355 393 353 -1 393 355 357 -1 393 357 411 -1 398 352 354 -1 352 398 365 -1 412 413 414 -1 414 415 412 -1 414 416 415 -1 414 417 416 -1 416 418 415 -1 417 414 419 -1 419 414 420 -1 420 421 419 -1 421 422 419 -1 422 423 419 -1 423 424 419 -1 424 425 419 -1 425 426 419 -1 426 427 419 -1 428 420 414 -1 414 413 428 -1 413 412 429 -1 429 430 413 -1 430 431 413 -1 431 432 413 -1 432 428 413 -1 432 433 428 -1 432 434 433 -1 432 435 434 -1 432 436 435 -1 436 437 435 -1 436 438 437 -1 436 439 438 -1 436 440 439 -1 415 441 429 -1 429 412 415 -1 442 443 444 -1 441 415 418 -1 418 444 441 -1 418 442 444 -1 418 445 442 -1 445 446 442 -1 446 447 442 -1 447 448 442 -1 448 449 442 -1 448 450 449 -1 450 451 449 -1 451 452 449 -1 452 453 449 -1 454 445 418 -1 418 416 454 -1 455 454 416 -1 416 417 455 -1 417 456 455 -1 417 457 456 -1 417 458 457 -1 417 459 458 -1 417 460 459 -1 417 461 460 -1 462 463 152 -1 152 151 462 -1 463 462 464 -1 464 465 463 -1 464 449 465 -1 449 453 465 -1 440 436 465 -1 465 461 440 -1 465 453 461 -1 461 427 440 -1 427 461 417 -1 417 419 427 -1 432 431 443 -1 443 322 432 -1 443 324 322 -1 443 442 324 -1 324 151 152 -1 152 322 324 -1 444 430 429 -1 429 441 444 -1 444 443 431 -1 431 430 444 -1 448 457 458 -1 458 450 448 -1 458 459 451 -1 451 450 458 -1 455 456 447 -1 447 446 455 -1 459 460 452 -1 452 451 459 -1 449 464 324 -1 324 442 449 -1 452 460 461 -1 461 453 452 -1 455 446 445 -1 445 454 455 -1 462 151 324 -1 324 464 462 -1 456 457 448 -1 448 447 456 -1 465 436 432 -1 432 322 465 -1 437 438 425 -1 425 424 437 -1 434 435 423 -1 423 422 434 -1 438 439 426 -1 426 425 438 -1 423 435 437 -1 437 424 423 -1 465 322 152 -1 152 463 465 -1 433 434 422 -1 422 421 433 -1 426 439 440 -1 440 427 426 -1 433 421 420 -1 420 428 433 -1 466 467 468 -1 467 466 469 -1 467 469 470 -1 470 469 443 -1 443 469 471 -1 431 468 467 -1 468 430 472 -1 430 468 431 -1 155 473 474 -1 473 126 475 -1 126 473 156 -1 156 473 155 -1 476 441 429 -1 441 476 477 -1 478 155 479 -1 155 478 156 -1 480 481 482 -1 481 480 483 -1 482 484 485 -1 484 482 481 -1 486 487 488 -1 487 486 489 -1 487 489 484 -1 487 484 481 -1 486 490 491 -1 490 486 492 -1 488 492 486 -1 492 488 493 -1 488 494 495 -1 494 488 487 -1 494 487 481 -1 494 481 483 -1 485 490 492 -1 490 485 496 -1 497 441 444 -1 441 497 480 -1 430 498 472 -1 498 430 429 -1 498 429 480 -1 480 429 441 -1 141 499 142 -1 499 141 500 -1 499 501 142 -1 155 502 479 -1 502 155 474 -1 502 474 503 -1 503 474 501 -1 503 501 499 -1 482 492 493 -1 492 482 485 -1 485 504 496 -1 504 485 484 -1 502 469 466 -1 469 502 503 -1 495 493 488 -1 493 495 498 -1 504 490 496 -1 490 504 491 -1 480 493 498 -1 493 480 482 -1 505 473 475 -1 473 505 506 -1 443 497 444 -1 497 443 471 -1 126 505 475 -1 505 126 125 -1 495 502 498 -1 502 495 478 -1 502 478 479 -1 498 466 472 -1 466 498 502 -1 472 466 468 -1 494 126 495 -1 126 494 125 -1 125 494 141 -1 141 494 500 -1 500 494 483 -1 495 156 478 -1 156 495 126 -1 480 469 483 -1 469 480 497 -1 469 497 471 -1 483 503 500 -1 503 483 469 -1 500 503 499 -1 491 489 486 -1 489 491 504 -1 489 504 484 -1 430 476 429 -1 476 430 507 -1 507 430 467 -1 467 430 431 -1 473 501 474 -1 501 473 506 -1 508 476 507 -1 476 508 477 -1 443 508 470 -1 508 441 477 -1 441 508 444 -1 444 508 443 -1 467 508 507 -1 508 467 470 -1 141 505 125 -1 505 141 506 -1 506 141 501 -1 501 141 142 -1 509 510 511 -1 512 513 514 -1 513 512 510 -1 513 510 515 -1 515 510 509 -1 513 515 516 -1 517 511 510 -1 511 517 518 -1 511 518 519 -1 511 519 520 -1 511 520 521 -1 511 521 522 -1 511 522 523 -1 511 523 524 -1 525 510 512 -1 510 525 517 -1 526 525 527 -1 525 526 528 -1 528 526 529 -1 529 526 530 -1 531 512 514 -1 512 531 532 -1 512 532 533 -1 512 533 534 -1 512 534 527 -1 512 527 525 -1 535 514 513 -1 514 535 531 -1 513 536 535 -1 536 513 516 -1 536 516 537 -1 537 516 538 -1 538 516 539 -1 539 516 540 -1 540 541 539 -1 541 540 542 -1 541 542 543 -1 541 543 544 -1 545 516 515 -1 516 545 540 -1 524 509 511 -1 509 524 546 -1 547 521 520 -1 521 547 548 -1 549 524 523 -1 524 549 546 -1 538 527 534 -1 527 538 539 -1 547 541 544 -1 541 547 520 -1 541 520 530 -1 541 530 526 -1 521 550 522 -1 550 521 548 -1 537 532 536 -1 532 537 533 -1 538 533 537 -1 533 538 534 -1 536 531 535 -1 531 536 532 -1 522 549 523 -1 549 522 550 -1 539 526 527 -1 526 539 541 -1 545 542 540 -1 542 545 551 -1 552 542 551 -1 542 552 543 -1 547 543 552 -1 543 547 544 -1 509 545 515 -1 545 509 551 -1 551 509 552 -1 552 509 547 -1 547 509 548 -1 548 509 550 -1 550 509 549 -1 549 509 546 -1 529 518 528 -1 518 529 519 -1 530 519 529 -1 519 530 520 -1 525 518 517 -1 518 525 528 -1 553 554 555 -1 554 553 556 -1 557 554 556 -1 554 557 558 -1 559 553 555 -1 553 559 560 -1 559 554 558 -1 554 559 555 -1 557 559 558 -1 559 557 560 -1 553 557 556 -1 557 553 560 -1 561 562 563 -1 562 561 564 -1 565 562 564 -1 562 565 566 -1 567 561 563 -1 561 567 568 -1 567 562 566 -1 562 567 563 -1 565 567 566 -1 567 565 568 -1 561 565 564 -1 565 561 568 -1 569 570 571 -1 570 569 572 -1 572 569 573 -1 573 569 574 -1 571 575 576 -1 575 571 570 -1 577 578 579 -1 578 574 569 -1 574 578 577 -1 579 580 581 -1 580 569 582 -1 569 580 579 -1 569 579 578 -1 579 583 584 -1 583 579 581 -1 581 585 586 -1 585 582 587 -1 582 585 581 -1 582 581 580 -1 577 588 589 -1 590 584 591 -1 584 590 592 -1 584 592 579 -1 579 592 588 -1 579 588 577 -1 581 593 583 -1 593 581 586 -1 576 584 571 -1 584 576 591 -1 586 594 595 -1 594 586 587 -1 587 586 585 -1 596 569 571 -1 569 596 582 -1 597 582 596 -1 582 597 587 -1 598 587 597 -1 587 598 594 -1 571 583 596 -1 583 571 584 -1 596 593 597 -1 593 596 583 -1 597 599 598 -1 599 597 593 -1 586 599 593 -1 599 586 595 -1 594 599 595 -1 599 594 598 -1 570 588 592 -1 588 570 572 -1 590 570 592 -1 570 590 575 -1 573 588 572 -1 588 573 589 -1 576 590 591 -1 590 576 575 -1 573 577 589 -1 577 573 574 -1 600 354 601 -1 354 600 352 -1 600 602 352 -1 602 600 603 -1 604 605 606 -1 605 604 352 -1 605 352 607 -1 607 352 602 -1 605 608 606 -1 608 605 609 -1 608 610 611 -1 610 608 609 -1 607 609 605 -1 609 607 612 -1 609 613 610 -1 613 609 612 -1 610 614 611 -1 614 610 354 -1 354 610 613 -1 354 613 615 -1 354 615 601 -1 601 615 616 -1 612 607 613 -1 606 614 604 -1 614 606 611 -1 611 606 608 -1 613 602 615 -1 602 613 607 -1 602 616 615 -1 616 602 603 -1 616 600 601 -1 600 616 603 -1 604 354 352 -1 354 604 614 -1 617 618 619 -1 618 617 620 -1 621 622 623 -1 622 621 624 -1 625 617 626 -1 617 625 620 -1 620 625 627 -1 624 628 622 -1 628 624 629 -1 630 623 631 -1 623 630 621 -1 632 633 634 -1 633 632 635 -1 630 636 627 -1 636 630 633 -1 636 633 635 -1 627 637 620 -1 637 627 636 -1 620 637 618 -1 618 638 619 -1 638 618 637 -1 638 636 639 -1 636 638 637 -1 640 628 641 -1 628 640 622 -1 640 642 643 -1 642 640 644 -1 642 644 645 -1 642 645 646 -1 643 622 640 -1 622 643 623 -1 636 632 639 -1 632 636 635 -1 643 625 626 -1 625 643 642 -1 625 642 646 -1 625 646 627 -1 621 645 624 -1 645 621 646 -1 630 646 621 -1 646 630 627 -1 641 644 640 -1 644 641 647 -1 644 647 645 -1 626 638 631 -1 638 626 617 -1 638 617 619 -1 631 639 634 -1 639 631 638 -1 634 639 632 -1 647 628 629 -1 628 647 641 -1 626 623 643 -1 623 626 631 -1 633 631 634 -1 631 633 630 -1 624 647 629 -1 647 624 645 -1 648 649 650 -1 649 648 651 -1 652 653 654 -1 653 652 655 -1 656 648 657 -1 648 656 651 -1 651 656 658 -1 655 659 653 -1 659 655 660 -1 661 654 662 -1 654 661 652 -1 663 664 665 -1 664 663 666 -1 661 563 658 -1 563 661 664 -1 563 664 666 -1 658 561 651 -1 561 658 563 -1 651 561 649 -1 649 667 650 -1 667 649 561 -1 667 563 668 -1 563 667 561 -1 669 659 670 -1 659 669 653 -1 669 671 672 -1 671 669 673 -1 671 673 674 -1 671 674 675 -1 672 653 669 -1 653 672 654 -1 563 663 668 -1 663 563 666 -1 672 656 657 -1 656 672 671 -1 656 671 675 -1 656 675 658 -1 652 674 655 -1 674 652 675 -1 661 675 652 -1 675 661 658 -1 670 673 669 -1 673 670 676 -1 673 676 674 -1 657 667 662 -1 667 657 648 -1 667 648 650 -1 662 668 665 -1 668 662 667 -1 665 668 663 -1 676 659 660 -1 659 676 670 -1 657 654 672 -1 654 657 662 -1 664 662 665 -1 662 664 661 -1 655 676 660 -1 676 655 674 -1 677 678 679 -1 678 677 680 -1 681 682 683 -1 682 681 684 -1 685 677 686 -1 677 685 680 -1 680 685 687 -1 684 688 682 -1 688 684 689 -1 690 683 691 -1 683 690 681 -1 692 693 694 -1 693 692 695 -1 690 696 687 -1 696 690 693 -1 696 693 695 -1 687 697 680 -1 697 687 696 -1 680 697 678 -1 678 698 679 -1 698 678 697 -1 698 696 699 -1 696 698 697 -1 700 688 701 -1 688 700 682 -1 700 702 703 -1 702 700 704 -1 702 704 705 -1 702 705 706 -1 703 682 700 -1 682 703 683 -1 696 692 699 -1 692 696 695 -1 703 685 686 -1 685 703 702 -1 685 702 706 -1 685 706 687 -1 681 705 684 -1 705 681 706 -1 690 706 681 -1 706 690 687 -1 701 704 700 -1 704 701 707 -1 704 707 705 -1 686 698 691 -1 698 686 677 -1 698 677 679 -1 691 699 694 -1 699 691 698 -1 694 699 692 -1 707 688 689 -1 688 707 701 -1 686 683 703 -1 683 686 691 -1 693 691 694 -1 691 693 690 -1 684 707 689 -1 707 684 705 -1 708 709 710 -1 709 708 711 -1 712 713 714 -1 713 712 715 -1 712 716 717 -1 716 712 714 -1 718 712 719 -1 712 718 715 -1 710 715 718 -1 715 710 709 -1 715 720 713 -1 720 715 709 -1 719 717 721 -1 717 719 712 -1 722 723 711 -1 723 722 724 -1 725 726 727 -1 726 725 728 -1 729 722 730 -1 722 729 726 -1 727 729 731 -1 729 727 726 -1 726 724 722 -1 724 726 728 -1 732 733 734 -1 733 732 735 -1 731 725 727 -1 725 731 736 -1 736 731 737 -1 737 708 738 -1 708 737 730 -1 730 737 729 -1 729 737 731 -1 739 740 741 -1 740 739 742 -1 742 739 743 -1 742 743 744 -1 744 743 745 -1 744 745 746 -1 746 745 710 -1 746 710 718 -1 746 718 719 -1 746 719 747 -1 710 745 738 -1 710 738 708 -1 747 719 721 -1 744 748 749 -1 748 744 746 -1 749 748 750 -1 750 748 751 -1 751 748 752 -1 752 748 753 -1 749 750 754 -1 752 753 755 -1 754 756 757 -1 756 754 750 -1 757 756 758 -1 757 758 759 -1 757 759 760 -1 709 723 720 -1 723 709 711 -1 708 722 711 -1 722 708 730 -1 755 732 734 -1 732 755 761 -1 761 755 753 -1 762 742 763 -1 742 762 740 -1 748 764 765 -1 764 748 746 -1 765 753 748 -1 753 765 761 -1 766 767 768 -1 767 766 769 -1 769 766 770 -1 770 766 771 -1 763 772 762 -1 772 763 773 -1 773 763 774 -1 773 774 775 -1 775 774 776 -1 775 776 765 -1 765 776 777 -1 765 777 778 -1 765 778 735 -1 765 735 761 -1 777 776 768 -1 777 768 767 -1 761 735 732 -1 775 764 779 -1 764 775 765 -1 779 764 720 -1 720 764 713 -1 713 764 714 -1 714 764 780 -1 779 720 781 -1 714 780 716 -1 781 723 736 -1 723 781 720 -1 736 723 724 -1 736 724 728 -1 736 728 725 -1 747 716 780 -1 716 747 721 -1 716 721 717 -1 780 746 747 -1 746 780 764 -1 759 782 760 -1 782 759 783 -1 758 783 759 -1 783 758 784 -1 756 784 758 -1 784 756 785 -1 750 785 756 -1 785 750 786 -1 750 787 786 -1 787 750 751 -1 733 751 752 -1 751 733 787 -1 733 778 787 -1 778 733 735 -1 784 767 769 -1 767 784 785 -1 769 783 784 -1 783 769 770 -1 783 771 782 -1 771 783 770 -1 734 752 755 -1 752 734 733 -1 787 777 786 -1 777 787 778 -1 785 777 767 -1 777 785 786 -1 749 774 744 -1 774 749 776 -1 763 744 774 -1 744 763 742 -1 754 776 749 -1 776 754 768 -1 781 737 738 -1 737 781 736 -1 757 771 766 -1 771 757 760 -1 771 760 782 -1 772 740 762 -1 740 772 741 -1 766 754 757 -1 754 766 768 -1 775 739 773 -1 739 775 743 -1 773 741 772 -1 741 773 739 -1 779 738 745 -1 738 779 781 -1 775 745 743 -1 745 775 779 -1 "
						                >
							<Coordinate DEF="coords_ME_04-1n_001"
							            point="19.838688 10.642389 34.070923 18.657585 16.154200 34.070923 18.657585 10.642389 34.070923 19.838688 16.154200 34.070923 13.954318 15.739357 31.269588 14.224477 11.327392 30.729269 13.954318 11.057232 31.269588 14.224477 15.469197 30.729269 19.838688 15.366798 31.708719 19.838688 10.642389 31.708719 19.838688 16.154200 31.708719 14.326876 11.429790 30.133915 14.326876 15.366798 30.133915 13.539474 16.154200 31.708719 13.539474 10.642389 31.708719 14.720577 10.642389 34.070923 13.539474 16.154200 34.070923 13.539474 10.642389 34.070923 14.720577 16.154200 34.070923 14.720577 16.154200 32.496120 18.657585 16.154200 32.496120 18.657585 10.642389 32.496120 14.720577 10.642389 32.496120 19.153685 11.327392 30.729269 19.051285 11.429790 30.133915 19.423843 15.366798 31.269588 19.423843 11.057232 31.269588 19.153685 15.366798 30.729269 19.153685 15.469197 30.729269 19.423843 15.739357 31.269588 19.051285 15.366798 30.133915 14.720577 -0.933172 29.543365 16.689081 -1.365485 30.133915 14.720577 -0.774934 30.133915 16.689081 -1.444604 29.838640 16.689081 -2.031135 29.523243 18.657585 -7.861548 28.952814 18.657585 -1.956036 28.952814 16.689081 -7.786450 29.523243 14.720577 -9.042650 30.133915 16.689081 -8.372980 29.838640 14.720577 -8.884413 29.543365 16.689081 -8.452099 30.133915 14.720577 10.839239 29.111052 16.689081 10.760120 29.838640 14.720577 11.271553 29.543365 16.689081 10.543963 29.622484 16.689081 -1.660761 29.622484 18.657585 -1.365485 29.111052 14.720577 -7.861548 28.952814 14.720577 -1.956036 28.952814 18.657585 11.429790 30.133915 16.689081 10.839239 30.133915 18.657585 11.271553 29.543365 16.689081 3.831744 29.838640 14.720577 3.752625 29.111052 14.720577 3.320312 29.543365 16.689081 4.047901 29.622484 18.657585 7.492783 24.228403 14.720577 10.117455 24.464624 18.657585 10.117455 24.464624 14.720577 7.492783 24.228403 16.689081 3.752625 30.133915 18.657585 3.320312 29.543365 18.657585 3.162074 30.133915 18.657585 -12.979658 27.771711 14.720577 -12.979658 30.133915 14.720577 -12.979658 27.771711 18.657585 -12.979658 30.133915 14.720577 11.429790 30.133915 18.657585 -0.774934 30.133915 18.657585 -0.933172 29.543365 14.720577 10.248688 28.952814 16.689081 10.173590 29.523243 14.720577 -0.381233 30.133915 18.657585 -0.381233 30.133915 14.720577 -8.452099 29.111052 16.689081 -8.156823 29.622484 18.657585 -7.730314 24.464624 14.720577 -5.105642 24.228403 18.657585 -5.105642 24.228403 14.720577 -7.730314 24.464624 18.657585 4.343176 28.952814 16.689081 4.418275 29.523243 18.657585 3.752625 29.111052 14.720577 4.343176 28.952814 14.720577 -1.365485 29.111052 18.657585 -9.042650 30.133915 14.720577 -12.454724 26.590609 18.657585 -12.454724 26.590609 18.657585 -9.830052 24.937065 14.720577 -9.830052 24.937065 18.657585 -11.404855 25.645727 14.720577 -11.404855 25.645727 14.720577 15.366798 30.133915 18.657585 15.366798 30.133915 18.657585 -8.452099 29.111052 18.657585 -8.884413 29.543365 18.657585 10.248688 28.952814 18.657585 10.839239 29.111052 18.657585 15.366798 27.771711 18.657585 12.217192 24.937065 18.657585 13.791995 25.645727 18.657585 14.841864 26.590609 18.657585 2.768373 26.196907 18.657585 2.768373 30.133915 18.657585 -0.381233 26.196907 14.720577 3.162074 30.133915 14.720577 15.366798 27.771711 14.720577 14.841864 26.590609 14.720577 13.791995 25.645727 14.720577 -0.381233 26.196907 14.720577 12.217192 24.937065 14.720577 2.768373 26.196907 14.720577 2.768373 30.133915 9.755454 3.110236 16.483320 9.755454 -0.826772 16.483320 9.509350 -0.826772 16.154350 9.509350 3.110236 16.154350 9.197268 3.110236 15.887153 9.197268 -0.826772 15.887153 8.834315 3.110236 15.694660 8.834315 -0.826772 15.694660 8.438054 3.110236 15.586188 8.438054 -0.826772 15.586188 8.027663 3.110236 15.566987 8.027663 -0.826772 15.566987 11.570971 3.110236 18.454494 11.570971 -0.826772 18.454494 11.567136 -0.826772 18.009720 11.567136 3.110236 18.009720 11.424850 -0.826772 17.588301 11.424850 3.110236 17.588301 11.158294 -0.826772 17.232229 11.158294 3.110236 17.232229 10.794027 3.110236 16.976986 10.794027 -0.826772 16.976986 10.368347 3.110236 16.848007 10.368347 -0.826772 16.848007 9.923672 3.110236 16.858143 9.923672 -0.826772 16.858143 8.027663 3.110236 17.141790 6.846561 3.110236 17.141790 6.846561 3.110236 17.535490 6.846561 3.110236 20.174038 6.846561 -0.433071 17.535490 6.846561 -0.826772 17.535490 6.846561 -0.826772 20.174038 6.846561 -0.433071 20.174038 6.846561 2.716536 17.535490 6.846561 2.716536 20.174038 4.878057 2.716536 17.535490 4.878057 -0.433071 17.535490 4.875749 -0.433071 20.891356 4.875749 2.716536 20.891356 6.846561 -0.826772 17.141790 8.027663 -0.826772 17.141790 14.720577 -2.401575 24.228403 14.720577 -0.826772 25.015806 14.720577 -2.401575 25.803207 14.720577 4.685040 24.228403 14.720577 3.110236 25.015806 14.720577 3.110236 25.803207 14.720577 4.685040 25.803207 14.720577 -0.826772 25.803207 13.539474 -0.826772 25.803207 13.539474 -2.401575 25.803207 18.657585 -0.826772 25.803207 19.248137 -0.826772 25.015806 18.657585 -0.826772 25.015806 19.838688 -0.826772 24.228403 19.248137 -0.826772 24.228403 19.838688 -0.826772 25.803207 14.130026 -0.826772 24.228403 13.539474 3.110236 24.228403 13.539474 -0.826772 24.228403 14.130026 3.110236 24.228403 19.838688 -2.401575 25.803207 18.657585 -2.401575 25.803207 13.539474 4.685040 23.441002 19.423843 4.270196 23.001871 13.954318 4.270196 23.001871 19.838688 4.685040 23.441002 19.153685 4.000037 22.461552 14.224477 4.000037 22.461552 19.153685 -1.716572 22.461552 19.423843 3.897638 23.001871 19.423843 -1.986732 23.001871 19.153685 3.897638 22.461552 14.326876 -1.614173 21.866199 19.051285 -1.614173 21.866199 14.224477 -1.716572 22.461552 13.954318 -1.986732 23.001871 19.838688 3.897638 23.441002 19.838688 -2.401575 23.441002 14.326876 3.897638 21.866199 13.539474 4.685040 25.803207 13.539474 3.110236 25.803207 13.539474 -2.401575 23.441002 19.838688 3.110236 25.803207 18.657585 4.685040 25.803207 18.657585 3.110236 25.803207 19.838688 4.685040 25.803207 18.657585 3.110236 25.015806 18.657585 -2.401575 24.228403 18.657585 4.685040 24.228403 19.051285 3.897638 21.866199 19.248137 3.110236 24.228403 19.248137 3.110236 25.015806 19.838688 3.110236 24.228403 14.130026 -0.826772 25.015806 14.130026 3.110236 25.015806 8.027663 8.622047 25.409506 6.846561 14.133859 25.409506 6.846561 8.622047 25.409506 8.027663 14.133859 25.409506 2.143294 13.719015 22.608171 2.413454 9.307050 22.067852 2.143294 9.036890 22.608171 2.413454 13.448855 22.067852 8.027663 13.346457 23.047302 8.027663 8.622047 23.047302 8.027663 14.133859 23.047302 2.515852 9.409449 21.472498 2.515852 13.346457 21.472498 1.728451 14.133859 23.047302 1.728451 8.622047 23.047302 2.909553 8.622047 25.409506 1.728451 14.133859 25.409506 1.728451 8.622047 25.409506 2.909553 14.133859 25.409506 2.909553 14.133859 23.834703 6.846561 14.133859 23.834703 6.846561 8.622047 23.834703 2.909553 8.622047 23.834703 7.342661 9.307050 22.067852 7.240262 9.409449 21.472498 7.612820 13.346457 22.608171 7.612820 9.036890 22.608171 7.342661 13.346457 22.067852 7.342661 13.448855 22.067852 7.612820 13.719015 22.608171 7.240262 13.346457 21.472498 8.027663 -11.850393 25.409506 6.846561 -6.338583 25.409506 6.846561 -11.850393 25.409506 8.027663 -6.338583 25.409506 2.143294 -6.753426 22.608171 2.413454 -11.165391 22.067852 2.143294 -11.435551 22.608171 2.413454 -7.023585 22.067852 8.027663 -7.125984 23.047302 8.027663 -11.850393 23.047302 8.027663 -6.338583 23.047302 2.515852 -11.062992 21.472498 2.515852 -7.125984 21.472498 1.728451 -6.338583 23.047302 1.728451 -11.850393 23.047302 2.909553 -11.850393 25.409506 1.728451 -6.338583 25.409506 1.728451 -11.850393 25.409506 2.909553 -6.338583 25.409506 2.909553 -6.338583 23.834703 6.846561 -6.338583 23.834703 6.846561 -11.850393 23.834703 2.909553 -11.850393 23.834703 7.342661 -11.165391 22.067852 7.240262 -11.062992 21.472498 7.612820 -7.125984 22.608171 7.612820 -11.435551 22.608171 7.342661 -7.125984 22.067852 7.342661 -7.023585 22.067852 7.612820 -6.753426 22.608171 7.240262 -7.125984 21.472498 2.909553 -2.007874 20.291395 4.878057 -1.712598 20.961065 2.909553 -1.417323 20.449635 4.878057 -2.082972 20.861824 4.878057 -1.496442 21.177223 2.909553 -0.985009 20.881947 6.846561 -7.125984 21.472498 4.878057 -6.456314 21.177223 4.878057 -6.535433 21.472498 6.846561 -6.967747 20.881947 6.846561 -2.007874 20.291395 6.846561 -1.417323 20.449635 6.846561 -0.985009 20.881947 6.846561 -6.535433 20.449635 4.878057 -6.240158 20.961065 6.846561 -0.826772 21.472498 4.878057 -1.417323 21.472498 2.909553 -6.967747 20.881947 2.909553 -7.125984 21.472498 2.909553 -0.826772 21.472498 6.846561 -11.062992 21.472498 2.909553 -11.062992 21.472498 2.909553 -5.944882 20.291395 4.878057 -5.869783 20.861824 2.909553 9.251211 20.881947 4.878057 8.818897 21.472498 2.909553 9.409449 21.472498 4.878057 8.739779 21.177223 6.846561 9.409449 21.472498 6.846561 9.251211 20.881947 2.909553 8.818897 20.449635 4.878057 8.523623 20.961065 6.846561 3.110236 21.472498 4.878057 3.779906 21.177223 4.878057 3.700788 21.472498 6.846561 3.268474 20.881947 2.909553 3.268474 20.881947 2.909553 3.110236 21.472498 2.909553 -6.535433 20.449635 6.846561 -5.944882 20.291395 2.909553 -11.062992 19.110294 2.909553 -7.283464 15.921317 2.909553 7.047244 15.566987 2.909553 -4.763780 15.566987 2.909553 9.566929 15.921317 2.909553 -9.173228 16.629978 2.909553 11.456693 16.629978 2.909553 -10.433071 17.692970 2.909553 -0.433071 17.535490 2.909553 -0.433071 21.472498 2.909553 2.716536 17.535490 2.909553 12.716536 17.692970 2.909553 3.700788 20.449635 2.909553 2.716536 21.472498 2.909553 4.291338 20.291395 2.909553 13.346457 19.110294 2.909553 8.228347 20.291395 2.909553 13.346457 21.472498 6.846561 3.700788 20.449635 4.878057 3.996063 20.961065 6.846561 -11.062992 19.110294 6.846561 -0.433071 21.472498 6.846561 -4.763780 15.566987 6.846561 7.047244 15.566987 6.846561 13.346457 21.472498 6.846561 13.346457 19.110294 6.846561 12.716536 17.692970 6.846561 8.228347 20.291395 6.846561 8.818897 20.449635 6.846561 9.566929 15.921317 6.846561 -7.283464 15.921317 6.846561 -9.173228 16.629978 6.846561 11.456693 16.629978 6.846561 2.716536 21.472498 6.846561 4.291338 20.291395 6.846561 -10.433071 17.692970 4.878057 8.153248 20.861824 4.878057 4.366437 20.861824 0.271008 3.110236 28.852863 0.271008 -0.826772 22.567343 0.271008 -0.826772 28.852863 0.271008 3.110236 22.567343 26.013506 3.110236 14.035776 25.744200 3.110236 13.295860 24.265476 3.110236 15.245407 22.673901 3.110236 16.654556 21.261419 3.110236 18.243177 14.326876 3.110236 21.866199 14.224477 3.110236 22.461552 13.954318 3.110236 23.001871 13.539474 3.110236 23.441002 13.539474 3.110236 24.022532 20.048128 3.110236 19.988668 18.633963 3.110236 21.866199 19.051285 3.110236 21.866199 19.289446 2.473290 21.866199 20.228024 2.473290 20.098410 19.434011 1.813318 21.866199 20.337221 1.813318 20.165022 19.482479 1.141732 21.866199 20.373831 1.141732 20.187355 20.337221 0.470146 20.165022 19.434011 0.470146 21.866199 26.013506 -0.826772 14.035776 24.395508 -0.189826 15.411231 24.265476 -0.826772 15.245407 26.087879 -0.189826 14.240115 24.474438 1.813318 15.511886 26.087879 2.473290 14.240115 24.395508 2.473290 15.411231 26.133024 1.813318 14.364149 24.474438 0.470146 15.511886 26.133024 0.470146 14.364149 20.048128 -0.826772 19.988668 19.289446 -0.189826 21.866199 19.051285 -0.826772 21.866199 20.228024 -0.189826 20.098410 14.326876 -0.826772 21.866199 21.261419 -0.826772 18.243177 25.744200 -0.826772 13.295860 22.673901 -0.826772 16.654556 14.224477 -0.826772 22.461552 13.954318 -0.826772 23.001871 13.539474 -0.826772 23.441002 13.539474 -0.826772 24.022532 21.426970 2.473290 18.373556 21.527458 1.813318 18.452696 21.561150 1.141732 18.479229 21.527458 0.470146 18.452696 21.426970 -0.189826 18.373556 22.822750 2.473290 16.803719 22.913103 1.813318 16.894260 22.943394 1.141732 16.924616 22.913103 0.470146 16.894260 22.822750 -0.189826 16.803719 24.500900 1.141732 15.545632 26.148159 1.141732 14.405733 25.744200 1.141732 13.295860 0.271008 -0.826772 15.566987 0.271008 -0.826772 20.291395 0.271008 -0.433071 20.291395 0.271008 3.110236 15.566987 0.271008 2.716536 20.291395 0.271008 2.716536 23.834703 0.271008 3.110236 20.291395 0.271008 -0.433071 23.834703 1.334750 -0.433071 20.291395 1.925301 -0.433071 20.449635 2.357615 -0.433071 20.881947 2.515852 -0.433071 21.472498 2.413454 -0.433071 22.067852 2.143294 -0.433071 22.608171 1.728451 -0.433071 23.047302 1.728451 -0.433071 23.834703 1.334750 -0.826772 20.291395 1.728451 -0.826772 15.566987 1.728451 -0.826772 17.141790 2.909553 -0.826772 17.141790 2.909553 -0.826772 17.535490 1.925301 -0.826772 20.449635 2.357615 -0.826772 20.881947 2.515852 -0.826772 21.472498 2.909553 -0.826772 23.834703 2.413454 -0.826772 22.067852 2.143294 -0.826772 22.608171 1.728451 -0.826772 23.047302 1.728451 -0.826772 23.834703 1.728451 3.110236 15.566987 2.909553 3.110236 17.535490 2.909553 3.110236 17.141790 1.728451 3.110236 17.141790 1.334750 3.110236 20.291395 1.925301 3.110236 20.449635 2.357615 3.110236 20.881947 2.515852 3.110236 21.472498 2.909553 3.110236 23.834703 2.413454 3.110236 22.067852 2.143294 3.110236 22.608171 1.728451 3.110236 23.047302 1.728451 3.110236 23.834703 1.334750 2.716536 20.291395 1.925301 2.716536 20.449635 2.357615 2.716536 20.881947 2.515852 2.716536 21.472498 2.413454 2.716536 22.067852 2.143294 2.716536 22.608171 1.728451 2.716536 23.047302 1.728451 2.716536 23.834703 4.878057 2.716536 23.834703 4.878057 -0.433071 23.834703 2.909553 2.716536 23.834703 2.909553 -0.433071 23.834703 2.909553 -2.401575 15.566987 2.909553 -0.826772 16.354387 2.909553 -2.401575 17.141790 2.909553 4.685040 15.566987 2.909553 3.110236 16.354387 2.909553 4.685040 17.141790 1.728451 -2.401575 17.141790 7.437112 -0.826772 16.354387 6.846561 -0.826772 16.354387 7.437112 -0.826772 15.566987 2.319002 -0.826772 15.566987 2.319002 3.110236 15.566987 8.027663 -2.401575 17.141790 6.846561 -2.401575 17.141790 1.728451 4.685040 14.779585 7.612820 4.270196 14.340454 2.143294 4.270196 14.340454 8.027663 4.685040 14.779585 7.342661 4.000037 13.800135 2.413454 4.000037 13.800135 7.342661 -1.716572 13.800135 7.612820 3.897638 14.340454 7.612820 -1.986732 14.340454 7.342661 3.897638 13.800135 2.515852 -1.614173 13.204782 7.240262 -1.614173 13.204782 2.413454 -1.716572 13.800135 2.143294 -1.986732 14.340454 8.027663 3.897638 14.779585 8.027663 -2.401575 14.779585 2.515852 3.897638 13.204782 1.728451 4.685040 17.141790 1.728451 -2.401575 14.779585 6.846561 4.685040 17.141790 8.027663 4.685040 17.141790 6.846561 3.110236 16.354387 6.846561 -2.401575 15.566987 6.846561 4.685040 15.566987 7.240262 3.897638 13.204782 7.437112 3.110236 15.566987 7.437112 3.110236 16.354387 2.319002 -0.826772 16.354387 2.319002 3.110236 16.354387 0.271008 2.716536 15.566987 0.271008 -0.433071 12.023680 0.271008 -0.433071 15.566987 0.271008 -0.826772 12.023680 0.271008 3.110236 7.299270 0.271008 -0.826772 7.299270 0.271008 2.716536 12.023680 0.271008 3.110236 12.023680 1.334750 -0.433071 12.023680 1.925301 -0.433071 12.181917 2.357615 -0.433071 12.614231 2.515852 -0.433071 13.204782 2.413454 -0.433071 13.800135 2.143294 -0.433071 14.340454 1.728451 -0.433071 14.779585 1.728451 -0.433071 15.566987 1.334750 -0.826772 12.023680 7.240262 -0.826772 13.204782 7.240262 -0.826772 10.842577 1.925301 -0.826772 12.181917 2.357615 -0.826772 12.614231 2.515852 -0.826772 13.204782 0.941049 -0.826772 7.299270 3.460734 -0.826772 7.653601 5.350498 -0.826772 8.362262 6.610341 -0.826772 9.425254 0.941049 3.110236 7.299270 3.460734 3.110236 7.653601 5.350498 3.110236 8.362262 6.610341 3.110236 9.425254 7.240262 3.110236 10.842577 1.334750 3.110236 12.023680 7.240262 3.110236 13.204782 1.925301 3.110236 12.181917 2.357615 3.110236 12.614231 2.515852 3.110236 13.204782 1.334750 2.716536 12.023680 1.728451 2.716536 15.566987 2.515852 2.716536 13.204782 2.413454 2.716536 13.800135 1.728451 2.716536 14.779585 2.143294 2.716536 14.340454 1.925301 2.716536 12.181917 2.357615 2.716536 12.614231 18.657585 20.039370 32.496120 14.720577 -17.755905 32.496120 14.720577 20.039370 32.496120 18.657585 -17.755905 32.496120 18.657585 -17.755905 38.401630 14.720577 -17.755905 38.401630 14.720577 20.039370 38.401630 18.657585 20.039370 38.401630 6.846561 20.039370 32.102421 2.909553 -17.755905 32.102421 2.909553 20.039370 32.102421 6.846561 -17.755905 32.102421 6.846561 -17.755905 38.007931 2.909553 -17.755905 38.007931 2.909553 20.039370 38.007931 6.846561 20.039370 38.007931 19.827032 -1.988356 31.708719 14.708922 -1.988356 32.496120 13.527820 -1.988356 31.708719 18.645929 -1.988356 32.496120 18.645929 -1.988356 34.070923 19.827032 -1.988356 34.070923 14.708922 -1.988356 34.070923 13.527820 -1.988356 34.070923 19.827032 4.310856 34.070923 19.827032 3.523454 31.708719 19.827032 4.310856 31.708719 19.412189 3.523454 31.269588 19.412189 3.896013 31.269588 19.412189 -1.573513 31.269588 13.942663 3.896013 31.269588 13.527820 4.310856 31.708719 19.142029 3.523454 30.729269 19.142029 3.625853 30.729269 19.142029 -1.303354 30.729269 18.645929 4.310856 32.496120 18.645929 4.310856 34.070923 14.708922 4.310856 34.070923 13.527820 4.310856 34.070923 14.708922 4.310856 32.496120 14.212822 3.625853 30.729269 19.039631 -1.200955 30.133915 19.039631 3.523454 30.133915 13.942663 -1.573513 31.269588 14.212822 -1.303354 30.729269 14.315221 -1.200955 30.133915 14.315221 3.523454 30.133915 0.271008 3.110236 32.496120 0.271008 -0.826772 32.496120 14.315221 3.110236 30.133915 14.315221 3.110236 32.496120 12.973844 3.110236 24.228403 22.515852 3.110236 25.015806 20.232388 3.110236 24.228403 24.563097 3.110236 30.133915 22.200891 1.141732 24.228403 24.484356 1.141732 25.015806 22.515852 -0.826772 25.015806 20.232388 -0.826772 24.228403 26.239166 1.141732 29.402832 24.563097 -0.826772 30.133915 12.973844 -0.826772 24.228403 14.315221 -0.826772 30.133915 14.315221 -0.826772 32.496120 19.838688 -13.767060 34.070923 18.657585 -8.255249 34.070923 18.657585 -13.767060 34.070923 19.838688 -8.255249 34.070923 13.954318 -8.670092 31.269588 14.224477 -13.082057 30.729269 13.954318 -13.352217 31.269588 14.224477 -8.940251 30.729269 19.838688 -9.042650 31.708719 19.838688 -13.767060 31.708719 19.838688 -8.255249 31.708719 14.326876 -12.979658 30.133915 14.326876 -9.042650 30.133915 13.539474 -8.255249 31.708719 13.539474 -13.767060 31.708719 14.720577 -13.767060 34.070923 13.539474 -8.255249 34.070923 13.539474 -13.767060 34.070923 14.720577 -8.255249 34.070923 14.720577 -8.255249 32.496120 18.657585 -8.255249 32.496120 18.657585 -13.767060 32.496120 14.720577 -13.767060 32.496120 19.153685 -13.082057 30.729269 19.051285 -12.979658 30.133915 19.423843 -9.042650 31.269588 19.423843 -13.352217 31.269588 19.153685 -9.042650 30.729269 19.153685 -8.940251 30.729269 19.423843 -8.670092 31.269588 19.051285 -9.042650 30.133915 8.027663 14.527559 33.677223 6.846561 20.039370 33.677223 6.846561 14.527559 33.677223 8.027663 20.039370 33.677223 2.143294 19.624527 30.875887 2.413453 15.212562 30.335567 2.143294 14.942402 30.875887 2.413453 19.354368 30.335567 8.027663 19.251968 31.315018 8.027663 14.527559 31.315018 8.027663 20.039370 31.315018 2.515852 15.314960 29.740215 2.515852 19.251968 29.740215 1.728451 20.039370 31.315018 1.728451 14.527559 31.315018 2.909553 14.527559 33.677223 1.728451 20.039370 33.677223 1.728451 14.527559 33.677223 2.909553 20.039370 33.677223 6.846561 14.527559 32.102421 2.909553 14.527559 32.102421 7.342660 15.212562 30.335567 7.240262 15.314960 29.740215 7.612820 19.251968 30.875887 7.612820 14.942402 30.875887 7.342660 19.251968 30.335567 7.342660 19.354368 30.335567 7.612820 19.624527 30.875887 7.240262 19.251968 29.740215 8.027664 -17.755905 33.677223 6.846561 -12.244095 33.677223 6.846561 -17.755905 33.677223 8.027664 -12.244095 33.677223 2.143294 -12.658937 30.875887 2.413454 -17.070902 30.335567 2.143294 -17.341063 30.875887 2.413454 -12.929097 30.335567 8.027664 -13.031496 31.315018 8.027664 -17.755905 31.315018 8.027664 -12.244095 31.315018 2.515853 -16.968504 29.740215 2.515853 -13.031496 29.740215 1.728451 -12.244095 31.315018 1.728451 -17.755905 31.315018 2.909554 -17.755905 33.677223 1.728451 -12.244095 33.677223 1.728451 -17.755905 33.677223 2.909554 -12.244095 33.677223 2.909554 -12.244095 32.102421 6.846561 -12.244095 32.102421 6.846561 -17.755905 32.102421 2.909554 -17.755905 32.102421 7.342661 -17.070902 30.335567 7.240263 -16.968504 29.740215 7.612821 -13.031496 30.875887 7.612821 -17.341063 30.875887 7.342661 -13.031496 30.335567 7.342661 -12.929097 30.335567 7.612821 -12.658937 30.875887 7.240263 -13.031496 29.740215 2.909554 -11.850393 28.559113 4.878057 -2.082972 29.129541 2.909554 -2.007874 28.559113 4.878057 -11.775295 29.129541 4.878057 -1.496442 29.444939 6.846561 -1.417323 28.717350 6.846561 -0.985009 29.149664 4.878057 -1.712598 29.228783 6.846561 -0.826772 29.740215 4.878057 -1.417323 29.740215 2.909553 -1.417323 28.717350 2.909553 -0.985009 29.149664 6.846561 -2.007874 28.559113 2.909553 -0.826772 29.740215 4.878057 -12.145669 29.228783 6.846561 -11.850393 28.559113 6.846561 -12.440945 28.717350 6.846561 -13.031496 29.740215 4.878057 -12.361826 29.444939 4.878057 -12.440945 29.740215 6.846561 -12.873259 29.149664 2.909554 -12.873259 29.149664 2.909554 -12.440945 28.717350 2.909554 -13.031496 29.740215 6.846561 3.110236 29.740215 4.878057 3.779906 29.444939 4.878057 3.700787 29.740215 6.846561 3.268474 29.149664 6.846561 -16.968504 29.740215 2.909554 -16.968504 29.740215 2.909554 -16.968504 27.378010 2.909554 -14.133859 24.189034 2.909553 14.527559 23.834703 2.909554 -12.244095 23.834703 2.909553 16.417322 24.189034 2.909554 -15.551181 24.897696 2.909553 17.834646 24.897696 2.909554 -16.496063 25.960688 2.909553 -0.433071 25.803207 2.909553 -0.433071 29.740215 2.909553 2.716535 25.803207 2.909553 18.779528 25.960688 2.909553 4.291338 28.559113 2.909553 3.700787 28.717350 2.909553 3.268474 29.149664 2.909553 2.716535 29.740215 2.909553 19.251968 27.378010 2.909553 3.110236 29.740215 2.909553 14.133859 28.559113 2.909553 19.251968 29.740215 2.909553 14.724409 28.717350 2.909553 15.156723 29.149664 2.909553 15.314960 29.740215 6.846561 2.716536 29.740215 6.846561 14.527559 23.834703 6.846561 16.417322 24.189034 6.846561 -0.433071 25.803207 6.846561 2.716536 25.803207 6.846561 19.251968 29.740215 6.846561 14.133859 28.559113 6.846561 19.251968 27.378010 6.846561 14.724409 28.717350 6.846561 15.156723 29.149664 6.846561 15.314960 29.740215 6.846561 -12.244095 23.834703 6.846561 -14.133859 24.189034 6.846561 17.834646 24.897696 6.846561 -15.551181 24.897696 6.846561 18.779528 25.960688 6.846561 4.291338 28.559113 6.846561 3.700788 28.717350 6.846561 -16.496063 25.960688 6.846561 -0.433071 29.740215 6.846561 -16.968504 27.378010 4.878057 14.724409 29.740215 4.878057 14.645290 29.444939 4.878057 14.429133 29.228783 4.878057 14.058760 29.129541 4.878057 4.366437 29.129541 4.878057 3.996063 29.228783 "
							            />
						</IndexedFaceSet>
					</Shape>
				</Group>
			</Transform>
		</Transform>
	</Scene>
</X3D>