<?xml version="1.0" encoding="UTF-8"?>
<!DOCTYPE X3D PUBLIC "ISO//Web3D//DTD X3D 3.0//EN" "http://www.web3d.org/specifications/x3d-3.0.dtd">
<X3D version="3.0" profile="Immersive" xmlns:xsd="http://www.w3.org/2001/XMLSchema-instance" xsd:noNamespaceSchemaLocation="http://www.web3d.org/specifications/x3d-3.0.xsd">
	<head>
		<meta name="filename" content="04-2n.x3d" />
		<meta name="created" content="2026-06-21 15:09:37" />
		<meta name="generator" content="Blender 4.5.4 LTS" />
		<meta name="translator" content="Web3D X3D/VRML2 format v2.5.1" />
	</head>
	<Scene>
		<NavigationInfo headlight="true"
		                visibilityLimit="0.0"
		                type='"EXAMINE", "ANY"'
		                avatarSize="0.25, 1.75, 0.75"
		                />
		<Background DEF="WO_World"
		            groundColor="0.051 0.051 0.051"
		            skyColor="0.051 0.051 0.051"
		            />
		<Transform DEF="_04-2n_TRANSFORM"
		           translation="0.000000 0.000000 0.000000"
		           scale="1.000000 1.000000 1.000000"
		           rotation="0.000000 0.707107 0.707107 3.141593"
		           >
			<Transform DEF="_04-2n_ifs_TRANSFORM"
			           translation="0.000000 0.000000 0.000000"
			           scale="1.000000 1.000000 1.000000"
			           rotation="0.000000 1.000000 0.000000 0.000000"
			           >
				<Group DEF="group_ME_04-2n_001">
					<Shape>
						<Appearance>
						</Appearance>
						<IndexedFaceSet solid="false"
						                coordIndex="0 1 2 -1 1 0 3 -1 4 3 5 -1 3 4 1 -1 4 6 7 -1 6 4 5 -1 3 6 5 -1 6 3 0 -1 8 9 10 -1 9 8 11 -1 9 11 12 -1 9 13 14 -1 13 9 10 -1 15 13 16 -1 13 15 14 -1 16 17 15 -1 17 16 18 -1 19 9 12 -1 9 19 14 -1 14 19 7 -1 14 7 4 -1 20 1 2 -1 15 21 17 -1 21 15 1 -1 21 1 20 -1 21 20 22 -1 4 15 14 -1 15 4 1 -1 23 20 24 -1 20 23 22 -1 12 25 19 -1 25 12 11 -1 18 26 27 -1 26 18 17 -1 26 17 21 -1 26 28 27 -1 28 26 23 -1 28 24 29 -1 24 28 23 -1 26 22 23 -1 22 26 21 -1 29 0 30 -1 0 29 24 -1 30 0 25 -1 25 0 6 -1 0 24 2 -1 2 24 20 -1 6 19 25 -1 19 6 7 -1 27 16 18 -1 10 30 8 -1 30 10 13 -1 30 13 29 -1 29 13 16 -1 29 16 27 -1 29 27 28 -1 8 25 11 -1 25 8 30 -1 4 31 1 -1 31 4 32 -1 31 32 33 -1 1 34 4 -1 34 1 35 -1 36 15 37 -1 15 36 14 -1 38 15 14 -1 15 38 39 -1 40 41 42 -1 41 40 43 -1 43 40 44 -1 43 44 45 -1 45 44 46 -1 45 46 47 -1 47 46 37 -1 47 37 39 -1 39 37 15 -1 47 35 31 -1 35 47 39 -1 31 35 1 -1 48 49 50 -1 49 48 51 -1 51 48 52 -1 51 52 53 -1 53 52 54 -1 53 54 55 -1 55 54 33 -1 55 33 34 -1 34 33 32 -1 4 34 32 -1 55 38 36 -1 38 55 34 -1 36 38 14 -1 42 51 40 -1 51 42 49 -1 43 50 41 -1 50 43 48 -1 45 48 43 -1 48 45 52 -1 47 52 45 -1 52 47 54 -1 41 49 42 -1 49 41 50 -1 31 54 47 -1 54 31 33 -1 46 36 37 -1 36 46 55 -1 40 53 44 -1 53 40 51 -1 38 35 39 -1 35 38 34 -1 44 55 46 -1 55 44 53 -1 25 56 57 -1 56 25 11 -1 58 59 60 -1 59 58 61 -1 62 58 63 -1 58 62 61 -1 61 62 64 -1 56 61 64 -1 61 56 65 -1 65 56 11 -1 65 11 66 -1 66 11 67 -1 67 11 68 -1 68 11 69 -1 59 61 65 -1 70 69 71 -1 69 70 68 -1 72 68 70 -1 68 72 67 -1 73 67 72 -1 67 73 66 -1 65 73 74 -1 73 65 66 -1 60 65 74 -1 65 60 59 -1 64 57 56 -1 57 64 62 -1 63 57 62 -1 60 74 58 -1 58 57 63 -1 57 58 74 -1 57 74 25 -1 25 74 73 -1 25 73 72 -1 25 72 70 -1 25 70 71 -1 25 69 11 -1 69 25 71 -1 75 76 77 -1 76 75 78 -1 76 78 79 -1 79 78 80 -1 80 78 81 -1 82 77 76 -1 77 83 84 -1 83 77 82 -1 85 86 87 -1 86 88 89 -1 88 86 90 -1 90 86 85 -1 91 92 93 -1 92 91 94 -1 95 85 96 -1 85 95 90 -1 97 98 99 -1 98 97 100 -1 99 101 102 -1 101 99 98 -1 103 104 105 -1 104 103 106 -1 104 106 101 -1 104 101 98 -1 103 107 108 -1 107 103 109 -1 105 109 103 -1 109 105 110 -1 105 111 112 -1 111 105 104 -1 111 104 98 -1 111 98 100 -1 102 107 109 -1 107 102 113 -1 114 92 115 -1 92 114 97 -1 83 116 84 -1 116 83 93 -1 116 93 97 -1 97 93 92 -1 117 118 119 -1 118 117 120 -1 118 121 119 -1 85 122 96 -1 122 85 87 -1 122 87 123 -1 123 87 121 -1 123 121 118 -1 99 109 110 -1 109 99 102 -1 102 124 113 -1 124 102 101 -1 122 78 75 -1 78 122 123 -1 112 110 105 -1 110 112 116 -1 124 107 113 -1 107 124 108 -1 97 110 116 -1 110 97 99 -1 125 86 89 -1 86 125 126 -1 80 114 115 -1 114 80 81 -1 88 125 89 -1 125 88 127 -1 112 122 116 -1 122 112 95 -1 122 95 96 -1 116 75 84 -1 75 116 122 -1 84 75 77 -1 111 88 112 -1 88 111 127 -1 127 111 117 -1 117 111 120 -1 120 111 100 -1 112 90 95 -1 90 112 88 -1 97 78 100 -1 78 97 114 -1 78 114 81 -1 100 123 120 -1 123 100 78 -1 120 123 118 -1 108 106 103 -1 106 108 124 -1 106 124 101 -1 83 91 93 -1 91 83 128 -1 128 83 76 -1 76 83 82 -1 86 121 87 -1 121 86 126 -1 129 91 128 -1 91 129 94 -1 80 129 79 -1 129 92 94 -1 92 129 115 -1 115 129 80 -1 76 129 128 -1 129 76 79 -1 117 125 127 -1 125 117 126 -1 126 117 121 -1 121 117 119 -1 130 131 57 -1 57 56 130 -1 132 133 134 -1 134 135 132 -1 134 136 137 -1 137 135 134 -1 136 138 139 -1 139 137 136 -1 138 140 141 -1 141 139 138 -1 140 142 143 -1 143 141 140 -1 142 144 145 -1 145 143 142 -1 145 144 146 -1 146 147 145 -1 147 146 148 -1 148 149 147 -1 149 148 150 -1 150 151 149 -1 151 150 152 -1 152 153 151 -1 153 152 154 -1 154 155 153 -1 155 154 131 -1 131 130 155 -1 57 133 132 -1 132 56 57 -1 155 130 56 -1 56 153 155 -1 56 151 153 -1 56 149 151 -1 56 147 149 -1 56 145 147 -1 56 143 145 -1 56 141 143 -1 56 139 141 -1 56 137 139 -1 56 135 137 -1 56 132 135 -1 57 131 154 -1 154 152 57 -1 152 150 57 -1 150 148 57 -1 148 146 57 -1 146 144 57 -1 144 142 57 -1 142 140 57 -1 140 138 57 -1 138 136 57 -1 136 134 57 -1 134 133 57 -1 "
						                >
							<Coordinate DEF="coords_ME_04-2n_001"
							            point="8.295380 16.929134 24.592466 8.295380 17.374672 26.590609 8.295380 16.929134 26.590609 8.295380 17.374672 24.592466 4.358372 17.374672 26.590609 4.358372 17.374672 24.592466 4.358372 16.929134 24.592466 4.358372 16.929134 26.590609 2.611341 20.866142 24.228403 4.358372 20.866142 26.590609 4.358372 20.866142 24.228403 1.611303 20.866142 24.592466 1.611303 20.866142 26.590609 4.358372 20.524279 24.228403 4.358372 20.524279 26.590609 8.295380 20.524279 26.590609 8.295380 20.524279 24.228403 8.295380 20.866142 26.590609 8.295380 20.866142 24.228403 1.611303 16.929134 26.590609 12.783271 16.929134 26.590609 12.783271 20.866142 26.590609 14.751775 18.897638 26.590609 14.121854 18.897638 25.015806 12.153350 16.929134 25.015806 1.611303 16.929134 24.592466 12.153350 20.866142 25.015806 9.869885 20.866142 24.228403 11.838389 18.897638 24.228403 9.869885 16.929134 24.228403 2.611341 16.929134 24.228403 8.295380 5.301182 26.590609 4.358372 5.492783 26.590609 4.358372 5.301182 26.590609 4.358372 17.374672 26.196907 8.295380 17.374672 26.196907 4.358372 32.597771 26.590609 8.295380 32.597771 26.590609 4.358372 20.524279 26.196907 8.295380 20.524279 26.196907 8.295380 27.873360 24.464624 8.295380 12.650263 24.228403 8.295380 25.248688 24.228403 8.295380 10.025591 24.464624 8.295380 29.973097 24.937065 8.295380 7.925854 24.937065 8.295380 31.547901 25.645727 8.295380 6.351050 25.645727 4.358372 10.025591 24.464624 4.358372 25.248688 24.228403 4.358372 12.650263 24.228403 4.358372 27.873360 24.464624 4.358372 7.925854 24.937065 4.358372 29.973097 24.937065 4.358372 6.351050 25.645727 4.358372 31.547901 25.645727 1.611303 20.866142 18.307981 1.611303 16.929134 18.307981 15.651301 16.929134 14.035776 8.689081 20.866142 21.866199 8.689081 16.929134 21.866199 15.651301 20.866142 14.035776 15.381994 18.897638 13.295860 15.381994 16.929134 13.295860 15.381994 20.866142 13.295860 3.964671 20.866142 21.866199 3.862273 20.866142 22.461552 3.592113 20.866142 23.001871 3.177270 20.866142 23.441002 3.177270 20.866142 24.022532 3.177270 16.929134 23.441002 3.177270 16.929134 24.022532 3.592113 16.929134 23.001871 3.862273 16.929134 22.461552 3.964671 16.929134 21.866199 4.358372 15.354331 24.228403 4.358372 16.929134 25.015806 4.358372 15.354331 25.803207 4.358372 22.440945 24.228403 4.358372 20.866142 25.015806 4.358372 20.866142 25.803207 4.358372 22.440945 25.803207 4.358372 16.929134 25.803207 3.177270 16.929134 25.803207 3.177270 15.354331 25.803207 8.295380 16.929134 25.803207 8.885931 16.929134 25.015806 8.295380 16.929134 25.015806 9.476482 16.929134 24.228403 8.885931 16.929134 24.228403 9.476482 16.929134 25.803207 3.767821 16.929134 24.228403 3.177270 20.866142 24.228403 3.177270 16.929134 24.228403 3.767821 20.866142 24.228403 9.476482 15.354331 25.803207 8.295380 15.354331 25.803207 3.177270 22.440945 23.441002 9.061639 22.026102 23.001871 3.592113 22.026102 23.001871 9.476482 22.440945 23.441002 8.791480 21.755941 22.461552 3.862273 21.755941 22.461552 8.791480 16.039333 22.461552 9.061639 21.653543 23.001871 9.061639 15.769174 23.001871 8.791480 21.653543 22.461552 3.964671 16.141733 21.866199 8.689081 16.141733 21.866199 3.862273 16.039333 22.461552 3.592113 15.769174 23.001871 9.476482 21.653543 23.441002 9.476482 15.354331 23.441002 3.964671 21.653543 21.866199 3.177270 22.440945 25.803207 3.177270 20.866142 25.803207 3.177270 15.354331 23.441002 9.476482 20.866142 25.803207 8.295380 22.440945 25.803207 8.295380 20.866142 25.803207 9.476482 22.440945 25.803207 8.295380 20.866142 25.015806 8.295380 15.354331 24.228403 8.295380 22.440945 24.228403 8.689081 21.653543 21.866199 8.885931 20.866142 24.228403 8.885931 20.866142 25.015806 9.476482 20.866142 24.228403 3.767821 16.929134 25.015806 3.767821 20.866142 25.015806 1.611303 20.866142 16.316803 1.611303 16.929134 16.316803 3.177270 20.866142 17.738016 3.177270 16.929134 17.738016 3.141758 16.929134 17.549665 3.141758 20.866142 17.549665 3.084370 16.929134 17.366787 3.084370 20.866142 17.366787 3.005900 16.929134 17.191916 3.005900 20.866142 17.191916 2.907435 16.929134 17.027470 2.907435 20.866142 17.027470 2.790337 16.929134 16.875729 2.790337 20.866142 16.875729 2.656228 16.929134 16.738789 2.656228 20.866142 16.738789 2.506964 16.929134 16.618549 2.506964 20.866142 16.618549 2.344610 16.929134 16.516672 2.344610 20.866142 16.516672 2.171415 16.929134 16.434568 2.171415 20.866142 16.434568 1.989776 16.929134 16.373375 1.989776 20.866142 16.373375 1.802206 16.929134 16.333937 1.802206 20.866142 16.333937 "
							            />
						</IndexedFaceSet>
					</Shape>
				</Group>
			</Transform>
		</Transform>
	</Scene>
</X3D>