<?xml version="1.0" encoding="UTF-8"?>
<!DOCTYPE X3D PUBLIC "ISO//Web3D//DTD X3D 3.0//EN" "http://www.web3d.org/specifications/x3d-3.0.dtd">
<X3D version="3.0" profile="Immersive" xmlns:xsd="http://www.w3.org/2001/XMLSchema-instance" xsd:noNamespaceSchemaLocation="http://www.web3d.org/specifications/x3d-3.0.xsd">
	<head>
		<meta name="filename" content="04-3n.x3d" />
		<meta name="created" content="2026-06-21 15:09:37" />
		<meta name="generator" content="Blender 4.5.4 LTS" />
		<meta name="translator" content="Web3D X3D/VRML2 format v2.5.1" />
	</head>
	<Scene>
		<NavigationInfo headlight="true"
		                visibilityLimit="0.0"
		                type='"EXAMINE", "ANY"'
		                avatarSize="0.25, 1.75, 0.75"
		                />
		<Background DEF="WO_World"
		            groundColor="0.051 0.051 0.051"
		            skyColor="0.051 0.051 0.051"
		            />
		<Transform DEF="_04-3n_TRANSFORM"
		           translation="0.000000 0.000000 0.000000"
		           scale="1.000000 1.000000 1.000000"
		           rotation="0.000000 0.707107 0.707107 3.141593"
		           >
			<Transform DEF="_04-3n_ifs_TRANSFORM"
			           translation="0.000000 0.000000 0.000000"
			           scale="1.000000 1.000000 1.000000"
			           rotation="0.000000 1.000000 0.000000 0.000000"
			           >
				<Group DEF="group_ME_04-3n_001">
					<Shape>
						<Appearance>
						</Appearance>
						<IndexedFaceSet solid="false"
						                coordIndex="0 1 2 -1 1 0 3 -1 1 4 5 -1 4 1 6 -1 6 1 3 -1 4 6 7 -1 7 6 8 -1 8 6 9 -1 6 3 10 -1 10 3 11 -1 11 3 12 -1 12 3 13 -1 6 14 9 -1 14 6 15 -1 14 15 16 -1 17 14 16 -1 14 17 18 -1 19 18 17 -1 18 19 20 -1 21 20 19 -1 20 21 22 -1 23 21 24 -1 21 23 22 -1 25 26 27 -1 26 25 28 -1 29 30 31 -1 30 29 32 -1 28 33 26 -1 33 28 34 -1 35 36 37 -1 36 35 38 -1 37 6 39 -1 6 37 15 -1 15 37 16 -1 16 37 36 -1 16 36 17 -1 17 36 19 -1 19 36 24 -1 19 24 21 -1 38 24 36 -1 24 38 23 -1 35 39 40 -1 39 35 37 -1 25 2 41 -1 2 25 39 -1 2 39 0 -1 39 25 27 -1 39 27 42 -1 39 42 40 -1 0 39 43 -1 0 43 44 -1 0 44 45 -1 0 45 46 -1 14 40 35 -1 40 14 9 -1 18 9 14 -1 9 18 47 -1 20 47 18 -1 47 20 48 -1 22 48 20 -1 48 22 49 -1 50 22 23 -1 22 50 49 -1 51 23 38 -1 23 51 50 -1 40 38 35 -1 38 40 51 -1 9 42 40 -1 42 9 8 -1 47 8 9 -1 8 47 52 -1 48 52 47 -1 52 48 53 -1 49 53 48 -1 53 49 54 -1 55 49 50 -1 49 55 54 -1 56 50 51 -1 50 56 55 -1 42 51 40 -1 51 42 56 -1 7 42 8 -1 42 7 27 -1 52 7 8 -1 7 52 31 -1 53 31 52 -1 31 53 29 -1 54 29 53 -1 29 54 57 -1 33 54 55 -1 54 33 57 -1 26 55 56 -1 55 26 33 -1 27 56 42 -1 56 27 26 -1 31 4 7 -1 4 31 30 -1 57 32 29 -1 32 57 58 -1 34 57 33 -1 57 34 58 -1 59 25 41 -1 25 59 28 -1 28 59 34 -1 34 59 58 -1 58 59 32 -1 32 59 5 -1 32 5 30 -1 30 5 4 -1 45 13 46 -1 13 45 12 -1 44 12 45 -1 12 44 11 -1 43 11 44 -1 11 43 10 -1 6 43 39 -1 43 6 10 -1 5 2 1 -1 2 5 41 -1 41 5 59 -1 0 13 3 -1 13 0 46 -1 60 61 62 -1 61 60 63 -1 64 63 65 -1 63 64 61 -1 64 66 67 -1 66 64 65 -1 63 66 65 -1 66 63 60 -1 68 69 70 -1 69 68 3 -1 69 3 71 -1 69 72 73 -1 72 69 70 -1 74 72 75 -1 72 74 73 -1 75 76 74 -1 76 75 77 -1 78 69 71 -1 69 78 73 -1 73 78 67 -1 73 67 64 -1 79 61 62 -1 74 80 76 -1 80 74 61 -1 80 61 79 -1 80 79 81 -1 64 74 73 -1 74 64 61 -1 82 79 83 -1 79 82 81 -1 71 0 78 -1 0 71 3 -1 77 84 85 -1 84 77 76 -1 84 76 80 -1 84 86 85 -1 86 84 82 -1 86 83 87 -1 83 86 82 -1 84 81 82 -1 81 84 80 -1 87 60 88 -1 60 87 83 -1 88 60 0 -1 0 60 66 -1 60 83 62 -1 62 83 79 -1 66 78 0 -1 78 66 67 -1 85 75 77 -1 70 88 68 -1 88 70 72 -1 88 72 87 -1 87 72 75 -1 87 75 85 -1 87 85 86 -1 68 0 3 -1 0 68 88 -1 64 89 61 -1 89 64 90 -1 89 90 91 -1 61 92 64 -1 92 61 93 -1 94 74 95 -1 74 94 73 -1 96 74 73 -1 74 96 97 -1 98 99 100 -1 99 98 101 -1 101 98 102 -1 101 102 103 -1 103 102 104 -1 103 104 105 -1 105 104 95 -1 105 95 97 -1 97 95 74 -1 105 93 89 -1 93 105 97 -1 89 93 61 -1 106 107 108 -1 107 106 109 -1 109 106 110 -1 109 110 111 -1 111 110 112 -1 111 112 113 -1 113 112 91 -1 113 91 92 -1 92 91 90 -1 64 92 90 -1 113 96 94 -1 96 113 92 -1 94 96 73 -1 100 109 98 -1 109 100 107 -1 101 108 99 -1 108 101 106 -1 103 106 101 -1 106 103 110 -1 105 110 103 -1 110 105 112 -1 99 107 100 -1 107 99 108 -1 89 112 105 -1 112 89 91 -1 104 94 95 -1 94 104 113 -1 98 111 102 -1 111 98 109 -1 96 93 97 -1 93 96 92 -1 102 113 104 -1 113 102 111 -1 114 115 116 -1 115 114 117 -1 115 117 118 -1 118 117 119 -1 119 117 120 -1 121 116 115 -1 116 122 123 -1 122 116 121 -1 124 125 126 -1 125 127 128 -1 127 125 129 -1 129 125 124 -1 130 131 132 -1 131 130 133 -1 134 124 135 -1 124 134 129 -1 136 137 138 -1 137 136 139 -1 138 140 141 -1 140 138 137 -1 142 143 144 -1 143 142 145 -1 143 145 140 -1 143 140 137 -1 142 146 147 -1 146 142 148 -1 144 148 142 -1 148 144 149 -1 144 150 151 -1 150 144 143 -1 150 143 137 -1 150 137 139 -1 141 146 148 -1 146 141 152 -1 153 131 154 -1 131 153 136 -1 122 155 123 -1 155 122 132 -1 155 132 136 -1 136 132 131 -1 156 157 158 -1 157 156 159 -1 157 160 158 -1 124 161 135 -1 161 124 126 -1 161 126 162 -1 162 126 160 -1 162 160 157 -1 138 148 149 -1 148 138 141 -1 141 163 152 -1 163 141 140 -1 161 117 114 -1 117 161 162 -1 151 149 144 -1 149 151 155 -1 163 146 152 -1 146 163 147 -1 136 149 155 -1 149 136 138 -1 164 125 128 -1 125 164 165 -1 119 153 154 -1 153 119 120 -1 127 164 128 -1 164 127 166 -1 151 161 155 -1 161 151 134 -1 161 134 135 -1 155 114 123 -1 114 155 161 -1 123 114 116 -1 150 127 151 -1 127 150 166 -1 166 150 156 -1 156 150 159 -1 159 150 139 -1 151 129 134 -1 129 151 127 -1 136 117 139 -1 117 136 153 -1 117 153 120 -1 139 162 159 -1 162 139 117 -1 159 162 157 -1 147 145 142 -1 145 147 163 -1 145 163 140 -1 122 130 132 -1 130 122 167 -1 167 122 115 -1 115 122 121 -1 125 160 126 -1 160 125 165 -1 168 130 167 -1 130 168 133 -1 119 168 118 -1 168 131 133 -1 131 168 154 -1 154 168 119 -1 115 168 167 -1 168 115 118 -1 156 164 166 -1 164 156 165 -1 165 156 160 -1 160 156 158 -1 169 170 2 -1 2 1 169 -1 171 172 173 -1 173 174 171 -1 173 175 176 -1 176 174 173 -1 175 177 178 -1 178 176 175 -1 177 179 180 -1 180 178 177 -1 179 181 182 -1 182 180 179 -1 181 183 184 -1 184 182 181 -1 184 183 185 -1 185 186 184 -1 186 185 187 -1 187 188 186 -1 188 187 189 -1 189 190 188 -1 190 189 191 -1 191 192 190 -1 192 191 193 -1 193 194 192 -1 194 193 170 -1 170 169 194 -1 2 172 171 -1 171 1 2 -1 194 169 1 -1 1 192 194 -1 1 190 192 -1 1 188 190 -1 1 186 188 -1 1 184 186 -1 1 182 184 -1 1 180 182 -1 1 178 180 -1 1 176 178 -1 1 174 176 -1 1 171 174 -1 2 170 193 -1 193 191 2 -1 191 189 2 -1 189 187 2 -1 187 185 2 -1 185 183 2 -1 183 181 2 -1 181 179 2 -1 179 177 2 -1 177 175 2 -1 175 173 2 -1 173 172 2 -1 "
						                >
							<Coordinate DEF="coords_ME_04-3n_001"
							            point="0.465634 16.929134 24.592466 0.465634 20.866142 18.307981 0.465634 16.929134 18.307981 0.465634 20.866142 24.592466 14.505632 20.866142 14.035776 14.236325 20.866142 13.295860 2.819002 20.866142 21.866199 12.757602 20.866142 15.245407 11.166026 20.866142 16.654556 9.753545 20.866142 18.243177 2.716603 20.866142 22.461552 2.446444 20.866142 23.001871 2.031600 20.866142 23.441002 2.031600 20.866142 24.022532 8.540254 20.866142 19.988668 7.126089 20.866142 21.866199 7.543411 20.866142 21.866199 7.781573 20.229197 21.866199 8.720149 20.229197 20.098410 7.926137 19.569223 21.866199 8.829347 19.569223 20.165022 7.974605 18.897638 21.866199 8.865957 18.897638 20.187355 8.829347 18.226051 20.165022 7.926137 18.226051 21.866199 14.505632 16.929134 14.035776 12.887634 17.566080 15.411231 12.757602 16.929134 15.245407 14.580006 17.566080 14.240115 12.966564 19.569223 15.511886 14.580006 20.229197 14.240115 12.887634 20.229197 15.411231 14.625150 19.569223 14.364149 12.966564 18.226051 15.511886 14.625150 18.226051 14.364149 8.540254 16.929134 19.988668 7.781573 17.566080 21.866199 7.543411 16.929134 21.866199 8.720149 17.566080 20.098410 2.819002 16.929134 21.866199 9.753545 16.929134 18.243177 14.236325 16.929134 13.295860 11.166026 16.929134 16.654556 2.716603 16.929134 22.461552 2.446444 16.929134 23.001871 2.031600 16.929134 23.441002 2.031600 16.929134 24.022532 9.919095 20.229197 18.373556 10.019585 19.569223 18.452696 10.053276 18.897638 18.479229 10.019585 18.226051 18.452696 9.919095 17.566080 18.373556 11.314876 20.229197 16.803719 11.405229 19.569223 16.894260 11.435520 18.897638 16.924616 11.405229 18.226051 16.894260 11.314876 17.566080 16.803719 12.993026 18.897638 15.545632 14.640285 18.897638 14.405733 14.236325 18.897638 13.295860 7.149711 16.929134 24.592466 7.149711 17.374672 26.590609 7.149711 16.929134 26.590609 7.149711 17.374672 24.592466 3.212703 17.374672 26.590609 3.212703 17.374672 24.592466 3.212703 16.929134 24.592466 3.212703 16.929134 26.590609 1.465672 20.866142 24.228403 3.212703 20.866142 26.590609 3.212703 20.866142 24.228403 0.465634 20.866142 26.590609 3.212703 20.524279 24.228403 3.212703 20.524279 26.590609 7.149711 20.524279 26.590609 7.149711 20.524279 24.228403 7.149711 20.866142 26.590609 7.149711 20.866142 24.228403 0.465634 16.929134 26.590609 11.637602 16.929134 26.590609 11.637602 20.866142 26.590609 13.606106 18.897638 26.590609 12.976184 18.897638 25.015806 11.007680 16.929134 25.015806 11.007680 20.866142 25.015806 8.724216 20.866142 24.228403 10.692719 18.897638 24.228403 8.724216 16.929134 24.228403 1.465672 16.929134 24.228403 7.149711 5.301182 26.590609 3.212703 5.492783 26.590609 3.212703 5.301182 26.590609 3.212703 17.374672 26.196907 7.149711 17.374672 26.196907 3.212703 32.597771 26.590609 7.149711 32.597771 26.590609 3.212703 20.524279 26.196907 7.149711 20.524279 26.196907 7.149711 27.873360 24.464624 7.149711 12.650263 24.228403 7.149711 25.248688 24.228403 7.149711 10.025591 24.464624 7.149711 29.973097 24.937065 7.149711 7.925854 24.937065 7.149711 31.547901 25.645727 7.149711 6.351050 25.645727 3.212703 10.025591 24.464624 3.212703 25.248688 24.228403 3.212703 12.650263 24.228403 3.212703 27.873360 24.464624 3.212703 7.925854 24.937065 3.212703 29.973097 24.937065 3.212703 6.351050 25.645727 3.212703 31.547901 25.645727 3.212703 15.354331 24.228403 3.212703 16.929134 25.015806 3.212703 15.354331 25.803207 3.212703 22.440945 24.228403 3.212703 20.866142 25.015806 3.212703 20.866142 25.803207 3.212703 22.440945 25.803207 3.212703 16.929134 25.803207 2.031600 16.929134 25.803207 2.031600 15.354331 25.803207 7.149711 16.929134 25.803207 7.740262 16.929134 25.015806 7.149711 16.929134 25.015806 8.330813 16.929134 24.228403 7.740262 16.929134 24.228403 8.330813 16.929134 25.803207 2.622152 16.929134 24.228403 2.031600 20.866142 24.228403 2.031600 16.929134 24.228403 2.622152 20.866142 24.228403 8.330813 15.354331 25.803207 7.149711 15.354331 25.803207 2.031600 22.440945 23.441002 7.915970 22.026102 23.001871 2.446444 22.026102 23.001871 8.330813 22.440945 23.441002 7.645810 21.755941 22.461552 2.716603 21.755941 22.461552 7.645810 16.039333 22.461552 7.915970 21.653543 23.001871 7.915970 15.769174 23.001871 7.645810 21.653543 22.461552 2.819002 16.141733 21.866199 7.543411 16.141733 21.866199 2.716603 16.039333 22.461552 2.446444 15.769174 23.001871 8.330813 21.653543 23.441002 8.330813 15.354331 23.441002 2.819002 21.653543 21.866199 2.031600 22.440945 25.803207 2.031600 20.866142 25.803207 2.031600 15.354331 23.441002 8.330813 20.866142 25.803207 7.149711 22.440945 25.803207 7.149711 20.866142 25.803207 8.330813 22.440945 25.803207 7.149711 20.866142 25.015806 7.149711 15.354331 24.228403 7.149711 22.440945 24.228403 7.543411 21.653543 21.866199 7.740262 20.866142 24.228403 7.740262 20.866142 25.015806 8.330813 20.866142 24.228403 2.622152 16.929134 25.015806 2.622152 20.866142 25.015806 0.465634 20.866142 16.316803 0.465634 16.929134 16.316803 2.031600 20.866142 17.738016 2.031600 16.929134 17.738016 1.996089 16.929134 17.549665 1.996089 20.866142 17.549665 1.938700 16.929134 17.366787 1.938700 20.866142 17.366787 1.860231 16.929134 17.191916 1.860231 20.866142 17.191916 1.761766 16.929134 17.027470 1.761766 20.866142 17.027470 1.644668 16.929134 16.875729 1.644668 20.866142 16.875729 1.510559 16.929134 16.738789 1.510559 20.866142 16.738789 1.361295 16.929134 16.618549 1.361295 20.866142 16.618549 1.198941 16.929134 16.516672 1.198941 20.866142 16.516672 1.025746 16.929134 16.434568 1.025746 20.866142 16.434568 0.844106 16.929134 16.373375 0.844106 20.866142 16.373375 0.656537 16.929134 16.333937 0.656537 20.866142 16.333937 "
							            />
						</IndexedFaceSet>
					</Shape>
				</Group>
			</Transform>
		</Transform>
	</Scene>
</X3D>