<?xml version="1.0" encoding="UTF-8"?>
<!DOCTYPE X3D PUBLIC "ISO//Web3D//DTD X3D 3.0//EN" "http://www.web3d.org/specifications/x3d-3.0.dtd">
<X3D version="3.0" profile="Immersive" xmlns:xsd="http://www.w3.org/2001/XMLSchema-instance" xsd:noNamespaceSchemaLocation="http://www.web3d.org/specifications/x3d-3.0.xsd">
	<head>
		<meta name="filename" content="05-1.x3d" />
		<meta name="created" content="2026-06-21 15:09:37" />
		<meta name="generator" content="Blender 4.5.4 LTS" />
		<meta name="translator" content="Web3D X3D/VRML2 format v2.5.1" />
	</head>
	<Scene>
		<NavigationInfo headlight="true"
		                visibilityLimit="0.0"
		                type='"EXAMINE", "ANY"'
		                avatarSize="0.25, 1.75, 0.75"
		                />
		<Background DEF="WO_World"
		            groundColor="0.051 0.051 0.051"
		            skyColor="0.051 0.051 0.051"
		            />
		<Transform DEF="_05-1_TRANSFORM"
		           translation="0.000000 0.000000 0.000000"
		           scale="1.000000 1.000000 1.000000"
		           rotation="0.000000 0.707107 0.707107 3.141593"
		           >
			<Transform DEF="_05-1_ifs_TRANSFORM"
			           translation="0.000000 0.000000 0.000000"
			           scale="1.000000 1.000000 1.000000"
			           rotation="0.000000 1.000000 0.000000 0.000000"
			           >
				<Group DEF="group_ME_05-1_001">
					<Shape>
						<Appearance>
						</Appearance>
						<IndexedFaceSet solid="false"
						                coordIndex="0 1 2 -1 1 0 3 -1 4 5 6 -1 5 4 7 -1 8 0 9 -1 0 8 3 -1 3 8 10 -1 7 11 5 -1 11 7 12 -1 13 6 14 -1 6 13 4 -1 15 16 17 -1 16 15 18 -1 13 19 10 -1 19 13 16 -1 19 16 18 -1 10 20 3 -1 20 10 19 -1 3 20 1 -1 1 21 2 -1 21 1 20 -1 21 19 22 -1 19 21 20 -1 23 11 24 -1 11 23 5 -1 23 25 26 -1 25 23 27 -1 25 27 28 -1 25 28 29 -1 26 5 23 -1 5 26 6 -1 19 15 22 -1 15 19 18 -1 26 8 9 -1 8 26 25 -1 8 25 29 -1 8 29 10 -1 4 28 7 -1 28 4 29 -1 13 29 4 -1 29 13 10 -1 24 27 23 -1 27 24 30 -1 27 30 28 -1 9 21 14 -1 21 9 0 -1 21 0 2 -1 14 22 17 -1 22 14 21 -1 17 22 15 -1 30 11 12 -1 11 30 24 -1 9 6 26 -1 6 9 14 -1 16 14 17 -1 14 16 13 -1 7 30 12 -1 30 7 28 -1 31 32 33 -1 32 31 34 -1 35 31 36 -1 31 35 34 -1 32 37 33 -1 37 32 38 -1 31 37 36 -1 37 31 33 -1 32 35 38 -1 35 32 34 -1 35 37 38 -1 37 35 36 -1 39 40 41 -1 40 39 42 -1 43 44 45 -1 44 43 46 -1 43 47 48 -1 47 43 45 -1 42 48 47 -1 48 42 39 -1 49 39 41 -1 39 49 48 -1 48 49 50 -1 48 50 51 -1 48 51 43 -1 43 52 46 -1 52 43 53 -1 53 43 54 -1 54 43 55 -1 55 43 51 -1 55 51 56 -1 55 56 57 -1 57 56 58 -1 57 58 59 -1 59 58 60 -1 60 58 61 -1 59 60 62 -1 60 61 63 -1 63 61 64 -1 64 61 65 -1 66 67 68 -1 62 69 70 -1 69 62 60 -1 70 69 71 -1 70 71 68 -1 70 68 72 -1 72 68 73 -1 73 68 67 -1 73 67 74 -1 59 75 76 -1 75 59 62 -1 76 75 77 -1 76 77 78 -1 76 78 79 -1 80 73 74 -1 73 80 81 -1 73 81 82 -1 83 74 67 -1 74 83 80 -1 84 82 81 -1 82 84 85 -1 86 75 62 -1 75 86 87 -1 88 89 90 -1 89 88 91 -1 92 93 94 -1 93 92 95 -1 96 62 70 -1 62 96 86 -1 97 86 98 -1 86 97 87 -1 93 65 99 -1 65 93 64 -1 100 101 102 -1 101 100 103 -1 41 104 49 -1 104 41 40 -1 105 68 100 -1 68 105 66 -1 59 106 107 -1 106 59 76 -1 93 108 94 -1 108 93 99 -1 85 73 82 -1 73 85 72 -1 109 95 92 -1 95 109 110 -1 111 89 112 -1 89 111 90 -1 53 113 52 -1 113 53 114 -1 103 69 115 -1 69 103 71 -1 116 103 115 -1 103 116 101 -1 97 112 87 -1 112 97 111 -1 98 96 117 -1 96 98 86 -1 85 70 72 -1 70 85 96 -1 116 110 109 -1 110 116 115 -1 88 79 91 -1 79 88 76 -1 76 88 106 -1 118 59 107 -1 59 118 57 -1 54 114 53 -1 114 54 119 -1 55 119 54 -1 119 55 120 -1 121 65 61 -1 65 121 108 -1 65 108 99 -1 89 77 112 -1 77 89 78 -1 100 71 103 -1 71 100 68 -1 117 85 84 -1 85 117 96 -1 95 60 63 -1 60 95 110 -1 52 44 46 -1 44 52 113 -1 112 75 87 -1 75 112 77 -1 57 120 55 -1 120 57 118 -1 95 64 93 -1 64 95 63 -1 110 69 60 -1 69 110 115 -1 91 78 89 -1 78 91 79 -1 105 102 122 -1 102 105 100 -1 61 123 121 -1 123 61 58 -1 51 124 56 -1 124 51 125 -1 58 124 123 -1 124 58 56 -1 113 45 44 -1 45 113 114 -1 45 114 119 -1 45 119 120 -1 45 120 47 -1 47 40 42 -1 40 47 104 -1 104 47 126 -1 126 47 125 -1 125 47 120 -1 125 120 118 -1 125 118 124 -1 124 118 123 -1 123 118 107 -1 123 107 97 -1 97 107 106 -1 97 106 111 -1 111 106 90 -1 90 106 88 -1 117 116 98 -1 116 117 101 -1 101 117 84 -1 101 84 102 -1 102 84 81 -1 102 81 122 -1 122 81 80 -1 122 80 83 -1 123 109 121 -1 109 123 98 -1 98 123 97 -1 109 98 116 -1 121 109 92 -1 121 92 94 -1 121 94 108 -1 122 66 105 -1 66 122 67 -1 67 122 83 -1 49 126 50 -1 126 49 104 -1 50 125 51 -1 125 50 126 -1 127 128 129 -1 128 127 130 -1 131 132 133 -1 132 131 134 -1 135 127 136 -1 127 135 130 -1 130 135 137 -1 134 138 132 -1 138 134 139 -1 140 133 141 -1 133 140 131 -1 142 143 144 -1 143 142 145 -1 140 146 137 -1 146 140 143 -1 146 143 145 -1 137 147 130 -1 147 137 146 -1 130 147 128 -1 128 148 129 -1 148 128 147 -1 148 146 149 -1 146 148 147 -1 150 138 151 -1 138 150 132 -1 150 152 153 -1 152 150 154 -1 152 154 155 -1 152 155 156 -1 153 132 150 -1 132 153 133 -1 146 142 149 -1 142 146 145 -1 153 135 136 -1 135 153 152 -1 135 152 156 -1 135 156 137 -1 131 155 134 -1 155 131 156 -1 140 156 131 -1 156 140 137 -1 151 154 150 -1 154 151 157 -1 154 157 155 -1 136 148 141 -1 148 136 127 -1 148 127 129 -1 141 149 144 -1 149 141 148 -1 144 149 142 -1 157 138 139 -1 138 157 151 -1 136 133 153 -1 133 136 141 -1 143 141 144 -1 141 143 140 -1 134 157 139 -1 157 134 155 -1 158 159 160 -1 159 158 161 -1 161 158 162 -1 162 158 163 -1 160 164 165 -1 164 160 159 -1 166 167 168 -1 167 163 158 -1 163 167 166 -1 168 169 170 -1 169 158 171 -1 158 169 168 -1 158 168 167 -1 168 172 173 -1 172 168 170 -1 170 174 175 -1 174 171 176 -1 171 174 170 -1 171 170 169 -1 166 177 178 -1 179 173 180 -1 173 179 181 -1 173 181 168 -1 168 181 177 -1 168 177 166 -1 170 182 172 -1 182 170 175 -1 165 173 160 -1 173 165 180 -1 175 183 184 -1 183 175 176 -1 176 175 174 -1 185 158 160 -1 158 185 171 -1 186 171 185 -1 171 186 176 -1 187 176 186 -1 176 187 183 -1 160 172 185 -1 172 160 173 -1 185 182 186 -1 182 185 172 -1 186 188 187 -1 188 186 182 -1 175 188 182 -1 188 175 184 -1 183 188 184 -1 188 183 187 -1 159 177 181 -1 177 159 161 -1 179 159 181 -1 159 179 164 -1 162 177 161 -1 177 162 178 -1 165 179 180 -1 179 165 164 -1 162 166 178 -1 166 162 163 -1 47 39 42 -1 39 47 48 -1 42 189 190 -1 189 42 39 -1 191 192 193 -1 192 191 194 -1 195 44 196 -1 44 195 46 -1 197 198 199 -1 198 197 200 -1 190 47 42 -1 44 191 196 -1 191 44 45 -1 191 45 194 -1 194 45 47 -1 194 47 190 -1 201 202 203 -1 202 201 204 -1 203 205 206 -1 205 203 202 -1 207 208 209 -1 208 207 210 -1 208 210 202 -1 202 210 205 -1 207 211 212 -1 211 207 213 -1 209 213 207 -1 213 209 214 -1 209 215 216 -1 215 209 208 -1 215 208 202 -1 215 202 204 -1 206 211 213 -1 211 206 217 -1 192 218 193 -1 218 192 201 -1 199 43 195 -1 43 199 198 -1 43 198 48 -1 48 198 39 -1 39 198 189 -1 46 195 43 -1 203 213 214 -1 213 203 206 -1 206 219 217 -1 219 206 205 -1 216 214 209 -1 214 216 218 -1 219 211 217 -1 211 219 212 -1 201 214 218 -1 214 201 203 -1 216 195 218 -1 195 216 197 -1 195 197 199 -1 218 196 193 -1 196 218 195 -1 193 196 191 -1 215 197 216 -1 197 215 200 -1 200 215 204 -1 201 190 204 -1 190 201 192 -1 190 192 194 -1 204 189 200 -1 189 204 190 -1 200 189 198 -1 212 210 207 -1 210 212 219 -1 210 219 205 -1 220 221 222 -1 221 220 223 -1 224 225 226 -1 225 224 227 -1 228 220 229 -1 220 228 223 -1 223 228 230 -1 227 231 225 -1 231 227 232 -1 233 226 234 -1 226 233 224 -1 235 236 237 -1 236 235 238 -1 233 239 230 -1 239 233 236 -1 239 236 238 -1 230 240 223 -1 240 230 239 -1 223 240 221 -1 221 241 222 -1 241 221 240 -1 241 239 242 -1 239 241 240 -1 243 231 244 -1 231 243 225 -1 243 245 246 -1 245 243 247 -1 245 247 248 -1 245 248 249 -1 246 225 243 -1 225 246 226 -1 239 235 242 -1 235 239 238 -1 246 228 229 -1 228 246 245 -1 228 245 249 -1 228 249 230 -1 224 248 227 -1 248 224 249 -1 233 249 224 -1 249 233 230 -1 244 247 243 -1 247 244 250 -1 247 250 248 -1 229 241 234 -1 241 229 220 -1 241 220 222 -1 234 242 237 -1 242 234 241 -1 237 242 235 -1 250 231 232 -1 231 250 244 -1 229 226 246 -1 226 229 234 -1 236 234 237 -1 234 236 233 -1 227 250 232 -1 250 227 248 -1 251 252 253 -1 252 251 254 -1 255 251 256 -1 251 255 254 -1 252 257 253 -1 257 252 258 -1 251 257 256 -1 257 251 253 -1 252 255 258 -1 255 252 254 -1 255 257 258 -1 257 255 256 -1 259 260 261 -1 260 259 262 -1 263 264 265 -1 264 263 266 -1 263 267 268 -1 267 263 265 -1 262 268 267 -1 268 262 259 -1 269 259 261 -1 259 269 268 -1 268 269 270 -1 268 270 271 -1 268 271 263 -1 263 272 266 -1 272 263 273 -1 273 263 274 -1 274 263 275 -1 275 263 271 -1 275 271 276 -1 275 276 277 -1 277 276 278 -1 277 278 279 -1 279 278 280 -1 280 278 281 -1 279 280 282 -1 280 281 283 -1 283 281 284 -1 284 281 285 -1 286 287 288 -1 282 289 290 -1 289 282 280 -1 290 289 291 -1 290 291 288 -1 290 288 292 -1 292 288 293 -1 293 288 287 -1 293 287 294 -1 279 295 296 -1 295 279 282 -1 296 295 297 -1 296 297 298 -1 296 298 299 -1 300 293 294 -1 293 300 301 -1 293 301 302 -1 303 294 287 -1 294 303 300 -1 304 302 301 -1 302 304 305 -1 306 295 282 -1 295 306 307 -1 308 309 310 -1 309 308 311 -1 312 313 314 -1 313 312 315 -1 316 282 290 -1 282 316 306 -1 317 306 318 -1 306 317 307 -1 313 285 319 -1 285 313 284 -1 320 321 322 -1 321 320 323 -1 261 324 269 -1 324 261 260 -1 325 288 320 -1 288 325 286 -1 279 326 327 -1 326 279 296 -1 313 328 314 -1 328 313 319 -1 305 293 302 -1 293 305 292 -1 329 315 312 -1 315 329 330 -1 331 309 332 -1 309 331 310 -1 273 333 272 -1 333 273 334 -1 323 289 335 -1 289 323 291 -1 336 323 335 -1 323 336 321 -1 317 332 307 -1 332 317 331 -1 318 316 337 -1 316 318 306 -1 305 290 292 -1 290 305 316 -1 336 330 329 -1 330 336 335 -1 308 299 311 -1 299 308 296 -1 296 308 326 -1 338 279 327 -1 279 338 277 -1 274 334 273 -1 334 274 339 -1 275 339 274 -1 339 275 340 -1 341 285 281 -1 285 341 328 -1 285 328 319 -1 309 297 332 -1 297 309 298 -1 320 291 323 -1 291 320 288 -1 337 305 304 -1 305 337 316 -1 315 280 283 -1 280 315 330 -1 272 264 266 -1 264 272 333 -1 332 295 307 -1 295 332 297 -1 277 340 275 -1 340 277 338 -1 315 284 313 -1 284 315 283 -1 330 289 280 -1 289 330 335 -1 311 298 309 -1 298 311 299 -1 325 322 342 -1 322 325 320 -1 281 343 341 -1 343 281 278 -1 271 344 276 -1 344 271 345 -1 278 344 343 -1 344 278 276 -1 333 265 264 -1 265 333 334 -1 265 334 339 -1 265 339 340 -1 265 340 267 -1 267 260 262 -1 260 267 324 -1 324 267 346 -1 346 267 345 -1 345 267 340 -1 345 340 338 -1 345 338 344 -1 344 338 343 -1 343 338 327 -1 343 327 317 -1 317 327 326 -1 317 326 331 -1 331 326 310 -1 310 326 308 -1 337 336 318 -1 336 337 321 -1 321 337 304 -1 321 304 322 -1 322 304 301 -1 322 301 342 -1 342 301 300 -1 342 300 303 -1 343 329 341 -1 329 343 318 -1 318 343 317 -1 329 318 336 -1 341 329 312 -1 341 312 314 -1 341 314 328 -1 342 286 325 -1 286 342 287 -1 287 342 303 -1 269 346 270 -1 346 269 324 -1 270 345 271 -1 345 270 346 -1 347 348 349 -1 348 347 350 -1 351 352 353 -1 352 351 354 -1 355 347 356 -1 347 355 350 -1 350 355 357 -1 354 358 352 -1 358 354 359 -1 360 353 361 -1 353 360 351 -1 362 363 364 -1 363 362 365 -1 360 366 357 -1 366 360 363 -1 366 363 365 -1 357 367 350 -1 367 357 366 -1 350 367 348 -1 348 368 349 -1 368 348 367 -1 368 366 369 -1 366 368 367 -1 370 358 371 -1 358 370 352 -1 370 372 373 -1 372 370 374 -1 372 374 375 -1 372 375 376 -1 373 352 370 -1 352 373 353 -1 366 362 369 -1 362 366 365 -1 373 355 356 -1 355 373 372 -1 355 372 376 -1 355 376 357 -1 351 375 354 -1 375 351 376 -1 360 376 351 -1 376 360 357 -1 371 374 370 -1 374 371 377 -1 374 377 375 -1 356 368 361 -1 368 356 347 -1 368 347 349 -1 361 369 364 -1 369 361 368 -1 364 369 362 -1 377 358 359 -1 358 377 371 -1 356 353 373 -1 353 356 361 -1 363 361 364 -1 361 363 360 -1 354 377 359 -1 377 354 375 -1 378 379 380 -1 379 378 381 -1 381 378 382 -1 382 378 383 -1 380 384 385 -1 384 380 379 -1 386 387 388 -1 387 383 378 -1 383 387 386 -1 388 389 390 -1 389 378 391 -1 378 389 388 -1 378 388 387 -1 388 392 393 -1 392 388 390 -1 390 394 395 -1 394 391 396 -1 391 394 390 -1 391 390 389 -1 386 397 398 -1 399 393 400 -1 393 399 401 -1 393 401 388 -1 388 401 397 -1 388 397 386 -1 390 402 392 -1 402 390 395 -1 385 393 380 -1 393 385 400 -1 395 403 404 -1 403 395 396 -1 396 395 394 -1 405 378 380 -1 378 405 391 -1 406 391 405 -1 391 406 396 -1 407 396 406 -1 396 407 403 -1 380 392 405 -1 392 380 393 -1 405 402 406 -1 402 405 392 -1 406 408 407 -1 408 406 402 -1 395 408 402 -1 408 395 404 -1 403 408 404 -1 408 403 407 -1 379 397 401 -1 397 379 381 -1 399 379 401 -1 379 399 384 -1 382 397 381 -1 397 382 398 -1 385 399 400 -1 399 385 384 -1 382 386 398 -1 386 382 383 -1 267 259 262 -1 259 267 268 -1 262 409 410 -1 409 262 259 -1 411 412 413 -1 412 411 414 -1 415 264 416 -1 264 415 266 -1 417 418 419 -1 418 417 420 -1 410 267 262 -1 264 411 416 -1 411 264 265 -1 411 265 414 -1 414 265 267 -1 414 267 410 -1 421 422 423 -1 422 421 424 -1 423 425 426 -1 425 423 422 -1 427 428 429 -1 428 427 430 -1 428 430 422 -1 422 430 425 -1 427 431 432 -1 431 427 433 -1 429 433 427 -1 433 429 434 -1 429 435 436 -1 435 429 428 -1 435 428 422 -1 435 422 424 -1 426 431 433 -1 431 426 437 -1 412 438 413 -1 438 412 421 -1 419 263 415 -1 263 419 418 -1 263 418 268 -1 268 418 259 -1 259 418 409 -1 266 415 263 -1 423 433 434 -1 433 423 426 -1 426 439 437 -1 439 426 425 -1 436 434 429 -1 434 436 438 -1 439 431 437 -1 431 439 432 -1 421 434 438 -1 434 421 423 -1 436 415 438 -1 415 436 417 -1 415 417 419 -1 438 416 413 -1 416 438 415 -1 413 416 411 -1 435 417 436 -1 417 435 420 -1 420 435 424 -1 421 410 424 -1 410 421 412 -1 410 412 414 -1 424 409 420 -1 409 424 410 -1 420 409 418 -1 432 430 427 -1 430 432 439 -1 430 439 425 -1 "
						                >
							<Coordinate DEF="coords_ME_05-1_001"
							            point="-12.960004 19.327431 12.204724 -11.778901 13.815620 12.204724 -11.778901 19.327431 12.204724 -12.960004 13.815620 12.204724 -7.075634 14.230464 9.403389 -7.345794 18.642429 8.863070 -7.075634 18.912588 9.403389 -7.345794 14.500623 8.863070 -12.960004 14.603022 9.842520 -12.960004 19.327431 9.842520 -12.960004 13.815620 9.842520 -7.448193 18.540030 8.267716 -7.448193 14.603022 8.267716 -6.660791 13.815620 9.842520 -6.660791 19.327431 9.842520 -7.841894 19.327431 12.204724 -6.660791 13.815620 12.204724 -6.660791 19.327431 12.204724 -7.841894 13.815620 12.204724 -7.841894 13.815620 10.629921 -11.778901 13.815620 10.629921 -11.778901 19.327431 10.629921 -7.841894 19.327431 10.629921 -12.275001 18.642429 8.863070 -12.172602 18.540030 8.267716 -12.545160 14.603022 9.403389 -12.545160 18.912588 9.403389 -12.275001 14.603022 8.863070 -12.275001 14.500623 8.863070 -12.545160 14.230464 9.403389 -12.172602 14.603022 8.267716 -7.841894 -19.168631 16.535433 -11.778901 -19.168631 10.629921 -7.841894 -19.168631 10.629921 -11.778901 -19.168631 16.535433 -11.778901 28.075462 16.535433 -7.841894 28.075462 16.535433 -7.841894 28.075462 10.629921 -11.778901 28.075462 10.629921 -11.778901 1.610896 2.362205 -7.841894 -1.932411 2.362205 -11.778901 -1.932411 2.362205 -7.841894 1.610896 2.362205 -11.778901 7.122707 3.149606 -7.841894 7.122707 2.362205 -7.841894 7.122707 3.149606 -11.778901 7.122707 2.362205 -7.841894 1.610896 3.149606 -11.778901 1.610896 3.149606 -11.778901 -4.557083 2.598425 -11.778901 -6.656820 3.070866 -11.778901 -8.231624 3.779528 -11.778901 10.666015 2.362205 -11.778901 13.290687 2.598425 -11.778901 15.390424 3.070866 -11.778901 16.965227 3.779528 -11.778901 -9.281492 4.724410 -11.778901 18.015095 4.724410 -11.778901 -9.806427 5.905512 -11.778901 18.540030 5.905512 -11.778901 -4.688316 7.086614 -11.778901 -9.806427 8.267716 -11.778901 7.516408 7.086614 -11.778901 -5.278868 7.244852 -11.778901 -5.711181 7.677166 -11.778901 -5.869419 8.267716 -11.778901 2.398298 8.267716 -11.778901 2.791998 8.267716 -11.778901 2.240060 7.677166 -11.778901 1.217195 7.086614 -11.778901 6.925857 7.244852 -11.778901 1.807747 7.244852 -11.778901 6.493543 7.677166 -11.778901 6.335306 8.267716 -11.778901 5.941605 8.267716 -11.778901 13.421920 7.086614 -11.778901 18.540030 8.267716 -11.778901 14.012471 7.244852 -11.778901 14.444784 7.677166 -11.778901 14.603022 8.267716 -7.841894 5.941605 8.267716 -7.841894 6.335306 8.267716 -9.810397 6.925857 8.267716 -7.841894 2.791998 8.267716 -7.841894 6.493543 7.677166 -9.810397 7.004976 7.972441 -9.810397 7.591506 7.657043 -9.810397 13.346822 7.657043 -7.841894 14.603022 8.267716 -9.810397 13.933352 7.972441 -7.841894 14.444784 7.677166 -9.810397 14.012471 8.267716 -7.841894 -5.278868 7.244852 -9.810397 -5.199749 7.972441 -7.841894 -5.711181 7.677166 -9.810397 -4.983592 7.756284 -9.810397 7.221132 7.756284 -7.841894 13.421920 7.086614 -7.841894 7.516408 7.086614 -9.810397 -5.278868 8.267716 -9.810397 1.728628 7.972441 -7.841894 1.807747 7.244852 -7.841894 2.240060 7.677166 -9.810397 1.512471 7.756284 -7.841894 -4.557083 2.598425 -9.810397 1.807747 8.267716 -7.841894 18.540030 8.267716 -7.841894 18.540030 5.905512 -7.841894 -5.869419 8.267716 -7.841894 -4.688316 7.086614 -9.810397 -4.613218 7.657043 -7.841894 14.012471 7.244852 -9.810397 13.717196 7.756284 -7.841894 10.666015 2.362205 -7.841894 13.290687 2.598425 -9.810397 1.142097 7.657043 -7.841894 1.217195 7.086614 -7.841894 6.925857 7.244852 -7.841894 18.015095 4.724410 -7.841894 15.390424 3.070866 -7.841894 16.965227 3.779528 -7.841894 -9.806427 8.267716 -7.841894 2.398298 8.267716 -7.841894 -9.806427 5.905512 -7.841894 -9.281492 4.724410 -7.841894 -8.231624 3.779528 -7.841894 -6.656820 3.070866 -12.960004 -5.082017 12.204724 -11.778901 -10.593828 12.204724 -11.778901 -5.082017 12.204724 -12.960004 -10.593828 12.204724 -7.075634 -10.178986 9.403389 -7.345794 -5.767020 8.863070 -7.075634 -5.496861 9.403389 -7.345794 -9.908826 8.863070 -12.960004 -9.806427 9.842520 -12.960004 -5.082017 9.842520 -12.960004 -10.593828 9.842520 -7.448193 -5.869419 8.267716 -7.448193 -9.806427 8.267716 -6.660791 -10.593828 9.842520 -6.660791 -5.082017 9.842520 -7.841894 -5.082017 12.204724 -6.660791 -10.593828 12.204724 -6.660791 -5.082017 12.204724 -7.841894 -10.593828 12.204724 -7.841894 -10.593828 10.629921 -11.778901 -10.593828 10.629921 -11.778901 -5.082017 10.629921 -7.841894 -5.082017 10.629921 -12.275001 -5.767020 8.863070 -12.172602 -5.869419 8.267716 -12.545160 -9.806427 9.403389 -12.545160 -5.496861 9.403389 -12.275001 -9.806427 8.863070 -12.275001 -9.908826 8.863070 -12.545160 -10.178986 9.403389 -12.172602 -9.806427 8.267716 -12.960004 7.516408 9.842520 -7.841894 7.516408 10.629921 -6.660791 7.516408 9.842520 -11.778901 7.516408 10.629921 -11.778901 7.516408 12.204724 -12.960004 7.516408 12.204724 -7.841894 7.516408 12.204724 -6.660791 7.516408 12.204724 -12.960004 1.217195 12.204724 -12.960004 2.004597 9.842520 -12.960004 1.217195 9.842520 -12.545160 2.004597 9.403389 -12.545160 1.632038 9.403389 -12.545160 7.101565 9.403389 -7.075634 1.632038 9.403389 -6.660791 1.217195 9.842520 -12.275001 2.004597 8.863070 -12.275001 1.902198 8.863070 -12.275001 6.831405 8.863070 -11.778901 1.217195 10.629921 -11.778901 1.217195 12.204724 -7.841894 1.217195 12.204724 -6.660791 1.217195 12.204724 -7.841894 1.217195 10.629921 -7.345794 1.902198 8.863070 -12.172602 6.729006 8.267716 -12.172602 2.004597 8.267716 -7.075634 7.101565 9.403389 -7.345794 6.831405 8.863070 -7.448193 6.729006 8.267716 -7.448193 2.004597 8.267716 -11.778901 0.823495 2.362205 -7.841894 0.823495 2.362205 -7.841894 7.910109 3.937008 -6.660791 0.823495 3.937008 -6.660791 7.910109 3.937008 -7.841894 0.823495 3.937008 -11.778901 7.910109 2.362205 -7.841894 7.910109 2.362205 -12.960004 7.910109 3.937008 -11.778901 0.823495 3.937008 -11.778901 7.910109 3.937008 -12.960004 0.823495 3.937008 -6.660791 0.823495 1.574803 -12.545160 1.238338 1.135672 -7.075634 1.238338 1.135672 -12.960004 0.823495 1.574803 -12.275001 1.508497 0.595353 -7.345794 1.508497 0.595353 -12.275001 7.225106 0.595353 -12.545160 1.610896 1.135672 -12.545160 7.495265 1.135672 -12.275001 1.610896 0.595353 -7.448193 7.122707 0.000000 -12.172602 7.122707 0.000000 -7.345794 7.225106 0.595353 -7.075634 7.495265 1.135672 -12.960004 1.610896 1.574803 -12.960004 7.910109 1.574803 -7.448193 1.610896 0.000000 -6.660791 7.910109 1.574803 -12.172602 1.610896 0.000000 38.496063 6.299212 12.204724 32.984253 5.118110 12.204724 38.496063 5.118110 12.204724 32.984253 6.299212 12.204724 33.399094 0.414843 9.403389 37.811062 0.685003 8.863070 38.081219 0.414843 9.403389 33.669254 0.685003 8.863070 33.771652 6.299212 9.842520 38.496063 6.299212 9.842520 32.984253 6.299212 9.842520 37.708660 0.787402 8.267716 33.771652 0.787402 8.267716 32.984253 0.000000 9.842520 38.496063 0.000000 9.842520 38.496063 1.181102 12.204724 32.984253 0.000000 12.204724 38.496063 0.000000 12.204724 32.984253 1.181102 12.204724 32.984253 1.181102 10.629921 32.984253 5.118110 10.629921 38.496063 5.118110 10.629921 38.496063 1.181102 10.629921 37.811062 5.614210 8.863070 37.708660 5.511811 8.267716 33.771652 5.884369 9.403389 38.081219 5.884369 9.403389 33.771652 5.614210 8.863070 33.669254 5.614210 8.863070 33.399094 5.884369 9.403389 33.771652 5.511811 8.267716 0.000000 1.181102 16.535433 0.000000 5.118110 10.629921 0.000000 1.181102 10.629921 0.000000 5.118110 16.535433 47.244095 5.118110 16.535433 47.244095 1.181102 16.535433 47.244095 1.181102 10.629921 47.244095 5.118110 10.629921 20.779528 5.118110 2.362205 17.236221 1.181102 2.362205 17.236221 5.118110 2.362205 20.779528 1.181102 2.362205 26.291338 5.118110 3.149606 26.291338 1.181102 2.362205 26.291338 1.181102 3.149606 26.291338 5.118110 2.362205 20.779528 1.181102 3.149606 20.779528 5.118110 3.149606 14.611548 5.118110 2.598425 12.511811 5.118110 3.070866 10.937008 5.118110 3.779528 29.834646 5.118110 2.362205 32.459316 5.118110 2.598425 34.559055 5.118110 3.070866 36.133858 5.118110 3.779528 9.887139 5.118110 4.724410 37.183727 5.118110 4.724410 9.362205 5.118110 5.905512 37.708660 5.118110 5.905512 14.480315 5.118110 7.086614 9.362205 5.118110 8.267716 26.685040 5.118110 7.086614 13.889764 5.118110 7.244852 13.457450 5.118110 7.677166 13.299212 5.118110 8.267716 21.566929 5.118110 8.267716 21.960630 5.118110 8.267716 21.408691 5.118110 7.677166 20.385826 5.118110 7.086614 26.094488 5.118110 7.244852 20.976377 5.118110 7.244852 25.662174 5.118110 7.677166 25.503937 5.118110 8.267716 25.110237 5.118110 8.267716 32.590549 5.118110 7.086614 37.708660 5.118110 8.267716 33.181103 5.118110 7.244852 33.613415 5.118110 7.677166 33.771652 5.118110 8.267716 25.110237 1.181102 8.267716 25.503937 1.181102 8.267716 26.094488 3.149606 8.267716 21.960630 1.181102 8.267716 25.662174 1.181102 7.677166 26.173607 3.149606 7.972441 26.760138 3.149606 7.657043 32.515453 3.149606 7.657043 33.771652 1.181102 8.267716 33.101982 3.149606 7.972441 33.613415 1.181102 7.677166 33.181103 3.149606 8.267716 13.889764 1.181102 7.244852 13.968883 3.149606 7.972441 13.457450 1.181102 7.677166 14.185040 3.149606 7.756284 26.389763 3.149606 7.756284 32.590549 1.181102 7.086614 26.685040 1.181102 7.086614 13.889764 3.149606 8.267716 20.897259 3.149606 7.972441 20.976377 1.181102 7.244852 21.408691 1.181102 7.677166 20.681103 3.149606 7.756284 14.611548 1.181102 2.598425 20.976377 3.149606 8.267716 37.708660 1.181102 8.267716 37.708660 1.181102 5.905512 13.299212 1.181102 8.267716 14.480315 1.181102 7.086614 14.555413 3.149606 7.657043 33.181103 1.181102 7.244852 32.885826 3.149606 7.756284 29.834646 1.181102 2.362205 32.459316 1.181102 2.598425 20.310728 3.149606 7.657043 20.385826 1.181102 7.086614 26.094488 1.181102 7.244852 37.183727 1.181102 4.724410 34.559055 1.181102 3.070866 36.133858 1.181102 3.779528 9.362205 1.181102 8.267716 21.566929 1.181102 8.267716 9.362205 1.181102 5.905512 9.887139 1.181102 4.724410 10.937008 1.181102 3.779528 12.511811 1.181102 3.070866 14.086615 6.299212 12.204724 8.574803 5.118110 12.204724 14.086615 5.118110 12.204724 8.574803 6.299212 12.204724 8.989646 0.414843 9.403389 13.401611 0.685003 8.863070 13.671771 0.414843 9.403389 9.259806 0.685003 8.863070 9.362205 6.299212 9.842520 14.086615 6.299212 9.842520 8.574803 6.299212 9.842520 13.299212 0.787402 8.267716 9.362205 0.787402 8.267716 8.574803 0.000000 9.842520 14.086615 0.000000 9.842520 14.086615 1.181102 12.204724 8.574803 0.000000 12.204724 14.086615 0.000000 12.204724 8.574803 1.181102 12.204724 8.574803 1.181102 10.629921 8.574803 5.118110 10.629921 14.086615 5.118110 10.629921 14.086615 1.181102 10.629921 13.401611 5.614210 8.863070 13.299212 5.511811 8.267716 9.362205 5.884369 9.403389 13.671771 5.884369 9.403389 9.362205 5.614210 8.863070 9.259806 5.614210 8.863070 8.989646 5.884369 9.403389 9.362205 5.511811 8.267716 26.685040 6.299212 9.842520 26.685040 1.181102 10.629921 26.685040 0.000000 9.842520 26.685040 5.118110 10.629921 26.685040 5.118110 12.204724 26.685040 6.299212 12.204724 26.685040 1.181102 12.204724 26.685040 0.000000 12.204724 20.385826 6.299212 12.204724 21.173229 6.299212 9.842520 20.385826 6.299212 9.842520 21.173229 5.884369 9.403389 20.800671 5.884369 9.403389 26.270197 5.884369 9.403389 20.800671 0.414843 9.403389 20.385826 0.000000 9.842520 21.173229 5.614210 8.863070 21.070829 5.614210 8.863070 26.000036 5.614210 8.863070 20.385826 5.118110 10.629921 20.385826 5.118110 12.204724 20.385826 1.181102 12.204724 20.385826 0.000000 12.204724 20.385826 1.181102 10.629921 21.070829 0.685003 8.863070 25.897638 5.511811 8.267716 21.173229 5.511811 8.267716 26.270197 0.414843 9.403389 26.000036 0.685003 8.863070 25.897638 0.787402 8.267716 21.173229 0.787402 8.267716 19.992126 5.118110 2.362205 19.992126 1.181102 2.362205 27.078741 1.181102 3.937008 19.992126 0.000000 3.937008 27.078741 0.000000 3.937008 19.992126 1.181102 3.937008 27.078741 5.118110 2.362205 27.078741 1.181102 2.362205 27.078741 6.299212 3.937008 19.992126 5.118110 3.937008 27.078741 5.118110 3.937008 19.992126 6.299212 3.937008 19.992126 0.000000 1.574803 20.406969 5.884369 1.135672 20.406969 0.414843 1.135672 19.992126 6.299212 1.574803 20.677128 5.614210 0.595353 20.677128 0.685003 0.595353 26.393738 5.614210 0.595353 20.779528 5.884369 1.135672 26.663897 5.884369 1.135672 20.779528 5.614210 0.595353 26.291338 0.787402 0.000000 26.291338 5.511811 0.000000 26.393738 0.685003 0.595353 26.663897 0.414843 1.135672 20.779528 6.299212 1.574803 27.078741 6.299212 1.574803 20.779528 0.787402 0.000000 27.078741 0.000000 1.574803 20.779528 5.511811 0.000000 "
							            />
						</IndexedFaceSet>
					</Shape>
				</Group>
			</Transform>
		</Transform>
	</Scene>
</X3D>