<?xml version="1.0" encoding="UTF-8"?>
<!DOCTYPE X3D PUBLIC "ISO//Web3D//DTD X3D 3.0//EN" "http://www.web3d.org/specifications/x3d-3.0.dtd">
<X3D version="3.0" profile="Immersive" xmlns:xsd="http://www.w3.org/2001/XMLSchema-instance" xsd:noNamespaceSchemaLocation="http://www.web3d.org/specifications/x3d-3.0.xsd">
	<head>
		<meta name="filename" content="05-2.x3d" />
		<meta name="created" content="2026-06-21 15:09:37" />
		<meta name="generator" content="Blender 4.5.4 LTS" />
		<meta name="translator" content="Web3D X3D/VRML2 format v2.5.1" />
	</head>
	<Scene>
		<NavigationInfo headlight="true"
		                visibilityLimit="0.0"
		                type='"EXAMINE", "ANY"'
		                avatarSize="0.25, 1.75, 0.75"
		                />
		<Background DEF="WO_World"
		            groundColor="0.051 0.051 0.051"
		            skyColor="0.051 0.051 0.051"
		            />
		<Transform DEF="_05-2_TRANSFORM"
		           translation="0.000000 0.000000 0.000000"
		           scale="1.000000 1.000000 1.000000"
		           rotation="0.000000 0.707107 0.707107 3.141593"
		           >
			<Transform DEF="_05-2_ifs_TRANSFORM"
			           translation="0.000000 0.000000 0.000000"
			           scale="1.000000 1.000000 1.000000"
			           rotation="0.000000 1.000000 0.000000 0.000000"
			           >
				<Group DEF="group_ME_05-2_001">
					<Shape>
						<Appearance>
						</Appearance>
						<IndexedFaceSet solid="false"
						                coordIndex="0 1 2 -1 1 0 3 -1 3 4 5 -1 4 3 0 -1 6 7 8 -1 7 6 9 -1 6 10 11 -1 10 6 8 -1 11 5 4 -1 5 11 10 -1 12 13 14 -1 13 12 15 -1 16 17 18 -1 17 16 19 -1 16 20 21 -1 20 16 18 -1 22 16 23 -1 16 22 19 -1 14 19 22 -1 19 14 13 -1 19 24 17 -1 24 19 13 -1 23 21 25 -1 21 23 16 -1 26 27 15 -1 27 26 28 -1 29 30 31 -1 30 29 32 -1 33 26 34 -1 26 33 30 -1 31 33 35 -1 33 31 30 -1 30 28 26 -1 28 30 32 -1 36 37 38 -1 37 36 39 -1 35 29 31 -1 29 35 40 -1 40 35 41 -1 42 8 7 -1 8 42 43 -1 8 43 44 -1 8 44 10 -1 10 44 5 -1 5 1 3 -1 1 5 45 -1 45 5 46 -1 46 5 44 -1 46 44 47 -1 46 47 48 -1 48 47 49 -1 48 49 50 -1 50 49 12 -1 12 49 41 -1 12 41 34 -1 34 41 33 -1 33 41 35 -1 22 51 14 -1 51 22 52 -1 52 22 23 -1 52 23 53 -1 53 23 25 -1 53 25 54 -1 54 25 55 -1 54 55 56 -1 50 57 58 -1 57 50 12 -1 57 12 14 -1 57 14 51 -1 58 57 59 -1 58 59 60 -1 58 60 61 -1 13 27 24 -1 27 13 15 -1 12 26 15 -1 26 12 34 -1 54 36 38 -1 36 54 62 -1 62 54 56 -1 2 45 63 -1 45 2 1 -1 56 64 62 -1 64 56 55 -1 63 0 2 -1 0 63 4 -1 4 63 65 -1 4 65 11 -1 11 65 6 -1 6 66 9 -1 66 6 67 -1 67 6 68 -1 68 6 65 -1 68 65 69 -1 68 69 70 -1 70 69 71 -1 70 71 72 -1 72 71 73 -1 73 71 74 -1 73 74 75 -1 75 74 76 -1 76 74 77 -1 78 24 79 -1 24 78 17 -1 17 78 39 -1 17 39 18 -1 18 39 36 -1 18 36 20 -1 20 36 62 -1 20 62 64 -1 72 27 40 -1 27 72 73 -1 27 73 79 -1 27 79 24 -1 40 27 28 -1 40 28 32 -1 40 32 29 -1 55 20 64 -1 20 55 25 -1 20 25 21 -1 60 80 61 -1 80 60 81 -1 59 81 60 -1 81 59 82 -1 57 82 59 -1 82 57 83 -1 51 83 57 -1 83 51 84 -1 51 85 84 -1 85 51 52 -1 37 52 53 -1 52 37 85 -1 37 78 85 -1 78 37 39 -1 82 73 75 -1 73 82 83 -1 75 81 82 -1 81 75 76 -1 81 77 80 -1 77 81 76 -1 38 53 54 -1 53 38 37 -1 85 79 84 -1 79 85 78 -1 83 79 73 -1 79 83 84 -1 48 65 46 -1 65 48 69 -1 63 46 65 -1 46 63 45 -1 50 69 48 -1 69 50 71 -1 72 41 49 -1 41 72 40 -1 58 77 74 -1 77 58 61 -1 77 61 80 -1 66 7 9 -1 7 66 42 -1 74 50 58 -1 50 74 71 -1 68 43 67 -1 43 68 44 -1 67 42 66 -1 42 67 43 -1 70 49 47 -1 49 70 72 -1 68 47 44 -1 47 68 70 -1 86 87 88 -1 87 86 89 -1 90 91 92 -1 91 90 93 -1 87 90 92 -1 90 87 89 -1 91 94 95 -1 94 91 93 -1 96 97 98 -1 97 96 99 -1 97 99 100 -1 100 99 101 -1 101 99 102 -1 103 98 97 -1 104 105 106 -1 105 104 99 -1 99 104 102 -1 106 107 108 -1 107 106 109 -1 109 106 99 -1 99 106 105 -1 106 110 111 -1 110 106 108 -1 108 112 113 -1 112 108 114 -1 114 108 109 -1 109 108 107 -1 104 94 115 -1 116 111 117 -1 111 116 95 -1 111 95 106 -1 106 95 94 -1 106 94 104 -1 108 118 110 -1 118 108 113 -1 98 111 96 -1 111 98 117 -1 113 119 120 -1 119 113 114 -1 114 113 112 -1 121 99 96 -1 99 121 109 -1 122 109 121 -1 109 122 114 -1 123 114 122 -1 114 123 119 -1 96 110 121 -1 110 96 111 -1 121 118 122 -1 118 121 110 -1 122 124 123 -1 124 122 118 -1 113 124 118 -1 124 113 120 -1 119 124 120 -1 124 119 123 -1 97 86 88 -1 86 97 100 -1 116 91 95 -1 91 116 92 -1 92 116 87 -1 87 97 88 -1 97 87 103 -1 103 87 116 -1 101 86 100 -1 86 101 89 -1 89 101 90 -1 90 94 93 -1 94 90 115 -1 115 90 101 -1 98 116 117 -1 116 98 103 -1 101 104 115 -1 104 101 102 -1 125 126 127 -1 126 125 128 -1 129 130 131 -1 130 129 132 -1 133 125 134 -1 125 133 128 -1 128 133 135 -1 132 136 130 -1 136 132 137 -1 138 131 139 -1 131 138 129 -1 140 141 142 -1 141 140 143 -1 138 144 135 -1 144 138 141 -1 144 141 143 -1 135 145 128 -1 145 135 144 -1 128 145 126 -1 126 146 127 -1 146 126 145 -1 146 144 147 -1 144 146 145 -1 148 136 149 -1 136 148 130 -1 148 150 151 -1 150 148 152 -1 150 152 153 -1 150 153 154 -1 151 130 148 -1 130 151 131 -1 144 140 147 -1 140 144 143 -1 151 133 134 -1 133 151 150 -1 133 150 154 -1 133 154 135 -1 129 153 132 -1 153 129 154 -1 138 154 129 -1 154 138 135 -1 149 152 148 -1 152 149 155 -1 152 155 153 -1 134 146 139 -1 146 134 125 -1 146 125 127 -1 139 147 142 -1 147 139 146 -1 142 147 140 -1 155 136 137 -1 136 155 149 -1 134 131 151 -1 131 134 139 -1 141 139 142 -1 139 141 138 -1 132 155 137 -1 155 132 153 -1 156 157 158 -1 157 156 159 -1 160 161 162 -1 161 160 163 -1 164 156 165 -1 156 164 159 -1 159 164 166 -1 163 167 161 -1 167 163 168 -1 169 162 170 -1 162 169 160 -1 171 172 173 -1 172 171 174 -1 169 175 166 -1 175 169 172 -1 175 172 174 -1 166 176 159 -1 176 166 175 -1 159 176 157 -1 157 177 158 -1 177 157 176 -1 177 175 178 -1 175 177 176 -1 179 167 180 -1 167 179 161 -1 179 181 182 -1 181 179 183 -1 181 183 184 -1 181 184 185 -1 182 161 179 -1 161 182 162 -1 175 171 178 -1 171 175 174 -1 182 164 165 -1 164 182 181 -1 164 181 185 -1 164 185 166 -1 160 184 163 -1 184 160 185 -1 169 185 160 -1 185 169 166 -1 180 183 179 -1 183 180 186 -1 183 186 184 -1 165 177 170 -1 177 165 156 -1 177 156 158 -1 170 178 173 -1 178 170 177 -1 173 178 171 -1 186 167 168 -1 167 186 180 -1 165 162 182 -1 162 165 170 -1 172 170 173 -1 170 172 169 -1 163 186 168 -1 186 163 184 -1 187 188 189 -1 188 187 190 -1 191 192 193 -1 192 191 194 -1 195 193 196 -1 193 195 191 -1 190 195 196 -1 195 190 187 -1 197 198 199 -1 198 197 200 -1 199 201 202 -1 201 199 198 -1 203 204 205 -1 204 203 206 -1 198 207 208 -1 207 198 200 -1 201 208 209 -1 208 201 198 -1 204 210 211 -1 210 204 206 -1 201 212 213 -1 212 201 209 -1 205 214 215 -1 214 205 204 -1 202 213 216 -1 213 202 201 -1 215 203 205 -1 203 215 217 -1 217 215 218 -1 219 200 197 -1 200 219 220 -1 221 222 223 -1 222 221 224 -1 224 225 222 -1 225 224 226 -1 227 224 221 -1 224 227 228 -1 229 230 231 -1 230 229 232 -1 231 233 234 -1 233 231 230 -1 204 235 214 -1 235 204 211 -1 200 236 207 -1 236 200 220 -1 211 236 220 -1 236 211 210 -1 219 211 220 -1 211 219 235 -1 237 193 192 -1 193 237 238 -1 193 238 239 -1 193 239 196 -1 196 188 190 -1 188 196 240 -1 240 196 241 -1 241 196 239 -1 241 239 242 -1 241 242 243 -1 243 242 244 -1 243 244 245 -1 245 244 219 -1 219 244 218 -1 219 218 235 -1 235 218 214 -1 214 218 215 -1 199 246 197 -1 246 199 247 -1 247 199 202 -1 247 202 233 -1 233 202 216 -1 233 216 248 -1 248 234 233 -1 234 248 249 -1 245 250 251 -1 250 245 197 -1 197 245 219 -1 250 197 246 -1 251 250 227 -1 251 227 221 -1 251 221 223 -1 230 252 253 -1 252 230 232 -1 254 218 244 -1 218 254 217 -1 248 212 255 -1 212 248 216 -1 212 216 213 -1 194 237 192 -1 237 194 256 -1 257 245 251 -1 245 257 258 -1 245 259 243 -1 259 245 258 -1 260 187 189 -1 187 260 195 -1 195 260 261 -1 195 261 191 -1 191 256 194 -1 256 191 262 -1 262 191 263 -1 263 191 261 -1 263 261 259 -1 263 259 264 -1 264 259 258 -1 264 258 254 -1 254 258 265 -1 265 258 257 -1 254 265 207 -1 265 257 266 -1 266 257 226 -1 226 257 225 -1 207 267 208 -1 267 207 265 -1 208 267 252 -1 208 252 232 -1 208 232 209 -1 209 232 229 -1 209 229 255 -1 255 229 268 -1 212 209 255 -1 254 236 217 -1 236 254 207 -1 217 236 210 -1 217 210 206 -1 217 206 203 -1 189 240 260 -1 240 189 188 -1 260 241 261 -1 241 260 240 -1 251 225 257 -1 225 251 223 -1 225 223 222 -1 263 238 262 -1 238 263 239 -1 261 243 259 -1 243 261 241 -1 249 255 268 -1 255 249 248 -1 234 229 231 -1 229 234 268 -1 268 234 249 -1 264 239 263 -1 239 264 242 -1 264 244 242 -1 244 264 254 -1 262 237 256 -1 237 262 238 -1 250 228 227 -1 228 250 269 -1 224 266 226 -1 266 224 228 -1 246 269 250 -1 269 246 270 -1 228 265 266 -1 265 228 269 -1 246 253 270 -1 253 246 247 -1 253 267 270 -1 267 253 252 -1 269 267 265 -1 267 269 270 -1 230 247 233 -1 247 230 253 -1 271 272 273 -1 272 271 274 -1 275 276 277 -1 276 275 278 -1 279 271 280 -1 271 279 274 -1 274 279 281 -1 278 282 276 -1 282 278 283 -1 284 277 285 -1 277 284 275 -1 286 287 288 -1 287 286 289 -1 284 290 281 -1 290 284 287 -1 290 287 289 -1 281 291 274 -1 291 281 290 -1 274 291 272 -1 272 292 273 -1 292 272 291 -1 292 290 293 -1 290 292 291 -1 294 282 295 -1 282 294 276 -1 294 296 297 -1 296 294 298 -1 296 298 299 -1 296 299 300 -1 297 276 294 -1 276 297 277 -1 290 286 293 -1 286 290 289 -1 297 279 280 -1 279 297 296 -1 279 296 300 -1 279 300 281 -1 275 299 278 -1 299 275 300 -1 284 300 275 -1 300 284 281 -1 295 298 294 -1 298 295 301 -1 298 301 299 -1 280 292 285 -1 292 280 271 -1 292 271 273 -1 285 293 288 -1 293 285 292 -1 288 293 286 -1 301 282 283 -1 282 301 295 -1 280 277 297 -1 277 280 285 -1 287 285 288 -1 285 287 284 -1 278 301 283 -1 301 278 299 -1 302 303 304 -1 303 302 305 -1 306 302 307 -1 302 306 305 -1 303 308 304 -1 308 303 309 -1 302 308 307 -1 308 302 304 -1 303 306 309 -1 306 303 305 -1 306 308 309 -1 308 306 307 -1 310 311 312 -1 311 310 313 -1 314 315 316 -1 315 314 317 -1 318 310 319 -1 310 318 313 -1 313 318 320 -1 317 321 315 -1 321 317 322 -1 323 316 324 -1 316 323 314 -1 325 326 327 -1 326 325 328 -1 323 329 320 -1 329 323 326 -1 329 326 328 -1 320 330 313 -1 330 320 329 -1 313 330 311 -1 311 331 312 -1 331 311 330 -1 331 329 332 -1 329 331 330 -1 333 321 334 -1 321 333 315 -1 333 335 336 -1 335 333 337 -1 335 337 338 -1 335 338 339 -1 336 315 333 -1 315 336 316 -1 329 325 332 -1 325 329 328 -1 336 318 319 -1 318 336 335 -1 318 335 339 -1 318 339 320 -1 314 338 317 -1 338 314 339 -1 323 339 314 -1 339 323 320 -1 334 337 333 -1 337 334 340 -1 337 340 338 -1 319 331 324 -1 331 319 310 -1 331 310 312 -1 324 332 327 -1 332 324 331 -1 327 332 325 -1 340 321 322 -1 321 340 334 -1 319 316 336 -1 316 319 324 -1 326 324 327 -1 324 326 323 -1 317 340 322 -1 340 317 338 -1 9 8 7 -1 8 9 6 -1 8 4 5 -1 4 8 6 -1 3 341 342 -1 341 3 0 -1 343 344 345 -1 344 343 346 -1 344 346 347 -1 347 346 348 -1 348 346 349 -1 350 345 344 -1 351 352 353 -1 352 351 346 -1 346 351 349 -1 353 354 355 -1 354 353 356 -1 356 353 346 -1 346 353 352 -1 353 357 358 -1 357 353 355 -1 355 359 360 -1 359 355 361 -1 361 355 356 -1 356 355 354 -1 351 341 362 -1 363 358 364 -1 358 363 342 -1 358 342 353 -1 353 342 341 -1 353 341 351 -1 355 365 357 -1 365 355 360 -1 345 358 343 -1 358 345 364 -1 360 366 367 -1 366 360 361 -1 361 360 359 -1 368 346 343 -1 346 368 356 -1 369 356 368 -1 356 369 361 -1 370 361 369 -1 361 370 366 -1 343 357 368 -1 357 343 358 -1 368 365 369 -1 365 368 357 -1 369 371 370 -1 371 369 365 -1 360 371 365 -1 371 360 367 -1 366 371 367 -1 371 366 370 -1 344 9 7 -1 9 344 347 -1 363 3 342 -1 3 363 5 -1 5 363 8 -1 8 344 7 -1 344 8 350 -1 350 8 363 -1 348 9 347 -1 9 348 6 -1 6 348 4 -1 4 341 0 -1 341 4 362 -1 362 4 348 -1 345 363 364 -1 363 345 350 -1 348 351 362 -1 351 348 349 -1 196 187 190 -1 187 196 195 -1 191 196 193 -1 196 191 195 -1 190 372 373 -1 372 190 187 -1 374 375 376 -1 375 374 377 -1 378 192 379 -1 192 378 194 -1 380 381 382 -1 381 380 383 -1 373 196 190 -1 192 374 379 -1 374 192 193 -1 374 193 377 -1 377 193 196 -1 377 196 373 -1 384 385 386 -1 385 384 387 -1 386 388 389 -1 388 386 385 -1 390 391 392 -1 391 390 393 -1 391 393 385 -1 385 393 388 -1 390 394 395 -1 394 390 396 -1 392 396 390 -1 396 392 397 -1 392 398 399 -1 398 392 391 -1 398 391 385 -1 398 385 387 -1 389 394 396 -1 394 389 400 -1 375 401 376 -1 401 375 384 -1 382 191 378 -1 191 382 381 -1 191 381 195 -1 195 381 187 -1 187 381 372 -1 194 378 191 -1 386 396 397 -1 396 386 389 -1 389 402 400 -1 402 389 388 -1 399 397 392 -1 397 399 401 -1 402 394 400 -1 394 402 395 -1 384 397 401 -1 397 384 386 -1 399 378 401 -1 378 399 380 -1 378 380 382 -1 401 379 376 -1 379 401 378 -1 376 379 374 -1 398 380 399 -1 380 398 383 -1 383 398 387 -1 384 373 387 -1 373 384 375 -1 373 375 377 -1 387 372 383 -1 372 387 373 -1 383 372 381 -1 395 393 390 -1 393 395 402 -1 393 402 388 -1 403 404 405 -1 404 403 406 -1 406 407 408 -1 407 406 403 -1 409 410 411 -1 410 409 412 -1 409 413 414 -1 413 409 411 -1 414 408 407 -1 408 414 413 -1 415 416 417 -1 416 415 418 -1 419 420 421 -1 420 419 422 -1 419 423 424 -1 423 419 421 -1 425 419 426 -1 419 425 422 -1 417 422 425 -1 422 417 416 -1 422 427 420 -1 427 422 416 -1 426 424 428 -1 424 426 419 -1 429 430 418 -1 430 429 431 -1 432 433 434 -1 433 432 435 -1 436 429 437 -1 429 436 433 -1 434 436 438 -1 436 434 433 -1 433 431 429 -1 431 433 435 -1 439 440 441 -1 440 439 442 -1 438 432 434 -1 432 438 443 -1 443 438 444 -1 445 411 410 -1 411 445 446 -1 411 446 447 -1 411 447 413 -1 413 447 408 -1 408 404 406 -1 404 408 448 -1 448 408 449 -1 449 408 447 -1 449 447 450 -1 449 450 451 -1 451 450 452 -1 451 452 453 -1 453 452 415 -1 415 452 444 -1 415 444 437 -1 437 444 436 -1 436 444 438 -1 425 454 417 -1 454 425 455 -1 455 425 426 -1 455 426 456 -1 456 426 428 -1 456 428 457 -1 457 428 458 -1 457 458 459 -1 453 460 461 -1 460 453 415 -1 460 415 417 -1 460 417 454 -1 461 460 462 -1 461 462 463 -1 461 463 464 -1 416 430 427 -1 430 416 418 -1 415 429 418 -1 429 415 437 -1 457 439 441 -1 439 457 465 -1 465 457 459 -1 405 448 466 -1 448 405 404 -1 459 467 465 -1 467 459 458 -1 466 403 405 -1 403 466 407 -1 407 466 468 -1 407 468 414 -1 414 468 409 -1 409 469 412 -1 469 409 470 -1 470 409 471 -1 471 409 468 -1 471 468 472 -1 471 472 473 -1 473 472 474 -1 473 474 475 -1 475 474 476 -1 476 474 477 -1 476 477 478 -1 478 477 479 -1 479 477 480 -1 481 427 482 -1 427 481 420 -1 420 481 442 -1 420 442 421 -1 421 442 439 -1 421 439 423 -1 423 439 465 -1 423 465 467 -1 475 430 443 -1 430 475 476 -1 430 476 482 -1 430 482 427 -1 443 430 431 -1 443 431 435 -1 443 435 432 -1 458 423 467 -1 423 458 428 -1 423 428 424 -1 463 483 464 -1 483 463 484 -1 462 484 463 -1 484 462 485 -1 460 485 462 -1 485 460 486 -1 454 486 460 -1 486 454 487 -1 454 488 487 -1 488 454 455 -1 440 455 456 -1 455 440 488 -1 440 481 488 -1 481 440 442 -1 485 476 478 -1 476 485 486 -1 478 484 485 -1 484 478 479 -1 484 480 483 -1 480 484 479 -1 441 456 457 -1 456 441 440 -1 488 482 487 -1 482 488 481 -1 486 482 476 -1 482 486 487 -1 451 468 449 -1 468 451 472 -1 466 449 468 -1 449 466 448 -1 453 472 451 -1 472 453 474 -1 475 444 452 -1 444 475 443 -1 461 480 477 -1 480 461 464 -1 480 464 483 -1 469 410 412 -1 410 469 445 -1 477 453 461 -1 453 477 474 -1 471 446 470 -1 446 471 447 -1 470 445 469 -1 445 470 446 -1 473 452 450 -1 452 473 475 -1 471 450 447 -1 450 471 473 -1 489 490 491 -1 490 489 492 -1 493 494 495 -1 494 493 496 -1 490 493 495 -1 493 490 492 -1 494 497 498 -1 497 494 496 -1 499 500 501 -1 500 499 502 -1 500 502 503 -1 503 502 504 -1 504 502 505 -1 506 501 500 -1 507 508 509 -1 508 507 502 -1 502 507 505 -1 509 510 511 -1 510 509 512 -1 512 509 502 -1 502 509 508 -1 509 513 514 -1 513 509 511 -1 511 515 516 -1 515 511 517 -1 517 511 512 -1 512 511 510 -1 507 497 518 -1 519 514 520 -1 514 519 498 -1 514 498 509 -1 509 498 497 -1 509 497 507 -1 511 521 513 -1 521 511 516 -1 501 514 499 -1 514 501 520 -1 516 522 523 -1 522 516 517 -1 517 516 515 -1 524 502 499 -1 502 524 512 -1 525 512 524 -1 512 525 517 -1 526 517 525 -1 517 526 522 -1 499 513 524 -1 513 499 514 -1 524 521 525 -1 521 524 513 -1 525 527 526 -1 527 525 521 -1 516 527 521 -1 527 516 523 -1 522 527 523 -1 527 522 526 -1 500 489 491 -1 489 500 503 -1 519 494 498 -1 494 519 495 -1 495 519 490 -1 490 500 491 -1 500 490 506 -1 506 490 519 -1 504 489 503 -1 489 504 492 -1 492 504 493 -1 493 497 496 -1 497 493 518 -1 518 493 504 -1 501 519 520 -1 519 501 506 -1 504 507 518 -1 507 504 505 -1 528 529 530 -1 529 528 531 -1 532 533 534 -1 533 532 535 -1 536 528 537 -1 528 536 531 -1 531 536 538 -1 535 539 533 -1 539 535 540 -1 541 534 542 -1 534 541 532 -1 543 544 545 -1 544 543 546 -1 541 547 538 -1 547 541 544 -1 547 544 546 -1 538 548 531 -1 548 538 547 -1 531 548 529 -1 529 549 530 -1 549 529 548 -1 549 547 550 -1 547 549 548 -1 551 539 552 -1 539 551 533 -1 551 553 554 -1 553 551 555 -1 553 555 556 -1 553 556 557 -1 554 533 551 -1 533 554 534 -1 547 543 550 -1 543 547 546 -1 554 536 537 -1 536 554 553 -1 536 553 557 -1 536 557 538 -1 532 556 535 -1 556 532 557 -1 541 557 532 -1 557 541 538 -1 552 555 551 -1 555 552 558 -1 555 558 556 -1 537 549 542 -1 549 537 528 -1 549 528 530 -1 542 550 545 -1 550 542 549 -1 545 550 543 -1 558 539 540 -1 539 558 552 -1 537 534 554 -1 534 537 542 -1 544 542 545 -1 542 544 541 -1 535 558 540 -1 558 535 556 -1 559 560 561 -1 560 559 562 -1 563 564 565 -1 564 563 566 -1 567 559 568 -1 559 567 562 -1 562 567 569 -1 566 570 564 -1 570 566 571 -1 572 565 573 -1 565 572 563 -1 574 575 576 -1 575 574 577 -1 572 578 569 -1 578 572 575 -1 578 575 577 -1 569 579 562 -1 579 569 578 -1 562 579 560 -1 560 580 561 -1 580 560 579 -1 580 578 581 -1 578 580 579 -1 582 570 583 -1 570 582 564 -1 582 584 585 -1 584 582 586 -1 584 586 587 -1 584 587 588 -1 585 564 582 -1 564 585 565 -1 578 574 581 -1 574 578 577 -1 585 567 568 -1 567 585 584 -1 567 584 588 -1 567 588 569 -1 563 587 566 -1 587 563 588 -1 572 588 563 -1 588 572 569 -1 583 586 582 -1 586 583 589 -1 586 589 587 -1 568 580 573 -1 580 568 559 -1 580 559 561 -1 573 581 576 -1 581 573 580 -1 576 581 574 -1 589 570 571 -1 570 589 583 -1 568 565 585 -1 565 568 573 -1 575 573 576 -1 573 575 572 -1 566 589 571 -1 589 566 587 -1 590 591 592 -1 591 590 593 -1 594 595 596 -1 595 594 597 -1 598 596 599 -1 596 598 594 -1 593 598 599 -1 598 593 590 -1 600 601 602 -1 601 600 603 -1 602 604 605 -1 604 602 601 -1 606 607 608 -1 607 606 609 -1 601 610 611 -1 610 601 603 -1 604 611 612 -1 611 604 601 -1 607 613 614 -1 613 607 609 -1 604 615 616 -1 615 604 612 -1 608 617 618 -1 617 608 607 -1 605 616 619 -1 616 605 604 -1 618 606 608 -1 606 618 620 -1 620 618 621 -1 622 603 600 -1 603 622 623 -1 624 625 626 -1 625 624 627 -1 627 628 625 -1 628 627 629 -1 630 627 624 -1 627 630 631 -1 632 633 634 -1 633 632 635 -1 634 636 637 -1 636 634 633 -1 607 638 617 -1 638 607 614 -1 603 639 610 -1 639 603 623 -1 614 639 623 -1 639 614 613 -1 622 614 623 -1 614 622 638 -1 640 596 595 -1 596 640 641 -1 596 641 642 -1 596 642 599 -1 599 591 593 -1 591 599 643 -1 643 599 644 -1 644 599 642 -1 644 642 645 -1 644 645 646 -1 646 645 647 -1 646 647 648 -1 648 647 622 -1 622 647 621 -1 622 621 638 -1 638 621 617 -1 617 621 618 -1 602 649 600 -1 649 602 650 -1 650 602 605 -1 650 605 636 -1 636 605 619 -1 636 619 651 -1 651 637 636 -1 637 651 652 -1 648 653 654 -1 653 648 600 -1 600 648 622 -1 653 600 649 -1 654 653 630 -1 654 630 624 -1 654 624 626 -1 633 655 656 -1 655 633 635 -1 657 621 647 -1 621 657 620 -1 651 615 658 -1 615 651 619 -1 615 619 616 -1 597 640 595 -1 640 597 659 -1 660 648 654 -1 648 660 661 -1 648 662 646 -1 662 648 661 -1 663 590 592 -1 590 663 598 -1 598 663 664 -1 598 664 594 -1 594 659 597 -1 659 594 665 -1 665 594 666 -1 666 594 664 -1 666 664 662 -1 666 662 667 -1 667 662 661 -1 667 661 657 -1 657 661 668 -1 668 661 660 -1 657 668 610 -1 668 660 669 -1 669 660 629 -1 629 660 628 -1 610 670 611 -1 670 610 668 -1 611 670 655 -1 611 655 635 -1 611 635 612 -1 612 635 632 -1 612 632 658 -1 658 632 671 -1 615 612 658 -1 657 639 620 -1 639 657 610 -1 620 639 613 -1 620 613 609 -1 620 609 606 -1 592 643 663 -1 643 592 591 -1 663 644 664 -1 644 663 643 -1 654 628 660 -1 628 654 626 -1 628 626 625 -1 666 641 665 -1 641 666 642 -1 664 646 662 -1 646 664 644 -1 652 658 671 -1 658 652 651 -1 637 632 634 -1 632 637 671 -1 671 637 652 -1 667 642 666 -1 642 667 645 -1 667 647 645 -1 647 667 657 -1 665 640 659 -1 640 665 641 -1 653 631 630 -1 631 653 672 -1 627 669 629 -1 669 627 631 -1 649 672 653 -1 672 649 673 -1 631 668 669 -1 668 631 672 -1 649 656 673 -1 656 649 650 -1 656 670 673 -1 670 656 655 -1 672 670 668 -1 670 672 673 -1 633 650 636 -1 650 633 656 -1 674 675 676 -1 675 674 677 -1 678 679 680 -1 679 678 681 -1 682 674 683 -1 674 682 677 -1 677 682 684 -1 681 685 679 -1 685 681 686 -1 687 680 688 -1 680 687 678 -1 689 690 691 -1 690 689 692 -1 687 693 684 -1 693 687 690 -1 693 690 692 -1 684 694 677 -1 694 684 693 -1 677 694 675 -1 675 695 676 -1 695 675 694 -1 695 693 696 -1 693 695 694 -1 697 685 698 -1 685 697 679 -1 697 699 700 -1 699 697 701 -1 699 701 702 -1 699 702 703 -1 700 679 697 -1 679 700 680 -1 693 689 696 -1 689 693 692 -1 700 682 683 -1 682 700 699 -1 682 699 703 -1 682 703 684 -1 678 702 681 -1 702 678 703 -1 687 703 678 -1 703 687 684 -1 698 701 697 -1 701 698 704 -1 701 704 702 -1 683 695 688 -1 695 683 674 -1 695 674 676 -1 688 696 691 -1 696 688 695 -1 691 696 689 -1 704 685 686 -1 685 704 698 -1 683 680 700 -1 680 683 688 -1 690 688 691 -1 688 690 687 -1 681 704 686 -1 704 681 702 -1 705 706 707 -1 706 705 708 -1 709 705 710 -1 705 709 708 -1 706 711 707 -1 711 706 712 -1 705 711 710 -1 711 705 707 -1 706 709 712 -1 709 706 708 -1 709 711 712 -1 711 709 710 -1 713 714 715 -1 714 713 716 -1 717 718 719 -1 718 717 720 -1 721 713 722 -1 713 721 716 -1 716 721 723 -1 720 724 718 -1 724 720 725 -1 726 719 727 -1 719 726 717 -1 728 729 730 -1 729 728 731 -1 726 732 723 -1 732 726 729 -1 732 729 731 -1 723 733 716 -1 733 723 732 -1 716 733 714 -1 714 734 715 -1 734 714 733 -1 734 732 735 -1 732 734 733 -1 736 724 737 -1 724 736 718 -1 736 738 739 -1 738 736 740 -1 738 740 741 -1 738 741 742 -1 739 718 736 -1 718 739 719 -1 732 728 735 -1 728 732 731 -1 739 721 722 -1 721 739 738 -1 721 738 742 -1 721 742 723 -1 717 741 720 -1 741 717 742 -1 726 742 717 -1 742 726 723 -1 737 740 736 -1 740 737 743 -1 740 743 741 -1 722 734 727 -1 734 722 713 -1 734 713 715 -1 727 735 730 -1 735 727 734 -1 730 735 728 -1 743 724 725 -1 724 743 737 -1 722 719 739 -1 719 722 727 -1 729 727 730 -1 727 729 726 -1 720 743 725 -1 743 720 741 -1 412 411 410 -1 411 412 409 -1 411 407 408 -1 407 411 409 -1 406 744 745 -1 744 406 403 -1 746 747 748 -1 747 746 749 -1 747 749 750 -1 750 749 751 -1 751 749 752 -1 753 748 747 -1 754 755 756 -1 755 754 749 -1 749 754 752 -1 756 757 758 -1 757 756 759 -1 759 756 749 -1 749 756 755 -1 756 760 761 -1 760 756 758 -1 758 762 763 -1 762 758 764 -1 764 758 759 -1 759 758 757 -1 754 744 765 -1 766 761 767 -1 761 766 745 -1 761 745 756 -1 756 745 744 -1 756 744 754 -1 758 768 760 -1 768 758 763 -1 748 761 746 -1 761 748 767 -1 763 769 770 -1 769 763 764 -1 764 763 762 -1 771 749 746 -1 749 771 759 -1 772 759 771 -1 759 772 764 -1 773 764 772 -1 764 773 769 -1 746 760 771 -1 760 746 761 -1 771 768 772 -1 768 771 760 -1 772 774 773 -1 774 772 768 -1 763 774 768 -1 774 763 770 -1 769 774 770 -1 774 769 773 -1 747 412 410 -1 412 747 750 -1 766 406 745 -1 406 766 408 -1 408 766 411 -1 411 747 410 -1 747 411 753 -1 753 411 766 -1 751 412 750 -1 412 751 409 -1 409 751 407 -1 407 744 403 -1 744 407 765 -1 765 407 751 -1 748 766 767 -1 766 748 753 -1 751 754 765 -1 754 751 752 -1 599 590 593 -1 590 599 598 -1 594 599 596 -1 599 594 598 -1 593 775 776 -1 775 593 590 -1 777 778 779 -1 778 777 780 -1 781 595 782 -1 595 781 597 -1 783 784 785 -1 784 783 786 -1 776 599 593 -1 595 777 782 -1 777 595 596 -1 777 596 780 -1 780 596 599 -1 780 599 776 -1 787 788 789 -1 788 787 790 -1 789 791 792 -1 791 789 788 -1 793 794 795 -1 794 793 796 -1 794 796 788 -1 788 796 791 -1 793 797 798 -1 797 793 799 -1 795 799 793 -1 799 795 800 -1 795 801 802 -1 801 795 794 -1 801 794 788 -1 801 788 790 -1 792 797 799 -1 797 792 803 -1 778 804 779 -1 804 778 787 -1 785 594 781 -1 594 785 784 -1 594 784 598 -1 598 784 590 -1 590 784 775 -1 597 781 594 -1 789 799 800 -1 799 789 792 -1 792 805 803 -1 805 792 791 -1 802 800 795 -1 800 802 804 -1 805 797 803 -1 797 805 798 -1 787 800 804 -1 800 787 789 -1 802 781 804 -1 781 802 783 -1 781 783 785 -1 804 782 779 -1 782 804 781 -1 779 782 777 -1 801 783 802 -1 783 801 786 -1 786 801 790 -1 787 776 790 -1 776 787 778 -1 776 778 780 -1 790 775 786 -1 775 790 776 -1 786 775 784 -1 798 796 793 -1 796 798 805 -1 796 805 791 -1 "
						                >
							<Coordinate DEF="coords_ME_05-2_001"
							            point="39.826622 26.055740 10.722680 28.802999 22.118732 10.722680 28.802999 26.055740 10.722680 39.826622 22.118732 10.722680 39.826622 26.055740 11.510081 39.826622 22.118732 11.510081 44.551029 26.055740 11.510081 44.551029 22.118732 10.722680 44.551029 22.118732 11.510081 44.551029 26.055740 10.722680 42.188828 22.118732 11.510081 42.188828 26.055740 11.510081 55.180950 22.118732 15.447089 45.413528 24.087236 16.017517 45.338432 22.118732 15.447089 55.105854 24.087236 16.017517 44.827000 24.087236 16.332916 44.747879 26.055740 15.605327 44.315567 26.055740 16.037640 45.043156 24.087236 16.116760 44.157330 26.055740 16.628191 44.747879 24.087236 16.628191 44.747879 22.118732 15.605327 44.315567 22.118732 16.037640 45.338432 26.055740 15.447089 44.157330 22.118732 16.628191 55.476227 24.087236 16.116760 55.180950 26.055740 15.447089 55.771503 26.055740 15.605327 56.362053 26.055740 16.628191 55.692383 24.087236 16.332916 55.771503 24.087236 16.628191 56.203815 26.055740 16.037640 56.203815 22.118732 16.037640 55.771503 22.118732 15.605327 56.362053 22.118732 16.628191 40.220322 26.055740 16.628191 39.550652 24.087236 16.332916 39.629772 24.087236 16.628191 40.062084 26.055740 16.037640 60.299061 26.055740 16.628191 60.299061 22.118732 16.628191 55.574654 22.118732 10.722680 57.464417 22.118732 11.077010 58.881741 22.118732 11.785672 26.913235 22.118732 11.077010 25.495913 22.118732 11.785672 59.826622 22.118732 12.848664 24.551031 22.118732 12.848664 60.299061 22.118732 14.265987 24.078590 22.118732 14.265987 39.039219 22.118732 15.447089 39.629772 22.118732 15.605327 40.062084 22.118732 16.037640 40.220322 22.118732 16.628191 43.763630 22.118732 16.628191 40.614021 22.118732 16.628191 29.196699 22.118732 15.447089 24.078590 22.118732 16.628191 28.606148 22.118732 15.605327 28.173836 22.118732 16.037640 28.015596 22.118732 16.628191 40.614021 26.055740 16.628191 26.913235 26.055740 11.077010 43.763630 26.055740 16.628191 25.495913 26.055740 11.785672 55.574654 26.055740 10.722680 57.464417 26.055740 11.077010 58.881741 26.055740 11.785672 24.551031 26.055740 12.848664 59.826622 26.055740 12.848664 24.078590 26.055740 14.265987 60.299061 26.055740 14.265987 29.196699 26.055740 15.447089 24.078590 26.055740 16.628191 28.606148 26.055740 15.605327 28.173836 26.055740 16.037640 28.015596 26.055740 16.628191 39.629772 26.055740 15.605327 39.039219 26.055740 15.447089 28.606148 24.087236 16.628191 28.685266 24.087236 16.332916 28.901424 24.087236 16.116760 29.271797 24.087236 16.017517 38.964123 24.087236 16.017517 39.334496 24.087236 16.116760 44.551029 26.055740 18.990396 44.551029 22.118732 19.777798 44.551029 22.118732 18.990396 44.551029 26.055740 19.777798 39.826622 26.055740 19.777798 39.826622 22.118732 18.990396 39.826622 22.118732 19.777798 39.826622 26.055740 18.990396 39.039219 26.055740 18.990396 39.039219 22.118732 18.990396 45.338432 20.937630 18.202995 45.338432 22.118732 18.990396 45.338432 20.937630 20.565199 45.338432 27.236843 18.202995 45.338432 26.055740 18.990396 45.338432 26.055740 20.565199 45.338432 27.236843 20.565199 45.338432 22.118732 20.565199 39.039219 27.236843 20.565199 39.826622 27.236843 18.202995 39.039219 27.236843 18.202995 39.826622 26.821999 17.763865 39.454063 26.821999 17.763865 44.923588 26.821999 17.763865 39.454063 21.352472 17.763865 39.039219 20.937630 18.202995 39.826622 26.551840 17.223545 39.724220 26.551840 17.223545 44.653431 26.551840 17.223545 39.039219 26.055740 20.565199 39.039219 22.118732 20.565199 39.039219 20.937630 20.565199 39.724220 21.622633 17.223545 44.551029 26.449440 16.628191 39.826622 26.449440 16.628191 44.923588 21.352472 17.763865 44.653431 21.622633 17.223545 44.551029 21.725031 16.628191 39.826622 21.725031 16.628191 61.086464 27.236843 20.565199 55.574654 26.055740 20.565199 61.086464 26.055740 20.565199 55.574654 27.236843 20.565199 55.989494 21.352472 17.763865 60.401463 21.622633 17.223545 60.671619 21.352472 17.763865 56.259655 21.622633 17.223545 56.362053 27.236843 18.202995 61.086464 27.236843 18.202995 55.574654 27.236843 18.202995 60.299061 21.725031 16.628191 56.362053 21.725031 16.628191 55.574654 20.937630 18.202995 61.086464 20.937630 18.202995 61.086464 22.118732 20.565199 55.574654 20.937630 20.565199 61.086464 20.937630 20.565199 55.574654 22.118732 20.565199 55.574654 22.118732 18.990396 55.574654 26.055740 18.990396 61.086464 26.055740 18.990396 61.086464 22.118732 18.990396 60.401463 26.551840 17.223545 60.299061 26.449440 16.628191 56.362053 26.821999 17.763865 60.671619 26.821999 17.763865 56.362053 26.551840 17.223545 56.259655 26.551840 17.223545 55.989494 26.821999 17.763865 56.362053 26.449440 16.628191 28.802999 27.236843 20.565199 23.291187 26.055740 20.565199 28.802999 26.055740 20.565199 23.291187 27.236843 20.565199 23.706032 21.352472 17.763865 28.117996 21.622633 17.223545 28.388155 21.352472 17.763865 23.976191 21.622633 17.223545 24.078590 27.236843 18.202995 28.802999 27.236843 18.202995 23.291187 27.236843 18.202995 28.015596 21.725031 16.628191 24.078590 21.725031 16.628191 23.291187 20.937630 18.202995 28.802999 20.937630 18.202995 28.802999 22.118732 20.565199 23.291187 20.937630 20.565199 28.802999 20.937630 20.565199 23.291187 22.118732 20.565199 23.291187 22.118732 18.990396 23.291187 26.055740 18.990396 28.802999 26.055740 18.990396 28.802999 22.118732 18.990396 28.117996 26.551840 17.223545 28.015596 26.449440 16.628191 24.078590 26.821999 17.763865 28.388155 26.821999 17.763865 24.078590 26.551840 17.223545 23.976191 26.551840 17.223545 23.706032 26.821999 17.763865 24.078590 26.449440 16.628191 39.432919 26.055740 2.454963 36.283314 22.118732 2.454963 36.283314 26.055740 2.454963 39.432919 22.118732 2.454963 44.944733 26.055740 3.242365 44.944733 22.118732 2.454963 44.944733 22.118732 3.242365 44.944733 26.055740 2.454963 39.432919 26.055740 3.242365 39.432919 22.118732 3.242365 45.338432 22.118732 7.179373 45.043156 24.087236 7.849043 44.747879 22.118732 7.337611 45.413528 24.087236 7.749802 44.827000 24.087236 8.065200 44.315567 22.118732 7.769924 50.456543 26.055740 8.360476 49.786873 24.087236 8.065200 49.865990 24.087236 8.360476 50.298306 26.055740 7.769924 45.338432 26.055740 7.179373 44.747879 26.055740 7.337611 44.315567 26.055740 7.769924 49.865990 26.055740 7.337611 49.570717 24.087236 7.849043 44.157330 26.055740 8.360476 44.747879 24.087236 8.360476 50.298306 22.118732 7.769924 50.456543 22.118732 8.360476 44.157330 22.118732 8.360476 54.393551 26.055740 8.360476 54.393551 22.118732 8.360476 49.275440 22.118732 7.179373 49.200340 24.087236 7.749802 34.079346 22.118732 7.769924 34.511662 24.087236 8.360476 33.921108 22.118732 8.360476 34.590778 24.087236 8.065200 33.921108 26.055740 8.360476 34.079346 26.055740 7.769924 34.511662 22.118732 7.337611 34.806934 24.087236 7.849043 40.220322 26.055740 8.360476 39.550652 24.087236 8.065200 39.629772 24.087236 8.360476 40.062084 26.055740 7.769924 40.062084 22.118732 7.769924 40.220322 22.118732 8.360476 49.865990 22.118732 7.337611 49.275440 26.055740 7.179373 48.094337 22.118732 2.454963 50.614021 22.118732 2.809294 52.503788 22.118732 3.517956 33.763630 22.118732 2.809294 31.873865 22.118732 3.517956 53.763630 22.118732 4.580947 30.614023 22.118732 4.580947 54.393551 22.118732 5.998271 29.984100 22.118732 5.998271 39.039219 22.118732 7.179373 39.629772 22.118732 7.337611 43.763630 22.118732 8.360476 40.614021 22.118732 8.360476 35.102211 22.118732 7.179373 29.984100 22.118732 8.360476 39.629772 26.055740 7.337611 39.334496 24.087236 7.849043 54.393551 26.055740 5.998271 43.763630 26.055740 8.360476 48.094337 26.055740 2.454963 29.984100 26.055740 8.360476 29.984100 26.055740 5.998271 30.614023 26.055740 4.580947 33.763630 26.055740 2.809294 31.873865 26.055740 3.517956 50.614021 26.055740 2.809294 52.503788 26.055740 3.517956 53.763630 26.055740 4.580947 35.102211 26.055740 7.179373 34.511662 26.055740 7.337611 39.039219 26.055740 7.179373 40.614021 26.055740 8.360476 35.177311 24.087236 7.749802 38.964123 24.087236 7.749802 55.180950 27.246424 12.297483 49.669140 26.065321 12.297483 55.180950 26.065321 12.297483 49.669140 27.246424 12.297483 50.083984 21.362055 9.496147 54.495949 21.632214 8.955829 54.766109 21.362055 9.496147 50.354145 21.632214 8.955829 50.456543 27.246424 9.935278 55.180950 27.246424 9.935278 49.669140 27.246424 9.935278 54.393551 21.734613 8.360476 50.456543 21.734613 8.360476 49.669140 20.947212 9.935278 55.180950 20.947212 9.935278 55.180950 22.128313 12.297483 49.669140 20.947212 12.297483 55.180950 20.947212 12.297483 49.669140 22.128313 12.297483 49.669140 22.128313 10.722680 49.669140 26.065321 10.722680 55.180950 26.065321 10.722680 55.180950 22.128313 10.722680 54.495949 26.561422 8.955829 54.393551 26.459023 8.360476 50.456543 26.831581 9.496147 54.766109 26.831581 9.496147 50.456543 26.561422 8.955829 50.354145 26.561422 8.955829 50.083984 26.831581 9.496147 50.456543 26.459023 8.360476 19.145519 22.118732 24.895908 19.145519 26.055740 18.990396 19.145519 22.118732 18.990396 19.145519 26.055740 24.895908 66.389610 26.055740 24.895908 66.389610 22.118732 24.895908 66.389610 22.118732 18.990396 66.389610 26.055740 18.990396 34.708511 27.236843 12.297483 29.196699 26.055740 12.297483 34.708511 26.055740 12.297483 29.196699 27.236843 12.297483 29.611544 21.352472 9.496147 34.023506 21.622633 8.955829 34.293667 21.352472 9.496147 29.881702 21.622633 8.955829 29.984100 27.236843 9.935278 34.708511 27.236843 9.935278 29.196699 27.236843 9.935278 33.921108 21.725031 8.360476 29.984100 21.725031 8.360476 29.196699 20.937630 9.935278 34.708511 20.937630 9.935278 34.708511 22.118732 12.297483 29.196699 20.937630 12.297483 34.708511 20.937630 12.297483 29.196699 22.118732 12.297483 29.196699 22.118732 10.722680 29.196699 26.055740 10.722680 34.708511 26.055740 10.722680 34.708511 22.118732 10.722680 34.023506 26.551840 8.955829 33.921108 26.449440 8.360476 29.984100 26.821999 9.496147 34.293667 26.821999 9.496147 29.984100 26.551840 8.955829 29.881702 26.551840 8.955829 29.611544 26.821999 9.496147 29.984100 26.449440 8.360476 39.039219 26.055740 10.722680 39.039219 22.118732 10.722680 45.338432 20.937630 9.935278 45.338432 22.118732 10.722680 45.338432 20.937630 12.297483 45.338432 27.236843 9.935278 45.338432 26.055740 10.722680 45.338432 26.055740 12.297483 45.338432 27.236843 12.297483 45.338432 22.118732 12.297483 39.039219 27.236843 12.297483 39.826622 27.236843 9.935278 39.039219 27.236843 9.935278 39.826622 26.821999 9.496147 39.454063 26.821999 9.496147 44.923588 26.821999 9.496147 39.454063 21.352472 9.496147 39.039219 20.937630 9.935278 39.826622 26.551840 8.955829 39.724220 26.551840 8.955829 44.653431 26.551840 8.955829 39.039219 26.055740 12.297483 39.039219 22.118732 12.297483 39.039219 20.937630 12.297483 39.724220 21.622633 8.955829 44.551029 26.449440 8.360476 39.826622 26.449440 8.360476 44.923588 21.352472 9.496147 44.653431 21.622633 8.955829 44.551029 21.725031 8.360476 39.826622 21.725031 8.360476 38.645519 26.055740 2.454963 38.645519 22.118732 2.454963 45.732132 22.118732 4.029767 38.645519 20.937630 4.029767 45.732132 20.937630 4.029767 38.645519 22.118732 4.029767 45.732132 26.055740 2.454963 45.732132 22.118732 2.454963 45.732132 27.236843 4.029767 38.645519 26.055740 4.029767 45.732132 26.055740 4.029767 38.645519 27.236843 4.029767 38.645519 20.937630 1.667562 39.060360 26.821999 1.228431 39.060360 21.352472 1.228431 38.645519 27.236843 1.667562 39.330521 26.551840 0.688112 39.330521 21.622633 0.688112 45.047131 26.551840 0.688112 39.432919 26.821999 1.228431 45.317291 26.821999 1.228431 39.432919 26.551840 0.688112 44.944733 21.725031 0.092759 44.944733 26.449440 0.092759 45.047131 21.622633 0.688112 45.317291 21.352472 1.228431 39.432919 27.236843 1.667562 45.732132 27.236843 1.667562 39.432919 21.725031 0.092759 45.732132 20.937630 1.667562 39.432919 26.449440 0.092759 3.819601 21.151083 10.722680 7.756608 10.127460 10.722680 3.819601 10.127460 10.722680 7.756608 21.151083 10.722680 3.819601 21.151083 11.510081 7.756608 21.151083 11.510081 3.819601 25.875492 11.510081 7.756608 25.875492 10.722680 7.756608 25.875492 11.510081 3.819601 25.875492 10.722680 7.756608 23.513287 11.510081 3.819601 23.513287 11.510081 7.756608 36.505413 15.447089 5.788105 26.737991 16.017517 7.756608 26.662893 15.447089 5.788105 36.430313 16.017517 5.788105 26.151461 16.332916 3.819601 26.072342 15.605327 3.819601 25.640028 16.037640 5.788105 26.367617 16.116760 3.819601 25.481791 16.628191 5.788105 26.072342 16.628191 7.756608 26.072342 15.605327 7.756608 25.640028 16.037640 3.819601 26.662893 15.447089 7.756608 25.481791 16.628191 5.788105 36.800690 16.116760 3.819601 36.505413 15.447089 3.819601 37.095963 15.605327 3.819601 37.686516 16.628191 5.788105 37.016846 16.332916 5.788105 37.095963 16.628191 3.819601 37.528278 16.037640 7.756608 37.528278 16.037640 7.756608 37.095963 15.605327 7.756608 37.686516 16.628191 3.819601 21.544783 16.628191 5.788105 20.875113 16.332916 5.788105 20.954231 16.628191 3.819601 21.386545 16.037640 3.819601 41.623524 16.628191 7.756608 41.623524 16.628191 7.756608 36.899113 10.722680 7.756608 38.788876 11.077010 7.756608 40.206200 11.785672 7.756608 8.237697 11.077010 7.756608 6.820374 11.785672 7.756608 41.151081 12.848664 7.756608 5.875492 12.848664 7.756608 41.623524 14.265987 7.756608 5.403050 14.265987 7.756608 20.363680 15.447089 7.756608 20.954231 15.605327 7.756608 21.386545 16.037640 7.756608 21.544783 16.628191 7.756608 25.088091 16.628191 7.756608 21.938484 16.628191 7.756608 10.521161 15.447089 7.756608 5.403050 16.628191 7.756608 9.930610 15.605327 7.756608 9.498296 16.037640 7.756608 9.340058 16.628191 3.819601 21.938484 16.628191 3.819601 8.237697 11.077010 3.819601 25.088091 16.628191 3.819601 6.820374 11.785672 3.819601 36.899113 10.722680 3.819601 38.788876 11.077010 3.819601 40.206200 11.785672 3.819601 5.875492 12.848664 3.819601 41.151081 12.848664 3.819601 5.403050 14.265987 3.819601 41.623524 14.265987 3.819601 10.521161 15.447089 3.819601 5.403050 16.628191 3.819601 9.930610 15.605327 3.819601 9.498296 16.037640 3.819601 9.340058 16.628191 3.819601 20.954231 15.605327 3.819601 20.363680 15.447089 5.788105 9.930610 16.628191 5.788105 10.009728 16.332916 5.788105 10.225885 16.116760 5.788105 10.596259 16.017517 5.788105 20.288582 16.017517 5.788105 20.658957 16.116760 3.819601 25.875492 18.990396 7.756608 25.875492 19.777798 7.756608 25.875492 18.990396 3.819601 25.875492 19.777798 3.819601 21.151083 19.777798 7.756608 21.151083 18.990396 7.756608 21.151083 19.777798 3.819601 21.151083 18.990396 3.819601 20.363680 18.990396 7.756608 20.363680 18.990396 8.937711 26.662893 18.202995 7.756608 26.662893 18.990396 8.937711 26.662893 20.565199 2.638499 26.662893 18.202995 3.819601 26.662893 18.990396 3.819601 26.662893 20.565199 2.638499 26.662893 20.565199 7.756608 26.662893 20.565199 2.638499 20.363680 20.565199 2.638499 21.151083 18.202995 2.638499 20.363680 18.202995 3.053342 21.151083 17.763865 3.053342 20.778524 17.763865 3.053342 26.248051 17.763865 8.522868 20.778524 17.763865 8.937711 20.363680 18.202995 3.323501 21.151083 17.223545 3.323501 21.048683 17.223545 3.323501 25.977890 17.223545 3.819601 20.363680 20.565199 7.756608 20.363680 20.565199 8.937711 20.363680 20.565199 8.252708 21.048683 17.223545 3.425900 25.875492 16.628191 3.425900 21.151083 16.628191 8.522868 26.248051 17.763865 8.252708 25.977890 17.223545 8.150310 25.875492 16.628191 8.150310 21.151083 16.628191 2.638499 42.410923 20.565199 3.819601 36.899113 20.565199 3.819601 42.410923 20.565199 2.638499 36.899113 20.565199 8.522868 37.313957 17.763865 8.252708 41.725922 17.223545 8.522868 41.996082 17.763865 8.252708 37.584118 17.223545 2.638499 37.686516 18.202995 2.638499 42.410923 18.202995 2.638499 36.899113 18.202995 8.150310 41.623524 16.628191 8.150310 37.686516 16.628191 8.937711 36.899113 18.202995 8.937711 42.410923 18.202995 7.756608 42.410923 20.565199 8.937711 36.899113 20.565199 8.937711 42.410923 20.565199 7.756608 36.899113 20.565199 7.756608 36.899113 18.990396 3.819601 36.899113 18.990396 3.819601 42.410923 18.990396 7.756608 42.410923 18.990396 3.323501 41.725922 17.223545 3.425900 41.623524 16.628191 3.053342 37.686516 17.763865 3.053342 41.996082 17.763865 3.323501 37.686516 17.223545 3.323501 37.584118 17.223545 3.053342 37.313957 17.763865 3.425900 37.686516 16.628191 2.638499 10.127460 20.565199 3.819601 4.615649 20.565199 3.819601 10.127460 20.565199 2.638499 4.615649 20.565199 8.522868 5.030492 17.763865 8.252708 9.442457 17.223545 8.522868 9.712617 17.763865 8.252708 5.300652 17.223545 2.638499 5.403050 18.202995 2.638499 10.127460 18.202995 2.638499 4.615649 18.202995 8.150310 9.340058 16.628191 8.150310 5.403050 16.628191 8.937711 4.615649 18.202995 8.937711 10.127460 18.202995 7.756608 10.127460 20.565199 8.937711 4.615649 20.565199 8.937711 10.127460 20.565199 7.756608 4.615649 20.565199 7.756608 4.615649 18.990396 3.819601 4.615649 18.990396 3.819601 10.127460 18.990396 7.756608 10.127460 18.990396 3.323501 9.442457 17.223545 3.425900 9.340058 16.628191 3.053342 5.403050 17.763865 3.053342 9.712617 17.763865 3.323501 5.403050 17.223545 3.323501 5.300652 17.223545 3.053342 5.030492 17.763865 3.425900 5.403050 16.628191 3.819601 20.757381 2.454963 7.756608 17.607775 2.454963 3.819601 17.607775 2.454963 7.756608 20.757381 2.454963 3.819601 26.269192 3.242365 7.756608 26.269192 2.454963 7.756608 26.269192 3.242365 3.819601 26.269192 2.454963 3.819601 20.757381 3.242365 7.756608 20.757381 3.242365 7.756608 26.662893 7.179373 5.788105 26.367617 7.849043 7.756608 26.072342 7.337611 5.788105 26.737991 7.749802 5.788105 26.151461 8.065200 7.756608 25.640028 7.769924 3.819601 31.781004 8.360476 5.788105 31.111334 8.065200 5.788105 31.190453 8.360476 3.819601 31.622766 7.769924 3.819601 26.662893 7.179373 3.819601 26.072342 7.337611 3.819601 25.640028 7.769924 3.819601 31.190453 7.337611 5.788105 30.895176 7.849043 3.819601 25.481791 8.360476 5.788105 26.072342 8.360476 7.756608 31.622766 7.769924 7.756608 31.781004 8.360476 7.756608 25.481791 8.360476 3.819601 35.718010 8.360476 7.756608 35.718010 8.360476 7.756608 30.599901 7.179373 5.788105 30.524803 7.749802 7.756608 15.403808 7.769924 5.788105 15.836122 8.360476 7.756608 15.245570 8.360476 5.788105 15.915240 8.065200 3.819601 15.245570 8.360476 3.819601 15.403808 7.769924 7.756608 15.836122 7.337611 5.788105 16.131397 7.849043 3.819601 21.544783 8.360476 5.788105 20.875113 8.065200 5.788105 20.954231 8.360476 3.819601 21.386545 7.769924 7.756608 21.386545 7.769924 7.756608 21.544783 8.360476 7.756608 31.190453 7.337611 3.819601 30.599901 7.179373 7.756608 29.418798 2.454963 7.756608 31.938484 2.809294 7.756608 33.828247 3.517956 7.756608 15.088090 2.809294 7.756608 13.198326 3.517956 7.756608 35.088089 4.580947 7.756608 11.938483 4.580947 7.756608 35.718010 5.998271 7.756608 11.308562 5.998271 7.756608 20.363680 7.179373 7.756608 20.954231 7.337611 7.756608 25.088091 8.360476 7.756608 21.938484 8.360476 7.756608 16.426672 7.179373 7.756608 11.308562 8.360476 3.819601 20.954231 7.337611 5.788105 20.658957 7.849043 3.819601 35.718010 5.998271 3.819601 25.088091 8.360476 3.819601 29.418798 2.454963 3.819601 11.308562 8.360476 3.819601 11.308562 5.998271 3.819601 11.938483 4.580947 3.819601 15.088090 2.809294 3.819601 13.198326 3.517956 3.819601 31.938484 2.809294 3.819601 33.828247 3.517956 3.819601 35.088089 4.580947 3.819601 16.426672 7.179373 3.819601 15.836122 7.337611 3.819601 20.363680 7.179373 3.819601 21.938484 8.360476 5.788105 16.501772 7.749802 5.788105 20.288582 7.749802 2.628917 36.505413 12.297483 3.810019 30.993603 12.297483 3.810019 36.505413 12.297483 2.628917 30.993603 12.297483 8.513286 31.408445 9.496147 8.243127 35.820412 8.955829 8.513286 36.090569 9.496147 8.243127 31.678604 8.955829 2.628917 31.781004 9.935278 2.628917 36.505413 9.935278 2.628917 30.993603 9.935278 8.140728 35.718010 8.360476 8.140728 31.781004 8.360476 8.928129 30.993603 9.935278 8.928129 36.505413 9.935278 7.747027 36.505413 12.297483 8.928129 30.993603 12.297483 8.928129 36.505413 12.297483 7.747027 30.993603 12.297483 7.747027 30.993603 10.722680 3.810019 30.993603 10.722680 3.810019 36.505413 10.722680 7.747027 36.505413 10.722680 3.313919 35.820412 8.955829 3.416318 35.718010 8.360476 3.043760 31.781004 9.496147 3.043760 36.090569 9.496147 3.313919 31.781004 8.955829 3.313919 31.678604 8.955829 3.043760 31.408445 9.496147 3.416318 31.781004 8.360476 7.756608 0.469980 24.895908 3.819601 0.469980 18.990396 7.756608 0.469980 18.990396 3.819601 0.469980 24.895908 3.819601 47.714073 24.895908 7.756608 47.714073 24.895908 7.756608 47.714073 18.990396 3.819601 47.714073 18.990396 2.638499 16.032972 12.297483 3.819601 10.521161 12.297483 3.819601 16.032972 12.297483 2.638499 10.521161 12.297483 8.522868 10.936004 9.496147 8.252708 15.347969 8.955829 8.522868 15.618129 9.496147 8.252708 11.206163 8.955829 2.638499 11.308562 9.935278 2.638499 16.032972 9.935278 2.638499 10.521161 9.935278 8.150310 15.245570 8.360476 8.150310 11.308562 8.360476 8.937711 10.521161 9.935278 8.937711 16.032972 9.935278 7.756608 16.032972 12.297483 8.937711 10.521161 12.297483 8.937711 16.032972 12.297483 7.756608 10.521161 12.297483 7.756608 10.521161 10.722680 3.819601 10.521161 10.722680 3.819601 16.032972 10.722680 7.756608 16.032972 10.722680 3.323501 15.347969 8.955829 3.425900 15.245570 8.360476 3.053342 11.308562 9.496147 3.053342 15.618129 9.496147 3.323501 11.308562 8.955829 3.323501 11.206163 8.955829 3.053342 10.936004 9.496147 3.425900 11.308562 8.360476 3.819601 20.363680 10.722680 7.756608 20.363680 10.722680 8.937711 26.662893 9.935278 7.756608 26.662893 10.722680 8.937711 26.662893 12.297483 2.638499 26.662893 9.935278 3.819601 26.662893 10.722680 3.819601 26.662893 12.297483 2.638499 26.662893 12.297483 7.756608 26.662893 12.297483 2.638499 20.363680 12.297483 2.638499 21.151083 9.935278 2.638499 20.363680 9.935278 3.053342 21.151083 9.496147 3.053342 20.778524 9.496147 3.053342 26.248051 9.496147 8.522868 20.778524 9.496147 8.937711 20.363680 9.935278 3.323501 21.151083 8.955829 3.323501 21.048683 8.955829 3.323501 25.977890 8.955829 3.819601 20.363680 12.297483 7.756608 20.363680 12.297483 8.937711 20.363680 12.297483 8.252708 21.048683 8.955829 3.425900 25.875492 8.360476 3.425900 21.151083 8.360476 8.522868 26.248051 9.496147 8.252708 25.977890 8.955829 8.150310 25.875492 8.360476 8.150310 21.151083 8.360476 3.819601 19.969980 2.454963 7.756608 19.969980 2.454963 7.756608 27.056595 4.029767 8.937711 19.969980 4.029767 8.937711 27.056595 4.029767 7.756608 19.969980 4.029767 3.819601 27.056595 2.454963 7.756608 27.056595 2.454963 2.638499 27.056595 4.029767 3.819601 19.969980 4.029767 3.819601 27.056595 4.029767 2.638499 19.969980 4.029767 8.937711 19.969980 1.667562 3.053342 20.384823 1.228431 8.522868 20.384823 1.228431 2.638499 19.969980 1.667562 3.323501 20.654982 0.688112 8.252708 20.654982 0.688112 3.323501 26.371592 0.688112 3.053342 20.757381 1.228431 3.053342 26.641750 1.228431 3.323501 20.757381 0.688112 8.150310 26.269192 0.092759 3.425900 26.269192 0.092759 8.252708 26.371592 0.688112 8.522868 26.641750 1.228431 2.638499 20.757381 1.667562 2.638499 27.056595 1.667562 8.150310 20.757381 0.092759 8.937711 27.056595 1.667562 3.425900 20.757381 0.092759 "
							            />
						</IndexedFaceSet>
					</Shape>
				</Group>
			</Transform>
		</Transform>
	</Scene>
</X3D>