<?xml version="1.0" encoding="UTF-8"?>
<!DOCTYPE X3D PUBLIC "ISO//Web3D//DTD X3D 3.0//EN" "http://www.web3d.org/specifications/x3d-3.0.dtd">
<X3D version="3.0" profile="Immersive" xmlns:xsd="http://www.w3.org/2001/XMLSchema-instance" xsd:noNamespaceSchemaLocation="http://www.web3d.org/specifications/x3d-3.0.xsd">
	<head>
		<meta name="filename" content="05-3.x3d" />
		<meta name="created" content="2026-06-21 15:09:37" />
		<meta name="generator" content="Blender 4.5.4 LTS" />
		<meta name="translator" content="Web3D X3D/VRML2 format v2.5.1" />
	</head>
	<Scene>
		<NavigationInfo headlight="true"
		                visibilityLimit="0.0"
		                type='"EXAMINE", "ANY"'
		                avatarSize="0.25, 1.75, 0.75"
		                />
		<Background DEF="WO_World"
		            groundColor="0.051 0.051 0.051"
		            skyColor="0.051 0.051 0.051"
		            />
		<Transform DEF="_05-3_TRANSFORM"
		           translation="0.000000 0.000000 0.000000"
		           scale="1.000000 1.000000 1.000000"
		           rotation="0.000000 0.707107 0.707107 3.141593"
		           >
			<Transform DEF="_05-3_ifs_TRANSFORM"
			           translation="0.000000 0.000000 0.000000"
			           scale="1.000000 1.000000 1.000000"
			           rotation="0.000000 1.000000 0.000000 0.000000"
			           >
				<Group DEF="group_ME_05-3_001">
					<Shape>
						<Appearance>
						</Appearance>
						<IndexedFaceSet solid="false"
						                coordIndex="0 1 2 -1 1 0 3 -1 4 5 6 -1 5 4 7 -1 0 5 7 -1 5 0 2 -1 4 0 7 -1 0 4 3 -1 1 5 2 -1 5 1 6 -1 1 4 6 -1 4 1 3 -1 8 9 10 -1 9 8 11 -1 10 12 13 -1 12 10 9 -1 14 12 15 -1 12 14 13 -1 16 15 17 -1 15 16 14 -1 18 17 19 -1 17 18 16 -1 18 20 21 -1 20 18 19 -1 21 22 23 -1 22 21 20 -1 12 17 15 -1 17 12 19 -1 19 12 9 -1 19 9 20 -1 20 9 11 -1 20 11 22 -1 24 25 26 -1 25 24 27 -1 27 28 25 -1 28 27 29 -1 28 30 31 -1 30 28 29 -1 31 32 33 -1 32 31 30 -1 33 34 35 -1 34 33 32 -1 34 36 35 -1 36 34 37 -1 37 38 36 -1 38 37 39 -1 29 32 30 -1 32 29 34 -1 34 29 27 -1 34 27 37 -1 37 27 24 -1 37 24 39 -1 40 41 42 -1 41 40 43 -1 44 42 45 -1 42 44 40 -1 46 44 45 -1 44 46 47 -1 48 47 46 -1 47 48 49 -1 50 49 48 -1 49 50 51 -1 52 50 53 -1 50 52 51 -1 54 53 55 -1 53 54 52 -1 45 48 46 -1 48 45 50 -1 50 45 42 -1 50 42 53 -1 53 42 41 -1 53 41 55 -1 56 57 58 -1 57 56 59 -1 60 59 56 -1 59 60 61 -1 60 62 61 -1 62 60 63 -1 63 64 62 -1 64 63 65 -1 65 66 64 -1 66 65 67 -1 68 66 67 -1 66 68 69 -1 70 69 68 -1 69 70 71 -1 60 65 63 -1 65 60 67 -1 67 60 56 -1 67 56 68 -1 68 56 58 -1 68 58 70 -1 72 73 74 -1 73 72 75 -1 76 77 78 -1 77 76 79 -1 80 81 82 -1 81 80 83 -1 84 57 85 -1 57 84 58 -1 58 84 23 -1 58 23 22 -1 22 70 58 -1 70 22 11 -1 70 79 71 -1 79 70 11 -1 79 11 8 -1 79 8 77 -1 86 76 78 -1 76 86 87 -1 88 83 80 -1 83 88 89 -1 90 89 88 -1 89 90 91 -1 82 75 72 -1 75 82 81 -1 87 91 90 -1 91 87 86 -1 92 47 93 -1 47 92 44 -1 44 92 40 -1 40 92 43 -1 74 82 72 -1 82 74 80 -1 80 74 94 -1 80 94 88 -1 88 94 95 -1 88 95 90 -1 90 95 96 -1 90 96 97 -1 97 96 49 -1 97 49 51 -1 97 51 52 -1 97 52 98 -1 49 96 93 -1 49 93 47 -1 98 52 54 -1 90 99 87 -1 99 90 97 -1 87 99 62 -1 62 99 61 -1 61 99 59 -1 59 99 85 -1 87 62 76 -1 59 85 57 -1 76 64 79 -1 64 76 62 -1 79 64 66 -1 79 66 69 -1 79 69 71 -1 92 100 101 -1 100 92 93 -1 95 102 96 -1 102 95 103 -1 93 102 100 -1 102 93 96 -1 85 104 84 -1 104 85 99 -1 77 14 78 -1 14 77 13 -1 13 77 10 -1 10 77 8 -1 86 104 91 -1 104 86 16 -1 104 16 18 -1 104 18 21 -1 104 21 84 -1 16 86 78 -1 16 78 14 -1 84 21 23 -1 83 75 81 -1 75 83 73 -1 73 83 89 -1 73 89 105 -1 105 89 91 -1 105 91 103 -1 103 91 102 -1 102 91 106 -1 106 91 104 -1 102 106 31 -1 31 106 28 -1 28 106 25 -1 25 106 107 -1 102 31 100 -1 25 107 26 -1 100 33 101 -1 33 100 31 -1 101 33 35 -1 101 35 36 -1 101 36 38 -1 107 24 26 -1 24 107 98 -1 38 41 101 -1 41 38 39 -1 41 39 55 -1 55 39 24 -1 55 24 54 -1 54 24 98 -1 101 43 92 -1 43 101 41 -1 74 105 94 -1 105 74 73 -1 106 99 97 -1 99 106 104 -1 94 103 95 -1 103 94 105 -1 106 98 107 -1 98 106 97 -1 108 109 110 -1 109 108 111 -1 112 113 114 -1 113 112 115 -1 113 116 117 -1 116 113 115 -1 118 119 120 -1 119 118 121 -1 120 122 123 -1 122 120 119 -1 124 125 126 -1 125 124 127 -1 125 127 122 -1 125 122 119 -1 124 128 129 -1 128 124 130 -1 126 130 124 -1 130 126 131 -1 126 132 133 -1 132 126 125 -1 132 125 119 -1 132 119 121 -1 123 128 130 -1 128 123 134 -1 135 136 137 -1 116 138 117 -1 138 116 139 -1 138 139 118 -1 118 139 136 -1 118 136 135 -1 140 141 142 -1 141 140 143 -1 141 144 142 -1 144 141 145 -1 120 130 131 -1 130 120 123 -1 123 146 134 -1 146 123 122 -1 144 112 114 -1 112 144 110 -1 110 144 108 -1 108 144 145 -1 112 136 139 -1 136 112 110 -1 133 131 126 -1 131 133 138 -1 146 128 134 -1 128 146 129 -1 118 131 138 -1 131 118 120 -1 109 135 137 -1 135 109 111 -1 133 144 138 -1 144 133 140 -1 144 140 142 -1 138 114 117 -1 114 138 144 -1 117 114 113 -1 132 140 133 -1 140 132 143 -1 143 132 121 -1 118 108 121 -1 108 118 135 -1 108 135 111 -1 121 145 143 -1 145 121 108 -1 143 145 141 -1 129 127 124 -1 127 129 146 -1 127 146 122 -1 116 112 139 -1 112 116 115 -1 109 136 110 -1 136 109 137 -1 147 148 149 -1 148 147 150 -1 151 147 152 -1 147 151 150 -1 153 154 155 -1 154 153 156 -1 157 154 158 -1 154 157 155 -1 159 160 161 -1 160 159 162 -1 163 164 165 -1 164 163 166 -1 160 167 168 -1 167 160 162 -1 167 159 169 -1 159 167 162 -1 170 171 172 -1 171 170 173 -1 171 173 158 -1 158 173 157 -1 157 173 174 -1 175 172 171 -1 148 176 177 -1 176 148 151 -1 176 151 173 -1 151 148 150 -1 173 156 174 -1 156 173 151 -1 174 156 153 -1 177 178 179 -1 178 173 180 -1 173 178 177 -1 173 177 176 -1 177 181 182 -1 181 177 179 -1 179 183 184 -1 183 179 185 -1 185 179 180 -1 180 179 178 -1 148 186 149 -1 159 182 169 -1 182 159 161 -1 182 161 177 -1 177 161 186 -1 177 186 148 -1 179 187 181 -1 187 179 184 -1 170 164 182 -1 164 170 172 -1 164 172 165 -1 182 168 169 -1 168 182 164 -1 169 168 167 -1 184 188 189 -1 188 184 185 -1 185 184 183 -1 190 173 170 -1 173 190 180 -1 191 180 190 -1 180 191 185 -1 192 185 191 -1 185 192 188 -1 170 181 190 -1 181 170 182 -1 190 187 191 -1 187 190 181 -1 191 193 192 -1 193 191 187 -1 184 193 187 -1 193 184 189 -1 188 193 189 -1 193 188 192 -1 160 186 161 -1 186 160 152 -1 164 160 168 -1 160 164 152 -1 152 164 151 -1 151 164 154 -1 154 164 166 -1 154 166 158 -1 158 166 171 -1 156 151 154 -1 166 175 171 -1 175 166 163 -1 147 186 152 -1 186 147 149 -1 172 163 165 -1 163 172 175 -1 157 153 155 -1 153 157 174 -1 194 139 195 -1 139 194 156 -1 196 57 197 -1 57 196 198 -1 198 196 199 -1 198 199 200 -1 198 200 156 -1 198 156 194 -1 195 201 202 -1 201 195 139 -1 203 204 205 -1 204 203 206 -1 201 207 202 -1 207 201 205 -1 205 201 208 -1 208 201 209 -1 208 209 151 -1 151 209 210 -1 207 204 211 -1 204 207 205 -1 212 207 211 -1 207 212 213 -1 214 213 212 -1 213 214 206 -1 213 206 203 -1 213 198 194 -1 198 213 203 -1 198 203 215 -1 198 215 216 -1 216 215 217 -1 216 217 218 -1 219 220 54 -1 220 219 221 -1 221 219 222 -1 222 219 223 -1 223 219 151 -1 151 215 208 -1 215 151 219 -1 215 219 217 -1 201 224 209 -1 224 201 225 -1 210 224 226 -1 224 210 209 -1 151 226 223 -1 226 151 210 -1 227 228 229 -1 228 227 230 -1 230 227 231 -1 230 231 232 -1 232 231 233 -1 232 233 234 -1 234 233 235 -1 235 233 236 -1 235 236 237 -1 237 236 238 -1 237 238 239 -1 239 238 225 -1 239 225 240 -1 240 225 201 -1 241 242 243 -1 242 241 244 -1 242 244 245 -1 245 244 246 -1 54 244 247 -1 244 54 248 -1 244 248 249 -1 244 249 250 -1 244 250 246 -1 246 250 251 -1 248 54 220 -1 251 252 253 -1 252 251 250 -1 253 252 254 -1 253 254 255 -1 253 255 256 -1 257 258 259 -1 258 257 260 -1 261 260 257 -1 260 261 262 -1 263 261 264 -1 261 263 262 -1 258 264 259 -1 264 258 263 -1 258 262 263 -1 262 258 260 -1 215 205 208 -1 205 215 203 -1 194 207 213 -1 207 194 202 -1 202 194 195 -1 214 204 206 -1 204 214 211 -1 211 214 212 -1 265 218 266 -1 218 265 216 -1 156 201 139 -1 201 156 240 -1 240 200 239 -1 200 240 156 -1 266 267 265 -1 267 266 268 -1 269 267 268 -1 267 269 270 -1 271 269 272 -1 269 273 270 -1 273 269 274 -1 274 269 271 -1 275 276 277 -1 276 275 278 -1 279 277 276 -1 277 279 280 -1 281 247 244 -1 247 281 97 -1 282 97 281 -1 97 282 99 -1 106 275 283 -1 275 106 104 -1 275 104 284 -1 275 284 278 -1 270 104 267 -1 104 270 273 -1 104 273 284 -1 276 274 279 -1 274 276 278 -1 274 278 284 -1 274 284 273 -1 272 106 283 -1 106 272 268 -1 268 272 269 -1 280 275 277 -1 275 280 271 -1 275 271 283 -1 283 271 272 -1 279 271 280 -1 271 279 274 -1 241 281 244 -1 281 241 285 -1 106 266 97 -1 266 106 268 -1 265 104 99 -1 104 265 267 -1 97 54 247 -1 54 97 219 -1 219 97 217 -1 217 97 266 -1 217 266 218 -1 285 243 286 -1 243 285 241 -1 287 251 253 -1 251 287 288 -1 289 248 220 -1 248 289 290 -1 290 249 248 -1 249 290 291 -1 292 221 222 -1 221 292 293 -1 221 289 220 -1 289 221 293 -1 226 222 223 -1 222 226 292 -1 294 285 286 -1 285 294 281 -1 281 294 295 -1 281 295 296 -1 287 297 288 -1 297 287 298 -1 298 287 299 -1 299 287 300 -1 281 57 282 -1 57 281 301 -1 301 281 302 -1 302 281 303 -1 303 281 296 -1 303 296 288 -1 303 288 297 -1 57 301 197 -1 282 265 99 -1 265 282 216 -1 216 282 57 -1 216 57 198 -1 301 230 232 -1 230 301 302 -1 230 303 228 -1 303 230 302 -1 200 237 239 -1 237 200 199 -1 199 235 237 -1 235 199 196 -1 197 232 234 -1 232 197 301 -1 235 197 234 -1 197 235 196 -1 228 297 229 -1 297 228 303 -1 229 298 227 -1 298 229 297 -1 298 231 227 -1 231 298 299 -1 299 233 231 -1 233 299 300 -1 304 256 255 -1 256 304 305 -1 306 255 254 -1 255 306 304 -1 252 306 254 -1 306 252 307 -1 291 307 308 -1 307 291 306 -1 306 291 290 -1 306 290 304 -1 304 290 289 -1 304 289 305 -1 305 289 293 -1 305 293 309 -1 309 293 292 -1 309 292 310 -1 310 292 226 -1 310 226 224 -1 249 308 250 -1 308 249 291 -1 250 307 252 -1 307 250 308 -1 251 296 246 -1 296 251 288 -1 295 246 296 -1 246 295 245 -1 256 233 253 -1 233 256 305 -1 253 300 287 -1 300 253 233 -1 225 310 224 -1 310 225 238 -1 286 242 294 -1 242 286 243 -1 309 233 305 -1 233 309 236 -1 238 309 310 -1 309 238 236 -1 294 245 295 -1 245 294 242 -1 311 312 313 -1 312 311 314 -1 315 316 317 -1 316 315 318 -1 319 311 320 -1 311 319 314 -1 314 319 321 -1 318 322 316 -1 322 318 323 -1 324 317 325 -1 317 324 315 -1 326 327 328 -1 327 326 329 -1 324 330 321 -1 330 324 327 -1 330 327 329 -1 321 331 314 -1 331 321 330 -1 314 331 312 -1 312 332 313 -1 332 312 331 -1 332 330 333 -1 330 332 331 -1 334 322 335 -1 322 334 316 -1 334 336 337 -1 336 334 338 -1 336 338 339 -1 336 339 340 -1 337 316 334 -1 316 337 317 -1 330 326 333 -1 326 330 329 -1 337 319 320 -1 319 337 336 -1 319 336 340 -1 319 340 321 -1 315 339 318 -1 339 315 340 -1 324 340 315 -1 340 324 321 -1 335 338 334 -1 338 335 341 -1 338 341 339 -1 320 332 325 -1 332 320 311 -1 332 311 313 -1 325 333 328 -1 333 325 332 -1 328 333 326 -1 341 322 323 -1 322 341 335 -1 320 317 337 -1 317 320 325 -1 327 325 328 -1 325 327 324 -1 318 341 323 -1 341 318 339 -1 342 343 344 -1 343 342 345 -1 345 346 347 -1 346 345 342 -1 348 345 347 -1 345 348 343 -1 344 348 349 -1 348 344 343 -1 348 346 349 -1 346 348 347 -1 342 349 346 -1 349 342 344 -1 330 350 331 -1 350 330 351 -1 352 353 354 -1 353 352 355 -1 330 353 355 -1 353 330 331 -1 352 330 355 -1 330 352 351 -1 350 353 331 -1 353 350 354 -1 350 352 354 -1 352 350 351 -1 356 357 358 -1 357 356 359 -1 360 361 362 -1 361 360 363 -1 364 356 365 -1 356 364 359 -1 359 364 366 -1 363 367 361 -1 367 363 368 -1 369 362 370 -1 362 369 360 -1 371 372 373 -1 372 371 374 -1 369 0 366 -1 0 369 372 -1 0 372 374 -1 366 2 359 -1 2 366 0 -1 359 2 357 -1 357 375 358 -1 375 357 2 -1 375 0 376 -1 0 375 2 -1 377 367 378 -1 367 377 361 -1 377 379 380 -1 379 377 381 -1 379 381 382 -1 379 382 383 -1 380 361 377 -1 361 380 362 -1 0 371 376 -1 371 0 374 -1 380 364 365 -1 364 380 379 -1 364 379 383 -1 364 383 366 -1 360 382 363 -1 382 360 383 -1 369 383 360 -1 383 369 366 -1 378 381 377 -1 381 378 384 -1 381 384 382 -1 365 375 370 -1 375 365 356 -1 375 356 358 -1 370 376 373 -1 376 370 375 -1 373 376 371 -1 384 367 368 -1 367 384 378 -1 365 362 380 -1 362 365 370 -1 372 370 373 -1 370 372 369 -1 363 384 368 -1 384 363 382 -1 385 386 387 -1 386 385 388 -1 389 390 391 -1 390 389 392 -1 393 394 395 -1 394 393 396 -1 391 397 389 -1 397 391 398 -1 395 399 400 -1 399 395 394 -1 399 394 401 -1 401 394 402 -1 402 394 403 -1 404 400 399 -1 405 406 407 -1 408 393 409 -1 393 408 410 -1 393 410 396 -1 396 410 406 -1 396 406 405 -1 411 385 412 -1 385 411 388 -1 413 414 415 -1 414 413 416 -1 415 417 418 -1 417 415 414 -1 419 414 416 -1 414 419 420 -1 420 417 414 -1 417 420 421 -1 421 422 417 -1 422 421 423 -1 421 424 423 -1 424 421 425 -1 419 426 420 -1 426 419 427 -1 420 425 421 -1 425 420 426 -1 428 408 409 -1 408 428 429 -1 418 422 430 -1 422 418 417 -1 431 391 390 -1 391 431 398 -1 398 431 406 -1 406 431 407 -1 408 397 410 -1 397 392 389 -1 392 397 429 -1 429 397 408 -1 399 411 412 -1 411 399 401 -1 410 398 406 -1 398 410 397 -1 432 385 387 -1 385 432 412 -1 412 432 399 -1 399 432 404 -1 402 411 401 -1 411 386 388 -1 386 411 433 -1 433 411 402 -1 419 394 427 -1 394 419 434 -1 394 434 403 -1 427 396 435 -1 396 427 394 -1 435 396 405 -1 418 436 415 -1 436 418 437 -1 436 437 425 -1 436 425 426 -1 424 422 423 -1 422 424 430 -1 415 438 413 -1 438 415 436 -1 438 436 427 -1 427 436 426 -1 430 437 418 -1 437 430 424 -1 437 424 425 -1 413 393 416 -1 393 413 428 -1 393 428 409 -1 416 395 439 -1 395 416 393 -1 439 395 400 -1 434 386 433 -1 432 416 439 -1 416 432 387 -1 416 387 419 -1 419 387 386 -1 419 386 434 -1 413 392 428 -1 392 413 438 -1 392 438 390 -1 390 438 431 -1 431 438 435 -1 435 438 427 -1 429 428 392 -1 433 403 434 -1 403 433 402 -1 431 405 407 -1 405 431 435 -1 400 432 439 -1 432 400 404 -1 440 441 442 -1 441 440 443 -1 444 445 446 -1 445 444 447 -1 448 440 449 -1 440 448 443 -1 443 448 450 -1 447 451 445 -1 451 447 452 -1 453 446 454 -1 446 453 444 -1 455 456 457 -1 456 455 458 -1 453 459 450 -1 459 453 456 -1 459 456 458 -1 450 460 443 -1 460 450 459 -1 443 460 441 -1 441 5 442 -1 5 441 460 -1 5 459 7 -1 459 5 460 -1 461 451 462 -1 451 461 445 -1 461 463 464 -1 463 461 465 -1 463 465 466 -1 463 466 467 -1 464 445 461 -1 445 464 446 -1 459 455 7 -1 455 459 458 -1 464 448 449 -1 448 464 463 -1 448 463 467 -1 448 467 450 -1 444 466 447 -1 466 444 467 -1 453 467 444 -1 467 453 450 -1 462 465 461 -1 465 462 468 -1 465 468 466 -1 449 5 454 -1 5 449 440 -1 5 440 442 -1 454 7 457 -1 7 454 5 -1 457 7 455 -1 468 451 452 -1 451 468 462 -1 449 446 464 -1 446 449 454 -1 456 454 457 -1 454 456 453 -1 447 468 452 -1 468 447 466 -1 469 470 471 -1 470 469 472 -1 471 473 474 -1 473 471 470 -1 475 473 476 -1 473 475 474 -1 477 476 478 -1 476 477 475 -1 479 478 480 -1 478 479 477 -1 479 481 482 -1 481 479 480 -1 482 483 484 -1 483 482 481 -1 473 478 476 -1 478 473 480 -1 480 473 470 -1 480 470 481 -1 481 470 472 -1 481 472 483 -1 485 486 487 -1 486 485 488 -1 488 489 486 -1 489 488 490 -1 489 491 492 -1 491 489 490 -1 492 493 494 -1 493 492 491 -1 494 495 496 -1 495 494 493 -1 495 497 496 -1 497 495 498 -1 498 499 497 -1 499 498 500 -1 490 493 491 -1 493 490 495 -1 495 490 488 -1 495 488 498 -1 498 488 485 -1 498 485 500 -1 501 502 503 -1 502 501 504 -1 505 503 506 -1 503 505 501 -1 507 505 506 -1 505 507 508 -1 509 508 507 -1 508 509 510 -1 511 510 509 -1 510 511 512 -1 513 511 514 -1 511 513 512 -1 515 514 516 -1 514 515 513 -1 506 509 507 -1 509 506 511 -1 511 506 503 -1 511 503 514 -1 514 503 502 -1 514 502 516 -1 517 518 519 -1 518 517 520 -1 521 520 517 -1 520 521 522 -1 521 523 522 -1 523 521 524 -1 524 525 523 -1 525 524 526 -1 526 527 525 -1 527 526 528 -1 529 527 528 -1 527 529 530 -1 531 530 529 -1 530 531 532 -1 521 526 524 -1 526 521 528 -1 528 521 517 -1 528 517 529 -1 529 517 519 -1 529 519 531 -1 395 533 534 -1 533 395 393 -1 535 536 537 -1 536 535 538 -1 539 396 394 -1 396 539 540 -1 541 518 542 -1 518 541 519 -1 519 541 484 -1 519 484 483 -1 483 531 519 -1 531 483 472 -1 531 538 532 -1 538 531 472 -1 538 472 469 -1 538 469 536 -1 543 535 537 -1 535 543 544 -1 545 540 539 -1 540 545 546 -1 547 546 545 -1 546 547 548 -1 544 548 547 -1 548 544 543 -1 549 508 550 -1 508 549 505 -1 505 549 501 -1 501 549 504 -1 534 394 395 -1 394 534 539 -1 539 534 551 -1 539 551 545 -1 545 551 552 -1 545 552 547 -1 547 552 553 -1 547 553 554 -1 554 553 510 -1 554 510 512 -1 554 512 513 -1 554 513 555 -1 510 553 550 -1 510 550 508 -1 555 513 515 -1 547 556 544 -1 556 547 554 -1 544 556 523 -1 523 556 522 -1 522 556 520 -1 520 556 542 -1 544 523 535 -1 520 542 518 -1 535 525 538 -1 525 535 523 -1 538 525 527 -1 538 527 530 -1 538 530 532 -1 549 557 558 -1 557 549 550 -1 552 559 553 -1 559 552 560 -1 550 559 557 -1 559 550 553 -1 542 561 541 -1 561 542 556 -1 536 475 537 -1 475 536 474 -1 474 536 471 -1 471 536 469 -1 543 561 548 -1 561 543 477 -1 561 477 479 -1 561 479 482 -1 561 482 541 -1 477 543 537 -1 477 537 475 -1 541 482 484 -1 540 393 396 -1 393 540 533 -1 533 540 546 -1 533 546 562 -1 562 546 548 -1 562 548 560 -1 560 548 559 -1 559 548 563 -1 563 548 561 -1 559 563 492 -1 492 563 489 -1 489 563 486 -1 486 563 564 -1 559 492 557 -1 486 564 487 -1 557 494 558 -1 494 557 492 -1 558 494 496 -1 558 496 497 -1 558 497 499 -1 564 485 487 -1 485 564 555 -1 499 502 558 -1 502 499 500 -1 502 500 516 -1 516 500 485 -1 516 485 515 -1 515 485 555 -1 558 504 549 -1 504 558 502 -1 534 562 551 -1 562 534 533 -1 563 556 554 -1 556 563 561 -1 551 560 552 -1 560 551 562 -1 563 555 564 -1 555 563 554 -1 565 566 567 -1 566 565 568 -1 569 570 571 -1 570 569 572 -1 570 573 574 -1 573 570 572 -1 575 576 577 -1 576 575 578 -1 577 579 580 -1 579 577 576 -1 581 582 583 -1 582 581 584 -1 582 584 579 -1 582 579 576 -1 581 585 586 -1 585 581 587 -1 583 587 581 -1 587 583 588 -1 583 589 590 -1 589 583 582 -1 589 582 576 -1 589 576 578 -1 580 585 587 -1 585 580 591 -1 592 593 594 -1 573 595 574 -1 595 573 596 -1 595 596 575 -1 575 596 593 -1 575 593 592 -1 597 598 599 -1 598 597 600 -1 598 601 599 -1 601 598 602 -1 577 587 588 -1 587 577 580 -1 580 603 591 -1 603 580 579 -1 601 569 571 -1 569 601 567 -1 567 601 565 -1 565 601 602 -1 569 593 596 -1 593 569 567 -1 590 588 583 -1 588 590 595 -1 603 585 591 -1 585 603 586 -1 575 588 595 -1 588 575 577 -1 566 592 594 -1 592 566 568 -1 590 601 595 -1 601 590 597 -1 601 597 599 -1 595 571 574 -1 571 595 601 -1 574 571 570 -1 589 597 590 -1 597 589 600 -1 600 589 578 -1 575 565 578 -1 565 575 592 -1 565 592 568 -1 578 602 600 -1 602 578 565 -1 600 602 598 -1 586 584 581 -1 584 586 603 -1 584 603 579 -1 573 569 596 -1 569 573 572 -1 566 593 567 -1 593 566 594 -1 604 605 606 -1 605 604 607 -1 608 604 609 -1 604 608 607 -1 610 611 612 -1 611 610 613 -1 614 611 615 -1 611 614 612 -1 616 617 618 -1 617 616 619 -1 620 621 622 -1 621 620 623 -1 617 624 625 -1 624 617 619 -1 624 616 626 -1 616 624 619 -1 627 628 629 -1 628 627 630 -1 628 630 615 -1 615 630 614 -1 614 630 631 -1 632 629 628 -1 605 633 634 -1 633 605 608 -1 633 608 630 -1 608 605 607 -1 630 613 631 -1 613 630 608 -1 631 613 610 -1 634 635 636 -1 635 630 637 -1 630 635 634 -1 630 634 633 -1 634 638 639 -1 638 634 636 -1 636 640 641 -1 640 636 642 -1 642 636 637 -1 637 636 635 -1 605 643 606 -1 616 639 626 -1 639 616 618 -1 639 618 634 -1 634 618 643 -1 634 643 605 -1 636 644 638 -1 644 636 641 -1 627 621 639 -1 621 627 629 -1 621 629 622 -1 639 625 626 -1 625 639 621 -1 626 625 624 -1 641 645 646 -1 645 641 642 -1 642 641 640 -1 647 630 627 -1 630 647 637 -1 648 637 647 -1 637 648 642 -1 649 642 648 -1 642 649 645 -1 627 638 647 -1 638 627 639 -1 647 644 648 -1 644 647 638 -1 648 650 649 -1 650 648 644 -1 641 650 644 -1 650 641 646 -1 645 650 646 -1 650 645 649 -1 617 643 618 -1 643 617 609 -1 621 617 625 -1 617 621 609 -1 609 621 608 -1 608 621 611 -1 611 621 623 -1 611 623 615 -1 615 623 628 -1 613 608 611 -1 623 632 628 -1 632 623 620 -1 604 643 609 -1 643 604 606 -1 629 620 622 -1 620 629 632 -1 614 610 612 -1 610 614 631 -1 651 596 652 -1 596 651 613 -1 653 518 654 -1 518 653 655 -1 655 653 656 -1 655 656 657 -1 655 657 613 -1 655 613 651 -1 652 658 659 -1 658 652 596 -1 660 661 662 -1 661 660 663 -1 658 664 659 -1 664 658 662 -1 662 658 665 -1 665 658 666 -1 665 666 608 -1 608 666 667 -1 664 661 668 -1 661 664 662 -1 669 664 668 -1 664 669 670 -1 671 670 669 -1 670 671 663 -1 670 663 660 -1 670 655 651 -1 655 670 660 -1 655 660 672 -1 655 672 673 -1 673 672 674 -1 673 674 675 -1 676 677 515 -1 677 676 678 -1 678 676 679 -1 679 676 680 -1 680 676 608 -1 608 672 665 -1 672 608 676 -1 672 676 674 -1 658 681 666 -1 681 658 682 -1 667 681 683 -1 681 667 666 -1 608 683 680 -1 683 608 667 -1 684 685 686 -1 685 684 687 -1 687 684 688 -1 687 688 689 -1 689 688 690 -1 689 690 691 -1 691 690 692 -1 692 690 693 -1 692 693 694 -1 694 693 695 -1 694 695 696 -1 696 695 682 -1 696 682 697 -1 697 682 658 -1 385 698 699 -1 698 385 700 -1 698 700 701 -1 701 700 702 -1 515 700 703 -1 700 515 704 -1 700 704 705 -1 700 705 706 -1 700 706 702 -1 702 706 707 -1 704 515 677 -1 707 708 709 -1 708 707 706 -1 709 708 710 -1 709 710 711 -1 709 711 712 -1 713 714 715 -1 714 713 716 -1 717 716 713 -1 716 717 718 -1 719 717 720 -1 717 719 718 -1 714 720 715 -1 720 714 719 -1 714 718 719 -1 718 714 716 -1 672 662 665 -1 662 672 660 -1 651 664 670 -1 664 651 659 -1 659 651 652 -1 671 661 663 -1 661 671 668 -1 668 671 669 -1 721 675 722 -1 675 721 673 -1 613 658 596 -1 658 613 697 -1 697 657 696 -1 657 697 613 -1 722 723 721 -1 723 722 724 -1 725 723 724 -1 723 725 726 -1 727 725 728 -1 725 729 726 -1 729 725 730 -1 730 725 727 -1 731 732 733 -1 732 731 734 -1 735 733 732 -1 733 735 736 -1 737 703 700 -1 703 737 554 -1 738 554 737 -1 554 738 556 -1 563 731 739 -1 731 563 561 -1 731 561 740 -1 731 740 734 -1 726 561 723 -1 561 726 729 -1 561 729 740 -1 732 730 735 -1 730 732 734 -1 730 734 740 -1 730 740 729 -1 728 563 739 -1 563 728 724 -1 724 728 725 -1 736 731 733 -1 731 736 727 -1 731 727 739 -1 739 727 728 -1 735 727 736 -1 727 735 730 -1 385 737 700 -1 737 385 388 -1 563 722 554 -1 722 563 724 -1 721 561 556 -1 561 721 723 -1 554 515 703 -1 515 554 676 -1 676 554 674 -1 674 554 722 -1 674 722 675 -1 388 699 741 -1 699 388 385 -1 742 707 709 -1 707 742 743 -1 744 704 677 -1 704 744 745 -1 745 705 704 -1 705 745 746 -1 747 678 679 -1 678 747 748 -1 678 744 677 -1 744 678 748 -1 683 679 680 -1 679 683 747 -1 749 388 741 -1 388 749 737 -1 737 749 750 -1 737 750 751 -1 742 752 743 -1 752 742 753 -1 753 742 754 -1 754 742 755 -1 737 518 738 -1 518 737 756 -1 756 737 757 -1 757 737 758 -1 758 737 751 -1 758 751 743 -1 758 743 752 -1 518 756 654 -1 738 721 556 -1 721 738 673 -1 673 738 518 -1 673 518 655 -1 756 687 689 -1 687 756 757 -1 687 758 685 -1 758 687 757 -1 657 694 696 -1 694 657 656 -1 656 692 694 -1 692 656 653 -1 654 689 691 -1 689 654 756 -1 692 654 691 -1 654 692 653 -1 685 752 686 -1 752 685 758 -1 686 753 684 -1 753 686 752 -1 753 688 684 -1 688 753 754 -1 754 690 688 -1 690 754 755 -1 759 712 711 -1 712 759 760 -1 761 711 710 -1 711 761 759 -1 708 761 710 -1 761 708 762 -1 746 762 763 -1 762 746 761 -1 761 746 745 -1 761 745 759 -1 759 745 744 -1 759 744 760 -1 760 744 748 -1 760 748 764 -1 764 748 747 -1 764 747 765 -1 765 747 683 -1 765 683 681 -1 705 763 706 -1 763 705 746 -1 706 762 708 -1 762 706 763 -1 707 751 702 -1 751 707 743 -1 750 702 751 -1 702 750 701 -1 712 690 709 -1 690 712 760 -1 709 755 742 -1 755 709 690 -1 682 765 681 -1 765 682 695 -1 741 698 749 -1 698 741 699 -1 764 690 760 -1 690 764 693 -1 695 764 765 -1 764 695 693 -1 749 701 750 -1 701 749 698 -1 766 767 768 -1 767 766 769 -1 769 770 771 -1 770 769 766 -1 772 769 771 -1 769 772 767 -1 768 772 773 -1 772 768 767 -1 772 770 773 -1 770 772 771 -1 766 773 770 -1 773 766 768 -1 774 775 776 -1 775 774 777 -1 778 779 780 -1 779 778 781 -1 782 774 783 -1 774 782 777 -1 777 782 784 -1 781 785 779 -1 785 781 786 -1 787 780 788 -1 780 787 778 -1 789 790 791 -1 790 789 792 -1 787 793 784 -1 793 787 790 -1 793 790 792 -1 784 794 777 -1 794 784 793 -1 777 794 775 -1 775 353 776 -1 353 775 794 -1 353 793 355 -1 793 353 794 -1 795 785 796 -1 785 795 779 -1 795 797 798 -1 797 795 799 -1 797 799 800 -1 797 800 801 -1 798 779 795 -1 779 798 780 -1 793 789 355 -1 789 793 792 -1 798 782 783 -1 782 798 797 -1 782 797 801 -1 782 801 784 -1 778 800 781 -1 800 778 801 -1 787 801 778 -1 801 787 784 -1 796 799 795 -1 799 796 802 -1 799 802 800 -1 783 353 788 -1 353 783 774 -1 353 774 776 -1 788 355 791 -1 355 788 353 -1 791 355 789 -1 802 785 786 -1 785 802 796 -1 783 780 798 -1 780 783 788 -1 790 788 791 -1 788 790 787 -1 781 802 786 -1 802 781 800 -1 241 803 804 -1 803 241 285 -1 805 806 807 -1 806 805 808 -1 807 809 805 -1 809 807 810 -1 72 811 812 -1 811 72 82 -1 811 82 813 -1 813 82 814 -1 814 82 815 -1 816 812 811 -1 817 818 819 -1 820 75 821 -1 75 820 822 -1 75 822 81 -1 81 822 818 -1 81 818 817 -1 823 241 824 -1 241 823 285 -1 825 826 827 -1 826 825 828 -1 827 829 830 -1 829 827 826 -1 831 826 828 -1 826 831 832 -1 832 829 826 -1 829 832 833 -1 833 834 829 -1 834 833 835 -1 833 836 835 -1 836 833 837 -1 831 838 832 -1 838 831 839 -1 832 837 833 -1 837 832 838 -1 840 820 821 -1 820 840 841 -1 830 834 842 -1 834 830 829 -1 843 807 806 -1 807 843 810 -1 810 843 818 -1 818 843 819 -1 820 809 822 -1 809 808 805 -1 808 809 841 -1 841 809 820 -1 811 823 824 -1 823 811 813 -1 822 810 818 -1 810 822 809 -1 844 241 804 -1 241 844 824 -1 824 844 811 -1 811 844 816 -1 814 823 813 -1 823 803 285 -1 803 823 845 -1 845 823 814 -1 831 82 839 -1 82 831 846 -1 82 846 815 -1 839 81 847 -1 81 839 82 -1 847 81 817 -1 830 848 827 -1 848 830 849 -1 848 849 837 -1 848 837 838 -1 836 834 835 -1 834 836 842 -1 827 850 825 -1 850 827 848 -1 850 848 839 -1 839 848 838 -1 842 849 830 -1 849 842 836 -1 849 836 837 -1 825 75 828 -1 75 825 840 -1 75 840 821 -1 828 72 851 -1 72 828 75 -1 851 72 812 -1 846 803 845 -1 844 828 851 -1 828 844 804 -1 828 804 831 -1 831 804 803 -1 831 803 846 -1 825 808 840 -1 808 825 850 -1 808 850 806 -1 806 850 843 -1 843 850 847 -1 847 850 839 -1 841 840 808 -1 845 815 846 -1 815 845 814 -1 843 817 819 -1 817 843 847 -1 812 844 851 -1 844 812 816 -1 "
						                >
							<Coordinate DEF="coords_ME_05-3_001"
							            point="33.889565 21.889763 12.992126 33.889565 17.952755 18.897638 33.889565 17.952755 12.992126 33.889565 21.889763 18.897638 3.968305 21.889763 18.897638 3.968305 17.952755 12.992126 3.968305 17.952755 18.897638 3.968305 21.889763 12.992126 19.500832 69.941185 10.629921 19.107130 69.782944 10.039371 19.500832 69.782944 10.039371 19.107130 69.941185 10.629921 19.107130 69.350632 9.607057 19.500832 69.350632 9.607057 19.500832 68.760078 9.448819 19.107130 68.760078 9.448819 19.500832 62.854568 9.448819 19.107130 62.854568 9.448819 19.500832 62.264019 9.607057 19.107130 62.264019 9.607057 19.107130 61.831703 10.039371 19.500832 61.831703 10.039371 19.107130 61.673466 10.629921 19.500832 61.673466 10.629921 19.107130 57.736458 10.629921 19.500832 57.578220 10.039371 19.500832 57.736458 10.629921 19.107130 57.578220 10.039371 19.500832 57.145908 9.607057 19.107130 57.145908 9.607057 19.107130 56.555355 9.448819 19.500832 56.555355 9.448819 19.107130 50.649845 9.448819 19.500832 50.649845 9.448819 19.107130 50.059292 9.607057 19.500832 50.059292 9.607057 19.500832 49.626980 10.039371 19.107130 49.626980 10.039371 19.500832 49.468742 10.629921 19.107130 49.468742 10.629921 15.563823 49.626980 10.039371 15.957523 49.468742 10.629921 15.957523 49.626980 10.039371 15.563823 49.468742 10.629921 15.563823 50.059292 9.607057 15.957523 50.059292 9.607057 15.957523 50.649845 9.448819 15.563823 50.649845 9.448819 15.957523 56.555355 9.448819 15.563823 56.555355 9.448819 15.957523 57.145908 9.607057 15.563823 57.145908 9.607057 15.563823 57.578220 10.039371 15.957523 57.578220 10.039371 15.563823 57.736458 10.629921 15.957523 57.736458 10.629921 15.957523 61.831703 10.039371 15.563823 61.673466 10.629921 15.957523 61.673466 10.629921 15.563823 61.831703 10.039371 15.957523 62.264019 9.607057 15.563823 62.264019 9.607057 15.563823 62.854568 9.448819 15.957523 62.854568 9.448819 15.563823 68.760078 9.448819 15.957523 68.760078 9.448819 15.563823 69.350632 9.607057 15.957523 69.350632 9.607057 15.957523 69.782944 10.039371 15.563823 69.782944 10.039371 15.957523 69.941185 10.629921 15.563823 69.941185 10.629921 15.563823 53.405750 4.724410 19.500832 50.781078 4.960630 15.563823 50.781078 4.960630 19.500832 53.405750 4.724410 15.563823 73.878189 8.267716 19.500832 73.878189 10.629921 19.500832 73.878189 8.267716 15.563823 73.878189 10.629921 15.563823 68.628845 4.960630 19.500832 66.004173 4.724410 15.563823 66.004173 4.724410 19.500832 68.628845 4.960630 19.500832 61.279766 10.629921 15.563823 61.279766 10.629921 19.500832 73.353256 7.086614 15.563823 73.353256 7.086614 15.563823 70.728584 5.433071 19.500832 70.728584 5.433071 15.563823 72.303391 6.141732 19.500832 72.303391 6.141732 15.563823 45.531734 10.629921 15.563823 45.531734 8.267716 15.563823 48.681339 5.433071 15.563823 47.106537 6.141732 15.563823 46.056667 7.086614 15.563823 58.130161 6.692914 15.563823 58.130161 10.629921 15.563823 61.279766 6.692914 19.500832 45.531734 8.267716 19.500832 45.531734 10.629921 19.500832 46.056667 7.086614 19.500832 47.106537 6.141732 19.500832 61.279766 6.692914 19.500832 48.681339 5.433071 19.500832 58.130161 6.692914 19.500832 58.130161 10.629921 7.689807 56.161655 12.992126 7.689807 57.736458 14.566929 7.689807 57.736458 12.992126 7.689807 56.161655 14.566929 7.689807 61.673466 12.992126 7.689807 63.248272 14.566929 7.689807 63.248272 12.992126 7.689807 61.673466 14.566929 8.870910 61.673466 14.566929 8.870910 63.248272 14.566929 8.870910 56.161655 12.204724 2.986540 56.576500 11.765594 8.456066 56.576500 11.765594 2.571697 56.161655 12.204724 3.256700 56.846657 11.225274 8.185906 56.846657 11.225274 3.256700 62.563267 11.225274 2.986540 56.949059 11.765594 2.986540 62.833427 11.765594 3.256700 56.949059 11.225274 8.083508 62.460869 10.629921 3.359098 62.460869 10.629921 8.185906 62.563267 11.225274 8.456066 62.833427 11.765594 2.571697 56.949059 12.204724 2.571697 63.248272 12.204724 8.083508 56.949059 10.629921 8.870910 56.161655 14.566929 8.870910 57.736458 12.992126 8.870910 57.736458 14.566929 8.870910 63.248272 12.204724 8.870910 61.673466 12.992126 2.571697 63.248272 14.566929 3.752799 56.161655 14.566929 3.752799 63.248272 14.566929 2.571697 56.161655 14.566929 3.752799 63.248272 12.992126 3.752799 56.161655 12.992126 3.359098 56.949059 10.629921 15.563823 57.736458 14.566929 14.382721 55.964806 14.566929 15.563823 55.964806 14.566929 14.382721 57.736458 14.566929 14.382721 57.736458 12.992126 15.563823 57.736458 12.992126 14.382721 61.673466 14.566929 15.563823 61.673466 12.992126 15.563823 61.673466 14.566929 14.382721 61.673466 12.992126 15.563823 63.445122 14.566929 15.563823 63.445122 12.992126 19.500832 55.964806 14.566929 19.500832 57.145908 12.992126 19.500832 55.964806 12.992126 19.500832 57.145908 14.566929 19.500832 62.264019 14.566929 20.681932 62.264019 12.992126 20.681932 62.264019 14.566929 19.500832 62.264019 12.992126 20.681932 57.145908 14.566929 20.681932 57.145908 12.992126 20.681932 55.964806 14.566929 20.681932 63.445122 12.204724 19.500832 63.445122 12.992126 20.681932 63.445122 14.566929 14.382721 63.445122 12.204724 14.382721 63.445122 14.566929 19.500832 63.445122 14.566929 14.382721 56.752209 12.204724 14.382721 55.964806 12.204724 14.797564 56.752209 11.765594 14.797564 56.379650 11.765594 14.797564 63.030277 11.765594 20.267090 56.379650 11.765594 20.681932 55.964806 12.204724 15.067723 56.752209 11.225274 15.067723 56.649807 11.225274 15.067723 62.760117 11.225274 15.563823 55.964806 12.992126 19.996931 56.649807 11.225274 15.170122 62.657719 10.629921 15.170122 56.752209 10.629921 20.267090 63.030277 11.765594 19.996931 62.760117 11.225274 19.894531 62.657719 10.629921 19.894531 56.752209 10.629921 7.296106 61.673466 18.897638 7.296106 61.673466 12.992126 15.067723 61.673466 11.225274 15.170122 61.673466 10.629921 15.563823 61.673466 18.897638 14.797564 61.673466 11.765594 14.382721 61.673466 12.204724 8.870910 61.279766 12.992126 7.296106 61.279766 12.992126 7.296106 59.114410 18.897638 6.108661 58.917561 12.992126 7.296106 59.114410 12.992126 6.108661 58.917561 18.897638 7.296106 60.295513 12.992126 7.296106 57.736458 12.992126 8.870910 58.130161 12.992126 14.382721 58.130161 12.992126 6.108661 60.492363 12.992126 6.108661 60.492363 18.897638 7.296106 60.295513 18.897638 6.108661 59.704964 18.897638 7.296106 57.736458 18.897638 15.563823 61.279766 18.897638 15.563823 57.736458 18.897638 15.563823 58.130161 18.897638 15.563823 57.736458 18.543306 15.170122 57.736458 10.629921 15.067723 57.736458 11.225274 14.797564 57.736458 11.765594 14.382721 57.736458 12.204724 8.870910 58.130161 12.204724 8.870910 61.279766 12.204724 14.382721 58.130161 12.204724 8.674059 61.279766 9.607057 13.989019 61.279766 9.448819 9.264610 61.279766 9.448819 14.579571 61.279766 9.607057 8.241746 61.279766 10.039371 15.011885 61.279766 10.039371 8.083508 61.279766 10.629921 15.170122 61.279766 10.629921 15.067723 61.279766 11.225274 8.185906 61.279766 11.225274 14.797564 61.279766 11.765594 8.456066 61.279766 11.765594 14.382721 61.279766 12.204724 14.382721 61.279766 12.992126 14.382721 57.736458 4.724410 7.138626 57.736458 5.078740 9.658311 57.736458 4.724410 14.382721 57.736458 6.692914 5.248862 57.736458 5.787402 3.989020 57.736458 6.850394 15.563823 57.736458 6.692914 15.011885 57.736458 10.039371 14.579571 57.736458 9.607057 13.989019 57.736458 9.448819 3.359098 57.736458 8.267716 9.264610 57.736458 9.448819 3.359098 57.736458 10.629921 8.674059 57.736458 9.607057 8.241746 57.736458 10.039371 8.083508 57.736458 10.629921 6.108661 60.098663 9.448819 6.108661 59.311264 12.992126 6.108661 59.311264 9.448819 6.108661 60.098663 12.992126 5.327602 60.098663 9.448819 5.327602 60.098663 12.992126 5.327602 59.311264 12.992126 5.327602 59.311264 9.448819 15.563823 61.279766 16.929134 15.563823 58.130161 16.929134 19.500832 61.279766 16.929134 19.500832 58.130161 16.929134 19.500832 58.130161 18.897638 19.500832 61.279766 18.897638 37.453587 57.145908 18.897638 19.500832 57.145908 18.897638 19.500832 62.264019 18.897638 37.453587 62.264019 18.897638 20.681932 57.145908 6.692914 20.681932 62.264019 4.724410 20.681932 57.145908 4.724410 20.681932 62.264019 6.692914 37.453587 62.264019 4.724410 37.453587 57.145908 4.724410 14.382721 61.673466 6.692914 15.563823 61.673466 6.692914 19.500832 57.145908 6.692914 19.500832 62.264019 6.692914 14.382721 61.673466 4.724410 9.658311 61.673466 4.724410 3.359098 61.673466 10.629921 3.359098 61.673466 8.267716 15.170122 58.130161 10.629921 15.011885 58.130161 10.039371 14.579571 58.130161 9.607057 14.797564 58.130161 11.765594 15.067723 58.130161 11.225274 7.138626 61.673466 5.078740 5.248862 61.673466 5.787402 3.989020 61.673466 6.850394 9.264610 61.673466 9.448819 8.674059 61.673466 9.607057 8.241746 61.673466 10.039371 8.083508 61.673466 10.629921 15.011885 61.673466 10.039371 14.579571 61.673466 9.607057 13.989019 61.673466 9.448819 8.241746 58.130161 10.039371 8.083508 58.130161 10.629921 8.674059 58.130161 9.607057 9.264610 58.130161 9.448819 13.989019 58.130161 9.448819 8.185906 58.130161 11.225274 8.456066 58.130161 11.765594 20.681932 69.153778 14.566929 19.500832 74.665596 14.566929 19.500832 69.153778 14.566929 20.681932 74.665596 14.566929 14.797564 74.250748 11.765594 15.067723 69.838783 11.225274 14.797564 69.568626 11.765594 15.067723 73.980591 11.225274 20.681932 73.878189 12.204724 20.681932 69.153778 12.204724 20.681932 74.665596 12.204724 15.170122 69.941185 10.629921 15.170122 73.878189 10.629921 14.382721 74.665596 12.204724 14.382721 69.153778 12.204724 15.563823 69.153778 14.566929 14.382721 74.665596 14.566929 14.382721 69.153778 14.566929 15.563823 74.665596 14.566929 15.563823 74.665596 12.992126 19.500832 74.665596 12.992126 19.500832 69.153778 12.992126 15.563823 69.153778 12.992126 19.996931 69.838783 11.225274 19.894531 69.941185 10.629921 20.267090 73.878189 11.765594 20.267090 69.568626 11.765594 19.996931 73.878189 11.225274 19.996931 73.980591 11.225274 20.267090 74.250748 11.765594 19.894531 73.878189 10.629921 7.689807 40.776028 25.196850 3.752799 78.583511 22.216719 3.752799 40.776028 22.216719 7.689807 78.583511 25.196850 7.689807 40.776028 12.992126 7.689807 78.583511 12.992126 3.752799 78.583511 12.992126 3.752799 40.776028 12.992126 19.500832 74.665596 18.897638 15.563823 74.665596 18.897638 15.563823 44.744331 18.897638 19.500832 44.744331 12.992126 19.500832 44.744331 18.897638 15.563823 44.744331 12.992126 28.377754 16.771654 14.566929 33.889565 17.952755 14.566929 28.377754 17.952755 14.566929 33.889565 16.771654 14.566929 33.474724 22.656023 11.765594 29.062757 22.385864 11.225274 28.792597 22.656023 11.765594 33.204563 22.385864 11.225274 33.102165 16.771654 12.204724 28.377754 16.771654 12.204724 33.889565 16.771654 12.204724 29.165155 22.283464 10.629921 33.102165 22.283464 10.629921 33.889565 23.070866 12.204724 28.377754 23.070866 12.204724 28.377754 21.889763 14.566929 33.889565 23.070866 14.566929 28.377754 23.070866 14.566929 33.889565 21.889763 14.566929 28.377754 17.952755 12.992126 28.377754 21.889763 12.992126 29.062757 17.456656 11.225274 29.165155 17.559055 10.629921 33.102165 17.186497 11.765594 28.792597 17.186497 11.765594 33.102165 17.456656 11.225274 33.204563 17.456656 11.225274 33.474724 17.186497 11.765594 33.102165 17.559055 10.629921 16.960432 23.070866 4.724410 20.897440 26.220472 4.724410 16.960432 26.220472 4.724410 20.897440 23.070866 4.724410 15.976179 16.771654 4.724410 21.881691 13.622047 4.724410 21.881691 16.771654 4.724410 15.976179 13.622047 4.724410 12.629723 17.952755 4.724410 25.228148 21.889763 4.724410 12.629723 21.889763 4.724410 25.228148 17.952755 4.724410 15.976179 16.771654 6.299212 21.881691 16.771654 6.299212 16.960432 21.889763 6.299212 12.629723 21.889763 7.874016 20.897440 21.889763 6.299212 20.897440 21.889763 7.874016 25.228148 21.889763 7.874016 16.960432 21.889763 7.874016 25.228148 17.952755 7.874016 21.881691 17.952755 6.299212 21.881691 17.952755 7.874016 15.976179 17.952755 7.874016 12.629723 17.952755 7.874016 15.976179 17.952755 6.299212 20.897440 23.070866 6.299212 16.960432 23.070866 6.299212 12.629723 13.622047 3.149606 13.459409 25.390785 2.271344 13.459409 14.451734 2.271344 12.629723 26.220472 3.149606 13.999728 24.850468 1.190706 13.999728 14.992053 1.190706 25.228148 26.220472 3.149606 24.398462 25.390785 2.271344 23.858143 24.850468 1.190706 14.204526 24.645670 0.000000 23.653345 24.645670 0.000000 23.653345 15.196851 0.000000 23.858143 14.992053 1.190706 24.398462 14.451734 2.271344 25.228148 13.622047 3.149606 12.629723 13.622047 7.874016 15.976179 13.622047 7.874016 14.204526 15.196851 0.000000 21.881691 13.622047 7.874016 16.960432 26.220472 7.874016 20.897440 26.220472 7.874016 25.228148 26.220472 7.874016 25.228148 13.622047 7.874016 23.653345 14.451734 2.271344 23.653345 14.992053 1.190706 23.653345 13.622047 3.149606 12.629723 26.220472 7.874016 3.968305 16.771654 14.566929 9.480117 17.952755 14.566929 3.968305 17.952755 14.566929 9.480117 16.771654 14.566929 9.065273 22.656023 11.765594 4.653308 22.385864 11.225274 4.383149 22.656023 11.765594 8.795114 22.385864 11.225274 8.692715 16.771654 12.204724 3.968305 16.771654 12.204724 9.480117 16.771654 12.204724 4.755707 22.283464 10.629921 8.692715 22.283464 10.629921 9.480117 23.070866 12.204724 3.968305 23.070866 12.204724 3.968305 21.889763 14.566929 9.480117 23.070866 14.566929 3.968305 23.070866 14.566929 9.480117 21.889763 14.566929 9.480117 21.889763 12.992126 9.480117 17.952755 12.992126 4.653308 17.456656 11.225274 4.755707 17.559055 10.629921 8.692715 17.186497 11.765594 4.383149 17.186497 11.765594 8.692715 17.456656 11.225274 8.795114 17.456656 11.225274 9.065273 17.186497 11.765594 8.692715 17.559055 10.629921 29.165155 17.952755 10.629921 29.006918 18.346457 10.039371 29.006918 17.952755 10.039371 29.165155 18.346457 10.629921 28.574604 18.346457 9.607057 28.574604 17.952755 9.607057 27.984053 17.952755 9.448819 27.984053 18.346457 9.448819 22.078541 17.952755 9.448819 22.078541 18.346457 9.448819 21.487991 17.952755 9.607057 21.487991 18.346457 9.607057 21.055677 18.346457 10.039371 21.055677 17.952755 10.039371 20.897440 18.346457 10.629921 20.897440 17.952755 10.629921 16.960432 18.346457 10.629921 16.802195 17.952755 10.039371 16.960432 17.952755 10.629921 16.802195 18.346457 10.039371 16.369881 17.952755 9.607057 16.369881 18.346457 9.607057 15.779329 18.346457 9.448819 15.779329 17.952755 9.448819 9.873817 18.346457 9.448819 9.873817 17.952755 9.448819 9.283266 18.346457 9.607057 9.283266 17.952755 9.607057 8.850952 17.952755 10.039371 8.850952 18.346457 10.039371 8.692715 17.952755 10.629921 8.692715 18.346457 10.629921 8.850952 21.889763 10.039371 8.692715 21.496063 10.629921 8.850952 21.496063 10.039371 8.692715 21.889763 10.629921 9.283266 21.889763 9.607057 9.283266 21.496063 9.607057 9.873817 21.496063 9.448819 9.873817 21.889763 9.448819 15.779329 21.496063 9.448819 15.779329 21.889763 9.448819 16.369881 21.496063 9.607057 16.369881 21.889763 9.607057 16.802195 21.889763 10.039371 16.802195 21.496063 10.039371 16.960432 21.889763 10.629921 16.960432 21.496063 10.629921 21.055677 21.496063 10.039371 20.897440 21.889763 10.629921 20.897440 21.496063 10.629921 21.055677 21.889763 10.039371 21.487991 21.496063 9.607057 21.487991 21.889763 9.607057 22.078541 21.889763 9.448819 22.078541 21.496063 9.448819 27.984053 21.889763 9.448819 27.984053 21.496063 9.448819 28.574604 21.889763 9.607057 28.574604 21.496063 9.607057 29.006918 21.496063 10.039371 29.006918 21.889763 10.039371 29.165155 21.496063 10.629921 29.165155 21.889763 10.629921 10.005051 17.952755 4.960630 10.005051 21.889763 4.960630 33.102165 21.889763 8.267716 33.102165 17.952755 10.629921 33.102165 17.952755 8.267716 33.102165 21.889763 10.629921 27.852819 21.889763 4.960630 27.852819 17.952755 4.960630 20.503738 17.952755 10.629921 20.503738 21.889763 10.629921 32.577229 17.952755 7.086614 32.577229 21.889763 7.086614 29.952557 21.889763 5.433071 29.952557 17.952755 5.433071 31.527361 21.889763 6.141732 31.527361 17.952755 6.141732 4.755707 21.889763 10.629921 4.755707 21.889763 8.267716 7.905313 21.889763 5.433071 6.330510 21.889763 6.141732 5.280642 21.889763 7.086614 17.354132 21.889763 6.692914 17.354132 21.889763 10.629921 20.503738 21.889763 6.692914 4.755707 17.952755 8.267716 4.755707 17.952755 10.629921 5.280642 17.952755 7.086614 6.330510 17.952755 6.141732 20.503738 17.952755 6.692914 7.905313 17.952755 5.433071 17.354132 17.952755 6.692914 17.354132 17.952755 10.629921 15.385629 29.763779 12.992126 16.960432 29.763779 14.566929 16.960432 29.763779 12.992126 15.385629 29.763779 14.566929 20.897440 29.763779 12.992126 22.472242 29.763779 14.566929 22.472242 29.763779 12.992126 20.897440 29.763779 14.566929 20.897440 28.582678 14.566929 22.472242 28.582678 14.566929 15.385629 28.582678 12.204724 15.800471 34.467045 11.765594 15.800471 28.997520 11.765594 15.385629 34.881889 12.204724 16.070631 34.196888 11.225274 16.070631 29.267679 11.225274 21.787239 34.196888 11.225274 16.173029 34.467045 11.765594 22.057400 34.467045 11.765594 16.173029 34.196888 11.225274 21.684841 29.370079 10.629921 21.684841 34.094490 10.629921 21.787239 29.267679 11.225274 22.057400 28.997520 11.765594 16.173029 34.881889 12.204724 22.472242 34.881889 12.204724 16.173029 29.370079 10.629921 15.385629 28.582678 14.566929 16.960432 28.582678 12.992126 16.960432 28.582678 14.566929 22.472242 28.582678 12.204724 20.897440 28.582678 12.992126 22.472242 34.881889 14.566929 15.385629 33.700787 14.566929 22.472242 33.700787 14.566929 15.385629 34.881889 14.566929 22.472242 33.700787 12.992126 15.385629 33.700787 12.992126 16.173029 34.094490 10.629921 16.960432 21.889763 14.566929 15.188778 23.070866 14.566929 15.188778 21.889763 14.566929 16.960432 23.070866 14.566929 16.960432 23.070866 12.992126 16.960432 21.889763 12.992126 20.897440 23.070866 14.566929 20.897440 21.889763 12.992126 20.897440 21.889763 14.566929 20.897440 23.070866 12.992126 22.669092 21.889763 14.566929 22.669092 21.889763 12.992126 15.188778 17.952755 14.566929 16.369881 17.952755 12.992126 15.188778 17.952755 12.992126 16.369881 17.952755 14.566929 21.487991 17.952755 14.566929 21.487991 16.771654 12.992126 21.487991 16.771654 14.566929 21.487991 17.952755 12.992126 16.369881 16.771654 14.566929 16.369881 16.771654 12.992126 15.188778 16.771654 14.566929 22.669092 16.771654 12.204724 22.669092 17.952755 12.992126 22.669092 16.771654 14.566929 22.669092 23.070866 12.204724 22.669092 23.070866 14.566929 22.669092 17.952755 14.566929 15.976179 23.070866 12.204724 15.188778 23.070866 12.204724 15.976179 22.656023 11.765594 15.603621 22.656023 11.765594 22.254250 22.656023 11.765594 15.603621 17.186497 11.765594 15.188778 16.771654 12.204724 15.976179 22.385864 11.225274 15.873780 22.385864 11.225274 21.984091 22.385864 11.225274 15.188778 21.889763 12.992126 15.873780 17.456656 11.225274 21.881691 22.283464 10.629921 15.976179 22.283464 10.629921 22.254250 17.186497 11.765594 21.984091 17.456656 11.225274 21.881691 17.559055 10.629921 15.976179 17.559055 10.629921 20.897440 30.157480 18.897638 20.897440 30.157480 12.992126 20.897440 22.385864 11.225274 20.897440 22.283464 10.629921 20.897440 21.889763 18.897638 20.897440 22.656023 11.765594 20.897440 23.070866 12.204724 20.503738 28.582678 12.992126 20.503738 30.157480 12.992126 18.338385 30.157480 18.897638 18.141533 31.344925 12.992126 18.338385 30.157480 12.992126 18.141533 31.344925 18.897638 19.519487 30.157480 12.992126 16.960432 30.157480 12.992126 17.354132 28.582678 12.992126 17.354132 23.070866 12.992126 19.716337 31.344925 12.992126 19.716337 31.344925 18.897638 19.519487 30.157480 18.897638 18.928936 31.344925 18.897638 16.960432 30.157480 18.897638 20.503738 21.889763 18.897638 16.960432 21.889763 18.897638 17.354132 21.889763 18.897638 16.960432 21.889763 18.543306 16.960432 22.283464 10.629921 16.960432 22.385864 11.225274 16.960432 22.656023 11.765594 16.960432 23.070866 12.204724 17.354132 28.582678 12.204724 20.503738 28.582678 12.204724 17.354132 23.070866 12.204724 20.503738 28.779528 9.607057 20.503738 23.464567 9.448819 20.503738 28.188976 9.448819 20.503738 22.874016 9.607057 20.503738 29.211842 10.039371 20.503738 22.441702 10.039371 20.503738 29.370079 10.629921 20.503738 22.283464 10.629921 20.503738 22.385864 11.225274 20.503738 29.267679 11.225274 20.503738 22.656023 11.765594 20.503738 28.997520 11.765594 20.503738 23.070866 12.204724 20.503738 23.070866 12.992126 16.960432 30.314960 5.078740 16.960432 27.795275 4.724410 16.960432 23.070866 6.692914 16.960432 32.204723 5.787402 16.960432 33.464565 6.850394 16.960432 21.889763 6.692914 16.960432 22.441702 10.039371 16.960432 22.874016 9.607057 16.960432 23.464567 9.448819 16.960432 34.094490 8.267716 16.960432 28.188976 9.448819 16.960432 34.094490 10.629921 16.960432 28.779528 9.607057 16.960432 29.211842 10.039371 16.960432 29.370079 10.629921 19.322636 31.344925 9.448819 18.535234 31.344925 12.992126 18.535234 31.344925 9.448819 19.322636 31.344925 12.992126 19.322636 32.125984 9.448819 19.322636 32.125984 12.992126 18.535234 32.125984 12.992126 18.535234 32.125984 9.448819 20.503738 21.889763 16.929134 17.354132 21.889763 16.929134 20.503738 17.952755 16.929134 17.354132 17.952755 16.929134 17.354132 17.952755 18.897638 20.503738 17.952755 18.897638 16.369881 0.000000 18.897638 16.369881 17.952755 18.897638 21.487991 17.952755 18.897638 21.487991 0.000000 18.897638 16.369881 16.771654 6.692914 21.487991 16.771654 4.724410 16.369881 16.771654 4.724410 21.487991 16.771654 6.692914 21.487991 0.000000 4.724410 16.369881 0.000000 4.724410 20.897440 23.070866 6.692914 20.897440 21.889763 6.692914 16.369881 17.952755 6.692914 21.487991 17.952755 6.692914 20.897440 27.795275 4.724410 20.897440 34.094490 10.629921 20.897440 34.094490 8.267716 17.354132 22.283464 10.629921 17.354132 22.441702 10.039371 17.354132 22.874016 9.607057 17.354132 22.656023 11.765594 17.354132 22.385864 11.225274 20.897440 30.314960 5.078740 20.897440 32.204723 5.787402 20.897440 33.464565 6.850394 20.897440 28.188976 9.448819 20.897440 28.779528 9.607057 20.897440 29.211842 10.039371 20.897440 29.370079 10.629921 20.897440 22.441702 10.039371 20.897440 22.874016 9.607057 20.897440 23.464567 9.448819 17.354132 29.211842 10.039371 17.354132 29.370079 10.629921 17.354132 28.779528 9.607057 17.354132 28.188976 9.448819 17.354132 23.464567 9.448819 17.354132 29.267679 11.225274 17.354132 28.997520 11.765594 0.000000 29.763779 25.196850 37.807480 33.700787 22.216719 0.000000 33.700787 22.216719 37.807480 29.763779 25.196850 0.000000 29.763779 12.992126 37.807480 29.763779 12.992126 37.807480 33.700787 12.992126 0.000000 33.700787 12.992126 20.681932 44.744331 14.566929 19.500832 50.256145 14.566929 19.500832 44.744331 14.566929 20.681932 50.256145 14.566929 14.797564 49.841301 11.765594 15.067723 45.429337 11.225274 14.797564 45.159176 11.765594 15.067723 49.571140 11.225274 20.681932 49.468742 12.204724 20.681932 44.744331 12.204724 20.681932 50.256145 12.204724 15.170122 45.531734 10.629921 15.170122 49.468742 10.629921 14.382721 50.256145 12.204724 14.382721 44.744331 12.204724 15.563823 44.744331 14.566929 14.382721 50.256145 14.566929 14.382721 44.744331 14.566929 15.563823 50.256145 14.566929 15.563823 50.256145 12.992126 19.500832 50.256145 12.992126 19.996931 45.429337 11.225274 19.894531 45.531734 10.629921 20.267090 49.468742 11.765594 20.267090 45.159176 11.765594 19.996931 49.468742 11.225274 19.996931 49.571140 11.225274 20.267090 49.841301 11.765594 19.894531 49.468742 10.629921 11.233114 61.673466 4.724410 11.233114 57.736458 4.724410 20.681932 56.752209 4.724410 23.831539 62.657719 4.724410 20.681932 62.657719 4.724410 23.831539 56.752209 4.724410 20.681932 56.752209 6.299212 20.681932 62.657719 6.299212 15.563823 57.736458 6.299212 15.563823 53.405750 7.874016 15.563823 61.673466 6.299212 15.563823 61.673466 7.874016 15.563823 66.004173 7.874016 15.563823 57.736458 7.874016 19.500832 66.004173 7.874016 19.500832 62.657719 6.299212 19.500832 62.657719 7.874016 19.500832 56.752209 7.874016 19.500832 53.405750 7.874016 19.500832 56.752209 6.299212 14.382721 61.673466 6.299212 14.382721 57.736458 6.299212 23.831539 53.405750 3.149606 12.062800 54.235435 2.271344 23.001854 54.235435 2.271344 11.233114 53.405750 3.149606 12.603120 54.775757 1.190706 22.461535 54.775757 1.190706 11.233114 66.004173 3.149606 12.062800 65.174492 2.271344 12.603120 64.634171 1.190706 12.807918 54.980553 0.000000 12.807918 64.429375 0.000000 22.256737 64.429375 0.000000 22.461535 64.634171 1.190706 23.001854 65.174492 2.271344 23.831539 66.004173 3.149606 23.831539 53.405750 7.874016 23.831539 56.752209 7.874016 22.256737 54.980553 0.000000 23.831539 62.657719 7.874016 11.233114 57.736458 7.874016 11.233114 61.673466 7.874016 11.233114 66.004173 7.874016 23.831539 66.004173 7.874016 23.001854 64.429375 2.271344 22.461535 64.429375 1.190706 23.831539 64.429375 3.149606 11.233114 53.405750 7.874016 "
							            />
						</IndexedFaceSet>
					</Shape>
				</Group>
			</Transform>
		</Transform>
	</Scene>
</X3D>