<?xml version="1.0" encoding="UTF-8"?>
<!DOCTYPE X3D PUBLIC "ISO//Web3D//DTD X3D 3.0//EN" "http://www.web3d.org/specifications/x3d-3.0.dtd">
<X3D version="3.0" profile="Immersive" xmlns:xsd="http://www.w3.org/2001/XMLSchema-instance" xsd:noNamespaceSchemaLocation="http://www.web3d.org/specifications/x3d-3.0.xsd">
	<head>
		<meta name="filename" content="05-4.x3d" />
		<meta name="created" content="2026-06-21 15:09:37" />
		<meta name="generator" content="Blender 4.5.4 LTS" />
		<meta name="translator" content="Web3D X3D/VRML2 format v2.5.1" />
	</head>
	<Scene>
		<NavigationInfo headlight="true"
		                visibilityLimit="0.0"
		                type='"EXAMINE", "ANY"'
		                avatarSize="0.25, 1.75, 0.75"
		                />
		<Background DEF="WO_World"
		            groundColor="0.051 0.051 0.051"
		            skyColor="0.051 0.051 0.051"
		            />
		<Transform DEF="_05-4_TRANSFORM"
		           translation="0.000000 0.000000 0.000000"
		           scale="1.000000 1.000000 1.000000"
		           rotation="0.000000 0.707107 0.707107 3.141593"
		           >
			<Transform DEF="_05-4_ifs_TRANSFORM"
			           translation="0.000000 0.000000 0.000000"
			           scale="1.000000 1.000000 1.000000"
			           rotation="0.000000 1.000000 0.000000 0.000000"
			           >
				<Group DEF="group_ME_05-4_001">
					<Shape>
						<Appearance>
						</Appearance>
						<IndexedFaceSet solid="false"
						                coordIndex="0 1 2 -1 1 0 3 -1 4 5 6 -1 5 4 7 -1 8 0 9 -1 0 8 3 -1 3 8 10 -1 7 11 5 -1 11 7 12 -1 13 6 14 -1 6 13 4 -1 15 16 17 -1 16 15 18 -1 13 19 10 -1 19 13 16 -1 19 16 18 -1 10 20 3 -1 20 10 19 -1 3 20 1 -1 1 21 2 -1 21 1 20 -1 21 19 22 -1 19 21 20 -1 23 11 24 -1 11 23 5 -1 23 25 26 -1 25 23 27 -1 25 27 28 -1 25 28 29 -1 26 5 23 -1 5 26 6 -1 19 15 22 -1 15 19 18 -1 26 8 9 -1 8 26 25 -1 8 25 29 -1 8 29 10 -1 4 28 7 -1 28 4 29 -1 13 29 4 -1 29 13 10 -1 24 27 23 -1 27 24 30 -1 27 30 28 -1 9 21 14 -1 21 9 0 -1 21 0 2 -1 14 22 17 -1 22 14 21 -1 17 22 15 -1 30 11 12 -1 11 30 24 -1 9 6 26 -1 6 9 14 -1 16 14 17 -1 14 16 13 -1 7 30 12 -1 30 7 28 -1 31 32 33 -1 32 31 34 -1 34 31 35 -1 35 31 36 -1 33 37 38 -1 37 33 32 -1 39 40 41 -1 40 36 31 -1 36 40 39 -1 41 42 43 -1 42 31 44 -1 31 42 41 -1 31 41 40 -1 41 45 46 -1 45 41 43 -1 43 47 48 -1 47 44 49 -1 44 47 43 -1 44 43 42 -1 39 50 51 -1 52 46 53 -1 46 52 54 -1 46 54 41 -1 41 54 50 -1 41 50 39 -1 43 55 45 -1 55 43 48 -1 38 46 33 -1 46 38 53 -1 48 56 57 -1 56 48 49 -1 49 48 47 -1 58 31 33 -1 31 58 44 -1 59 44 58 -1 44 59 49 -1 60 49 59 -1 49 60 56 -1 33 45 58 -1 45 33 46 -1 58 55 59 -1 55 58 45 -1 59 61 60 -1 61 59 55 -1 48 61 55 -1 61 48 57 -1 56 61 57 -1 61 56 60 -1 32 50 54 -1 50 32 34 -1 52 32 54 -1 32 52 37 -1 35 50 34 -1 50 35 51 -1 38 52 53 -1 52 38 37 -1 35 39 51 -1 39 35 36 -1 62 63 64 -1 63 62 65 -1 66 62 67 -1 62 66 65 -1 68 67 69 -1 67 68 66 -1 70 69 71 -1 69 70 68 -1 64 72 73 -1 72 64 63 -1 74 75 76 -1 75 74 77 -1 77 74 78 -1 79 80 81 -1 80 79 82 -1 83 80 82 -1 80 83 84 -1 85 86 87 -1 86 85 88 -1 88 89 90 -1 89 88 91 -1 91 88 85 -1 91 85 92 -1 92 93 91 -1 76 94 74 -1 94 76 93 -1 94 93 95 -1 95 93 92 -1 95 92 96 -1 93 89 91 -1 89 93 97 -1 93 75 97 -1 75 93 76 -1 98 86 88 -1 86 98 99 -1 98 90 100 -1 90 98 88 -1 101 80 84 -1 80 102 81 -1 102 80 73 -1 73 80 101 -1 73 101 71 -1 71 101 103 -1 73 71 69 -1 73 69 67 -1 73 67 62 -1 73 62 64 -1 86 103 101 -1 103 86 99 -1 96 85 104 -1 85 96 92 -1 87 104 85 -1 104 87 105 -1 106 82 79 -1 82 106 72 -1 82 72 70 -1 70 72 68 -1 68 72 66 -1 66 72 65 -1 65 72 63 -1 82 107 83 -1 107 82 70 -1 83 101 84 -1 101 83 86 -1 86 83 87 -1 87 83 105 -1 105 83 107 -1 94 78 74 -1 78 94 108 -1 78 109 77 -1 109 78 108 -1 95 108 94 -1 108 95 110 -1 109 110 111 -1 110 109 108 -1 109 75 77 -1 75 109 97 -1 97 109 111 -1 97 111 89 -1 89 111 90 -1 90 111 100 -1 110 95 111 -1 106 81 102 -1 81 106 79 -1 111 98 100 -1 98 111 104 -1 104 111 96 -1 96 111 95 -1 98 105 99 -1 105 98 104 -1 103 70 71 -1 70 103 107 -1 107 103 99 -1 107 99 105 -1 72 102 73 -1 102 72 106 -1 112 113 114 -1 113 112 115 -1 116 117 118 -1 117 116 119 -1 120 112 121 -1 112 120 115 -1 115 120 122 -1 119 123 117 -1 123 119 124 -1 125 118 126 -1 118 125 116 -1 127 128 129 -1 128 127 130 -1 125 131 122 -1 131 125 128 -1 131 128 130 -1 122 132 115 -1 132 122 131 -1 115 132 113 -1 113 133 114 -1 133 113 132 -1 133 131 134 -1 131 133 132 -1 135 123 136 -1 123 135 117 -1 135 137 138 -1 137 135 139 -1 137 139 140 -1 137 140 141 -1 138 117 135 -1 117 138 118 -1 131 127 134 -1 127 131 130 -1 138 120 121 -1 120 138 137 -1 120 137 141 -1 120 141 122 -1 116 140 119 -1 140 116 141 -1 125 141 116 -1 141 125 122 -1 136 139 135 -1 139 136 142 -1 139 142 140 -1 121 133 126 -1 133 121 112 -1 133 112 114 -1 126 134 129 -1 134 126 133 -1 129 134 127 -1 142 123 124 -1 123 142 136 -1 121 118 138 -1 118 121 126 -1 128 126 129 -1 126 128 125 -1 119 142 124 -1 142 119 140 -1 143 144 145 -1 144 143 146 -1 147 143 145 -1 143 147 148 -1 146 148 149 -1 148 146 143 -1 149 147 150 -1 147 149 148 -1 147 144 150 -1 144 147 145 -1 149 144 146 -1 144 149 150 -1 151 100 152 -1 100 151 153 -1 154 155 156 -1 155 154 157 -1 158 159 160 -1 159 158 161 -1 162 163 164 -1 163 162 165 -1 158 154 161 -1 154 158 157 -1 157 158 151 -1 157 151 164 -1 164 151 152 -1 164 152 162 -1 164 155 157 -1 155 164 163 -1 161 156 159 -1 156 161 154 -1 158 153 151 -1 153 158 160 -1 105 166 167 -1 166 105 104 -1 168 169 170 -1 169 168 171 -1 169 171 172 -1 172 171 166 -1 172 166 96 -1 96 166 104 -1 170 173 174 -1 173 170 169 -1 175 176 177 -1 176 175 178 -1 176 179 177 -1 179 176 180 -1 180 176 181 -1 181 176 182 -1 183 184 185 -1 184 183 186 -1 186 183 187 -1 186 187 188 -1 188 187 189 -1 188 189 86 -1 86 189 190 -1 86 190 191 -1 86 191 99 -1 190 189 192 -1 192 189 177 -1 192 177 179 -1 99 191 193 -1 188 87 194 -1 87 188 86 -1 194 87 195 -1 195 87 196 -1 196 87 105 -1 194 195 197 -1 194 197 198 -1 196 105 167 -1 198 199 170 -1 199 198 197 -1 170 199 200 -1 170 200 201 -1 170 201 168 -1 174 198 170 -1 198 174 202 -1 203 184 204 -1 184 203 185 -1 205 168 201 -1 168 205 171 -1 191 206 193 -1 206 191 207 -1 87 88 85 -1 88 87 86 -1 208 209 210 -1 209 208 211 -1 212 201 200 -1 201 212 205 -1 213 214 215 -1 214 213 212 -1 212 213 216 -1 212 216 205 -1 205 216 166 -1 205 166 171 -1 217 177 189 -1 177 217 175 -1 218 219 220 -1 219 218 221 -1 210 222 223 -1 222 210 209 -1 224 185 203 -1 185 224 183 -1 190 207 191 -1 207 190 225 -1 166 196 167 -1 196 166 216 -1 199 212 200 -1 212 199 214 -1 226 183 224 -1 183 226 187 -1 197 214 199 -1 214 197 215 -1 227 208 228 -1 208 227 211 -1 195 215 197 -1 215 195 213 -1 179 229 230 -1 229 179 180 -1 181 229 180 -1 229 181 231 -1 229 232 230 -1 232 229 225 -1 225 229 231 -1 225 231 207 -1 207 231 233 -1 207 233 206 -1 190 232 225 -1 232 190 192 -1 220 210 223 -1 210 220 208 -1 208 220 219 -1 208 219 228 -1 228 219 169 -1 228 169 172 -1 96 228 172 -1 228 96 227 -1 223 218 220 -1 218 223 222 -1 192 230 232 -1 230 192 179 -1 182 231 181 -1 231 182 233 -1 217 187 226 -1 187 217 189 -1 221 169 219 -1 169 221 173 -1 216 195 196 -1 195 216 213 -1 234 194 235 -1 194 234 188 -1 174 222 202 -1 222 174 218 -1 218 174 221 -1 221 174 173 -1 236 203 204 -1 203 236 224 -1 224 236 234 -1 224 234 226 -1 226 234 235 -1 226 235 85 -1 85 235 211 -1 85 211 227 -1 85 227 104 -1 211 235 209 -1 209 235 202 -1 209 202 222 -1 104 227 96 -1 226 88 217 -1 88 226 85 -1 217 88 160 -1 160 88 153 -1 153 88 98 -1 217 160 159 -1 217 159 175 -1 153 98 100 -1 175 156 178 -1 156 175 159 -1 178 156 155 -1 178 155 163 -1 178 163 165 -1 198 235 194 -1 235 198 202 -1 99 100 98 -1 100 99 152 -1 152 99 193 -1 152 193 206 -1 206 162 152 -1 162 206 233 -1 162 178 165 -1 178 162 233 -1 178 233 182 -1 178 182 176 -1 236 188 234 -1 188 236 186 -1 204 186 236 -1 186 204 184 -1 76 237 238 -1 237 76 75 -1 79 239 81 -1 239 79 240 -1 241 242 243 -1 242 241 244 -1 81 245 79 -1 245 81 246 -1 243 247 248 -1 247 243 242 -1 247 242 249 -1 249 242 250 -1 250 242 251 -1 252 248 247 -1 253 254 255 -1 256 241 257 -1 241 256 258 -1 241 258 244 -1 244 258 254 -1 244 254 253 -1 259 76 260 -1 76 259 75 -1 261 262 263 -1 262 261 264 -1 263 265 266 -1 265 263 262 -1 267 262 264 -1 262 267 268 -1 268 265 262 -1 265 268 269 -1 269 270 265 -1 270 269 271 -1 269 272 271 -1 272 269 273 -1 267 274 268 -1 274 267 275 -1 268 273 269 -1 273 268 274 -1 276 256 257 -1 256 276 277 -1 266 270 278 -1 270 266 265 -1 279 81 239 -1 81 279 246 -1 246 279 254 -1 254 279 255 -1 256 245 258 -1 245 240 79 -1 240 245 277 -1 277 245 256 -1 247 259 260 -1 259 247 249 -1 258 246 254 -1 246 258 245 -1 280 76 238 -1 76 280 260 -1 260 280 247 -1 247 280 252 -1 250 259 249 -1 259 237 75 -1 237 259 281 -1 281 259 250 -1 267 242 275 -1 242 267 282 -1 242 282 251 -1 275 244 283 -1 244 275 242 -1 283 244 253 -1 266 284 263 -1 284 266 285 -1 284 285 273 -1 284 273 274 -1 272 270 271 -1 270 272 278 -1 263 286 261 -1 286 263 284 -1 286 284 275 -1 275 284 274 -1 278 285 266 -1 285 278 272 -1 285 272 273 -1 261 241 264 -1 241 261 276 -1 241 276 257 -1 264 243 287 -1 243 264 241 -1 287 243 248 -1 282 237 281 -1 280 264 287 -1 264 280 238 -1 264 238 267 -1 267 238 237 -1 267 237 282 -1 261 240 276 -1 240 261 286 -1 240 286 239 -1 239 286 279 -1 279 286 283 -1 283 286 275 -1 277 276 240 -1 281 251 282 -1 251 281 250 -1 279 253 255 -1 253 279 283 -1 248 280 287 -1 280 248 252 -1 288 289 290 -1 289 288 291 -1 292 293 294 -1 293 292 295 -1 296 288 297 -1 288 296 291 -1 291 296 298 -1 295 299 293 -1 299 295 300 -1 301 294 302 -1 294 301 292 -1 303 304 305 -1 304 303 306 -1 301 307 298 -1 307 301 304 -1 307 304 306 -1 298 308 291 -1 308 298 307 -1 291 308 289 -1 289 309 290 -1 309 289 308 -1 309 307 310 -1 307 309 308 -1 311 299 312 -1 299 311 293 -1 311 313 314 -1 313 311 315 -1 313 315 316 -1 313 316 317 -1 314 293 311 -1 293 314 294 -1 307 303 310 -1 303 307 306 -1 314 296 297 -1 296 314 313 -1 296 313 317 -1 296 317 298 -1 292 316 295 -1 316 292 317 -1 301 317 292 -1 317 301 298 -1 312 315 311 -1 315 312 318 -1 315 318 316 -1 297 309 302 -1 309 297 288 -1 309 288 290 -1 302 310 305 -1 310 302 309 -1 305 310 303 -1 318 299 300 -1 299 318 312 -1 297 294 314 -1 294 297 302 -1 304 302 305 -1 302 304 301 -1 295 318 300 -1 318 295 316 -1 319 320 321 -1 320 319 322 -1 322 319 323 -1 323 319 324 -1 321 325 326 -1 325 321 320 -1 327 328 329 -1 328 324 319 -1 324 328 327 -1 329 330 331 -1 330 319 332 -1 319 330 329 -1 319 329 328 -1 329 333 334 -1 333 329 331 -1 331 335 336 -1 335 332 337 -1 332 335 331 -1 332 331 330 -1 327 338 339 -1 340 334 341 -1 334 340 342 -1 334 342 329 -1 329 342 338 -1 329 338 327 -1 331 343 333 -1 343 331 336 -1 326 334 321 -1 334 326 341 -1 336 344 345 -1 344 336 337 -1 337 336 335 -1 346 319 321 -1 319 346 332 -1 347 332 346 -1 332 347 337 -1 348 337 347 -1 337 348 344 -1 321 333 346 -1 333 321 334 -1 346 343 347 -1 343 346 333 -1 347 349 348 -1 349 347 343 -1 336 349 343 -1 349 336 345 -1 344 349 345 -1 349 344 348 -1 320 338 342 -1 338 320 322 -1 340 320 342 -1 320 340 325 -1 323 338 322 -1 338 323 339 -1 326 340 341 -1 340 326 325 -1 323 327 339 -1 327 323 324 -1 350 351 352 -1 351 350 353 -1 354 350 355 -1 350 354 353 -1 356 355 357 -1 355 356 354 -1 358 357 359 -1 357 358 356 -1 352 360 361 -1 360 352 351 -1 362 363 364 -1 363 362 365 -1 365 362 366 -1 367 368 369 -1 368 367 370 -1 371 368 370 -1 368 371 372 -1 373 374 375 -1 374 373 376 -1 376 377 378 -1 377 376 379 -1 379 376 373 -1 379 373 380 -1 380 381 379 -1 364 382 362 -1 382 364 381 -1 382 381 383 -1 383 381 380 -1 383 380 384 -1 381 377 379 -1 377 381 385 -1 381 363 385 -1 363 381 364 -1 386 374 376 -1 374 386 387 -1 386 378 388 -1 378 386 376 -1 389 368 372 -1 368 390 369 -1 390 368 361 -1 361 368 389 -1 361 389 359 -1 359 389 391 -1 361 359 357 -1 361 357 355 -1 361 355 350 -1 361 350 352 -1 374 391 389 -1 391 374 387 -1 384 373 392 -1 373 384 380 -1 375 392 373 -1 392 375 393 -1 394 370 367 -1 370 394 360 -1 370 360 358 -1 358 360 356 -1 356 360 354 -1 354 360 353 -1 353 360 351 -1 370 395 371 -1 395 370 358 -1 371 389 372 -1 389 371 374 -1 374 371 375 -1 375 371 393 -1 393 371 395 -1 382 366 362 -1 366 382 396 -1 366 397 365 -1 397 366 396 -1 383 396 382 -1 396 383 398 -1 397 398 399 -1 398 397 396 -1 397 363 365 -1 363 397 385 -1 385 397 399 -1 385 399 377 -1 377 399 378 -1 378 399 388 -1 398 383 399 -1 394 369 390 -1 369 394 367 -1 399 386 388 -1 386 399 392 -1 392 399 384 -1 384 399 383 -1 386 393 387 -1 393 386 392 -1 391 358 359 -1 358 391 395 -1 395 391 387 -1 395 387 393 -1 360 390 361 -1 390 360 394 -1 400 401 402 -1 401 400 403 -1 404 405 406 -1 405 404 407 -1 408 400 409 -1 400 408 403 -1 403 408 410 -1 407 411 405 -1 411 407 412 -1 413 406 414 -1 406 413 404 -1 415 416 417 -1 416 415 418 -1 413 419 410 -1 419 413 416 -1 419 416 418 -1 410 420 403 -1 420 410 419 -1 403 420 401 -1 401 421 402 -1 421 401 420 -1 421 419 422 -1 419 421 420 -1 423 411 424 -1 411 423 405 -1 423 425 426 -1 425 423 427 -1 425 427 428 -1 425 428 429 -1 426 405 423 -1 405 426 406 -1 419 415 422 -1 415 419 418 -1 426 408 409 -1 408 426 425 -1 408 425 429 -1 408 429 410 -1 404 428 407 -1 428 404 429 -1 413 429 404 -1 429 413 410 -1 424 427 423 -1 427 424 430 -1 427 430 428 -1 409 421 414 -1 421 409 400 -1 421 400 402 -1 414 422 417 -1 422 414 421 -1 417 422 415 -1 430 411 412 -1 411 430 424 -1 409 406 426 -1 406 409 414 -1 416 414 417 -1 414 416 413 -1 407 430 412 -1 430 407 428 -1 431 432 433 -1 432 431 434 -1 435 431 433 -1 431 435 436 -1 434 436 437 -1 436 434 431 -1 437 435 438 -1 435 437 436 -1 435 432 438 -1 432 435 433 -1 437 432 434 -1 432 437 438 -1 439 388 440 -1 388 439 441 -1 442 443 444 -1 443 442 445 -1 446 447 448 -1 447 446 449 -1 450 451 452 -1 451 450 453 -1 446 442 449 -1 442 446 445 -1 445 446 439 -1 445 439 452 -1 452 439 440 -1 452 440 450 -1 452 443 445 -1 443 452 451 -1 449 444 447 -1 444 449 442 -1 446 441 439 -1 441 446 448 -1 393 454 455 -1 454 393 392 -1 456 457 458 -1 457 456 459 -1 457 459 460 -1 460 459 454 -1 460 454 384 -1 384 454 392 -1 458 461 462 -1 461 458 457 -1 463 464 465 -1 464 463 466 -1 464 467 465 -1 467 464 468 -1 468 464 469 -1 469 464 470 -1 471 472 473 -1 472 471 474 -1 474 471 475 -1 474 475 476 -1 476 475 477 -1 476 477 374 -1 374 477 478 -1 374 478 479 -1 374 479 387 -1 478 477 480 -1 480 477 465 -1 480 465 467 -1 387 479 481 -1 476 375 482 -1 375 476 374 -1 482 375 483 -1 483 375 484 -1 484 375 393 -1 482 483 485 -1 482 485 486 -1 484 393 455 -1 486 487 458 -1 487 486 485 -1 458 487 488 -1 458 488 489 -1 458 489 456 -1 462 486 458 -1 486 462 490 -1 491 472 492 -1 472 491 473 -1 493 456 489 -1 456 493 459 -1 479 494 481 -1 494 479 495 -1 375 376 373 -1 376 375 374 -1 496 497 498 -1 497 496 499 -1 500 489 488 -1 489 500 493 -1 501 502 503 -1 502 501 500 -1 500 501 504 -1 500 504 493 -1 493 504 454 -1 493 454 459 -1 505 465 477 -1 465 505 463 -1 506 507 508 -1 507 506 509 -1 498 510 511 -1 510 498 497 -1 512 473 491 -1 473 512 471 -1 478 495 479 -1 495 478 513 -1 454 484 455 -1 484 454 504 -1 487 500 488 -1 500 487 502 -1 514 471 512 -1 471 514 475 -1 485 502 487 -1 502 485 503 -1 515 496 516 -1 496 515 499 -1 483 503 485 -1 503 483 501 -1 467 517 518 -1 517 467 468 -1 469 517 468 -1 517 469 519 -1 517 520 518 -1 520 517 513 -1 513 517 519 -1 513 519 495 -1 495 519 521 -1 495 521 494 -1 478 520 513 -1 520 478 480 -1 508 498 511 -1 498 508 496 -1 496 508 507 -1 496 507 516 -1 516 507 457 -1 516 457 460 -1 384 516 460 -1 516 384 515 -1 511 506 508 -1 506 511 510 -1 480 518 520 -1 518 480 467 -1 470 519 469 -1 519 470 521 -1 505 475 514 -1 475 505 477 -1 509 457 507 -1 457 509 461 -1 504 483 484 -1 483 504 501 -1 522 482 523 -1 482 522 476 -1 462 510 490 -1 510 462 506 -1 506 462 509 -1 509 462 461 -1 524 491 492 -1 491 524 512 -1 512 524 522 -1 512 522 514 -1 514 522 523 -1 514 523 373 -1 373 523 499 -1 373 499 515 -1 373 515 392 -1 499 523 497 -1 497 523 490 -1 497 490 510 -1 392 515 384 -1 514 376 505 -1 376 514 373 -1 505 376 448 -1 448 376 441 -1 441 376 386 -1 505 448 447 -1 505 447 463 -1 441 386 388 -1 463 444 466 -1 444 463 447 -1 466 444 443 -1 466 443 451 -1 466 451 453 -1 486 523 482 -1 523 486 490 -1 387 388 386 -1 388 387 440 -1 440 387 481 -1 440 481 494 -1 494 450 440 -1 450 494 521 -1 450 466 453 -1 466 450 521 -1 466 521 470 -1 466 470 464 -1 524 476 522 -1 476 524 474 -1 492 474 524 -1 474 492 472 -1 364 525 526 -1 525 364 363 -1 367 527 369 -1 527 367 528 -1 529 530 531 -1 530 529 532 -1 369 533 367 -1 533 369 534 -1 531 535 536 -1 535 531 530 -1 535 530 537 -1 537 530 538 -1 538 530 539 -1 540 536 535 -1 541 542 543 -1 544 529 545 -1 529 544 546 -1 529 546 532 -1 532 546 542 -1 532 542 541 -1 547 364 548 -1 364 547 363 -1 549 550 551 -1 550 549 552 -1 551 553 554 -1 553 551 550 -1 555 550 552 -1 550 555 556 -1 556 553 550 -1 553 556 557 -1 557 558 553 -1 558 557 559 -1 557 560 559 -1 560 557 561 -1 555 562 556 -1 562 555 563 -1 556 561 557 -1 561 556 562 -1 564 544 545 -1 544 564 565 -1 554 558 566 -1 558 554 553 -1 567 369 527 -1 369 567 534 -1 534 567 542 -1 542 567 543 -1 544 533 546 -1 533 528 367 -1 528 533 565 -1 565 533 544 -1 535 547 548 -1 547 535 537 -1 546 534 542 -1 534 546 533 -1 568 364 526 -1 364 568 548 -1 548 568 535 -1 535 568 540 -1 538 547 537 -1 547 525 363 -1 525 547 569 -1 569 547 538 -1 555 530 563 -1 530 555 570 -1 530 570 539 -1 563 532 571 -1 532 563 530 -1 571 532 541 -1 554 572 551 -1 572 554 573 -1 572 573 561 -1 572 561 562 -1 560 558 559 -1 558 560 566 -1 551 574 549 -1 574 551 572 -1 574 572 563 -1 563 572 562 -1 566 573 554 -1 573 566 560 -1 573 560 561 -1 549 529 552 -1 529 549 564 -1 529 564 545 -1 552 531 575 -1 531 552 529 -1 575 531 536 -1 570 525 569 -1 568 552 575 -1 552 568 526 -1 552 526 555 -1 555 526 525 -1 555 525 570 -1 549 528 564 -1 528 549 574 -1 528 574 527 -1 527 574 567 -1 567 574 571 -1 571 574 563 -1 565 564 528 -1 569 539 570 -1 539 569 538 -1 567 541 543 -1 541 567 571 -1 536 568 575 -1 568 536 540 -1 "
						                >
							<Coordinate DEF="coords_ME_05-4_001"
							            point="25.323683 15.937381 14.566929 30.835495 17.118483 14.566929 25.323683 17.118483 14.566929 30.835495 15.937381 14.566929 30.420650 21.821751 11.765594 26.008686 21.551590 11.225274 25.738527 21.821751 11.765594 30.150492 21.551590 11.225274 30.048092 15.937381 12.204724 25.323683 15.937381 12.204724 30.835495 15.937381 12.204724 26.111084 21.449192 10.629921 30.048092 21.449192 10.629921 30.835495 22.236593 12.204724 25.323683 22.236593 12.204724 25.323683 21.055490 14.566929 30.835495 22.236593 14.566929 25.323683 22.236593 14.566929 30.835495 21.055490 14.566929 30.835495 21.055490 12.992126 30.835495 17.118483 12.992126 25.323683 17.118483 12.992126 25.323683 21.055490 12.992126 26.008686 16.622383 11.225274 26.111084 16.724783 10.629921 30.048092 16.352224 11.765594 25.738527 16.352224 11.765594 30.048092 16.622383 11.225274 30.150492 16.622383 11.225274 30.420650 16.352224 11.765594 30.048092 16.724783 10.629921 20.992975 22.236593 12.204724 20.992975 17.118483 12.992126 20.992975 15.937381 12.204724 20.992975 21.055490 12.992126 20.992975 21.055490 14.566929 20.992975 22.236593 14.566929 20.992975 17.118483 14.566929 20.992975 15.937381 14.566929 14.693762 22.236593 14.566929 15.481164 22.236593 12.204724 14.693762 22.236593 12.204724 15.481164 21.821751 11.765594 15.108605 21.821751 11.765594 20.578131 21.821751 11.765594 15.108605 16.352224 11.765594 14.693762 15.937381 12.204724 15.481164 21.551590 11.225274 15.378765 21.551590 11.225274 20.307972 21.551590 11.225274 14.693762 21.055490 12.992126 14.693762 21.055490 14.566929 14.693762 17.118483 14.566929 14.693762 15.937381 14.566929 14.693762 17.118483 12.992126 15.378765 16.622383 11.225274 20.205572 21.449192 10.629921 15.481164 21.449192 10.629921 20.578131 16.352224 11.765594 20.307972 16.622383 11.225274 20.205572 16.724783 10.629921 15.481164 16.724783 10.629921 20.796124 15.937381 12.204724 14.890613 15.937381 12.992126 20.796124 15.937381 12.992126 14.890613 15.937381 12.204724 14.890613 16.352224 11.765594 20.796124 16.352224 11.765594 14.890613 16.622383 11.225274 20.796124 16.622383 11.225274 14.890613 16.724783 10.629921 20.796124 16.724783 10.629921 14.890613 -3.672808 12.992126 20.796124 -3.672808 12.992126 15.874865 26.072334 4.724410 19.811872 22.236593 4.724410 15.874865 22.236593 4.724410 19.811872 26.072334 4.724410 17.843369 28.040838 4.724410 14.890613 15.937381 4.724410 20.796124 15.937381 5.905512 20.796124 15.937381 4.724410 14.890613 15.937381 5.905512 14.890613 17.118483 5.905512 20.796124 17.118483 5.905512 16.268566 21.055490 6.692914 19.418171 17.118483 6.692914 16.268566 17.118483 6.692914 19.418171 21.055490 6.692914 19.811872 21.055490 5.905512 19.811872 21.055490 6.692914 15.874865 21.055490 5.905512 15.874865 21.055490 6.692914 15.874865 22.236593 5.905512 15.874865 28.355799 5.511811 15.874865 30.403042 10.629921 15.874865 21.055490 10.629921 19.811872 22.236593 5.905512 19.418171 21.055490 10.629921 19.418171 17.118483 10.629921 19.811872 21.055490 10.629921 20.796124 17.118483 6.692914 20.796124 -3.672808 4.724410 20.796124 17.118483 10.629921 16.268566 21.055490 10.629921 16.268566 17.118483 10.629921 14.890613 -3.672808 4.724410 14.890613 17.118483 10.629921 17.843369 30.324303 5.511811 19.811872 28.355799 5.511811 17.843369 32.079113 9.898837 19.811872 30.403042 10.629921 4.851243 15.937381 14.566929 10.363053 17.118483 14.566929 4.851243 17.118483 14.566929 10.363053 15.937381 14.566929 9.948210 21.821751 11.765594 5.536245 21.551590 11.225274 5.266086 21.821751 11.765594 9.678051 21.551590 11.225274 9.575652 15.937381 12.204724 4.851243 15.937381 12.204724 10.363053 15.937381 12.204724 5.638644 21.449192 10.629921 9.575652 21.449192 10.629921 10.363053 22.236593 12.204724 4.851243 22.236593 12.204724 4.851243 21.055490 14.566929 10.363053 22.236593 14.566929 4.851243 22.236593 14.566929 10.363053 21.055490 14.566929 10.363053 21.055490 12.992126 10.363053 17.118483 12.992126 4.851243 17.118483 12.992126 4.851243 21.055490 12.992126 5.536245 16.622383 11.225274 5.638644 16.724783 10.629921 9.575652 16.352224 11.765594 5.266086 16.352224 11.765594 9.575652 16.622383 11.225274 9.678051 16.622383 11.225274 9.948210 16.352224 11.765594 9.575652 16.724783 10.629921 40.508724 17.118483 18.897638 -1.971592 17.118483 12.992126 40.508724 17.118483 12.992126 -1.971592 17.118483 18.897638 40.508724 21.055490 12.992126 40.508724 21.055490 18.897638 -1.971592 21.055490 18.897638 -1.971592 21.055490 12.992126 19.970110 20.661791 10.039371 19.811872 20.661791 10.629921 19.970110 21.055490 10.039371 24.929983 20.661791 9.448819 25.520535 21.055490 9.607057 24.929983 21.055490 9.448819 25.520535 20.661791 9.607057 20.402424 20.661791 9.607057 20.992975 21.055490 9.448819 20.402424 21.055490 9.607057 20.992975 20.661791 9.448819 26.111084 20.661791 10.629921 25.952847 21.055490 10.039371 25.952847 20.661791 10.039371 26.111084 21.055490 10.629921 15.874865 17.512184 10.629921 15.874865 17.118483 10.629921 9.575652 17.118483 10.629921 9.575652 20.661791 10.629921 5.638644 17.118483 10.629921 9.575652 17.512184 10.629921 15.874865 20.661791 10.629921 9.575652 21.055490 10.629921 5.638644 21.055490 10.629921 30.048092 21.055490 8.267716 30.048092 17.118483 10.629921 30.048092 17.118483 8.267716 30.048092 21.055490 10.629921 24.929983 17.118483 9.448819 25.520535 17.118483 9.607057 25.952847 17.118483 10.039371 26.111084 17.118483 10.629921 26.741007 17.118483 5.078740 11.150455 17.118483 4.724410 24.536282 17.118483 4.724410 8.945730 17.118483 5.078740 28.394550 17.118483 5.787402 7.292187 17.118483 5.787402 29.496912 17.118483 6.850394 20.402424 17.118483 9.607057 19.970110 17.118483 10.039371 20.992975 17.118483 9.448819 19.811872 17.118483 10.629921 6.189825 17.118483 6.850394 15.284313 17.118483 9.607057 15.716627 17.118483 10.039371 14.693762 17.118483 9.448819 5.638644 17.118483 8.267716 10.756754 17.118483 9.448819 10.166203 17.118483 9.607057 9.733890 17.118483 10.039371 5.638644 21.055490 8.267716 24.536282 21.055490 4.724410 11.150455 21.055490 4.724410 9.733890 17.512184 10.039371 19.811872 17.512184 10.629921 19.970110 17.512184 10.039371 15.284313 20.661791 9.607057 14.693762 21.055490 9.448819 14.693762 20.661791 9.448819 15.284313 21.055490 9.607057 10.166203 17.512184 9.607057 15.284313 17.512184 9.607057 10.756754 17.512184 9.448819 14.693762 17.512184 9.448819 15.716627 17.512184 10.039371 29.496912 21.055490 6.850394 10.166203 21.055490 9.607057 9.733890 20.661791 10.039371 10.166203 20.661791 9.607057 9.733890 21.055490 10.039371 10.756754 21.055490 9.448819 10.756754 20.661791 9.448819 26.741007 21.055490 5.078740 20.402424 17.512184 9.607057 28.394550 21.055490 5.787402 15.716627 21.055490 10.039371 15.716627 20.661791 10.039371 25.520535 17.512184 9.607057 24.929983 17.512184 9.448819 25.952847 17.512184 10.039371 20.992975 17.512184 9.448819 26.111084 17.512184 10.629921 7.292187 21.055490 5.787402 6.189825 21.055490 6.850394 8.945730 21.055490 5.078740 19.811872 25.386200 4.724410 15.874865 25.386200 4.724410 20.796124 12.787774 4.724410 14.890613 12.787774 4.724410 11.544156 17.118483 4.724410 24.142580 21.055490 4.724410 11.544156 21.055490 4.724410 24.142580 17.118483 4.724410 14.890613 15.937381 6.299212 20.796124 15.937381 6.299212 15.874865 21.055490 6.299212 11.544156 21.055490 7.874016 19.811872 21.055490 6.299212 19.811872 21.055490 7.874016 24.142580 21.055490 7.874016 15.874865 21.055490 7.874016 24.142580 17.118483 7.874016 20.796124 17.118483 6.299212 20.796124 17.118483 7.874016 14.890613 17.118483 7.874016 11.544156 17.118483 7.874016 14.890613 17.118483 6.299212 19.811872 22.236593 6.299212 15.874865 22.236593 6.299212 11.544156 12.787774 3.149606 12.373842 24.556513 2.271344 12.373842 13.617460 2.271344 11.544156 25.386200 3.149606 12.914161 24.016193 1.190706 12.914161 14.157780 1.190706 24.142580 25.386200 3.149606 23.312895 24.556513 2.271344 22.772575 24.016193 1.190706 13.118958 23.811396 0.000000 22.567778 23.811396 0.000000 22.567778 14.362577 0.000000 22.772575 14.157780 1.190706 23.312895 13.617460 2.271344 24.142580 12.787774 3.149606 11.544156 12.787774 7.874016 14.890613 12.787774 7.874016 13.118958 14.362577 0.000000 20.796124 12.787774 7.874016 15.874865 25.386200 7.874016 19.811872 25.386200 7.874016 24.142580 25.386200 7.874016 24.142580 12.787774 7.874016 22.567778 13.617460 2.271344 22.567778 14.157780 1.190706 22.567778 12.787774 3.149606 11.544156 25.386200 7.874016 58.364983 22.955059 14.566929 57.183880 28.466869 14.566929 57.183880 22.955059 14.566929 58.364983 28.466869 14.566929 52.480614 28.052027 11.765594 52.750774 23.640062 11.225274 52.480614 23.369902 11.765594 52.750774 27.781868 11.225274 58.364983 27.679468 12.204724 58.364983 22.955059 12.204724 58.364983 28.466869 12.204724 52.853172 23.742460 10.629921 52.853172 27.679468 10.629921 52.065773 28.466869 12.204724 52.065773 22.955059 12.204724 53.246872 22.955059 14.566929 52.065773 28.466869 14.566929 52.065773 22.955059 14.566929 53.246872 28.466869 14.566929 53.246872 28.466869 12.992126 57.183880 28.466869 12.992126 57.183880 22.955059 12.992126 53.246872 22.955059 12.992126 57.679981 23.640062 11.225274 57.577583 23.742460 10.629921 57.950142 27.679468 11.765594 57.950142 23.369902 11.765594 57.679981 27.679468 11.225274 57.679981 27.781868 11.225274 57.950142 28.052027 11.765594 57.577583 27.679468 10.629921 52.065773 18.624350 12.204724 57.183880 18.624350 12.992126 58.364983 18.624350 12.204724 53.246872 18.624350 12.992126 53.246872 18.624350 14.566929 52.065773 18.624350 14.566929 57.183880 18.624350 14.566929 58.364983 18.624350 14.566929 52.065773 12.325138 14.566929 52.065773 13.112539 12.204724 52.065773 12.325138 12.204724 52.480614 13.112539 11.765594 52.480614 12.739981 11.765594 52.480614 18.209507 11.765594 57.950142 12.739981 11.765594 58.364983 12.325138 12.204724 52.750774 13.112539 11.225274 52.750774 13.010140 11.225274 52.750774 17.939348 11.225274 53.246872 12.325138 12.992126 53.246872 12.325138 14.566929 57.183880 12.325138 14.566929 58.364983 12.325138 14.566929 57.183880 12.325138 12.992126 57.679981 13.010140 11.225274 52.853172 17.836948 10.629921 52.853172 13.112539 10.629921 57.950142 18.209507 11.765594 57.679981 17.939348 11.225274 57.577583 17.836948 10.629921 57.577583 13.112539 10.629921 58.364983 18.427500 12.204724 58.364983 12.521988 12.992126 58.364983 18.427500 12.992126 58.364983 12.521988 12.204724 57.950142 12.521988 11.765594 57.950142 18.427500 11.765594 57.679981 12.521988 11.225274 57.679981 18.427500 11.225274 57.577583 12.521988 10.629921 57.577583 18.427500 10.629921 77.975174 12.521988 12.992126 77.975174 18.427500 12.992126 48.230030 13.506240 4.724410 52.065773 17.443249 4.724410 52.065773 13.506240 4.724410 48.230030 17.443249 4.724410 46.261528 15.474744 4.724410 58.364983 12.521988 4.724410 58.364983 18.427500 5.905512 58.364983 18.427500 4.724410 58.364983 12.521988 5.905512 57.183880 12.521988 5.905512 57.183880 18.427500 5.905512 53.246872 13.899941 6.692914 57.183880 17.049547 6.692914 57.183880 13.899941 6.692914 53.246872 17.049547 6.692914 53.246872 17.443249 5.905512 53.246872 17.443249 6.692914 53.246872 13.506240 5.905512 53.246872 13.506240 6.692914 52.065773 13.506240 5.905512 45.946568 13.506240 5.511811 43.899323 13.506240 10.629921 53.246872 13.506240 10.629921 52.065773 17.443249 5.905512 53.246872 17.049547 10.629921 57.183880 17.049547 10.629921 53.246872 17.443249 10.629921 57.183880 18.427500 6.692914 77.975174 18.427500 4.724410 57.183880 18.427500 10.629921 53.246872 13.899941 10.629921 57.183880 13.899941 10.629921 77.975174 12.521988 4.724410 57.183880 12.521988 10.629921 43.978062 15.474744 5.511811 45.946568 17.443249 5.511811 42.223251 15.474744 9.898837 43.899323 17.443249 10.629921 58.364983 2.482618 14.566929 57.183880 7.994429 14.566929 57.183880 2.482618 14.566929 58.364983 7.994429 14.566929 52.480614 7.579586 11.765594 52.750774 3.167621 11.225274 52.480614 2.897461 11.765594 52.750774 7.309426 11.225274 58.364983 7.207027 12.204724 58.364983 2.482618 12.204724 58.364983 7.994429 12.204724 52.853172 3.270020 10.629921 52.853172 7.207027 10.629921 52.065773 7.994429 12.204724 52.065773 2.482618 12.204724 53.246872 2.482618 14.566929 52.065773 7.994429 14.566929 52.065773 2.482618 14.566929 53.246872 7.994429 14.566929 53.246872 7.994429 12.992126 57.183880 7.994429 12.992126 57.183880 2.482618 12.992126 53.246872 2.482618 12.992126 57.679981 3.167621 11.225274 57.577583 3.270020 10.629921 57.950142 7.207027 11.765594 57.950142 2.897461 11.765594 57.679981 7.207027 11.225274 57.679981 7.309426 11.225274 57.950142 7.579586 11.765594 57.577583 7.207027 10.629921 57.183880 38.140099 18.897638 57.183880 -4.340217 12.992126 57.183880 38.140099 12.992126 57.183880 -4.340217 18.897638 53.246872 38.140099 12.992126 53.246872 38.140099 18.897638 53.246872 -4.340217 18.897638 53.246872 -4.340217 12.992126 53.640575 17.601486 10.039371 53.640575 17.443249 10.629921 53.246872 17.601486 10.039371 53.640575 22.561357 9.448819 53.246872 23.151909 9.607057 53.246872 22.561357 9.448819 53.640575 23.151909 9.607057 53.640575 18.033800 9.607057 53.246872 18.624350 9.448819 53.246872 18.033800 9.607057 53.640575 18.624350 9.448819 53.640575 23.742460 10.629921 53.246872 23.584223 10.039371 53.640575 23.584223 10.039371 53.246872 23.742460 10.629921 56.790180 13.506240 10.629921 57.183880 13.506240 10.629921 57.183880 7.207027 10.629921 53.640575 7.207027 10.629921 57.183880 3.270020 10.629921 56.790180 7.207027 10.629921 53.640575 13.506240 10.629921 53.246872 7.207027 10.629921 53.246872 3.270020 10.629921 53.246872 27.679468 8.267716 57.183880 27.679468 10.629921 57.183880 27.679468 8.267716 53.246872 27.679468 10.629921 57.183880 22.561357 9.448819 57.183880 23.151909 9.607057 57.183880 23.584223 10.039371 57.183880 23.742460 10.629921 57.183880 24.372381 5.078740 57.183880 8.781831 4.724410 57.183880 22.167658 4.724410 57.183880 6.577106 5.078740 57.183880 26.025925 5.787402 57.183880 4.923563 5.787402 57.183880 27.128288 6.850394 57.183880 18.033800 9.607057 57.183880 17.601486 10.039371 57.183880 18.624350 9.448819 57.183880 17.443249 10.629921 57.183880 3.821201 6.850394 57.183880 12.915689 9.607057 57.183880 13.348002 10.039371 57.183880 12.325138 9.448819 57.183880 3.270020 8.267716 57.183880 8.388130 9.448819 57.183880 7.797579 9.607057 57.183880 7.365265 10.039371 53.246872 3.270020 8.267716 53.246872 22.167658 4.724410 53.246872 8.781831 4.724410 56.790180 7.365265 10.039371 56.790180 17.443249 10.629921 56.790180 17.601486 10.039371 53.640575 12.915689 9.607057 53.246872 12.325138 9.448819 53.640575 12.325138 9.448819 53.246872 12.915689 9.607057 56.790180 7.797579 9.607057 56.790180 12.915689 9.607057 56.790180 8.388130 9.448819 56.790180 12.325138 9.448819 56.790180 13.348002 10.039371 53.246872 27.128288 6.850394 53.246872 7.797579 9.607057 53.640575 7.365265 10.039371 53.640575 7.797579 9.607057 53.246872 7.365265 10.039371 53.246872 8.388130 9.448819 53.640575 8.388130 9.448819 53.246872 24.372381 5.078740 56.790180 18.033800 9.607057 53.246872 26.025925 5.787402 53.246872 13.348002 10.039371 53.640575 13.348002 10.039371 56.790180 23.151909 9.607057 56.790180 22.561357 9.448819 56.790180 23.584223 10.039371 56.790180 18.624350 9.448819 56.790180 23.742460 10.629921 53.246872 4.923563 5.787402 53.246872 3.821201 6.850394 53.246872 6.577106 5.078740 48.916164 17.443249 4.724410 48.916164 13.506240 4.724410 61.514591 18.427500 4.724410 61.514591 12.521988 4.724410 57.183880 9.175531 4.724410 53.246872 21.773956 4.724410 53.246872 9.175531 4.724410 57.183880 21.773956 4.724410 58.364983 12.521988 6.299212 58.364983 18.427500 6.299212 53.246872 13.506240 6.299212 53.246872 9.175531 7.874016 53.246872 17.443249 6.299212 53.246872 17.443249 7.874016 53.246872 21.773956 7.874016 53.246872 13.506240 7.874016 57.183880 21.773956 7.874016 57.183880 18.427500 6.299212 57.183880 18.427500 7.874016 57.183880 12.521988 7.874016 57.183880 9.175531 7.874016 57.183880 12.521988 6.299212 52.065773 17.443249 6.299212 52.065773 13.506240 6.299212 61.514591 9.175531 3.149606 49.745850 10.005218 2.271344 60.684902 10.005218 2.271344 48.916164 9.175531 3.149606 50.286171 10.545537 1.190706 60.144585 10.545537 1.190706 48.916164 21.773956 3.149606 49.745850 20.944271 2.271344 50.286171 20.403952 1.190706 50.490967 10.750335 0.000000 50.490967 20.199154 0.000000 59.939789 20.199154 0.000000 60.144585 20.403952 1.190706 60.684902 20.944271 2.271344 61.514591 21.773956 3.149606 61.514591 9.175531 7.874016 61.514591 12.521988 7.874016 59.939789 10.750335 0.000000 61.514591 18.427500 7.874016 48.916164 13.506240 7.874016 48.916164 17.443249 7.874016 48.916164 21.773956 7.874016 61.514591 21.773956 7.874016 60.684902 20.199154 2.271344 60.144585 20.199154 1.190706 61.514591 20.199154 3.149606 48.916164 9.175531 7.874016 "
							            />
						</IndexedFaceSet>
					</Shape>
				</Group>
			</Transform>
		</Transform>
	</Scene>
</X3D>