<?xml version="1.0" encoding="UTF-8"?>
<!DOCTYPE X3D PUBLIC "ISO//Web3D//DTD X3D 3.0//EN" "http://www.web3d.org/specifications/x3d-3.0.dtd">
<X3D version="3.0" profile="Immersive" xmlns:xsd="http://www.w3.org/2001/XMLSchema-instance" xsd:noNamespaceSchemaLocation="http://www.web3d.org/specifications/x3d-3.0.xsd">
	<head>
		<meta name="filename" content="05-5.x3d" />
		<meta name="created" content="2026-06-21 15:09:37" />
		<meta name="generator" content="Blender 4.5.4 LTS" />
		<meta name="translator" content="Web3D X3D/VRML2 format v2.5.1" />
	</head>
	<Scene>
		<NavigationInfo headlight="true"
		                visibilityLimit="0.0"
		                type='"EXAMINE", "ANY"'
		                avatarSize="0.25, 1.75, 0.75"
		                />
		<Background DEF="WO_World"
		            groundColor="0.051 0.051 0.051"
		            skyColor="0.051 0.051 0.051"
		            />
		<Transform DEF="_05-5_TRANSFORM"
		           translation="0.000000 0.000000 0.000000"
		           scale="1.000000 1.000000 1.000000"
		           rotation="0.000000 0.707107 0.707107 3.141593"
		           >
			<Transform DEF="_05-5_ifs_TRANSFORM"
			           translation="0.000000 0.000000 0.000000"
			           scale="1.000000 1.000000 1.000000"
			           rotation="0.000000 1.000000 0.000000 0.000000"
			           >
				<Group DEF="group_ME_05-5_001">
					<Shape>
						<Appearance>
						</Appearance>
						<IndexedFaceSet solid="false"
						                coordIndex="0 1 2 -1 1 0 3 -1 1 3 4 -1 4 3 5 -1 5 3 6 -1 7 2 1 -1 2 8 9 -1 8 2 7 -1 10 11 12 -1 11 13 14 -1 13 11 15 -1 15 11 10 -1 16 17 18 -1 17 16 19 -1 20 10 21 -1 10 20 15 -1 22 23 24 -1 23 22 25 -1 24 26 27 -1 26 24 23 -1 28 29 30 -1 29 28 31 -1 29 31 26 -1 29 26 23 -1 28 32 33 -1 32 28 34 -1 30 34 28 -1 34 30 35 -1 30 36 37 -1 36 30 29 -1 36 29 23 -1 36 23 25 -1 27 32 34 -1 32 27 38 -1 39 17 40 -1 17 39 22 -1 8 41 9 -1 41 8 18 -1 41 18 22 -1 22 18 17 -1 42 43 44 -1 43 42 45 -1 43 46 44 -1 10 47 21 -1 47 10 12 -1 47 12 48 -1 48 12 46 -1 48 46 43 -1 24 34 35 -1 34 24 27 -1 27 49 38 -1 49 27 26 -1 47 3 0 -1 3 47 48 -1 37 35 30 -1 35 37 41 -1 49 32 38 -1 32 49 33 -1 22 35 41 -1 35 22 24 -1 50 11 14 -1 11 50 51 -1 5 39 40 -1 39 5 6 -1 13 50 14 -1 50 13 52 -1 37 47 41 -1 47 37 20 -1 47 20 21 -1 41 0 9 -1 0 41 47 -1 9 0 2 -1 36 13 37 -1 13 36 52 -1 52 36 42 -1 42 36 45 -1 45 36 25 -1 37 15 20 -1 15 37 13 -1 22 3 25 -1 3 22 39 -1 3 39 6 -1 25 48 45 -1 48 25 3 -1 45 48 43 -1 33 31 28 -1 31 33 49 -1 31 49 26 -1 8 16 18 -1 16 8 53 -1 53 8 1 -1 1 8 7 -1 11 46 12 -1 46 11 51 -1 54 16 53 -1 16 54 19 -1 5 54 4 -1 54 17 19 -1 17 54 40 -1 40 54 5 -1 1 54 53 -1 54 1 4 -1 42 50 52 -1 50 42 51 -1 51 42 46 -1 46 42 44 -1 55 56 57 -1 56 55 58 -1 56 58 59 -1 60 61 62 -1 61 60 63 -1 64 65 66 -1 65 64 67 -1 68 69 70 -1 69 68 71 -1 72 73 74 -1 73 72 75 -1 76 66 77 -1 66 76 64 -1 78 64 79 -1 64 78 67 -1 73 56 59 -1 56 73 80 -1 81 82 83 -1 82 81 84 -1 85 86 87 -1 86 85 88 -1 89 90 81 -1 90 89 91 -1 92 93 94 -1 93 92 95 -1 73 58 74 -1 58 73 59 -1 63 96 61 -1 96 63 97 -1 98 75 72 -1 75 98 99 -1 100 96 101 -1 96 100 62 -1 96 62 61 -1 102 69 103 -1 69 102 70 -1 104 105 106 -1 105 104 107 -1 84 108 109 -1 108 84 110 -1 111 84 109 -1 84 111 82 -1 78 103 67 -1 103 78 102 -1 79 76 112 -1 76 79 64 -1 63 77 97 -1 77 63 76 -1 111 99 98 -1 99 111 109 -1 68 113 71 -1 113 68 95 -1 95 68 93 -1 114 92 94 -1 92 114 115 -1 116 107 104 -1 107 116 117 -1 118 117 116 -1 117 118 119 -1 69 120 103 -1 120 69 121 -1 81 110 84 -1 110 81 90 -1 112 63 60 -1 63 112 76 -1 75 122 123 -1 122 75 99 -1 106 88 85 -1 88 106 105 -1 103 65 67 -1 65 103 120 -1 115 119 118 -1 119 115 114 -1 75 80 73 -1 80 75 123 -1 57 122 124 -1 122 57 123 -1 123 57 80 -1 80 57 56 -1 87 106 85 -1 106 87 104 -1 104 87 125 -1 104 125 116 -1 116 125 126 -1 116 126 118 -1 118 126 127 -1 118 127 128 -1 128 127 108 -1 128 108 110 -1 128 110 90 -1 128 90 129 -1 108 127 124 -1 108 124 122 -1 129 90 91 -1 118 130 115 -1 130 118 128 -1 115 130 66 -1 66 130 77 -1 77 130 97 -1 97 130 101 -1 115 66 92 -1 97 101 96 -1 92 65 95 -1 65 92 66 -1 95 65 120 -1 95 120 121 -1 95 121 113 -1 99 108 122 -1 108 99 109 -1 71 121 69 -1 121 71 113 -1 89 83 131 -1 83 89 81 -1 57 132 55 -1 132 57 124 -1 126 133 127 -1 133 126 134 -1 124 133 132 -1 133 124 127 -1 101 135 100 -1 135 101 130 -1 93 78 94 -1 78 93 102 -1 102 93 70 -1 70 93 68 -1 107 88 105 -1 88 107 86 -1 86 107 117 -1 86 117 136 -1 136 117 119 -1 136 119 134 -1 134 119 114 -1 134 114 135 -1 135 114 79 -1 135 79 112 -1 135 112 60 -1 135 60 100 -1 79 114 94 -1 79 94 78 -1 100 60 62 -1 134 137 133 -1 137 134 135 -1 133 137 111 -1 111 137 82 -1 82 137 83 -1 83 137 138 -1 133 111 132 -1 83 138 131 -1 132 98 55 -1 98 132 111 -1 55 98 72 -1 55 72 74 -1 55 74 58 -1 131 91 89 -1 91 131 129 -1 129 131 138 -1 87 136 125 -1 136 87 86 -1 137 130 128 -1 130 137 135 -1 125 134 126 -1 134 125 136 -1 137 129 138 -1 129 137 128 -1 139 140 141 -1 140 139 142 -1 143 144 145 -1 144 143 146 -1 147 139 148 -1 139 147 142 -1 142 147 149 -1 146 150 144 -1 150 146 151 -1 152 145 153 -1 145 152 143 -1 154 155 156 -1 155 154 157 -1 152 158 149 -1 158 152 155 -1 158 155 157 -1 149 159 142 -1 159 149 158 -1 142 159 140 -1 140 160 141 -1 160 140 159 -1 160 158 161 -1 158 160 159 -1 162 150 163 -1 150 162 144 -1 162 164 165 -1 164 162 166 -1 164 166 167 -1 164 167 168 -1 165 144 162 -1 144 165 145 -1 158 154 161 -1 154 158 157 -1 165 147 148 -1 147 165 164 -1 147 164 168 -1 147 168 149 -1 143 167 146 -1 167 143 168 -1 152 168 143 -1 168 152 149 -1 163 166 162 -1 166 163 169 -1 166 169 167 -1 148 160 153 -1 160 148 139 -1 160 139 141 -1 153 161 156 -1 161 153 160 -1 156 161 154 -1 169 150 151 -1 150 169 163 -1 148 145 165 -1 145 148 153 -1 155 153 156 -1 153 155 152 -1 146 169 151 -1 169 146 167 -1 170 171 172 -1 171 170 173 -1 174 175 176 -1 175 174 177 -1 178 170 179 -1 170 178 173 -1 173 178 180 -1 177 181 175 -1 181 177 182 -1 183 176 184 -1 176 183 174 -1 185 186 187 -1 186 185 188 -1 183 189 180 -1 189 183 186 -1 189 186 188 -1 180 190 173 -1 190 180 189 -1 173 190 171 -1 171 191 172 -1 191 171 190 -1 191 189 192 -1 189 191 190 -1 193 181 194 -1 181 193 175 -1 193 195 196 -1 195 193 197 -1 195 197 198 -1 195 198 199 -1 196 175 193 -1 175 196 176 -1 189 185 192 -1 185 189 188 -1 196 178 179 -1 178 196 195 -1 178 195 199 -1 178 199 180 -1 174 198 177 -1 198 174 199 -1 183 199 174 -1 199 183 180 -1 194 197 193 -1 197 194 200 -1 197 200 198 -1 179 191 184 -1 191 179 170 -1 191 170 172 -1 184 192 187 -1 192 184 191 -1 187 192 185 -1 200 181 182 -1 181 200 194 -1 179 176 196 -1 176 179 184 -1 186 184 187 -1 184 186 183 -1 177 200 182 -1 200 177 198 -1 201 202 203 -1 202 201 204 -1 205 204 206 -1 204 205 202 -1 207 208 209 -1 208 210 211 -1 210 208 212 -1 212 208 207 -1 213 212 207 -1 212 213 214 -1 215 216 217 -1 216 215 218 -1 217 219 220 -1 219 217 216 -1 221 222 223 -1 222 221 224 -1 222 224 219 -1 222 219 216 -1 221 225 226 -1 225 221 227 -1 223 227 221 -1 227 223 228 -1 223 229 230 -1 229 223 222 -1 229 222 216 -1 229 216 218 -1 220 225 227 -1 225 220 231 -1 206 232 205 -1 232 206 215 -1 233 234 235 -1 234 233 236 -1 234 237 235 -1 207 238 213 -1 238 207 209 -1 238 209 239 -1 239 209 237 -1 239 237 234 -1 217 227 228 -1 227 217 220 -1 220 240 231 -1 240 220 219 -1 203 239 201 -1 239 203 238 -1 230 228 223 -1 228 230 232 -1 240 225 231 -1 225 240 226 -1 215 228 232 -1 228 215 217 -1 241 208 211 -1 208 241 242 -1 210 241 211 -1 241 210 243 -1 230 238 232 -1 238 230 214 -1 238 214 213 -1 232 203 205 -1 203 232 238 -1 205 203 202 -1 230 210 214 -1 210 230 229 -1 210 229 243 -1 243 229 233 -1 233 229 236 -1 236 229 218 -1 212 214 210 -1 215 201 218 -1 201 215 206 -1 201 206 204 -1 218 239 236 -1 239 218 201 -1 236 239 234 -1 226 224 221 -1 224 226 240 -1 224 240 219 -1 208 237 209 -1 237 208 242 -1 233 241 243 -1 241 233 242 -1 242 233 237 -1 237 233 235 -1 244 245 246 -1 245 244 247 -1 248 249 250 -1 249 248 251 -1 252 253 254 -1 253 252 255 -1 249 256 250 -1 256 249 257 -1 254 258 259 -1 258 254 253 -1 258 253 260 -1 260 253 261 -1 261 253 262 -1 263 259 258 -1 264 265 266 -1 267 252 268 -1 252 267 269 -1 252 269 255 -1 255 269 265 -1 255 265 264 -1 270 244 271 -1 244 270 247 -1 272 273 274 -1 273 272 275 -1 274 276 277 -1 276 274 273 -1 278 273 275 -1 273 278 279 -1 279 276 273 -1 276 279 280 -1 280 281 276 -1 281 280 282 -1 280 283 282 -1 283 280 284 -1 278 285 279 -1 285 278 286 -1 279 284 280 -1 284 279 285 -1 287 267 268 -1 267 287 288 -1 277 281 289 -1 281 277 276 -1 290 249 251 -1 249 290 257 -1 257 290 265 -1 265 290 266 -1 267 256 269 -1 256 248 250 -1 248 256 288 -1 288 256 267 -1 258 270 271 -1 270 258 260 -1 256 265 269 -1 265 256 257 -1 291 244 246 -1 244 291 271 -1 271 291 258 -1 258 291 263 -1 261 270 260 -1 270 245 247 -1 245 270 292 -1 292 270 261 -1 278 253 286 -1 253 278 293 -1 253 293 262 -1 286 255 294 -1 255 286 253 -1 294 255 264 -1 277 295 274 -1 295 277 296 -1 295 296 284 -1 295 284 285 -1 283 281 282 -1 281 283 289 -1 274 297 272 -1 297 274 295 -1 297 295 285 -1 297 285 286 -1 289 296 277 -1 296 289 283 -1 296 283 284 -1 272 252 275 -1 252 272 287 -1 252 287 268 -1 275 254 298 -1 254 275 252 -1 298 254 259 -1 293 245 292 -1 291 275 298 -1 275 291 246 -1 275 246 278 -1 278 246 245 -1 278 245 293 -1 297 248 272 -1 248 297 251 -1 251 297 290 -1 290 297 294 -1 294 297 286 -1 272 288 287 -1 288 272 248 -1 261 293 292 -1 293 261 262 -1 290 264 266 -1 264 290 294 -1 259 291 298 -1 291 259 263 -1 299 300 301 -1 300 299 302 -1 303 304 305 -1 304 303 306 -1 307 299 308 -1 299 307 302 -1 302 307 309 -1 306 310 304 -1 310 306 311 -1 312 305 313 -1 305 312 303 -1 314 315 316 -1 315 314 317 -1 312 318 309 -1 318 312 315 -1 318 315 317 -1 309 319 302 -1 319 309 318 -1 302 319 300 -1 300 320 301 -1 320 300 319 -1 320 318 321 -1 318 320 319 -1 322 310 323 -1 310 322 304 -1 322 324 325 -1 324 322 326 -1 324 326 327 -1 324 327 328 -1 325 304 322 -1 304 325 305 -1 318 314 321 -1 314 318 317 -1 325 307 308 -1 307 325 324 -1 307 324 328 -1 307 328 309 -1 303 327 306 -1 327 303 328 -1 312 328 303 -1 328 312 309 -1 323 326 322 -1 326 323 329 -1 326 329 327 -1 308 320 313 -1 320 308 299 -1 320 299 301 -1 313 321 316 -1 321 313 320 -1 316 321 314 -1 329 310 311 -1 310 329 323 -1 308 305 325 -1 305 308 313 -1 315 313 316 -1 313 315 312 -1 306 329 311 -1 329 306 327 -1 330 331 332 -1 331 330 333 -1 334 335 336 -1 335 334 337 -1 338 330 339 -1 330 338 333 -1 333 338 340 -1 337 341 335 -1 341 337 342 -1 343 336 344 -1 336 343 334 -1 345 346 347 -1 346 345 348 -1 343 349 340 -1 349 343 346 -1 349 346 348 -1 340 350 333 -1 350 340 349 -1 333 350 331 -1 331 351 332 -1 351 331 350 -1 351 349 352 -1 349 351 350 -1 353 341 354 -1 341 353 335 -1 353 355 356 -1 355 353 357 -1 355 357 358 -1 355 358 359 -1 356 335 353 -1 335 356 336 -1 349 345 352 -1 345 349 348 -1 356 338 339 -1 338 356 355 -1 338 355 359 -1 338 359 340 -1 334 358 337 -1 358 334 359 -1 343 359 334 -1 359 343 340 -1 354 357 353 -1 357 354 360 -1 357 360 358 -1 339 351 344 -1 351 339 330 -1 351 330 332 -1 344 352 347 -1 352 344 351 -1 347 352 345 -1 360 341 342 -1 341 360 354 -1 339 336 356 -1 336 339 344 -1 346 344 347 -1 344 346 343 -1 337 360 342 -1 360 337 358 -1 361 362 363 -1 362 361 364 -1 365 366 367 -1 366 365 368 -1 369 361 370 -1 361 369 364 -1 364 369 371 -1 368 372 366 -1 372 368 373 -1 374 367 375 -1 367 374 365 -1 376 377 378 -1 377 376 379 -1 374 380 371 -1 380 374 377 -1 380 377 379 -1 371 381 364 -1 381 371 380 -1 364 381 362 -1 362 382 363 -1 382 362 381 -1 382 380 383 -1 380 382 381 -1 384 372 385 -1 372 384 366 -1 384 386 387 -1 386 384 388 -1 386 388 389 -1 386 389 390 -1 387 366 384 -1 366 387 367 -1 380 376 383 -1 376 380 379 -1 387 369 370 -1 369 387 386 -1 369 386 390 -1 369 390 371 -1 365 389 368 -1 389 365 390 -1 374 390 365 -1 390 374 371 -1 385 388 384 -1 388 385 391 -1 388 391 389 -1 370 382 375 -1 382 370 361 -1 382 361 363 -1 375 383 378 -1 383 375 382 -1 378 383 376 -1 391 372 373 -1 372 391 385 -1 370 367 387 -1 367 370 375 -1 377 375 378 -1 375 377 374 -1 368 391 373 -1 391 368 389 -1 392 393 394 -1 393 392 395 -1 396 393 397 -1 393 396 398 -1 393 398 394 -1 394 398 399 -1 395 400 401 -1 400 395 402 -1 402 395 392 -1 402 392 403 -1 396 404 405 -1 404 396 397 -1 400 406 401 -1 406 400 407 -1 408 409 410 -1 409 408 392 -1 392 408 403 -1 403 408 411 -1 412 413 414 -1 413 412 394 -1 394 412 415 -1 394 415 392 -1 392 415 409 -1 399 413 394 -1 399 416 413 -1 416 399 398 -1 403 417 402 -1 417 403 411 -1 398 405 416 -1 405 398 396 -1 402 407 400 -1 407 402 417 -1 418 401 406 -1 401 418 395 -1 395 418 393 -1 393 404 397 -1 404 393 419 -1 419 393 418 -1 407 418 406 -1 418 407 420 -1 421 422 423 -1 422 421 424 -1 422 424 425 -1 425 424 426 -1 426 424 427 -1 428 423 422 -1 423 412 414 -1 412 423 428 -1 429 430 431 -1 430 432 433 -1 432 430 434 -1 434 430 429 -1 435 409 415 -1 409 435 436 -1 437 429 438 -1 429 437 434 -1 411 439 417 -1 439 411 440 -1 417 420 407 -1 420 417 439 -1 441 442 443 -1 442 441 444 -1 442 444 420 -1 442 420 439 -1 441 404 419 -1 404 441 405 -1 443 405 441 -1 405 443 416 -1 443 445 446 -1 445 443 442 -1 445 442 439 -1 445 439 440 -1 447 448 449 -1 448 447 450 -1 448 451 449 -1 429 452 438 -1 452 429 431 -1 452 431 453 -1 453 431 451 -1 453 451 448 -1 452 424 421 -1 424 452 453 -1 446 416 443 -1 416 446 413 -1 454 430 433 -1 430 454 455 -1 426 408 410 -1 408 426 427 -1 432 454 433 -1 454 432 456 -1 446 452 413 -1 452 446 437 -1 452 437 438 -1 413 421 414 -1 421 413 452 -1 414 421 423 -1 446 432 437 -1 432 446 445 -1 432 445 456 -1 456 445 447 -1 447 445 450 -1 450 445 440 -1 434 437 432 -1 411 424 440 -1 424 411 408 -1 424 408 427 -1 440 453 450 -1 453 440 424 -1 450 453 448 -1 419 444 441 -1 444 419 418 -1 444 418 420 -1 412 435 415 -1 435 412 457 -1 457 412 422 -1 422 412 428 -1 430 451 431 -1 451 430 455 -1 458 435 457 -1 435 458 436 -1 426 458 425 -1 458 409 436 -1 409 458 410 -1 410 458 426 -1 422 458 457 -1 458 422 425 -1 447 454 456 -1 454 447 455 -1 455 447 451 -1 451 447 449 -1 459 460 461 -1 460 459 462 -1 463 462 464 -1 462 463 460 -1 465 466 467 -1 466 468 469 -1 468 466 470 -1 470 466 465 -1 471 470 465 -1 470 471 472 -1 473 474 475 -1 474 473 476 -1 475 477 478 -1 477 475 474 -1 479 480 481 -1 480 479 482 -1 480 482 477 -1 480 477 474 -1 479 483 484 -1 483 479 485 -1 481 485 479 -1 485 481 486 -1 481 487 488 -1 487 481 480 -1 487 480 474 -1 487 474 476 -1 478 483 485 -1 483 478 489 -1 464 490 463 -1 490 464 473 -1 491 492 493 -1 492 491 494 -1 492 495 493 -1 465 496 471 -1 496 465 467 -1 496 467 497 -1 497 467 495 -1 497 495 492 -1 475 485 486 -1 485 475 478 -1 478 498 489 -1 498 478 477 -1 461 497 459 -1 497 461 496 -1 488 486 481 -1 486 488 490 -1 498 483 489 -1 483 498 484 -1 473 486 490 -1 486 473 475 -1 499 466 469 -1 466 499 500 -1 468 499 469 -1 499 468 501 -1 488 496 490 -1 496 488 472 -1 496 472 471 -1 490 461 463 -1 461 490 496 -1 463 461 460 -1 488 468 472 -1 468 488 487 -1 468 487 501 -1 501 487 491 -1 491 487 494 -1 494 487 476 -1 470 472 468 -1 473 459 476 -1 459 473 464 -1 459 464 462 -1 476 497 494 -1 497 476 459 -1 494 497 492 -1 484 482 479 -1 482 484 498 -1 482 498 477 -1 466 495 467 -1 495 466 500 -1 491 499 501 -1 499 491 500 -1 500 491 495 -1 495 491 493 -1 502 503 504 -1 503 502 505 -1 506 507 508 -1 507 506 509 -1 510 502 511 -1 502 510 505 -1 505 510 512 -1 509 513 507 -1 513 509 514 -1 515 508 516 -1 508 515 506 -1 517 518 519 -1 518 517 520 -1 515 521 512 -1 521 515 518 -1 521 518 520 -1 512 522 505 -1 522 512 521 -1 505 522 503 -1 503 523 504 -1 523 503 522 -1 523 521 524 -1 521 523 522 -1 525 513 526 -1 513 525 507 -1 525 527 528 -1 527 525 529 -1 527 529 530 -1 527 530 531 -1 528 507 525 -1 507 528 508 -1 521 517 524 -1 517 521 520 -1 528 510 511 -1 510 528 527 -1 510 527 531 -1 510 531 512 -1 506 530 509 -1 530 506 531 -1 515 531 506 -1 531 515 512 -1 526 529 525 -1 529 526 532 -1 529 532 530 -1 511 523 516 -1 523 511 502 -1 523 502 504 -1 516 524 519 -1 524 516 523 -1 519 524 517 -1 532 513 514 -1 513 532 526 -1 511 508 528 -1 508 511 516 -1 518 516 519 -1 516 518 515 -1 509 532 514 -1 532 509 530 -1 533 534 535 -1 534 533 536 -1 537 538 539 -1 538 537 540 -1 541 533 542 -1 533 541 536 -1 536 541 543 -1 540 544 538 -1 544 540 545 -1 546 539 547 -1 539 546 537 -1 548 549 550 -1 549 548 551 -1 546 552 543 -1 552 546 549 -1 552 549 551 -1 543 553 536 -1 553 543 552 -1 536 553 534 -1 534 554 535 -1 554 534 553 -1 554 552 555 -1 552 554 553 -1 556 544 557 -1 544 556 538 -1 556 558 559 -1 558 556 560 -1 558 560 561 -1 558 561 562 -1 559 538 556 -1 538 559 539 -1 552 548 555 -1 548 552 551 -1 559 541 542 -1 541 559 558 -1 541 558 562 -1 541 562 543 -1 537 561 540 -1 561 537 562 -1 546 562 537 -1 562 546 543 -1 557 560 556 -1 560 557 563 -1 560 563 561 -1 542 554 547 -1 554 542 533 -1 554 533 535 -1 547 555 550 -1 555 547 554 -1 550 555 548 -1 563 544 545 -1 544 563 557 -1 542 539 559 -1 539 542 547 -1 549 547 550 -1 547 549 546 -1 540 563 545 -1 563 540 561 -1 564 565 566 -1 566 567 564 -1 567 568 569 -1 569 564 567 -1 564 569 570 -1 570 571 564 -1 570 572 571 -1 573 574 575 -1 575 565 573 -1 565 576 573 -1 576 577 573 -1 566 565 575 -1 575 574 569 -1 569 568 575 -1 568 567 566 -1 566 575 568 -1 573 570 569 -1 569 574 573 -1 571 576 565 -1 565 564 571 -1 572 577 576 -1 576 571 572 -1 570 573 577 -1 577 572 570 -1 578 579 580 -1 579 578 581 -1 582 583 584 -1 583 582 585 -1 586 587 588 -1 587 586 589 -1 590 591 592 -1 591 590 593 -1 586 582 589 -1 582 586 585 -1 585 586 578 -1 585 578 592 -1 592 578 580 -1 592 580 590 -1 592 583 585 -1 583 592 591 -1 589 584 587 -1 584 589 582 -1 586 581 578 -1 581 586 588 -1 594 595 596 -1 595 594 597 -1 598 599 600 -1 599 598 601 -1 599 601 602 -1 602 601 595 -1 602 595 603 -1 603 595 597 -1 600 604 605 -1 604 600 599 -1 606 607 608 -1 607 606 609 -1 607 610 608 -1 610 607 611 -1 611 607 612 -1 612 607 613 -1 614 615 616 -1 615 614 617 -1 617 614 618 -1 617 618 619 -1 619 618 620 -1 619 620 621 -1 621 620 622 -1 621 622 623 -1 621 623 624 -1 622 620 625 -1 625 620 608 -1 625 608 610 -1 624 623 626 -1 619 627 628 -1 627 619 621 -1 628 627 629 -1 629 627 630 -1 630 627 594 -1 628 629 631 -1 628 631 632 -1 630 594 596 -1 632 633 600 -1 633 632 631 -1 600 633 634 -1 600 634 635 -1 600 635 598 -1 605 632 600 -1 632 605 636 -1 637 615 638 -1 615 637 616 -1 639 598 635 -1 598 639 601 -1 623 640 626 -1 640 623 641 -1 627 642 643 -1 642 627 621 -1 644 645 646 -1 645 644 647 -1 648 635 634 -1 635 648 639 -1 649 650 651 -1 650 649 648 -1 648 649 652 -1 648 652 639 -1 639 652 595 -1 639 595 601 -1 653 608 620 -1 608 653 606 -1 654 655 656 -1 655 654 657 -1 646 658 659 -1 658 646 645 -1 660 616 637 -1 616 660 614 -1 622 641 623 -1 641 622 661 -1 595 630 596 -1 630 595 652 -1 633 648 634 -1 648 633 650 -1 627 597 594 -1 597 627 643 -1 662 621 624 -1 621 662 642 -1 663 614 660 -1 614 663 618 -1 631 650 633 -1 650 631 651 -1 664 644 665 -1 644 664 647 -1 629 651 631 -1 651 629 649 -1 610 666 667 -1 666 610 611 -1 612 666 611 -1 666 612 668 -1 666 669 667 -1 669 666 661 -1 661 666 668 -1 661 668 641 -1 641 668 670 -1 641 670 640 -1 622 669 661 -1 669 622 625 -1 656 646 659 -1 646 656 644 -1 644 656 655 -1 644 655 665 -1 665 655 599 -1 665 599 602 -1 603 665 602 -1 665 603 664 -1 659 654 656 -1 654 659 658 -1 625 667 669 -1 667 625 610 -1 613 668 612 -1 668 613 670 -1 653 618 663 -1 618 653 620 -1 657 599 655 -1 599 657 604 -1 652 629 630 -1 629 652 649 -1 671 628 672 -1 628 671 619 -1 605 658 636 -1 658 605 654 -1 654 605 657 -1 657 605 604 -1 673 637 638 -1 637 673 660 -1 660 673 671 -1 660 671 663 -1 663 671 672 -1 663 672 643 -1 643 672 647 -1 643 647 664 -1 643 664 597 -1 647 672 645 -1 645 672 636 -1 645 636 658 -1 597 664 603 -1 663 642 653 -1 642 663 643 -1 653 642 588 -1 588 642 581 -1 581 642 662 -1 653 588 587 -1 653 587 606 -1 581 662 579 -1 606 584 609 -1 584 606 587 -1 609 584 583 -1 609 583 591 -1 609 591 593 -1 632 672 628 -1 672 632 636 -1 624 579 662 -1 579 624 580 -1 580 624 626 -1 580 626 640 -1 640 590 580 -1 590 640 670 -1 590 609 593 -1 609 590 670 -1 609 670 613 -1 609 613 607 -1 673 619 671 -1 619 673 617 -1 638 617 673 -1 617 638 615 -1 674 675 676 -1 675 674 677 -1 677 678 679 -1 678 677 674 -1 674 680 678 -1 680 674 681 -1 680 681 682 -1 683 684 685 -1 684 683 676 -1 676 683 686 -1 686 683 687 -1 675 684 676 -1 684 678 685 -1 678 684 679 -1 679 675 677 -1 675 679 684 -1 683 678 680 -1 678 683 685 -1 681 676 686 -1 676 681 674 -1 682 686 687 -1 686 682 681 -1 680 687 683 -1 687 680 682 -1 522 521 688 -1 688 689 522 -1 689 690 691 -1 691 522 689 -1 692 693 320 -1 320 694 692 -1 695 696 691 -1 691 690 695 -1 695 697 698 -1 698 696 695 -1 699 700 698 -1 698 697 699 -1 699 701 702 -1 702 700 699 -1 703 704 702 -1 702 701 703 -1 703 705 706 -1 706 704 703 -1 692 694 706 -1 706 705 692 -1 521 522 691 -1 691 696 521 -1 696 700 521 -1 706 694 320 -1 320 321 706 -1 321 704 706 -1 321 702 704 -1 321 700 702 -1 321 521 700 -1 700 696 698 -1 521 321 707 -1 707 688 521 -1 707 321 320 -1 320 693 707 -1 699 697 695 -1 707 693 692 -1 692 705 707 -1 705 703 707 -1 703 701 707 -1 701 699 707 -1 699 688 707 -1 690 689 688 -1 688 695 690 -1 688 699 695 -1 708 709 710 -1 709 708 711 -1 709 711 712 -1 713 714 715 -1 714 713 716 -1 717 718 719 -1 718 717 720 -1 721 722 723 -1 722 721 724 -1 725 726 727 -1 726 725 728 -1 729 719 730 -1 719 729 717 -1 731 717 732 -1 717 731 720 -1 726 709 712 -1 709 726 733 -1 734 735 736 -1 735 734 737 -1 738 739 740 -1 739 738 741 -1 742 743 734 -1 743 742 744 -1 745 746 747 -1 746 745 748 -1 726 711 727 -1 711 726 712 -1 716 749 714 -1 749 716 750 -1 751 728 725 -1 728 751 752 -1 753 749 754 -1 749 753 715 -1 749 715 714 -1 755 722 756 -1 722 755 723 -1 757 758 759 -1 758 757 760 -1 737 761 762 -1 761 737 763 -1 764 737 762 -1 737 764 735 -1 731 756 720 -1 756 731 755 -1 732 729 765 -1 729 732 717 -1 716 730 750 -1 730 716 729 -1 764 752 751 -1 752 764 762 -1 721 766 724 -1 766 721 748 -1 748 721 746 -1 767 745 747 -1 745 767 768 -1 769 760 757 -1 760 769 770 -1 771 770 769 -1 770 771 772 -1 722 773 756 -1 773 722 774 -1 734 763 737 -1 763 734 743 -1 765 716 713 -1 716 765 729 -1 728 775 776 -1 775 728 752 -1 759 741 738 -1 741 759 758 -1 756 718 720 -1 718 756 773 -1 768 772 771 -1 772 768 767 -1 728 733 726 -1 733 728 776 -1 710 775 777 -1 775 710 776 -1 776 710 733 -1 733 710 709 -1 740 759 738 -1 759 740 757 -1 757 740 778 -1 757 778 769 -1 769 778 779 -1 769 779 771 -1 771 779 780 -1 771 780 781 -1 781 780 761 -1 781 761 763 -1 781 763 743 -1 781 743 782 -1 761 780 777 -1 761 777 775 -1 782 743 744 -1 771 783 768 -1 783 771 781 -1 768 783 719 -1 719 783 730 -1 730 783 750 -1 750 783 754 -1 768 719 745 -1 750 754 749 -1 745 718 748 -1 718 745 719 -1 748 718 773 -1 748 773 774 -1 748 774 766 -1 752 761 775 -1 761 752 762 -1 724 774 722 -1 774 724 766 -1 742 736 784 -1 736 742 734 -1 710 785 708 -1 785 710 777 -1 779 786 780 -1 786 779 787 -1 777 786 785 -1 786 777 780 -1 754 788 753 -1 788 754 783 -1 746 731 747 -1 731 746 755 -1 755 746 723 -1 723 746 721 -1 760 741 758 -1 741 760 739 -1 739 760 770 -1 739 770 789 -1 789 770 772 -1 789 772 787 -1 787 772 767 -1 787 767 788 -1 788 767 732 -1 788 732 765 -1 788 765 713 -1 788 713 753 -1 732 767 747 -1 732 747 731 -1 753 713 715 -1 787 790 786 -1 790 787 788 -1 786 790 764 -1 764 790 735 -1 735 790 736 -1 736 790 791 -1 786 764 785 -1 736 791 784 -1 785 751 708 -1 751 785 764 -1 708 751 725 -1 708 725 727 -1 708 727 711 -1 784 744 742 -1 744 784 782 -1 782 784 791 -1 740 789 778 -1 789 740 739 -1 790 783 781 -1 783 790 788 -1 778 787 779 -1 787 778 789 -1 790 782 791 -1 782 790 781 -1 16 792 19 -1 792 16 793 -1 794 795 796 -1 795 794 797 -1 501 796 468 -1 796 501 794 -1 798 799 800 -1 799 798 801 -1 802 803 804 -1 803 802 805 -1 806 807 808 -1 807 806 809 -1 810 807 809 -1 807 810 811 -1 806 812 809 -1 812 806 813 -1 91 128 129 -1 101 4 96 -1 4 101 130 -1 4 130 1 -1 1 130 128 -1 1 128 91 -1 798 804 803 -1 804 798 800 -1 12 51 11 -1 51 12 46 -1 812 14 814 -1 14 812 11 -1 11 812 813 -1 11 131 12 -1 131 11 813 -1 91 53 1 -1 53 91 815 -1 815 91 816 -1 816 91 817 -1 816 817 818 -1 816 818 819 -1 819 818 820 -1 820 818 797 -1 820 797 794 -1 820 794 501 -1 53 793 16 -1 793 53 815 -1 14 51 50 -1 51 14 11 -1 818 821 822 -1 821 818 817 -1 812 810 809 -1 810 812 814 -1 819 823 824 -1 823 819 820 -1 792 54 19 -1 54 792 802 -1 54 802 4 -1 4 802 96 -1 96 802 804 -1 96 804 821 -1 799 804 800 -1 804 799 821 -1 821 799 822 -1 822 799 795 -1 795 799 796 -1 796 799 468 -1 138 128 137 -1 128 138 129 -1 53 19 54 -1 19 53 16 -1 101 138 100 -1 138 101 129 -1 129 101 96 -1 129 96 821 -1 129 821 91 -1 91 821 817 -1 62 813 808 -1 813 62 131 -1 131 62 100 -1 131 100 138 -1 813 806 808 -1 819 825 816 -1 825 819 824 -1 814 811 810 -1 811 814 14 -1 811 14 50 -1 128 135 137 -1 135 128 130 -1 797 822 795 -1 822 797 818 -1 46 135 62 -1 135 46 12 -1 135 12 137 -1 137 12 138 -1 138 12 131 -1 100 62 135 -1 815 825 826 -1 825 815 816 -1 793 802 792 -1 802 793 805 -1 805 793 826 -1 826 793 815 -1 62 51 46 -1 50 807 811 -1 807 50 51 -1 807 51 808 -1 808 51 62 -1 827 828 829 -1 828 827 830 -1 831 828 832 -1 828 831 829 -1 827 833 830 -1 833 827 834 -1 823 828 824 -1 828 823 832 -1 825 833 826 -1 833 825 830 -1 830 825 824 -1 830 824 828 -1 835 836 837 -1 836 835 838 -1 839 836 838 -1 836 839 840 -1 839 841 840 -1 841 839 842 -1 835 798 838 -1 798 835 801 -1 839 805 842 -1 805 839 803 -1 803 839 838 -1 803 838 798 -1 842 843 841 -1 843 842 844 -1 844 842 833 -1 844 833 834 -1 833 805 826 -1 805 833 842 -1 436 843 844 -1 843 436 435 -1 844 458 436 -1 458 844 834 -1 458 834 425 -1 425 834 784 -1 784 834 827 -1 784 827 845 -1 831 827 829 -1 827 831 845 -1 845 831 846 -1 846 831 847 -1 847 831 848 -1 848 831 210 -1 848 243 849 -1 243 848 210 -1 850 848 849 -1 848 850 847 -1 846 850 851 -1 850 846 847 -1 845 851 852 -1 851 845 846 -1 455 431 451 -1 431 455 430 -1 455 433 430 -1 433 455 454 -1 425 457 458 -1 457 425 422 -1 436 457 435 -1 457 436 458 -1 422 788 715 -1 788 422 425 -1 788 425 790 -1 790 425 791 -1 791 425 784 -1 753 715 788 -1 744 781 782 -1 754 431 749 -1 431 754 783 -1 431 783 451 -1 451 783 781 -1 451 781 744 -1 781 788 790 -1 788 781 783 -1 853 433 454 -1 433 853 854 -1 854 853 855 -1 715 457 422 -1 457 715 841 -1 841 715 840 -1 840 715 852 -1 840 852 851 -1 840 851 836 -1 836 851 837 -1 837 851 850 -1 837 850 849 -1 837 849 243 -1 457 843 435 -1 843 457 841 -1 791 781 790 -1 781 791 782 -1 744 455 451 -1 454 856 853 -1 856 454 455 -1 856 455 857 -1 857 455 744 -1 856 855 853 -1 855 856 858 -1 855 859 854 -1 859 855 858 -1 857 858 856 -1 858 857 860 -1 858 861 859 -1 861 858 860 -1 859 433 854 -1 433 859 430 -1 430 859 861 -1 430 749 431 -1 749 430 861 -1 860 857 861 -1 861 754 749 -1 754 861 782 -1 782 861 744 -1 744 861 857 -1 753 791 715 -1 791 753 782 -1 782 753 754 -1 715 845 852 -1 845 715 784 -1 784 715 791 -1 243 835 837 -1 835 243 832 -1 832 243 831 -1 831 243 210 -1 835 823 801 -1 823 835 832 -1 799 501 468 -1 501 799 820 -1 820 799 801 -1 820 801 823 -1 862 700 863 -1 700 862 699 -1 697 700 699 -1 700 697 698 -1 864 696 865 -1 696 864 698 -1 698 864 704 -1 704 864 706 -1 698 863 700 -1 863 698 704 -1 705 704 706 -1 704 705 703 -1 704 862 863 -1 862 704 703 -1 697 696 698 -1 696 697 695 -1 866 696 695 -1 696 866 865 -1 864 867 868 -1 867 864 869 -1 868 867 870 -1 865 869 864 -1 869 865 866 -1 869 866 871 -1 872 873 874 -1 873 872 875 -1 873 875 876 -1 874 877 878 -1 877 874 873 -1 878 877 879 -1 877 867 869 -1 867 877 873 -1 880 881 882 -1 881 880 883 -1 881 874 884 -1 874 881 872 -1 872 881 883 -1 872 883 885 -1 873 870 867 -1 870 873 876 -1 864 705 706 -1 705 864 868 -1 879 869 871 -1 869 879 877 -1 886 874 878 -1 874 886 884 -1 887 885 883 -1 885 887 888 -1 880 887 883 -1 887 880 889 -1 890 881 891 -1 881 890 882 -1 886 881 884 -1 881 886 891 -1 695 871 866 -1 871 695 697 -1 871 697 879 -1 892 890 891 -1 878 891 886 -1 891 878 879 -1 891 879 697 -1 862 697 699 -1 697 862 703 -1 697 703 891 -1 891 703 892 -1 892 703 887 -1 705 870 703 -1 870 705 868 -1 703 888 887 -1 888 703 876 -1 876 703 870 -1 888 876 875 -1 889 892 887 -1 890 880 882 -1 880 890 889 -1 889 890 892 -1 885 875 872 -1 875 885 888 -1 893 894 895 -1 894 893 352 -1 896 897 898 -1 897 896 899 -1 896 891 899 -1 891 896 881 -1 900 881 901 -1 881 900 891 -1 883 902 903 -1 902 883 887 -1 883 888 887 -1 888 883 885 -1 895 885 893 -1 885 895 888 -1 902 894 904 -1 894 902 888 -1 888 902 887 -1 894 888 895 -1 905 906 907 -1 906 905 908 -1 907 352 351 -1 352 907 904 -1 904 907 909 -1 909 906 910 -1 906 909 907 -1 894 352 904 -1 910 908 911 -1 908 910 906 -1 910 912 909 -1 912 910 911 -1 903 902 901 -1 900 912 913 -1 912 900 909 -1 909 900 902 -1 902 900 901 -1 909 902 904 -1 352 159 351 -1 159 352 903 -1 903 352 885 -1 903 885 883 -1 885 352 893 -1 881 896 901 -1 159 901 158 -1 901 159 903 -1 158 901 896 -1 158 896 898 -1 898 914 158 -1 914 898 897 -1 914 159 158 -1 159 914 913 -1 908 912 911 -1 912 908 905 -1 913 905 159 -1 905 913 912 -1 914 899 913 -1 899 914 897 -1 913 891 900 -1 891 913 899 -1 905 351 159 -1 351 905 907 -1 915 916 917 -1 916 915 918 -1 919 920 921 -1 920 919 922 -1 923 921 924 -1 921 923 919 -1 917 920 922 -1 920 917 916 -1 925 926 927 -1 926 925 928 -1 929 925 930 -1 925 929 928 -1 931 932 933 -1 932 931 934 -1 935 929 930 -1 929 935 936 -1 257 250 256 -1 250 257 249 -1 927 931 933 -1 931 927 926 -1 920 924 921 -1 924 920 937 -1 937 920 916 -1 937 916 936 -1 936 916 918 -1 936 918 929 -1 929 918 928 -1 928 918 938 -1 928 938 926 -1 926 938 939 -1 926 939 931 -1 931 939 940 -1 931 940 934 -1 934 940 941 -1 942 924 937 -1 924 942 923 -1 942 936 935 -1 936 942 937 -1 943 944 945 -1 944 943 678 -1 249 946 947 -1 946 249 257 -1 946 257 948 -1 948 257 949 -1 950 626 951 -1 626 950 952 -1 952 950 953 -1 953 950 954 -1 954 950 955 -1 955 950 956 -1 955 956 957 -1 626 257 265 -1 257 626 958 -1 257 958 959 -1 257 959 960 -1 257 960 949 -1 949 960 961 -1 958 626 952 -1 961 962 963 -1 962 961 960 -1 963 962 964 -1 963 964 965 -1 963 965 966 -1 594 944 678 -1 944 594 596 -1 949 967 948 -1 967 949 968 -1 969 970 971 -1 970 969 685 -1 972 973 974 -1 973 972 574 -1 947 250 249 -1 250 947 975 -1 976 952 977 -1 952 976 958 -1 978 962 960 -1 962 978 979 -1 980 960 959 -1 960 980 978 -1 955 981 982 -1 981 955 957 -1 980 958 976 -1 958 980 959 -1 950 569 983 -1 569 950 951 -1 984 955 982 -1 955 984 954 -1 939 985 940 -1 985 939 986 -1 980 979 978 -1 979 980 987 -1 987 980 976 -1 987 976 988 -1 988 976 977 -1 988 977 989 -1 989 977 990 -1 989 990 991 -1 991 990 984 -1 991 984 986 -1 986 984 982 -1 986 982 985 -1 985 982 981 -1 985 981 992 -1 979 964 962 -1 964 979 987 -1 594 643 627 -1 643 594 993 -1 993 594 678 -1 943 685 678 -1 685 943 970 -1 678 994 993 -1 994 678 685 -1 948 995 946 -1 995 948 967 -1 952 990 977 -1 990 952 953 -1 594 627 596 -1 626 621 624 -1 269 627 265 -1 627 269 596 -1 265 627 621 -1 265 621 626 -1 989 965 988 -1 965 989 966 -1 247 996 997 -1 996 247 244 -1 932 956 998 -1 956 932 981 -1 956 981 957 -1 981 932 934 -1 934 992 981 -1 992 934 941 -1 990 954 984 -1 954 990 953 -1 949 999 968 -1 999 949 961 -1 946 975 947 -1 975 946 995 -1 988 964 987 -1 964 988 965 -1 961 1000 999 -1 1000 961 963 -1 1000 919 999 -1 919 1000 922 -1 922 1000 917 -1 917 1000 915 -1 995 250 975 -1 250 995 256 -1 256 995 967 -1 256 967 968 -1 256 968 269 -1 269 968 923 -1 269 923 942 -1 269 942 935 -1 269 935 596 -1 923 968 999 -1 923 999 919 -1 596 935 930 -1 596 945 944 -1 945 596 930 -1 945 930 925 -1 945 925 927 -1 945 927 933 -1 945 933 998 -1 998 933 932 -1 574 1001 1002 -1 1001 574 972 -1 989 963 966 -1 963 989 918 -1 963 918 915 -1 963 915 1000 -1 626 569 951 -1 569 626 624 -1 257 269 265 -1 269 257 256 -1 938 986 939 -1 986 938 991 -1 973 569 1003 -1 569 973 574 -1 569 574 983 -1 983 574 1002 -1 1003 621 642 -1 621 1003 624 -1 624 1003 569 -1 989 938 918 -1 938 989 991 -1 1001 972 974 -1 985 941 940 -1 941 985 992 -1 1004 271 258 -1 271 1004 1005 -1 271 996 244 -1 996 271 1006 -1 1006 271 1007 -1 1007 271 1008 -1 1008 271 1009 -1 1009 271 1005 -1 1009 1010 1008 -1 994 969 1011 -1 969 994 685 -1 971 1011 969 -1 1012 1013 1014 -1 1015 247 997 -1 247 1015 270 -1 270 1015 1016 -1 270 1016 1013 -1 270 1013 1012 -1 270 1012 1017 -1 270 1017 1018 -1 270 1018 260 -1 260 643 258 -1 643 260 642 -1 642 260 1018 -1 1018 1003 642 -1 258 993 1004 -1 993 258 643 -1 1016 1008 1013 -1 1008 1016 1007 -1 1005 1012 1009 -1 1012 1005 1017 -1 1015 1007 1016 -1 1007 1015 1006 -1 1013 1010 1014 -1 1010 1013 1008 -1 1014 1009 1012 -1 1009 1014 1010 -1 997 1006 1015 -1 1006 997 996 -1 1005 1018 1017 -1 1018 1005 1003 -1 1004 1003 1005 -1 1003 1004 993 -1 993 973 1003 -1 973 993 994 -1 971 994 1011 -1 994 971 1002 -1 994 1002 1001 -1 1002 971 970 -1 1002 970 983 -1 983 970 943 -1 983 956 950 -1 956 983 943 -1 956 943 945 -1 956 945 998 -1 973 1001 974 -1 1001 973 994 -1 1019 1020 1021 -1 1020 1019 1022 -1 1022 1023 1020 -1 1023 1022 1024 -1 1025 1026 1027 -1 1026 1025 1028 -1 1026 1029 1030 -1 1029 1026 1028 -1 1031 1025 1027 -1 1025 1031 1032 -1 1025 1029 1028 -1 1029 1025 1032 -1 1029 1032 1033 -1 1029 1033 1034 -1 1034 392 409 -1 392 1034 1033 -1 392 1032 1031 -1 1032 392 1033 -1 1034 1035 1029 -1 1035 1034 1036 -1 1037 1019 1038 -1 1019 1037 1022 -1 1022 1037 1039 -1 1022 1039 1024 -1 1024 1039 1030 -1 1024 1030 1029 -1 1024 1029 1040 -1 1040 1029 1035 -1 575 983 1002 -1 983 575 568 -1 1041 1038 1042 -1 1038 1041 1037 -1 971 684 1043 -1 684 971 970 -1 1002 1044 575 -1 1044 1002 1001 -1 1045 1046 1047 -1 1046 1045 1048 -1 1048 1045 1049 -1 1048 1049 1050 -1 1048 1050 1051 -1 1048 1051 1052 -1 971 1047 1046 -1 1047 971 1043 -1 1047 1043 1053 -1 1053 1043 1054 -1 1054 1043 1026 -1 1026 1043 392 -1 392 1043 409 -1 1054 1026 1055 -1 1026 392 1027 -1 1027 392 1031 -1 1026 1056 1055 -1 1056 1026 1030 -1 1056 1030 1039 -1 943 684 970 -1 684 943 679 -1 1057 983 568 -1 983 1057 950 -1 679 945 1058 -1 945 679 943 -1 1057 956 950 -1 1043 1034 409 -1 1034 1043 1036 -1 1036 1043 415 -1 415 1043 575 -1 415 575 1044 -1 575 1043 684 -1 575 684 568 -1 568 684 679 -1 998 679 1058 -1 568 956 1057 -1 956 568 679 -1 956 679 998 -1 1056 1037 1041 -1 1037 1056 1039 -1 1038 1021 1042 -1 1021 1038 1019 -1 943 998 945 -1 998 943 956 -1 1001 1046 1048 -1 1046 1001 1002 -1 1046 1002 971 -1 1023 1059 1060 -1 1059 1023 1040 -1 1040 1023 1024 -1 1052 1001 1048 -1 1001 1052 1044 -1 1044 1052 1061 -1 1044 1061 1062 -1 1044 1062 1059 -1 1044 1059 394 -1 1044 394 415 -1 1059 1062 1060 -1 394 1059 1063 -1 394 1063 1064 -1 1065 1066 1067 -1 1066 1065 1068 -1 1053 1069 1070 -1 1069 1053 1054 -1 1069 1071 1072 -1 1071 1069 1073 -1 1073 1042 1071 -1 1042 1073 1041 -1 1042 1074 1071 -1 1074 1042 1021 -1 1061 1054 1053 -1 1054 1061 1062 -1 1071 1065 1072 -1 1065 1071 1074 -1 1020 1060 1075 -1 1060 1020 1023 -1 1049 1067 1050 -1 1067 1049 1076 -1 1051 1061 1052 -1 1061 1051 1066 -1 1068 1061 1066 -1 1061 1068 1062 -1 1021 1075 1074 -1 1075 1021 1020 -1 1045 1076 1049 -1 1076 1045 1070 -1 1063 1077 1078 -1 1077 1063 1059 -1 1050 1066 1051 -1 1066 1050 1067 -1 1047 1070 1045 -1 1070 1047 1053 -1 1062 1055 1054 -1 1055 1062 1060 -1 1058 945 998 -1 1075 1062 1068 -1 1062 1075 1060 -1 1079 1063 1078 -1 1063 1079 1064 -1 1074 1068 1065 -1 1068 1074 1075 -1 1070 1072 1076 -1 1072 1070 1069 -1 1054 1073 1069 -1 1073 1054 1055 -1 1028 1078 1025 -1 1078 1028 1077 -1 1035 1078 1077 -1 1078 1035 1079 -1 1079 1035 1080 -1 1080 1035 1036 -1 1080 1064 1079 -1 1064 1080 394 -1 1033 1036 1034 -1 1036 1033 1080 -1 1079 1033 1032 -1 1033 1079 1080 -1 1077 1040 1035 -1 1040 1077 1059 -1 1072 1067 1076 -1 1067 1072 1065 -1 1078 1032 1025 -1 1032 1078 1079 -1 415 1080 1036 -1 1080 415 394 -1 1060 1056 1055 -1 1056 1060 1023 -1 1055 1041 1073 -1 1041 1055 1056 -1 1081 1082 1083 -1 1082 1081 1084 -1 1082 1085 1086 -1 1085 1082 1084 -1 1085 1087 1086 -1 1087 1085 1088 -1 1088 1084 1081 -1 1084 1088 1085 -1 1081 1087 1088 -1 1087 1081 1083 -1 1082 1087 1083 -1 1087 1082 1086 -1 1089 1090 1091 -1 1090 1089 1092 -1 1093 1094 1095 -1 1094 1093 1096 -1 1096 1093 1091 -1 1096 1091 1090 -1 1094 1097 1095 -1 1097 1094 1098 -1 1099 1100 1101 -1 1100 1099 1102 -1 1089 1103 1104 -1 1103 1089 1091 -1 1105 1089 1104 -1 1089 1105 1092 -1 1106 1099 1107 -1 1099 1106 1108 -1 1109 1097 1098 -1 1097 1109 1101 -1 1101 1109 1107 -1 1101 1107 1099 -1 1110 1106 1107 -1 1106 1110 1111 -1 1109 1110 1107 -1 1110 1109 1112 -1 1103 1093 1113 -1 1093 1103 1091 -1 1114 1099 1108 -1 1099 1114 1102 -1 1090 1105 1115 -1 1105 1090 1092 -1 1106 1114 1108 -1 1114 1106 1111 -1 1114 1110 1102 -1 1110 1114 1111 -1 1100 553 552 -1 553 1100 1112 -1 1112 1100 1102 -1 1112 1102 1110 -1 553 1116 552 -1 1116 553 1117 -1 1117 1094 1118 -1 1094 1117 553 -1 1094 553 1098 -1 1098 553 1109 -1 1109 553 1112 -1 1096 1118 1094 -1 1105 1103 1115 -1 1103 1105 1104 -1 1118 1116 1117 -1 1116 1118 1113 -1 1113 1118 1115 -1 1113 1115 1103 -1 1118 1090 1115 -1 1090 1118 1096 -1 1100 1097 1101 -1 1093 1116 1113 -1 1116 1093 1095 -1 1116 1095 552 -1 552 1095 1097 -1 552 1097 1100 -1 1119 1120 1121 -1 1120 1119 1122 -1 1123 1124 1125 -1 1124 1123 1126 -1 1127 1119 1128 -1 1119 1127 1122 -1 1122 1127 1129 -1 1126 1130 1124 -1 1130 1126 1131 -1 1132 1125 1133 -1 1125 1132 1123 -1 1134 1135 1136 -1 1135 1134 1137 -1 1132 1138 1129 -1 1138 1132 1135 -1 1138 1135 1137 -1 1129 1139 1122 -1 1139 1129 1138 -1 1122 1139 1120 -1 1120 1140 1121 -1 1140 1120 1139 -1 1140 1138 1141 -1 1138 1140 1139 -1 1142 1130 1143 -1 1130 1142 1124 -1 1142 1144 1145 -1 1144 1142 1146 -1 1144 1146 1147 -1 1144 1147 1148 -1 1145 1124 1142 -1 1124 1145 1125 -1 1138 1134 1141 -1 1134 1138 1137 -1 1145 1127 1128 -1 1127 1145 1144 -1 1127 1144 1148 -1 1127 1148 1129 -1 1123 1147 1126 -1 1147 1123 1148 -1 1132 1148 1123 -1 1148 1132 1129 -1 1143 1146 1142 -1 1146 1143 1149 -1 1146 1149 1147 -1 1128 1140 1133 -1 1140 1128 1119 -1 1140 1119 1121 -1 1133 1141 1136 -1 1141 1133 1140 -1 1136 1141 1134 -1 1149 1130 1131 -1 1130 1149 1143 -1 1128 1125 1145 -1 1125 1128 1133 -1 1135 1133 1136 -1 1133 1135 1132 -1 1126 1149 1131 -1 1149 1126 1147 -1 1150 1151 1152 -1 1152 1153 1150 -1 1153 801 798 -1 798 1150 1153 -1 1150 798 1154 -1 1154 1155 1150 -1 1154 1156 1155 -1 1157 838 835 -1 835 1151 1157 -1 1151 1158 1157 -1 1158 1159 1157 -1 1152 1151 835 -1 801 1153 1152 -1 1152 835 801 -1 1157 1154 798 -1 798 838 1157 -1 1155 1158 1151 -1 1151 1150 1155 -1 1156 1159 1158 -1 1158 1155 1156 -1 1154 1157 1159 -1 1159 1156 1154 -1 1160 1161 1162 -1 1161 1160 1163 -1 1163 824 823 -1 824 1163 1160 -1 1160 1164 824 -1 1164 1160 1165 -1 1164 1165 1166 -1 1167 832 828 -1 832 1167 1162 -1 1162 1167 1168 -1 1168 1167 1169 -1 1161 832 1162 -1 832 824 828 -1 824 832 823 -1 823 1161 1163 -1 1161 823 832 -1 1167 824 1164 -1 824 1167 828 -1 1165 1162 1168 -1 1162 1165 1160 -1 1166 1168 1169 -1 1168 1166 1165 -1 1164 1169 1167 -1 1169 1164 1166 -1 1170 1171 1172 -1 1171 1170 1173 -1 1171 1174 1175 -1 1174 1171 1173 -1 1176 1177 1178 -1 1177 1176 1179 -1 825 1180 816 -1 1180 825 830 -1 1181 1182 1183 -1 1182 1181 1184 -1 1182 1184 1185 -1 1185 1184 1180 -1 1185 1180 827 -1 827 1180 830 -1 1183 1186 1187 -1 1186 1183 1182 -1 1179 1174 1177 -1 1174 1179 1175 -1 1188 1179 1189 -1 1179 1188 1175 -1 1175 1188 1171 -1 1171 1188 1172 -1 1190 1191 1192 -1 1191 1190 1193 -1 1193 1190 1194 -1 1193 1194 1195 -1 1195 1194 1196 -1 1195 1196 805 -1 805 1196 1176 -1 805 1176 1197 -1 805 1197 1198 -1 805 1198 803 -1 1176 1196 1189 -1 1176 1189 1179 -1 803 1198 804 -1 1195 826 1199 -1 826 1195 805 -1 1199 826 1200 -1 1200 826 1201 -1 1201 826 1202 -1 1202 826 825 -1 1199 1200 1203 -1 1202 825 816 -1 1203 1204 1183 -1 1204 1203 1200 -1 1183 1204 1205 -1 1183 1205 1206 -1 1183 1206 1181 -1 1207 1193 1208 -1 1193 1207 1191 -1 826 842 833 -1 842 826 805 -1 1187 1209 1210 -1 1209 1187 1211 -1 1211 1187 1212 -1 1212 1187 1186 -1 1208 1213 1207 -1 1213 1208 1214 -1 1214 1208 1215 -1 1214 1215 1216 -1 1216 1215 1217 -1 1216 1217 833 -1 833 1217 1218 -1 833 1218 1219 -1 833 1219 1220 -1 833 1220 830 -1 1218 1217 1210 -1 1218 1210 1209 -1 830 1220 827 -1 1216 842 1221 -1 842 1216 833 -1 1221 842 1222 -1 1222 842 1223 -1 1223 842 1224 -1 1224 842 839 -1 1221 1222 1225 -1 1224 839 840 -1 1225 1226 1227 -1 1226 1225 1222 -1 1227 1226 1228 -1 1227 1228 1229 -1 1227 1229 1230 -1 803 840 839 -1 840 803 1231 -1 1231 803 804 -1 1231 804 1232 -1 1232 1233 1231 -1 1233 1232 1170 -1 1233 1227 1230 -1 1227 1233 1170 -1 1227 1170 1172 -1 1227 1172 1188 -1 1199 1215 1195 -1 1215 1199 1217 -1 1208 1195 1215 -1 1195 1208 1193 -1 1201 1234 1200 -1 1234 1201 1235 -1 1236 1201 1202 -1 1201 1236 1235 -1 1237 1238 1239 -1 1238 1237 1240 -1 1240 1237 1241 -1 1240 1241 1242 -1 1242 1241 1182 -1 1242 1182 1185 -1 1180 1202 816 -1 1202 1180 1236 -1 1200 1243 1204 -1 1243 1200 1234 -1 1203 1217 1199 -1 1217 1203 1210 -1 1225 1188 1189 -1 1188 1225 1227 -1 1213 1191 1207 -1 1191 1213 1192 -1 1187 1203 1183 -1 1203 1187 1210 -1 1216 1190 1214 -1 1190 1216 1194 -1 1214 1192 1213 -1 1192 1214 1190 -1 1221 1189 1196 -1 1189 1221 1225 -1 1216 1196 1194 -1 1196 1216 1221 -1 1238 1209 1239 -1 1209 1238 1218 -1 827 1242 1185 -1 1242 827 1220 -1 1220 1240 1242 -1 1240 1220 1219 -1 1239 1211 1237 -1 1211 1239 1209 -1 1240 1218 1238 -1 1218 1240 1219 -1 1211 1241 1237 -1 1241 1211 1212 -1 1241 1186 1182 -1 1186 1241 1212 -1 1230 1244 1233 -1 1244 1230 1229 -1 1244 1228 1245 -1 1228 1244 1229 -1 1246 1247 1248 -1 1247 1246 1245 -1 1245 1246 1249 -1 1245 1249 1244 -1 1244 1249 1231 -1 1244 1231 1233 -1 1247 1228 1226 -1 1228 1247 1245 -1 1246 1222 1223 -1 1222 1246 1248 -1 1197 1250 1198 -1 1250 1197 1251 -1 1249 840 1231 -1 840 1249 1224 -1 1248 1226 1222 -1 1226 1248 1247 -1 1198 1232 804 -1 1232 1198 1250 -1 1197 1178 1251 -1 1178 1197 1176 -1 1246 1224 1249 -1 1224 1246 1223 -1 1174 1178 1177 -1 1178 1174 1251 -1 1251 1174 1173 -1 1251 1173 1250 -1 1250 1173 1170 -1 1250 1170 1232 -1 1235 1243 1234 -1 1243 1235 1252 -1 1252 1235 1236 -1 1252 1236 1253 -1 1253 1236 1180 -1 1253 1180 1184 -1 1206 1184 1181 -1 1184 1206 1253 -1 1252 1206 1205 -1 1206 1252 1253 -1 1204 1252 1205 -1 1252 1204 1243 -1 "
						                >
							<Coordinate DEF="coords_ME_05-5_001"
							            point="3.814493 33.983982 15.175934 3.814493 32.409180 15.963336 3.814493 33.983982 16.750738 3.814493 26.897367 15.175934 3.814493 28.472170 15.963336 3.814493 28.472170 16.750738 3.814493 26.897367 16.750738 3.814493 32.409180 16.750738 4.995595 32.409180 16.750738 4.995595 33.983982 16.750738 -0.122515 32.409180 16.750738 -0.713066 32.409180 15.963336 -0.122515 32.409180 15.963336 -1.303617 32.409180 15.175934 -0.713066 32.409180 15.175934 -1.303617 32.409180 16.750738 4.405044 32.409180 15.175934 4.995595 28.472170 15.175934 4.995595 32.409180 15.175934 4.405044 28.472170 15.175934 -1.303617 33.983982 16.750738 -0.122515 33.983982 16.750738 4.995595 26.897367 14.388533 -0.888774 27.312210 13.949402 4.580752 27.312210 13.949402 -1.303617 26.897367 14.388533 -0.618615 27.582369 13.409082 4.310593 27.582369 13.409082 -0.618615 33.298977 13.409082 -0.888774 27.684769 13.949402 -0.888774 33.569138 13.949402 -0.618615 27.684769 13.409082 4.208194 33.196579 12.813729 -0.516216 33.196579 12.813729 4.310593 33.298977 13.409082 4.580752 33.569138 13.949402 -1.303617 27.684769 14.388533 -1.303617 33.983982 14.388533 4.208194 27.684769 12.813729 4.995595 26.897367 16.750738 4.995595 28.472170 16.750738 4.995595 33.983982 14.388533 -1.303617 28.472170 16.750738 -0.122515 26.897367 16.750738 -0.122515 28.472170 16.750738 -1.303617 26.897367 16.750738 -0.122515 28.472170 15.963336 -0.122515 33.983982 15.175934 -0.122515 26.897367 15.175934 -0.516216 27.684769 12.813729 -0.713066 28.472170 15.175934 -0.713066 28.472170 15.963336 -1.303617 28.472170 15.175934 4.405044 32.409180 15.963336 4.405044 28.472170 15.963336 -0.122515 44.613903 21.081446 3.814493 40.676895 21.081446 3.814493 44.613903 21.081446 -0.122515 40.676895 21.081446 1.845989 40.086342 21.081446 -0.122515 28.313932 20.490894 1.845989 27.881618 21.081446 -0.122515 28.472170 21.081446 1.845989 27.802500 20.786171 1.845989 27.215969 20.470772 3.814493 21.385555 19.900343 3.814493 27.291067 19.900343 1.845989 21.460655 20.470772 -0.122515 20.204454 21.081446 1.845989 20.874125 20.786171 -0.122515 20.362692 20.490894 1.845989 20.795004 21.081446 -0.122515 40.086342 20.058580 1.845989 40.007225 20.786171 -0.122515 40.518658 20.490894 1.845989 39.791069 20.570013 1.845989 27.586344 20.570013 3.814493 27.881618 20.058580 -0.122515 21.385555 19.900343 -0.122515 27.291067 19.900343 3.814493 40.518658 20.490894 1.845989 33.078850 20.786171 -0.122515 32.999729 20.058580 -0.122515 32.567417 20.490894 1.845989 33.295006 20.570013 3.814493 36.739887 15.175934 -0.122515 39.364559 15.412154 3.814493 39.364559 15.412154 -0.122515 36.739887 15.175934 1.845989 32.999729 21.081446 3.814493 32.567417 20.490894 3.814493 32.409180 21.081446 3.814493 16.267447 18.719242 -0.122515 16.267447 21.081446 -0.122515 16.267447 18.719242 3.814493 16.267447 21.081446 3.814493 28.472170 21.081446 3.814493 28.313932 20.490894 -0.122515 39.495792 19.900343 1.845989 39.420692 20.470772 -0.122515 28.865871 21.081446 3.814493 28.865871 21.081446 -0.122515 20.795004 20.058580 1.845989 21.090281 20.570013 3.814493 21.516790 15.412154 -0.122515 24.141462 15.175934 3.814493 24.141462 15.175934 -0.122515 21.516790 15.412154 3.814493 33.590279 19.900343 1.845989 33.665379 20.470772 3.814493 32.999729 20.058580 -0.122515 33.590279 19.900343 -0.122515 27.881618 20.058580 3.814493 20.204454 21.081446 -0.122515 16.792379 17.538139 3.814493 16.792379 17.538139 3.814493 19.417051 15.884596 -0.122515 19.417051 15.884596 3.814493 17.842249 16.593258 -0.122515 17.842249 16.593258 3.814493 20.795004 20.058580 3.814493 20.362692 20.490894 3.814493 39.495792 19.900343 3.814493 40.086342 20.058580 3.814493 44.613903 18.719242 3.814493 41.464294 15.884596 3.814493 43.039101 16.593258 3.814493 44.088966 17.538139 3.814493 32.015476 17.144438 3.814493 32.015476 21.081446 3.814493 28.865871 17.144438 -0.122515 32.409180 21.081446 -0.122515 44.613903 18.719242 -0.122515 44.088966 17.538139 -0.122515 43.039101 16.593258 -0.122515 28.865871 17.144438 -0.122515 41.464294 15.884596 -0.122515 32.015476 17.144438 -0.122515 32.015476 21.081446 28.617643 39.889492 25.018454 27.436541 45.401302 25.018454 27.436541 39.889492 25.018454 28.617643 45.401302 25.018454 22.733273 44.986462 22.217117 23.003433 40.574497 21.676800 22.733273 40.304337 22.217117 23.003433 44.716301 21.676800 28.617643 44.613903 22.656250 28.617643 39.889492 22.656250 28.617643 45.401302 22.656250 23.105831 40.676895 21.081446 23.105831 44.613903 21.081446 22.318430 45.401302 22.656250 22.318430 39.889492 22.656250 23.499533 39.889492 25.018454 22.318430 45.401302 25.018454 22.318430 39.889492 25.018454 23.499533 45.401302 25.018454 23.499533 45.401302 23.443651 27.436541 45.401302 23.443651 27.436541 39.889492 23.443651 23.499533 39.889492 23.443651 27.932640 40.574497 21.676800 27.830240 40.676895 21.081446 28.202799 44.613903 22.217117 28.202799 40.304337 22.217117 27.932640 44.613903 21.676800 27.932640 44.716301 21.676800 28.202799 44.986462 22.217117 27.830240 44.613903 21.081446 16.806620 11.543036 25.018454 15.625517 17.054848 25.018454 15.625517 11.543036 25.018454 16.806620 17.054848 25.018454 10.922250 16.640005 22.217117 11.192410 12.228039 21.676800 10.922250 11.957879 22.217117 11.192410 16.369844 21.676800 16.806620 16.267447 22.656250 16.806620 11.543036 22.656250 16.806620 17.054848 22.656250 11.294808 12.330438 21.081446 11.294808 16.267447 21.081446 10.507406 17.054848 22.656250 10.507406 11.543036 22.656250 11.688509 11.543036 25.018454 10.507406 17.054848 25.018454 10.507406 11.543036 25.018454 11.688509 17.054848 25.018454 11.688509 17.054848 23.443651 15.625517 17.054848 23.443651 15.625517 11.543036 23.443651 11.688509 11.543036 23.443651 16.121616 12.228039 21.676800 16.019218 12.330438 21.081446 16.391775 16.267447 22.217117 16.391775 11.957879 22.217117 16.121616 16.267447 21.676800 16.121616 16.369844 21.676800 16.391775 16.640005 22.217117 16.019218 16.267447 21.081446 27.436541 26.897367 23.443651 27.436541 33.983982 25.018454 27.436541 33.983982 23.443651 27.436541 26.897367 25.018454 28.617643 33.983982 25.018454 28.617643 26.897367 25.018454 23.499533 32.409180 25.018454 22.908981 32.409180 24.231052 23.499533 32.409180 24.231052 22.318430 32.409180 23.443651 22.908981 32.409180 23.443651 22.318430 32.409180 25.018454 23.499533 33.983982 25.018454 22.318430 33.983982 25.018454 28.617643 26.897367 22.656250 22.733273 27.312210 22.217117 28.202799 27.312210 22.217117 22.318430 26.897367 22.656250 23.003433 27.582369 21.676800 27.932640 27.582369 21.676800 23.003433 33.298977 21.676800 22.733273 27.684769 22.217117 22.733273 33.569138 22.217117 23.003433 27.684769 21.676800 27.830240 33.196579 21.081446 23.105831 33.196579 21.081446 27.932640 33.298977 21.676800 28.202799 33.569138 22.217117 22.318430 27.684769 22.656250 22.318430 33.983982 22.656250 27.830240 27.684769 21.081446 28.617643 33.983982 22.656250 22.318430 28.472170 25.018454 23.499533 26.897367 25.018454 23.499533 28.472170 25.018454 22.318430 26.897367 25.018454 23.499533 28.472170 24.231052 23.499533 33.983982 23.443651 23.499533 26.897367 23.443651 23.105831 27.684769 21.081446 22.908981 28.472170 23.443651 22.908981 28.472170 24.231052 22.318430 28.472170 23.443651 16.806620 32.409180 6.908217 19.956224 28.472170 6.908217 19.956224 32.409180 6.908217 16.806620 28.472170 6.908217 7.357800 32.409180 6.908217 10.507406 28.472170 6.908217 10.507406 32.409180 6.908217 7.357800 28.472170 6.908217 11.688509 36.739887 6.908217 15.625517 24.141462 6.908217 15.625517 36.739887 6.908217 11.688509 24.141462 6.908217 10.507406 32.409180 8.483021 10.507406 28.472170 8.483021 15.625517 32.409180 8.483021 15.625517 36.739887 10.057824 15.625517 28.472170 8.483021 15.625517 28.472170 10.057824 15.625517 24.141462 10.057824 15.625517 32.409180 10.057824 11.688509 24.141462 10.057824 11.688509 28.472170 8.483021 11.688509 28.472170 10.057824 11.688509 32.409180 10.057824 11.688509 36.739887 10.057824 11.688509 32.409180 8.483021 16.806620 28.472170 8.483021 16.806620 32.409180 8.483021 7.357800 36.739887 5.333415 19.126539 35.910202 4.455153 8.187487 35.910202 4.455153 19.956224 36.739887 5.333415 18.586220 35.369881 3.374514 8.727805 35.369881 3.374514 19.956224 24.141462 5.333415 19.126539 24.971148 4.455153 18.586220 25.511467 3.374514 18.381422 35.165085 2.183808 18.381422 25.716265 2.183808 8.932603 25.716265 2.183808 8.727805 25.511467 3.374514 8.187487 24.971148 4.455153 7.357800 24.141462 5.333415 7.357800 36.739887 10.057824 7.357800 32.409180 10.057824 8.932603 35.165085 2.183808 7.357800 28.472170 10.057824 19.956224 32.409180 10.057824 19.956224 28.472170 10.057824 19.956224 24.141462 10.057824 7.357800 24.141462 10.057824 8.187487 25.716265 4.455153 8.727805 25.716265 3.374514 7.357800 25.716265 5.333415 19.956224 36.739887 10.057824 4.995595 15.480044 25.018454 3.814493 20.991856 25.018454 3.814493 15.480044 25.018454 4.995595 20.991856 25.018454 -0.888774 20.577011 22.217117 -0.618615 16.165047 21.676800 -0.888774 15.894887 22.217117 -0.618615 20.306852 21.676800 4.995595 20.204454 22.656250 4.995595 15.480044 22.656250 4.995595 20.991856 22.656250 -0.516216 16.267447 21.081446 -0.516216 20.204454 21.081446 -1.303617 20.991856 22.656250 -1.303617 15.480044 22.656250 -0.122515 15.480044 25.018454 -1.303617 20.991856 25.018454 -1.303617 15.480044 25.018454 -0.122515 20.991856 25.018454 -0.122515 20.991856 23.443651 3.814493 20.991856 23.443651 3.814493 15.480044 23.443651 -0.122515 15.480044 23.443651 4.310593 16.165047 21.676800 4.208194 16.267447 21.081446 4.580752 20.204454 22.217117 4.580752 15.894887 22.217117 4.310593 20.204454 21.676800 4.310593 20.306852 21.676800 4.580752 20.577011 22.217117 4.208194 20.204454 21.081446 28.617643 15.480044 25.018454 27.436541 20.991856 25.018454 27.436541 15.480044 25.018454 28.617643 20.991856 25.018454 22.733273 20.577011 22.217117 23.003433 16.165047 21.676800 22.733273 15.894887 22.217117 23.003433 20.306852 21.676800 28.617643 20.204454 22.656250 28.617643 15.480044 22.656250 28.617643 20.991856 22.656250 23.105831 16.267447 21.081446 23.105831 20.204454 21.081446 22.318430 20.991856 22.656250 22.318430 15.480044 22.656250 23.499533 15.480044 25.018454 22.318430 20.991856 25.018454 22.318430 15.480044 25.018454 23.499533 20.991856 25.018454 23.499533 20.991856 23.443651 27.436541 20.991856 23.443651 27.436541 15.480044 23.443651 23.499533 15.480044 23.443651 27.932640 16.165047 21.676800 27.830240 16.267447 21.081446 28.202799 20.204454 22.217117 28.202799 15.894887 22.217117 27.932640 20.204454 21.676800 27.932640 20.306852 21.676800 28.202799 20.577011 22.217117 27.830240 20.204454 21.081446 16.806620 37.920990 16.750738 15.625517 43.432800 16.750738 15.625517 37.920990 16.750738 16.806620 43.432800 16.750738 10.922250 43.017956 13.949402 11.192409 38.605991 13.409082 10.922250 38.335831 13.949402 11.192409 42.747799 13.409082 16.806620 42.645397 14.388533 16.806620 37.920990 14.388533 16.806620 43.432800 14.388533 11.294807 38.708389 12.813729 11.294807 42.645397 12.813729 10.507406 43.432800 14.388533 10.507406 37.920990 14.388533 11.688509 37.920990 16.750738 10.507406 43.432800 16.750738 10.507406 37.920990 16.750738 11.688509 43.432800 16.750738 11.688509 43.432800 15.175934 15.625517 43.432800 15.175934 15.625517 37.920990 15.175934 11.688509 37.920990 15.175934 16.121616 38.605991 13.409082 16.019217 38.708389 12.813729 16.391775 42.645397 13.949402 16.391775 38.335831 13.949402 16.121616 42.645397 13.409082 16.121616 42.747799 13.409082 16.391775 43.017956 13.949402 16.019217 42.645397 12.813729 22.318430 32.409180 14.418125 27.770582 28.472170 12.813729 22.318430 28.472170 14.418125 27.770582 32.409180 12.813729 23.003433 28.472170 13.409082 23.105831 28.472170 12.813729 22.733273 28.472170 13.949402 22.318430 28.472170 14.388533 23.003433 32.409180 13.409082 23.105831 32.409180 12.813729 22.733273 32.409180 13.949402 22.318430 32.409180 14.388533 23.105831 27.684769 12.813729 23.003433 27.582369 13.409082 23.105831 33.196579 12.813729 23.003433 33.298977 13.409082 22.318430 33.983982 16.750738 22.318430 32.409180 15.175934 22.318430 32.409180 16.750738 22.318430 33.983982 14.388533 22.318430 28.472170 16.750738 22.318430 26.897367 14.388533 22.318430 26.897367 16.750738 22.318430 28.472170 15.175934 22.733273 27.312210 13.949402 22.733273 33.569138 13.949402 27.830240 33.196579 12.813729 27.830240 27.684769 12.813729 27.932640 33.298977 13.409082 23.499533 26.897367 15.175934 23.499533 28.472170 15.963336 23.499533 26.897367 16.750738 23.499533 33.983982 15.175934 23.499533 32.409180 15.963336 23.499533 32.409180 16.750738 23.499533 33.983982 16.750738 23.499533 28.472170 16.750738 27.436541 28.472170 16.750738 28.027092 28.472170 15.963336 27.436541 28.472170 15.963336 28.617643 28.472170 15.175934 28.027092 28.472170 15.175934 28.617643 28.472170 16.750738 22.908981 28.472170 15.175934 22.908981 32.409180 15.175934 28.617643 26.897367 16.750738 27.436541 26.897367 16.750738 28.202799 33.569138 13.949402 28.617643 33.983982 14.388533 27.932640 27.582369 13.409082 28.202799 33.196579 13.949402 28.202799 27.312210 13.949402 27.932640 33.196579 13.409082 28.617643 33.196579 14.388533 28.617643 26.897367 14.388533 28.617643 32.409180 16.750738 27.436541 33.983982 16.750738 27.436541 32.409180 16.750738 28.617643 33.983982 16.750738 27.436541 32.409180 15.963336 27.436541 26.897367 15.175934 27.436541 33.983982 15.175934 28.027092 32.409180 15.175934 28.027092 32.409180 15.963336 28.617643 32.409180 15.175934 22.908981 28.472170 15.963336 22.908981 32.409180 15.963336 -0.122515 33.983982 23.443651 -0.122515 26.897367 25.018454 -0.122515 26.897367 23.443651 -0.122515 33.983982 25.018454 -1.303617 26.897367 25.018454 -1.303617 33.983982 25.018454 3.814493 28.472170 25.018454 4.405044 28.472170 24.231052 3.814493 28.472170 24.231052 4.995595 28.472170 23.443651 4.405044 28.472170 23.443651 4.995595 28.472170 25.018454 3.814493 26.897367 25.018454 4.995595 26.897367 25.018454 -1.303617 33.983982 22.656250 4.580752 33.569138 22.217117 -0.888774 33.569138 22.217117 4.995595 33.983982 22.656250 4.310593 33.298977 21.676800 -0.618615 33.298977 21.676800 4.310593 27.582369 21.676800 4.580752 33.196579 22.217117 4.580752 27.312210 22.217117 4.310593 33.196579 21.676800 -0.516216 27.684769 21.081446 4.208194 27.684769 21.081446 -0.618615 27.582369 21.676800 -0.888774 27.312210 22.217117 4.995595 33.196579 22.656250 4.995595 26.897367 22.656250 -0.516216 33.196579 21.081446 -1.303617 26.897367 22.656250 4.995595 32.409180 25.018454 3.814493 33.983982 25.018454 3.814493 32.409180 25.018454 4.995595 33.983982 25.018454 3.814493 32.409180 24.231052 3.814493 26.897367 23.443651 3.814493 33.983982 23.443651 4.208194 33.196579 21.081446 4.405044 32.409180 23.443651 4.405044 32.409180 24.231052 4.995595 32.409180 23.443651 4.995595 39.889492 25.018454 3.814493 45.401302 25.018454 3.814493 39.889492 25.018454 4.995595 45.401302 25.018454 -0.888774 44.986462 22.217117 -0.618615 40.574497 21.676800 -0.888774 40.304337 22.217117 -0.618615 44.716301 21.676800 4.995595 44.613903 22.656250 4.995595 39.889492 22.656250 4.995595 45.401302 22.656250 -0.516216 40.676895 21.081446 -0.516216 44.613903 21.081446 -1.303617 45.401302 22.656250 -1.303617 39.889492 22.656250 -0.122515 39.889492 25.018454 -1.303617 45.401302 25.018454 -1.303617 39.889492 25.018454 -0.122515 45.401302 25.018454 -0.122515 45.401302 23.443651 3.814493 45.401302 23.443651 3.814493 39.889492 23.443651 -0.122515 39.889492 23.443651 4.310593 40.574497 21.676800 4.208194 40.676895 21.081446 4.580752 44.613903 22.217117 4.580752 40.304337 22.217117 4.310593 44.613903 21.676800 4.310593 44.716301 21.676800 4.580752 44.986462 22.217117 4.208194 44.613903 21.081446 16.806618 43.826500 25.018454 15.625516 49.338310 25.018454 15.625516 43.826500 25.018454 16.806618 49.338310 25.018454 10.922249 48.923470 22.217117 11.192409 44.511505 21.676800 10.922249 44.241344 22.217117 11.192409 48.653309 21.676800 16.806618 48.550911 22.656250 16.806618 43.826500 22.656250 16.806618 49.338310 22.656250 11.294807 44.613903 21.081446 11.294807 48.550911 21.081446 10.507406 49.338310 22.656250 10.507406 43.826500 22.656250 11.688508 43.826500 25.018454 10.507406 49.338310 25.018454 10.507406 43.826500 25.018454 11.688508 49.338310 25.018454 11.688508 49.338310 23.443651 15.625516 49.338310 23.443651 15.625516 43.826500 23.443651 11.688508 43.826500 23.443651 16.121616 44.511505 21.676800 16.019217 44.613903 21.081446 16.391775 48.550911 22.217117 16.391775 44.241344 22.217117 16.121616 48.550911 21.676800 16.121616 48.653309 21.676800 16.391775 48.923470 22.217117 16.019217 48.550911 21.081446 12.869611 22.960360 14.388533 14.444414 22.960360 14.388533 14.444414 22.960360 15.175934 12.869611 22.960360 15.175934 12.869611 28.865871 15.175934 12.869611 28.865871 12.813729 12.869611 22.172958 12.813729 12.869611 22.545515 13.949402 12.869611 22.275356 13.409082 14.444414 22.172958 12.813729 14.444414 28.865871 12.813729 14.444414 28.865871 15.175934 14.444414 22.545515 13.949402 14.444414 22.275356 13.409082 15.231815 28.313932 12.223178 15.625517 28.472170 12.813729 15.231815 28.472170 12.813729 15.625517 28.313932 12.223178 15.231815 23.354059 11.632627 15.625517 22.763508 11.790865 15.625517 23.354059 11.632627 15.231815 22.763508 11.790865 15.231815 27.881618 11.790865 15.625517 27.291067 11.632627 15.625517 27.881618 11.790865 15.231815 27.291067 11.632627 15.231815 22.172958 12.813729 15.625517 22.331196 12.223178 15.231815 22.331196 12.223178 15.625517 22.172958 12.813729 11.688509 32.015476 12.813729 12.082210 32.409180 12.813729 11.688509 32.409180 12.813729 15.625517 32.015476 12.813729 11.688509 38.708389 12.813729 15.231815 38.708389 12.813729 11.688509 42.645397 12.813729 12.082210 38.708389 12.813729 15.231815 32.409180 12.813729 15.625517 32.409180 12.813729 15.625517 38.708389 12.813729 15.625517 42.645397 12.813729 15.625517 18.235950 10.451525 11.688509 18.235950 12.813729 11.688509 18.235950 10.451525 15.625517 18.235950 12.813729 11.688509 23.354059 11.632627 11.688509 22.763508 11.790865 11.688509 22.331196 12.223178 11.688509 22.172958 12.813729 11.688509 21.543036 7.262548 11.688509 37.133587 6.908217 11.688509 23.747761 6.908217 11.688509 39.338310 7.262548 11.688509 19.889494 7.971210 11.688509 40.991856 7.971210 11.688509 18.787130 9.034202 11.688509 28.865871 8.876721 11.688509 27.881618 11.790865 11.688509 28.313932 12.223178 11.688509 28.865871 12.813729 11.688509 27.291067 11.632627 11.688509 28.472170 12.813729 11.688509 32.015476 8.876721 11.688509 42.094219 9.034202 11.688509 32.999729 11.790865 11.688509 32.567417 12.223178 11.688509 33.590279 11.632627 11.688509 42.645397 10.451525 11.688509 37.527287 11.632627 11.688509 38.117840 11.790865 11.688509 38.550152 12.223178 15.625517 42.645397 10.451525 15.625517 23.747761 6.908217 15.625517 37.133587 6.908217 12.082210 38.550152 12.223178 12.082210 28.472170 12.813729 12.082210 28.313932 12.223178 15.625517 28.865871 8.876721 15.625517 32.015476 8.876721 15.231815 32.999729 11.790865 15.625517 33.590279 11.632627 15.231815 33.590279 11.632627 15.625517 32.999729 11.790865 12.082210 38.117840 11.790865 12.082210 32.999729 11.790865 12.082210 37.527287 11.632627 12.082210 33.590279 11.632627 12.082210 32.567417 12.223178 15.625517 18.787130 9.034202 15.625517 38.117840 11.790865 15.231815 38.550152 12.223178 15.231815 38.117840 11.790865 15.625517 38.550152 12.223178 15.625517 37.527287 11.632627 15.231815 37.527287 11.632627 15.625517 21.543036 7.262548 12.082210 27.881618 11.790865 15.625517 28.865871 12.813729 15.625517 19.889494 7.971210 15.625517 32.567417 12.223178 15.231815 32.567417 12.223178 12.082210 22.763508 11.790865 12.082210 23.354059 11.632627 12.082210 22.331196 12.223178 12.082210 27.291067 11.632627 12.082210 22.172958 12.813729 15.625517 40.991856 7.971210 15.625517 42.094219 9.034202 15.625517 39.338310 7.262548 12.869611 37.920990 14.388533 14.444414 37.920990 15.175934 14.444414 37.920990 14.388533 12.869611 37.920990 15.175934 12.869611 32.015476 12.813729 12.869611 32.015476 15.175934 12.869611 38.708389 12.813729 12.869611 38.335831 13.949402 12.869611 38.605991 13.409082 14.444414 38.708389 12.813729 14.444414 32.015476 15.175934 14.444414 32.015476 12.813729 14.444414 38.335831 13.949402 14.444414 38.605991 13.409082 -0.122515 45.401302 29.349163 3.814493 45.401302 29.349163 3.814493 32.409176 29.349163 3.814493 32.409176 23.443651 3.814493 28.472170 29.349163 3.814493 15.480044 29.349163 3.814493 28.472170 23.443651 3.420792 32.409176 29.349163 3.420792 32.409176 23.443651 3.420792 31.031225 29.349163 3.420792 31.031225 23.443651 1.845989 31.228075 29.349163 1.845989 31.228075 23.443651 1.845989 29.653273 29.349163 1.845989 29.653273 23.443651 3.420792 29.850122 29.349163 3.420792 29.850122 23.443651 3.420792 28.472170 29.349163 3.420792 28.472170 23.443651 -0.122515 15.480044 29.349163 23.499533 44.613903 21.081446 27.436541 40.676895 21.081446 27.436541 44.613903 21.081446 23.499533 40.676895 21.081446 25.468037 40.086342 21.081446 23.499533 28.313932 20.490894 25.468037 27.881618 21.081446 23.499533 28.472170 21.081446 25.468037 27.802500 20.786171 25.468037 27.215969 20.470772 27.436541 21.385555 19.900343 27.436541 27.291067 19.900343 25.468037 21.460655 20.470772 23.499533 20.204454 21.081446 25.468037 20.874125 20.786171 23.499533 20.362692 20.490894 25.468037 20.795004 21.081446 23.499533 40.086342 20.058580 25.468037 40.007225 20.786171 23.499533 40.518658 20.490894 25.468037 39.791069 20.570013 25.468037 27.586344 20.570013 27.436541 27.881618 20.058580 23.499533 21.385555 19.900343 23.499533 27.291067 19.900343 27.436541 40.518658 20.490894 25.468037 33.078850 20.786171 23.499533 32.999729 20.058580 23.499533 32.567417 20.490894 25.468037 33.295006 20.570013 27.436541 36.739887 15.175934 23.499533 39.364559 15.412154 27.436541 39.364559 15.412154 23.499533 36.739887 15.175934 25.468037 32.999729 21.081446 27.436541 32.567417 20.490894 27.436541 32.409180 21.081446 27.436541 16.267447 18.719242 23.499533 16.267447 21.081446 23.499533 16.267447 18.719242 27.436541 16.267447 21.081446 27.436541 28.472170 21.081446 27.436541 28.313932 20.490894 23.499533 39.495792 19.900343 25.468037 39.420692 20.470772 23.499533 28.865871 21.081446 27.436541 28.865871 21.081446 23.499533 20.795004 20.058580 25.468037 21.090281 20.570013 27.436541 21.516790 15.412154 23.499533 24.141462 15.175934 27.436541 24.141462 15.175934 23.499533 21.516790 15.412154 27.436541 33.590279 19.900343 25.468037 33.665379 20.470772 27.436541 32.999729 20.058580 23.499533 33.590279 19.900343 23.499533 27.881618 20.058580 27.436541 20.204454 21.081446 23.499533 16.792379 17.538139 27.436541 16.792379 17.538139 27.436541 19.417051 15.884596 23.499533 19.417051 15.884596 27.436541 17.842249 16.593258 23.499533 17.842249 16.593258 27.436541 20.795004 20.058580 27.436541 20.362692 20.490894 27.436541 39.495792 19.900343 27.436541 40.086342 20.058580 27.436541 44.613903 18.719242 27.436541 41.464294 15.884596 27.436541 43.039101 16.593258 27.436541 44.088966 17.538139 27.436541 32.015476 17.144438 27.436541 32.015476 21.081446 27.436541 28.865871 17.144438 23.499533 32.409180 21.081446 23.499533 44.613903 18.719242 23.499533 44.088966 17.538139 23.499533 43.039101 16.593258 23.499533 28.865871 17.144438 23.499533 41.464294 15.884596 23.499533 32.015476 17.144438 23.499533 32.015476 21.081446 11.688509 28.472170 15.175934 11.688509 32.409180 15.175934 4.995595 32.409180 22.656250 4.580752 28.472170 22.217117 4.995595 28.472170 22.656250 4.580752 32.409180 22.217117 12.869611 28.865871 21.081446 12.869611 28.472170 23.443651 12.869611 28.472170 21.081446 12.869611 28.865871 23.443651 11.688509 28.472170 17.144438 11.688509 28.865871 21.081446 11.688509 28.472170 21.081446 11.688509 28.865871 17.144438 -7.996531 30.440674 20.350363 -4.273216 28.472170 15.963336 -6.320460 28.472170 21.081446 -6.241720 30.440674 15.963336 -3.958256 30.440674 15.175934 -1.989752 28.472170 15.175934 -4.273216 32.409180 15.963336 -6.320460 32.409180 21.081446 -1.989752 32.409180 15.175934 11.688509 32.409180 17.144438 11.688509 32.409180 21.081446 4.208194 32.409180 21.081446 4.310593 32.409180 21.676800 12.869611 32.409180 21.081446 12.869611 32.409180 23.443651 4.208194 28.472170 21.081446 4.310593 28.472170 21.676800 12.869611 32.015476 23.443651 12.869611 32.015476 21.081446 11.688509 32.015476 21.081446 11.688509 32.015476 17.144438 15.625517 32.409180 21.081446 14.444414 32.015476 21.081446 14.444414 32.409180 21.081446 15.625517 32.015476 21.081446 14.444414 32.409180 23.443651 14.444414 32.015476 23.443651 15.625517 32.015476 17.144438 15.625517 32.409180 17.144438 14.444414 28.865871 23.443651 14.444414 28.472170 21.081446 14.444414 28.472170 23.443651 14.444414 28.865871 21.081446 15.625517 28.865871 21.081446 15.625517 28.472170 21.081446 15.625517 28.472170 17.144438 15.625517 28.865871 17.144438 15.625517 28.472170 15.175934 15.625517 32.409180 15.175934 23.105831 32.409180 21.081446 23.003433 32.409180 21.676800 22.733273 32.409180 22.217117 22.318430 32.409180 22.656250 22.318430 28.472170 22.656250 22.733273 28.472170 22.217117 23.003433 28.472170 21.676800 23.105831 28.472170 21.081446 29.303778 32.409180 15.175934 29.303778 28.472170 15.175934 31.272282 30.440674 15.175934 31.587242 32.409180 15.963336 33.634487 32.409180 21.081446 33.555744 30.440674 15.963336 31.587242 28.472170 15.963336 35.310555 30.440674 20.350363 33.634487 28.472170 21.081446 1.845989 29.653273 29.349163 1.845989 29.653273 23.443651 11.688509 28.472170 23.443651 11.688509 32.409176 23.443651 11.688509 32.409176 29.349163 11.688509 28.865871 25.412155 11.688509 28.472170 29.349163 11.688509 32.015476 25.412155 11.688509 28.865871 29.349163 11.688509 32.015476 29.349163 15.625517 28.472170 23.443651 15.625517 28.865870 25.412155 15.625517 32.409176 23.443651 15.625517 28.472170 29.349163 15.625517 28.865870 29.349163 15.625517 32.015476 25.412155 15.625517 32.409176 29.349163 15.625517 32.015476 29.349163 25.468037 29.653273 23.443651 23.893232 31.031225 23.443651 25.468037 31.228075 23.443651 23.893232 29.850122 23.443651 23.893232 32.409176 23.443651 23.893232 28.472170 23.443651 23.893232 32.409176 29.349163 23.893232 29.850122 29.349163 23.893232 28.472170 29.349163 25.468037 29.653273 29.349163 25.468037 31.228075 29.349163 23.893232 31.031225 29.349163 25.468037 30.440674 29.349163 23.499533 28.472170 23.443651 23.499533 15.480044 29.349163 23.499533 28.472170 29.349163 23.893232 32.409180 23.443651 23.499533 32.409180 29.349163 23.499533 32.409180 23.443651 23.893232 32.409180 29.349163 24.286934 31.080439 29.349163 24.286934 31.080439 23.443651 24.286934 29.850122 29.349163 24.286934 29.850122 23.443651 24.286934 15.480044 29.349163 27.436541 45.401302 33.318020 23.499533 15.480044 34.750973 27.436541 15.480044 33.318020 23.499533 45.401302 34.750973 24.286934 15.480044 30.136564 23.499533 15.480044 30.136564 23.499533 45.401302 30.136564 24.286934 45.401302 30.136564 24.286934 45.401302 29.349163 23.499533 45.401302 29.349163 4.208194 32.409180 12.813729 4.366431 32.015476 12.223178 4.366431 32.409180 12.223178 4.208194 32.015476 12.813729 5.389296 32.409180 11.632627 4.798745 32.015476 11.790865 5.389296 32.015476 11.632627 4.798745 32.409180 11.790865 10.113706 32.409180 11.632627 10.113706 32.015476 11.632627 11.192409 32.409180 13.409082 10.922250 32.015476 13.949402 10.922250 32.409180 13.949402 11.192409 32.015476 13.409082 11.294807 32.015476 12.813729 11.294807 32.409180 12.813729 10.507406 32.015476 14.388533 10.507406 32.409180 15.175934 10.507406 32.409180 14.388533 10.507406 32.015476 15.175934 11.136570 32.409180 12.223178 11.136570 32.015476 12.223178 10.704257 32.015476 11.790865 4.310593 32.015476 13.409082 4.580752 32.015476 13.949402 4.995595 32.015476 14.388533 4.995595 32.015476 15.175934 10.704257 32.409180 11.790865 12.869611 32.015476 14.312332 12.869611 32.409180 12.813729 12.869611 32.409180 14.312332 3.263312 28.472170 7.262548 5.782997 28.472170 6.908217 1.373548 28.472170 7.971210 0.113706 28.472170 9.034202 12.869611 28.472170 14.312332 12.869611 28.472170 12.813729 11.294807 28.472170 12.813729 11.192409 28.472170 13.409082 10.922250 28.472170 13.949402 10.507406 28.472170 14.388533 11.294807 28.472170 15.175934 10.507406 28.472170 15.175934 11.136570 28.472170 12.223178 10.704257 28.472170 11.790865 10.113706 28.472170 11.632627 -0.516216 28.472170 10.451525 5.389296 28.472170 11.632627 -0.516216 28.472170 12.813729 4.798745 28.472170 11.790865 4.366431 28.472170 12.223178 4.208194 28.472170 12.813729 1.373548 32.409180 7.971210 0.113706 32.409180 9.034202 14.444414 32.409180 12.813729 14.444414 32.015476 13.448730 14.444414 32.409180 13.448730 14.444414 28.472170 12.813729 15.602358 28.865871 12.813729 15.602358 28.472170 12.813729 5.782997 32.409180 6.908217 11.136570 28.865871 12.223178 11.294807 28.865871 12.813729 10.113706 28.865871 11.632627 5.389296 28.865871 11.632627 10.704257 28.865871 11.790865 10.507406 28.865871 15.175934 10.507406 28.865871 14.388533 12.869611 28.865871 14.312332 10.922250 28.865871 13.949402 4.995595 28.865871 14.388533 4.580752 28.865871 13.949402 4.798745 28.865871 11.790865 4.366431 28.865871 12.223178 4.208194 28.865871 12.813729 11.192409 28.865871 13.409082 4.310593 28.865871 13.409082 4.995595 28.865871 15.175934 15.625517 32.015476 12.801029 15.602358 32.015476 12.813729 3.263312 32.409180 7.262548 19.562525 32.409180 6.908217 19.562525 28.472170 6.908217 11.294807 32.409180 15.175934 -0.516216 32.409180 10.451525 -0.516216 32.409180 12.813729 14.444414 28.472170 13.448730 14.444414 28.865871 13.448730 15.625517 28.865871 12.801029 15.625517 32.409180 12.801029 23.499533 32.409180 8.483021 20.285845 32.409180 6.940168 20.980066 32.409180 7.145765 21.604137 32.409180 7.512848 23.158667 32.409180 7.724720 22.418592 32.409180 7.345908 15.602358 32.409180 12.813729 23.158667 28.472170 7.724720 21.604137 28.472170 7.512848 22.418592 28.472170 7.345908 20.285845 28.472170 6.940168 20.980066 28.472170 7.145765 23.499533 28.472170 8.483021 15.625517 28.472170 12.801029 28.311802 30.036978 12.579240 28.831663 29.239630 10.601314 28.948168 30.036978 10.650059 28.157110 29.239630 12.646261 28.601557 28.472170 10.505035 27.851578 28.472170 12.778637 23.003433 31.621777 13.438675 23.105831 32.409180 12.843322 23.003433 32.409180 13.438675 23.105831 31.621777 12.843322 27.702280 31.621777 12.843322 27.702280 32.409180 12.843322 22.733273 32.409180 13.978993 22.733273 31.621777 13.978993 22.318430 31.621777 14.418125 22.318430 31.621777 15.175934 27.702280 29.259571 12.843322 22.318430 29.259571 15.175934 28.157110 31.641720 12.646261 28.311802 30.844372 12.579240 27.851578 32.409180 12.778637 27.702280 28.472170 12.843322 28.831663 31.641720 10.601314 28.948168 30.844372 10.650059 14.444414 32.409180 15.175934 14.444414 28.472170 15.175934 35.022346 31.641720 3.348102 34.523155 32.409180 2.437809 34.901764 32.409180 3.128212 34.523155 28.472170 2.437809 35.083401 30.844372 3.459432 35.083401 30.036978 3.459432 35.022346 29.239630 3.348102 34.901764 28.472170 3.128212 32.913708 32.409180 4.580847 31.174246 32.409180 6.323482 29.725239 32.409180 8.314181 28.601557 32.409180 10.505035 12.869611 28.472170 15.175934 12.869611 32.409180 15.175934 23.105831 28.472170 12.843322 29.725239 28.472170 8.314181 32.913708 28.472170 4.580847 31.174246 28.472170 6.323482 23.003433 28.472170 13.438675 22.733273 28.472170 13.978993 31.459955 30.036978 6.567493 33.076046 29.239630 4.770227 33.158241 30.036978 4.866111 31.363922 29.239630 6.485476 31.363922 31.641720 6.485476 33.076046 31.641720 4.770227 30.045250 30.844372 8.511067 31.459955 30.844372 6.567493 29.937687 31.641720 8.444890 30.045250 30.036978 8.511067 29.937687 29.239630 8.444890 33.158241 30.844372 4.866111 23.105831 29.259571 12.843322 23.003433 29.259571 13.438675 22.733273 29.259571 13.978993 22.318430 29.259571 14.418125 11.688508 49.338310 39.049831 15.625516 11.543036 37.616879 15.625516 49.338310 37.616879 11.688508 11.543036 39.049831 11.688508 11.543036 31.711367 15.625516 11.543036 31.711367 15.625516 49.338310 31.711367 11.688508 49.338310 31.711367 12.869611 28.865871 31.711367 14.444414 28.865871 29.349163 12.869611 28.865871 29.349163 14.444414 28.865871 31.711367 11.688508 28.865871 29.349163 15.625516 28.865871 25.412155 11.688508 28.865871 25.412155 15.625516 28.865871 29.349163 11.688508 32.015476 25.412155 15.625516 32.015476 25.412155 12.869611 32.015476 29.349163 11.688508 49.338310 29.349163 11.688508 32.015476 29.349163 12.869611 49.338310 29.349163 12.869611 11.543036 29.349163 12.869611 11.543036 31.711367 14.444414 11.543036 31.711367 14.444414 32.015476 31.711367 14.444414 32.015476 29.349163 12.869611 32.015476 31.711367 15.625516 32.015476 29.349163 14.444414 49.338310 29.349163 14.444414 49.338310 31.711367 15.625516 49.338310 29.349163 11.688508 11.543036 29.349163 12.869611 49.338310 31.711367 14.444414 11.543036 29.349163 11.688508 11.543036 23.443651 15.625516 11.543036 23.443651 15.625516 11.543036 29.349163 16.806620 17.448547 16.750738 15.625517 22.960360 16.750738 15.625517 17.448547 16.750738 16.806620 22.960360 16.750738 10.922250 22.545515 13.949402 11.192409 18.133551 13.409082 10.922250 17.863392 13.949402 11.192409 22.275356 13.409082 16.806620 22.172958 14.388533 16.806620 17.448547 14.388533 16.806620 22.960360 14.388533 11.294807 18.235950 12.813729 11.294807 22.172958 12.813729 10.507406 22.960360 14.388533 10.507406 17.448547 14.388533 11.688509 17.448547 16.750738 10.507406 22.960360 16.750738 10.507406 17.448547 16.750738 11.688509 22.960360 16.750738 11.688509 22.960360 15.175934 15.625517 22.960360 15.175934 15.625517 17.448547 15.175934 11.688509 17.448547 15.175934 16.121616 18.133551 13.409082 16.019217 18.235950 12.813729 16.391775 22.172958 13.949402 16.391775 17.863392 13.949402 16.121616 22.172958 13.409082 16.121616 22.275356 13.409082 16.391775 22.545515 13.949402 16.019217 22.172958 12.813729 12.869611 17.054848 22.656250 14.444414 17.054848 22.656250 14.444414 17.054848 23.443651 12.869611 17.054848 23.443651 12.869611 16.267447 21.081446 12.869611 16.640005 22.217117 12.869611 16.369844 21.676800 14.444414 16.267447 21.081446 14.444414 16.640003 22.217117 14.444414 16.369844 21.676800 12.869611 43.826500 22.656250 14.444414 43.826500 23.443651 14.444414 43.826500 22.656250 12.869611 43.826500 23.443651 12.869611 44.613903 21.081446 12.869611 44.241344 22.217117 12.869611 44.511505 21.676800 14.444414 44.613903 21.081446 14.444414 44.241344 22.217117 14.444414 44.511505 21.676800 12.082210 16.267447 21.081446 11.688509 16.425684 20.490894 11.688509 16.267447 21.081446 12.082210 16.425684 20.490894 12.082210 16.857996 20.058580 11.688509 16.857996 20.058580 11.688509 27.291067 19.900343 12.082210 17.448547 19.900343 12.082210 27.291067 19.900343 11.688509 17.448547 19.900343 12.082210 32.409180 21.081446 11.688508 44.613903 21.081446 15.231815 44.613903 21.081446 11.688508 48.550911 21.081446 12.082210 44.613903 21.081446 15.231815 32.409180 21.081446 15.625516 44.613903 21.081446 15.625516 48.550911 21.081446 11.688509 12.330438 21.081446 11.688509 12.330438 18.719242 11.688509 15.165084 15.530265 11.688508 43.826500 15.175934 11.688509 17.054848 15.175934 11.688508 45.716263 15.530265 11.688509 13.747761 16.238926 11.688508 47.133587 16.238926 11.688509 12.802878 17.301918 11.688509 27.881618 20.058580 11.688509 28.313932 20.490894 11.688508 48.078468 17.301918 11.688509 33.590279 19.900343 11.688509 32.999729 20.058580 11.688509 32.567417 20.490894 11.688508 48.550911 18.719242 11.688508 43.432800 19.900343 11.688508 44.023350 20.058580 11.688508 44.455666 20.490894 15.625516 43.826500 15.175934 15.625516 45.716263 15.530265 15.625516 43.432800 19.900343 15.625516 48.550911 18.719242 15.625516 44.023350 20.058580 15.625516 44.455666 20.490894 15.625517 17.054848 15.175934 15.625517 15.165084 15.530265 15.625516 47.133587 16.238926 15.625517 13.747761 16.238926 15.625516 48.078468 17.301918 15.625517 33.590279 19.900343 15.625517 32.999729 20.058580 15.625517 32.567417 20.490894 15.625517 12.802879 17.301918 15.625517 27.291067 19.900343 15.625517 27.881618 20.058580 15.625517 28.313932 20.490894 15.625517 12.330438 18.719242 15.625517 17.448547 19.900343 15.625517 12.330438 21.081446 15.625517 16.857998 20.058580 15.625517 16.425684 20.490894 15.625517 16.267447 21.081446 15.231815 28.472170 21.081446 12.082210 28.472170 21.081446 15.231816 16.267447 21.081446 12.082210 33.590279 19.900343 12.082210 32.999729 20.058580 12.082210 32.567417 20.490894 15.231815 44.023350 20.058580 15.231815 33.590279 19.900343 15.231815 43.432800 19.900343 15.231815 32.999729 20.058580 15.231815 44.455666 20.490894 15.231815 32.567417 20.490894 12.082210 43.432800 19.900343 15.231816 16.425684 20.490894 15.231816 16.857998 20.058580 15.231815 27.881618 20.058580 15.231816 17.448547 19.900343 15.231816 27.291067 19.900343 15.231815 28.313932 20.490894 12.082210 28.313932 20.490894 12.082210 27.881618 20.058580 12.082210 44.023350 20.058580 12.082210 44.455666 20.490894 "
							            />
						</IndexedFaceSet>
					</Shape>
				</Group>
			</Transform>
		</Transform>
	</Scene>
</X3D>