<?xml version="1.0" encoding="UTF-8"?>
<!DOCTYPE X3D PUBLIC "ISO//Web3D//DTD X3D 3.0//EN" "http://www.web3d.org/specifications/x3d-3.0.dtd">
<X3D version="3.0" profile="Immersive" xmlns:xsd="http://www.w3.org/2001/XMLSchema-instance" xsd:noNamespaceSchemaLocation="http://www.web3d.org/specifications/x3d-3.0.xsd">
	<head>
		<meta name="filename" content="05-6.x3d" />
		<meta name="created" content="2026-06-21 15:09:37" />
		<meta name="generator" content="Blender 4.5.4 LTS" />
		<meta name="translator" content="Web3D X3D/VRML2 format v2.5.1" />
	</head>
	<Scene>
		<NavigationInfo headlight="true"
		                visibilityLimit="0.0"
		                type='"EXAMINE", "ANY"'
		                avatarSize="0.25, 1.75, 0.75"
		                />
		<Background DEF="WO_World"
		            groundColor="0.051 0.051 0.051"
		            skyColor="0.051 0.051 0.051"
		            />
		<Transform DEF="_05-6_TRANSFORM"
		           translation="0.000000 0.000000 0.000000"
		           scale="1.000000 1.000000 1.000000"
		           rotation="0.000000 0.707107 0.707107 3.141593"
		           >
			<Transform DEF="_05-6_ifs_TRANSFORM"
			           translation="0.000000 0.000000 0.000000"
			           scale="1.000000 1.000000 1.000000"
			           rotation="0.000000 1.000000 0.000000 0.000000"
			           >
				<Group DEF="group_ME_05-6_001">
					<Shape>
						<Appearance>
						</Appearance>
						<IndexedFaceSet solid="false"
						                coordIndex="0 1 2 -1 1 0 3 -1 1 3 4 -1 5 6 7 -1 6 5 8 -1 9 10 11 -1 10 9 12 -1 13 14 15 -1 14 13 16 -1 17 18 19 -1 18 17 20 -1 21 11 22 -1 11 21 9 -1 23 9 24 -1 9 23 12 -1 18 1 4 -1 1 18 25 -1 26 27 28 -1 27 26 29 -1 30 31 32 -1 31 30 33 -1 34 35 26 -1 35 34 36 -1 37 38 39 -1 38 37 40 -1 18 3 19 -1 3 18 4 -1 8 41 6 -1 41 8 42 -1 43 20 17 -1 20 43 44 -1 45 41 46 -1 41 45 7 -1 41 7 6 -1 47 14 48 -1 14 47 15 -1 49 50 51 -1 50 49 52 -1 29 53 54 -1 53 29 55 -1 56 29 54 -1 29 56 27 -1 23 48 12 -1 48 23 47 -1 24 21 57 -1 21 24 9 -1 8 22 42 -1 22 8 21 -1 56 44 43 -1 44 56 54 -1 13 58 16 -1 58 13 40 -1 40 13 38 -1 59 37 39 -1 37 59 60 -1 61 52 49 -1 52 61 62 -1 63 62 61 -1 62 63 64 -1 14 65 48 -1 65 14 66 -1 26 55 29 -1 55 26 35 -1 57 8 5 -1 8 57 21 -1 20 67 68 -1 67 20 44 -1 51 33 30 -1 33 51 50 -1 48 10 12 -1 10 48 65 -1 60 64 63 -1 64 60 59 -1 20 25 18 -1 25 20 68 -1 2 67 69 -1 67 2 68 -1 68 2 25 -1 25 2 1 -1 32 51 30 -1 51 32 49 -1 49 32 70 -1 49 70 61 -1 61 70 71 -1 61 71 63 -1 63 71 72 -1 63 72 73 -1 73 72 53 -1 73 53 55 -1 73 55 35 -1 73 35 74 -1 53 72 69 -1 53 69 67 -1 74 35 36 -1 63 75 60 -1 75 63 73 -1 60 75 11 -1 11 75 22 -1 22 75 42 -1 42 75 46 -1 60 11 37 -1 42 46 41 -1 37 10 40 -1 10 37 11 -1 40 10 65 -1 40 65 66 -1 40 66 58 -1 44 53 67 -1 53 44 54 -1 16 66 14 -1 66 16 58 -1 34 28 76 -1 28 34 26 -1 2 77 0 -1 77 2 69 -1 71 78 72 -1 78 71 79 -1 69 78 77 -1 78 69 72 -1 46 80 45 -1 80 46 75 -1 38 23 39 -1 23 38 47 -1 47 38 15 -1 15 38 13 -1 52 33 50 -1 33 52 31 -1 31 52 62 -1 31 62 81 -1 81 62 64 -1 81 64 79 -1 79 64 59 -1 79 59 80 -1 80 59 24 -1 80 24 57 -1 80 57 5 -1 80 5 45 -1 24 59 39 -1 24 39 23 -1 45 5 7 -1 79 82 78 -1 82 79 80 -1 78 82 56 -1 56 82 27 -1 27 82 28 -1 28 82 83 -1 78 56 77 -1 28 83 76 -1 77 43 0 -1 43 77 56 -1 0 43 17 -1 0 17 19 -1 0 19 3 -1 76 36 34 -1 36 76 74 -1 74 76 83 -1 32 81 70 -1 81 32 31 -1 82 75 73 -1 75 82 80 -1 70 79 71 -1 79 70 81 -1 82 74 83 -1 74 82 73 -1 84 85 86 -1 86 87 84 -1 87 88 89 -1 89 84 87 -1 84 89 90 -1 90 91 84 -1 90 92 91 -1 93 94 95 -1 95 85 93 -1 85 96 93 -1 96 97 93 -1 86 85 95 -1 95 94 89 -1 89 88 95 -1 88 87 86 -1 86 95 88 -1 93 90 89 -1 89 94 93 -1 91 96 85 -1 85 84 91 -1 92 97 96 -1 96 91 92 -1 90 93 97 -1 97 92 90 -1 98 99 100 -1 99 98 101 -1 101 102 103 -1 102 101 98 -1 98 104 102 -1 104 98 105 -1 104 105 106 -1 107 108 109 -1 108 107 100 -1 100 107 110 -1 110 107 111 -1 99 108 100 -1 108 102 109 -1 102 108 103 -1 103 99 101 -1 99 103 108 -1 107 102 104 -1 102 107 109 -1 105 100 110 -1 100 105 98 -1 106 110 111 -1 110 106 105 -1 104 111 107 -1 111 104 106 -1 112 113 114 -1 113 112 115 -1 113 116 117 -1 116 113 115 -1 118 119 120 -1 119 118 121 -1 122 123 124 -1 123 122 125 -1 126 127 128 -1 127 126 129 -1 127 129 130 -1 130 129 123 -1 130 123 131 -1 131 123 125 -1 128 132 133 -1 132 128 127 -1 121 116 119 -1 116 121 117 -1 134 121 135 -1 121 134 117 -1 117 134 113 -1 113 134 114 -1 136 137 138 -1 137 136 139 -1 139 136 140 -1 139 140 141 -1 141 140 142 -1 141 142 143 -1 143 142 118 -1 143 118 144 -1 143 144 145 -1 143 145 146 -1 118 142 135 -1 118 135 121 -1 146 145 147 -1 141 148 149 -1 148 141 143 -1 149 148 150 -1 150 148 151 -1 151 148 152 -1 152 148 122 -1 149 150 153 -1 152 122 124 -1 153 154 128 -1 154 153 150 -1 128 154 155 -1 128 155 156 -1 128 156 126 -1 157 139 158 -1 139 157 137 -1 148 159 160 -1 159 148 143 -1 160 122 148 -1 122 160 125 -1 133 161 162 -1 161 133 163 -1 163 133 164 -1 164 133 132 -1 158 165 157 -1 165 158 166 -1 166 158 167 -1 166 167 168 -1 168 167 169 -1 168 169 160 -1 160 169 170 -1 160 170 171 -1 160 171 172 -1 160 172 125 -1 170 169 162 -1 170 162 161 -1 125 172 131 -1 168 159 173 -1 159 168 160 -1 173 159 174 -1 174 159 175 -1 175 159 176 -1 176 159 177 -1 173 174 178 -1 176 177 179 -1 178 180 181 -1 180 178 174 -1 181 180 182 -1 181 182 183 -1 181 183 184 -1 146 179 177 -1 179 146 185 -1 185 146 147 -1 185 147 186 -1 186 187 185 -1 187 186 112 -1 187 181 184 -1 181 187 112 -1 181 112 114 -1 181 114 134 -1 177 143 146 -1 143 177 159 -1 149 167 141 -1 167 149 169 -1 158 141 167 -1 141 158 139 -1 151 188 150 -1 188 151 189 -1 190 151 152 -1 151 190 189 -1 191 192 193 -1 192 191 194 -1 194 191 195 -1 194 195 196 -1 196 195 127 -1 196 127 130 -1 123 152 124 -1 152 123 190 -1 150 197 154 -1 197 150 188 -1 153 169 149 -1 169 153 162 -1 178 134 135 -1 134 178 181 -1 165 137 157 -1 137 165 138 -1 133 153 128 -1 153 133 162 -1 168 136 166 -1 136 168 140 -1 166 138 165 -1 138 166 136 -1 173 135 142 -1 135 173 178 -1 168 142 140 -1 142 168 173 -1 192 161 193 -1 161 192 170 -1 131 196 130 -1 196 131 172 -1 172 194 196 -1 194 172 171 -1 193 163 191 -1 163 193 161 -1 194 170 192 -1 170 194 171 -1 163 195 191 -1 195 163 164 -1 195 132 127 -1 132 195 164 -1 184 198 187 -1 198 184 183 -1 198 182 199 -1 182 198 183 -1 200 201 202 -1 201 200 199 -1 199 200 203 -1 199 203 198 -1 198 203 185 -1 198 185 187 -1 201 182 180 -1 182 201 199 -1 200 174 175 -1 174 200 202 -1 144 204 145 -1 204 144 205 -1 203 179 185 -1 179 203 176 -1 202 180 174 -1 180 202 201 -1 145 186 147 -1 186 145 204 -1 144 120 205 -1 120 144 118 -1 200 176 203 -1 176 200 175 -1 116 120 119 -1 120 116 205 -1 205 116 115 -1 205 115 204 -1 204 115 112 -1 204 112 186 -1 189 197 188 -1 197 189 206 -1 206 189 190 -1 206 190 207 -1 207 190 123 -1 207 123 129 -1 156 129 126 -1 129 156 207 -1 206 156 155 -1 156 206 207 -1 154 206 155 -1 206 154 197 -1 208 209 210 -1 209 208 211 -1 212 213 214 -1 213 212 215 -1 216 214 217 -1 214 216 212 -1 89 218 219 -1 218 89 88 -1 220 146 147 -1 146 220 143 -1 221 222 223 -1 222 221 224 -1 225 226 227 -1 226 225 228 -1 229 226 228 -1 226 229 230 -1 225 231 228 -1 231 225 232 -1 36 73 74 -1 46 223 41 -1 223 46 75 -1 223 75 221 -1 221 75 73 -1 221 73 36 -1 89 147 146 -1 147 89 219 -1 233 234 235 -1 234 233 236 -1 231 237 238 -1 237 231 235 -1 235 231 232 -1 235 76 233 -1 76 235 232 -1 36 224 221 -1 224 36 239 -1 239 36 124 -1 124 36 240 -1 124 240 241 -1 124 241 242 -1 242 241 243 -1 243 241 215 -1 243 215 212 -1 243 212 216 -1 224 211 208 -1 211 224 239 -1 237 234 244 -1 234 237 235 -1 241 245 246 -1 245 241 240 -1 231 229 228 -1 229 231 238 -1 242 103 102 -1 103 242 243 -1 209 222 210 -1 222 209 220 -1 222 220 223 -1 223 220 41 -1 41 220 147 -1 41 147 245 -1 218 147 219 -1 147 218 245 -1 245 218 246 -1 246 218 213 -1 213 218 214 -1 214 218 217 -1 83 73 82 -1 73 83 74 -1 224 210 222 -1 210 224 208 -1 46 83 45 -1 83 46 74 -1 74 46 41 -1 74 41 245 -1 74 245 36 -1 36 245 240 -1 7 232 227 -1 232 7 76 -1 76 7 45 -1 76 45 83 -1 232 225 227 -1 242 122 124 -1 122 242 102 -1 238 230 229 -1 230 238 237 -1 230 237 244 -1 73 80 82 -1 80 73 75 -1 215 246 213 -1 246 215 241 -1 236 80 7 -1 80 236 233 -1 80 233 82 -1 82 233 83 -1 83 233 76 -1 45 7 80 -1 239 122 148 -1 122 239 124 -1 211 220 209 -1 220 211 143 -1 143 211 148 -1 148 211 239 -1 7 234 236 -1 244 226 230 -1 226 244 234 -1 226 234 227 -1 227 234 7 -1 131 109 247 -1 109 131 125 -1 248 109 108 -1 109 248 247 -1 131 160 125 -1 160 131 249 -1 103 109 102 -1 109 103 108 -1 125 122 102 -1 125 102 109 -1 95 250 251 -1 250 95 94 -1 177 250 94 -1 250 177 179 -1 177 252 179 -1 252 177 159 -1 146 177 94 -1 146 94 89 -1 159 253 252 -1 253 159 254 -1 254 159 160 -1 254 160 249 -1 160 143 148 -1 143 160 159 -1 255 253 254 -1 253 255 256 -1 254 257 255 -1 257 254 249 -1 257 249 258 -1 258 249 259 -1 259 249 131 -1 259 131 260 -1 248 131 247 -1 131 248 260 -1 260 248 261 -1 261 248 262 -1 262 248 263 -1 263 248 264 -1 263 265 266 -1 265 263 264 -1 267 263 266 -1 263 267 262 -1 261 267 268 -1 267 261 262 -1 260 268 269 -1 268 260 261 -1 270 271 272 -1 271 270 273 -1 270 274 273 -1 274 270 275 -1 258 276 257 -1 276 258 277 -1 255 276 256 -1 276 255 257 -1 277 278 279 -1 278 277 258 -1 278 258 280 -1 280 258 281 -1 281 258 259 -1 282 279 278 -1 283 284 285 -1 286 271 287 -1 271 286 288 -1 271 288 272 -1 272 288 284 -1 272 284 283 -1 284 278 280 -1 278 284 288 -1 289 274 275 -1 274 289 290 -1 290 289 291 -1 286 278 288 -1 278 286 282 -1 279 276 277 -1 276 279 252 -1 252 279 179 -1 179 279 269 -1 179 269 268 -1 179 268 250 -1 250 268 251 -1 251 268 267 -1 251 267 266 -1 251 266 265 -1 276 253 256 -1 253 276 252 -1 281 284 280 -1 284 281 285 -1 283 270 272 -1 275 292 289 -1 292 275 270 -1 292 270 293 -1 293 270 283 -1 292 291 289 -1 291 292 294 -1 291 295 290 -1 295 291 294 -1 293 294 292 -1 294 293 296 -1 294 297 295 -1 297 294 296 -1 295 274 290 -1 274 295 273 -1 273 295 297 -1 273 287 271 -1 287 273 297 -1 296 293 297 -1 297 286 287 -1 286 297 285 -1 285 297 283 -1 283 297 293 -1 282 281 279 -1 281 282 285 -1 285 282 286 -1 279 260 269 -1 260 279 259 -1 259 279 281 -1 265 95 251 -1 95 265 108 -1 108 265 248 -1 248 265 264 -1 95 103 88 -1 103 95 108 -1 218 216 217 -1 216 218 243 -1 243 218 88 -1 243 88 103 -1 298 299 300 -1 299 298 301 -1 299 209 302 -1 209 299 301 -1 303 304 305 -1 304 303 306 -1 209 307 308 -1 307 209 309 -1 307 309 211 -1 309 209 301 -1 309 301 310 -1 310 301 298 -1 310 311 254 -1 311 310 298 -1 312 313 314 -1 313 312 307 -1 313 307 315 -1 315 307 211 -1 316 298 253 -1 298 316 317 -1 298 317 311 -1 317 316 318 -1 318 319 317 -1 319 318 320 -1 321 322 323 -1 322 321 324 -1 253 300 325 -1 300 253 298 -1 326 327 328 -1 327 326 329 -1 330 320 331 -1 320 330 319 -1 332 333 334 -1 333 332 335 -1 336 337 338 -1 337 336 339 -1 326 340 341 -1 340 326 328 -1 340 328 342 -1 340 342 343 -1 327 344 345 -1 344 327 329 -1 346 347 348 -1 347 346 349 -1 332 349 346 -1 349 332 334 -1 348 350 351 -1 350 348 347 -1 351 352 353 -1 352 351 350 -1 339 354 337 -1 354 339 355 -1 356 357 358 -1 357 356 359 -1 343 360 333 -1 360 343 361 -1 361 343 362 -1 362 343 342 -1 347 352 350 -1 352 347 363 -1 363 347 349 -1 363 349 334 -1 363 334 325 -1 325 334 364 -1 325 364 365 -1 325 365 366 -1 325 366 367 -1 325 367 253 -1 364 334 333 -1 364 333 360 -1 253 367 368 -1 253 368 369 -1 253 369 370 -1 253 370 316 -1 357 336 338 -1 336 357 359 -1 308 371 372 -1 371 308 307 -1 371 358 372 -1 358 371 356 -1 345 330 331 -1 330 345 344 -1 335 343 333 -1 343 335 340 -1 321 373 324 -1 373 321 374 -1 374 321 375 -1 375 321 376 -1 377 303 305 -1 303 377 378 -1 378 377 379 -1 378 379 380 -1 378 380 381 -1 381 380 382 -1 381 382 383 -1 381 383 384 -1 381 384 385 -1 381 385 211 -1 382 380 324 -1 382 324 373 -1 211 385 386 -1 211 386 387 -1 211 387 388 -1 211 388 315 -1 353 348 351 -1 348 353 389 -1 348 389 346 -1 346 389 332 -1 390 391 389 -1 391 390 392 -1 392 390 254 -1 389 391 393 -1 389 393 394 -1 389 394 332 -1 332 394 335 -1 392 254 395 -1 395 254 396 -1 396 254 397 -1 397 254 311 -1 335 398 340 -1 398 335 394 -1 340 398 399 -1 340 399 400 -1 340 400 341 -1 401 392 402 -1 392 401 391 -1 403 391 401 -1 391 403 393 -1 403 394 393 -1 394 403 404 -1 404 398 394 -1 398 404 405 -1 405 399 398 -1 399 405 406 -1 407 399 406 -1 399 407 400 -1 326 400 407 -1 400 326 341 -1 403 405 404 -1 405 403 406 -1 406 403 401 -1 406 401 407 -1 407 401 402 -1 407 402 326 -1 326 402 408 -1 326 408 329 -1 329 408 409 -1 329 409 344 -1 344 409 410 -1 344 410 330 -1 330 410 317 -1 330 317 319 -1 397 317 410 -1 317 397 311 -1 254 411 310 -1 411 254 390 -1 412 211 309 -1 211 412 381 -1 309 411 412 -1 411 309 310 -1 409 397 410 -1 397 409 396 -1 392 408 402 -1 408 392 395 -1 384 413 414 -1 413 384 383 -1 413 382 415 -1 382 413 383 -1 408 396 409 -1 396 408 395 -1 416 415 417 -1 415 416 413 -1 413 416 418 -1 413 418 414 -1 414 418 419 -1 414 419 420 -1 420 419 421 -1 421 419 422 -1 421 422 423 -1 423 422 424 -1 423 424 425 -1 425 424 426 -1 425 426 313 -1 313 426 314 -1 313 388 425 -1 388 313 315 -1 388 423 425 -1 423 388 387 -1 387 421 423 -1 421 387 386 -1 385 414 420 -1 414 385 384 -1 421 385 420 -1 385 421 386 -1 415 373 417 -1 373 415 382 -1 417 374 416 -1 374 417 373 -1 374 418 416 -1 418 374 375 -1 375 419 418 -1 419 375 376 -1 427 428 429 -1 428 427 430 -1 431 429 432 -1 429 431 427 -1 433 431 432 -1 431 433 434 -1 355 434 435 -1 434 355 431 -1 431 355 339 -1 431 339 427 -1 427 339 336 -1 427 336 430 -1 430 336 359 -1 430 359 436 -1 436 359 356 -1 436 356 437 -1 437 356 371 -1 437 371 438 -1 438 371 307 -1 438 307 312 -1 354 435 439 -1 435 354 355 -1 439 434 433 -1 434 439 435 -1 389 411 390 -1 381 299 378 -1 299 381 412 -1 299 412 300 -1 300 412 411 -1 300 411 325 -1 325 411 363 -1 363 411 389 -1 378 302 440 -1 302 378 299 -1 389 352 363 -1 352 389 353 -1 322 380 441 -1 380 322 324 -1 362 442 361 -1 442 362 443 -1 379 441 380 -1 441 379 444 -1 428 419 323 -1 419 428 430 -1 323 376 321 -1 376 323 419 -1 426 437 438 -1 437 426 424 -1 440 304 306 -1 304 440 445 -1 445 440 444 -1 444 440 441 -1 302 337 440 -1 337 302 338 -1 338 302 209 -1 440 337 354 -1 440 354 439 -1 440 439 441 -1 441 439 322 -1 338 209 357 -1 357 209 358 -1 358 209 372 -1 372 209 308 -1 322 433 323 -1 433 322 439 -1 323 433 432 -1 323 432 429 -1 323 429 428 -1 306 378 440 -1 378 306 303 -1 305 445 377 -1 445 305 304 -1 436 419 430 -1 419 436 422 -1 312 426 438 -1 426 312 314 -1 424 436 437 -1 436 424 422 -1 377 444 379 -1 444 377 445 -1 442 446 447 -1 446 442 448 -1 448 442 443 -1 448 443 449 -1 449 443 328 -1 449 328 450 -1 450 328 451 -1 451 328 327 -1 451 327 452 -1 452 327 345 -1 452 345 453 -1 453 345 331 -1 453 331 318 -1 318 331 320 -1 450 368 367 -1 368 450 451 -1 342 443 362 -1 443 342 328 -1 453 316 370 -1 316 453 318 -1 369 453 370 -1 453 369 452 -1 365 449 366 -1 449 365 448 -1 366 450 367 -1 450 366 449 -1 360 442 447 -1 442 360 361 -1 364 447 446 -1 447 364 360 -1 368 452 369 -1 452 368 451 -1 365 446 448 -1 446 365 364 -1 454 455 456 -1 455 454 457 -1 458 459 460 -1 459 458 461 -1 462 463 464 -1 463 462 465 -1 459 466 460 -1 466 459 467 -1 464 468 469 -1 468 464 463 -1 468 463 470 -1 470 463 471 -1 471 463 472 -1 473 469 468 -1 474 475 476 -1 477 462 478 -1 462 477 479 -1 462 479 465 -1 465 479 475 -1 465 475 474 -1 480 454 481 -1 454 480 457 -1 482 483 484 -1 483 482 485 -1 484 486 487 -1 486 484 483 -1 488 483 485 -1 483 488 489 -1 489 486 483 -1 486 489 490 -1 490 491 486 -1 491 490 492 -1 490 493 492 -1 493 490 494 -1 488 495 489 -1 495 488 496 -1 489 494 490 -1 494 489 495 -1 497 477 478 -1 477 497 498 -1 487 491 499 -1 491 487 486 -1 500 459 461 -1 459 500 467 -1 467 500 475 -1 475 500 476 -1 477 466 479 -1 466 458 460 -1 458 466 498 -1 498 466 477 -1 468 480 481 -1 480 468 470 -1 466 475 479 -1 475 466 467 -1 501 454 456 -1 454 501 481 -1 481 501 468 -1 468 501 473 -1 471 480 470 -1 480 455 457 -1 455 480 502 -1 502 480 471 -1 488 463 496 -1 463 488 503 -1 463 503 472 -1 496 465 504 -1 465 496 463 -1 504 465 474 -1 487 505 484 -1 505 487 506 -1 505 506 494 -1 505 494 495 -1 493 491 492 -1 491 493 499 -1 484 507 482 -1 507 484 505 -1 507 505 495 -1 507 495 496 -1 499 506 487 -1 506 499 493 -1 506 493 494 -1 482 462 485 -1 462 482 497 -1 462 497 478 -1 485 464 508 -1 464 485 462 -1 508 464 469 -1 503 455 502 -1 501 485 508 -1 485 501 456 -1 485 456 488 -1 488 456 455 -1 488 455 503 -1 507 458 482 -1 458 507 461 -1 461 507 500 -1 500 507 504 -1 504 507 496 -1 482 498 497 -1 498 482 458 -1 471 503 502 -1 503 471 472 -1 500 474 476 -1 474 500 504 -1 469 501 508 -1 501 469 473 -1 509 510 511 -1 510 509 512 -1 510 513 514 -1 513 510 512 -1 515 516 517 -1 516 515 518 -1 515 519 520 -1 519 515 517 -1 513 519 514 -1 519 513 520 -1 521 516 522 -1 516 521 517 -1 517 521 510 -1 510 521 511 -1 523 516 518 -1 516 523 522 -1 524 525 526 -1 525 524 527 -1 521 527 528 -1 527 521 525 -1 528 527 529 -1 522 525 521 -1 525 522 523 -1 525 523 530 -1 531 532 533 -1 532 531 534 -1 532 534 535 -1 533 536 537 -1 536 533 532 -1 537 536 538 -1 532 526 536 -1 526 532 524 -1 510 519 517 -1 519 510 514 -1 539 540 541 -1 540 539 542 -1 540 533 543 -1 533 540 531 -1 531 540 542 -1 531 542 544 -1 524 529 527 -1 529 524 535 -1 535 524 532 -1 521 509 511 -1 509 521 528 -1 538 525 530 -1 525 538 526 -1 526 538 536 -1 545 533 537 -1 533 545 543 -1 546 544 542 -1 544 546 547 -1 539 546 542 -1 546 539 548 -1 549 540 550 -1 540 549 541 -1 545 540 543 -1 540 545 550 -1 515 523 518 -1 523 515 530 -1 530 515 538 -1 551 549 550 -1 538 545 537 -1 545 538 550 -1 550 538 515 -1 513 515 520 -1 515 513 512 -1 515 512 550 -1 550 512 551 -1 551 512 546 -1 509 529 512 -1 529 509 528 -1 512 547 546 -1 547 512 535 -1 535 512 529 -1 547 535 534 -1 548 551 546 -1 549 539 541 -1 539 549 548 -1 548 549 551 -1 544 534 531 -1 534 544 547 -1 552 553 554 -1 553 552 555 -1 556 557 558 -1 557 556 559 -1 560 552 561 -1 552 560 555 -1 555 560 562 -1 559 563 557 -1 563 559 564 -1 565 558 566 -1 558 565 556 -1 567 568 569 -1 568 567 570 -1 565 571 562 -1 571 565 568 -1 571 568 570 -1 562 572 555 -1 572 562 571 -1 555 572 553 -1 553 573 554 -1 573 553 572 -1 573 571 574 -1 571 573 572 -1 575 563 576 -1 563 575 557 -1 575 577 578 -1 577 575 579 -1 577 579 580 -1 577 580 581 -1 578 557 575 -1 557 578 558 -1 571 567 574 -1 567 571 570 -1 578 560 561 -1 560 578 577 -1 560 577 581 -1 560 581 562 -1 556 580 559 -1 580 556 581 -1 565 581 556 -1 581 565 562 -1 576 579 575 -1 579 576 582 -1 579 582 580 -1 561 573 566 -1 573 561 552 -1 573 552 554 -1 566 574 569 -1 574 566 573 -1 569 574 567 -1 582 563 564 -1 563 582 576 -1 561 558 578 -1 558 561 566 -1 568 566 569 -1 566 568 565 -1 559 582 564 -1 582 559 580 -1 583 584 585 -1 584 583 586 -1 587 236 588 -1 236 587 589 -1 236 589 233 -1 233 589 590 -1 590 589 591 -1 592 588 236 -1 588 593 594 -1 593 588 592 -1 583 595 586 -1 595 583 596 -1 244 597 598 -1 597 244 237 -1 599 583 585 -1 583 599 596 -1 600 601 602 -1 601 600 603 -1 602 604 605 -1 604 602 601 -1 606 607 608 -1 607 606 609 -1 607 609 604 -1 607 604 601 -1 606 610 611 -1 610 606 612 -1 608 612 606 -1 612 608 613 -1 608 614 615 -1 614 608 607 -1 614 607 601 -1 614 601 603 -1 605 610 612 -1 610 605 616 -1 617 597 618 -1 597 617 600 -1 593 619 594 -1 619 593 598 -1 619 598 600 -1 600 598 597 -1 620 621 622 -1 621 620 623 -1 621 624 622 -1 624 621 625 -1 602 612 613 -1 612 602 605 -1 605 626 616 -1 626 605 604 -1 595 624 586 -1 624 595 627 -1 584 589 587 -1 589 584 625 -1 625 584 586 -1 625 586 624 -1 615 613 608 -1 613 615 619 -1 626 610 616 -1 610 626 611 -1 600 613 619 -1 613 600 602 -1 590 617 618 -1 617 590 591 -1 615 584 619 -1 584 615 599 -1 584 599 585 -1 619 587 594 -1 587 619 584 -1 594 587 588 -1 615 595 599 -1 595 615 614 -1 595 614 627 -1 627 614 620 -1 620 614 623 -1 623 614 603 -1 596 599 595 -1 600 589 603 -1 589 600 617 -1 589 617 591 -1 603 625 623 -1 625 603 589 -1 623 625 621 -1 611 609 606 -1 609 611 626 -1 609 626 604 -1 593 244 598 -1 244 593 234 -1 234 593 236 -1 236 593 592 -1 235 244 234 -1 244 235 237 -1 590 235 233 -1 235 597 237 -1 597 235 618 -1 618 235 590 -1 236 235 234 -1 235 236 233 -1 620 624 627 -1 624 620 622 -1 628 629 630 -1 629 628 631 -1 632 633 634 -1 633 632 635 -1 636 628 637 -1 628 636 631 -1 631 636 638 -1 635 639 633 -1 639 635 640 -1 641 634 642 -1 634 641 632 -1 643 644 645 -1 644 643 646 -1 641 647 638 -1 647 641 644 -1 647 644 646 -1 638 648 631 -1 648 638 647 -1 631 648 629 -1 629 649 630 -1 649 629 648 -1 649 647 650 -1 647 649 648 -1 651 639 652 -1 639 651 633 -1 651 653 654 -1 653 651 655 -1 653 655 656 -1 653 656 657 -1 654 633 651 -1 633 654 634 -1 647 643 650 -1 643 647 646 -1 654 636 637 -1 636 654 653 -1 636 653 657 -1 636 657 638 -1 632 656 635 -1 656 632 657 -1 641 657 632 -1 657 641 638 -1 652 655 651 -1 655 652 658 -1 655 658 656 -1 637 649 642 -1 649 637 628 -1 649 628 630 -1 642 650 645 -1 650 642 649 -1 645 650 643 -1 658 639 640 -1 639 658 652 -1 637 634 654 -1 634 637 642 -1 644 642 645 -1 642 644 641 -1 635 658 640 -1 658 635 656 -1 659 660 661 -1 660 659 662 -1 663 664 665 -1 664 663 666 -1 667 659 668 -1 659 667 662 -1 662 667 669 -1 666 670 664 -1 670 666 671 -1 672 665 673 -1 665 672 663 -1 674 675 676 -1 675 674 677 -1 672 678 669 -1 678 672 675 -1 678 675 677 -1 669 679 662 -1 679 669 678 -1 662 679 660 -1 660 680 661 -1 680 660 679 -1 680 678 681 -1 678 680 679 -1 682 670 683 -1 670 682 664 -1 682 684 685 -1 684 682 686 -1 684 686 687 -1 684 687 688 -1 685 664 682 -1 664 685 665 -1 678 674 681 -1 674 678 677 -1 685 667 668 -1 667 685 684 -1 667 684 688 -1 667 688 669 -1 663 687 666 -1 687 663 688 -1 672 688 663 -1 688 672 669 -1 683 686 682 -1 686 683 689 -1 686 689 687 -1 668 680 673 -1 680 668 659 -1 680 659 661 -1 673 681 676 -1 681 673 680 -1 676 681 674 -1 689 670 671 -1 670 689 683 -1 668 665 685 -1 665 668 673 -1 675 673 676 -1 673 675 672 -1 666 689 671 -1 689 666 687 -1 690 691 692 -1 691 690 693 -1 694 695 696 -1 695 694 697 -1 698 690 699 -1 690 698 693 -1 693 698 700 -1 697 701 695 -1 701 697 702 -1 703 696 704 -1 696 703 694 -1 705 706 707 -1 706 705 708 -1 703 709 700 -1 709 703 706 -1 709 706 708 -1 700 710 693 -1 710 700 709 -1 693 710 691 -1 691 711 692 -1 711 691 710 -1 711 709 712 -1 709 711 710 -1 713 701 714 -1 701 713 695 -1 713 715 716 -1 715 713 717 -1 715 717 718 -1 715 718 719 -1 716 695 713 -1 695 716 696 -1 709 705 712 -1 705 709 708 -1 716 698 699 -1 698 716 715 -1 698 715 719 -1 698 719 700 -1 694 718 697 -1 718 694 719 -1 703 719 694 -1 719 703 700 -1 714 717 713 -1 717 714 720 -1 717 720 718 -1 699 711 704 -1 711 699 690 -1 711 690 692 -1 704 712 707 -1 712 704 711 -1 707 712 705 -1 720 701 702 -1 701 720 714 -1 699 696 716 -1 696 699 704 -1 706 704 707 -1 704 706 703 -1 697 720 702 -1 720 697 718 -1 721 722 723 -1 722 721 724 -1 722 724 725 -1 725 724 726 -1 726 724 727 -1 728 723 722 -1 723 729 730 -1 729 723 728 -1 731 217 216 -1 217 731 732 -1 733 734 735 -1 734 733 736 -1 735 737 738 -1 737 735 734 -1 739 740 741 -1 740 739 742 -1 740 742 737 -1 740 737 734 -1 739 743 744 -1 743 739 745 -1 741 745 739 -1 745 741 746 -1 741 747 748 -1 747 741 740 -1 747 740 734 -1 747 734 736 -1 738 743 745 -1 743 738 749 -1 750 217 751 -1 217 750 733 -1 729 752 730 -1 752 729 216 -1 752 216 733 -1 733 216 217 -1 753 754 755 -1 754 753 756 -1 754 757 755 -1 757 754 758 -1 735 745 746 -1 745 735 738 -1 738 759 749 -1 759 738 737 -1 757 724 721 -1 724 757 758 -1 748 746 741 -1 746 748 752 -1 759 743 749 -1 743 759 744 -1 733 746 752 -1 746 733 735 -1 726 750 751 -1 750 726 727 -1 748 757 752 -1 757 748 753 -1 757 753 755 -1 752 721 730 -1 721 752 757 -1 730 721 723 -1 747 753 748 -1 753 747 756 -1 756 747 736 -1 733 724 736 -1 724 733 750 -1 724 750 727 -1 736 758 756 -1 758 736 724 -1 756 758 754 -1 744 742 739 -1 742 744 759 -1 742 759 737 -1 729 731 216 -1 731 729 760 -1 760 729 722 -1 722 729 728 -1 761 731 760 -1 731 761 732 -1 726 761 725 -1 761 217 732 -1 217 761 751 -1 751 761 726 -1 722 761 760 -1 761 722 725 -1 762 763 764 -1 763 762 765 -1 766 762 767 -1 762 766 765 -1 768 769 770 -1 769 768 771 -1 769 766 767 -1 766 769 771 -1 766 768 765 -1 768 766 771 -1 763 772 773 -1 772 763 774 -1 774 763 765 -1 774 765 768 -1 772 775 773 -1 775 772 776 -1 772 777 776 -1 777 772 774 -1 769 762 770 -1 762 769 767 -1 777 775 776 -1 775 777 764 -1 764 777 770 -1 764 770 762 -1 777 768 770 -1 768 777 774 -1 763 775 764 -1 775 763 773 -1 778 779 780 -1 779 778 679 -1 511 781 782 -1 781 511 509 -1 511 512 509 -1 512 511 510 -1 783 510 784 -1 510 783 512 -1 517 785 786 -1 785 517 515 -1 517 518 515 -1 518 517 516 -1 780 516 778 -1 516 780 518 -1 785 779 787 -1 779 785 518 -1 518 785 515 -1 779 518 780 -1 788 789 790 -1 789 788 791 -1 790 679 678 -1 679 790 787 -1 787 790 792 -1 792 789 793 -1 789 792 790 -1 779 679 787 -1 793 791 794 -1 791 793 789 -1 793 795 792 -1 795 793 794 -1 786 785 784 -1 783 795 796 -1 795 783 792 -1 792 783 785 -1 785 783 784 -1 792 785 787 -1 679 712 678 -1 712 679 786 -1 786 679 516 -1 786 516 517 -1 516 679 778 -1 510 511 784 -1 712 784 711 -1 784 712 786 -1 711 784 511 -1 711 511 782 -1 782 797 711 -1 797 782 781 -1 797 712 711 -1 712 797 796 -1 791 795 794 -1 795 791 788 -1 796 788 712 -1 788 796 795 -1 797 509 796 -1 509 797 781 -1 796 512 783 -1 512 796 509 -1 788 678 712 -1 678 788 790 -1 798 799 800 -1 799 798 801 -1 799 802 803 -1 802 799 801 -1 802 804 803 -1 804 802 805 -1 805 801 798 -1 801 805 802 -1 798 804 805 -1 804 798 800 -1 799 804 800 -1 804 799 803 -1 806 807 808 -1 807 806 809 -1 810 811 812 -1 811 810 813 -1 814 806 815 -1 806 814 809 -1 809 814 816 -1 813 817 811 -1 817 813 818 -1 819 812 820 -1 812 819 810 -1 821 822 823 -1 822 821 824 -1 819 825 816 -1 825 819 822 -1 825 822 824 -1 816 826 809 -1 826 816 825 -1 809 826 807 -1 807 827 808 -1 827 807 826 -1 827 825 828 -1 825 827 826 -1 829 817 830 -1 817 829 811 -1 829 831 832 -1 831 829 833 -1 831 833 834 -1 831 834 835 -1 832 811 829 -1 811 832 812 -1 825 821 828 -1 821 825 824 -1 832 814 815 -1 814 832 831 -1 814 831 835 -1 814 835 816 -1 810 834 813 -1 834 810 835 -1 819 835 810 -1 835 819 816 -1 830 833 829 -1 833 830 836 -1 833 836 834 -1 815 827 820 -1 827 815 806 -1 827 806 808 -1 820 828 823 -1 828 820 827 -1 823 828 821 -1 836 817 818 -1 817 836 830 -1 815 812 832 -1 812 815 820 -1 822 820 823 -1 820 822 819 -1 813 836 818 -1 836 813 834 -1 837 838 839 -1 838 837 840 -1 841 272 842 -1 272 841 843 -1 272 843 271 -1 271 843 844 -1 844 843 845 -1 846 842 272 -1 842 847 848 -1 847 842 846 -1 837 849 840 -1 849 837 850 -1 275 851 852 -1 851 275 274 -1 853 837 839 -1 837 853 850 -1 854 855 856 -1 855 854 857 -1 856 858 859 -1 858 856 855 -1 860 861 862 -1 861 860 863 -1 861 863 858 -1 861 858 855 -1 860 864 865 -1 864 860 866 -1 862 866 860 -1 866 862 867 -1 862 868 869 -1 868 862 861 -1 868 861 855 -1 868 855 857 -1 859 864 866 -1 864 859 870 -1 871 851 872 -1 851 871 854 -1 847 873 848 -1 873 847 852 -1 873 852 854 -1 854 852 851 -1 874 875 876 -1 875 874 877 -1 875 878 876 -1 878 875 879 -1 856 866 867 -1 866 856 859 -1 859 880 870 -1 880 859 858 -1 849 878 840 -1 878 849 881 -1 838 843 841 -1 843 838 879 -1 879 838 840 -1 879 840 878 -1 869 867 862 -1 867 869 873 -1 880 864 870 -1 864 880 865 -1 854 867 873 -1 867 854 856 -1 844 871 872 -1 871 844 845 -1 869 838 873 -1 838 869 853 -1 838 853 839 -1 873 841 848 -1 841 873 838 -1 848 841 842 -1 869 849 853 -1 849 869 868 -1 849 868 881 -1 881 868 874 -1 874 868 877 -1 877 868 857 -1 850 853 849 -1 854 843 857 -1 843 854 871 -1 843 871 845 -1 857 879 877 -1 879 857 843 -1 877 879 875 -1 865 863 860 -1 863 865 880 -1 863 880 858 -1 847 275 852 -1 275 847 270 -1 270 847 272 -1 272 847 846 -1 273 275 270 -1 275 273 274 -1 844 273 271 -1 273 851 274 -1 851 273 872 -1 872 273 844 -1 272 273 270 -1 273 272 271 -1 874 878 881 -1 878 874 876 -1 882 883 884 -1 883 882 885 -1 883 885 886 -1 886 885 887 -1 887 885 888 -1 889 884 883 -1 884 890 891 -1 890 884 889 -1 892 264 265 -1 264 892 893 -1 894 895 896 -1 895 894 897 -1 896 898 899 -1 898 896 895 -1 900 901 902 -1 901 900 903 -1 901 903 898 -1 901 898 895 -1 900 904 905 -1 904 900 906 -1 902 906 900 -1 906 902 907 -1 902 908 909 -1 908 902 901 -1 908 901 895 -1 908 895 897 -1 899 904 906 -1 904 899 910 -1 911 264 912 -1 264 911 894 -1 890 913 891 -1 913 890 265 -1 913 265 894 -1 894 265 264 -1 914 915 916 -1 915 914 917 -1 915 918 916 -1 918 915 919 -1 896 906 907 -1 906 896 899 -1 899 920 910 -1 920 899 898 -1 918 885 882 -1 885 918 919 -1 909 907 902 -1 907 909 913 -1 920 904 910 -1 904 920 905 -1 894 907 913 -1 907 894 896 -1 887 911 912 -1 911 887 888 -1 909 918 913 -1 918 909 914 -1 918 914 916 -1 913 882 891 -1 882 913 918 -1 891 882 884 -1 908 914 909 -1 914 908 917 -1 917 908 897 -1 894 885 897 -1 885 894 911 -1 885 911 888 -1 897 919 917 -1 919 897 885 -1 917 919 915 -1 905 903 900 -1 903 905 920 -1 903 920 898 -1 890 892 265 -1 892 890 921 -1 921 890 883 -1 883 890 889 -1 922 892 921 -1 892 922 893 -1 887 922 886 -1 922 264 893 -1 264 922 912 -1 912 922 887 -1 883 922 921 -1 922 883 886 -1 923 924 925 -1 924 923 926 -1 924 926 927 -1 928 929 279 -1 929 928 930 -1 931 932 933 -1 932 931 934 -1 935 936 937 -1 936 935 938 -1 939 940 941 -1 940 939 942 -1 943 933 944 -1 933 943 931 -1 945 931 946 -1 931 945 934 -1 940 924 927 -1 924 940 947 -1 948 949 950 -1 949 948 951 -1 952 953 954 -1 953 952 955 -1 956 957 948 -1 957 956 283 -1 958 959 960 -1 959 958 961 -1 940 926 941 -1 926 940 927 -1 930 287 929 -1 287 930 962 -1 963 942 939 -1 942 963 964 -1 282 287 286 -1 287 282 279 -1 287 279 929 -1 965 936 966 -1 936 965 937 -1 967 968 969 -1 968 967 970 -1 951 971 972 -1 971 951 973 -1 974 951 972 -1 951 974 949 -1 945 966 934 -1 966 945 965 -1 946 943 975 -1 943 946 931 -1 930 944 962 -1 944 930 943 -1 974 964 963 -1 964 974 972 -1 935 976 938 -1 976 935 961 -1 961 935 959 -1 977 958 960 -1 958 977 978 -1 979 970 967 -1 970 979 980 -1 981 980 979 -1 980 981 982 -1 936 983 966 -1 983 936 984 -1 948 973 951 -1 973 948 957 -1 975 930 928 -1 930 975 943 -1 942 985 986 -1 985 942 964 -1 969 955 952 -1 955 969 968 -1 966 932 934 -1 932 966 983 -1 978 982 981 -1 982 978 977 -1 942 947 940 -1 947 942 986 -1 925 985 987 -1 985 925 986 -1 986 925 947 -1 947 925 924 -1 954 969 952 -1 969 954 967 -1 967 954 988 -1 967 988 979 -1 979 988 989 -1 979 989 981 -1 981 989 990 -1 981 990 284 -1 284 990 971 -1 284 971 973 -1 284 973 957 -1 284 957 285 -1 971 990 987 -1 971 987 985 -1 285 957 283 -1 981 288 978 -1 288 981 284 -1 978 288 933 -1 933 288 944 -1 944 288 962 -1 962 288 286 -1 978 933 958 -1 962 286 287 -1 958 932 961 -1 932 958 933 -1 961 932 983 -1 961 983 984 -1 961 984 976 -1 964 971 985 -1 971 964 972 -1 938 984 936 -1 984 938 976 -1 956 950 259 -1 950 956 948 -1 925 991 923 -1 991 925 987 -1 989 992 990 -1 992 989 993 -1 987 992 991 -1 992 987 990 -1 959 945 960 -1 945 959 965 -1 965 959 937 -1 937 959 935 -1 970 955 968 -1 955 970 953 -1 953 970 980 -1 953 980 994 -1 994 980 982 -1 994 982 993 -1 993 982 977 -1 993 977 278 -1 278 977 946 -1 278 946 975 -1 278 975 928 -1 278 928 282 -1 946 977 960 -1 946 960 945 -1 282 928 279 -1 993 280 992 -1 280 993 278 -1 992 280 974 -1 974 280 949 -1 949 280 950 -1 950 280 281 -1 992 974 991 -1 950 281 259 -1 991 963 923 -1 963 991 974 -1 923 963 939 -1 923 939 941 -1 923 941 926 -1 259 283 956 -1 283 259 285 -1 285 259 281 -1 954 994 988 -1 994 954 953 -1 280 288 284 -1 288 280 278 -1 988 993 989 -1 993 988 994 -1 280 285 281 -1 285 280 284 -1 825 995 826 -1 995 825 996 -1 996 997 998 -1 997 996 825 -1 999 1000 1001 -1 1000 999 1002 -1 545 997 543 -1 997 545 998 -1 999 544 1002 -1 544 999 547 -1 826 997 825 -1 997 826 543 -1 543 826 541 -1 544 1000 1002 -1 1000 544 1003 -1 1003 544 542 -1 1003 542 539 -1 1003 539 541 -1 1003 541 826 -1 541 540 543 -1 826 1004 1003 -1 1004 826 995 -1 1004 1000 1003 -1 1000 1004 1001 -1 549 545 550 -1 1004 999 1001 -1 999 1004 547 -1 547 1004 546 -1 546 1004 548 -1 548 1004 549 -1 549 1004 995 -1 998 995 996 -1 995 998 545 -1 995 545 549 -1 1005 1006 1007 -1 1007 1008 1005 -1 1008 1009 1010 -1 1010 1005 1008 -1 1005 1010 1011 -1 1011 1012 1005 -1 1011 1013 1012 -1 1014 1015 1016 -1 1016 1006 1014 -1 1006 1017 1014 -1 1017 1018 1014 -1 1007 1006 1016 -1 1016 1015 1010 -1 1010 1009 1016 -1 1009 1008 1007 -1 1007 1016 1009 -1 1014 1011 1010 -1 1010 1015 1014 -1 1012 1017 1006 -1 1006 1005 1012 -1 1013 1018 1017 -1 1017 1012 1013 -1 1011 1014 1018 -1 1018 1013 1011 -1 1019 1020 1021 -1 1020 1019 1022 -1 1023 1024 1025 -1 1024 1023 1026 -1 1027 1028 1029 -1 1028 1027 1030 -1 1031 1032 1033 -1 1032 1031 1034 -1 1027 1023 1030 -1 1023 1027 1026 -1 1026 1027 1019 -1 1026 1019 1033 -1 1033 1019 1021 -1 1033 1021 1031 -1 1033 1024 1026 -1 1024 1033 1032 -1 1030 1025 1028 -1 1025 1030 1023 -1 1027 1022 1019 -1 1022 1027 1029 -1 1035 1036 1037 -1 1036 1035 1038 -1 1039 1040 1041 -1 1040 1039 1042 -1 1040 1042 1043 -1 1043 1042 1036 -1 1043 1036 1044 -1 1044 1036 1038 -1 1041 1045 1046 -1 1045 1041 1040 -1 1047 1048 1049 -1 1048 1047 1050 -1 1048 1051 1049 -1 1051 1048 1052 -1 1052 1048 1053 -1 1053 1048 1054 -1 1055 1056 1057 -1 1056 1055 1058 -1 1058 1055 1059 -1 1058 1059 1060 -1 1060 1059 1061 -1 1060 1061 299 -1 299 1061 1062 -1 299 1062 1063 -1 299 1063 1064 -1 1062 1061 1065 -1 1065 1061 1049 -1 1065 1049 1051 -1 1064 1063 1066 -1 1060 412 1067 -1 412 1060 299 -1 1067 412 1068 -1 1068 412 1069 -1 1069 412 1035 -1 1067 1068 1070 -1 1067 1070 1071 -1 1069 1035 1037 -1 1071 1072 1041 -1 1072 1071 1070 -1 1041 1072 1073 -1 1041 1073 1074 -1 1041 1074 1039 -1 1046 1071 1041 -1 1071 1046 1075 -1 1076 1056 1077 -1 1056 1076 1057 -1 1078 1039 1074 -1 1039 1078 1042 -1 1063 1079 1066 -1 1079 1063 1080 -1 1081 1082 1083 -1 1082 1081 1084 -1 1085 1074 1073 -1 1074 1085 1078 -1 1086 1087 1088 -1 1087 1086 1085 -1 1085 1086 1089 -1 1085 1089 1078 -1 1078 1089 1036 -1 1078 1036 1042 -1 1090 1049 1061 -1 1049 1090 1047 -1 1091 1092 1093 -1 1092 1091 1094 -1 1083 1095 1096 -1 1095 1083 1082 -1 1097 1057 1076 -1 1057 1097 1055 -1 1062 1080 1063 -1 1080 1062 1098 -1 1036 1069 1037 -1 1069 1036 1089 -1 1072 1085 1073 -1 1085 1072 1087 -1 412 1038 1035 -1 1038 412 411 -1 1099 299 1064 -1 299 1099 300 -1 1100 1055 1097 -1 1055 1100 1059 -1 1070 1087 1072 -1 1087 1070 1088 -1 1101 1081 1102 -1 1081 1101 1084 -1 1068 1088 1070 -1 1088 1068 1086 -1 1051 1103 1104 -1 1103 1051 1052 -1 1053 1103 1052 -1 1103 1053 1105 -1 1103 1106 1104 -1 1106 1103 1098 -1 1098 1103 1105 -1 1098 1105 1080 -1 1080 1105 1107 -1 1080 1107 1079 -1 1062 1106 1098 -1 1106 1062 1065 -1 1093 1083 1096 -1 1083 1093 1081 -1 1081 1093 1092 -1 1081 1092 1102 -1 1102 1092 1040 -1 1102 1040 1043 -1 1044 1102 1043 -1 1102 1044 1101 -1 1096 1091 1093 -1 1091 1096 1095 -1 1065 1104 1106 -1 1104 1065 1051 -1 1054 1105 1053 -1 1105 1054 1107 -1 1090 1059 1100 -1 1059 1090 1061 -1 1094 1040 1092 -1 1040 1094 1045 -1 1089 1068 1069 -1 1068 1089 1086 -1 1108 1067 1109 -1 1067 1108 1060 -1 1046 1095 1075 -1 1095 1046 1091 -1 1091 1046 1094 -1 1094 1046 1045 -1 1110 1076 1077 -1 1076 1110 1097 -1 1097 1110 1108 -1 1097 1108 1100 -1 1100 1108 1109 -1 1100 1109 411 -1 411 1109 1084 -1 411 1084 1101 -1 411 1101 1038 -1 1084 1109 1082 -1 1082 1109 1075 -1 1082 1075 1095 -1 1038 1101 1044 -1 1100 300 1090 -1 300 1100 411 -1 1090 300 1029 -1 1029 300 1022 -1 1022 300 1099 -1 1090 1029 1028 -1 1090 1028 1047 -1 1022 1099 1020 -1 1047 1025 1050 -1 1025 1047 1028 -1 1050 1025 1024 -1 1050 1024 1032 -1 1050 1032 1034 -1 1071 1109 1067 -1 1109 1071 1075 -1 1064 1020 1099 -1 1020 1064 1021 -1 1021 1064 1066 -1 1021 1066 1079 -1 1079 1031 1021 -1 1031 1079 1107 -1 1031 1050 1034 -1 1050 1031 1107 -1 1050 1107 1054 -1 1050 1054 1048 -1 1110 1060 1108 -1 1060 1110 1058 -1 1077 1058 1110 -1 1058 1077 1056 -1 1111 1112 1113 -1 1112 1111 1114 -1 1114 1115 1116 -1 1115 1114 1111 -1 1111 1117 1115 -1 1117 1111 1118 -1 1117 1118 1119 -1 1120 1121 1122 -1 1121 1120 1113 -1 1113 1120 1123 -1 1123 1120 1124 -1 1112 1121 1113 -1 1121 1115 1122 -1 1115 1121 1116 -1 1116 1112 1114 -1 1112 1116 1121 -1 1120 1115 1117 -1 1115 1120 1122 -1 1118 1113 1123 -1 1113 1118 1111 -1 1119 1123 1124 -1 1123 1119 1118 -1 1117 1124 1120 -1 1124 1117 1119 -1 1125 1126 1127 -1 1126 1125 1128 -1 1129 1130 1131 -1 1130 1129 1132 -1 1133 1125 1134 -1 1125 1133 1128 -1 1128 1133 1135 -1 1132 1136 1130 -1 1136 1132 1137 -1 1138 1131 1139 -1 1131 1138 1129 -1 1140 1141 1142 -1 1141 1140 1143 -1 1138 1144 1135 -1 1144 1138 1141 -1 1144 1141 1143 -1 1135 1145 1128 -1 1145 1135 1144 -1 1128 1145 1126 -1 1126 776 1127 -1 776 1126 1145 -1 776 1144 775 -1 1144 776 1145 -1 1146 1136 1147 -1 1136 1146 1130 -1 1146 1148 1149 -1 1148 1146 1150 -1 1148 1150 1151 -1 1148 1151 1152 -1 1149 1130 1146 -1 1130 1149 1131 -1 1144 1140 775 -1 1140 1144 1143 -1 1149 1133 1134 -1 1133 1149 1148 -1 1133 1148 1152 -1 1133 1152 1135 -1 1129 1151 1132 -1 1151 1129 1152 -1 1138 1152 1129 -1 1152 1138 1135 -1 1147 1150 1146 -1 1150 1147 1153 -1 1150 1153 1151 -1 1134 776 1139 -1 776 1134 1125 -1 776 1125 1127 -1 1139 775 1142 -1 775 1139 776 -1 1142 775 1140 -1 1153 1136 1137 -1 1136 1153 1147 -1 1134 1131 1149 -1 1131 1134 1139 -1 1141 1139 1142 -1 1139 1141 1138 -1 1132 1153 1137 -1 1153 1132 1151 -1 1154 1155 1156 -1 1155 1154 1157 -1 1158 1159 1160 -1 1159 1158 1161 -1 1162 1154 1163 -1 1154 1162 1157 -1 1157 1162 1164 -1 1161 1165 1159 -1 1165 1161 1166 -1 1167 1160 1168 -1 1160 1167 1158 -1 1169 1170 1171 -1 1170 1169 1172 -1 1167 1173 1164 -1 1173 1167 1170 -1 1173 1170 1172 -1 1164 1174 1157 -1 1174 1164 1173 -1 1157 1174 1155 -1 1155 1003 1156 -1 1003 1155 1174 -1 1003 1173 1000 -1 1173 1003 1174 -1 1175 1165 1176 -1 1165 1175 1159 -1 1175 1177 1178 -1 1177 1175 1179 -1 1177 1179 1180 -1 1177 1180 1181 -1 1178 1159 1175 -1 1159 1178 1160 -1 1173 1169 1000 -1 1169 1173 1172 -1 1178 1162 1163 -1 1162 1178 1177 -1 1162 1177 1181 -1 1162 1181 1164 -1 1158 1180 1161 -1 1180 1158 1181 -1 1167 1181 1158 -1 1181 1167 1164 -1 1176 1179 1175 -1 1179 1176 1182 -1 1179 1182 1180 -1 1163 1003 1168 -1 1003 1163 1154 -1 1003 1154 1156 -1 1168 1000 1171 -1 1000 1168 1003 -1 1171 1000 1169 -1 1182 1165 1166 -1 1165 1182 1176 -1 1163 1160 1178 -1 1160 1163 1168 -1 1170 1168 1171 -1 1168 1170 1167 -1 1161 1182 1166 -1 1182 1161 1180 -1 1183 796 787 -1 796 1183 1184 -1 787 1185 1183 -1 1185 787 792 -1 795 787 796 -1 787 795 792 -1 1183 1186 1184 -1 1186 1183 1185 -1 1186 792 795 -1 792 1186 1185 -1 1186 796 1184 -1 796 1186 795 -1 1187 1188 1189 -1 1188 1187 1190 -1 1191 1192 1193 -1 1192 1191 1194 -1 1195 1187 1196 -1 1187 1195 1190 -1 1190 1195 1197 -1 1194 1198 1192 -1 1198 1194 1199 -1 1200 1193 1201 -1 1193 1200 1191 -1 1202 1203 1204 -1 1203 1202 1205 -1 1200 1206 1197 -1 1206 1200 1203 -1 1206 1203 1205 -1 1197 1207 1190 -1 1207 1197 1206 -1 1190 1207 1188 -1 1188 1208 1189 -1 1208 1188 1207 -1 1208 1206 1209 -1 1206 1208 1207 -1 1210 1198 1211 -1 1198 1210 1192 -1 1210 1212 1213 -1 1212 1210 1214 -1 1212 1214 1215 -1 1212 1215 1216 -1 1213 1192 1210 -1 1192 1213 1193 -1 1206 1202 1209 -1 1202 1206 1205 -1 1213 1195 1196 -1 1195 1213 1212 -1 1195 1212 1216 -1 1195 1216 1197 -1 1191 1215 1194 -1 1215 1191 1216 -1 1200 1216 1191 -1 1216 1200 1197 -1 1211 1214 1210 -1 1214 1211 1217 -1 1214 1217 1215 -1 1196 1208 1201 -1 1208 1196 1187 -1 1208 1187 1189 -1 1201 1209 1204 -1 1209 1201 1208 -1 1204 1209 1202 -1 1217 1198 1199 -1 1198 1217 1211 -1 1196 1193 1213 -1 1193 1196 1201 -1 1203 1201 1204 -1 1201 1203 1200 -1 1194 1217 1199 -1 1217 1194 1215 -1 "
						                >
							<Coordinate DEF="coords_ME_05-6_001"
							            point="21.988657 48.769787 21.295275 25.925665 44.832779 21.295275 25.925665 48.769787 21.295275 21.988657 44.832779 21.295275 23.957161 44.242229 21.295275 21.988657 32.469818 20.704725 23.957161 32.037506 21.295275 21.988657 32.628056 21.295275 23.957161 31.958385 21.000000 23.957161 31.371855 20.684603 25.925665 25.541441 20.114174 25.925665 31.446953 20.114174 23.957161 25.616541 20.684603 21.988657 24.360340 21.295275 23.957161 25.030010 21.000000 21.988657 24.518578 20.704725 23.957161 24.950890 21.295275 21.988657 44.242229 20.272411 23.957161 44.163109 21.000000 21.988657 44.674541 20.704725 23.957161 43.946953 20.783844 23.957161 31.742229 20.783844 25.925665 32.037506 20.272411 21.988657 25.541441 20.114174 21.988657 31.446953 20.114174 25.925665 44.674541 20.704725 23.957161 37.234734 21.000000 21.988657 37.155617 20.272411 21.988657 36.723301 20.704725 23.957161 37.450890 20.783844 25.925665 40.895771 15.389764 21.988657 43.520443 15.625984 25.925665 43.520443 15.625984 21.988657 40.895771 15.389764 23.957161 37.155617 21.295275 25.925665 36.723301 20.704725 25.925665 36.565063 21.295275 25.925665 20.423332 18.933071 21.988657 20.423332 21.295275 21.988657 20.423332 18.933071 25.925665 20.423332 21.295275 25.925665 32.628056 21.295275 25.925665 32.469818 20.704725 21.988657 43.651676 20.114174 23.957161 43.576580 20.684603 21.988657 33.021755 21.295275 25.925665 33.021755 21.295275 21.988657 24.950890 20.272411 23.957161 25.246166 20.783844 25.925665 25.672676 15.625984 21.988657 28.297348 15.389764 25.925665 28.297348 15.389764 21.988657 25.672676 15.625984 25.925665 37.746166 20.114174 23.957161 37.821266 20.684603 25.925665 37.155617 20.272411 21.988657 37.746166 20.114174 21.988657 32.037506 20.272411 25.925665 24.360340 21.295275 21.988657 20.948265 17.751968 25.925665 20.948265 17.751968 25.925665 23.572937 16.098425 21.988657 23.572937 16.098425 25.925665 21.998135 16.807087 21.988657 21.998135 16.807087 25.925665 24.950890 20.272411 25.925665 24.518578 20.704725 25.925665 43.651676 20.114174 25.925665 44.242229 20.272411 25.925665 48.769787 18.933071 25.925665 45.620182 16.098425 25.925665 47.194984 16.807087 25.925665 48.244854 17.751968 25.925665 36.171364 17.358267 25.925665 36.171364 21.295275 25.925665 33.021755 17.358267 21.988657 36.565063 21.295275 21.988657 48.769787 18.933071 21.988657 48.244854 17.751968 21.988657 47.194984 16.807087 21.988657 33.021755 17.358267 21.988657 45.620182 16.098425 21.988657 36.171364 17.358267 21.988657 36.171364 21.295275 34.980782 21.210733 22.870079 36.555588 21.210733 22.870079 36.555588 21.210733 23.657480 34.980782 21.210733 23.657480 34.980782 33.021755 23.657480 34.980782 33.021755 21.295275 34.980782 20.423332 21.295275 34.980782 20.795889 22.430948 34.980782 20.525730 21.890629 36.555588 20.423332 21.295275 36.555588 33.021755 21.295275 36.555588 33.021755 23.657480 36.555588 20.795889 22.430948 36.555588 20.525730 21.890629 34.980782 47.982388 22.870079 36.555588 47.982388 23.657480 36.555588 47.982388 22.870079 34.980782 47.982388 23.657480 34.980782 36.171364 21.295275 34.980782 36.171364 23.657480 34.980782 48.769787 21.295275 34.980782 48.397228 22.430948 34.980782 48.667389 21.890629 36.555588 48.769787 21.295275 36.555588 36.171364 23.657480 36.555588 36.171364 21.295275 36.555588 48.397228 22.430948 36.555588 48.667389 21.890629 34.193382 20.423332 21.295275 33.799683 20.581570 20.704725 33.799683 20.423332 21.295275 34.193382 20.581570 20.704725 34.193382 21.013882 20.272411 33.799683 21.013882 20.272411 33.799679 31.446953 20.114174 34.193382 21.604433 20.114174 34.193382 31.446953 20.114174 33.799683 21.604433 20.114174 33.799679 36.171364 21.295275 34.193382 36.565063 21.295275 33.799679 36.565063 21.295275 37.736687 36.171364 21.295275 33.799679 48.769787 21.295275 37.342987 48.769787 21.295275 33.799679 52.706795 21.295275 34.193382 48.769787 21.295275 37.342987 36.565063 21.295275 37.736687 36.565063 21.295275 37.736687 48.769787 21.295275 37.736687 52.706795 21.295275 33.799683 16.486324 21.295275 33.799683 16.486324 18.933071 33.799683 19.320969 15.744095 33.799679 47.982388 15.389764 33.799683 21.210733 15.389764 33.799679 49.872150 15.744095 33.799683 17.903646 16.452755 33.799679 51.289474 16.452755 33.799683 16.958765 17.515749 33.799679 33.021755 17.358267 33.799679 32.037506 20.272411 33.799679 32.469818 20.704725 33.799679 33.021755 21.295275 33.799679 32.628056 21.295275 33.799679 36.171364 17.358267 33.799679 52.234356 17.515749 33.799679 37.746166 20.114174 33.799679 37.155613 20.272411 33.799679 36.723301 20.704725 33.799679 52.706795 18.933071 33.799679 47.588684 20.114174 33.799679 48.179237 20.272411 33.799679 48.611549 20.704725 37.736687 47.982388 15.389764 37.736687 49.872150 15.744095 37.736687 33.021755 17.358267 37.736687 36.171364 17.358267 37.736687 47.588684 20.114174 37.736687 52.706795 18.933071 37.736687 48.179237 20.272411 37.736687 48.611549 20.704725 37.736691 21.210733 15.389764 37.736691 19.320969 15.744095 37.736687 51.289474 16.452755 37.736691 17.903646 16.452755 37.736687 52.234356 17.515749 37.736687 37.746166 20.114174 37.736687 37.155617 20.272411 37.736687 36.723301 20.704725 37.736691 16.958765 17.515749 37.736687 31.446953 20.114174 37.736687 32.037506 20.272411 37.736687 32.469818 20.704725 37.736687 33.021755 21.295275 37.736691 16.486324 18.933071 37.736687 32.628056 21.295275 37.736691 21.604433 20.114174 37.736691 16.486324 21.295275 37.736691 21.013882 20.272411 37.736691 20.581570 20.704725 37.736691 20.423332 21.295275 37.342987 32.628056 21.295275 34.193382 32.628056 21.295275 37.342987 20.423332 21.295275 34.193382 37.746166 20.114174 34.193382 37.155617 20.272411 34.193382 36.723301 20.704725 37.342987 48.179237 20.272411 37.342987 37.746166 20.114174 37.342987 47.588684 20.114174 37.342987 37.155617 20.272411 37.342987 48.611549 20.704725 37.342987 36.723301 20.704725 34.193382 47.588684 20.114174 37.342987 20.581570 20.704725 37.342987 21.013882 20.272411 37.342987 32.037506 20.272411 37.342987 21.604433 20.114174 37.342987 31.446953 20.114174 37.342987 32.469818 20.704725 34.193382 32.469818 20.704725 34.193382 32.037506 20.272411 34.193382 48.179237 20.272411 34.193382 48.611549 20.704725 26.516216 36.565063 15.389764 33.799679 32.628056 15.389764 26.516216 32.628056 15.389764 33.799679 36.565063 15.389764 27.106768 36.565063 22.870079 26.691925 32.628056 22.430948 27.106768 32.628056 22.870079 26.691925 36.565063 22.430948 27.106768 36.565063 23.657480 27.106768 32.628056 23.657480 34.980782 32.628056 23.657480 34.980782 32.628056 21.295275 33.799679 32.628056 17.358267 25.925665 36.565063 16.177166 26.516216 32.628056 16.177166 25.925665 32.628056 16.177166 26.516216 36.565063 16.177166 14.114641 34.596561 20.564192 17.837955 32.628056 16.177166 15.790711 32.628056 21.295275 15.869452 34.596561 16.177166 18.152916 34.596561 15.389764 20.121420 32.628056 15.389764 17.837955 36.565063 16.177166 15.790711 36.565063 21.295275 21.988657 36.565063 16.177166 21.398106 32.628056 16.177166 21.398106 36.565063 16.177166 21.988657 32.628056 16.177166 21.398106 36.565063 15.389764 20.121420 36.565063 15.389764 33.799679 36.565063 17.358267 26.319366 36.565063 21.295275 26.421764 36.565063 21.890629 34.980782 36.565063 21.295275 34.980782 36.565063 23.657480 21.398106 32.628056 15.389764 26.319366 32.628056 21.295275 26.421764 32.628056 21.890629 36.555588 36.565063 21.295275 36.555588 36.565063 23.657480 37.736687 36.565063 17.358267 36.555588 32.628056 21.295275 36.555588 32.628056 23.657480 37.736687 32.628056 17.358267 37.736687 32.628056 15.389764 37.736687 36.565063 15.389764 45.020153 36.565063 15.389764 45.020153 32.628056 15.389764 45.020153 36.565063 16.177166 45.610703 36.565063 16.177166 45.610703 36.565063 21.295275 45.217003 36.565063 21.295275 45.114605 36.565063 21.890629 44.844444 36.565063 22.430948 44.429604 36.565063 22.870079 44.429604 36.565063 23.657480 44.429604 32.628056 23.657480 44.429604 32.628056 22.870079 44.844444 32.628056 22.430948 45.114605 32.628056 21.890629 45.217003 32.628056 21.295275 50.138264 36.565063 16.177166 49.547710 32.628056 16.177166 49.547710 36.565063 16.177166 50.138264 32.628056 16.177166 50.138264 32.628056 15.389764 50.138264 36.565063 15.389764 45.020153 32.628056 16.177166 45.610703 32.628056 16.177166 45.610703 33.021755 17.358267 45.610703 32.628056 21.295275 45.610703 36.171364 17.358267 45.610703 36.171364 21.295275 45.610703 33.021755 21.295275 49.547710 36.565063 21.295275 49.547710 36.171364 17.358267 49.547710 36.171364 21.295275 49.547710 33.021755 21.295275 49.547710 32.628056 21.295275 49.547710 33.021755 17.358267 51.414948 36.565063 15.389764 51.414948 32.628056 15.389764 53.383453 34.596561 15.389764 53.698414 36.565063 16.177166 55.745659 36.565063 21.295275 55.666916 34.596561 16.177166 53.698414 32.628056 16.177166 57.421726 34.596561 20.564192 55.745659 32.628056 21.295275 37.736687 33.021755 15.389764 33.799679 33.021755 9.090551 37.736687 33.021755 9.090551 33.799679 33.021755 15.389764 33.799679 32.628056 9.090551 31.831177 36.565063 7.122047 27.894169 32.628056 7.122047 27.894169 36.565063 7.122047 31.831177 32.628056 7.122047 32.618580 33.021755 15.389764 32.618580 32.628056 15.389764 33.799679 36.171364 15.389764 37.736687 36.171364 15.389764 38.917789 36.565063 15.389764 27.106768 33.021755 15.389764 32.618580 36.171364 15.389764 27.106768 36.171364 15.389764 32.618580 36.565063 15.389764 38.917789 32.628056 15.389764 38.917789 36.171364 15.389764 38.917789 33.021755 15.389764 44.429604 36.171364 15.389764 44.429604 33.021755 15.389764 21.594955 36.565063 13.027559 21.594955 32.628056 10.665355 21.594955 32.628056 13.027559 21.594955 36.565063 10.665355 37.736687 32.628056 9.090551 45.217003 36.171364 13.027559 45.114605 33.021755 13.622912 45.217003 33.021755 13.027559 45.114605 36.171364 13.622912 44.429604 36.171364 14.602363 44.429604 33.021755 14.602363 49.311493 36.565063 9.248032 49.941414 32.628056 10.665355 49.311493 32.628056 9.248032 49.941414 36.565063 10.665355 33.405979 33.021755 13.027559 33.247742 32.628056 12.437008 33.405979 32.628056 13.027559 33.247742 33.021755 12.437008 49.941414 36.565063 13.027559 45.217003 36.565063 13.027559 45.217003 32.628056 13.027559 49.941414 32.628056 13.027559 44.844444 36.171364 14.163231 44.844444 33.021755 14.163231 48.051651 36.565063 8.185040 46.161884 32.628056 7.476378 46.161884 36.565063 7.476378 48.051651 32.628056 8.185040 43.642200 32.628056 7.122047 43.642200 36.565063 7.122047 39.705193 32.628056 7.122047 39.705193 36.565063 7.122047 32.815430 32.628056 12.004694 32.815430 33.021755 12.004694 33.033421 33.021755 14.163231 33.303581 32.628056 13.622912 33.033421 32.628056 14.163231 33.303581 33.021755 13.622912 44.035900 32.628056 11.846457 44.626453 32.628056 12.004694 45.058765 32.628056 12.437008 39.705193 32.628056 9.090551 39.311493 32.628056 11.846457 38.720940 32.628056 12.004694 38.288628 32.628056 12.437008 38.130390 32.628056 13.027559 38.232788 32.628056 13.622912 38.502949 32.628056 14.163231 38.917789 32.628056 14.602363 32.618580 33.021755 14.602363 32.618580 32.628056 14.602363 27.500467 36.565063 11.846457 26.909918 36.565063 12.004694 26.477604 36.565063 12.437008 26.319366 36.565063 13.027559 25.374483 36.565063 7.476378 31.831177 36.565063 9.090551 23.484720 36.565063 8.185040 22.224878 36.565063 9.248032 33.799679 36.565063 9.090551 32.224876 36.565063 11.846457 32.815430 36.565063 12.004694 33.247742 36.565063 12.437008 33.405979 36.565063 13.027559 33.303581 36.565063 13.622912 33.033421 36.565063 14.163231 32.618580 36.565063 14.602363 39.705193 36.565063 9.090551 37.736687 36.565063 9.090551 38.288628 36.565063 12.437008 38.130390 36.565063 13.027559 38.720940 36.565063 12.004694 39.311493 36.565063 11.846457 38.232788 36.565063 13.622912 38.502949 36.565063 14.163231 38.917789 36.565063 14.602363 44.035900 36.565063 11.846457 44.626453 36.565063 12.004694 45.058765 36.565063 12.437008 38.288628 36.171364 12.437008 38.130390 36.171364 13.027559 38.720940 36.171364 12.004694 39.311493 36.171364 11.846457 44.035900 36.171364 11.846457 44.626453 36.171364 12.004694 45.058765 36.171364 12.437008 38.232788 36.171364 13.622912 38.502949 36.171364 14.163231 38.917789 36.171364 14.602363 37.736687 36.171364 9.090551 33.799679 36.171364 9.090551 32.815430 36.171364 12.004694 33.247742 36.171364 12.437008 32.224876 36.171364 11.846457 26.909918 36.171364 12.004694 27.500467 36.171364 11.846457 26.477604 36.171364 12.437008 26.319366 36.171364 13.027559 33.405979 36.171364 13.027559 33.303581 36.171364 13.622912 26.421764 36.171364 13.622912 33.033421 36.171364 14.163231 26.691925 36.171364 14.163231 32.618580 36.171364 14.602363 27.106768 36.171364 14.602363 26.477604 33.021755 12.437008 26.319366 32.628056 13.027559 26.477604 32.628056 12.437008 26.319366 33.021755 13.027559 26.909918 33.021755 12.004694 26.909918 32.628056 12.004694 27.500467 32.628056 11.846457 27.500467 33.021755 11.846457 32.224876 33.021755 11.846457 26.421764 33.021755 13.622912 26.691925 33.021755 14.163231 27.106768 33.021755 14.602363 32.224876 32.628056 11.846457 31.831177 32.628056 9.090551 22.224878 32.628056 9.248032 44.626453 33.021755 12.004694 45.058765 33.021755 12.437008 23.484720 32.628056 8.185040 25.374483 32.628056 7.476378 39.311493 33.021755 11.846457 44.035900 33.021755 11.846457 38.720940 33.021755 12.004694 38.288628 33.021755 12.437008 38.130390 33.021755 13.027559 38.232788 33.021755 13.622912 38.502949 33.021755 14.163231 38.917789 33.021755 14.602363 38.917789 36.565063 7.122047 42.067398 32.628056 7.122047 42.067398 36.565063 7.122047 38.917789 32.628056 7.122047 29.468971 36.565063 7.122047 32.618580 32.628056 7.122047 32.618580 36.565063 7.122047 29.468971 32.628056 7.122047 33.799679 40.895771 7.122047 37.736687 28.297348 7.122047 37.736687 40.895771 7.122047 33.799679 28.297348 7.122047 32.618580 36.565063 8.696851 32.618580 32.628056 8.696851 37.736687 36.565063 8.696851 37.736687 40.895771 10.271653 37.736687 32.628056 8.696851 37.736687 32.628056 10.271653 37.736687 28.297348 10.271653 37.736687 36.565063 10.271653 33.799679 28.297348 10.271653 33.799679 32.628056 8.696851 33.799679 32.628056 10.271653 33.799679 36.565063 10.271653 33.799679 40.895771 10.271653 33.799679 36.565063 8.696851 38.917789 32.628056 8.696851 38.917789 36.565063 8.696851 29.468971 40.895771 5.547244 41.237709 40.066086 4.668982 30.298658 40.066086 4.668982 42.067398 40.895771 5.547244 40.697392 39.525768 3.588344 30.838978 39.525768 3.588344 42.067398 28.297348 5.547244 41.237709 29.127033 4.668982 40.697392 29.667353 3.588344 40.492596 39.320969 2.397638 40.492596 29.872150 2.397638 31.043776 29.872150 2.397638 30.838978 29.667353 3.588344 30.298658 29.127033 4.668982 29.468971 28.297348 5.547244 29.468971 40.895771 10.271653 29.468971 36.565063 10.271653 31.043776 39.320969 2.397638 29.468971 32.628056 10.271653 42.067398 36.565063 10.271653 42.067398 32.628056 10.271653 42.067398 28.297348 10.271653 29.468971 28.297348 10.271653 30.298658 29.872150 4.668982 30.838978 29.872150 3.588344 29.468971 29.872150 5.547244 42.067398 40.895771 10.271653 25.531963 32.628056 29.562992 25.531963 34.006008 23.657480 25.531963 32.628056 23.657480 25.531963 34.006008 29.562992 23.957161 33.809158 29.562992 23.957161 33.809158 23.657480 25.531963 35.187111 29.562992 25.531963 36.565063 23.657480 25.531963 35.187111 23.657480 25.531963 36.565063 29.562992 23.957161 35.187111 23.657480 23.957161 35.187111 29.562992 33.799679 32.628056 23.657480 33.799683 36.565063 23.657480 33.799683 36.565063 29.562992 35.768185 33.021755 25.625984 33.799683 36.171364 25.625984 35.768185 36.171364 25.625984 33.799679 33.021755 25.625984 33.799679 32.628056 29.562992 33.799679 33.021755 29.562992 33.799683 36.171364 29.562992 37.736687 32.628056 23.657480 37.736687 33.021755 25.625984 37.736687 36.565063 23.657480 37.736687 32.628056 29.562992 37.736687 33.021755 29.562992 37.736687 36.171364 25.625984 37.736687 36.565063 29.562992 37.736687 36.171364 29.562992 47.579208 33.809158 23.657480 46.004406 35.187111 23.657480 47.579208 35.383961 23.657480 46.004406 34.006008 23.657480 46.004406 36.565063 23.657480 46.004406 32.628056 23.657480 46.004406 36.565063 29.562992 46.004406 34.006008 29.562992 46.004406 32.628056 29.562992 47.579208 33.809158 29.562992 47.579208 35.383961 29.562992 46.004406 35.187111 29.562992 47.579208 34.596558 29.562992 38.917789 21.604433 16.964567 37.736687 27.116245 16.964567 37.736687 21.604433 16.964567 38.917789 27.116245 16.964567 33.033421 26.701401 14.163231 33.303581 22.289436 13.622912 33.033421 22.019278 14.163231 33.303581 26.431242 13.622912 38.917789 26.328844 14.602363 38.917789 21.604433 14.602363 38.917789 27.116245 14.602363 33.405979 22.391836 13.027559 33.405979 26.328844 13.027559 32.618580 27.116245 14.602363 32.618580 21.604433 14.602363 33.799679 21.604433 16.964567 32.618580 27.116245 16.964567 32.618580 21.604433 16.964567 33.799679 27.116245 16.964567 33.799679 27.116245 15.389764 37.736687 27.116245 15.389764 37.736687 21.604433 15.389764 33.799679 21.604433 15.389764 38.232788 22.289436 13.622912 38.130390 22.391836 13.027559 38.502949 26.328844 14.163231 38.502949 22.019278 14.163231 38.232788 26.328844 13.622912 38.232788 26.431242 13.622912 38.502949 26.701401 14.163231 38.130390 26.328844 13.027559 25.925665 32.628056 16.964567 25.925665 31.053253 15.389764 25.925665 31.053253 16.964567 25.925665 32.628056 15.389764 21.988657 31.053253 15.389764 21.988657 31.053253 16.964567 21.988657 38.139866 15.389764 21.988657 36.565063 16.964567 21.988657 38.139866 16.964567 21.988657 32.628056 16.964567 20.807554 32.628056 16.964567 20.807554 31.053253 16.964567 27.106768 32.628056 15.389764 27.106768 32.628056 16.964567 20.807554 36.565063 15.389764 20.807554 32.628056 15.389764 27.106768 31.053253 16.964567 20.807554 38.139866 14.602363 26.691925 37.725025 14.163231 21.222399 37.725025 14.163231 27.106768 38.139866 14.602363 26.421764 37.454865 13.622912 21.492558 37.454865 13.622912 26.421764 31.738255 13.622912 26.691925 37.352467 14.163231 26.691925 31.468096 14.163231 26.421764 37.352467 13.622912 21.594955 31.840654 13.027559 26.319366 31.840654 13.027559 21.492558 31.738255 13.622912 21.222399 31.468096 14.163231 27.106768 37.352467 14.602363 27.106768 31.053253 14.602363 21.594955 37.352467 13.027559 20.807554 38.139866 16.964567 20.807554 36.565063 16.964567 20.807554 31.053253 14.602363 27.106768 36.565063 16.964567 25.925665 38.139866 16.964567 25.925665 36.565063 16.964567 27.106768 38.139866 16.964567 25.925665 36.565063 15.389764 25.925665 38.139866 15.389764 26.319366 37.352467 13.027559 27.106768 36.565063 15.389764 38.917789 47.982388 25.232283 37.736687 53.494198 25.232283 37.736687 47.982388 25.232283 38.917789 53.494198 25.232283 33.033421 53.079353 22.430948 33.303581 48.667389 21.890629 33.033421 48.397228 22.430948 33.303581 52.809196 21.890629 38.917789 52.706795 22.870079 38.917789 47.982388 22.870079 38.917789 53.494198 22.870079 33.405979 48.769787 21.295275 33.405979 52.706795 21.295275 32.618580 53.494198 22.870079 32.618580 47.982388 22.870079 33.799679 47.982388 25.232283 32.618580 53.494198 25.232283 32.618580 47.982388 25.232283 33.799679 53.494198 25.232283 33.799679 53.494198 23.657480 37.736687 53.494198 23.657480 37.736687 47.982388 23.657480 33.799679 47.982388 23.657480 38.232788 48.667389 21.890629 38.130390 48.769787 21.295275 38.502949 52.706795 22.430948 38.502949 48.397228 22.430948 38.232788 52.706795 21.890629 38.232788 52.809196 21.890629 38.502949 53.079353 22.430948 38.130390 52.706795 21.295275 27.106768 44.045380 25.232283 25.925665 49.557190 25.232283 25.925665 44.045380 25.232283 27.106768 49.557190 25.232283 21.222399 49.142345 22.430948 21.492558 44.730381 21.890629 21.222399 44.460220 22.430948 21.492558 48.872189 21.890629 27.106768 48.769787 22.870079 27.106768 44.045380 22.870079 27.106768 49.557190 22.870079 21.594955 44.832779 21.295275 21.594955 48.769787 21.295275 20.807554 49.557190 22.870079 20.807554 44.045380 22.870079 21.988657 44.045380 25.232283 20.807554 49.557190 25.232283 20.807554 44.045380 25.232283 21.988657 49.557190 25.232283 21.988657 49.557190 23.657480 25.925665 49.557190 23.657480 25.925665 44.045380 23.657480 21.988657 44.045380 23.657480 26.421764 44.730381 21.890629 26.319366 44.832779 21.295275 26.691925 48.769787 22.430948 26.691925 44.460220 22.430948 26.421764 48.769787 21.890629 26.421764 48.872189 21.890629 26.691925 49.142345 22.430948 26.319366 48.769787 21.295275 27.106768 19.635929 25.232283 25.925665 25.147741 25.232283 25.925665 19.635929 25.232283 27.106768 25.147741 25.232283 21.222399 24.732897 22.430948 21.492558 20.320932 21.890629 21.222399 20.050774 22.430948 21.492558 24.462738 21.890629 27.106768 24.360340 22.870079 27.106768 19.635929 22.870079 27.106768 25.147741 22.870079 21.594955 20.423332 21.295275 21.594955 24.360340 21.295275 20.807554 25.147741 22.870079 20.807554 19.635929 22.870079 21.988657 19.635929 25.232283 20.807554 25.147741 25.232283 20.807554 19.635929 25.232283 21.988657 25.147741 25.232283 21.988657 25.147741 23.657480 25.925665 25.147741 23.657480 25.925665 19.635929 23.657480 21.988657 19.635929 23.657480 26.421764 20.320932 21.890629 26.319366 20.423332 21.295275 26.691925 24.360340 22.430948 26.691925 20.050774 22.430948 26.421764 24.360340 21.890629 26.421764 24.462738 21.890629 26.691925 24.732897 22.430948 26.319366 24.360340 21.295275 25.925665 38.139866 23.657480 25.925665 36.565063 24.444881 25.925665 38.139866 25.232283 25.925665 31.053253 23.657480 25.925665 32.628056 24.444881 25.925665 32.628056 25.232283 25.925665 31.053253 25.232283 25.925665 36.565063 25.232283 27.106768 36.565063 25.232283 27.106768 38.139866 25.232283 26.516216 36.565063 23.657480 26.516216 32.628056 23.657480 27.106768 31.053253 22.870079 21.222399 31.468096 22.430948 26.691923 31.468096 22.430948 20.807554 31.053253 22.870079 21.492558 31.738255 21.890629 26.421764 31.738255 21.890629 21.492558 37.454865 21.890629 21.222399 31.840654 22.430948 21.222399 37.725025 22.430948 21.492558 31.840654 21.890629 26.319366 37.352467 21.295275 21.594955 37.352467 21.295275 26.421764 37.454865 21.890629 26.691925 37.725025 22.430948 20.807554 31.840654 22.870079 20.807554 38.139866 22.870079 26.319366 31.840654 21.295275 27.106768 31.053253 25.232283 27.106768 32.628056 25.232283 27.106768 38.139866 22.870079 20.807554 38.139866 25.232283 21.988657 31.053253 25.232283 21.988657 38.139866 25.232283 20.807554 31.053253 25.232283 21.988657 38.139866 23.657480 21.988657 31.053253 23.657480 21.594955 31.840654 21.295275 26.516216 36.565063 24.444881 26.516216 32.628056 24.444881 34.980782 15.698922 29.562992 33.799683 53.494198 29.562992 33.799683 15.698922 29.562992 34.980782 53.494198 29.562992 34.980782 53.494198 31.925198 34.980782 15.698922 31.925198 36.555588 53.494198 29.562992 36.555588 15.698922 31.925198 36.555588 15.698922 29.562992 36.555588 53.494198 31.925198 37.736691 53.494198 23.657480 33.799683 53.494198 23.657480 37.736691 53.494198 29.562992 33.799683 15.698922 23.657480 37.736691 15.698922 23.657480 37.736691 15.698922 29.562992 25.925665 36.565063 23.657480 25.925665 49.557190 29.562992 25.925665 36.565063 29.562992 25.925665 32.628056 29.562992 25.925665 32.628056 23.657480 25.138264 33.956795 29.562992 25.138264 33.956795 23.657480 25.138264 35.187111 29.562992 25.138264 35.187111 23.657480 25.138264 49.557190 29.562992 21.988657 19.635929 33.531849 25.925665 49.557190 34.964802 21.988657 49.557190 33.531849 25.925665 19.635929 34.964802 25.138264 49.557190 30.350393 25.925665 49.557190 30.350393 25.925665 19.635929 30.350393 25.138264 19.635929 30.350393 25.138264 19.635929 29.562992 25.925665 19.635929 29.562992 37.736691 15.698922 39.263664 33.799683 53.494198 37.830708 33.799683 15.698922 37.830708 37.736691 53.494198 39.263664 37.736691 53.494198 31.925198 33.799683 53.494198 31.925198 33.799683 15.698922 31.925198 37.736691 15.698922 31.925198 50.728813 44.045380 25.232283 49.547710 49.557190 25.232283 49.547710 44.045380 25.232283 50.728813 49.557190 25.232283 44.844444 49.142345 22.430948 45.114605 44.730381 21.890629 44.844444 44.460220 22.430948 45.114605 48.872189 21.890629 50.728813 48.769787 22.870079 50.728813 44.045380 22.870079 50.728813 49.557190 22.870079 45.217003 44.832779 21.295275 45.217003 48.769787 21.295275 44.429604 49.557190 22.870079 44.429604 44.045380 22.870079 45.610703 44.045380 25.232283 44.429604 49.557190 25.232283 44.429604 44.045380 25.232283 45.610703 49.557190 25.232283 45.610703 49.557190 23.657480 49.547710 49.557190 23.657480 49.547710 44.045380 23.657480 45.610703 44.045380 23.657480 50.043812 44.730381 21.890629 49.941414 44.832779 21.295275 50.313972 48.769787 22.430948 50.313972 44.460220 22.430948 50.043812 48.769787 21.890629 50.043812 48.872189 21.890629 50.313972 49.142345 22.430948 49.941414 48.769787 21.295275 45.610703 36.565063 16.964567 45.610703 38.139866 15.389764 45.610703 38.139866 16.964567 45.610703 36.565063 15.389764 49.547710 38.139866 15.389764 49.547710 38.139866 16.964567 49.547710 31.053253 15.389764 49.547710 32.628056 16.964567 49.547710 31.053253 16.964567 49.547710 36.565063 16.964567 50.728813 36.565063 16.964567 50.728813 38.139866 16.964567 44.429604 36.565063 15.389764 44.429604 36.565063 16.964567 50.728813 32.628056 15.389764 50.728813 36.565063 15.389764 44.429604 38.139866 16.964567 50.728813 31.053253 14.602363 44.844444 31.468096 14.163231 50.313972 31.468096 14.163231 44.429604 31.053253 14.602363 45.114605 31.738255 13.622912 50.043812 31.738255 13.622912 45.114605 37.454865 13.622912 44.844444 31.840654 14.163231 44.844444 37.725025 14.163231 45.114605 31.840654 13.622912 49.941414 37.352467 13.027559 45.217003 37.352467 13.027559 50.043812 37.454865 13.622912 50.313972 37.725025 14.163231 44.429604 31.840654 14.602363 44.429604 38.139866 14.602363 49.941414 31.840654 13.027559 50.728813 31.053253 16.964567 50.728813 32.628056 16.964567 50.728813 38.139866 14.602363 44.429604 32.628056 16.964567 45.610703 31.053253 16.964567 45.610703 32.628056 16.964567 44.429604 31.053253 16.964567 45.610703 32.628056 15.389764 45.610703 31.053253 15.389764 45.217003 31.840654 13.027559 44.429604 32.628056 15.389764 45.610703 31.053253 23.657480 45.610703 32.628056 24.444881 45.610703 31.053253 25.232283 45.610703 38.139866 23.657480 45.610703 36.565063 24.444881 45.610703 36.565063 25.232283 45.610703 38.139866 25.232283 45.610703 32.628056 25.232283 44.429604 32.628056 25.232283 44.429604 31.053253 25.232283 45.020153 32.628056 23.657480 45.020153 36.565063 23.657480 44.429604 38.139866 22.870079 50.313972 37.725025 22.430948 44.844444 37.725025 22.430948 50.728813 38.139866 22.870079 50.043812 37.454865 21.890629 45.114605 37.454865 21.890629 50.043812 31.738255 21.890629 50.313972 37.352467 22.430948 50.313972 31.468096 22.430948 50.043812 37.352467 21.890629 45.217003 31.840654 21.295275 49.941414 31.840654 21.295275 45.114605 31.738255 21.890629 44.844444 31.468096 22.430948 50.728813 37.352467 22.870079 50.728813 31.053253 22.870079 45.217003 37.352467 21.295275 44.429604 38.139866 25.232283 44.429604 36.565063 25.232283 44.429604 31.053253 22.870079 50.728813 31.053253 25.232283 49.547710 38.139866 25.232283 49.547710 31.053253 25.232283 50.728813 38.139866 25.232283 49.547710 31.053253 23.657480 49.547710 38.139866 23.657480 49.941414 37.352467 21.295275 45.020153 32.628056 24.444881 45.020153 36.565063 24.444881 45.610703 48.769787 21.295275 49.547710 44.832779 21.295275 49.547710 48.769787 21.295275 45.610703 44.832779 21.295275 47.579208 44.242229 21.295275 45.610703 32.469818 20.704725 47.579208 32.037506 21.295275 47.579208 31.958385 21.000000 47.579208 31.371855 20.684603 49.547710 25.541441 20.114174 49.547710 31.446953 20.114174 47.579208 25.616541 20.684603 45.610703 24.360340 21.295275 47.579208 25.030010 21.000000 45.610703 24.518578 20.704725 47.579208 24.950890 21.295275 45.610703 44.242229 20.272411 47.579208 44.163109 21.000000 45.610703 44.674541 20.704725 47.579208 43.946953 20.783844 47.579208 31.742229 20.783844 49.547710 32.037506 20.272411 45.610703 25.541441 20.114174 45.610703 31.446953 20.114174 49.547710 44.674541 20.704725 47.579208 37.234734 21.000000 45.610703 37.155617 20.272411 45.610703 36.723301 20.704725 47.579208 37.450890 20.783844 49.547710 40.895771 15.389764 45.610703 43.520443 15.625984 49.547710 43.520443 15.625984 45.610703 40.895771 15.389764 47.579208 37.155617 21.295275 49.547710 36.723301 20.704725 49.547710 20.423332 18.933071 45.610703 20.423332 21.295275 45.610703 20.423332 18.933071 49.547710 20.423332 21.295275 49.547710 32.469818 20.704725 45.610703 43.651676 20.114174 47.579208 43.576580 20.684603 45.610703 24.950890 20.272411 47.579208 25.246166 20.783844 49.547710 25.672676 15.625984 45.610703 28.297348 15.389764 49.547710 28.297348 15.389764 45.610703 25.672676 15.625984 49.547710 37.746166 20.114174 47.579208 37.821266 20.684603 49.547710 37.155617 20.272411 45.610703 37.746166 20.114174 45.610703 32.037506 20.272411 49.547710 24.360340 21.295275 45.610703 20.948265 17.751968 49.547710 20.948265 17.751968 49.547710 23.572937 16.098425 45.610703 23.572937 16.098425 49.547710 21.998135 16.807087 45.610703 21.998135 16.807087 49.547710 24.950890 20.272411 49.547710 24.518578 20.704725 49.547710 43.651676 20.114174 49.547710 44.242229 20.272411 49.547710 48.769787 18.933071 49.547710 45.620182 16.098425 49.547710 47.194984 16.807087 49.547710 48.244854 17.751968 45.610703 48.769787 18.933071 45.610703 48.244854 17.751968 45.610703 47.194984 16.807087 45.610703 45.620182 16.098425 49.547710 49.557190 29.562992 45.610703 49.557190 29.562992 45.610703 36.565063 23.657480 45.610703 36.565063 29.562992 45.610703 32.628056 29.562992 45.610703 19.635929 23.657480 45.610703 19.635929 29.562992 45.610703 32.628056 23.657480 49.547710 19.635929 23.657480 49.547710 19.635929 29.562992 34.980782 27.116245 14.602363 36.555588 27.116245 14.602363 36.555588 27.116245 15.389764 34.980782 27.116245 15.389764 34.980782 33.021755 15.389764 34.980782 33.021755 13.027559 34.980782 26.328844 13.027559 34.980782 26.701401 14.163231 34.980782 26.431242 13.622912 36.555588 26.328844 13.027559 36.555588 33.021755 13.027559 36.555588 33.021755 15.389764 36.555588 26.701401 14.163231 36.555588 26.431242 13.622912 37.342987 32.469818 12.437008 37.736687 32.628056 13.027559 37.342987 32.628056 13.027559 37.736687 32.469818 12.437008 37.342987 27.509945 11.846457 37.736687 26.919394 12.004694 37.736687 27.509945 11.846457 37.342987 26.919394 12.004694 37.342987 32.037506 12.004694 37.736687 31.446953 11.846457 37.736687 32.037506 12.004694 37.342987 31.446953 11.846457 37.342987 26.328844 13.027559 37.736687 26.487082 12.437008 37.342987 26.487082 12.437008 37.736687 26.328844 13.027559 33.799679 36.171364 13.027559 34.193382 36.565063 13.027559 33.799679 36.565063 13.027559 37.736687 36.171364 13.027559 33.799679 42.864277 13.027559 37.342987 42.864277 13.027559 33.799679 46.801285 13.027559 34.193382 42.864277 13.027559 37.342987 36.565063 13.027559 37.736687 36.565063 13.027559 37.736687 42.864277 13.027559 37.736687 46.801285 13.027559 37.736687 22.391836 10.665355 33.799679 22.391836 13.027559 33.799679 22.391836 10.665355 37.736687 22.391836 13.027559 33.799679 27.509945 11.846457 33.799679 26.919394 12.004694 33.799679 26.487082 12.437008 33.799679 26.328844 13.027559 33.799679 25.698921 7.476378 33.799679 41.289474 7.122047 33.799679 27.903646 7.122047 33.799679 43.494198 7.476378 33.799679 24.045378 8.185040 33.799679 45.147739 8.185040 33.799679 22.943016 9.248032 33.799679 32.037506 12.004694 33.799679 32.469818 12.437008 33.799679 33.021755 13.027559 33.799679 31.446953 11.846457 33.799679 32.628056 13.027559 33.799679 46.250103 9.248032 33.799679 37.155617 12.004694 33.799679 36.723301 12.437008 33.799679 37.746166 11.846457 33.799679 46.801285 10.665355 33.799679 41.683174 11.846457 33.799679 42.273724 12.004694 33.799679 42.706039 12.437008 37.736687 46.801285 10.665355 37.736687 27.903646 7.122047 37.736687 41.289474 7.122047 34.193382 42.706039 12.437008 34.193382 32.628056 13.027559 34.193382 32.469818 12.437008 37.342987 37.155617 12.004694 37.736687 37.746166 11.846457 37.342987 37.746166 11.846457 37.736687 37.155617 12.004694 34.193382 42.273724 12.004694 34.193382 37.155617 12.004694 34.193382 41.683174 11.846457 34.193382 37.746166 11.846457 34.193382 36.723301 12.437008 37.736687 22.943016 9.248032 37.736687 42.273724 12.004694 37.342987 42.706039 12.437008 37.342987 42.273724 12.004694 37.736687 42.706039 12.437008 37.736687 41.683174 11.846457 37.342987 41.683174 11.846457 37.736687 25.698921 7.476378 34.193382 32.037506 12.004694 37.736687 33.021755 13.027559 37.736687 24.045378 8.185040 37.736687 36.723301 12.437008 37.342987 36.723301 12.437008 34.193382 26.919394 12.004694 34.193382 27.509945 11.846457 34.193382 26.487082 12.437008 34.193382 31.446953 11.846457 34.193382 26.328844 13.027559 37.736687 45.147739 8.185040 37.736687 46.250103 9.248032 37.736687 43.494198 7.476378 34.980782 42.076874 14.602363 36.555588 42.076874 15.389764 36.555588 42.076874 14.602363 34.980782 42.076874 15.389764 34.980782 36.171364 13.027559 34.980782 36.171364 15.389764 34.980782 42.864277 13.027559 34.980782 42.491718 14.163231 34.980782 42.761879 13.622912 36.555588 42.864277 13.027559 36.555588 36.171364 15.389764 36.555588 36.171364 13.027559 36.555588 42.491718 14.163231 36.555588 42.761879 13.622912 38.917789 15.698922 25.232283 37.736691 21.210733 25.232283 37.736691 15.698922 25.232283 38.917789 21.210733 25.232283 33.033421 20.795889 22.430948 33.303581 16.383924 21.890629 33.033421 16.113766 22.430948 33.303581 20.525730 21.890629 38.917789 20.423332 22.870079 38.917789 15.698922 22.870079 38.917789 21.210733 22.870079 33.405979 16.486324 21.295275 33.405979 20.423332 21.295275 32.618580 21.210733 22.870079 32.618580 15.698922 22.870079 33.799683 15.698922 25.232283 32.618580 21.210733 25.232283 32.618580 15.698922 25.232283 33.799683 21.210733 25.232283 33.799683 21.210733 23.657480 37.736691 21.210733 23.657480 38.232788 16.383924 21.890629 38.130390 16.486324 21.295275 38.502949 20.423332 22.430948 38.502949 16.113766 22.430948 38.232788 20.423332 21.890629 38.232788 20.525730 21.890629 38.502949 20.795889 22.430948 38.130390 20.423332 21.295275 50.728813 19.635929 25.232283 49.547710 25.147741 25.232283 49.547710 19.635929 25.232283 50.728813 25.147741 25.232283 44.844444 24.732897 22.430948 45.114605 20.320932 21.890629 44.844444 20.050774 22.430948 45.114605 24.462738 21.890629 50.728813 24.360340 22.870079 50.728813 19.635929 22.870079 50.728813 25.147741 22.870079 45.217003 20.423332 21.295275 45.217003 24.360340 21.295275 44.429604 25.147741 22.870079 44.429604 19.635929 22.870079 45.610703 19.635929 25.232283 44.429604 25.147741 25.232283 44.429604 19.635929 25.232283 45.610703 25.147741 25.232283 45.610703 25.147741 23.657480 49.547710 25.147741 23.657480 50.043812 20.320932 21.890629 49.941414 20.423332 21.295275 50.313972 24.360340 22.430948 50.313972 20.050774 22.430948 50.043812 24.360340 21.890629 50.043812 24.462738 21.890629 50.313972 24.732897 22.430948 49.941414 24.360340 21.295275 48.606766 49.557190 29.562992 48.606766 19.635929 29.562992 48.606766 49.557190 30.350393 48.606766 19.635929 30.350393 38.917789 42.076874 16.964567 37.736687 47.588684 16.964567 37.736687 42.076874 16.964567 38.917789 47.588684 16.964567 33.033421 47.173843 14.163231 33.303581 42.761879 13.622912 33.033421 42.491718 14.163231 33.303581 46.903683 13.622912 38.917789 46.801285 14.602363 38.917789 42.076874 14.602363 38.917789 47.588684 14.602363 33.405979 42.864277 13.027559 33.405979 46.801285 13.027559 32.618580 47.588684 14.602363 32.618580 42.076874 14.602363 33.799679 42.076874 16.964567 32.618580 47.588684 16.964567 32.618580 42.076874 16.964567 33.799679 47.588684 16.964567 33.799679 47.588684 15.389764 37.736687 47.588684 15.389764 37.736687 42.076874 15.389764 33.799679 42.076874 15.389764 38.232788 42.761879 13.622912 38.130390 42.864277 13.027559 38.502949 46.801285 14.163231 38.502949 42.491718 14.163231 38.232788 46.801285 13.622912 38.232788 46.903683 13.622912 38.502949 47.173843 14.163231 38.130390 46.801285 13.027559 "
							            />
						</IndexedFaceSet>
					</Shape>
				</Group>
			</Transform>
		</Transform>
	</Scene>
</X3D>