<?xml version="1.0" encoding="UTF-8"?>
<!DOCTYPE X3D PUBLIC "ISO//Web3D//DTD X3D 3.0//EN" "http://www.web3d.org/specifications/x3d-3.0.dtd">
<X3D version="3.0" profile="Immersive" xmlns:xsd="http://www.w3.org/2001/XMLSchema-instance" xsd:noNamespaceSchemaLocation="http://www.web3d.org/specifications/x3d-3.0.xsd">
	<head>
		<meta name="filename" content="10-1.x3d" />
		<meta name="created" content="2026-06-21 15:09:37" />
		<meta name="generator" content="Blender 4.5.4 LTS" />
		<meta name="translator" content="Web3D X3D/VRML2 format v2.5.1" />
	</head>
	<Scene>
		<NavigationInfo headlight="true"
		                visibilityLimit="0.0"
		                type='"EXAMINE", "ANY"'
		                avatarSize="0.25, 1.75, 0.75"
		                />
		<Background DEF="WO_World"
		            groundColor="0.051 0.051 0.051"
		            skyColor="0.051 0.051 0.051"
		            />
		<Transform DEF="_10-1_TRANSFORM"
		           translation="0.000000 0.000000 0.000000"
		           scale="1.000000 1.000000 1.000000"
		           rotation="0.000000 0.707107 0.707107 3.141593"
		           >
			<Transform DEF="_10-1_ifs_TRANSFORM"
			           translation="0.000000 0.000000 0.000000"
			           scale="1.000000 1.000000 1.000000"
			           rotation="0.000000 1.000000 0.000000 0.000000"
			           >
				<Group DEF="group_ME_10-1_001">
					<Shape>
						<Appearance>
						</Appearance>
						<IndexedFaceSet solid="false"
						                coordIndex="0 1 2 -1 1 0 3 -1 3 4 5 -1 4 3 0 -1 4 0 6 -1 4 6 7 -1 4 8 9 -1 8 4 7 -1 8 7 10 -1 8 10 11 -1 12 9 13 -1 9 12 4 -1 14 11 15 -1 11 14 8 -1 16 4 12 -1 4 16 5 -1 16 3 5 -1 3 16 17 -1 1 17 18 -1 17 1 3 -1 19 2 20 -1 2 19 0 -1 19 6 0 -1 6 19 21 -1 7 21 10 -1 21 7 6 -1 22 8 14 -1 8 22 9 -1 18 2 1 -1 2 18 20 -1 11 23 15 -1 23 11 20 -1 20 11 21 -1 20 21 19 -1 21 11 10 -1 17 16 18 -1 23 18 13 -1 18 23 20 -1 13 18 16 -1 13 16 12 -1 9 23 13 -1 23 9 22 -1 22 15 23 -1 15 22 14 -1 24 25 26 -1 25 24 27 -1 28 29 30 -1 29 28 31 -1 32 24 33 -1 24 32 27 -1 27 32 34 -1 31 35 29 -1 35 31 36 -1 37 30 38 -1 30 37 28 -1 39 40 41 -1 40 39 42 -1 37 13 34 -1 13 37 40 -1 13 40 42 -1 34 23 27 -1 23 34 13 -1 27 23 25 -1 25 43 26 -1 43 25 23 -1 43 13 44 -1 13 43 23 -1 45 35 46 -1 35 45 29 -1 45 47 48 -1 47 45 49 -1 47 49 50 -1 47 50 51 -1 48 29 45 -1 29 48 30 -1 13 39 44 -1 39 13 42 -1 48 32 33 -1 32 48 47 -1 32 47 51 -1 32 51 34 -1 28 50 31 -1 50 28 51 -1 37 51 28 -1 51 37 34 -1 46 49 45 -1 49 46 52 -1 49 52 50 -1 33 43 38 -1 43 33 24 -1 43 24 26 -1 38 44 41 -1 44 38 43 -1 41 44 39 -1 52 35 36 -1 35 52 46 -1 33 30 48 -1 30 33 38 -1 40 38 41 -1 38 40 37 -1 31 52 36 -1 52 31 50 -1 53 54 55 -1 54 53 56 -1 57 58 59 -1 58 57 60 -1 61 53 62 -1 53 61 56 -1 56 61 63 -1 60 64 58 -1 64 60 65 -1 66 59 67 -1 59 66 57 -1 68 69 70 -1 69 68 71 -1 66 72 63 -1 72 66 69 -1 72 69 71 -1 63 73 56 -1 73 63 72 -1 56 73 54 -1 54 15 55 -1 15 54 73 -1 15 72 11 -1 72 15 73 -1 74 64 75 -1 64 74 58 -1 74 76 77 -1 76 74 78 -1 76 78 79 -1 76 79 80 -1 77 58 74 -1 58 77 59 -1 72 68 11 -1 68 72 71 -1 77 61 62 -1 61 77 76 -1 61 76 80 -1 61 80 63 -1 57 79 60 -1 79 57 80 -1 66 80 57 -1 80 66 63 -1 75 78 74 -1 78 75 81 -1 78 81 79 -1 62 15 67 -1 15 62 53 -1 15 53 55 -1 67 11 70 -1 11 67 15 -1 70 11 68 -1 81 64 65 -1 64 81 75 -1 62 59 77 -1 59 62 67 -1 69 67 70 -1 67 69 66 -1 60 81 65 -1 81 60 79 -1 82 83 84 -1 83 82 85 -1 86 85 87 -1 85 86 83 -1 83 86 88 -1 83 88 89 -1 83 89 90 -1 82 91 92 -1 91 82 84 -1 91 84 93 -1 93 84 94 -1 94 84 95 -1 86 96 97 -1 96 86 87 -1 98 94 95 -1 94 98 99 -1 100 92 101 -1 92 100 82 -1 89 97 102 -1 97 89 86 -1 86 89 88 -1 103 92 91 -1 92 103 101 -1 101 103 104 -1 87 105 96 -1 105 87 85 -1 106 96 105 -1 96 106 97 -1 107 108 109 -1 108 83 110 -1 83 108 84 -1 84 108 95 -1 95 108 98 -1 98 108 107 -1 111 112 113 -1 112 111 110 -1 112 110 90 -1 90 110 83 -1 98 114 115 -1 114 98 107 -1 114 107 116 -1 115 117 118 -1 117 115 114 -1 118 117 119 -1 120 121 122 -1 121 123 124 -1 123 121 125 -1 125 121 120 -1 126 119 127 -1 119 126 118 -1 128 129 112 -1 129 128 130 -1 129 130 131 -1 112 132 113 -1 132 112 129 -1 113 132 133 -1 119 134 127 -1 120 129 131 -1 129 120 122 -1 129 122 117 -1 117 122 134 -1 117 134 119 -1 135 133 136 -1 132 136 133 -1 136 132 114 -1 136 114 137 -1 137 114 138 -1 138 114 116 -1 111 139 110 -1 139 111 140 -1 140 111 136 -1 136 111 135 -1 123 141 124 -1 141 123 142 -1 130 120 131 -1 120 130 125 -1 99 143 104 -1 143 99 144 -1 98 144 99 -1 144 98 115 -1 99 93 94 -1 93 99 91 -1 91 99 103 -1 103 99 104 -1 133 111 113 -1 111 133 135 -1 121 134 122 -1 134 121 145 -1 126 141 142 -1 141 126 145 -1 145 126 134 -1 134 126 127 -1 141 121 124 -1 121 141 145 -1 146 115 128 -1 115 146 144 -1 128 102 146 -1 102 128 112 -1 129 114 132 -1 114 129 117 -1 104 100 101 -1 100 104 143 -1 106 144 146 -1 144 106 143 -1 138 107 109 -1 107 138 116 -1 128 123 130 -1 123 128 115 -1 123 115 142 -1 142 115 126 -1 126 115 118 -1 125 130 123 -1 105 143 106 -1 143 105 85 -1 143 85 82 -1 143 82 100 -1 90 102 112 -1 102 90 89 -1 146 97 106 -1 97 146 102 -1 138 147 137 -1 147 108 148 -1 108 147 109 -1 109 147 138 -1 147 139 140 -1 139 147 148 -1 136 147 140 -1 147 136 137 -1 139 108 110 -1 108 139 148 -1 149 150 151 -1 150 149 152 -1 150 152 153 -1 154 155 156 -1 155 154 157 -1 158 159 160 -1 159 158 161 -1 162 163 164 -1 163 162 165 -1 166 167 168 -1 167 166 169 -1 170 160 171 -1 160 170 158 -1 172 158 173 -1 158 172 161 -1 167 150 153 -1 150 167 174 -1 175 176 177 -1 176 175 178 -1 179 180 181 -1 180 179 182 -1 183 184 175 -1 184 183 185 -1 186 187 188 -1 187 186 189 -1 167 152 168 -1 152 167 153 -1 157 190 155 -1 190 157 191 -1 192 169 166 -1 169 192 193 -1 194 190 195 -1 190 194 156 -1 190 156 155 -1 196 163 197 -1 163 196 164 -1 198 199 200 -1 199 198 201 -1 178 202 203 -1 202 178 204 -1 205 178 203 -1 178 205 176 -1 172 197 161 -1 197 172 196 -1 173 170 206 -1 170 173 158 -1 157 171 191 -1 171 157 170 -1 205 193 192 -1 193 205 203 -1 162 207 165 -1 207 162 189 -1 189 162 187 -1 208 186 188 -1 186 208 209 -1 210 201 198 -1 201 210 211 -1 212 211 210 -1 211 212 213 -1 163 214 197 -1 214 163 215 -1 175 204 178 -1 204 175 184 -1 206 157 154 -1 157 206 170 -1 169 216 217 -1 216 169 193 -1 200 182 179 -1 182 200 199 -1 197 159 161 -1 159 197 214 -1 209 213 212 -1 213 209 208 -1 169 174 167 -1 174 169 217 -1 151 216 218 -1 216 151 217 -1 217 151 174 -1 174 151 150 -1 181 200 179 -1 200 181 198 -1 198 181 219 -1 198 219 210 -1 210 219 220 -1 210 220 212 -1 212 220 221 -1 212 221 222 -1 222 221 202 -1 222 202 204 -1 222 204 184 -1 222 184 223 -1 202 221 218 -1 202 218 216 -1 223 184 185 -1 212 224 209 -1 224 212 222 -1 209 224 160 -1 160 224 171 -1 171 224 191 -1 191 224 195 -1 209 160 186 -1 191 195 190 -1 186 159 189 -1 159 186 160 -1 189 159 214 -1 189 214 215 -1 189 215 207 -1 193 202 216 -1 202 193 203 -1 165 215 163 -1 215 165 207 -1 183 177 225 -1 177 183 175 -1 151 226 149 -1 226 151 218 -1 220 227 221 -1 227 220 228 -1 218 227 226 -1 227 218 221 -1 195 229 194 -1 229 195 224 -1 187 172 188 -1 172 187 196 -1 196 187 164 -1 164 187 162 -1 201 182 199 -1 182 201 180 -1 180 201 211 -1 180 211 230 -1 230 211 213 -1 230 213 228 -1 228 213 208 -1 228 208 229 -1 229 208 173 -1 229 173 206 -1 229 206 154 -1 229 154 194 -1 173 208 188 -1 173 188 172 -1 194 154 156 -1 228 231 227 -1 231 228 229 -1 227 231 205 -1 205 231 176 -1 176 231 177 -1 177 231 232 -1 227 205 226 -1 177 232 225 -1 226 192 149 -1 192 226 205 -1 149 192 166 -1 149 166 168 -1 149 168 152 -1 225 185 183 -1 185 225 223 -1 223 225 232 -1 181 230 219 -1 230 181 180 -1 231 224 222 -1 224 231 229 -1 219 228 220 -1 228 219 230 -1 231 223 232 -1 223 231 222 -1 233 234 235 -1 234 233 236 -1 237 238 239 -1 238 237 240 -1 241 233 242 -1 233 241 236 -1 236 241 243 -1 240 244 238 -1 244 240 245 -1 246 239 247 -1 239 246 237 -1 248 249 250 -1 249 248 251 -1 246 252 243 -1 252 246 249 -1 252 249 251 -1 243 253 236 -1 253 243 252 -1 236 253 234 -1 234 254 235 -1 254 234 253 -1 254 252 255 -1 252 254 253 -1 256 244 257 -1 244 256 238 -1 256 258 259 -1 258 256 260 -1 258 260 261 -1 258 261 262 -1 259 238 256 -1 238 259 239 -1 252 248 255 -1 248 252 251 -1 259 241 242 -1 241 259 258 -1 241 258 262 -1 241 262 243 -1 237 261 240 -1 261 237 262 -1 246 262 237 -1 262 246 243 -1 257 260 256 -1 260 257 263 -1 260 263 261 -1 242 254 247 -1 254 242 233 -1 254 233 235 -1 247 255 250 -1 255 247 254 -1 250 255 248 -1 263 244 245 -1 244 263 257 -1 242 239 259 -1 239 242 247 -1 249 247 250 -1 247 249 246 -1 240 263 245 -1 263 240 261 -1 264 265 266 -1 265 264 267 -1 268 269 270 -1 269 268 271 -1 272 264 273 -1 264 272 267 -1 267 272 274 -1 271 275 269 -1 275 271 276 -1 277 270 278 -1 270 277 268 -1 279 280 281 -1 280 279 282 -1 277 283 274 -1 283 277 280 -1 283 280 282 -1 274 284 267 -1 284 274 283 -1 267 284 265 -1 265 285 266 -1 285 265 284 -1 285 283 286 -1 283 285 284 -1 287 275 288 -1 275 287 269 -1 287 289 290 -1 289 287 291 -1 289 291 292 -1 289 292 293 -1 290 269 287 -1 269 290 270 -1 283 279 286 -1 279 283 282 -1 290 272 273 -1 272 290 289 -1 272 289 293 -1 272 293 274 -1 268 292 271 -1 292 268 293 -1 277 293 268 -1 293 277 274 -1 288 291 287 -1 291 288 294 -1 291 294 292 -1 273 285 278 -1 285 273 264 -1 285 264 266 -1 278 286 281 -1 286 278 285 -1 281 286 279 -1 294 275 276 -1 275 294 288 -1 273 270 290 -1 270 273 278 -1 280 278 281 -1 278 280 277 -1 271 294 276 -1 294 271 292 -1 295 296 297 -1 296 295 298 -1 299 298 300 -1 298 299 296 -1 296 299 301 -1 296 301 302 -1 296 302 303 -1 295 304 305 -1 304 295 297 -1 304 297 306 -1 306 297 307 -1 307 297 308 -1 299 309 310 -1 309 299 300 -1 311 307 308 -1 307 311 312 -1 313 305 314 -1 305 313 295 -1 302 310 315 -1 310 302 299 -1 299 302 301 -1 316 305 304 -1 305 316 314 -1 314 316 317 -1 300 318 309 -1 318 300 298 -1 319 309 318 -1 309 319 310 -1 320 321 322 -1 321 296 323 -1 296 321 297 -1 297 321 308 -1 308 321 311 -1 311 321 320 -1 324 325 326 -1 325 324 323 -1 325 323 303 -1 303 323 296 -1 311 327 328 -1 327 311 320 -1 327 320 329 -1 328 330 331 -1 330 328 327 -1 331 330 332 -1 333 334 335 -1 334 336 337 -1 336 334 338 -1 338 334 333 -1 339 332 340 -1 332 339 331 -1 341 342 325 -1 342 341 343 -1 342 343 344 -1 325 345 326 -1 345 325 342 -1 326 345 346 -1 332 347 340 -1 333 342 344 -1 342 333 335 -1 342 335 330 -1 330 335 347 -1 330 347 332 -1 348 346 349 -1 345 349 346 -1 349 345 327 -1 349 327 350 -1 350 327 351 -1 351 327 329 -1 324 352 323 -1 352 324 353 -1 353 324 349 -1 349 324 348 -1 336 354 337 -1 354 336 355 -1 343 333 344 -1 333 343 338 -1 312 356 317 -1 356 312 357 -1 311 357 312 -1 357 311 328 -1 312 306 307 -1 306 312 304 -1 304 312 316 -1 316 312 317 -1 346 324 326 -1 324 346 348 -1 334 347 335 -1 347 334 358 -1 339 354 355 -1 354 339 358 -1 358 339 347 -1 347 339 340 -1 354 334 337 -1 334 354 358 -1 359 328 341 -1 328 359 357 -1 341 315 359 -1 315 341 325 -1 342 327 345 -1 327 342 330 -1 317 313 314 -1 313 317 356 -1 319 357 359 -1 357 319 356 -1 351 320 322 -1 320 351 329 -1 341 336 343 -1 336 341 328 -1 336 328 355 -1 355 328 339 -1 339 328 331 -1 338 343 336 -1 318 356 319 -1 356 318 298 -1 356 298 295 -1 356 295 313 -1 303 315 325 -1 315 303 302 -1 359 310 319 -1 310 359 315 -1 351 360 350 -1 360 321 361 -1 321 360 322 -1 322 360 351 -1 360 352 353 -1 352 360 361 -1 349 360 353 -1 360 349 350 -1 352 321 323 -1 321 352 361 -1 362 363 364 -1 363 362 365 -1 363 365 366 -1 367 368 369 -1 368 367 370 -1 371 372 373 -1 372 371 374 -1 375 376 377 -1 376 375 378 -1 379 380 381 -1 380 379 382 -1 383 373 384 -1 373 383 371 -1 385 371 386 -1 371 385 374 -1 380 363 366 -1 363 380 387 -1 388 389 390 -1 389 388 391 -1 392 393 394 -1 393 392 395 -1 396 397 388 -1 397 396 398 -1 399 400 401 -1 400 399 402 -1 380 365 381 -1 365 380 366 -1 370 403 368 -1 403 370 404 -1 405 382 379 -1 382 405 406 -1 407 403 408 -1 403 407 369 -1 403 369 368 -1 409 376 410 -1 376 409 377 -1 411 412 413 -1 412 411 414 -1 391 415 416 -1 415 391 417 -1 418 391 416 -1 391 418 389 -1 385 410 374 -1 410 385 409 -1 386 383 419 -1 383 386 371 -1 370 384 404 -1 384 370 383 -1 418 406 405 -1 406 418 416 -1 375 420 378 -1 420 375 402 -1 402 375 400 -1 421 399 401 -1 399 421 422 -1 423 414 411 -1 414 423 424 -1 425 424 423 -1 424 425 426 -1 376 427 410 -1 427 376 428 -1 388 417 391 -1 417 388 397 -1 419 370 367 -1 370 419 383 -1 382 429 430 -1 429 382 406 -1 413 395 392 -1 395 413 412 -1 410 372 374 -1 372 410 427 -1 422 426 425 -1 426 422 421 -1 382 387 380 -1 387 382 430 -1 364 429 431 -1 429 364 430 -1 430 364 387 -1 387 364 363 -1 394 413 392 -1 413 394 411 -1 411 394 432 -1 411 432 423 -1 423 432 433 -1 423 433 425 -1 425 433 434 -1 425 434 435 -1 435 434 415 -1 435 415 417 -1 435 417 397 -1 435 397 436 -1 415 434 431 -1 415 431 429 -1 436 397 398 -1 425 437 422 -1 437 425 435 -1 422 437 373 -1 373 437 384 -1 384 437 404 -1 404 437 408 -1 422 373 399 -1 404 408 403 -1 399 372 402 -1 372 399 373 -1 402 372 427 -1 402 427 428 -1 402 428 420 -1 406 415 429 -1 415 406 416 -1 378 428 376 -1 428 378 420 -1 396 390 438 -1 390 396 388 -1 364 439 362 -1 439 364 431 -1 433 440 434 -1 440 433 441 -1 431 440 439 -1 440 431 434 -1 408 442 407 -1 442 408 437 -1 400 385 401 -1 385 400 409 -1 409 400 377 -1 377 400 375 -1 414 395 412 -1 395 414 393 -1 393 414 424 -1 393 424 443 -1 443 424 426 -1 443 426 441 -1 441 426 421 -1 441 421 442 -1 442 421 386 -1 442 386 419 -1 442 419 367 -1 442 367 407 -1 386 421 401 -1 386 401 385 -1 407 367 369 -1 441 444 440 -1 444 441 442 -1 440 444 418 -1 418 444 389 -1 389 444 390 -1 390 444 445 -1 440 418 439 -1 390 445 438 -1 439 405 362 -1 405 439 418 -1 362 405 379 -1 362 379 381 -1 362 381 365 -1 438 398 396 -1 398 438 436 -1 436 438 445 -1 394 443 432 -1 443 394 393 -1 444 437 435 -1 437 444 442 -1 432 441 433 -1 441 432 443 -1 444 436 445 -1 436 444 435 -1 446 447 448 -1 447 449 450 -1 449 447 451 -1 451 447 452 -1 452 447 453 -1 453 447 446 -1 454 455 456 -1 455 454 450 -1 455 450 457 -1 457 450 449 -1 458 456 455 -1 456 458 459 -1 460 461 462 -1 463 452 453 -1 452 463 464 -1 464 463 465 -1 464 465 466 -1 464 466 467 -1 464 467 461 -1 461 467 462 -1 464 461 468 -1 464 468 469 -1 464 469 470 -1 471 455 457 -1 455 471 458 -1 458 471 472 -1 458 472 464 -1 458 464 470 -1 458 470 473 -1 446 463 453 -1 463 446 474 -1 474 446 475 -1 475 446 476 -1 476 446 477 -1 477 446 478 -1 479 480 481 -1 480 479 482 -1 454 480 450 -1 480 454 481 -1 479 447 482 -1 447 479 448 -1 480 447 450 -1 447 480 482 -1 483 472 484 -1 472 483 464 -1 484 471 485 -1 471 484 472 -1 483 449 451 -1 449 483 485 -1 485 483 484 -1 449 471 457 -1 471 449 485 -1 483 452 464 -1 452 483 451 -1 486 487 488 -1 487 486 489 -1 490 462 486 -1 462 490 467 -1 488 490 486 -1 490 488 491 -1 492 491 488 -1 491 492 493 -1 494 492 495 -1 492 494 493 -1 496 495 497 -1 495 496 494 -1 498 467 490 -1 467 498 466 -1 467 497 462 -1 497 467 496 -1 306 295 305 -1 295 306 307 -1 295 307 308 -1 295 308 297 -1 499 306 305 -1 306 499 500 -1 295 499 305 -1 499 295 489 -1 306 501 307 -1 501 306 500 -1 307 502 308 -1 502 307 501 -1 502 297 308 -1 297 502 503 -1 305 301 300 -1 301 305 306 -1 301 307 302 -1 307 301 306 -1 504 298 460 -1 298 504 295 -1 295 504 489 -1 489 504 487 -1 487 504 505 -1 487 505 506 -1 298 297 296 -1 297 298 295 -1 458 503 459 -1 503 458 473 -1 503 473 296 -1 503 296 297 -1 488 506 492 -1 506 488 487 -1 497 460 462 -1 460 497 504 -1 495 504 497 -1 504 495 505 -1 492 505 495 -1 505 492 506 -1 298 301 300 -1 301 298 302 -1 302 298 303 -1 303 298 296 -1 468 302 469 -1 302 468 301 -1 469 303 470 -1 303 469 302 -1 303 473 470 -1 473 303 296 -1 460 300 461 -1 300 460 298 -1 302 308 303 -1 308 302 307 -1 300 468 461 -1 468 300 301 -1 459 454 456 -1 454 459 481 -1 481 459 479 -1 479 459 502 -1 502 459 503 -1 448 478 446 -1 478 448 479 -1 478 479 507 -1 507 479 498 -1 498 479 490 -1 490 479 499 -1 490 499 486 -1 499 479 500 -1 500 479 501 -1 501 479 502 -1 489 486 499 -1 491 498 490 -1 498 491 508 -1 493 508 491 -1 508 493 509 -1 510 493 494 -1 493 510 509 -1 511 494 496 -1 494 511 510 -1 466 496 467 -1 496 466 511 -1 507 466 498 -1 466 507 465 -1 508 507 498 -1 507 508 512 -1 509 512 508 -1 512 509 513 -1 514 509 510 -1 509 514 513 -1 515 510 511 -1 510 515 514 -1 465 511 466 -1 511 465 515 -1 512 478 507 -1 478 512 477 -1 513 477 512 -1 477 513 476 -1 475 513 514 -1 513 475 476 -1 474 514 515 -1 514 474 475 -1 463 515 465 -1 515 463 474 -1 516 517 518 -1 517 516 519 -1 520 521 522 -1 521 520 523 -1 524 525 526 -1 525 524 527 -1 522 528 529 -1 528 522 521 -1 516 521 530 -1 521 516 528 -1 531 532 533 -1 532 531 534 -1 532 534 535 -1 533 536 524 -1 536 533 532 -1 524 536 527 -1 537 538 539 -1 526 533 524 -1 533 526 540 -1 540 526 541 -1 540 541 520 -1 520 541 538 -1 520 538 537 -1 542 543 544 -1 543 542 545 -1 531 546 530 -1 546 531 533 -1 547 548 549 -1 543 538 544 -1 538 543 539 -1 548 527 536 -1 527 548 547 -1 527 547 525 -1 523 534 531 -1 534 523 550 -1 526 549 541 -1 549 526 547 -1 547 526 525 -1 520 542 523 -1 542 520 537 -1 542 537 545 -1 523 551 550 -1 551 523 542 -1 550 551 552 -1 541 544 538 -1 544 541 549 -1 544 549 548 -1 544 551 542 -1 551 544 548 -1 551 548 536 -1 551 536 532 -1 539 545 537 -1 545 539 543 -1 553 517 554 -1 517 553 518 -1 552 532 535 -1 532 552 551 -1 518 528 516 -1 528 518 553 -1 535 550 552 -1 550 535 534 -1 529 553 554 -1 553 529 528 -1 555 517 519 -1 517 555 529 -1 517 529 554 -1 530 519 516 -1 519 530 546 -1 540 546 533 -1 546 540 556 -1 556 540 520 -1 556 520 522 -1 556 519 546 -1 519 556 555 -1 555 556 522 -1 555 522 529 -1 530 523 531 -1 523 530 521 -1 557 558 559 -1 558 557 560 -1 561 557 562 -1 557 561 560 -1 561 563 564 -1 563 561 562 -1 565 566 567 -1 566 565 568 -1 568 565 557 -1 557 565 562 -1 562 565 569 -1 569 565 570 -1 570 565 571 -1 572 566 568 -1 558 572 559 -1 572 558 566 -1 566 558 573 -1 557 572 568 -1 572 557 559 -1 569 563 562 -1 563 569 570 -1 574 565 567 -1 565 574 575 -1 565 576 571 -1 576 565 575 -1 576 570 571 -1 570 576 563 -1 563 576 564 -1 576 561 564 -1 558 574 573 -1 574 558 560 -1 574 560 575 -1 575 560 561 -1 575 561 576 -1 574 566 573 -1 566 574 567 -1 577 578 579 -1 578 577 580 -1 581 582 583 -1 582 581 584 -1 585 577 586 -1 577 585 580 -1 580 585 587 -1 584 588 582 -1 588 584 589 -1 590 583 591 -1 583 590 581 -1 592 593 594 -1 593 592 595 -1 590 596 587 -1 596 590 593 -1 596 593 595 -1 587 576 580 -1 576 587 596 -1 580 576 578 -1 578 597 579 -1 597 578 576 -1 597 596 598 -1 596 597 576 -1 599 588 600 -1 588 599 582 -1 599 601 602 -1 601 599 603 -1 601 603 604 -1 601 604 605 -1 602 582 599 -1 582 602 583 -1 596 592 598 -1 592 596 595 -1 602 585 586 -1 585 602 601 -1 585 601 605 -1 585 605 587 -1 581 604 584 -1 604 581 605 -1 590 605 581 -1 605 590 587 -1 600 603 599 -1 603 600 606 -1 603 606 604 -1 586 597 591 -1 597 586 577 -1 597 577 579 -1 591 598 594 -1 598 591 597 -1 594 598 592 -1 606 588 589 -1 588 606 600 -1 586 583 602 -1 583 586 591 -1 593 591 594 -1 591 593 590 -1 584 606 589 -1 606 584 604 -1 607 608 609 -1 608 607 610 -1 611 612 613 -1 612 611 614 -1 615 607 616 -1 607 615 610 -1 610 615 617 -1 614 618 612 -1 618 614 619 -1 620 613 621 -1 613 620 611 -1 622 623 624 -1 623 622 625 -1 620 626 617 -1 626 620 623 -1 626 623 625 -1 617 627 610 -1 627 617 626 -1 610 627 608 -1 608 573 609 -1 573 608 627 -1 573 626 566 -1 626 573 627 -1 628 618 629 -1 618 628 612 -1 628 630 631 -1 630 628 632 -1 630 632 633 -1 630 633 634 -1 631 612 628 -1 612 631 613 -1 626 622 566 -1 622 626 625 -1 631 615 616 -1 615 631 630 -1 615 630 634 -1 615 634 617 -1 611 633 614 -1 633 611 634 -1 620 634 611 -1 634 620 617 -1 629 632 628 -1 632 629 635 -1 632 635 633 -1 616 573 621 -1 573 616 607 -1 573 607 609 -1 621 566 624 -1 566 621 573 -1 624 566 622 -1 635 618 619 -1 618 635 629 -1 616 613 631 -1 613 616 621 -1 623 621 624 -1 621 623 620 -1 614 635 619 -1 635 614 633 -1 636 637 638 -1 637 636 639 -1 637 639 640 -1 640 639 641 -1 637 642 643 -1 642 637 640 -1 644 458 645 -1 458 644 646 -1 458 636 645 -1 636 458 639 -1 646 639 458 -1 639 646 641 -1 641 646 647 -1 641 647 648 -1 638 645 636 -1 645 638 644 -1 644 638 649 -1 649 638 650 -1 647 644 649 -1 644 647 646 -1 651 652 653 -1 652 651 654 -1 652 649 650 -1 649 652 647 -1 647 652 654 -1 647 654 648 -1 640 648 654 -1 648 640 641 -1 651 640 654 -1 640 651 642 -1 643 652 637 -1 652 643 653 -1 638 652 650 -1 652 638 637 -1 643 651 653 -1 651 643 642 -1 655 656 657 -1 657 658 655 -1 658 659 660 -1 660 655 658 -1 655 660 661 -1 661 662 655 -1 661 663 662 -1 664 665 666 -1 666 656 664 -1 656 667 664 -1 667 668 664 -1 657 656 666 -1 666 665 660 -1 660 659 666 -1 659 658 657 -1 657 666 659 -1 664 661 660 -1 660 665 664 -1 662 667 656 -1 656 655 662 -1 663 668 667 -1 667 662 663 -1 661 664 668 -1 668 663 661 -1 669 670 671 -1 670 669 672 -1 672 673 674 -1 673 672 669 -1 669 675 673 -1 675 669 676 -1 675 676 677 -1 678 679 680 -1 679 678 671 -1 671 678 681 -1 681 678 682 -1 670 679 671 -1 679 673 680 -1 673 679 674 -1 674 670 672 -1 670 674 679 -1 678 673 675 -1 673 678 680 -1 676 671 681 -1 671 676 669 -1 677 681 682 -1 681 677 676 -1 675 682 678 -1 682 675 677 -1 683 684 685 -1 684 683 686 -1 684 687 688 -1 687 684 686 -1 689 690 691 -1 690 689 692 -1 693 694 695 -1 694 693 696 -1 697 698 699 -1 698 697 700 -1 698 700 701 -1 701 700 694 -1 701 694 702 -1 702 694 696 -1 699 703 704 -1 703 699 698 -1 692 687 690 -1 687 692 688 -1 705 692 706 -1 692 705 688 -1 688 705 684 -1 684 705 685 -1 707 708 709 -1 708 707 710 -1 710 707 711 -1 710 711 712 -1 712 711 713 -1 712 713 714 -1 714 713 689 -1 714 689 715 -1 714 715 716 -1 714 716 717 -1 689 713 706 -1 689 706 692 -1 717 716 718 -1 712 719 720 -1 719 712 714 -1 720 719 721 -1 721 719 722 -1 722 719 723 -1 723 719 693 -1 720 721 724 -1 723 693 695 -1 724 725 699 -1 725 724 721 -1 699 725 726 -1 699 726 727 -1 699 727 697 -1 728 710 729 -1 710 728 708 -1 719 730 731 -1 730 719 714 -1 731 693 719 -1 693 731 696 -1 704 732 733 -1 732 704 734 -1 734 704 735 -1 735 704 703 -1 729 736 728 -1 736 729 737 -1 737 729 738 -1 737 738 739 -1 739 738 740 -1 739 740 731 -1 731 740 741 -1 731 741 742 -1 731 742 743 -1 731 743 696 -1 741 740 733 -1 741 733 732 -1 696 743 702 -1 739 730 744 -1 730 739 731 -1 744 730 745 -1 745 730 746 -1 746 730 747 -1 747 730 748 -1 744 745 749 -1 747 748 750 -1 749 751 752 -1 751 749 745 -1 752 751 753 -1 752 753 754 -1 752 754 755 -1 717 750 748 -1 750 717 756 -1 756 717 718 -1 756 718 757 -1 757 758 756 -1 758 757 683 -1 758 752 755 -1 752 758 683 -1 752 683 685 -1 752 685 705 -1 748 714 717 -1 714 748 730 -1 720 738 712 -1 738 720 740 -1 729 712 738 -1 712 729 710 -1 722 759 721 -1 759 722 760 -1 761 722 723 -1 722 761 760 -1 762 763 764 -1 763 762 765 -1 765 762 766 -1 765 766 767 -1 767 766 698 -1 767 698 701 -1 694 723 695 -1 723 694 761 -1 721 768 725 -1 768 721 759 -1 724 740 720 -1 740 724 733 -1 749 705 706 -1 705 749 752 -1 736 708 728 -1 708 736 709 -1 704 724 699 -1 724 704 733 -1 739 707 737 -1 707 739 711 -1 737 709 736 -1 709 737 707 -1 744 706 713 -1 706 744 749 -1 739 713 711 -1 713 739 744 -1 763 732 764 -1 732 763 741 -1 702 767 701 -1 767 702 743 -1 743 765 767 -1 765 743 742 -1 764 734 762 -1 734 764 732 -1 765 741 763 -1 741 765 742 -1 734 766 762 -1 766 734 735 -1 766 703 698 -1 703 766 735 -1 755 769 758 -1 769 755 754 -1 769 753 770 -1 753 769 754 -1 771 772 773 -1 772 771 770 -1 770 771 774 -1 770 774 769 -1 769 774 756 -1 769 756 758 -1 772 753 751 -1 753 772 770 -1 771 745 746 -1 745 771 773 -1 715 775 716 -1 775 715 776 -1 774 750 756 -1 750 774 747 -1 773 751 745 -1 751 773 772 -1 716 757 718 -1 757 716 775 -1 715 691 776 -1 691 715 689 -1 771 747 774 -1 747 771 746 -1 687 691 690 -1 691 687 776 -1 776 687 686 -1 776 686 775 -1 775 686 683 -1 775 683 757 -1 760 768 759 -1 768 760 777 -1 777 760 761 -1 777 761 778 -1 778 761 694 -1 778 694 700 -1 727 700 697 -1 700 727 778 -1 777 727 726 -1 727 777 778 -1 725 777 726 -1 777 725 768 -1 640 779 780 -1 779 640 637 -1 637 781 638 -1 781 637 640 -1 781 640 641 -1 781 641 782 -1 781 783 784 -1 783 781 782 -1 783 782 785 -1 783 785 286 -1 786 784 252 -1 784 786 781 -1 787 286 285 -1 286 787 783 -1 650 781 786 -1 781 650 638 -1 650 637 638 -1 637 650 652 -1 779 652 788 -1 652 779 637 -1 654 780 789 -1 780 654 640 -1 654 641 640 -1 641 654 648 -1 782 648 785 -1 648 782 641 -1 790 783 787 -1 783 790 784 -1 788 780 779 -1 780 788 789 -1 286 253 285 -1 253 286 789 -1 789 286 648 -1 789 648 654 -1 648 286 785 -1 652 650 788 -1 253 788 252 -1 788 253 789 -1 252 788 650 -1 252 650 786 -1 784 253 252 -1 253 784 790 -1 790 285 253 -1 285 790 787 -1 791 792 793 -1 793 794 791 -1 794 795 796 -1 796 791 794 -1 791 796 797 -1 797 798 791 -1 797 799 798 -1 800 801 802 -1 802 792 800 -1 792 803 800 -1 803 804 800 -1 793 792 802 -1 802 801 796 -1 796 795 802 -1 795 794 793 -1 793 802 795 -1 800 797 796 -1 796 801 800 -1 798 803 792 -1 792 791 798 -1 799 804 803 -1 803 798 799 -1 797 800 804 -1 804 799 797 -1 805 806 807 -1 806 805 808 -1 809 810 811 -1 810 809 812 -1 813 814 815 -1 814 813 816 -1 817 818 819 -1 818 817 820 -1 813 809 816 -1 809 813 812 -1 812 813 805 -1 812 805 819 -1 819 805 807 -1 819 807 817 -1 819 810 812 -1 810 819 818 -1 816 811 814 -1 811 816 809 -1 813 808 805 -1 808 813 815 -1 821 822 823 -1 822 821 824 -1 825 826 827 -1 826 825 828 -1 826 828 829 -1 829 828 822 -1 829 822 830 -1 830 822 824 -1 827 831 832 -1 831 827 826 -1 833 834 835 -1 834 833 836 -1 834 837 835 -1 837 834 838 -1 838 834 839 -1 839 834 840 -1 841 842 843 -1 842 841 844 -1 844 841 845 -1 844 845 846 -1 846 845 847 -1 846 847 848 -1 848 847 849 -1 848 849 850 -1 848 850 851 -1 849 847 852 -1 852 847 835 -1 852 835 837 -1 851 850 853 -1 846 854 855 -1 854 846 848 -1 855 854 856 -1 856 854 857 -1 857 854 821 -1 855 856 858 -1 855 858 859 -1 857 821 823 -1 859 860 827 -1 860 859 858 -1 827 860 861 -1 827 861 862 -1 827 862 825 -1 832 859 827 -1 859 832 863 -1 864 842 865 -1 842 864 843 -1 866 825 862 -1 825 866 828 -1 850 867 853 -1 867 850 868 -1 854 869 870 -1 869 854 848 -1 871 872 873 -1 872 871 874 -1 875 862 861 -1 862 875 866 -1 876 877 878 -1 877 876 875 -1 875 876 879 -1 875 879 866 -1 866 879 822 -1 866 822 828 -1 880 835 847 -1 835 880 833 -1 881 882 883 -1 882 881 884 -1 873 885 886 -1 885 873 872 -1 887 843 864 -1 843 887 841 -1 849 868 850 -1 868 849 888 -1 822 857 823 -1 857 822 879 -1 860 875 861 -1 875 860 877 -1 854 824 821 -1 824 854 870 -1 889 848 851 -1 848 889 869 -1 890 841 887 -1 841 890 845 -1 858 877 860 -1 877 858 878 -1 891 871 892 -1 871 891 874 -1 856 878 858 -1 878 856 876 -1 837 893 894 -1 893 837 838 -1 839 893 838 -1 893 839 895 -1 893 896 894 -1 896 893 888 -1 888 893 895 -1 888 895 868 -1 868 895 897 -1 868 897 867 -1 849 896 888 -1 896 849 852 -1 883 873 886 -1 873 883 871 -1 871 883 882 -1 871 882 892 -1 892 882 826 -1 892 826 829 -1 830 892 829 -1 892 830 891 -1 886 881 883 -1 881 886 885 -1 852 894 896 -1 894 852 837 -1 840 895 839 -1 895 840 897 -1 880 845 890 -1 845 880 847 -1 884 826 882 -1 826 884 831 -1 879 856 857 -1 856 879 876 -1 898 855 899 -1 855 898 846 -1 832 885 863 -1 885 832 881 -1 881 832 884 -1 884 832 831 -1 900 864 865 -1 864 900 887 -1 887 900 898 -1 887 898 890 -1 890 898 899 -1 890 899 870 -1 870 899 874 -1 870 874 891 -1 870 891 824 -1 874 899 872 -1 872 899 863 -1 872 863 885 -1 824 891 830 -1 890 869 880 -1 869 890 870 -1 880 869 815 -1 815 869 808 -1 808 869 889 -1 880 815 814 -1 880 814 833 -1 808 889 806 -1 833 811 836 -1 811 833 814 -1 836 811 810 -1 836 810 818 -1 836 818 820 -1 859 899 855 -1 899 859 863 -1 851 806 889 -1 806 851 807 -1 807 851 853 -1 807 853 867 -1 867 817 807 -1 817 867 897 -1 817 836 820 -1 836 817 897 -1 836 897 840 -1 836 840 834 -1 900 846 898 -1 846 900 844 -1 865 844 900 -1 844 865 842 -1 901 902 903 -1 902 901 904 -1 904 905 906 -1 905 904 901 -1 901 907 905 -1 907 901 908 -1 907 908 909 -1 910 911 912 -1 911 910 903 -1 903 910 913 -1 913 910 914 -1 902 911 903 -1 911 905 912 -1 905 911 906 -1 906 902 904 -1 902 906 911 -1 910 905 907 -1 905 910 912 -1 908 903 913 -1 903 908 901 -1 909 913 914 -1 913 909 908 -1 907 914 910 -1 914 907 909 -1 915 916 917 -1 916 915 918 -1 919 920 921 -1 920 919 922 -1 920 916 923 -1 916 920 917 -1 917 920 922 -1 924 921 920 -1 921 924 925 -1 926 927 928 -1 927 926 929 -1 930 848 869 -1 848 930 931 -1 932 916 918 -1 916 932 923 -1 917 933 915 -1 933 917 922 -1 933 922 934 -1 934 922 919 -1 934 919 931 -1 934 931 935 -1 935 931 930 -1 935 936 937 -1 936 935 930 -1 938 930 939 -1 930 938 940 -1 930 940 936 -1 940 938 941 -1 941 942 940 -1 942 941 943 -1 930 869 939 -1 937 870 935 -1 927 869 928 -1 869 927 939 -1 928 869 870 -1 928 870 937 -1 944 945 946 -1 945 944 947 -1 948 943 949 -1 943 948 942 -1 950 951 952 -1 951 950 953 -1 944 954 955 -1 954 944 946 -1 954 946 956 -1 954 956 957 -1 945 958 959 -1 958 945 947 -1 960 961 962 -1 961 960 963 -1 950 963 960 -1 963 950 952 -1 962 964 965 -1 964 962 961 -1 965 966 967 -1 966 965 964 -1 957 968 951 -1 968 957 969 -1 969 957 970 -1 970 957 956 -1 961 966 964 -1 966 961 929 -1 929 961 963 -1 929 963 952 -1 929 952 927 -1 927 952 971 -1 927 971 972 -1 927 972 973 -1 927 973 974 -1 927 974 939 -1 971 952 951 -1 971 951 968 -1 939 974 975 -1 939 975 976 -1 939 976 977 -1 939 977 938 -1 959 948 949 -1 948 959 958 -1 953 957 951 -1 957 953 954 -1 915 932 918 -1 932 915 924 -1 924 915 925 -1 925 915 933 -1 967 962 965 -1 962 967 926 -1 962 926 960 -1 960 926 950 -1 928 978 926 -1 978 928 937 -1 926 978 979 -1 926 979 980 -1 926 980 981 -1 926 981 950 -1 950 981 953 -1 978 937 982 -1 982 937 983 -1 983 937 984 -1 984 937 936 -1 953 985 954 -1 985 953 981 -1 954 985 986 -1 954 986 987 -1 954 987 955 -1 988 978 989 -1 978 988 979 -1 990 979 988 -1 979 990 980 -1 990 981 980 -1 981 990 991 -1 991 985 981 -1 985 991 992 -1 992 986 985 -1 986 992 993 -1 994 986 993 -1 986 994 987 -1 944 987 994 -1 987 944 955 -1 990 992 991 -1 992 990 993 -1 993 990 988 -1 993 988 994 -1 994 988 989 -1 994 989 944 -1 944 989 995 -1 944 995 947 -1 947 995 996 -1 947 996 958 -1 958 996 997 -1 958 997 948 -1 948 997 940 -1 948 940 942 -1 984 940 997 -1 940 984 936 -1 921 848 919 -1 848 921 925 -1 848 925 854 -1 854 925 933 -1 933 934 854 -1 931 919 848 -1 934 870 854 -1 870 934 935 -1 996 984 997 -1 984 996 983 -1 978 995 989 -1 995 978 982 -1 995 983 996 -1 983 995 982 -1 926 966 929 -1 966 926 967 -1 970 998 969 -1 998 970 999 -1 923 924 920 -1 924 923 932 -1 998 1000 1001 -1 1000 998 1002 -1 1002 998 999 -1 1002 999 1003 -1 1003 999 946 -1 1003 946 1004 -1 1004 946 1005 -1 1005 946 945 -1 1005 945 1006 -1 1006 945 959 -1 1006 959 1007 -1 1007 959 949 -1 1007 949 941 -1 941 949 943 -1 1004 975 974 -1 975 1004 1005 -1 956 999 970 -1 999 956 946 -1 1007 938 977 -1 938 1007 941 -1 976 1007 977 -1 1007 976 1006 -1 972 1003 973 -1 1003 972 1002 -1 973 1004 974 -1 1004 973 1003 -1 968 998 1001 -1 998 968 969 -1 971 1001 1000 -1 1001 971 968 -1 975 1006 976 -1 1006 975 1005 -1 972 1000 1002 -1 1000 972 971 -1 1008 1009 1010 -1 1010 1011 1008 -1 1012 1013 1014 -1 1014 1015 1012 -1 1016 1017 1008 -1 1008 1011 1016 -1 1015 1014 1018 -1 1018 1019 1015 -1 1020 1021 1022 -1 1022 1023 1020 -1 1021 1024 1025 -1 1025 1022 1021 -1 1026 1027 1028 -1 1028 1029 1026 -1 1028 1025 1029 -1 1028 1022 1025 -1 1026 1030 1031 -1 1031 1032 1026 -1 1027 1026 1032 -1 1032 1033 1027 -1 1027 1034 1035 -1 1035 1028 1027 -1 1035 1022 1028 -1 1035 1023 1022 -1 1024 1032 1031 -1 1031 1036 1024 -1 1037 1019 1018 -1 1008 1017 1038 -1 1038 1009 1008 -1 1038 1020 1009 -1 1020 1018 1009 -1 1020 1037 1018 -1 1015 1019 1037 -1 1037 1039 1015 -1 1039 1012 1015 -1 1021 1033 1032 -1 1032 1024 1021 -1 1024 1036 1040 -1 1040 1025 1024 -1 1010 1009 1018 -1 1018 1014 1010 -1 1014 1013 1010 -1 1034 1027 1033 -1 1033 1038 1034 -1 1040 1036 1031 -1 1031 1030 1040 -1 1020 1038 1033 -1 1033 1021 1020 -1 1016 1034 1038 -1 1038 1017 1016 -1 1034 1016 1010 -1 1010 1035 1034 -1 1010 1013 1035 -1 1013 1012 1035 -1 1012 1039 1035 -1 1039 1023 1035 -1 1011 1010 1016 -1 1037 1020 1023 -1 1023 1039 1037 -1 1030 1026 1029 -1 1029 1040 1030 -1 1029 1025 1040 -1 1041 1042 1043 -1 1042 1041 1044 -1 1045 1046 1047 -1 1046 1045 1048 -1 1049 1041 1050 -1 1041 1049 1044 -1 1044 1049 1051 -1 1048 1052 1046 -1 1052 1048 1053 -1 1054 1047 1055 -1 1047 1054 1045 -1 1056 1057 1058 -1 1057 1056 1059 -1 1054 1060 1051 -1 1060 1054 1057 -1 1060 1057 1059 -1 1051 1061 1044 -1 1061 1051 1060 -1 1044 1061 1042 -1 1042 1062 1043 -1 1062 1042 1061 -1 1062 1060 1063 -1 1060 1062 1061 -1 1064 1052 1065 -1 1052 1064 1046 -1 1064 1066 1067 -1 1066 1064 1068 -1 1066 1068 1069 -1 1066 1069 1070 -1 1067 1046 1064 -1 1046 1067 1047 -1 1060 1056 1063 -1 1056 1060 1059 -1 1067 1049 1050 -1 1049 1067 1066 -1 1049 1066 1070 -1 1049 1070 1051 -1 1045 1069 1048 -1 1069 1045 1070 -1 1054 1070 1045 -1 1070 1054 1051 -1 1065 1068 1064 -1 1068 1065 1071 -1 1068 1071 1069 -1 1050 1062 1055 -1 1062 1050 1041 -1 1062 1041 1043 -1 1055 1063 1058 -1 1063 1055 1062 -1 1058 1063 1056 -1 1071 1052 1053 -1 1052 1071 1065 -1 1050 1047 1067 -1 1047 1050 1055 -1 1057 1055 1058 -1 1055 1057 1054 -1 1048 1071 1053 -1 1071 1048 1069 -1 1072 1073 659 -1 659 666 1074 -1 1074 1075 659 -1 1075 1076 659 -1 1076 1077 659 -1 1077 1072 659 -1 1078 1079 1080 -1 1080 666 1078 -1 666 1081 1078 -1 1080 1074 666 -1 915 917 1072 -1 1072 1077 915 -1 1072 917 919 -1 919 718 1072 -1 718 1073 1072 -1 1073 718 1082 -1 1018 1083 1084 -1 1084 1009 1018 -1 1083 1085 1086 -1 1086 1084 1083 -1 1087 1088 1086 -1 1086 1085 1087 -1 1087 1089 1090 -1 1090 1088 1087 -1 1089 1091 1092 -1 1092 1090 1089 -1 1093 1094 1092 -1 1092 1091 1093 -1 1095 1096 1097 -1 1097 1098 1095 -1 1099 1095 1098 -1 1098 1100 1099 -1 748 750 1101 -1 1101 665 748 -1 1101 1081 666 -1 666 665 1101 -1 660 1082 718 -1 718 717 660 -1 659 1073 1082 -1 1082 660 659 -1 702 696 1102 -1 1102 1103 702 -1 1102 1074 1080 -1 1080 1103 1102 -1 1104 1105 1106 -1 1106 695 1104 -1 1076 1075 1105 -1 1105 1104 1076 -1 695 1106 1107 -1 1107 1108 695 -1 1078 1094 1093 -1 1093 1079 1078 -1 750 939 1109 -1 1109 1100 750 -1 1100 1088 750 -1 1088 1092 750 -1 1092 1094 750 -1 1094 1078 750 -1 1078 1101 750 -1 1078 1081 1101 -1 1092 1088 1090 -1 1097 1110 1009 -1 1009 1084 1097 -1 1084 1086 1097 -1 1086 1088 1097 -1 1088 1098 1097 -1 1088 1100 1098 -1 1099 1100 1109 -1 1109 1111 1099 -1 937 1111 1109 -1 1109 939 937 -1 939 750 1112 -1 1112 937 939 -1 1112 1113 937 -1 1113 696 937 -1 696 702 937 -1 748 1112 750 -1 1018 1114 1096 -1 1096 1083 1018 -1 1096 1085 1083 -1 1096 1087 1085 -1 1096 1095 1087 -1 1095 1099 1087 -1 1091 1089 1087 -1 1111 937 702 -1 702 1099 1111 -1 702 1087 1099 -1 702 1091 1087 -1 702 1093 1091 -1 702 1079 1093 -1 702 1103 1079 -1 1103 1080 1079 -1 717 1115 1112 -1 1112 660 717 -1 660 1112 748 -1 748 665 660 -1 665 659 660 -1 665 666 659 -1 1114 1018 1009 -1 1009 1110 1114 -1 1114 1110 1097 -1 1097 1096 1114 -1 915 933 919 -1 919 917 915 -1 1107 1113 1112 -1 1112 1115 1107 -1 696 1113 1107 -1 1107 1105 696 -1 1105 1102 696 -1 1105 1075 1102 -1 1075 1074 1102 -1 1106 1105 1107 -1 1076 1104 695 -1 933 915 1077 -1 1077 1108 933 -1 1077 695 1108 -1 1077 1076 695 -1 717 718 1115 -1 919 933 1115 -1 1115 718 919 -1 933 1107 1115 -1 933 1108 1107 -1 1116 1117 1118 -1 1117 1116 1119 -1 1120 1121 1122 -1 1121 1120 1123 -1 1124 1116 1125 -1 1116 1124 1119 -1 1119 1124 1126 -1 1123 1127 1121 -1 1127 1123 1128 -1 1129 1122 1130 -1 1122 1129 1120 -1 1131 1132 1133 -1 1132 1131 1134 -1 1129 1135 1126 -1 1135 1129 1132 -1 1135 1132 1134 -1 1126 1136 1119 -1 1136 1126 1135 -1 1119 1136 1117 -1 1117 1137 1118 -1 1137 1117 1136 -1 1137 1135 1138 -1 1135 1137 1136 -1 1139 1127 1140 -1 1127 1139 1121 -1 1139 1141 1142 -1 1141 1139 1143 -1 1141 1143 1144 -1 1141 1144 1145 -1 1142 1121 1139 -1 1121 1142 1122 -1 1135 1131 1138 -1 1131 1135 1134 -1 1142 1124 1125 -1 1124 1142 1141 -1 1124 1141 1145 -1 1124 1145 1126 -1 1120 1144 1123 -1 1144 1120 1145 -1 1129 1145 1120 -1 1145 1129 1126 -1 1140 1143 1139 -1 1143 1140 1146 -1 1143 1146 1144 -1 1125 1137 1130 -1 1137 1125 1116 -1 1137 1116 1118 -1 1130 1138 1133 -1 1138 1130 1137 -1 1133 1138 1131 -1 1146 1127 1128 -1 1127 1146 1140 -1 1125 1122 1142 -1 1122 1125 1130 -1 1132 1130 1133 -1 1130 1132 1129 -1 1123 1146 1128 -1 1146 1123 1144 -1 1147 1148 1149 -1 1148 1147 1150 -1 369 353 349 -1 353 369 1150 -1 1150 369 1148 -1 1148 369 1151 -1 1148 1151 646 -1 646 1151 1152 -1 646 1152 1153 -1 646 1153 1154 -1 646 1154 1155 -1 353 1156 352 -1 1156 353 1150 -1 1147 1156 1150 -1 1156 1147 1157 -1 1149 646 1158 -1 646 1149 1148 -1 1157 352 1156 -1 352 1157 361 -1 1159 1155 1154 -1 1155 1159 1160 -1 1153 1159 1154 -1 1159 1153 1161 -1 1162 1153 1152 -1 1153 1162 1161 -1 1163 1152 1151 -1 1152 1163 1162 -1 358 335 347 -1 335 358 334 -1 358 337 334 -1 337 358 354 -1 350 353 360 -1 353 350 349 -1 361 353 352 -1 353 361 360 -1 349 442 369 -1 442 349 350 -1 442 350 444 -1 444 350 445 -1 445 350 438 -1 407 369 442 -1 398 435 436 -1 408 335 403 -1 335 408 437 -1 335 437 347 -1 347 437 435 -1 347 435 398 -1 435 442 444 -1 442 435 437 -1 1164 337 354 -1 337 1164 1165 -1 1165 1164 1166 -1 445 435 444 -1 435 445 436 -1 398 358 347 -1 354 1167 1164 -1 1167 354 358 -1 1167 358 1168 -1 1168 358 398 -1 1167 1166 1164 -1 1166 1167 1169 -1 1166 1170 1165 -1 1170 1166 1169 -1 1168 1169 1167 -1 1169 1168 1171 -1 1169 1172 1170 -1 1172 1169 1171 -1 1170 337 1165 -1 337 1170 334 -1 334 1170 1172 -1 334 403 335 -1 403 334 1172 -1 1171 1168 1172 -1 1172 408 403 -1 408 1172 436 -1 436 1172 398 -1 398 1172 1168 -1 407 445 369 -1 445 407 436 -1 436 407 408 -1 369 1163 1151 -1 1163 369 438 -1 438 369 445 -1 1155 1158 646 -1 1158 1155 1160 -1 1158 1163 1149 -1 1163 1158 1162 -1 1162 1158 1161 -1 1161 1158 1159 -1 1159 1158 1160 -1 1157 360 361 -1 360 1157 1147 -1 360 1147 350 -1 350 1147 438 -1 438 1147 1149 -1 438 1149 1163 -1 1173 1174 1175 -1 1174 1173 1176 -1 1177 1178 1179 -1 1178 1177 1180 -1 1178 1180 1175 -1 1178 1175 1174 -1 1179 1072 1177 -1 1072 1179 1077 -1 1181 1177 1072 -1 1177 1181 1180 -1 1182 1174 1183 -1 1174 1182 1178 -1 1174 1176 1183 -1 1184 1180 1181 -1 1180 1184 1175 -1 1179 1182 1077 -1 1182 1179 1178 -1 1175 1184 1173 -1 1176 1184 1183 -1 1184 1176 1173 -1 1182 1072 1077 -1 1072 1182 1181 -1 1181 1182 1183 -1 1181 1183 1184 -1 967 1185 1186 -1 1185 967 966 -1 1187 923 932 -1 923 1187 1188 -1 1189 1190 1191 -1 1190 1189 1192 -1 1191 928 1193 -1 928 1191 1190 -1 928 1190 927 -1 927 1190 1194 -1 1194 1190 1195 -1 1196 1193 928 -1 1197 921 1198 -1 1199 1189 1200 -1 1189 1199 925 -1 1189 925 1192 -1 1192 925 921 -1 1192 921 1197 -1 929 967 926 -1 967 929 966 -1 1201 1202 1203 -1 1202 1201 1204 -1 1203 1205 1206 -1 1205 1203 1202 -1 1207 1202 1204 -1 1202 1207 1208 -1 1208 1205 1202 -1 1205 1208 1209 -1 1209 1210 1205 -1 1210 1209 1211 -1 1209 1212 1211 -1 1212 1209 1213 -1 1207 1214 1208 -1 1214 1207 1215 -1 1208 1213 1209 -1 1213 1208 1214 -1 1216 1199 1200 -1 1199 1216 1217 -1 1206 1210 1218 -1 1210 1206 1205 -1 1219 923 1188 -1 923 1219 920 -1 920 1219 921 -1 921 1219 1198 -1 1199 924 925 -1 924 1187 932 -1 1187 924 1217 -1 1217 924 1199 -1 928 929 926 -1 929 928 927 -1 1220 967 1186 -1 967 1220 926 -1 926 1220 928 -1 928 1220 1196 -1 1194 929 927 -1 929 1185 966 -1 1185 929 1221 -1 1221 929 1194 -1 1207 1190 1215 -1 1190 1207 1222 -1 1190 1222 1195 -1 1215 1192 1223 -1 1192 1215 1190 -1 1223 1192 1197 -1 1206 1224 1203 -1 1224 1206 1225 -1 1224 1225 1213 -1 1224 1213 1214 -1 1212 1210 1211 -1 1210 1212 1218 -1 1203 1226 1201 -1 1226 1203 1224 -1 1226 1224 1214 -1 1226 1214 1215 -1 1218 1225 1206 -1 1225 1218 1212 -1 1225 1212 1213 -1 1201 1189 1204 -1 1189 1201 1216 -1 1189 1216 1200 -1 1204 1191 1227 -1 1191 1204 1189 -1 1227 1191 1193 -1 1222 1185 1221 -1 1220 1204 1227 -1 1204 1220 1186 -1 1204 1186 1207 -1 1207 1186 1185 -1 1207 1185 1222 -1 1226 1187 1201 -1 1187 1226 1188 -1 1188 1226 1219 -1 1219 1226 1223 -1 1223 1226 1215 -1 1201 1217 1216 -1 1217 1201 1187 -1 1194 1222 1221 -1 1222 1194 1195 -1 1219 1197 1198 -1 1197 1219 1223 -1 1193 1220 1227 -1 1220 1193 1196 -1 "
						                >
							<Coordinate DEF="coords_ME_10-1_001"
							            point="1.731828 -0.713054 46.098427 2.125529 0.517261 46.098427 2.125529 -0.713054 46.098427 1.731828 0.468048 46.098427 1.338127 1.846001 46.098427 1.731828 1.846001 46.098427 1.731828 -2.091007 46.098427 1.338127 -2.091007 46.098427 1.338127 -15.083133 51.500233 1.338127 14.838127 51.500233 1.338127 -2.091007 40.192913 1.338127 -15.083133 40.192913 1.338127 1.846001 40.192913 1.338127 14.838127 40.192913 5.275135 -15.083133 50.067280 5.275135 -15.083133 40.192913 1.731828 1.846001 40.192913 1.731828 0.468048 40.192913 2.125529 0.517261 40.192913 1.731828 -0.713054 40.192913 2.125529 -0.713054 40.192913 1.731828 -2.091007 40.192913 5.275135 14.838127 50.067280 5.275135 14.838127 40.192913 6.456237 9.326316 41.767715 5.275135 14.838127 41.767715 5.275135 9.326316 41.767715 6.456237 14.838127 41.767715 0.571868 14.423284 38.966381 0.842027 10.011319 38.426064 0.571868 9.741159 38.966381 0.842027 14.153125 38.426064 6.456237 14.050726 39.405510 6.456237 9.326316 39.405510 6.456237 14.838127 39.405510 0.944426 10.113718 37.830708 0.944426 14.050726 37.830708 0.157025 14.838127 39.405510 0.157025 9.326316 39.405510 1.338127 9.326316 41.767715 0.157025 14.838127 41.767715 0.157025 9.326316 41.767715 1.338127 14.838127 41.767715 5.275135 9.326316 40.192913 1.338127 9.326316 40.192913 5.771235 10.011319 38.426064 5.668836 10.113718 37.830708 6.041394 14.050726 38.966381 6.041394 9.741159 38.966381 5.771235 14.050726 38.426064 5.771235 14.153125 38.426064 6.041394 14.423284 38.966381 5.668836 14.050726 37.830708 6.456237 -15.083133 41.767715 5.275135 -9.571321 41.767715 5.275135 -15.083133 41.767715 6.456237 -9.571321 41.767715 0.571868 -9.986165 38.966381 0.842027 -14.398130 38.426064 0.571868 -14.668289 38.966381 0.842027 -10.256325 38.426064 6.456237 -10.358724 39.405510 6.456237 -15.083133 39.405510 6.456237 -9.571321 39.405510 0.944426 -14.295732 37.830708 0.944426 -10.358724 37.830708 0.157025 -9.571321 39.405510 0.157025 -15.083133 39.405510 1.338127 -15.083133 41.767715 0.157025 -9.571321 41.767715 0.157025 -15.083133 41.767715 1.338127 -9.571321 41.767715 1.338127 -9.571321 40.192913 5.275135 -9.571321 40.192913 5.771235 -14.398130 38.426064 5.668836 -14.295732 37.830708 6.041394 -10.358724 38.966381 6.041394 -14.668289 38.966381 5.771235 -10.358724 38.426064 5.771235 -10.256325 38.426064 6.041394 -9.986165 38.966381 5.668836 -10.358724 37.830708 5.668836 1.058600 29.562992 0.157025 -1.303605 31.569595 0.157025 1.058600 31.569595 5.668836 -1.303605 29.562992 0.842027 -1.303605 30.158346 0.944426 -1.303605 29.562992 0.833467 -1.303605 30.175465 0.571868 -1.303605 30.698664 0.157025 -1.303605 31.137794 0.842027 1.058600 30.158346 0.944426 1.058600 29.562992 0.833467 1.058600 30.175465 0.571868 1.058600 30.698664 0.157025 1.058600 31.137794 0.944426 -2.878408 29.562992 0.842027 -2.980807 30.158346 0.157025 3.420804 31.137794 0.571868 3.005961 30.698664 5.668836 2.633403 29.562992 0.944426 2.633403 29.562992 0.571868 -3.250967 30.698664 0.842027 2.633403 30.158346 0.842027 2.735802 30.158346 5.668836 -2.878408 29.562992 5.771235 -2.980807 30.158346 0.157025 3.420804 33.500000 0.157025 1.846001 31.925198 0.157025 1.846001 33.500000 0.157025 -2.091007 31.925198 0.157025 -2.091007 33.500000 0.157025 -3.665810 31.137794 0.157025 -3.665810 33.500000 1.338127 3.420804 31.925198 6.456237 3.420804 31.137794 1.338127 3.420804 33.500000 5.275135 3.420804 31.925198 6.456237 3.420804 33.500000 5.275135 3.420804 33.500000 5.275135 -2.091007 33.500000 5.865686 -2.091007 32.712597 5.275135 -2.091007 32.712597 6.456237 -2.091007 31.925198 5.865686 -2.091007 31.925198 6.456237 -2.091007 33.500000 6.456237 1.846001 33.500000 5.275135 1.846001 33.500000 6.456237 -3.665810 31.137794 5.275135 -3.665810 31.925198 6.456237 -3.665810 33.500000 5.275135 -3.665810 33.500000 1.338127 -3.665810 31.925198 1.338127 -3.665810 33.500000 5.275135 1.846001 32.712597 1.338127 -2.091007 33.500000 1.338127 -2.091007 32.712597 1.338127 1.846001 32.712597 1.338127 1.846001 33.500000 0.747576 -2.091007 31.925198 0.747576 -2.091007 32.712597 5.865686 1.846001 31.925198 6.456237 1.846001 31.925198 5.771235 2.735802 30.158346 6.041394 3.005961 30.698664 5.865686 1.846001 32.712597 6.041394 -3.250967 30.698664 0.747576 1.846001 32.712597 0.747576 1.846001 31.925198 1.338127 14.050726 37.830708 5.275135 10.113718 37.830708 5.275135 14.050726 37.830708 1.338127 10.113718 37.830708 3.306631 9.523167 37.830708 1.338127 -2.249244 37.240158 3.306631 -2.681558 37.830708 1.338127 -2.091007 37.830708 3.306631 -2.760677 37.535435 3.306631 -3.347207 37.220036 5.275135 -9.177621 36.649605 5.275135 -3.272109 36.649605 3.306631 -9.102523 37.220036 1.338127 -10.358724 37.830708 3.306631 -9.689054 37.535435 1.338127 -10.200485 37.240158 3.306631 -9.768172 37.830708 1.338127 9.523167 36.807842 3.306631 9.444048 37.535435 1.338127 9.955480 37.240158 3.306631 9.227891 37.319275 3.306631 -2.976834 37.319275 5.275135 -2.681558 36.807842 1.338127 -9.177621 36.649605 1.338127 -3.272109 36.649605 5.275135 9.955480 37.240158 3.306631 2.515671 37.535435 1.338127 2.436552 36.807842 1.338127 2.004239 37.240158 3.306631 2.731828 37.319275 5.275135 6.176710 31.925198 1.338127 8.801382 32.161419 5.275135 8.801382 32.161419 1.338127 6.176710 31.925198 3.306631 2.436552 37.830708 5.275135 2.004239 37.240158 5.275135 1.846001 37.830708 5.275135 -14.295732 35.468502 1.338127 -14.295732 37.830708 1.338127 -14.295732 35.468502 5.275135 -14.295732 37.830708 5.275135 -2.091007 37.830708 5.275135 -2.249244 37.240158 1.338127 8.932615 36.649605 3.306631 8.857517 37.220036 1.338127 -1.697306 37.830708 5.275135 -1.697306 37.830708 1.338127 -9.768172 36.807842 3.306631 -9.472897 37.319275 5.275135 -9.046388 32.161419 1.338127 -6.421715 31.925198 5.275135 -6.421715 31.925198 1.338127 -9.046388 32.161419 5.275135 3.027103 36.649605 3.306631 3.102202 37.220036 5.275135 2.436552 36.807842 1.338127 3.027103 36.649605 1.338127 -2.681558 36.807842 5.275135 -10.358724 37.830708 1.338127 -13.770797 34.287403 5.275135 -13.770797 34.287403 5.275135 -11.146125 32.633858 1.338127 -11.146125 32.633858 5.275135 -12.720928 33.342518 1.338127 -12.720928 33.342518 5.275135 -9.768172 36.807842 5.275135 -10.200485 37.240158 5.275135 8.932615 36.649605 5.275135 9.523167 36.807842 5.275135 14.050726 35.468502 5.275135 10.901119 32.633858 5.275135 12.475923 33.342518 5.275135 13.525791 34.287403 5.275135 1.452300 33.893700 5.275135 1.452300 37.830708 5.275135 -1.697306 33.893700 1.338127 1.846001 37.830708 1.338127 14.050726 35.468502 1.338127 13.525791 34.287403 1.338127 12.475923 33.342518 1.338127 -1.697306 33.893700 1.338127 10.901119 32.633858 1.338127 1.452300 33.893700 1.338127 1.452300 37.830708 30.078285 9.326316 33.489449 28.897182 14.838127 33.489449 28.897182 9.326316 33.489449 30.078285 14.838127 33.489449 24.193914 14.423284 30.688114 24.464075 10.011318 30.147795 24.193914 9.741159 30.688114 24.464075 14.153124 30.147795 30.078285 14.050725 31.127245 30.078285 9.326316 31.127245 30.078285 14.838127 31.127245 24.566473 10.113717 29.552441 24.566473 14.050725 29.552441 23.779072 14.838127 31.127245 23.779072 9.326316 31.127245 24.960175 9.326316 33.489449 23.779072 14.838127 33.489449 23.779072 9.326316 33.489449 24.960175 14.838127 33.489449 24.960175 14.838127 31.914646 28.897182 14.838127 31.914646 28.897182 9.326316 31.914646 24.960175 9.326316 31.914646 29.393282 10.011318 30.147795 29.290882 10.113717 29.552441 29.663441 14.050725 30.688114 29.663441 9.741159 30.688114 29.393282 14.050725 30.147795 29.393282 14.153124 30.147795 29.663441 14.423284 30.688114 29.290882 14.050725 29.552441 30.078285 -15.083133 33.489449 28.897182 -9.571321 33.489449 28.897182 -15.083133 33.489449 30.078285 -9.571321 33.489449 24.193914 -9.986165 30.688114 24.464075 -14.398130 30.147795 24.193914 -14.668290 30.688114 24.464075 -10.256325 30.147795 30.078285 -10.358724 31.127245 30.078285 -15.083133 31.127245 30.078285 -9.571321 31.127245 24.566473 -14.295732 29.552441 24.566473 -10.358724 29.552441 23.779072 -9.571321 31.127245 23.779072 -15.083133 31.127245 24.960175 -15.083133 33.489449 23.779072 -9.571321 33.489449 23.779072 -15.083133 33.489449 24.960175 -9.571321 33.489449 24.960175 -9.571321 31.914646 28.897182 -9.571321 31.914646 28.897182 -15.083133 31.914646 24.960175 -15.083133 31.914646 29.393282 -14.398130 30.147795 29.290882 -14.295732 29.552441 29.663441 -10.358724 30.688114 29.663441 -14.668290 30.688114 29.393282 -10.358724 30.147795 29.393282 -10.256325 30.147795 29.663441 -9.986165 30.688114 29.290882 -10.358724 29.552441 29.290882 1.058599 21.284725 23.779072 -1.303605 23.291328 23.779072 1.058599 23.291328 29.290882 -1.303605 21.284725 24.464075 -1.303605 21.880077 24.566473 -1.303605 21.284725 24.455515 -1.303605 21.897198 24.193914 -1.303605 22.420397 23.779072 -1.303605 22.859528 24.464075 1.058599 21.880077 24.566473 1.058599 21.284725 24.455515 1.058599 21.897198 24.193914 1.058599 22.420397 23.779072 1.058599 22.859528 24.566473 -2.878408 21.284725 24.464075 -2.980807 21.880077 23.779072 3.420804 22.859528 24.193914 3.005961 22.420397 29.290882 2.633403 21.284725 24.566473 2.633403 21.284725 24.193914 -3.250967 22.420397 24.464075 2.633403 21.880077 24.464075 2.735801 21.880077 29.290882 -2.878408 21.284725 29.393282 -2.980807 21.880077 23.779072 3.420804 25.221733 23.779072 1.846001 23.646929 23.779072 1.846001 25.221733 23.779072 -2.091007 23.646929 23.779072 -2.091007 25.221733 23.779072 -3.665810 22.859528 23.779072 -3.665810 25.221733 24.960175 3.420804 23.646929 30.078285 3.420804 22.859528 24.960175 3.420804 25.221733 28.897182 3.420804 23.646929 30.078285 3.420804 25.221733 28.897182 3.420804 25.221733 28.897182 -2.091007 25.221733 29.487734 -2.091007 24.434332 28.897182 -2.091007 24.434332 30.078285 -2.091007 23.646929 29.487734 -2.091007 23.646929 30.078285 -2.091007 25.221733 30.078285 1.846001 25.221733 28.897182 1.846001 25.221733 30.078285 -3.665810 22.859528 28.897182 -3.665810 23.646929 30.078285 -3.665810 25.221733 28.897182 -3.665810 25.221733 24.960175 -3.665810 23.646929 24.960175 -3.665810 25.221733 28.897182 1.846001 24.434332 24.960175 -2.091007 25.221733 24.960175 -2.091007 24.434332 24.960175 1.846001 24.434332 24.960175 1.846001 25.221733 24.369623 -2.091007 23.646929 24.369623 -2.091007 24.434332 29.487734 1.846001 23.646929 30.078285 1.846001 23.646929 29.393282 2.735801 21.880077 29.663441 3.005961 22.420397 29.487734 1.846001 24.434332 29.663441 -3.250967 22.420397 24.369623 1.846001 24.434332 24.369623 1.846001 23.646929 24.960175 14.050725 29.552441 28.897182 10.113717 29.552441 28.897182 14.050725 29.552441 24.960175 10.113717 29.552441 26.928679 9.523167 29.552441 24.960175 -2.249245 28.961891 26.928679 -2.681558 29.552441 24.960175 -2.091007 29.552441 26.928679 -2.760677 29.257166 26.928679 -3.347208 28.941769 28.897182 -9.177621 28.371340 28.897182 -3.272109 28.371340 26.928679 -9.102523 28.941769 24.960175 -10.358724 29.552441 26.928679 -9.689054 29.257166 24.960175 -10.200486 28.961891 26.928679 -9.768172 29.552441 24.960175 9.523167 28.529577 26.928679 9.444047 29.257166 24.960175 9.955480 28.961891 26.928679 9.227891 29.041010 26.928679 -2.976834 29.041010 28.897182 -2.681558 28.529577 24.960175 -9.177621 28.371340 24.960175 -3.272109 28.371340 28.897182 9.955480 28.961891 26.928679 2.515671 29.257166 24.960175 2.436552 28.529577 24.960175 2.004239 28.961891 26.928679 2.731828 29.041010 28.897182 6.176710 23.646929 24.960175 8.801381 23.883150 28.897182 8.801381 23.883150 24.960175 6.176710 23.646929 26.928679 2.436552 29.552441 28.897182 2.004239 28.961891 28.897182 1.846001 29.552441 28.897182 -14.295732 27.190237 24.960175 -14.295732 29.552441 24.960175 -14.295732 27.190237 28.897182 -14.295732 29.552441 28.897182 -2.091007 29.552441 28.897182 -2.249245 28.961891 24.960175 8.932615 28.371340 26.928679 8.857516 28.941769 24.960175 -1.697306 29.552441 28.897182 -1.697306 29.552441 24.960175 -9.768172 28.529577 26.928679 -9.472897 29.041010 28.897182 -9.046388 23.883150 24.960175 -6.421716 23.646929 28.897182 -6.421716 23.646929 24.960175 -9.046388 23.883150 28.897182 3.027103 28.371340 26.928679 3.102202 28.941769 28.897182 2.436552 28.529577 24.960175 3.027103 28.371340 24.960175 -2.681558 28.529577 28.897182 -10.358724 29.552441 24.960175 -13.770797 26.009134 28.897182 -13.770797 26.009134 28.897182 -11.146125 24.355591 24.960175 -11.146125 24.355591 28.897182 -12.720928 25.064253 24.960175 -12.720928 25.064253 28.897182 -9.768172 28.529577 28.897182 -10.200486 28.961891 28.897182 8.932615 28.371340 28.897182 9.523167 28.529577 28.897182 14.050725 27.190237 28.897182 10.901119 24.355591 28.897182 12.475923 25.064253 28.897182 13.525791 26.009134 28.897182 1.452300 25.615433 28.897182 1.452300 29.552441 28.897182 -1.697306 25.615433 24.960175 1.846001 29.552441 24.960175 14.050725 27.190237 24.960175 13.525791 26.009134 24.960175 12.475923 25.064253 24.960175 -1.697306 25.615433 24.960175 10.901119 24.355591 24.960175 1.452300 25.615433 24.960175 1.452300 29.552441 35.983795 1.846001 12.563448 5.275135 1.452300 23.743099 5.275135 1.846001 23.743099 1.338127 -1.697306 25.176388 1.338127 1.452300 25.176388 5.275135 -1.697306 23.743099 5.275135 -2.091007 23.743099 35.983795 -2.091007 12.563448 1.338127 1.846001 25.176388 -4.567385 -2.091007 27.326321 -4.567385 1.846001 27.326321 1.338127 -2.091007 25.176388 -4.567385 -2.091007 33.611008 -4.567385 1.846001 33.611008 29.290882 -2.091007 21.284725 24.566473 -2.091007 21.284725 30.073275 -2.091007 19.244589 36.253159 -2.091007 13.303343 5.275135 -2.091007 29.562992 34.338131 -2.091007 14.355463 32.636292 -2.091007 15.725877 31.199955 -2.091007 17.372458 24.455515 -2.091007 21.897198 24.193914 -2.091007 22.420397 23.779072 -2.091007 22.859528 1.338127 -2.091007 29.562992 3.540980 -2.091007 29.562992 23.779072 -2.091007 23.291328 36.338951 -1.323548 13.538996 36.382385 -0.526200 13.658307 36.382385 0.281194 13.658307 36.338951 1.078542 13.538996 36.253159 1.846001 13.303343 5.275135 1.846001 29.562992 1.338127 1.452300 29.562992 1.338127 1.846001 29.562992 5.275135 1.452300 29.562992 5.275135 -1.697306 29.562992 3.540980 -1.697306 29.562992 1.338127 -1.697306 29.562992 30.073275 1.846001 19.244589 29.599401 1.078542 21.172407 30.296875 1.078542 19.353701 29.290882 1.846001 21.284725 31.199955 1.846001 17.372458 31.401064 1.078542 17.518944 30.410086 0.281194 19.408943 31.502884 0.281194 17.593109 31.502884 -0.526200 17.593109 30.410086 -0.526200 19.408943 31.401064 -1.323548 17.518944 30.296875 -1.323548 19.353701 32.636292 1.846001 15.725877 24.566473 1.846001 21.284725 24.455515 1.846001 21.897198 24.193914 1.846001 22.420397 23.779072 1.846001 22.859528 23.779072 1.846001 23.291328 29.599401 -1.323548 21.172407 29.755606 -0.526200 21.115540 29.755606 0.281194 21.115540 34.338131 1.846001 14.355463 32.808723 1.078542 15.905235 32.896027 0.281194 15.996044 32.896027 -0.526200 15.996044 32.808723 -1.323548 15.905235 34.476589 1.078542 14.562181 34.546688 0.281194 14.666842 34.546688 -0.526200 14.666842 34.476589 -1.323548 14.562181 29.393282 -2.951456 30.147795 24.566473 -2.849057 29.552441 29.290882 -2.849057 29.552441 24.464075 -2.951456 30.147795 23.779072 3.450155 31.127245 29.663441 3.035312 30.688114 24.193914 3.035312 30.688114 30.078285 3.450155 31.127245 23.779072 -3.636459 33.489449 24.960175 -2.061656 33.489449 23.779072 -2.061656 33.489449 24.960175 -3.636459 33.489449 29.393282 2.765153 30.147795 24.464075 2.765153 30.147795 29.663441 -3.221615 30.688114 30.078285 -3.636459 31.127245 28.897182 -3.636459 31.914646 23.779072 -3.636459 31.127245 30.078285 -3.636459 33.489449 28.897182 -3.636459 33.489449 24.960175 -3.636459 31.914646 23.779072 3.450155 33.489449 23.779072 1.875353 31.914646 23.779072 1.875353 33.489449 23.779072 -2.849057 31.127245 23.779072 -2.061656 31.914646 24.960175 3.450155 31.914646 24.960175 1.875353 33.489449 24.960175 1.875353 31.914646 24.960175 3.450155 33.489449 24.193914 -3.221615 30.688114 24.960175 -2.061656 32.332279 24.960175 -2.061656 31.914646 23.813004 -2.061656 31.914646 30.078285 3.450155 33.489449 28.897182 3.450155 31.914646 28.897182 3.450155 33.489449 29.290882 2.662754 29.552441 24.566473 2.662754 29.552441 24.464075 -2.849057 30.147795 24.193914 -2.849057 30.688114 1.338127 -1.697306 25.167236 5.275135 -1.697306 23.657480 1.338127 -1.697306 23.657480 5.275135 -1.697306 23.729374 5.275135 1.452300 23.729374 1.338127 1.452300 25.167238 1.338127 1.452300 23.657480 5.275135 1.452300 23.657480 1.338127 18.775135 29.562992 1.338127 -19.020142 23.657480 1.338127 -19.020142 29.562992 1.338127 -2.091007 25.167238 1.338127 1.846001 25.167238 1.338127 1.846001 23.657480 1.338127 18.775135 23.657480 1.338127 -2.091007 23.657480 5.275135 -19.020142 23.657480 5.275135 -19.020142 29.562992 5.275135 18.775135 29.562992 5.275135 18.775135 23.657480 6.456237 13.263324 25.232283 5.275135 18.775135 25.232283 5.275135 13.263324 25.232283 6.456237 18.775135 25.232283 0.571867 18.360292 22.430948 0.842027 13.948326 21.890629 0.571867 13.678167 22.430948 0.842027 18.090132 21.890629 6.456237 17.987734 22.870079 6.456237 13.263324 22.870079 6.456237 18.775135 22.870079 0.944426 14.050725 21.295275 0.944426 17.987734 21.295275 0.157024 18.775135 22.870079 0.157024 13.263324 22.870079 1.338127 13.263324 25.232283 0.157024 18.775135 25.232283 0.157024 13.263324 25.232283 1.338127 18.775135 25.232283 1.338127 18.775135 23.657480 5.275135 13.263324 23.657480 1.338127 13.263324 23.657480 5.771234 13.948326 21.890629 5.668835 14.050725 21.295275 6.041394 17.987734 22.430948 6.041394 13.678167 22.430948 5.771234 17.987734 21.890629 5.771234 18.090132 21.890629 6.041394 18.360292 22.430948 5.668835 17.987734 21.295275 6.456237 -19.020142 25.232283 5.275135 -13.508329 25.232283 5.275135 -19.020142 25.232283 6.456237 -13.508329 25.232283 0.571868 -13.923173 22.430948 0.842027 -18.335138 21.890629 0.571868 -18.605297 22.430948 0.842027 -14.193333 21.890629 6.456237 -14.295732 22.870079 6.456237 -19.020142 22.870079 6.456237 -13.508329 22.870079 0.944426 -18.232738 21.295275 0.944426 -14.295732 21.295275 0.157024 -13.508329 22.870079 0.157024 -19.020142 22.870079 1.338127 -19.020142 25.232283 0.157024 -13.508329 25.232283 0.157024 -19.020142 25.232283 1.338127 -13.508329 25.232283 1.338127 -13.508329 23.657480 5.275135 -13.508329 23.657480 5.771235 -18.335138 21.890629 5.668835 -18.232738 21.295275 6.041394 -14.295732 22.430948 6.041394 -18.605297 22.430948 5.771235 -14.295732 21.890629 5.771235 -14.193333 21.890629 6.041394 -13.923173 22.430948 5.668835 -14.295732 21.295275 -4.567384 1.846001 37.820156 25.353874 0.468048 37.820156 25.353874 1.846001 37.820156 -4.567385 -2.091007 37.820156 25.353874 -0.713054 37.820156 25.353874 -2.091007 37.820156 26.928679 -0.909905 37.820156 26.928679 0.664899 37.820156 0.092239 1.846001 31.914646 -4.567384 1.846001 33.611008 0.092239 -2.091007 31.914646 17.086159 -2.091007 31.914646 25.353874 -2.091007 31.914646 17.086159 1.846001 31.914646 25.353874 1.846001 31.914646 26.928679 -0.909905 31.914646 25.353874 0.468048 31.914646 26.928679 0.664899 31.914646 25.353874 -0.713054 31.914646 2.519229 -13.508329 22.870079 4.094032 -13.508329 22.870079 4.094032 -13.508329 23.657480 2.519229 -13.508329 23.657480 2.519229 -1.697306 23.657480 2.519229 -1.697306 21.295275 2.519229 -14.295732 21.295275 2.519229 -13.923173 22.430948 2.519229 -14.193333 21.890629 4.094032 -14.295732 21.295275 4.094032 -1.697306 21.295275 4.094032 -1.697306 23.657480 4.094032 -13.923173 22.430948 4.094032 -14.193333 21.890629 2.519229 13.263324 22.870079 4.094032 13.263324 23.657480 4.094032 13.263324 22.870079 2.519229 13.263324 23.657480 2.519229 1.452300 21.295275 2.519229 1.452300 23.657480 2.519229 14.050725 21.295275 2.519229 13.678167 22.430948 2.519229 13.948326 21.890629 4.094032 14.050725 21.295275 4.094032 1.452300 23.657480 4.094032 1.452300 21.295275 4.094032 13.678167 22.430948 4.094032 13.948326 21.890629 1.731828 -14.295732 21.295275 1.338127 -14.137494 20.704725 1.338127 -14.295732 21.295275 1.731828 -14.137494 20.704725 1.731828 -13.705180 20.272411 1.338127 -13.705180 20.272411 1.338127 -3.272109 20.114174 1.731828 -13.114629 20.114174 1.731828 -3.272109 20.114174 1.338127 -13.114629 20.114174 1.338127 1.452300 21.295275 1.731828 1.846001 21.295275 1.338127 1.846001 21.295275 5.275135 1.452300 21.295275 1.338127 14.050725 21.295275 4.881434 14.050725 21.295275 1.338127 17.987734 21.295275 1.731827 14.050725 21.295275 4.881434 1.846001 21.295275 5.275135 1.846001 21.295275 5.275135 14.050725 21.295275 5.275135 17.987734 21.295275 1.338127 -18.232738 21.295275 1.338127 -18.232738 18.933071 1.338127 -15.398093 15.744095 1.338127 13.263324 15.389764 1.338127 -13.508329 15.389764 1.338127 15.153088 15.744095 1.338127 -16.815416 16.452755 1.338127 16.570410 16.452755 1.338127 -17.760298 17.515749 1.338127 -1.697306 17.358267 1.338127 -2.681558 20.272411 1.338127 -2.249245 20.704725 1.338127 -1.697306 21.295275 1.338127 -2.091007 21.295275 1.338127 1.452300 17.358267 1.338127 17.515293 17.515749 1.338127 3.027103 20.114174 1.338127 2.436552 20.272411 1.338127 2.004239 20.704725 1.338127 17.987734 18.933071 1.338127 12.869623 20.114174 1.338127 13.460175 20.272411 1.338127 13.892488 20.704725 5.275135 13.263324 15.389764 5.275135 15.153088 15.744095 5.275135 -1.697306 17.358267 5.275135 1.452300 17.358267 5.275135 12.869623 20.114174 5.275135 17.987734 18.933071 5.275135 13.460175 20.272411 5.275135 13.892488 20.704725 5.275135 -13.508329 15.389764 5.275135 -15.398093 15.744095 5.275135 16.570410 16.452755 5.275135 -16.815416 16.452755 5.275135 17.515293 17.515749 5.275135 3.027103 20.114174 5.275135 2.436552 20.272411 5.275135 2.004239 20.704725 5.275135 -17.760298 17.515749 5.275135 -3.272109 20.114174 5.275135 -2.681558 20.272411 5.275135 -2.249245 20.704725 5.275135 -1.697306 21.295275 5.275135 -18.232738 18.933071 5.275135 -2.091007 21.295275 5.275135 -13.114629 20.114174 5.275135 -18.232738 21.295275 5.275135 -13.705180 20.272411 5.275135 -14.137493 20.704725 5.275135 -14.295732 21.295275 4.881434 -2.091007 21.295275 1.731828 -2.091007 21.295275 4.881434 -14.295732 21.295275 1.731828 3.027103 20.114174 1.731828 2.436552 20.272411 1.731828 2.004239 20.704725 4.881434 13.460175 20.272411 4.881434 3.027103 20.114174 4.881434 12.869623 20.114174 4.881434 2.436552 20.272411 4.881434 13.892488 20.704725 4.881434 2.004239 20.704725 1.731827 12.869623 20.114174 4.881434 -14.137493 20.704725 4.881434 -13.705180 20.272411 4.881434 -2.681558 20.272411 4.881434 -13.114629 20.114174 4.881434 -3.272109 20.114174 4.881434 -2.249245 20.704725 1.731828 -2.249245 20.704725 1.731828 -2.681558 20.272411 1.731827 13.460175 20.272411 1.731827 13.892488 20.704725 25.747576 0.517261 37.820156 25.747576 -0.713054 37.820156 24.960175 1.846001 37.820156 24.960175 -2.091007 37.820156 24.960175 -15.083133 43.221966 24.960175 14.838127 43.221966 24.960175 -2.091007 31.914646 24.960175 1.846001 31.914646 28.897182 -15.083133 41.789013 25.747576 0.517261 31.914646 25.747576 -0.713054 31.914646 28.897182 14.838127 41.789013 2.519229 -7.602818 14.602363 4.094033 -7.602818 14.602363 4.094033 -7.602818 15.389764 2.519229 -7.602818 15.389764 2.519230 -1.697306 15.389764 2.519230 -1.697306 13.027559 2.519229 -8.390220 13.027559 2.519229 -8.017661 14.163231 2.519229 -8.287821 13.622912 4.094033 -8.390220 13.027559 4.094033 -1.697306 13.027559 4.094033 -1.697306 15.389764 4.094033 -8.017661 14.163231 4.094033 -8.287821 13.622912 4.881434 -2.249245 12.437008 5.275135 -2.091007 13.027559 4.881434 -2.091007 13.027559 5.275135 -2.249245 12.437008 4.881434 -7.209117 11.846457 5.275135 -7.799668 12.004694 5.275135 -7.209117 11.846457 4.881434 -7.799668 12.004694 4.881434 -2.681558 12.004694 5.275135 -3.272109 11.846457 5.275135 -2.681558 12.004694 4.881434 -3.272109 11.846457 4.881434 -8.390220 13.027559 5.275135 -8.231982 12.437008 4.881434 -8.231982 12.437008 5.275135 -8.390220 13.027559 1.338127 1.452300 13.027559 1.731828 1.846001 13.027559 1.338127 1.846001 13.027559 5.275135 1.452300 13.027559 1.338127 8.145213 13.027559 4.881434 8.145213 13.027559 1.338127 12.082221 13.027559 1.731828 8.145213 13.027559 4.881434 1.846001 13.027559 5.275135 1.846001 13.027559 5.275135 8.145213 13.027559 5.275135 12.082221 13.027559 5.275135 -12.327228 10.665355 1.338127 -12.327228 13.027559 1.338127 -12.327228 10.665355 5.275135 -12.327228 13.027559 1.338127 -7.209117 11.846457 1.338127 -7.799668 12.004694 1.338127 -8.231982 12.437008 1.338127 -8.390220 13.027559 1.338127 -9.020141 7.476378 1.338127 6.570410 7.122047 1.338127 -6.815416 7.122047 1.338127 8.775135 7.476378 1.338127 -10.673684 8.185040 1.338127 10.428679 8.185040 1.338127 -11.776047 9.248032 1.338127 -1.697306 9.090551 1.338127 -2.681558 12.004694 1.338127 -2.249245 12.437008 1.338127 -1.697306 13.027559 1.338127 -3.272109 11.846457 1.338127 -2.091007 13.027559 1.338127 1.452300 9.090551 1.338127 11.531040 9.248032 1.338127 2.436552 12.004694 1.338127 2.004239 12.437008 1.338127 3.027103 11.846457 1.338127 12.082221 10.665355 1.338127 6.964111 11.846457 1.338127 7.554662 12.004694 1.338127 7.986976 12.437008 5.275135 12.082221 10.665355 5.275135 -6.815416 7.122047 5.275135 6.570410 7.122047 1.731828 7.986976 12.437008 1.731828 -2.091007 13.027559 1.731828 -2.249245 12.437008 5.275135 -1.697306 9.090551 5.275135 1.452300 9.090551 4.881434 2.436552 12.004694 5.275135 3.027103 11.846457 4.881434 3.027103 11.846457 5.275135 2.436552 12.004694 1.731828 7.554662 12.004694 1.731828 2.436552 12.004694 1.731828 6.964111 11.846457 1.731828 3.027103 11.846457 1.731828 2.004239 12.437008 5.275135 -11.776047 9.248032 5.275135 7.554662 12.004694 4.881434 7.986976 12.437008 4.881434 7.554662 12.004694 5.275135 7.986976 12.437008 5.275135 6.964111 11.846457 4.881434 6.964111 11.846457 5.275135 -9.020141 7.476378 1.731828 -2.681558 12.004694 5.275135 -1.697306 13.027559 5.275135 -10.673684 8.185040 5.275135 2.004239 12.437008 4.881434 2.004239 12.437008 1.731828 -7.799668 12.004694 1.731828 -7.209117 11.846457 1.731828 -8.231982 12.437008 1.731828 -3.272109 11.846457 1.731828 -8.390220 13.027559 5.275135 10.428679 8.185040 5.275135 11.531040 9.248032 5.275135 8.775135 7.476378 2.519229 7.357812 14.602363 4.094033 7.357812 15.389764 4.094033 7.357812 14.602363 2.519229 7.357812 15.389764 2.519230 1.452300 13.027559 2.519230 1.452300 15.389764 2.519229 8.145213 13.027559 2.519229 7.772655 14.163231 2.519229 8.042814 13.622912 4.094033 8.145213 13.027559 4.094033 1.452300 15.389764 4.094033 1.452300 13.027559 4.094033 7.772655 14.163231 4.094033 8.042814 13.622912 -4.567385 1.846001 15.389764 -4.567385 -2.091007 7.122047 -4.567385 -2.091007 15.389764 -4.567385 1.846001 7.122047 1.338127 -2.091007 15.389764 0.157025 -2.091007 8.696851 1.338127 -2.091007 8.696851 -4.134314 -2.091007 15.389764 0.157025 -2.091007 7.122047 0.157025 1.846001 8.696851 1.338127 1.846001 8.696851 6.456237 1.846001 8.696851 5.275135 -2.091007 8.696851 5.275135 1.846001 8.696851 6.456237 -2.091007 8.696851 5.275135 -1.697306 15.389764 1.338127 -1.697306 15.389764 0.157025 1.846001 7.122047 1.338127 1.846001 15.389764 1.338127 1.452300 15.389764 5.275135 1.452300 15.389764 6.456237 1.846001 15.389764 5.275135 1.846001 15.389764 6.456237 -2.091007 15.389764 5.275135 -2.091007 15.389764 6.456237 1.452300 15.389764 6.456237 -1.697306 15.389764 11.968048 1.452300 15.389764 11.968048 -1.697306 15.389764 12.755450 1.452300 13.027559 12.653051 -1.697306 13.622912 12.755450 -1.697306 13.027559 12.653051 1.452300 13.622912 11.968048 1.452300 14.602363 11.968048 -1.697306 14.602363 16.849937 1.846001 9.248032 17.479860 -2.091007 10.665355 16.849937 -2.091007 9.248032 17.479860 1.846001 10.665355 17.479860 1.846001 13.027559 12.755450 1.846001 13.027559 12.755450 -2.091007 13.027559 17.479860 -2.091007 13.027559 12.382892 1.452300 14.163231 12.382892 -1.697306 14.163231 15.590096 1.846001 8.185040 13.700332 -2.091007 7.476378 13.700332 1.846001 7.476378 15.590096 -2.091007 8.185040 11.180647 -2.091007 7.122047 11.180647 1.846001 7.122047 6.456237 -2.091007 7.122047 6.456237 1.846001 7.122047 11.574347 -2.091007 11.846457 12.164899 -2.091007 12.004694 12.597212 -2.091007 12.437008 6.849938 -2.091007 11.846457 6.259387 -2.091007 12.004694 5.827074 -2.091007 12.437008 5.668836 -2.091007 13.027559 5.771235 -2.091007 13.622912 6.041394 -2.091007 14.163231 6.456237 -2.091007 14.602363 5.668836 1.846001 13.027559 5.827074 1.846001 12.437008 6.259387 1.846001 12.004694 6.849938 1.846001 11.846457 5.771235 1.846001 13.622912 6.041394 1.846001 14.163231 6.456237 1.846001 14.602363 11.574347 1.846001 11.846457 12.164899 1.846001 12.004694 12.597212 1.846001 12.437008 5.827074 1.452300 12.437008 5.668836 1.452300 13.027559 6.259387 1.452300 12.004694 6.849938 1.452300 11.846457 11.574347 1.452300 11.846457 12.164899 1.452300 12.004694 12.597212 1.452300 12.437008 5.771235 1.452300 13.622912 6.041394 1.452300 14.163231 6.456237 1.452300 14.602363 12.164899 -1.697306 12.004694 12.597212 -1.697306 12.437008 6.849938 -1.697306 11.846457 11.574347 -1.697306 11.846457 6.259387 -1.697306 12.004694 5.827074 -1.697306 12.437008 5.668836 -1.697306 13.027559 5.771235 -1.697306 13.622912 6.041394 -1.697306 14.163231 6.456237 -1.697306 14.602363 18.267262 -2.091007 16.964567 18.267262 -2.091007 15.389764 11.968048 -2.091007 15.389764 11.968048 -2.091007 16.964567 11.968048 1.846001 16.964567 11.968048 1.846001 15.389764 13.149151 1.846001 15.389764 13.149151 1.846001 16.964567 11.968048 -3.665810 16.964567 18.267262 -3.665810 16.964567 18.267262 1.846001 15.389764 18.267262 1.846001 16.964567 18.267262 3.420804 14.602363 17.852417 3.005961 14.163231 12.382892 3.005961 14.163231 11.968048 3.420804 14.602363 17.582258 2.735801 13.622912 12.653051 2.735801 13.622912 12.653051 -2.980807 13.622912 12.382892 -3.250967 14.163231 12.382892 2.633403 14.163231 12.653051 2.633403 13.622912 12.755450 -2.878408 13.027559 17.479860 -2.878408 13.027559 17.582258 -2.980807 13.622912 17.852417 -3.250967 14.163231 11.968048 -3.665810 14.602363 11.968048 2.633403 14.602363 17.479860 2.633403 13.027559 18.267262 3.420804 16.964567 18.267262 -3.665810 14.602363 11.968048 3.420804 16.964567 12.755450 2.633403 13.027559 6.456237 7.357812 16.964567 5.275135 12.869623 16.964567 5.275135 7.357812 16.964567 6.456237 12.869623 16.964567 0.571868 12.454780 14.163231 0.842027 8.042814 13.622912 0.571868 7.772655 14.163231 0.842027 12.184620 13.622912 6.456237 12.082221 14.602363 6.456237 7.357812 14.602363 6.456237 12.869623 14.602363 0.944426 8.145213 13.027559 0.944426 12.082221 13.027559 0.157025 12.869623 14.602363 0.157025 7.357812 14.602363 1.338127 7.357812 16.964567 0.157025 12.869623 16.964567 0.157025 7.357812 16.964567 1.338127 12.869623 16.964567 1.338127 12.869623 15.389764 5.275135 12.869623 15.389764 5.275135 7.357812 15.389764 1.338127 7.357812 15.389764 5.771235 8.042814 13.622912 5.668836 8.145213 13.027559 6.041394 12.082221 14.163231 6.041394 7.772655 14.163231 5.771235 12.082221 13.622912 5.771235 12.184620 13.622912 6.041394 12.454780 14.163231 5.668836 12.082221 13.027559 -4.567385 -2.091007 23.657480 2.519229 -2.091007 23.657480 4.094032 1.452300 23.657480 2.519229 1.452300 23.657480 2.519229 1.846001 23.657480 -4.567385 1.846001 23.657480 5.511355 -2.091007 23.657480 5.511355 1.846001 23.657480 4.094032 1.846001 23.657480 4.094032 -2.091007 23.657480 2.519229 -2.091007 21.295275 19.020662 1.846001 15.434194 19.020662 -2.091007 15.434194 19.687414 1.846001 15.787789 19.687414 -2.091007 15.787789 20.146837 1.846001 16.386553 20.146837 -2.091007 16.386553 20.977736 1.846001 16.384233 20.977736 -2.091007 16.384233 21.627499 1.846001 16.902117 21.627499 -2.091007 16.902117 21.810568 1.846001 17.712599 21.810568 -2.091007 17.712599 17.086159 1.846001 16.177166 17.676710 1.846001 16.177166 17.676710 -2.091007 16.177166 17.086159 -2.091007 16.177166 12.558599 1.846001 16.177166 12.558599 -2.091007 16.177166 4.094032 -2.091007 21.295275 4.094032 1.452300 21.295277 4.094032 1.846001 21.295277 2.519229 1.846001 21.295275 2.519229 1.452300 21.295275 1.338127 1.452300 21.295275 1.338127 1.452300 17.358267 1.338127 1.846001 17.358267 12.558599 -2.091007 15.389764 17.676710 -2.091007 15.389764 12.558599 1.846001 15.389764 5.275135 -1.697306 17.358267 5.275135 1.452300 17.358267 17.676710 1.846001 15.389764 1.338127 -1.697306 17.358267 6.456237 -13.114629 16.964567 5.275135 -7.602818 16.964567 5.275135 -13.114629 16.964567 6.456237 -7.602818 16.964567 0.571868 -8.017661 14.163231 0.842027 -12.429626 13.622912 0.571868 -12.699786 14.163231 0.842027 -8.287821 13.622912 6.456237 -8.390220 14.602363 6.456237 -13.114629 14.602363 6.456237 -7.602818 14.602363 0.944426 -12.327228 13.027559 0.944426 -8.390220 13.027559 0.157025 -7.602818 14.602363 0.157025 -13.114629 14.602363 1.338127 -13.114629 16.964567 0.157025 -7.602818 16.964567 0.157025 -13.114629 16.964567 1.338127 -7.602818 16.964567 1.338127 -7.602818 15.389764 5.275135 -7.602818 15.389764 5.275135 -13.114629 15.389764 1.338127 -13.114629 15.389764 5.771235 -12.429626 13.622912 5.668836 -12.327228 13.027559 6.041394 -8.390220 14.163231 6.041394 -12.699786 14.163231 5.771235 -8.390220 13.622912 5.771235 -8.287821 13.622912 6.041394 -8.017661 14.163231 5.668836 -8.390220 13.027559 17.086159 1.846001 25.727919 13.149151 -2.091007 27.161207 13.149151 1.846001 27.161207 17.086159 -2.091007 25.727919 24.566473 -2.091007 29.552441 24.464075 -2.091007 30.147795 24.193914 -2.091007 30.688114 23.779072 -2.091007 31.127245 23.779072 -2.091007 31.914646 22.802296 -2.091007 23.646929 22.802296 1.846001 23.646929 0.092239 1.846001 31.914646 23.779072 1.846001 31.127245 23.779072 1.846001 31.914646 24.193914 1.846001 30.688114 24.464075 1.846001 30.147795 24.566473 1.846001 29.552441 30.764420 1.846001 23.646929 30.764420 -2.091007 23.646929 32.732922 -0.122503 23.646929 33.047882 1.846001 24.434332 35.095127 1.846001 29.552441 35.016388 -0.122503 24.434332 33.047882 -2.091007 24.434332 36.771198 -0.122503 28.821358 35.095127 -2.091007 29.552441 5.471985 -1.697306 23.657480 1.338127 1.452300 25.167236 1.338127 -1.697306 25.167236 5.471985 1.452300 23.657480 -4.567385 -2.091007 27.324034 1.338127 1.846001 25.167236 -4.567385 1.846001 27.324034 1.338127 -2.091007 25.167236 1.338127 -2.091007 23.657480 1.338127 1.846001 23.657480 1.338127 1.452300 23.657480 1.338127 -1.697306 23.657480 9.605844 -2.091007 7.122047 9.605844 1.846001 7.122047 -2.992582 1.846001 7.122047 -2.992582 -2.091007 7.122047 1.338127 6.176710 7.122047 5.275135 -6.421716 7.122047 5.275135 6.176710 7.122047 1.338127 -6.421716 7.122047 5.275135 6.176710 10.271653 5.275135 -2.091007 10.271653 5.275135 -6.421716 10.271653 5.275135 1.846001 10.271653 1.338127 -6.421716 10.271653 1.338127 -2.091007 10.271653 1.338127 1.846001 10.271653 1.338127 6.176710 10.271653 -2.992582 6.176710 5.547244 8.776157 5.347023 4.668982 -2.162895 5.347023 4.668982 9.605844 6.176710 5.547244 8.235838 4.806704 3.588344 -1.622576 4.806704 3.588344 9.605844 -6.421716 5.547244 8.776157 -5.592029 4.668982 8.235838 -5.051710 3.588344 8.031040 4.601906 2.397638 8.031040 -4.846912 2.397638 -1.417778 -4.846912 2.397638 -1.622576 -5.051710 3.588344 -2.162895 -5.592029 4.668982 -2.992582 -6.421716 5.547244 -2.992582 6.176710 10.271653 -2.992582 1.846001 10.271653 -1.417778 4.601906 2.397638 -2.992582 -2.091007 10.271653 9.605844 1.846001 10.271653 9.605844 -2.091007 10.271653 9.605844 -6.421716 10.271653 -2.992582 -6.421716 10.271653 -2.162895 -4.846912 4.668982 -1.622576 -4.846912 3.588344 -2.992582 -4.846912 5.547244 9.605844 6.176710 10.271653 "
							            />
						</IndexedFaceSet>
					</Shape>
				</Group>
			</Transform>
		</Transform>
	</Scene>
</X3D>