<?xml version="1.0" encoding="UTF-8"?>
<!DOCTYPE X3D PUBLIC "ISO//Web3D//DTD X3D 3.0//EN" "http://www.web3d.org/specifications/x3d-3.0.dtd">
<X3D version="3.0" profile="Immersive" xmlns:xsd="http://www.w3.org/2001/XMLSchema-instance" xsd:noNamespaceSchemaLocation="http://www.web3d.org/specifications/x3d-3.0.xsd">
	<head>
		<meta name="filename" content="10-2.x3d" />
		<meta name="created" content="2026-06-21 15:09:37" />
		<meta name="generator" content="Blender 4.5.4 LTS" />
		<meta name="translator" content="Web3D X3D/VRML2 format v2.5.1" />
	</head>
	<Scene>
		<NavigationInfo headlight="true"
		                visibilityLimit="0.0"
		                type='"EXAMINE", "ANY"'
		                avatarSize="0.25, 1.75, 0.75"
		                />
		<Background DEF="WO_World"
		            groundColor="0.051 0.051 0.051"
		            skyColor="0.051 0.051 0.051"
		            />
		<Transform DEF="_10-2_TRANSFORM"
		           translation="0.000000 0.000000 0.000000"
		           scale="1.000000 1.000000 1.000000"
		           rotation="0.000000 0.707107 0.707107 3.141593"
		           >
			<Transform DEF="_10-2_ifs_TRANSFORM"
			           translation="0.000000 0.000000 0.000000"
			           scale="1.000000 1.000000 1.000000"
			           rotation="0.000000 1.000000 0.000000 0.000000"
			           >
				<Group DEF="group_ME_10-2_001">
					<Shape>
						<Appearance>
						</Appearance>
						<IndexedFaceSet solid="false"
						                coordIndex="0 1 2 -1 1 0 3 -1 4 5 6 -1 5 4 7 -1 8 9 10 -1 9 8 11 -1 5 12 6 -1 12 5 13 -1 10 14 15 -1 14 10 9 -1 14 9 16 -1 16 9 17 -1 17 9 18 -1 19 15 14 -1 20 21 22 -1 23 8 24 -1 8 23 25 -1 8 25 11 -1 11 25 21 -1 11 21 20 -1 26 0 27 -1 0 26 3 -1 28 29 30 -1 29 28 31 -1 30 32 33 -1 32 30 29 -1 34 29 31 -1 29 34 35 -1 35 32 29 -1 32 35 36 -1 36 37 32 -1 37 36 38 -1 36 39 38 -1 39 36 40 -1 34 41 35 -1 41 34 42 -1 35 40 36 -1 40 35 41 -1 43 23 24 -1 23 43 44 -1 33 37 45 -1 37 33 32 -1 46 5 7 -1 5 46 13 -1 13 46 21 -1 21 46 22 -1 23 12 25 -1 12 4 6 -1 4 12 44 -1 44 12 23 -1 14 26 27 -1 26 14 16 -1 12 21 25 -1 21 12 13 -1 47 0 2 -1 0 47 27 -1 27 47 14 -1 14 47 19 -1 17 26 16 -1 26 1 3 -1 1 26 48 -1 48 26 17 -1 34 9 42 -1 9 34 49 -1 9 49 18 -1 42 11 50 -1 11 42 9 -1 50 11 20 -1 33 51 30 -1 51 33 52 -1 51 52 40 -1 51 40 41 -1 39 37 38 -1 37 39 45 -1 30 53 28 -1 53 30 51 -1 53 51 41 -1 53 41 42 -1 45 52 33 -1 52 45 39 -1 52 39 40 -1 28 8 31 -1 8 28 43 -1 8 43 24 -1 31 10 54 -1 10 31 8 -1 54 10 15 -1 49 1 48 -1 47 31 54 -1 31 47 2 -1 31 2 34 -1 34 2 1 -1 34 1 49 -1 53 4 28 -1 4 53 7 -1 7 53 46 -1 46 53 50 -1 50 53 42 -1 28 44 43 -1 44 28 4 -1 17 49 48 -1 49 17 18 -1 46 20 22 -1 20 46 50 -1 15 47 54 -1 47 15 19 -1 55 56 57 -1 56 55 58 -1 59 55 57 -1 55 59 60 -1 55 61 58 -1 61 55 60 -1 59 56 62 -1 56 59 57 -1 61 59 62 -1 59 61 60 -1 61 56 58 -1 56 61 62 -1 63 64 65 -1 65 66 63 -1 67 68 65 -1 65 64 67 -1 69 70 68 -1 68 67 69 -1 70 69 71 -1 71 72 70 -1 72 73 74 -1 74 70 72 -1 70 74 75 -1 75 68 70 -1 75 65 68 -1 75 66 65 -1 75 76 66 -1 73 72 71 -1 71 77 73 -1 76 75 78 -1 78 79 76 -1 78 75 74 -1 74 80 78 -1 80 77 69 -1 69 78 80 -1 69 67 78 -1 67 64 78 -1 64 63 78 -1 63 79 78 -1 71 69 77 -1 63 66 76 -1 76 79 63 -1 77 80 74 -1 74 73 77 -1 81 82 83 -1 82 81 84 -1 82 84 85 -1 86 87 88 -1 87 86 89 -1 90 91 92 -1 91 90 93 -1 94 95 96 -1 95 94 97 -1 98 99 100 -1 99 98 101 -1 102 92 103 -1 92 102 90 -1 104 90 105 -1 90 104 93 -1 99 82 85 -1 82 99 106 -1 107 108 109 -1 108 107 110 -1 111 112 113 -1 112 111 114 -1 115 116 107 -1 116 115 117 -1 118 119 120 -1 119 118 121 -1 99 84 100 -1 84 99 85 -1 89 122 87 -1 122 89 123 -1 124 101 98 -1 101 124 125 -1 126 122 127 -1 122 126 88 -1 122 88 87 -1 128 95 129 -1 95 128 96 -1 130 131 132 -1 131 130 133 -1 110 134 135 -1 134 110 136 -1 137 110 135 -1 110 137 108 -1 104 129 93 -1 129 104 128 -1 105 102 138 -1 102 105 90 -1 89 103 123 -1 103 89 102 -1 137 125 124 -1 125 137 135 -1 94 139 97 -1 139 94 121 -1 121 94 119 -1 140 118 120 -1 118 140 141 -1 142 133 130 -1 133 142 143 -1 144 143 142 -1 143 144 145 -1 95 146 129 -1 146 95 147 -1 107 136 110 -1 136 107 116 -1 138 89 86 -1 89 138 102 -1 101 148 149 -1 148 101 125 -1 132 114 111 -1 114 132 131 -1 129 91 93 -1 91 129 146 -1 141 145 144 -1 145 141 140 -1 101 106 99 -1 106 101 149 -1 83 148 150 -1 148 83 149 -1 149 83 106 -1 106 83 82 -1 113 132 111 -1 132 113 130 -1 130 113 151 -1 130 151 142 -1 142 151 152 -1 142 152 144 -1 144 152 153 -1 144 153 154 -1 154 153 134 -1 154 134 136 -1 154 136 116 -1 154 116 155 -1 134 153 150 -1 134 150 148 -1 155 116 117 -1 144 156 141 -1 156 144 154 -1 141 156 92 -1 92 156 103 -1 103 156 123 -1 123 156 127 -1 141 92 118 -1 123 127 122 -1 118 91 121 -1 91 118 92 -1 121 91 146 -1 121 146 147 -1 121 147 139 -1 125 134 148 -1 134 125 135 -1 97 147 95 -1 147 97 139 -1 115 109 157 -1 109 115 107 -1 83 158 81 -1 158 83 150 -1 152 159 153 -1 159 152 160 -1 150 159 158 -1 159 150 153 -1 127 161 126 -1 161 127 156 -1 119 104 120 -1 104 119 128 -1 128 119 96 -1 96 119 94 -1 133 114 131 -1 114 133 112 -1 112 133 143 -1 112 143 162 -1 162 143 145 -1 162 145 160 -1 160 145 140 -1 160 140 161 -1 161 140 105 -1 161 105 138 -1 161 138 86 -1 161 86 126 -1 105 140 120 -1 105 120 104 -1 126 86 88 -1 160 163 159 -1 163 160 161 -1 159 163 137 -1 137 163 108 -1 108 163 109 -1 109 163 164 -1 159 137 158 -1 109 164 157 -1 158 124 81 -1 124 158 137 -1 81 124 98 -1 81 98 100 -1 81 100 84 -1 157 117 115 -1 117 157 155 -1 155 157 164 -1 113 162 151 -1 162 113 112 -1 163 156 154 -1 156 163 161 -1 151 160 152 -1 160 151 162 -1 163 155 164 -1 155 163 154 -1 165 166 167 -1 166 165 168 -1 169 170 171 -1 170 169 172 -1 173 165 174 -1 165 173 168 -1 168 173 175 -1 172 176 170 -1 176 172 177 -1 178 171 179 -1 171 178 169 -1 180 181 182 -1 181 180 183 -1 178 76 175 -1 76 178 181 -1 76 181 183 -1 175 79 168 -1 79 175 76 -1 168 79 166 -1 166 184 167 -1 184 166 79 -1 184 76 185 -1 76 184 79 -1 186 176 187 -1 176 186 170 -1 186 188 189 -1 188 186 190 -1 188 190 191 -1 188 191 192 -1 189 170 186 -1 170 189 171 -1 76 180 185 -1 180 76 183 -1 189 173 174 -1 173 189 188 -1 173 188 192 -1 173 192 175 -1 169 191 172 -1 191 169 192 -1 178 192 169 -1 192 178 175 -1 187 190 186 -1 190 187 193 -1 190 193 191 -1 174 184 179 -1 184 174 165 -1 184 165 167 -1 179 185 182 -1 185 179 184 -1 182 185 180 -1 193 176 177 -1 176 193 187 -1 174 171 189 -1 171 174 179 -1 181 179 182 -1 179 181 178 -1 172 193 177 -1 193 172 191 -1 194 195 196 -1 195 194 197 -1 198 199 200 -1 199 198 201 -1 202 194 203 -1 194 202 197 -1 197 202 204 -1 201 205 199 -1 205 201 206 -1 207 200 208 -1 200 207 198 -1 209 210 211 -1 210 209 212 -1 207 213 204 -1 213 207 210 -1 213 210 212 -1 204 214 197 -1 214 204 213 -1 197 214 195 -1 195 215 196 -1 215 195 214 -1 215 213 216 -1 213 215 214 -1 217 205 218 -1 205 217 199 -1 217 219 220 -1 219 217 221 -1 219 221 222 -1 219 222 223 -1 220 199 217 -1 199 220 200 -1 213 209 216 -1 209 213 212 -1 220 202 203 -1 202 220 219 -1 202 219 223 -1 202 223 204 -1 198 222 201 -1 222 198 223 -1 207 223 198 -1 223 207 204 -1 218 221 217 -1 221 218 224 -1 221 224 222 -1 203 215 208 -1 215 203 194 -1 215 194 196 -1 208 216 211 -1 216 208 215 -1 211 216 209 -1 224 205 206 -1 205 224 218 -1 203 200 220 -1 200 203 208 -1 210 208 211 -1 208 210 207 -1 201 224 206 -1 224 201 222 -1 225 226 227 -1 226 225 228 -1 229 228 230 -1 228 229 226 -1 226 229 231 -1 226 231 232 -1 226 232 233 -1 225 234 235 -1 234 225 227 -1 234 227 236 -1 236 227 237 -1 237 227 238 -1 229 239 240 -1 239 229 230 -1 241 237 238 -1 237 241 242 -1 243 235 244 -1 235 243 225 -1 232 240 245 -1 240 232 229 -1 229 232 231 -1 246 235 234 -1 235 246 244 -1 244 246 247 -1 230 248 239 -1 248 230 228 -1 249 239 248 -1 239 249 240 -1 250 251 252 -1 251 226 253 -1 226 251 227 -1 227 251 238 -1 238 251 241 -1 241 251 250 -1 254 255 256 -1 255 254 253 -1 255 253 233 -1 233 253 226 -1 241 257 258 -1 257 241 250 -1 257 250 259 -1 258 260 261 -1 260 258 257 -1 261 260 262 -1 263 264 265 -1 264 266 267 -1 266 264 268 -1 268 264 263 -1 269 262 270 -1 262 269 261 -1 271 272 255 -1 272 271 273 -1 272 273 274 -1 255 275 256 -1 275 255 272 -1 256 275 276 -1 262 277 270 -1 263 272 274 -1 272 263 265 -1 272 265 260 -1 260 265 277 -1 260 277 262 -1 278 276 279 -1 275 279 276 -1 279 275 257 -1 279 257 280 -1 280 257 281 -1 281 257 259 -1 254 282 253 -1 282 254 283 -1 283 254 279 -1 279 254 278 -1 266 284 267 -1 284 266 285 -1 273 263 274 -1 263 273 268 -1 242 286 247 -1 286 242 287 -1 241 287 242 -1 287 241 258 -1 242 236 237 -1 236 242 234 -1 234 242 246 -1 246 242 247 -1 276 254 256 -1 254 276 278 -1 264 277 265 -1 277 264 288 -1 269 284 285 -1 284 269 288 -1 288 269 277 -1 277 269 270 -1 284 264 267 -1 264 284 288 -1 289 258 271 -1 258 289 287 -1 271 245 289 -1 245 271 255 -1 272 257 275 -1 257 272 260 -1 247 243 244 -1 243 247 286 -1 249 287 289 -1 287 249 286 -1 281 250 252 -1 250 281 259 -1 271 266 273 -1 266 271 258 -1 266 258 285 -1 285 258 269 -1 269 258 261 -1 268 273 266 -1 248 286 249 -1 286 248 228 -1 286 228 225 -1 286 225 243 -1 233 245 255 -1 245 233 232 -1 289 240 249 -1 240 289 245 -1 281 290 280 -1 290 251 291 -1 251 290 252 -1 252 290 281 -1 290 282 283 -1 282 290 291 -1 279 290 283 -1 290 279 280 -1 282 251 253 -1 251 282 291 -1 292 293 294 -1 293 292 295 -1 293 295 296 -1 297 298 299 -1 298 297 300 -1 301 302 303 -1 302 301 304 -1 305 306 307 -1 306 305 308 -1 309 310 311 -1 310 309 312 -1 313 303 314 -1 303 313 301 -1 315 301 316 -1 301 315 304 -1 310 293 296 -1 293 310 317 -1 318 319 320 -1 319 318 321 -1 322 323 324 -1 323 322 325 -1 326 327 318 -1 327 326 328 -1 329 330 331 -1 330 329 332 -1 310 295 311 -1 295 310 296 -1 300 333 298 -1 333 300 334 -1 335 312 309 -1 312 335 336 -1 337 333 338 -1 333 337 299 -1 333 299 298 -1 339 306 340 -1 306 339 307 -1 341 342 343 -1 342 341 344 -1 321 345 346 -1 345 321 347 -1 348 321 346 -1 321 348 319 -1 315 340 304 -1 340 315 339 -1 316 313 349 -1 313 316 301 -1 300 314 334 -1 314 300 313 -1 348 336 335 -1 336 348 346 -1 305 350 308 -1 350 305 332 -1 332 305 330 -1 351 329 331 -1 329 351 352 -1 353 344 341 -1 344 353 354 -1 355 354 353 -1 354 355 356 -1 306 357 340 -1 357 306 358 -1 318 347 321 -1 347 318 327 -1 349 300 297 -1 300 349 313 -1 312 359 360 -1 359 312 336 -1 343 325 322 -1 325 343 342 -1 340 302 304 -1 302 340 357 -1 352 356 355 -1 356 352 351 -1 312 317 310 -1 317 312 360 -1 294 359 361 -1 359 294 360 -1 360 294 317 -1 317 294 293 -1 324 343 322 -1 343 324 341 -1 341 324 362 -1 341 362 353 -1 353 362 363 -1 353 363 355 -1 355 363 364 -1 355 364 365 -1 365 364 345 -1 365 345 347 -1 365 347 327 -1 365 327 366 -1 345 364 361 -1 345 361 359 -1 366 327 328 -1 355 367 352 -1 367 355 365 -1 352 367 303 -1 303 367 314 -1 314 367 334 -1 334 367 338 -1 352 303 329 -1 334 338 333 -1 329 302 332 -1 302 329 303 -1 332 302 357 -1 332 357 358 -1 332 358 350 -1 336 345 359 -1 345 336 346 -1 308 358 306 -1 358 308 350 -1 326 320 368 -1 320 326 318 -1 294 369 292 -1 369 294 361 -1 363 370 364 -1 370 363 371 -1 361 370 369 -1 370 361 364 -1 338 372 337 -1 372 338 367 -1 330 315 331 -1 315 330 339 -1 339 330 307 -1 307 330 305 -1 344 325 342 -1 325 344 323 -1 323 344 354 -1 323 354 373 -1 373 354 356 -1 373 356 371 -1 371 356 351 -1 371 351 372 -1 372 351 316 -1 372 316 349 -1 372 349 297 -1 372 297 337 -1 316 351 331 -1 316 331 315 -1 337 297 299 -1 371 374 370 -1 374 371 372 -1 370 374 348 -1 348 374 319 -1 319 374 320 -1 320 374 375 -1 370 348 369 -1 320 375 368 -1 369 335 292 -1 335 369 348 -1 292 335 309 -1 292 309 311 -1 292 311 295 -1 368 328 326 -1 328 368 366 -1 366 368 375 -1 324 373 362 -1 373 324 323 -1 374 367 365 -1 367 374 372 -1 362 371 363 -1 371 362 373 -1 374 366 375 -1 366 374 365 -1 376 377 378 -1 377 376 379 -1 380 381 382 -1 381 380 383 -1 384 376 385 -1 376 384 379 -1 379 384 386 -1 383 387 381 -1 387 383 388 -1 389 382 390 -1 382 389 380 -1 391 392 393 -1 392 391 394 -1 389 395 386 -1 395 389 392 -1 395 392 394 -1 386 396 379 -1 396 386 395 -1 379 396 377 -1 377 397 378 -1 397 377 396 -1 397 395 398 -1 395 397 396 -1 399 387 400 -1 387 399 381 -1 399 401 402 -1 401 399 403 -1 401 403 404 -1 401 404 405 -1 402 381 399 -1 381 402 382 -1 395 391 398 -1 391 395 394 -1 402 384 385 -1 384 402 401 -1 384 401 405 -1 384 405 386 -1 380 404 383 -1 404 380 405 -1 389 405 380 -1 405 389 386 -1 400 403 399 -1 403 400 406 -1 403 406 404 -1 385 397 390 -1 397 385 376 -1 397 376 378 -1 390 398 393 -1 398 390 397 -1 393 398 391 -1 406 387 388 -1 387 406 400 -1 385 382 402 -1 382 385 390 -1 392 390 393 -1 390 392 389 -1 383 406 388 -1 406 383 404 -1 407 408 409 -1 408 407 410 -1 411 412 413 -1 412 411 414 -1 415 407 416 -1 407 415 410 -1 410 415 417 -1 414 418 412 -1 418 414 419 -1 420 413 421 -1 413 420 411 -1 422 423 424 -1 423 422 425 -1 420 426 417 -1 426 420 423 -1 426 423 425 -1 417 427 410 -1 427 417 426 -1 410 427 408 -1 408 428 409 -1 428 408 427 -1 428 426 429 -1 426 428 427 -1 430 418 431 -1 418 430 412 -1 430 432 433 -1 432 430 434 -1 432 434 435 -1 432 435 436 -1 433 412 430 -1 412 433 413 -1 426 422 429 -1 422 426 425 -1 433 415 416 -1 415 433 432 -1 415 432 436 -1 415 436 417 -1 411 435 414 -1 435 411 436 -1 420 436 411 -1 436 420 417 -1 431 434 430 -1 434 431 437 -1 434 437 435 -1 416 428 421 -1 428 416 407 -1 428 407 409 -1 421 429 424 -1 429 421 428 -1 424 429 422 -1 437 418 419 -1 418 437 431 -1 416 413 433 -1 413 416 421 -1 423 421 424 -1 421 423 420 -1 414 437 419 -1 437 414 435 -1 438 439 440 -1 439 438 441 -1 442 441 443 -1 441 442 439 -1 439 442 444 -1 439 444 445 -1 439 445 446 -1 438 447 448 -1 447 438 440 -1 447 440 449 -1 449 440 450 -1 450 440 451 -1 442 452 453 -1 452 442 443 -1 454 450 451 -1 450 454 455 -1 456 448 457 -1 448 456 438 -1 445 453 458 -1 453 445 442 -1 442 445 444 -1 459 448 447 -1 448 459 457 -1 457 459 460 -1 443 461 452 -1 461 443 441 -1 462 452 461 -1 452 462 453 -1 463 464 465 -1 464 439 466 -1 439 464 440 -1 440 464 451 -1 451 464 454 -1 454 464 463 -1 467 468 469 -1 468 467 466 -1 468 466 446 -1 446 466 439 -1 454 470 471 -1 470 454 463 -1 470 463 472 -1 471 473 474 -1 473 471 470 -1 474 473 475 -1 476 477 478 -1 477 479 480 -1 479 477 481 -1 481 477 476 -1 482 475 483 -1 475 482 474 -1 484 485 468 -1 485 484 486 -1 485 486 487 -1 468 488 469 -1 488 468 485 -1 469 488 489 -1 475 490 483 -1 476 485 487 -1 485 476 478 -1 485 478 473 -1 473 478 490 -1 473 490 475 -1 491 489 492 -1 488 492 489 -1 492 488 470 -1 492 470 493 -1 493 470 494 -1 494 470 472 -1 467 495 466 -1 495 467 496 -1 496 467 492 -1 492 467 491 -1 479 497 480 -1 497 479 498 -1 486 476 487 -1 476 486 481 -1 455 499 460 -1 499 455 500 -1 454 500 455 -1 500 454 471 -1 455 449 450 -1 449 455 447 -1 447 455 459 -1 459 455 460 -1 489 467 469 -1 467 489 491 -1 477 490 478 -1 490 477 501 -1 482 497 498 -1 497 482 501 -1 501 482 490 -1 490 482 483 -1 497 477 480 -1 477 497 501 -1 502 471 484 -1 471 502 500 -1 484 458 502 -1 458 484 468 -1 485 470 488 -1 470 485 473 -1 460 456 457 -1 456 460 499 -1 462 500 502 -1 500 462 499 -1 494 463 465 -1 463 494 472 -1 484 479 486 -1 479 484 471 -1 479 471 498 -1 498 471 482 -1 482 471 474 -1 481 486 479 -1 461 499 462 -1 499 461 441 -1 499 441 438 -1 499 438 456 -1 446 458 468 -1 458 446 445 -1 502 453 462 -1 453 502 458 -1 494 503 493 -1 503 464 504 -1 464 503 465 -1 465 503 494 -1 503 495 496 -1 495 503 504 -1 492 503 496 -1 503 492 493 -1 495 464 466 -1 464 495 504 -1 505 506 507 -1 506 505 508 -1 506 508 509 -1 510 511 512 -1 511 510 513 -1 514 515 516 -1 515 514 517 -1 518 519 520 -1 519 518 521 -1 522 523 524 -1 523 522 525 -1 526 516 527 -1 516 526 514 -1 528 514 529 -1 514 528 517 -1 523 506 509 -1 506 523 530 -1 531 532 533 -1 532 531 534 -1 10 535 536 -1 535 10 8 -1 537 538 531 -1 538 537 539 -1 540 541 542 -1 541 540 543 -1 523 508 524 -1 508 523 509 -1 513 544 511 -1 544 513 545 -1 546 525 522 -1 525 546 547 -1 548 544 549 -1 544 548 512 -1 544 512 511 -1 550 519 551 -1 519 550 520 -1 552 11 9 -1 11 552 553 -1 534 554 555 -1 554 534 556 -1 557 534 555 -1 534 557 532 -1 528 551 517 -1 551 528 550 -1 529 526 558 -1 526 529 514 -1 513 527 545 -1 527 513 526 -1 557 547 546 -1 547 557 555 -1 518 559 521 -1 559 518 543 -1 543 518 541 -1 560 540 542 -1 540 560 561 -1 562 553 552 -1 553 562 563 -1 564 563 562 -1 563 564 565 -1 519 566 551 -1 566 519 567 -1 531 556 534 -1 556 531 538 -1 558 513 510 -1 513 558 526 -1 525 568 569 -1 568 525 547 -1 551 515 517 -1 515 551 566 -1 561 565 564 -1 565 561 560 -1 525 530 523 -1 530 525 569 -1 507 568 570 -1 568 507 569 -1 569 507 530 -1 530 507 506 -1 536 9 10 -1 9 536 552 -1 552 536 571 -1 552 571 562 -1 562 571 572 -1 562 572 564 -1 564 572 573 -1 564 573 574 -1 574 573 554 -1 574 554 556 -1 574 556 538 -1 574 538 575 -1 554 573 570 -1 554 570 568 -1 575 538 539 -1 564 576 561 -1 576 564 574 -1 561 576 516 -1 516 576 527 -1 527 576 545 -1 545 576 549 -1 561 516 540 -1 545 549 544 -1 540 515 543 -1 515 540 516 -1 543 515 566 -1 543 566 567 -1 543 567 559 -1 547 554 568 -1 554 547 555 -1 521 567 519 -1 567 521 559 -1 537 533 577 -1 533 537 531 -1 507 578 505 -1 578 507 570 -1 572 579 573 -1 579 572 580 -1 570 579 578 -1 579 570 573 -1 549 581 548 -1 581 549 576 -1 541 528 542 -1 528 541 550 -1 550 541 520 -1 520 541 518 -1 553 8 11 -1 8 553 535 -1 535 553 563 -1 535 563 582 -1 582 563 565 -1 582 565 580 -1 580 565 560 -1 580 560 581 -1 581 560 529 -1 581 529 558 -1 581 558 510 -1 581 510 548 -1 529 560 542 -1 529 542 528 -1 548 510 512 -1 580 583 579 -1 583 580 581 -1 579 583 557 -1 557 583 532 -1 532 583 533 -1 533 583 584 -1 579 557 578 -1 533 584 577 -1 578 546 505 -1 546 578 557 -1 505 546 522 -1 505 522 524 -1 505 524 508 -1 577 539 537 -1 539 577 575 -1 575 577 584 -1 536 582 571 -1 582 536 535 -1 583 576 574 -1 576 583 581 -1 571 580 572 -1 580 571 582 -1 583 575 584 -1 575 583 574 -1 585 586 587 -1 586 585 588 -1 587 589 590 -1 589 587 586 -1 591 592 593 -1 592 591 594 -1 586 595 596 -1 595 586 588 -1 589 596 597 -1 596 589 586 -1 592 598 599 -1 598 592 594 -1 589 600 601 -1 600 589 597 -1 593 602 603 -1 602 593 592 -1 590 601 604 -1 601 590 589 -1 603 591 593 -1 591 603 605 -1 605 603 606 -1 607 588 585 -1 588 607 608 -1 609 610 611 -1 610 609 612 -1 612 613 610 -1 613 612 614 -1 615 612 609 -1 612 615 616 -1 617 618 619 -1 618 617 620 -1 619 621 622 -1 621 619 618 -1 592 623 602 -1 623 592 599 -1 588 624 595 -1 624 588 608 -1 599 624 608 -1 624 599 598 -1 607 599 608 -1 599 607 623 -1 606 607 625 -1 607 606 623 -1 623 606 602 -1 602 606 603 -1 626 627 628 -1 627 626 629 -1 629 626 630 -1 629 630 631 -1 631 630 632 -1 631 632 633 -1 633 632 587 -1 633 587 590 -1 633 590 634 -1 587 632 585 -1 585 632 625 -1 585 625 607 -1 634 590 604 -1 631 635 636 -1 635 631 633 -1 636 635 637 -1 637 635 621 -1 621 635 638 -1 636 637 639 -1 636 639 640 -1 621 638 622 -1 640 641 642 -1 641 640 639 -1 642 641 615 -1 642 615 609 -1 642 609 611 -1 618 643 644 -1 643 618 620 -1 645 606 625 -1 606 645 605 -1 634 600 646 -1 600 634 604 -1 600 604 601 -1 647 627 648 -1 627 647 628 -1 649 640 642 -1 640 649 650 -1 640 651 636 -1 651 640 650 -1 649 652 650 -1 652 649 653 -1 653 649 614 -1 614 649 613 -1 654 647 648 -1 647 654 655 -1 655 654 656 -1 656 654 657 -1 656 657 651 -1 656 651 658 -1 658 651 643 -1 658 643 620 -1 658 620 659 -1 643 651 660 -1 660 651 650 -1 660 650 652 -1 659 620 617 -1 656 661 662 -1 661 656 658 -1 662 661 596 -1 596 661 597 -1 597 661 646 -1 662 596 595 -1 662 595 645 -1 597 646 600 -1 645 624 605 -1 624 645 595 -1 605 624 598 -1 605 598 594 -1 605 594 591 -1 648 629 654 -1 629 648 627 -1 654 631 657 -1 631 654 629 -1 642 613 649 -1 613 642 611 -1 613 611 610 -1 656 626 655 -1 626 656 630 -1 657 636 651 -1 636 657 631 -1 646 633 634 -1 633 646 661 -1 635 661 658 -1 661 635 633 -1 622 617 619 -1 617 622 659 -1 659 622 638 -1 662 630 656 -1 630 662 632 -1 662 625 632 -1 625 662 645 -1 655 628 647 -1 628 655 626 -1 635 659 638 -1 659 635 658 -1 641 616 615 -1 616 641 663 -1 612 653 614 -1 653 612 616 -1 639 663 641 -1 663 639 664 -1 616 652 653 -1 652 616 663 -1 639 644 664 -1 644 639 637 -1 644 660 664 -1 660 644 643 -1 663 660 652 -1 660 663 664 -1 618 637 621 -1 637 618 644 -1 665 666 667 -1 666 665 668 -1 669 670 671 -1 670 669 672 -1 673 665 674 -1 665 673 668 -1 668 673 675 -1 672 676 670 -1 676 672 677 -1 678 671 679 -1 671 678 669 -1 680 681 682 -1 681 680 683 -1 678 684 675 -1 684 678 681 -1 684 681 683 -1 675 685 668 -1 685 675 684 -1 668 685 666 -1 666 686 667 -1 686 666 685 -1 686 684 687 -1 684 686 685 -1 688 676 689 -1 676 688 670 -1 688 690 691 -1 690 688 692 -1 690 692 693 -1 690 693 694 -1 691 670 688 -1 670 691 671 -1 684 680 687 -1 680 684 683 -1 691 673 674 -1 673 691 690 -1 673 690 694 -1 673 694 675 -1 669 693 672 -1 693 669 694 -1 678 694 669 -1 694 678 675 -1 689 692 688 -1 692 689 695 -1 692 695 693 -1 674 686 679 -1 686 674 665 -1 686 665 667 -1 679 687 682 -1 687 679 686 -1 682 687 680 -1 695 676 677 -1 676 695 689 -1 674 671 691 -1 671 674 679 -1 681 679 682 -1 679 681 678 -1 672 695 677 -1 695 672 693 -1 696 697 698 -1 697 696 699 -1 700 701 702 -1 701 700 703 -1 704 696 705 -1 696 704 699 -1 699 704 706 -1 703 707 701 -1 707 703 708 -1 709 702 710 -1 702 709 700 -1 711 712 713 -1 712 711 714 -1 709 715 706 -1 715 709 712 -1 715 712 714 -1 706 716 699 -1 716 706 715 -1 699 716 697 -1 697 717 698 -1 717 697 716 -1 717 715 718 -1 715 717 716 -1 719 707 720 -1 707 719 701 -1 719 721 722 -1 721 719 723 -1 721 723 724 -1 721 724 725 -1 722 701 719 -1 701 722 702 -1 715 711 718 -1 711 715 714 -1 722 704 705 -1 704 722 721 -1 704 721 725 -1 704 725 706 -1 700 724 703 -1 724 700 725 -1 709 725 700 -1 725 709 706 -1 720 723 719 -1 723 720 726 -1 723 726 724 -1 705 717 710 -1 717 705 696 -1 717 696 698 -1 710 718 713 -1 718 710 717 -1 713 718 711 -1 726 707 708 -1 707 726 720 -1 705 702 722 -1 702 705 710 -1 712 710 713 -1 710 712 709 -1 703 726 708 -1 726 703 724 -1 727 728 729 -1 728 727 730 -1 731 732 733 -1 732 731 734 -1 735 736 737 -1 736 735 738 -1 739 740 741 -1 740 739 742 -1 740 727 729 -1 727 740 733 -1 733 740 731 -1 731 740 742 -1 727 737 743 -1 737 727 733 -1 744 745 746 -1 745 744 736 -1 736 744 737 -1 737 744 743 -1 745 747 746 -1 747 745 748 -1 749 744 750 -1 744 749 743 -1 748 736 738 -1 736 748 745 -1 744 747 750 -1 747 744 746 -1 734 742 739 -1 742 734 731 -1 740 728 741 -1 728 740 729 -1 738 747 748 -1 747 738 750 -1 750 738 735 -1 739 732 734 -1 732 739 730 -1 730 739 728 -1 728 739 741 -1 735 749 750 -1 749 735 732 -1 749 732 730 -1 737 732 735 -1 732 737 733 -1 727 749 730 -1 749 727 743 -1 751 752 753 -1 752 751 754 -1 754 755 752 -1 755 754 756 -1 757 753 758 -1 753 757 751 -1 751 756 754 -1 756 751 757 -1 756 757 759 -1 759 757 760 -1 759 760 761 -1 761 760 762 -1 759 763 764 -1 763 759 761 -1 764 763 765 -1 766 757 767 -1 757 766 762 -1 757 762 760 -1 768 769 770 -1 769 768 771 -1 769 771 772 -1 769 772 773 -1 774 775 776 -1 777 778 779 -1 778 777 780 -1 778 780 781 -1 778 781 769 -1 778 769 773 -1 778 773 782 -1 778 782 775 -1 775 782 776 -1 778 775 783 -1 778 783 784 -1 778 784 785 -1 778 785 786 -1 778 786 787 -1 788 778 787 -1 789 777 779 -1 777 789 790 -1 767 779 778 -1 779 767 789 -1 789 767 757 -1 789 757 758 -1 791 757 767 -1 757 791 751 -1 751 791 792 -1 751 792 754 -1 754 792 793 -1 754 793 794 -1 754 795 756 -1 795 754 794 -1 796 777 790 -1 777 796 770 -1 770 796 797 -1 770 780 777 -1 780 770 769 -1 780 769 781 -1 793 791 792 -1 791 793 798 -1 791 798 766 -1 766 798 799 -1 799 798 800 -1 800 798 801 -1 800 801 802 -1 766 767 791 -1 801 765 802 -1 765 801 764 -1 787 791 788 -1 791 787 792 -1 789 796 790 -1 796 789 803 -1 803 789 804 -1 804 789 758 -1 804 758 805 -1 805 758 806 -1 806 758 807 -1 807 758 808 -1 807 808 809 -1 808 758 810 -1 810 758 811 -1 811 758 812 -1 812 758 753 -1 812 753 752 -1 755 812 752 -1 813 809 808 -1 800 761 799 -1 761 800 763 -1 803 797 796 -1 797 803 770 -1 770 803 768 -1 799 762 766 -1 762 799 761 -1 802 763 800 -1 763 802 765 -1 794 798 793 -1 798 794 759 -1 759 794 795 -1 759 795 756 -1 798 764 801 -1 764 798 759 -1 788 767 778 -1 767 788 791 -1 786 792 787 -1 792 786 793 -1 814 794 815 -1 794 814 795 -1 816 817 774 -1 817 816 818 -1 818 816 813 -1 813 816 819 -1 819 816 820 -1 819 820 821 -1 817 795 794 -1 795 817 818 -1 809 819 822 -1 819 809 813 -1 807 776 809 -1 776 807 782 -1 822 807 809 -1 807 822 823 -1 824 823 822 -1 823 824 825 -1 826 824 827 -1 824 826 825 -1 828 827 829 -1 827 828 826 -1 806 782 807 -1 782 806 773 -1 782 829 776 -1 829 782 828 -1 803 771 768 -1 771 803 830 -1 830 803 831 -1 831 803 832 -1 832 803 833 -1 833 803 804 -1 834 818 835 -1 818 834 836 -1 818 836 814 -1 818 814 795 -1 808 834 835 -1 834 808 810 -1 818 808 835 -1 808 818 813 -1 834 811 836 -1 811 834 810 -1 836 812 814 -1 812 836 811 -1 812 795 814 -1 795 812 756 -1 756 812 755 -1 835 837 838 -1 837 835 834 -1 837 836 839 -1 836 837 834 -1 822 821 824 -1 821 822 819 -1 829 774 776 -1 774 829 816 -1 827 816 829 -1 816 827 820 -1 824 820 827 -1 820 824 821 -1 817 837 838 -1 837 817 839 -1 839 817 815 -1 815 817 794 -1 783 839 784 -1 839 783 837 -1 784 815 785 -1 815 784 839 -1 815 786 785 -1 786 815 793 -1 793 815 794 -1 774 838 775 -1 838 774 817 -1 839 814 815 -1 814 839 836 -1 838 783 775 -1 783 838 837 -1 823 806 807 -1 806 823 840 -1 825 840 823 -1 840 825 841 -1 842 825 826 -1 825 842 841 -1 843 826 828 -1 826 843 842 -1 773 828 782 -1 828 773 843 -1 805 773 806 -1 773 805 772 -1 840 805 806 -1 805 840 844 -1 841 844 840 -1 844 841 845 -1 846 841 842 -1 841 846 845 -1 847 842 843 -1 842 847 846 -1 772 843 773 -1 843 772 847 -1 844 804 805 -1 804 844 833 -1 845 833 844 -1 833 845 832 -1 831 845 846 -1 845 831 832 -1 830 846 847 -1 846 830 831 -1 771 847 772 -1 847 771 830 -1 848 849 850 -1 850 851 848 -1 852 853 850 -1 850 849 852 -1 854 855 853 -1 853 852 854 -1 855 854 856 -1 856 857 855 -1 857 858 859 -1 859 855 857 -1 855 859 860 -1 860 853 855 -1 860 850 853 -1 860 851 850 -1 860 861 851 -1 858 857 856 -1 856 862 858 -1 861 860 863 -1 863 864 861 -1 863 860 859 -1 859 865 863 -1 865 862 854 -1 854 863 865 -1 854 852 863 -1 852 849 863 -1 849 848 863 -1 848 864 863 -1 856 854 862 -1 848 851 861 -1 861 864 848 -1 862 865 859 -1 859 858 862 -1 866 867 868 -1 867 866 869 -1 870 871 872 -1 871 870 873 -1 874 866 875 -1 866 874 869 -1 869 874 876 -1 873 877 871 -1 877 873 878 -1 879 872 880 -1 872 879 870 -1 881 882 883 -1 882 881 884 -1 879 861 876 -1 861 879 882 -1 861 882 884 -1 876 864 869 -1 864 876 861 -1 869 864 867 -1 867 885 868 -1 885 867 864 -1 885 861 886 -1 861 885 864 -1 887 877 888 -1 877 887 871 -1 887 889 890 -1 889 887 891 -1 889 891 892 -1 889 892 893 -1 890 871 887 -1 871 890 872 -1 861 881 886 -1 881 861 884 -1 890 874 875 -1 874 890 889 -1 874 889 893 -1 874 893 876 -1 870 892 873 -1 892 870 893 -1 879 893 870 -1 893 879 876 -1 888 891 887 -1 891 888 894 -1 891 894 892 -1 875 885 880 -1 885 875 866 -1 885 866 868 -1 880 886 883 -1 886 880 885 -1 883 886 881 -1 894 877 878 -1 877 894 888 -1 875 872 890 -1 872 875 880 -1 882 880 883 -1 880 882 879 -1 873 894 878 -1 894 873 892 -1 895 896 897 -1 896 895 898 -1 895 899 898 -1 899 895 900 -1 901 900 902 -1 900 901 899 -1 903 904 905 -1 904 903 906 -1 903 907 906 -1 907 903 908 -1 909 908 910 -1 908 909 907 -1 911 912 913 -1 912 911 914 -1 913 429 428 -1 429 913 912 -1 896 912 914 -1 912 896 909 -1 912 909 910 -1 912 910 429 -1 897 914 395 -1 914 897 896 -1 906 901 904 -1 901 906 899 -1 899 896 898 -1 896 899 906 -1 896 906 907 -1 896 907 909 -1 902 904 901 -1 904 902 905 -1 429 396 428 -1 396 429 905 -1 396 905 902 -1 905 429 908 -1 905 908 903 -1 908 429 910 -1 900 895 902 -1 902 395 396 -1 395 902 895 -1 395 895 897 -1 914 396 395 -1 396 914 911 -1 911 428 396 -1 428 911 913 -1 915 916 917 -1 917 918 915 -1 919 920 921 -1 921 922 919 -1 921 923 924 -1 924 922 921 -1 925 926 927 -1 927 928 925 -1 926 929 930 -1 930 927 926 -1 931 932 933 -1 933 934 931 -1 933 930 934 -1 933 927 930 -1 931 935 936 -1 936 937 931 -1 932 931 937 -1 937 938 932 -1 932 939 940 -1 940 933 932 -1 940 927 933 -1 940 928 927 -1 929 937 936 -1 936 941 929 -1 942 918 917 -1 921 920 943 -1 943 923 921 -1 943 925 923 -1 925 917 923 -1 925 942 917 -1 915 918 942 -1 942 944 915 -1 926 938 937 -1 937 929 926 -1 929 941 945 -1 945 930 929 -1 924 923 917 -1 917 916 924 -1 939 932 938 -1 938 943 939 -1 945 941 936 -1 936 935 945 -1 925 943 938 -1 938 926 925 -1 919 939 943 -1 943 920 919 -1 939 919 924 -1 924 940 939 -1 924 916 940 -1 916 915 940 -1 915 944 940 -1 944 928 940 -1 922 924 919 -1 942 925 928 -1 928 944 942 -1 935 931 934 -1 934 945 935 -1 934 930 945 -1 946 947 948 -1 947 946 949 -1 950 951 952 -1 951 950 953 -1 954 946 955 -1 946 954 949 -1 949 954 956 -1 953 957 951 -1 957 953 958 -1 959 952 960 -1 952 959 950 -1 961 962 963 -1 962 961 964 -1 959 857 956 -1 857 959 962 -1 857 962 964 -1 956 856 949 -1 856 956 857 -1 949 856 947 -1 947 965 948 -1 965 947 856 -1 965 857 966 -1 857 965 856 -1 967 957 968 -1 957 967 951 -1 967 969 970 -1 969 967 971 -1 969 971 972 -1 969 972 973 -1 970 951 967 -1 951 970 952 -1 857 961 966 -1 961 857 964 -1 970 954 955 -1 954 970 969 -1 954 969 973 -1 954 973 956 -1 950 972 953 -1 972 950 973 -1 959 973 950 -1 973 959 956 -1 968 971 967 -1 971 968 974 -1 971 974 972 -1 955 965 960 -1 965 955 946 -1 965 946 948 -1 960 966 963 -1 966 960 965 -1 963 966 961 -1 974 957 958 -1 957 974 968 -1 955 952 970 -1 952 955 960 -1 962 960 963 -1 960 962 959 -1 953 974 958 -1 974 953 972 -1 818 794 795 -1 794 818 817 -1 975 817 838 -1 817 975 794 -1 794 975 837 -1 794 837 839 -1 794 839 815 -1 818 976 835 -1 976 818 795 -1 976 795 834 -1 834 795 836 -1 836 795 814 -1 975 977 978 -1 977 975 838 -1 979 836 814 -1 836 979 980 -1 981 835 982 -1 835 981 818 -1 839 978 983 -1 978 839 975 -1 975 839 837 -1 984 835 976 -1 835 984 982 -1 982 984 985 -1 838 986 977 -1 986 838 817 -1 987 977 986 -1 977 987 978 -1 988 989 990 -1 989 794 991 -1 794 989 795 -1 795 989 814 -1 814 989 979 -1 979 989 988 -1 992 993 994 -1 993 992 991 -1 993 991 815 -1 815 991 794 -1 979 995 996 -1 995 979 988 -1 995 988 997 -1 996 998 999 -1 998 996 995 -1 999 998 1000 -1 1001 1002 1003 -1 1002 1004 1005 -1 1004 1002 1006 -1 1006 1002 1001 -1 1007 1000 1008 -1 1000 1007 999 -1 1009 1010 993 -1 1010 1009 1011 -1 1010 1011 1012 -1 993 1013 994 -1 1013 993 1010 -1 994 1013 1014 -1 1000 1015 1008 -1 1001 1010 1012 -1 1010 1001 1003 -1 1010 1003 998 -1 998 1003 1015 -1 998 1015 1000 -1 1016 1014 1017 -1 1013 1017 1014 -1 1017 1013 995 -1 1017 995 1018 -1 1018 995 1019 -1 1019 995 997 -1 992 1020 991 -1 1020 992 1021 -1 1021 992 1017 -1 1017 992 1016 -1 1004 1022 1005 -1 1022 1004 1023 -1 1011 1001 1012 -1 1001 1011 1006 -1 980 1024 985 -1 1024 980 1025 -1 979 1025 980 -1 1025 979 996 -1 980 834 836 -1 834 980 976 -1 976 980 984 -1 984 980 985 -1 1014 992 994 -1 992 1014 1016 -1 1002 1015 1003 -1 1015 1002 1026 -1 1007 1022 1023 -1 1022 1007 1026 -1 1026 1007 1015 -1 1015 1007 1008 -1 1022 1002 1005 -1 1002 1022 1026 -1 1027 996 1009 -1 996 1027 1025 -1 1009 983 1027 -1 983 1009 993 -1 1010 995 1013 -1 995 1010 998 -1 985 981 982 -1 981 985 1024 -1 987 1025 1027 -1 1025 987 1024 -1 1019 988 990 -1 988 1019 997 -1 1009 1004 1011 -1 1004 1009 996 -1 1004 996 1023 -1 1023 996 1007 -1 1007 996 999 -1 1006 1011 1004 -1 986 1024 987 -1 1024 986 817 -1 1024 817 818 -1 1024 818 981 -1 815 983 993 -1 983 815 839 -1 1027 978 987 -1 978 1027 983 -1 1019 1028 1018 -1 1028 989 1029 -1 989 1028 990 -1 990 1028 1019 -1 1028 1020 1021 -1 1020 1028 1029 -1 1017 1028 1021 -1 1028 1017 1018 -1 1020 989 991 -1 989 1020 1029 -1 1030 1031 1032 -1 1031 1030 1033 -1 539 1034 1035 -1 1034 539 575 -1 1036 1034 1037 -1 1034 1036 1035 -1 1038 584 577 -1 584 1038 1039 -1 1039 1040 1041 -1 1040 1039 1038 -1 21 581 512 -1 581 21 25 -1 581 25 583 -1 583 25 577 -1 577 584 583 -1 548 512 581 -1 549 1042 1043 -1 1042 549 544 -1 1044 1043 1042 -1 1043 1044 1045 -1 549 576 544 -1 539 574 575 -1 16 576 14 -1 576 16 544 -1 14 576 574 -1 14 574 539 -1 548 1046 512 -1 1046 548 1047 -1 1047 1048 1046 -1 1048 1047 1049 -1 27 16 14 -1 16 27 26 -1 581 549 1047 -1 1047 549 1043 -1 1043 1049 1047 -1 1049 1043 1045 -1 548 581 1047 -1 6 1032 1031 -1 1032 6 5 -1 1030 1040 1033 -1 1040 1030 1041 -1 1041 1030 1048 -1 1041 1048 1049 -1 1041 1049 1037 -1 1037 1049 1045 -1 1037 1050 1036 -1 1050 1037 1045 -1 1051 1045 1044 -1 1045 1051 1052 -1 1045 1052 1050 -1 1052 1051 1053 -1 1053 1054 1052 -1 1054 1053 1055 -1 1056 1057 1058 -1 1057 1056 1059 -1 1060 1055 1061 -1 1055 1060 1054 -1 1062 1063 1064 -1 1063 1062 1065 -1 1056 1066 1067 -1 1066 1056 1058 -1 1066 1058 1068 -1 1066 1068 1069 -1 1059 1070 1057 -1 1070 1059 1071 -1 1072 1073 1074 -1 1073 1072 1075 -1 1062 1075 1072 -1 1075 1062 1064 -1 1074 1076 1077 -1 1076 1074 1073 -1 1077 3 0 -1 3 1077 1076 -1 1069 1078 1063 -1 1078 1069 1079 -1 1079 1069 1080 -1 1080 1069 1068 -1 1073 3 1076 -1 3 1073 26 -1 26 1073 1075 -1 26 1075 1064 -1 26 1064 16 -1 16 1064 1081 -1 16 1081 1082 -1 16 1082 1083 -1 16 1083 544 -1 1081 1064 1063 -1 1081 1063 1078 -1 544 1083 1084 -1 544 1044 1042 -1 1044 544 1084 -1 1044 1084 1085 -1 1044 1085 1086 -1 1044 1086 1087 -1 1044 1087 1051 -1 1070 1060 1061 -1 1060 1070 1071 -1 1065 1069 1063 -1 1069 1065 1066 -1 0 1074 1077 -1 1074 0 27 -1 1074 27 1072 -1 1072 27 1062 -1 1036 539 1035 -1 539 1036 1088 -1 1088 1036 1089 -1 1089 1036 1090 -1 1090 1036 1050 -1 539 27 14 -1 27 539 1091 -1 27 1091 1092 -1 27 1092 1093 -1 27 1093 1062 -1 1062 1093 1065 -1 1091 539 1094 -1 1094 539 1088 -1 1065 1095 1066 -1 1095 1065 1093 -1 1066 1095 1096 -1 1066 1096 1097 -1 1066 1097 1067 -1 1098 1094 1099 -1 1094 1098 1091 -1 1100 1091 1098 -1 1091 1100 1092 -1 1100 1093 1092 -1 1093 1100 1101 -1 1101 1095 1093 -1 1095 1101 1102 -1 1102 1096 1095 -1 1096 1102 1103 -1 1104 1096 1103 -1 1096 1104 1097 -1 1056 1097 1104 -1 1097 1056 1067 -1 1100 1102 1101 -1 1102 1100 1103 -1 1103 1100 1098 -1 1103 1098 1104 -1 1104 1098 1099 -1 1104 1099 1056 -1 1056 1099 1105 -1 1056 1105 1059 -1 1059 1105 1106 -1 1059 1106 1071 -1 1071 1106 1107 -1 1071 1107 1060 -1 1060 1107 1052 -1 1060 1052 1054 -1 1090 1052 1107 -1 1052 1090 1050 -1 584 574 583 -1 574 584 1034 -1 1034 584 1039 -1 1034 1039 1037 -1 1037 1039 1041 -1 575 574 1034 -1 1106 1090 1107 -1 1090 1106 1089 -1 1094 1105 1099 -1 1105 1094 1088 -1 1105 1089 1106 -1 1089 1105 1088 -1 1033 6 1031 -1 6 1033 12 -1 12 1033 25 -1 25 1033 577 -1 577 1033 1038 -1 1038 1033 1040 -1 512 13 21 -1 1048 512 1046 -1 13 1032 5 -1 1032 13 1030 -1 1030 13 512 -1 1030 512 1048 -1 27 3 26 -1 3 27 0 -1 1080 1108 1079 -1 1108 1080 1109 -1 1108 1110 1111 -1 1110 1108 1112 -1 1112 1108 1109 -1 1112 1109 1113 -1 1113 1109 1058 -1 1113 1058 1114 -1 1114 1058 1115 -1 1115 1058 1057 -1 1115 1057 1116 -1 1116 1057 1070 -1 1116 1070 1117 -1 1117 1070 1061 -1 1117 1061 1053 -1 1053 1061 1055 -1 1114 1085 1084 -1 1085 1114 1115 -1 1068 1109 1080 -1 1109 1068 1058 -1 1117 1051 1087 -1 1051 1117 1053 -1 1086 1117 1087 -1 1117 1086 1116 -1 1082 1113 1083 -1 1113 1082 1112 -1 1083 1114 1084 -1 1114 1083 1113 -1 1078 1108 1111 -1 1108 1078 1079 -1 1081 1111 1110 -1 1111 1081 1078 -1 1085 1116 1086 -1 1116 1085 1115 -1 1082 1110 1112 -1 1110 1082 1081 -1 1118 1119 1120 -1 1119 1118 1121 -1 1121 1118 1122 -1 1123 1121 1124 -1 1121 1123 1125 -1 1125 1123 1126 -1 1121 1125 1119 -1 1124 1127 1123 -1 1127 1124 1128 -1 1119 1129 1120 -1 1129 1119 1130 -1 1120 1129 1118 -1 1121 1122 1131 -1 1124 1131 1128 -1 1131 1124 1121 -1 1132 1126 1133 -1 1126 1132 1125 -1 1119 1132 1130 -1 1132 1119 1125 -1 1133 1123 1127 -1 1123 1133 1126 -1 1131 1127 1128 -1 1127 1131 1132 -1 1132 1131 1130 -1 1130 1131 1122 -1 1130 1122 1129 -1 1129 1122 1118 -1 1133 1127 1132 -1 1134 1135 1136 -1 1135 1134 1137 -1 1138 1139 1140 -1 1139 1138 1141 -1 1142 1143 1144 -1 1143 1142 1145 -1 1145 1142 1138 -1 1138 1142 1135 -1 1135 1142 1146 -1 1141 1135 1137 -1 1135 1141 1138 -1 1147 1139 1148 -1 1139 1147 1140 -1 1148 1141 1149 -1 1141 1148 1139 -1 1150 1143 1151 -1 1143 1150 1152 -1 1143 1152 1153 -1 1152 1154 1153 -1 1154 1152 1155 -1 1144 1143 1153 -1 1147 1138 1140 -1 1138 1147 1156 -1 1157 1138 1156 -1 1138 1157 1145 -1 1157 1143 1145 -1 1143 1157 1151 -1 1158 1159 1160 -1 1159 1158 1161 -1 1142 1162 1146 -1 1162 1142 1160 -1 1162 1160 1163 -1 1163 1160 1159 -1 1153 1142 1144 -1 1142 1153 1160 -1 1158 1153 1154 -1 1153 1158 1160 -1 1152 1161 1155 -1 1161 1152 1159 -1 1150 1159 1152 -1 1159 1150 1163 -1 1149 1137 1134 -1 1137 1149 1141 -1 1155 1158 1154 -1 1158 1155 1161 -1 1162 1135 1146 -1 1135 1162 1136 -1 1136 1149 1134 -1 1149 1136 1148 -1 1148 1136 1156 -1 1156 1136 1157 -1 1157 1150 1151 -1 1150 1157 1163 -1 1163 1157 1136 -1 1163 1136 1162 -1 1156 1147 1148 -1 1164 1165 1166 -1 1165 1164 1167 -1 1168 1169 1170 -1 1169 1168 1171 -1 1172 1169 1171 -1 1169 1172 1173 -1 1173 1172 1174 -1 1173 1174 1175 -1 1176 1177 1178 -1 1177 1176 1179 -1 1180 1174 1168 -1 1174 1180 1181 -1 1174 1181 1182 -1 1182 1181 1183 -1 1183 1181 1164 -1 1164 1181 1167 -1 1174 1171 1168 -1 1171 1174 1172 -1 1179 1184 1177 -1 1185 1175 1186 -1 1175 1185 1170 -1 1175 1170 1169 -1 1175 1169 1173 -1 1186 1175 1184 -1 1186 1184 1179 -1 1174 1184 1175 -1 1184 1174 1182 -1 1182 1172 1174 -1 1172 1182 1183 -1 1187 1181 1180 -1 1181 1187 1188 -1 1177 1175 1173 -1 1175 1177 1184 -1 1185 1189 1190 -1 1189 1185 1186 -1 1165 1178 1166 -1 1178 1165 1176 -1 1178 1164 1166 -1 1164 1178 1183 -1 1183 1178 1177 -1 1183 1177 1184 -1 1183 1184 1182 -1 1189 1165 1191 -1 1165 1189 1176 -1 1176 1189 1179 -1 1179 1189 1186 -1 1181 1192 1167 -1 1192 1181 1193 -1 1193 1181 1194 -1 1194 1181 1195 -1 1195 1181 1188 -1 1196 503 504 -1 503 1196 1197 -1 503 1197 493 -1 493 1197 368 -1 368 1197 1167 -1 1167 1197 1191 -1 1167 1191 1165 -1 368 1167 1192 -1 496 1198 495 -1 1198 496 1199 -1 299 496 492 -1 496 299 1199 -1 1199 299 1168 -1 1199 1168 1200 -1 1168 299 1201 -1 1168 1201 1180 -1 1180 1201 1202 -1 1180 1202 1203 -1 1180 1203 1204 -1 1180 1204 1187 -1 1200 1170 1190 -1 1170 1200 1168 -1 1190 1170 1185 -1 1197 1200 1191 -1 1200 1197 1199 -1 1197 1198 1199 -1 1198 1197 1196 -1 1191 1190 1189 -1 1190 1191 1200 -1 1196 495 1198 -1 495 1196 504 -1 1195 1187 1204 -1 1187 1195 1188 -1 1194 1204 1203 -1 1204 1194 1195 -1 1193 1203 1202 -1 1203 1193 1194 -1 1192 1202 1201 -1 1202 1192 1193 -1 501 478 490 -1 478 501 477 -1 501 480 477 -1 480 501 497 -1 493 496 503 -1 496 493 492 -1 504 496 495 -1 496 504 503 -1 492 372 299 -1 372 492 493 -1 372 493 374 -1 374 493 375 -1 375 493 368 -1 337 299 372 -1 328 365 366 -1 338 478 333 -1 478 338 367 -1 478 367 490 -1 490 367 365 -1 490 365 328 -1 365 372 374 -1 372 365 367 -1 1205 480 497 -1 480 1205 1206 -1 1206 1205 1207 -1 375 365 374 -1 365 375 366 -1 328 501 490 -1 497 1208 1205 -1 1208 497 501 -1 1208 501 1209 -1 1209 501 328 -1 1208 1207 1205 -1 1207 1208 1210 -1 1207 1211 1206 -1 1211 1207 1210 -1 1209 1210 1208 -1 1210 1209 1212 -1 1210 1213 1211 -1 1213 1210 1212 -1 1211 480 1206 -1 480 1211 477 -1 477 1211 1213 -1 477 333 478 -1 333 477 1213 -1 1212 1209 1213 -1 1213 338 333 -1 338 1213 366 -1 366 1213 328 -1 328 1213 1209 -1 337 375 299 -1 375 337 366 -1 366 337 338 -1 299 1192 1201 -1 1192 299 368 -1 368 299 375 -1 1214 1215 1216 -1 1216 1217 1218 -1 1218 1219 1216 -1 1219 1220 1216 -1 1220 1128 1216 -1 1128 1214 1216 -1 1118 1122 1221 -1 1221 1217 1118 -1 1217 1222 1118 -1 1221 1218 1217 -1 1033 1030 1214 -1 1214 1128 1033 -1 1223 1224 1225 -1 1225 1226 1223 -1 1118 1227 1228 -1 1228 1122 1118 -1 1229 1230 1226 -1 1226 1231 1229 -1 1231 1232 1229 -1 1232 1233 1229 -1 1233 1234 1229 -1 1234 1227 1229 -1 1227 1118 1229 -1 1118 1235 1229 -1 1118 1222 1235 -1 1234 1233 1236 -1 1226 1225 923 -1 923 1231 1226 -1 917 1237 1231 -1 1231 923 917 -1 1237 1238 1232 -1 1232 1231 1237 -1 1239 1233 1232 -1 1232 1238 1239 -1 1239 1240 1236 -1 1236 1233 1239 -1 1240 1241 1234 -1 1234 1236 1240 -1 1228 1227 1234 -1 1234 1241 1228 -1 1242 1229 1235 -1 1235 1243 1242 -1 1235 1222 1217 -1 1217 1243 1235 -1 1244 1245 1246 -1 1246 1247 1244 -1 1216 1215 1245 -1 1245 1244 1216 -1 1248 1249 1250 -1 1250 1251 1248 -1 1250 1218 1221 -1 1221 1251 1250 -1 1252 1253 1254 -1 1254 1255 1252 -1 1220 1219 1253 -1 1253 1252 1220 -1 1255 1254 1256 -1 1256 1257 1255 -1 1258 1223 1226 -1 1226 1230 1258 -1 1230 1229 1259 -1 1259 1258 1230 -1 1259 1260 1258 -1 1260 1249 1258 -1 1249 1248 1258 -1 1242 1259 1229 -1 1247 1261 1259 -1 1259 1244 1247 -1 1244 1259 1242 -1 1242 1243 1244 -1 1243 1216 1244 -1 1243 1217 1216 -1 917 1224 1223 -1 1241 1240 1239 -1 1223 1258 1248 -1 1248 917 1223 -1 1248 1237 917 -1 1248 1238 1237 -1 1248 1239 1238 -1 1248 1241 1239 -1 1248 1228 1241 -1 1248 1122 1228 -1 1248 1251 1122 -1 1251 1221 1122 -1 1224 917 923 -1 923 1225 1224 -1 1033 1262 1263 -1 1263 1030 1033 -1 1030 1263 1246 -1 1246 1214 1030 -1 1246 1215 1214 -1 1215 1246 1245 -1 1256 1260 1259 -1 1259 1261 1256 -1 1249 1260 1256 -1 1256 1253 1249 -1 1253 1250 1249 -1 1253 1219 1250 -1 1219 1218 1250 -1 1254 1253 1256 -1 1220 1252 1255 -1 1262 1033 1128 -1 1128 1257 1262 -1 1128 1255 1257 -1 1128 1220 1255 -1 1247 1246 1261 -1 1263 1262 1261 -1 1261 1246 1263 -1 1262 1256 1261 -1 1262 1257 1256 -1 1264 1265 1266 -1 1265 1264 1267 -1 1268 1269 1270 -1 1269 1268 604 -1 1271 1272 1273 -1 1274 1275 1276 -1 1275 1274 1277 -1 1275 1277 600 -1 600 1277 1278 -1 600 1278 1279 -1 600 1279 1272 -1 1272 1279 1273 -1 600 1272 1280 -1 600 1280 1281 -1 1269 1266 1265 -1 1266 1269 604 -1 1266 604 600 -1 1266 600 1281 -1 1266 1281 1282 -1 1266 1282 1283 -1 1266 1283 1284 -1 1284 1283 1285 -1 1285 1283 1286 -1 1287 1284 1285 -1 1288 441 1271 -1 441 1288 438 -1 438 1288 1289 -1 1289 1288 1290 -1 1290 1288 1291 -1 1290 1291 1292 -1 441 440 439 -1 440 441 438 -1 1286 1293 1285 -1 1293 1286 1294 -1 1294 1286 1295 -1 1295 1286 1296 -1 1296 1286 1297 -1 1297 1286 1283 -1 1297 1283 439 -1 1297 439 440 -1 1293 1298 1299 -1 1298 1293 1294 -1 1284 1264 1266 -1 1264 1284 1300 -1 1300 1284 1299 -1 1299 1284 1287 -1 1300 1299 1298 -1 1285 1299 1287 -1 1299 1285 1293 -1 1294 1300 1298 -1 1300 1294 1295 -1 1301 622 1302 -1 622 1301 1303 -1 622 1303 1304 -1 1267 1304 1305 -1 1304 1267 1264 -1 1304 1264 622 -1 622 1264 617 -1 617 1264 1306 -1 1306 1264 1307 -1 1307 1264 1300 -1 1307 1300 1297 -1 1297 1300 1296 -1 1296 1300 1295 -1 617 1308 1309 -1 1308 617 1310 -1 1308 1310 1311 -1 1310 617 1312 -1 1312 617 1313 -1 1313 617 1314 -1 1313 1314 1315 -1 1314 617 1316 -1 1316 617 1306 -1 1289 1315 1314 -1 1267 1269 1265 -1 1269 1267 1305 -1 1269 1304 1317 -1 1304 1269 1305 -1 1302 1318 1301 -1 1301 1268 1270 -1 1268 1301 1318 -1 658 633 635 -1 633 658 661 -1 1298 1319 1320 -1 1319 1298 1294 -1 1315 1290 1321 -1 1290 1315 1289 -1 1313 1273 1315 -1 1273 1313 1279 -1 1321 1313 1315 -1 1313 1321 1322 -1 1323 1322 1321 -1 1322 1323 1324 -1 1325 1323 1326 -1 1323 1325 1324 -1 1327 1326 1328 -1 1326 1327 1325 -1 1312 1279 1313 -1 1279 1312 1278 -1 1279 1328 1273 -1 1328 1279 1327 -1 1308 1274 1276 -1 1274 1308 1329 -1 1329 1308 1330 -1 1330 1308 1331 -1 1331 1308 1332 -1 1332 1308 1311 -1 449 438 448 -1 438 449 450 -1 438 450 451 -1 438 451 440 -1 1314 449 448 -1 449 1314 1316 -1 438 1314 448 -1 1314 438 1289 -1 449 1306 450 -1 1306 449 1316 -1 450 1307 451 -1 1307 450 1306 -1 1307 440 451 -1 440 1307 1297 -1 448 444 443 -1 444 448 449 -1 444 450 445 -1 450 444 449 -1 1321 1292 1323 -1 1292 1321 1290 -1 1328 1271 1273 -1 1271 1328 1288 -1 1326 1288 1328 -1 1288 1326 1291 -1 1323 1291 1326 -1 1291 1323 1292 -1 441 444 443 -1 444 441 445 -1 445 441 446 -1 446 441 439 -1 1280 445 1281 -1 445 1280 444 -1 1281 446 1282 -1 446 1281 445 -1 1308 1275 1309 -1 1275 1308 1276 -1 446 1283 1282 -1 1283 446 439 -1 1271 443 1272 -1 443 1271 441 -1 445 451 446 -1 451 445 450 -1 443 1280 1272 -1 1280 443 444 -1 617 658 659 -1 646 1275 600 -1 1275 646 661 -1 1275 661 1309 -1 1309 661 658 -1 1309 658 617 -1 646 604 634 -1 604 646 600 -1 1318 604 1268 -1 604 1318 634 -1 634 1318 633 -1 638 658 635 -1 658 638 659 -1 617 638 622 -1 638 617 659 -1 1302 633 1318 -1 633 1302 635 -1 635 1302 638 -1 638 1302 622 -1 661 634 633 -1 634 661 646 -1 1322 1312 1313 -1 1312 1322 1333 -1 1324 1333 1322 -1 1333 1324 1334 -1 1335 1324 1325 -1 1324 1335 1334 -1 1336 1325 1327 -1 1325 1336 1335 -1 1278 1327 1279 -1 1327 1278 1336 -1 1310 1278 1312 -1 1278 1310 1277 -1 1333 1310 1312 -1 1310 1333 1337 -1 1334 1337 1333 -1 1337 1334 1338 -1 1339 1334 1335 -1 1334 1339 1338 -1 1340 1335 1336 -1 1335 1340 1339 -1 1277 1336 1278 -1 1336 1277 1340 -1 1337 1311 1310 -1 1311 1337 1332 -1 1338 1332 1337 -1 1332 1338 1331 -1 1330 1338 1339 -1 1338 1330 1331 -1 1329 1339 1340 -1 1339 1329 1330 -1 1274 1340 1277 -1 1340 1274 1329 -1 1341 1342 1343 -1 1342 1341 1344 -1 1345 1346 1347 -1 1346 1345 1348 -1 1349 1350 1351 -1 1350 1349 1352 -1 1347 1353 1354 -1 1353 1347 1346 -1 1341 1346 1355 -1 1346 1341 1353 -1 1356 1357 1358 -1 1357 1356 1359 -1 1357 1359 1360 -1 1358 1361 1349 -1 1361 1358 1357 -1 1349 1361 1352 -1 1362 1363 1364 -1 1351 1358 1349 -1 1358 1351 1365 -1 1365 1351 1366 -1 1365 1366 1345 -1 1345 1366 1363 -1 1345 1363 1362 -1 1367 1368 1369 -1 1368 1367 1370 -1 1356 1371 1355 -1 1371 1356 1358 -1 1372 1373 1374 -1 1368 1363 1369 -1 1363 1368 1364 -1 1373 1352 1361 -1 1352 1373 1372 -1 1352 1372 1350 -1 1348 1359 1356 -1 1359 1348 1375 -1 1351 1374 1366 -1 1374 1351 1372 -1 1372 1351 1350 -1 1345 1367 1348 -1 1367 1345 1362 -1 1367 1362 1370 -1 1348 1376 1375 -1 1376 1348 1367 -1 1375 1376 1377 -1 1366 1369 1363 -1 1369 1366 1374 -1 1369 1374 1373 -1 1369 1376 1367 -1 1376 1369 1373 -1 1376 1373 1361 -1 1376 1361 1357 -1 1364 1370 1362 -1 1370 1364 1368 -1 1378 1342 1379 -1 1342 1378 1343 -1 1377 1357 1360 -1 1357 1377 1376 -1 1343 1353 1341 -1 1353 1343 1378 -1 1360 1375 1377 -1 1375 1360 1359 -1 1354 1378 1379 -1 1378 1354 1353 -1 1380 1342 1344 -1 1342 1380 1354 -1 1342 1354 1379 -1 1355 1344 1341 -1 1344 1355 1371 -1 1365 1371 1358 -1 1371 1365 1381 -1 1381 1365 1345 -1 1381 1345 1347 -1 1381 1344 1371 -1 1344 1381 1380 -1 1380 1381 1347 -1 1380 1347 1354 -1 1355 1348 1356 -1 1348 1355 1346 -1 "
						                >
							<Coordinate DEF="coords_ME_10-2_001"
							            point="2.855172 2.060043 7.874016 6.004779 -1.876964 7.874016 6.004779 2.060043 7.874016 2.855172 -1.876964 7.874016 -6.593647 2.060043 7.874016 -3.444040 -1.876964 7.874016 -3.444040 2.060043 7.874016 -6.593647 -1.876964 7.874016 -2.262938 6.390752 7.874016 1.674070 -6.207673 7.874016 1.674070 6.390752 7.874016 -2.262938 -6.207673 7.874016 -3.444040 2.060043 9.448819 -3.444040 -1.876964 9.448819 1.674070 2.060043 9.448819 1.674070 6.390752 11.023623 1.674070 -1.876964 9.448819 1.674070 -1.876964 11.023623 1.674070 -6.207673 11.023623 1.674070 2.060043 11.023623 -2.262938 -6.207673 11.023623 -2.262938 -1.876964 9.448819 -2.262938 -1.876964 11.023623 -2.262938 2.060043 11.023623 -2.262938 6.390752 11.023623 -2.262938 2.060043 9.448819 2.855172 -1.876964 9.448819 2.855172 2.060043 9.448819 -6.593647 6.390752 6.299212 5.175093 5.561066 5.420951 -5.763960 5.561066 5.420951 6.004779 6.390752 6.299212 4.634773 5.020747 4.340312 -5.223641 5.020747 4.340312 6.004779 -6.207673 6.299212 5.175093 -5.377987 5.420951 4.634773 -4.837668 4.340312 4.429976 4.815949 3.149606 4.429976 -4.632870 3.149606 -5.018843 -4.632870 3.149606 -5.223641 -4.837668 4.340312 -5.763960 -5.377987 5.420951 -6.593647 -6.207673 6.299212 -6.593647 6.390752 11.023623 -6.593647 2.060043 11.023623 -5.018843 4.815949 3.149606 -6.593647 -1.876964 11.023623 6.004779 2.060043 11.023623 6.004779 -1.876964 11.023623 6.004779 -6.207673 11.023623 -6.593647 -6.207673 11.023623 -5.763960 -4.632870 5.420951 -5.223641 -4.632870 4.340312 -6.593647 -4.632870 6.299212 6.004779 6.390752 11.023623 23.327614 -24.711611 39.350624 -0.570024 -24.711611 38.563225 23.327614 -24.711611 38.563225 -0.570024 -24.711611 39.350624 23.327614 13.083666 38.563225 23.327614 13.083666 39.350624 -0.570024 13.083666 39.350624 -0.570024 13.083666 38.563225 1.674070 -2.270665 32.665180 1.674070 -2.270665 37.289959 -2.262938 -2.270665 37.289959 -2.262938 -2.270665 32.665180 1.674070 -3.845468 37.289959 -2.262938 -3.845468 37.289959 1.674070 -5.420271 37.289959 -2.262938 -5.420271 37.289959 1.674070 -5.420271 32.665180 -2.262938 -5.420271 32.665180 -2.262938 -22.743107 32.665180 -2.262938 -22.743107 38.561790 -2.262938 15.052170 38.561790 -2.262938 15.052170 32.665180 1.674070 -22.743107 32.665180 1.674070 15.052170 38.561790 1.674070 15.052170 32.665180 1.674070 -22.743107 38.561790 -2.262938 14.264768 30.306059 1.674070 10.327760 30.306059 1.674070 14.264768 30.306059 -2.262938 10.327760 30.306059 -0.294434 9.737208 30.306059 -2.262938 -2.035202 29.715508 -0.294434 -2.467516 30.306059 -2.262938 -1.876964 30.306059 -0.294434 -2.546634 30.010782 -0.294434 -3.133165 29.695385 1.674070 -8.963578 29.124956 1.674070 -3.058067 29.124956 -0.294434 -8.888480 29.695385 -2.262938 -10.144681 30.306059 -0.294434 -9.475011 30.010782 -2.262938 -9.986444 29.715508 -0.294434 -9.554130 30.306059 -2.262938 9.737208 29.283194 -0.294434 9.658090 30.010782 -2.262938 10.169522 29.715508 -0.294434 9.441934 29.794626 -0.294434 -2.762791 29.794626 1.674070 -2.467516 29.283194 -2.262938 -8.963578 29.124956 -2.262938 -3.058067 29.124956 1.674070 10.169522 29.715508 -0.294434 2.729713 30.010782 -2.262938 2.650595 29.283194 -2.262938 2.218281 29.715508 -0.294434 2.945870 29.794626 1.674070 6.390752 24.400547 -2.262938 9.015424 24.636766 1.674070 9.015424 24.636766 -2.262938 6.390752 24.400547 -0.294434 2.650595 30.306059 1.674070 2.218281 29.715508 1.674070 2.060043 30.306059 1.674070 -14.081689 27.943853 -2.262938 -14.081689 30.306059 -2.262938 -14.081689 27.943853 1.674070 -14.081689 30.306059 1.674070 -1.876964 30.306059 1.674070 -2.035202 29.715508 -2.262938 9.146658 29.124956 -0.294434 9.071559 29.695385 -2.262938 -1.483264 30.306059 1.674070 -1.483264 30.306059 -2.262938 -9.554130 29.283194 -0.294434 -9.258854 29.794626 1.674070 -8.832345 24.636766 -2.262938 -6.207673 24.400547 1.674070 -6.207673 24.400547 -2.262938 -8.832345 24.636766 1.674070 3.241146 29.124956 -0.294434 3.316244 29.695385 1.674070 2.650595 29.283194 -2.262938 3.241146 29.124956 -2.262938 -2.467516 29.283194 1.674070 -10.144681 30.306059 -2.262938 -13.556754 26.762751 1.674070 -13.556754 26.762751 1.674070 -10.932082 25.109209 -2.262938 -10.932082 25.109209 1.674070 -12.506886 25.817869 -2.262938 -12.506886 25.817869 1.674070 -9.554130 29.283194 1.674070 -9.986444 29.715508 1.674070 9.146658 29.124956 1.674070 9.737208 29.283194 1.674070 14.264768 27.943853 1.674070 11.115162 25.109209 1.674070 12.689964 25.817869 1.674070 13.739834 26.762751 1.674070 1.666343 26.369051 1.674070 1.666343 30.306059 1.674070 -1.483264 26.369051 -2.262938 2.060043 30.306059 -2.262938 14.264768 27.943853 -2.262938 13.739834 26.762751 -2.262938 12.689964 25.817869 -2.262938 -1.483264 26.369051 -2.262938 11.115162 25.109209 -2.262938 1.666343 26.369051 -2.262938 1.666343 30.306059 2.855173 9.540359 34.239983 1.674070 15.052170 34.239983 1.674070 9.540359 34.239983 2.855173 15.052170 34.239983 -3.029197 14.637326 31.438646 -2.759037 10.225361 30.898327 -3.029197 9.955201 31.438646 -2.759037 14.367167 30.898327 2.855173 14.264768 31.877777 2.855173 9.540359 31.877777 2.855173 15.052170 31.877777 -2.656638 10.327760 30.302975 -2.656638 14.264768 30.302975 -3.444040 15.052170 31.877777 -3.444040 9.540359 31.877777 -2.262938 9.540359 34.239983 -3.444040 15.052170 34.239983 -3.444040 9.540359 34.239983 -2.262938 15.052170 34.239983 1.674070 9.540359 32.665180 -2.262938 9.540359 32.665180 2.170170 10.225361 30.898327 2.067771 10.327760 30.302975 2.440329 14.264768 31.438646 2.440329 9.955201 31.438646 2.170170 14.264768 30.898327 2.170170 14.367167 30.898327 2.440329 14.637326 31.438646 2.067771 14.264768 30.302975 2.855173 -14.869090 34.239983 1.674070 -9.357280 34.239983 1.674070 -14.869090 34.239983 2.855173 -9.357280 34.239983 -3.029197 -9.772122 31.438646 -2.759037 -14.184088 30.898327 -3.029197 -14.454247 31.438646 -2.759037 -10.042282 30.898327 2.855173 -10.144681 31.877777 2.855173 -14.869090 31.877777 2.855173 -9.357280 31.877777 -2.656638 -14.081689 30.302975 -2.656638 -10.144681 30.302975 -3.444040 -9.357280 31.877777 -3.444040 -14.869090 31.877777 -2.262938 -14.869090 34.239983 -3.444040 -9.357280 34.239983 -3.444040 -14.869090 34.239983 -2.262938 -9.357280 34.239983 -2.262938 -9.357280 32.665180 1.674070 -9.357280 32.665180 1.674070 -14.869090 32.665180 -2.262938 -14.869090 32.665180 2.170170 -14.184088 30.898327 2.067771 -14.081689 30.302975 2.440329 -10.144681 31.438646 2.440329 -14.454247 31.438646 2.170170 -10.144681 30.898327 2.170170 -10.042282 30.898327 2.440329 -9.772122 31.438646 2.067771 -10.144681 30.302975 2.067771 1.272642 22.038342 -3.444040 -1.089563 24.044947 -3.444040 1.272642 24.044947 2.067771 -1.089563 22.038342 -2.759037 -1.089563 22.633696 -2.656638 -1.089563 22.038342 -2.767597 -1.089563 22.650816 -3.029197 -1.089563 23.174015 -3.444040 -1.089563 23.613146 -2.759037 1.272642 22.633696 -2.656638 1.272642 22.038342 -2.767597 1.272642 22.650816 -3.029197 1.272642 23.174015 -3.444040 1.272642 23.613146 -2.656638 -2.664366 22.038342 -2.759037 -2.766765 22.633696 -3.444040 3.634847 23.613146 -3.029197 3.220003 23.174015 2.067771 2.847445 22.038342 -2.656638 2.847445 22.038342 -3.029197 -3.036924 23.174015 -2.759037 2.847445 22.633696 -2.759037 2.949844 22.633696 2.067771 -2.664366 22.038342 2.170170 -2.766765 22.633696 -3.444040 3.634847 25.975349 -3.444040 2.060043 24.400547 -3.444040 2.060043 25.975349 -3.444040 -1.876964 24.400547 -3.444040 -1.876964 25.975349 -3.444040 -3.451768 23.613146 -3.444040 -3.451768 25.975349 -2.262938 3.634847 24.400547 2.855173 3.634847 23.613146 -2.262938 3.634847 25.975349 1.674070 3.634847 24.400547 2.855173 3.634847 25.975349 1.674070 3.634847 25.975349 1.674070 -1.876964 25.975349 2.264621 -1.876964 25.187948 1.674070 -1.876964 25.187948 2.855173 -1.876964 24.400547 2.264621 -1.876964 24.400547 2.855173 -1.876964 25.975349 2.855173 2.060043 25.975349 1.674070 2.060043 25.975349 2.855173 -3.451768 23.613146 1.674070 -3.451768 24.400547 2.855173 -3.451768 25.975349 1.674070 -3.451768 25.975349 -2.262938 -3.451768 24.400547 -2.262938 -3.451768 25.975349 1.674070 2.060043 25.187948 -2.262938 -1.876964 25.975349 -2.262938 -1.876964 25.187948 -2.262938 2.060043 25.187948 -2.262938 2.060043 25.975349 -2.853489 -1.876964 24.400547 -2.853489 -1.876964 25.187948 2.264621 2.060043 24.400547 2.855173 2.060043 24.400547 2.170170 2.949844 22.633696 2.440329 3.220003 23.174015 2.264621 2.060043 25.187948 2.440329 -3.036924 23.174015 -2.853489 2.060043 25.187948 -2.853489 2.060043 24.400547 33.170132 14.264768 34.938091 37.107140 10.327760 34.938091 37.107140 14.264768 34.938091 33.170132 10.327760 34.938091 35.138638 9.737208 34.938091 33.170132 -2.035202 34.347542 35.138638 -2.467516 34.938091 33.170132 -1.876964 34.938091 35.138638 -2.546634 34.642818 35.138638 -3.133165 34.327419 37.107140 -8.963578 33.756992 37.107140 -3.058067 33.756992 35.138638 -8.888480 34.327419 33.170132 -10.144681 34.938091 35.138638 -9.475011 34.642818 33.170132 -9.986444 34.347542 35.138638 -9.554130 34.938091 33.170132 9.737208 33.915230 35.138638 9.658090 34.642818 33.170132 10.169522 34.347542 35.138638 9.441934 34.426662 35.138638 -2.762791 34.426662 37.107140 -2.467516 33.915230 33.170132 -8.963578 33.756992 33.170132 -3.058067 33.756992 37.107140 10.169522 34.347542 35.138638 2.729713 34.642818 33.170132 2.650595 33.915230 33.170132 2.218281 34.347542 35.138638 2.945870 34.426662 37.107140 6.390752 29.032581 33.170132 9.015424 29.268801 37.107140 9.015424 29.268801 33.170132 6.390752 29.032581 35.138638 2.650595 34.938091 37.107140 2.218281 34.347542 37.107140 2.060043 34.938091 37.107140 -14.081689 32.575890 33.170132 -14.081689 34.938091 33.170132 -14.081689 32.575890 37.107140 -14.081689 34.938091 37.107140 -1.876964 34.938091 37.107140 -2.035202 34.347542 33.170132 9.146658 33.756992 35.138638 9.071559 34.327419 33.170132 -1.483264 34.938091 37.107140 -1.483264 34.938091 33.170132 -9.554130 33.915230 35.138638 -9.258854 34.426662 37.107140 -8.832345 29.268801 33.170132 -6.207673 29.032581 37.107140 -6.207673 29.032581 33.170132 -8.832345 29.268801 37.107140 3.241146 33.756992 35.138638 3.316244 34.327419 37.107140 2.650595 33.915230 33.170132 3.241146 33.756992 33.170132 -2.467516 33.915230 37.107140 -10.144681 34.938091 33.170132 -13.556754 31.394785 37.107140 -13.556754 31.394785 37.107140 -10.932082 29.741243 33.170132 -10.932082 29.741243 37.107140 -12.506886 30.449903 33.170132 -12.506886 30.449903 37.107140 -9.554130 33.915230 37.107140 -9.986444 34.347542 37.107140 9.146658 33.756992 37.107140 9.737208 33.915230 37.107140 14.264768 32.575890 37.107140 11.115162 29.741243 37.107140 12.689964 30.449903 37.107140 13.739834 31.394785 37.107140 1.666343 31.001085 37.107140 1.666343 34.938091 37.107140 -1.483264 31.001085 33.170132 2.060043 34.938091 33.170132 14.264768 32.575890 33.170132 13.739834 31.394785 33.170132 12.689964 30.449903 33.170132 -1.483264 31.001085 33.170132 11.115162 29.741243 33.170132 1.666343 31.001085 33.170132 1.666343 34.938091 38.288242 9.540359 38.872017 37.107140 15.052170 38.872017 37.107140 9.540359 38.872017 38.288242 15.052170 38.872017 32.403873 14.637326 36.070683 32.674034 10.225361 35.530361 32.403873 9.955201 36.070683 32.674034 14.367167 35.530361 38.288242 14.264768 36.509811 38.288242 9.540359 36.509811 38.288242 15.052170 36.509811 32.776432 10.327760 34.935009 32.776432 14.264768 34.935009 31.989031 15.052170 36.509811 31.989031 9.540359 36.509811 33.170132 9.540359 38.872017 31.989031 15.052170 38.872017 31.989031 9.540359 38.872017 33.170132 15.052170 38.872017 33.170132 15.052170 37.297215 37.107140 15.052170 37.297215 37.107140 9.540359 37.297215 33.170132 9.540359 37.297215 37.603241 10.225361 35.530361 37.500843 10.327760 34.935009 37.873402 14.264768 36.070683 37.873402 9.955201 36.070683 37.603241 14.264768 35.530361 37.603241 14.367167 35.530361 37.873402 14.637326 36.070683 37.500843 14.264768 34.935009 38.288242 -14.869090 38.872017 37.107140 -9.357280 38.872017 37.107140 -14.869090 38.872017 38.288242 -9.357280 38.872017 32.403873 -9.772122 36.070683 32.674034 -14.184088 35.530361 32.403873 -14.454247 36.070683 32.674034 -10.042282 35.530361 38.288242 -10.144681 36.509811 38.288242 -14.869090 36.509811 38.288242 -9.357280 36.509811 32.776432 -14.081689 34.935009 32.776432 -10.144681 34.935009 31.989031 -9.357280 36.509811 31.989031 -14.869090 36.509811 33.170132 -14.869090 38.872017 31.989031 -9.357280 38.872017 31.989031 -14.869090 38.872017 33.170132 -9.357280 38.872017 33.170132 -9.357280 37.297215 37.107140 -9.357280 37.297215 37.107140 -14.869090 37.297215 33.170132 -14.869090 37.297215 37.603241 -14.184088 35.530361 37.500843 -14.081689 34.935009 37.873402 -10.144681 36.070683 37.873402 -14.454247 36.070683 37.603241 -10.144681 35.530361 37.603241 -10.042282 35.530361 37.873402 -9.772122 36.070683 37.500843 -10.144681 34.935009 37.500843 1.272642 26.670376 31.989031 -1.089563 28.676981 31.989031 1.272642 28.676981 37.500843 -1.089563 26.670376 32.674034 -1.089563 27.265730 32.776432 -1.089563 26.670376 32.665474 -1.089563 27.282850 32.403873 -1.089563 27.806049 31.989031 -1.089563 28.245180 32.674034 1.272642 27.265730 32.776432 1.272642 26.670376 32.665474 1.272642 27.282850 32.403873 1.272642 27.806049 31.989031 1.272642 28.245180 32.776432 -2.664366 26.670376 32.674034 -2.766765 27.265730 31.989031 3.634847 28.245180 32.403873 3.220003 27.806049 37.500843 2.847445 26.670376 32.776432 2.847445 26.670376 32.403873 -3.036924 27.806049 32.674034 2.847445 27.265730 32.674034 2.949844 27.265730 37.500843 -2.664366 26.670376 37.603241 -2.766765 27.265730 31.989031 3.634847 30.607384 31.989031 2.060043 29.032581 31.989031 2.060043 30.607384 31.989031 -1.876964 29.032581 31.989031 -1.876964 30.607384 31.989031 -3.451768 28.245180 31.989031 -3.451768 30.607384 33.170132 3.634847 29.032581 38.288242 3.634847 28.245180 33.170132 3.634847 30.607384 37.107140 3.634847 29.032581 38.288242 3.634847 30.607384 37.107140 3.634847 30.607384 37.107140 -1.876964 30.607384 37.697693 -1.876964 29.819983 37.107140 -1.876964 29.819983 38.288242 -1.876964 29.032581 37.697693 -1.876964 29.032581 38.288242 -1.876964 30.607384 38.288242 2.060043 30.607384 37.107140 2.060043 30.607384 38.288242 -3.451768 28.245180 37.107140 -3.451768 29.032581 38.288242 -3.451768 30.607384 37.107140 -3.451768 30.607384 33.170132 -3.451768 29.032581 33.170132 -3.451768 30.607384 37.107140 2.060043 29.819983 33.170132 -1.876964 30.607384 33.170132 -1.876964 29.819983 33.170132 2.060043 29.819983 33.170132 2.060043 30.607384 32.579582 -1.876964 29.032581 32.579582 -1.876964 29.819983 37.697693 2.060043 29.032581 38.288242 2.060043 29.032581 37.603241 2.949844 27.265730 37.873402 3.220003 27.806049 37.697693 2.060043 29.819983 37.873402 -3.036924 27.806049 32.579582 2.060043 29.819983 32.579582 2.060043 29.032581 -2.262938 14.264768 13.779528 1.674070 10.327760 13.779528 1.674070 14.264768 13.779528 -2.262938 10.327760 13.779528 -0.294434 9.737208 13.779528 -2.262938 -2.035202 13.188976 -0.294434 -2.467516 13.779528 -2.262938 -1.876964 13.779528 -0.294434 -2.546634 13.484252 -0.294434 -3.133165 13.168854 1.674070 -8.963578 12.598425 1.674070 -3.058067 12.598425 -0.294434 -8.888480 13.168854 -2.262938 -10.144681 13.779528 -0.294434 -9.475011 13.484252 -2.262938 -9.986444 13.188976 -0.294434 -9.554130 13.779528 -2.262938 9.737208 12.756663 -0.294434 9.658090 13.484252 -2.262938 10.169522 13.188976 -0.294434 9.441934 13.268095 -0.294434 -2.762791 13.268095 1.674070 -2.467516 12.756663 -2.262938 -8.963578 12.598425 -2.262938 -3.058067 12.598425 1.674070 10.169522 13.188976 -0.294434 2.729713 13.484252 -2.262938 2.650595 12.756663 -2.262938 2.218281 13.188976 -0.294434 2.945870 13.268095 -2.262938 9.015424 8.110236 1.674070 9.015424 8.110236 -0.294434 2.650595 13.779528 1.674070 2.218281 13.188976 1.674070 2.060043 13.779528 1.674070 -14.081689 11.417323 -2.262938 -14.081689 13.779528 -2.262938 -14.081689 11.417323 1.674070 -14.081689 13.779528 1.674070 -1.876964 13.779528 1.674070 -2.035202 13.188976 -2.262938 9.146658 12.598425 -0.294434 9.071559 13.168854 -2.262938 -1.483264 13.779528 1.674070 -1.483264 13.779528 -2.262938 -9.554130 12.756663 -0.294434 -9.258854 13.268095 1.674070 -8.832345 8.110236 -2.262938 -8.832345 8.110236 1.674070 3.241146 12.598425 -0.294434 3.316244 13.168854 1.674070 2.650595 12.756663 -2.262938 3.241146 12.598425 -2.262938 -2.467516 12.756663 1.674070 -10.144681 13.779528 -2.262938 -13.556754 10.236220 1.674070 -13.556754 10.236220 1.674070 -10.932082 8.582677 -2.262938 -10.932082 8.582677 1.674070 -12.506886 9.291339 -2.262938 -12.506886 9.291339 1.674070 -9.554130 12.756663 1.674070 -9.986444 13.188976 1.674070 9.146658 12.598425 1.674070 9.737208 12.756663 1.674070 14.264768 11.417323 1.674070 11.115162 8.582677 1.674070 12.689964 9.291339 1.674070 13.739834 10.236220 1.674070 1.666343 9.842520 1.674070 1.666343 13.779528 1.674070 -1.483264 9.842520 -2.262938 2.060043 13.779528 -2.262938 14.264768 11.417323 -2.262938 13.739834 10.236220 -2.262938 12.689964 9.291339 -2.262938 -1.483264 9.842520 -2.262938 11.115162 8.582677 -2.262938 1.666343 9.842520 -2.262938 1.666343 13.779528 21.359110 -3.058067 29.123308 23.327614 -2.762791 29.792978 21.359110 -2.467516 29.281546 23.327614 -3.133165 29.693737 23.327614 -2.546634 30.009134 21.359110 -2.035202 29.713860 25.296118 -8.176177 30.304409 23.327614 -7.506507 30.009134 23.327614 -7.585626 30.304409 25.296118 -8.017940 29.713860 25.296118 -3.058067 29.123308 25.296118 -2.467516 29.281546 25.296118 -2.035202 29.713860 25.296118 -7.585626 29.281546 23.327614 -7.290350 29.792978 25.296118 -1.876964 30.304409 23.327614 -2.467516 30.304409 21.359110 -8.017940 29.713860 21.359110 -8.176177 30.304409 21.359110 -1.876964 30.304409 25.296118 -12.113185 30.304409 21.359110 -12.113185 30.304409 21.359110 -6.995075 29.123308 23.327614 -6.919976 29.693737 21.359110 8.201018 29.713860 23.327614 7.768705 30.304409 21.359110 8.359256 30.304409 23.327614 7.689586 30.009134 25.296118 8.359256 30.304409 25.296118 8.201018 29.713860 21.359110 7.768705 29.281546 23.327614 7.473429 29.792978 25.296118 2.060043 30.304409 23.327614 2.729713 30.009134 23.327614 2.650595 30.304409 25.296118 2.218281 29.713860 21.359110 2.218281 29.713860 21.359110 2.060043 30.304409 21.359110 -7.585626 29.281546 25.296118 -6.995075 29.123308 21.359110 -12.113185 27.942205 21.359110 -8.333657 24.753229 21.359110 5.997051 24.398897 21.359110 -5.813972 24.398897 21.359110 8.516736 24.753229 21.359110 -10.223421 25.461891 21.359110 10.406500 25.461891 21.359110 -11.483264 26.524883 21.359110 -1.483264 26.367401 21.359110 -1.483264 30.304409 21.359110 1.666343 26.367401 21.359110 11.666343 26.524883 21.359110 2.650595 29.281546 21.359110 1.666343 30.304409 21.359110 3.241146 29.123308 21.359110 12.296264 27.942205 21.359110 7.178154 29.123308 21.359110 12.296264 30.304409 25.296118 2.650595 29.281546 23.327614 2.945870 29.792978 25.296118 -12.113185 27.942205 25.296118 -1.483264 30.304409 25.296118 -5.813972 24.398897 25.296118 5.997051 24.398897 25.296118 12.296264 30.304409 25.296118 12.296264 27.942205 25.296118 11.666343 26.524883 25.296118 7.178154 29.123308 25.296118 7.768705 29.281546 25.296118 8.516736 24.753229 25.296118 -8.333657 24.753229 25.296118 -10.223421 25.461891 25.296118 10.406500 25.461891 25.296118 1.666343 26.367401 25.296118 1.666343 30.304409 25.296118 3.241146 29.123308 25.296118 -1.483264 26.367401 25.296118 -11.483264 26.524883 23.327614 7.103055 29.693737 23.327614 3.316244 29.693737 2.855172 9.540359 17.716536 1.674070 15.052170 17.716536 1.674070 9.540359 17.716536 2.855172 15.052170 17.716536 -3.029197 14.637326 14.915199 -2.759037 10.225361 14.374881 -3.029197 9.955201 14.915199 -2.759037 14.367167 14.374881 2.855172 14.264768 15.354331 2.855172 9.540359 15.354331 2.855172 15.052170 15.354331 -2.656639 10.327760 13.779528 -2.656639 14.264768 13.779528 -3.444040 15.052170 15.354331 -3.444040 9.540359 15.354331 -2.262938 9.540359 17.716536 -3.444040 15.052170 17.716536 -3.444040 9.540359 17.716536 -2.262938 15.052170 17.716536 -2.262938 15.052170 16.141733 1.674070 15.052170 16.141733 1.674070 9.540359 16.141733 -2.262938 9.540359 16.141733 2.170170 10.225361 14.374881 2.067771 10.327760 13.779528 2.440329 14.264768 14.915199 2.440329 9.955201 14.915199 2.170170 14.264768 14.374881 2.170170 14.367167 14.374881 2.440329 14.637326 14.915199 2.067771 14.264768 13.779528 2.855172 -14.869090 17.716536 1.674070 -9.357280 17.716536 1.674070 -14.869090 17.716536 2.855172 -9.357280 17.716536 -3.029197 -9.772122 14.915199 -2.759037 -14.184088 14.374881 -3.029197 -14.454247 14.915199 -2.759037 -10.042282 14.374881 2.855172 -10.144681 15.354331 2.855172 -14.869090 15.354331 2.855172 -9.357280 15.354331 -2.656639 -14.081689 13.779528 -2.656639 -10.144681 13.779528 -3.444040 -9.357280 15.354331 -3.444040 -14.869090 15.354331 -2.262938 -14.869090 17.716536 -3.444040 -9.357280 17.716536 -3.444040 -14.869090 17.716536 -2.262938 -9.357280 17.716536 -2.262938 -9.357280 16.141733 1.674070 -9.357280 16.141733 1.674070 -14.869090 16.141733 -2.262938 -14.869090 16.141733 2.170170 -14.184088 14.374881 2.067771 -14.081689 13.779528 2.440329 -10.144681 14.915199 2.440329 -14.454247 14.915199 2.170170 -10.144681 14.374881 2.170170 -10.042282 14.374881 2.440329 -9.772122 14.915199 2.067771 -10.144681 13.779528 1.674070 1.666343 16.213625 -2.262938 1.666343 16.141733 1.674070 1.666343 16.141733 -2.262938 1.666343 17.651489 1.674070 1.666343 22.038342 -2.262938 1.666343 18.103390 1.674070 1.666343 18.103390 -2.262938 1.666343 22.038342 -2.262938 -1.483263 18.103390 1.674070 -1.483263 22.038342 1.674070 -1.483263 18.103390 -2.262938 -1.483263 22.038342 -2.262938 18.989178 22.038342 1.674070 18.989178 16.141733 -2.262938 18.989178 16.141733 1.674070 18.989178 22.038342 1.674070 -1.483263 16.213625 1.674070 -1.483263 16.141733 1.674070 -18.806099 22.038342 1.674070 -18.806099 16.141733 -2.262938 -18.806099 16.141733 -2.262938 -18.806099 22.038342 -2.262938 -1.483263 17.651489 -2.262938 -1.483263 16.141733 9.548086 1.666343 27.913177 13.485094 2.060043 26.479889 9.548086 2.060043 27.913177 13.485094 1.666343 26.479889 20.178007 2.060043 24.043297 20.178007 1.666343 24.043297 -8.168449 1.666343 34.362976 -8.168449 2.060043 34.362976 20.178007 1.666343 26.692160 -8.168449 1.666343 34.365261 -2.262938 1.666343 34.861904 -8.168449 1.666343 37.011837 1.674070 1.666343 33.428616 13.485094 1.666343 29.128750 9.548086 1.666343 30.562038 -8.168449 -1.483264 37.011837 -8.168449 -1.483264 34.362976 32.382732 -1.876964 13.315416 1.674070 -1.876964 26.371105 1.674070 -1.876964 24.495068 32.652096 -1.876964 14.055312 30.737066 -1.876964 15.107431 29.035227 -1.876964 16.477844 25.689817 -1.876964 22.036694 20.965408 -1.876964 22.036694 26.472210 -1.876964 19.996557 -2.262938 -1.876964 25.928356 -8.168449 -1.876964 34.362976 -8.168449 -1.876964 28.078289 -2.262938 -1.876964 26.371105 -0.373174 -1.876964 26.371105 27.598890 -1.876964 18.124426 20.854450 -1.876964 22.649166 20.592850 -1.876964 23.172365 20.178007 -1.876964 23.611496 20.178007 -1.876964 24.043297 13.485094 -1.876964 26.479889 9.548086 -1.876964 27.913177 -8.168449 2.060044 28.078289 -2.262938 2.060043 25.928356 9.548086 -1.483264 27.913177 13.485094 -1.483264 26.479889 20.178007 -1.483264 24.043297 20.178007 -1.089563 24.043297 20.178007 1.272642 24.043297 1.674070 2.060043 24.495068 1.674070 -1.483264 24.495068 20.178007 -1.483264 26.692160 -2.262938 -1.483264 34.861904 1.674070 -1.483264 33.428616 13.485094 -1.483264 29.128750 9.548086 -1.483264 30.562038 32.382732 2.060043 13.315416 32.652096 2.060043 14.055312 30.737066 2.060043 15.107431 29.035227 2.060043 16.477844 27.598890 2.060043 18.124426 20.965408 2.060043 22.036694 26.472210 2.060043 19.996557 20.854450 2.060043 22.649166 20.592850 2.060043 23.172365 20.178007 2.060043 23.611496 25.689817 2.060043 22.036694 20.178007 1.272642 23.611496 20.178007 -1.089563 23.611496 25.998337 -1.109506 21.924376 25.689817 -1.089563 22.036694 25.689817 1.272642 22.036694 25.998337 1.292585 21.924376 26.154541 -0.312158 21.867508 26.154541 0.495237 21.867508 26.695810 1.292585 20.105669 27.799999 1.292585 18.270912 26.809019 0.495237 20.160912 27.901819 0.495237 18.345078 27.901819 -0.312158 18.345078 26.809019 -0.312158 20.160912 27.799999 -1.109506 18.270912 26.695810 -1.109506 20.105669 32.737885 -1.109506 14.290964 32.781322 -0.312158 14.410275 32.781322 0.495237 14.410275 32.737885 1.292585 14.290964 20.854450 1.272642 22.649166 20.965408 1.272642 22.036694 20.592850 1.272642 23.172365 20.854450 -1.089563 22.649166 20.965408 -1.089563 22.036694 20.592850 -1.089563 23.172365 29.207659 1.292585 16.657204 29.294962 0.495237 16.748013 29.294962 -0.312158 16.748013 29.207659 -1.109506 16.657204 30.875523 1.292585 15.314150 30.945623 0.495237 15.418811 30.945623 -0.312158 15.418811 30.875523 -1.109506 15.314150 25.296118 -4.239169 32.666615 25.296118 -4.239169 37.291397 21.359110 -4.239169 37.291397 21.359110 -4.239169 32.666615 25.296118 -5.813972 37.291397 21.359110 -5.813972 37.291397 25.296118 -7.388775 37.291397 21.359110 -7.388775 37.291397 25.296118 -7.388775 32.666615 21.359110 -7.388775 32.666615 21.359110 -24.711611 32.666615 21.359110 -24.711611 38.563225 21.359110 13.083666 38.563225 21.359110 13.083666 32.666615 25.296118 -24.711611 32.666615 25.296118 13.083666 38.563225 25.296118 13.083666 32.666615 25.296118 -24.711611 38.563225 26.477221 7.571855 34.241417 25.296118 13.083666 34.241417 25.296118 7.571855 34.241417 26.477221 13.083666 34.241417 20.592850 12.668822 31.440083 20.863010 8.256857 30.899763 20.592850 7.986698 31.440083 20.863010 12.398663 30.899763 26.477221 12.296264 31.879213 26.477221 7.571855 31.879213 26.477221 13.083666 31.879213 20.965408 8.359256 30.304409 20.965408 12.296264 30.304409 20.178007 13.083666 31.879213 20.178007 7.571855 31.879213 21.359110 7.571855 34.241417 20.178007 13.083666 34.241417 20.178007 7.571855 34.241417 21.359110 13.083666 34.241417 25.296118 7.571855 32.666615 21.359110 7.571855 32.666615 25.792217 8.256857 30.899763 25.689817 8.359256 30.304409 26.062376 12.296264 31.440083 26.062376 7.986698 31.440083 25.792217 12.296264 30.899763 25.792217 12.398663 30.899763 26.062376 12.668822 31.440083 25.689817 12.296264 30.304409 33.563835 1.666343 37.297215 33.170132 1.666343 47.142818 33.170132 1.666343 37.297215 33.563835 1.666343 47.142818 33.563835 0.682091 47.142818 33.563835 0.682091 37.297215 33.957535 0.731303 47.142818 33.957535 0.731303 37.297215 33.563835 -0.499012 37.297215 33.957535 -0.499012 47.142818 33.957535 -0.499012 37.297215 33.563835 -0.499012 47.142818 33.563835 -1.483264 47.142818 33.563835 -1.483264 37.297215 33.170132 -1.483264 47.142818 33.170132 -1.483264 37.297215 37.107140 15.052170 47.171581 33.170132 -14.869090 48.604534 37.107140 -14.869090 47.171581 33.170132 15.052170 48.604534 8.366983 2.060043 17.716536 8.366983 2.060043 16.141733 14.666196 2.060043 16.141733 14.666196 2.060043 17.716536 8.366983 -3.451768 17.716536 14.666196 -3.451768 17.716536 14.666196 -1.876964 17.716536 8.366983 -1.876964 17.716536 14.666196 -1.876964 16.141733 8.366983 -1.876964 16.141733 14.666196 3.634847 15.354331 14.251353 3.220003 14.915199 8.781827 3.220003 14.915199 8.366983 3.634847 15.354331 13.981194 2.949844 14.374881 9.051986 2.949844 14.374881 9.051986 -2.766765 14.374881 8.781827 -3.036924 14.915199 8.781827 2.847445 14.915199 9.051986 2.847445 14.374881 9.154386 -2.664366 13.779528 13.878795 -2.664366 13.779528 13.981194 -2.766765 14.374881 14.251353 -3.036924 14.915199 8.366983 -3.451768 15.354331 8.366983 2.847445 15.354331 13.878795 2.847445 13.779528 14.666196 3.634847 17.716536 14.666196 -3.451768 15.354331 8.366983 3.634847 17.716536 9.154386 2.847445 13.779528 26.477221 -12.900586 34.241417 25.296118 -7.388775 34.241417 25.296118 -12.900586 34.241417 26.477221 -7.388775 34.241417 20.592850 -7.803618 31.440083 20.863010 -12.215584 30.899763 20.592850 -12.485744 31.440083 20.863010 -8.073778 30.899763 26.477221 -8.176177 31.879213 26.477221 -12.900586 31.879213 26.477221 -7.388775 31.879213 20.965408 -12.113185 30.304409 20.965408 -8.176177 30.304409 20.178007 -7.388775 31.879213 20.178007 -12.900586 31.879213 21.359110 -12.900586 34.241417 20.178007 -7.388775 34.241417 20.178007 -12.900586 34.241417 21.359110 -7.388775 34.241417 25.296118 -12.900586 32.666615 21.359110 -12.900586 32.666615 25.792217 -12.215584 30.899763 25.689817 -12.113185 30.304409 26.062376 -8.176177 31.440083 26.062376 -12.485744 31.440083 25.792217 -8.176177 30.899763 25.792217 -8.073778 30.899763 26.062376 -7.803618 31.440083 25.689817 -8.176177 30.304409 20.863010 -1.089563 22.632046 20.863010 1.272642 22.632046 20.965408 -2.664366 22.036694 20.863010 -2.766765 22.632046 20.178007 3.634847 23.611496 20.592850 3.220003 23.172365 25.689817 2.847445 22.036694 20.965408 2.847445 22.036694 20.592850 -3.036924 23.172365 20.863010 2.847445 22.632046 20.863010 2.949844 22.632046 25.689817 -2.664366 22.036694 25.792217 -2.766765 22.632046 20.178007 3.634847 25.973701 20.178007 2.060043 24.398897 20.178007 2.060043 25.973701 20.178007 -1.876964 24.398897 20.178007 -1.876964 25.973701 20.178007 -3.451768 23.611496 20.178007 -3.451768 25.973701 21.359110 3.634847 24.398897 26.477221 3.634847 23.611496 21.359110 3.634847 25.973701 25.296118 3.634847 24.398897 26.477221 3.634847 25.973701 25.296118 3.634847 25.973701 25.296118 -1.876964 25.973701 25.886669 -1.876964 25.186300 25.296118 -1.876964 25.186300 26.477221 -1.876964 24.398897 25.886669 -1.876964 24.398897 26.477221 -1.876964 25.973701 26.477221 2.060043 25.973701 25.296118 2.060043 25.973701 26.477221 -3.451768 23.611496 25.296118 -3.451768 24.398897 26.477221 -3.451768 25.973701 25.296118 -3.451768 25.973701 21.359110 -3.451768 24.398897 21.359110 -3.451768 25.973701 25.296118 2.060043 25.186300 21.359110 -1.876964 25.973701 21.359110 -1.876964 25.186300 21.359110 2.060043 25.186300 21.359110 2.060043 25.973701 20.768559 -1.876964 24.398897 20.768559 -1.876964 25.186300 25.886669 2.060043 24.398897 26.477221 2.060043 24.398897 25.792217 2.949844 22.632046 26.062376 3.220003 23.172365 25.886669 2.060043 25.186300 26.062376 -3.036924 23.172365 20.768559 2.060043 25.186300 20.768559 2.060043 24.398897 -8.168449 -1.876964 16.141733 -8.168449 2.060043 7.874016 -8.168449 -1.876964 7.874016 -8.168449 2.060043 16.141733 0.492968 1.666343 13.779528 0.492968 2.060043 13.779528 0.492968 2.060043 16.141733 0.492968 1.666343 16.141733 -1.081835 2.060043 13.779528 -1.081835 1.666343 13.779528 -1.081835 2.060043 16.141733 -1.081835 1.666343 16.141733 0.492968 -1.876964 13.779528 0.492968 -1.483264 13.779528 0.492968 -1.876964 16.141733 0.492968 -1.483264 16.141733 -1.081835 -1.876964 13.779528 -1.081835 -1.483264 13.779528 -1.081835 -1.876964 16.141733 -1.081835 -1.483264 16.141733 2.855172 2.060043 16.141733 2.855172 -1.876964 16.141733 2.855172 1.666343 16.141733 2.855172 -1.483264 16.141733 8.366983 1.666343 16.141733 8.366983 -1.483264 16.141733 9.154386 1.666343 13.779528 9.051986 -1.483264 14.374881 9.154386 -1.483264 13.779528 9.051986 1.666343 14.374881 8.366983 1.666343 15.354331 8.366983 -1.483264 15.354331 13.248874 2.060043 10.000000 13.878795 -1.876964 11.417323 13.248874 -1.876964 10.000000 13.878795 2.060043 11.417323 13.878795 2.060043 13.779528 9.154386 2.060043 13.779528 9.154386 -1.876964 13.779528 13.878795 -1.876964 13.779528 8.781827 -1.483264 14.915199 8.781827 1.666343 14.915199 11.989031 2.060043 8.937008 10.099267 -1.876964 8.228347 10.099267 2.060043 8.228347 11.989031 -1.876964 8.937008 7.579582 -1.876964 7.874016 7.579582 2.060043 7.874016 7.973283 -1.876964 12.598425 8.563834 -1.876964 12.756663 8.996147 -1.876964 13.188976 3.248873 -1.876964 12.598425 2.658322 -1.876964 12.756663 2.226009 -1.876964 13.188976 2.067771 -1.876964 13.779528 2.170170 -1.876964 14.374881 2.440329 -1.876964 14.915199 2.855172 -1.876964 15.354331 2.170170 2.060043 14.374881 2.440329 2.060043 14.915199 2.855172 2.060043 15.354331 2.226009 2.060043 13.188976 2.658322 2.060043 12.756663 3.248873 2.060043 12.598425 2.067771 2.060043 13.779528 7.973283 2.060043 12.598425 8.563834 2.060043 12.756663 8.996147 2.060043 13.188976 2.226009 1.666343 13.188976 2.067771 1.666343 13.779528 2.658322 1.666343 12.756663 3.248873 1.666343 12.598425 7.973283 1.666343 12.598425 8.563834 1.666343 12.756663 8.996147 1.666343 13.188976 2.170170 1.666343 14.374881 2.440329 1.666343 14.915199 2.855172 1.666343 15.354331 8.563834 -1.483264 12.756663 8.996147 -1.483264 13.188976 3.248873 -1.483264 12.598425 7.973283 -1.483264 12.598425 2.658322 -1.483264 12.756663 2.226009 -1.483264 13.188976 2.067771 -1.483264 13.779528 2.170170 -1.483264 14.374881 2.440329 -1.483264 14.915199 2.855172 -1.483264 15.354331 1.870921 -1.876964 24.409449 1.674070 -1.483264 24.481342 1.674070 -1.876964 24.481342 1.674070 2.060043 24.481342 1.870921 2.060043 24.409449 -8.168449 -1.876964 28.076002 -8.168449 2.060044 28.076002 -2.262938 -1.483264 25.919207 -2.262938 -1.876964 25.919207 -8.168449 -1.876964 24.409449 -8.168449 2.060044 24.409449 1.674070 -1.876964 24.409449 1.674070 -1.483264 24.409449 1.674070 2.060043 24.409449 -2.262938 -1.483264 24.409449 -2.262938 -1.876964 24.409449 8.302197 1.666343 37.300297 -2.144828 -1.483264 41.103592 -2.144828 1.666343 41.103592 8.302197 -1.483264 37.300297 21.359110 -1.483264 38.572128 13.485094 -1.483264 37.300297 21.359110 -1.483264 37.300297 9.548086 -1.483264 37.300297 33.563835 -1.483264 41.237305 25.296118 -1.483264 37.300297 33.563835 -1.483264 37.300297 25.296118 -1.483264 38.572128 -2.144828 -1.483264 41.237305 21.359110 1.666343 37.300297 13.485094 1.666343 37.300297 9.548086 1.666343 37.300297 33.563835 1.666343 37.300297 25.296118 1.666343 37.300297 33.563835 0.682091 37.300297 33.563835 -0.499012 37.300297 35.138638 -0.695862 37.300297 35.138638 0.878941 37.300297 21.359110 1.666343 38.572128 25.296118 1.666343 38.572128 35.138638 -0.695862 41.237305 33.563835 0.682091 41.237305 33.563835 -0.499012 41.237305 35.138638 0.878941 41.237305 -2.144828 1.666343 41.237305 33.563835 1.666343 41.237305 25.296118 1.666343 32.677166 21.359110 2.060043 32.677166 21.359110 1.666343 32.677166 25.296118 2.060043 32.677166 25.296118 -1.876964 32.677166 21.359110 -1.483264 32.677166 21.359110 -1.876964 32.677166 25.296118 -1.483264 32.677166 25.296118 -1.483264 34.938091 21.359110 -1.483264 34.938091 25.296118 -1.483264 36.603622 21.359110 -1.483264 36.603622 21.359110 2.060043 33.493336 21.359110 1.666343 34.938091 21.359110 1.666343 33.363289 21.359110 2.060043 34.938091 25.296118 -1.876964 37.300297 25.296118 2.060043 37.300297 25.296118 1.666343 36.603622 25.296118 1.666343 34.938091 21.359110 1.666343 36.603622 21.359110 -1.876964 37.300297 21.359110 2.060043 37.300297 31.989031 -1.876964 37.300297 31.989031 2.060043 37.300297 8.302197 2.060043 37.300297 8.302197 -1.876964 37.300297 21.359110 2.060043 32.546860 32.776432 2.060043 34.938091 32.674034 2.060043 35.533447 32.403873 2.060043 36.073765 31.989031 2.060043 36.512897 31.012255 2.060043 29.032581 25.296118 2.060043 31.113571 31.012255 -1.876964 29.032581 25.296118 -1.876964 31.113571 21.359110 -1.876964 32.546860 32.776432 -1.876964 34.938091 32.674034 -1.876964 35.533447 32.403873 -1.876964 36.073765 31.989031 -1.876964 36.512897 38.974377 2.060043 29.032581 38.974377 -1.876964 29.032581 40.942883 0.091539 29.032581 41.257843 2.060043 29.819983 43.305088 2.060043 34.938091 43.226345 0.091539 29.819983 41.257843 -1.876964 29.819983 44.981155 0.091539 34.207008 43.305088 -1.876964 34.938091 -8.168449 -1.876964 24.409449 -1.081836 -1.876964 24.409449 -1.081836 -1.483264 24.409449 0.492968 -1.483264 24.409449 0.492968 1.666343 24.409449 -1.081835 1.666343 24.409449 -1.081835 2.060044 24.409449 0.492968 2.060043 24.409449 0.492968 -1.876964 24.409449 8.957535 2.060043 16.141733 14.075644 2.060043 16.141733 14.075644 -1.876964 16.141733 8.957535 -1.876964 16.141733 18.209503 -1.876964 18.464567 18.209503 2.060043 18.464567 1.674070 -1.876964 22.047245 1.674070 -1.876964 16.141733 15.419598 -1.876964 16.186161 16.086349 -1.876964 16.539757 16.545773 -1.876964 17.138521 18.026434 -1.876964 17.654085 0.492967 -1.876964 22.047245 17.376671 -1.876964 17.136202 15.419598 2.060043 16.186161 16.086349 2.060043 16.539757 16.545773 2.060043 17.138521 17.376671 2.060043 17.136202 18.026434 2.060043 17.654085 1.674070 -1.483264 22.047245 0.492967 -1.483264 22.047245 -1.081836 -1.483264 22.047243 -1.081836 -1.876964 22.047243 -2.262938 -1.876964 22.047245 -2.262938 -1.483264 22.047245 1.674070 2.060044 22.047245 1.674070 1.666343 22.047245 0.492967 1.666343 22.047245 0.492967 2.060044 22.047245 -1.081836 2.060044 22.047243 -1.081835 1.666343 22.047243 -2.262938 1.666343 22.047245 -2.262938 2.060043 22.047245 -2.262938 1.666343 18.110237 -2.262938 2.060043 18.110237 1.674070 2.060043 16.141733 1.674070 -1.483264 18.110237 1.674070 1.666343 18.110237 -2.262938 -1.483264 18.110237 -2.262938 2.060043 16.141733 -2.262938 -1.876964 16.141733 -8.168449 2.060043 43.296524 -8.168449 -1.876964 37.011837 -8.168449 -1.876964 43.296524 -8.168449 2.060043 37.011837 21.359110 -1.876964 26.262173 10.231298 -1.876964 30.313313 13.485094 -1.876964 29.128750 37.500843 -1.876964 26.670376 32.776432 -1.876964 26.670376 38.283234 -1.876964 24.630241 44.463120 -1.876964 18.688995 25.296118 -1.876964 24.828884 44.193756 -1.876964 17.949099 42.548088 -1.876964 19.741114 40.846249 -1.876964 21.111528 39.409916 -1.876964 22.758108 32.665474 -1.876964 27.282850 32.403873 -1.876964 27.806049 31.989031 -1.876964 28.245180 31.989031 -1.876964 28.676981 -4.894491 -1.876964 42.104622 13.485093 -1.876964 35.413437 14.564754 -1.876964 35.020382 9.548085 -1.876964 36.846725 37.809361 -1.109506 26.558058 37.500843 2.060043 26.670376 37.809361 1.292585 26.558058 37.965565 -0.312158 26.501192 37.965565 0.495237 26.501192 13.485093 -1.483264 35.413437 13.485094 1.666343 35.413437 13.485094 2.060043 35.413437 13.728494 2.060043 35.324825 31.989031 2.060043 28.676981 9.548086 1.666343 36.846725 9.548085 -1.483264 36.846725 9.548086 2.060043 36.846725 13.485094 2.060043 29.128750 21.359110 2.060043 26.262173 13.485623 2.060043 29.130207 10.231298 2.060043 30.314960 10.231298 2.060043 30.313313 32.403873 2.060043 27.806049 31.989031 2.060043 28.245180 44.193756 2.060043 17.949099 25.296118 2.060043 24.828884 42.548088 2.060043 19.741114 44.463120 2.060043 18.688995 40.846249 2.060043 21.111528 39.409916 2.060043 22.758108 32.776432 2.060043 26.670376 38.283234 2.060043 24.630241 32.665474 2.060043 27.282850 10.231298 -1.876964 30.314960 21.359110 -1.483264 26.262173 13.485094 1.666343 32.677166 9.548086 1.666343 32.677166 38.506836 1.292585 24.739351 39.611023 1.292585 22.904594 38.620045 0.495237 24.794594 39.712841 0.495237 22.978760 39.712841 -0.312158 22.978760 38.620045 -0.312158 24.794594 39.611023 -1.109506 22.904594 38.506836 -1.109506 24.739351 44.548908 -1.109506 18.924648 44.592346 -0.312158 19.043959 44.592346 0.495237 19.043959 44.548908 1.292585 18.924648 41.018684 1.292585 21.290886 41.105988 0.495237 21.381697 41.105988 -0.312158 21.381697 41.018684 -1.109506 21.290886 42.686546 1.292585 19.947832 42.756649 0.495237 20.052494 42.756649 -0.312158 20.052494 42.686546 -1.109506 19.947832 37.603241 -2.766765 35.530361 32.776432 -2.664366 34.935009 37.500843 -2.664366 34.935009 32.674034 -2.766765 35.530361 31.989031 3.634847 36.509811 37.873402 3.220003 36.070683 32.403873 3.220003 36.070683 38.288242 3.634847 36.509811 31.989031 -3.451767 38.872017 33.170132 -1.876964 38.872017 31.989031 -1.876964 38.872017 33.170132 -3.451767 38.872017 37.603241 2.949844 35.530361 32.674034 2.949844 35.530361 37.873402 -3.036924 36.070683 38.288242 -3.451767 36.509811 37.107140 -3.451767 37.297215 31.989031 -3.451767 36.509811 38.288242 -3.451767 38.872017 37.107140 -3.451767 38.872017 33.170132 -3.451767 37.297215 31.989031 3.634847 38.872017 31.989031 2.060044 37.297215 31.989031 2.060044 38.872017 31.989031 -2.664366 36.509811 31.989031 -1.876964 37.297215 33.170132 3.634847 37.297215 33.170132 2.060044 38.872017 33.170132 2.060044 37.297215 33.170132 3.634847 38.872017 32.403873 -3.036924 36.070683 33.170132 -1.876964 37.714848 33.170132 -1.876964 37.297215 32.022961 -1.876964 37.297215 38.288242 3.634847 38.872017 37.107140 3.634847 37.297215 37.107140 3.634847 38.872017 37.500843 2.847445 34.935009 32.776432 2.847445 34.935009 32.674034 -2.664366 35.530361 32.403873 -2.664366 36.070683 "
							            />
						</IndexedFaceSet>
					</Shape>
				</Group>
			</Transform>
		</Transform>
	</Scene>
</X3D>