<?xml version="1.0" encoding="UTF-8"?>
<!DOCTYPE X3D PUBLIC "ISO//Web3D//DTD X3D 3.0//EN" "http://www.web3d.org/specifications/x3d-3.0.dtd">
<X3D version="3.0" profile="Immersive" xmlns:xsd="http://www.w3.org/2001/XMLSchema-instance" xsd:noNamespaceSchemaLocation="http://www.web3d.org/specifications/x3d-3.0.xsd">
	<head>
		<meta name="filename" content="10-3.x3d" />
		<meta name="created" content="2026-06-21 15:09:37" />
		<meta name="generator" content="Blender 4.5.4 LTS" />
		<meta name="translator" content="Web3D X3D/VRML2 format v2.5.1" />
	</head>
	<Scene>
		<NavigationInfo headlight="true"
		                visibilityLimit="0.0"
		                type='"EXAMINE", "ANY"'
		                avatarSize="0.25, 1.75, 0.75"
		                />
		<Background DEF="WO_World"
		            groundColor="0.051 0.051 0.051"
		            skyColor="0.051 0.051 0.051"
		            />
		<Transform DEF="_10-3_TRANSFORM"
		           translation="0.000000 0.000000 0.000000"
		           scale="1.000000 1.000000 1.000000"
		           rotation="0.000000 0.707107 0.707107 3.141593"
		           >
			<Transform DEF="_10-3_ifs_TRANSFORM"
			           translation="0.000000 0.000000 0.000000"
			           scale="1.000000 1.000000 1.000000"
			           rotation="0.000000 1.000000 0.000000 0.000000"
			           >
				<Group DEF="group_ME_10-3_001">
					<Shape>
						<Appearance>
						</Appearance>
						<IndexedFaceSet solid="false"
						                coordIndex="0 1 2 -1 1 0 3 -1 4 3 5 -1 3 4 1 -1 4 6 7 -1 6 4 5 -1 0 7 6 -1 7 0 2 -1 2 4 7 -1 4 2 1 -1 5 0 6 -1 0 5 3 -1 8 9 10 -1 9 8 11 -1 12 9 13 -1 9 12 10 -1 13 14 12 -1 14 13 15 -1 15 16 5 -1 16 15 13 -1 13 17 16 -1 17 13 9 -1 17 9 11 -1 17 11 4 -1 5 14 15 -1 14 5 18 -1 4 19 17 -1 19 4 20 -1 19 16 17 -1 16 19 21 -1 21 12 18 -1 12 21 19 -1 12 19 10 -1 10 19 8 -1 8 19 20 -1 14 18 12 -1 8 4 11 -1 4 8 20 -1 18 16 21 -1 16 18 5 -1 22 23 24 -1 23 22 25 -1 26 27 28 -1 27 26 29 -1 30 22 31 -1 22 30 25 -1 25 30 32 -1 29 33 27 -1 33 29 34 -1 35 28 36 -1 28 35 26 -1 37 38 39 -1 38 37 40 -1 35 41 32 -1 41 35 38 -1 41 38 40 -1 32 42 25 -1 42 32 41 -1 25 42 23 -1 23 43 24 -1 43 23 42 -1 43 41 44 -1 41 43 42 -1 45 33 46 -1 33 45 27 -1 45 47 48 -1 47 45 49 -1 47 49 50 -1 47 50 51 -1 48 27 45 -1 27 48 28 -1 41 37 44 -1 37 41 40 -1 48 30 31 -1 30 48 47 -1 30 47 51 -1 30 51 32 -1 26 50 29 -1 50 26 51 -1 35 51 26 -1 51 35 32 -1 46 49 45 -1 49 46 52 -1 49 52 50 -1 31 43 36 -1 43 31 22 -1 43 22 24 -1 36 44 39 -1 44 36 43 -1 39 44 37 -1 52 33 34 -1 33 52 46 -1 31 28 48 -1 28 31 36 -1 38 36 39 -1 36 38 35 -1 29 52 34 -1 52 29 50 -1 53 54 55 -1 54 53 56 -1 57 58 59 -1 58 57 60 -1 61 53 62 -1 53 61 56 -1 56 61 63 -1 60 64 58 -1 64 60 65 -1 66 59 67 -1 59 66 57 -1 68 69 70 -1 69 68 71 -1 66 72 63 -1 72 66 69 -1 72 69 71 -1 63 73 56 -1 73 63 72 -1 56 73 54 -1 54 74 55 -1 74 54 73 -1 74 72 75 -1 72 74 73 -1 76 64 77 -1 64 76 58 -1 76 78 79 -1 78 76 80 -1 78 80 81 -1 78 81 82 -1 79 58 76 -1 58 79 59 -1 72 68 75 -1 68 72 71 -1 79 61 62 -1 61 79 78 -1 61 78 82 -1 61 82 63 -1 57 81 60 -1 81 57 82 -1 66 82 57 -1 82 66 63 -1 77 80 76 -1 80 77 83 -1 80 83 81 -1 62 74 67 -1 74 62 53 -1 74 53 55 -1 67 75 70 -1 75 67 74 -1 70 75 68 -1 83 64 65 -1 64 83 77 -1 62 59 79 -1 59 62 67 -1 69 67 70 -1 67 69 66 -1 60 83 65 -1 83 60 81 -1 84 85 86 -1 85 84 87 -1 88 89 90 -1 89 91 92 -1 91 89 93 -1 93 89 94 -1 94 89 95 -1 95 89 88 -1 95 88 96 -1 95 96 97 -1 98 99 100 -1 99 98 92 -1 92 98 101 -1 99 92 91 -1 100 102 98 -1 102 100 103 -1 104 105 87 -1 103 87 84 -1 87 103 100 -1 87 100 104 -1 104 100 106 -1 106 100 107 -1 107 100 108 -1 108 100 99 -1 106 109 110 -1 109 106 111 -1 109 111 112 -1 111 106 113 -1 113 106 114 -1 114 106 115 -1 114 115 116 -1 115 106 117 -1 117 106 107 -1 115 94 116 -1 94 115 118 -1 93 115 119 -1 115 93 118 -1 118 93 94 -1 120 99 91 -1 99 120 108 -1 121 108 120 -1 108 121 107 -1 122 107 121 -1 107 122 117 -1 119 117 122 -1 117 119 115 -1 122 93 119 -1 93 122 121 -1 93 121 120 -1 93 120 91 -1 123 92 101 -1 92 123 124 -1 125 126 127 -1 126 125 128 -1 127 124 123 -1 124 127 126 -1 129 128 125 -1 128 129 130 -1 90 130 129 -1 130 90 89 -1 89 128 130 -1 128 89 126 -1 126 89 124 -1 124 89 92 -1 87 131 85 -1 131 87 105 -1 84 102 103 -1 102 84 86 -1 132 133 134 -1 133 132 135 -1 136 135 132 -1 135 136 137 -1 104 137 136 -1 137 104 106 -1 90 129 138 -1 139 140 141 -1 140 139 142 -1 142 139 143 -1 140 142 144 -1 140 144 145 -1 140 145 129 -1 129 145 138 -1 140 129 125 -1 140 125 127 -1 131 86 85 -1 86 131 102 -1 102 131 146 -1 102 146 98 -1 98 146 140 -1 98 140 127 -1 98 127 123 -1 98 123 101 -1 131 134 146 -1 134 131 105 -1 146 134 147 -1 134 105 132 -1 132 105 136 -1 136 105 104 -1 147 140 146 -1 140 147 148 -1 141 133 110 -1 133 141 140 -1 133 140 148 -1 110 133 135 -1 110 135 137 -1 110 137 106 -1 133 147 134 -1 147 133 148 -1 139 149 143 -1 149 139 109 -1 149 109 150 -1 150 109 151 -1 151 109 152 -1 152 109 112 -1 153 97 96 -1 97 153 154 -1 155 96 88 -1 96 155 153 -1 156 94 95 -1 94 156 116 -1 154 95 97 -1 95 154 156 -1 138 88 90 -1 88 138 155 -1 114 138 116 -1 138 114 145 -1 156 114 116 -1 114 156 157 -1 154 157 156 -1 157 154 158 -1 159 154 153 -1 154 159 158 -1 160 153 155 -1 153 160 159 -1 145 155 138 -1 155 145 160 -1 113 145 114 -1 145 113 144 -1 157 113 114 -1 113 157 161 -1 158 161 157 -1 161 158 162 -1 163 158 159 -1 158 163 162 -1 164 159 160 -1 159 164 163 -1 144 160 145 -1 160 144 164 -1 113 142 144 -1 142 113 111 -1 161 111 113 -1 111 161 165 -1 162 165 161 -1 165 162 166 -1 167 162 163 -1 162 167 166 -1 168 163 164 -1 163 168 167 -1 142 164 144 -1 164 142 168 -1 165 112 111 -1 112 165 152 -1 166 152 165 -1 152 166 151 -1 150 166 167 -1 166 150 151 -1 149 167 168 -1 167 149 150 -1 143 168 142 -1 168 143 149 -1 110 139 141 -1 139 110 109 -1 169 170 171 -1 170 169 172 -1 172 173 174 -1 173 172 175 -1 175 172 176 -1 176 172 177 -1 177 172 178 -1 178 172 169 -1 179 180 181 -1 180 179 182 -1 171 178 169 -1 178 171 183 -1 178 183 181 -1 178 181 180 -1 184 185 186 -1 185 184 187 -1 187 184 188 -1 188 184 170 -1 170 184 183 -1 170 183 171 -1 173 188 174 -1 188 173 187 -1 174 170 172 -1 170 174 188 -1 176 185 175 -1 185 176 186 -1 177 180 189 -1 180 177 178 -1 180 190 189 -1 190 180 182 -1 191 183 184 -1 183 191 181 -1 179 191 192 -1 191 179 181 -1 175 187 173 -1 187 175 185 -1 190 179 192 -1 179 190 182 -1 190 191 189 -1 191 190 192 -1 177 186 176 -1 186 177 184 -1 184 177 189 -1 184 189 191 -1 193 194 195 -1 194 193 196 -1 195 197 198 -1 197 195 194 -1 199 200 201 -1 200 199 202 -1 194 203 204 -1 203 194 196 -1 197 204 205 -1 204 197 194 -1 200 206 207 -1 206 200 202 -1 197 208 209 -1 208 197 205 -1 201 210 211 -1 210 201 200 -1 198 209 212 -1 209 198 197 -1 211 199 201 -1 199 211 213 -1 213 211 214 -1 215 196 193 -1 196 215 216 -1 217 218 219 -1 218 217 220 -1 220 221 218 -1 221 220 222 -1 223 220 217 -1 220 223 224 -1 225 226 227 -1 226 225 228 -1 227 229 230 -1 229 227 226 -1 200 231 210 -1 231 200 207 -1 196 232 203 -1 232 196 216 -1 207 232 216 -1 232 207 206 -1 215 207 216 -1 207 215 231 -1 214 215 233 -1 215 214 231 -1 231 214 210 -1 210 214 211 -1 234 235 236 -1 235 234 237 -1 237 234 238 -1 237 238 239 -1 239 238 240 -1 239 240 241 -1 241 240 195 -1 241 195 198 -1 241 198 242 -1 195 240 193 -1 193 240 233 -1 193 233 215 -1 242 198 212 -1 239 243 244 -1 243 239 241 -1 244 243 245 -1 245 243 229 -1 229 243 246 -1 244 245 247 -1 244 247 248 -1 229 246 230 -1 248 249 250 -1 249 248 247 -1 250 249 223 -1 250 223 217 -1 250 217 219 -1 226 251 252 -1 251 226 228 -1 253 214 233 -1 214 253 213 -1 242 208 254 -1 208 242 212 -1 208 212 209 -1 255 235 256 -1 235 255 236 -1 257 248 250 -1 248 257 258 -1 248 259 244 -1 259 248 258 -1 257 260 258 -1 260 257 261 -1 261 257 222 -1 222 257 221 -1 262 255 256 -1 255 262 263 -1 263 262 264 -1 264 262 265 -1 264 265 259 -1 264 259 266 -1 266 259 251 -1 266 251 228 -1 266 228 267 -1 251 259 268 -1 268 259 258 -1 268 258 260 -1 267 228 225 -1 264 269 270 -1 269 264 266 -1 270 269 204 -1 204 269 205 -1 205 269 254 -1 270 204 203 -1 270 203 253 -1 205 254 208 -1 253 232 213 -1 232 253 203 -1 213 232 206 -1 213 206 202 -1 213 202 199 -1 256 237 262 -1 237 256 235 -1 262 239 265 -1 239 262 237 -1 250 221 257 -1 221 250 219 -1 221 219 218 -1 264 234 263 -1 234 264 238 -1 265 244 259 -1 244 265 239 -1 254 241 242 -1 241 254 269 -1 243 269 266 -1 269 243 241 -1 230 225 227 -1 225 230 267 -1 267 230 246 -1 270 238 264 -1 238 270 240 -1 270 233 240 -1 233 270 253 -1 263 236 255 -1 236 263 234 -1 243 267 246 -1 267 243 266 -1 249 224 223 -1 224 249 271 -1 220 261 222 -1 261 220 224 -1 247 271 249 -1 271 247 272 -1 224 260 261 -1 260 224 271 -1 247 252 272 -1 252 247 245 -1 252 268 272 -1 268 252 251 -1 271 268 260 -1 268 271 272 -1 226 245 229 -1 245 226 252 -1 273 274 275 -1 274 273 276 -1 277 273 275 -1 273 277 278 -1 279 278 277 -1 278 279 280 -1 281 282 283 -1 282 281 284 -1 284 281 285 -1 285 281 274 -1 285 286 284 -1 287 288 289 -1 288 287 290 -1 290 287 281 -1 281 287 274 -1 274 287 279 -1 274 277 275 -1 277 274 279 -1 291 281 283 -1 281 291 292 -1 293 288 290 -1 288 293 294 -1 295 284 296 -1 284 295 282 -1 297 274 276 -1 274 297 285 -1 285 297 286 -1 286 297 298 -1 297 284 298 -1 284 297 296 -1 284 286 298 -1 299 288 294 -1 288 299 300 -1 300 289 288 -1 289 300 301 -1 301 300 302 -1 301 302 303 -1 293 281 292 -1 281 293 290 -1 291 282 295 -1 282 291 283 -1 192 189 191 -1 189 192 190 -1 287 280 279 -1 280 287 191 -1 280 191 304 -1 304 191 189 -1 276 296 297 -1 296 276 295 -1 295 276 291 -1 291 276 292 -1 292 276 293 -1 273 278 276 -1 293 299 294 -1 299 293 304 -1 304 293 276 -1 304 276 280 -1 280 276 278 -1 301 287 289 -1 287 301 191 -1 192 301 303 -1 301 192 191 -1 300 190 302 -1 190 300 189 -1 299 189 300 -1 189 299 304 -1 302 192 303 -1 192 302 190 -1 305 306 307 -1 306 305 308 -1 308 305 309 -1 309 310 308 -1 310 309 311 -1 312 313 314 -1 315 312 316 -1 313 317 318 -1 317 313 312 -1 317 312 319 -1 319 312 315 -1 317 319 320 -1 317 320 321 -1 317 321 322 -1 317 322 323 -1 323 322 324 -1 317 323 325 -1 323 324 326 -1 325 305 317 -1 305 325 311 -1 311 325 327 -1 309 305 311 -1 311 328 310 -1 328 311 327 -1 306 329 330 -1 329 306 331 -1 331 306 332 -1 332 306 333 -1 333 306 334 -1 334 306 335 -1 335 306 336 -1 336 306 337 -1 337 306 338 -1 338 306 308 -1 338 310 328 -1 310 338 308 -1 337 339 340 -1 339 337 338 -1 340 339 341 -1 342 333 334 -1 330 313 318 -1 313 330 329 -1 306 317 307 -1 317 306 330 -1 317 330 318 -1 341 323 326 -1 323 341 339 -1 305 307 317 -1 323 338 325 -1 338 323 339 -1 324 341 326 -1 341 324 340 -1 325 328 327 -1 328 325 338 -1 331 313 329 -1 313 331 314 -1 337 324 322 -1 324 337 340 -1 336 322 321 -1 322 336 337 -1 335 321 320 -1 321 335 336 -1 334 320 319 -1 320 334 335 -1 343 344 345 -1 344 343 346 -1 343 347 346 -1 347 343 348 -1 333 312 332 -1 312 333 316 -1 331 312 314 -1 312 331 332 -1 316 349 315 -1 349 316 333 -1 349 333 350 -1 350 333 351 -1 351 333 342 -1 352 315 349 -1 353 354 355 -1 356 344 357 -1 344 356 358 -1 344 358 345 -1 345 358 354 -1 345 354 353 -1 354 349 350 -1 349 354 358 -1 359 347 348 -1 347 359 360 -1 360 359 361 -1 356 349 358 -1 349 356 352 -1 351 354 350 -1 354 351 355 -1 353 343 345 -1 348 362 359 -1 362 348 343 -1 362 343 363 -1 363 343 353 -1 362 361 359 -1 361 362 364 -1 361 365 360 -1 365 361 364 -1 363 364 362 -1 364 363 366 -1 364 367 365 -1 367 364 366 -1 365 347 360 -1 347 365 346 -1 346 365 367 -1 346 357 344 -1 357 346 367 -1 366 363 367 -1 367 356 357 -1 356 367 355 -1 355 367 353 -1 353 367 363 -1 352 351 315 -1 351 352 355 -1 355 352 356 -1 315 334 319 -1 334 315 342 -1 342 315 351 -1 368 369 370 -1 369 368 371 -1 369 371 372 -1 373 374 375 -1 374 373 376 -1 377 370 378 -1 370 377 368 -1 378 370 379 -1 378 379 374 -1 378 374 376 -1 380 378 381 -1 378 380 377 -1 381 382 380 -1 382 381 383 -1 379 181 183 -1 181 379 180 -1 180 379 178 -1 178 379 370 -1 181 182 179 -1 182 181 180 -1 377 382 368 -1 382 377 380 -1 384 374 385 -1 374 384 375 -1 369 386 387 -1 386 369 372 -1 178 369 387 -1 369 178 370 -1 387 180 178 -1 180 387 386 -1 180 386 388 -1 182 389 390 -1 389 182 388 -1 388 182 180 -1 390 179 182 -1 179 390 391 -1 392 179 391 -1 179 392 181 -1 384 181 392 -1 181 384 183 -1 183 384 385 -1 374 183 385 -1 183 374 379 -1 389 393 390 -1 391 393 392 -1 393 391 390 -1 381 376 383 -1 376 381 378 -1 372 388 386 -1 388 372 392 -1 392 372 384 -1 384 372 375 -1 389 392 393 -1 392 389 388 -1 394 372 371 -1 372 394 386 -1 389 300 395 -1 300 389 388 -1 301 393 396 -1 393 301 392 -1 375 397 373 -1 397 375 384 -1 395 393 389 -1 393 395 396 -1 376 382 383 -1 382 376 396 -1 396 376 397 -1 396 397 301 -1 397 376 373 -1 300 394 395 -1 382 395 368 -1 395 382 396 -1 368 395 394 -1 368 394 371 -1 398 399 400 -1 399 398 401 -1 402 403 404 -1 403 402 405 -1 406 398 407 -1 398 406 401 -1 401 406 408 -1 405 409 403 -1 409 405 410 -1 411 404 412 -1 404 411 402 -1 413 414 415 -1 414 413 416 -1 411 368 408 -1 368 411 414 -1 368 414 416 -1 408 382 401 -1 382 408 368 -1 401 382 399 -1 399 417 400 -1 417 399 382 -1 417 368 418 -1 368 417 382 -1 419 409 420 -1 409 419 403 -1 419 421 422 -1 421 419 423 -1 421 423 424 -1 421 424 425 -1 422 403 419 -1 403 422 404 -1 368 413 418 -1 413 368 416 -1 422 406 407 -1 406 422 421 -1 406 421 425 -1 406 425 408 -1 402 424 405 -1 424 402 425 -1 411 425 402 -1 425 411 408 -1 420 423 419 -1 423 420 426 -1 423 426 424 -1 407 417 412 -1 417 407 398 -1 417 398 400 -1 412 418 415 -1 418 412 417 -1 415 418 413 -1 426 409 410 -1 409 426 420 -1 407 404 422 -1 404 407 412 -1 414 412 415 -1 412 414 411 -1 405 426 410 -1 426 405 424 -1 427 428 429 -1 428 427 430 -1 428 430 431 -1 432 433 315 -1 433 432 434 -1 435 436 437 -1 436 435 438 -1 439 440 441 -1 440 439 442 -1 443 444 445 -1 444 443 446 -1 447 437 448 -1 437 447 435 -1 449 435 450 -1 435 449 438 -1 444 428 431 -1 428 444 451 -1 452 453 454 -1 453 452 455 -1 456 457 458 -1 457 456 459 -1 460 461 452 -1 461 460 353 -1 462 463 464 -1 463 462 465 -1 444 430 445 -1 430 444 431 -1 434 357 433 -1 357 434 466 -1 467 446 443 -1 446 467 468 -1 352 357 356 -1 357 352 315 -1 357 315 433 -1 469 440 470 -1 440 469 441 -1 471 472 473 -1 472 471 474 -1 455 475 476 -1 475 455 477 -1 478 455 476 -1 455 478 453 -1 449 470 438 -1 470 449 469 -1 450 447 479 -1 447 450 435 -1 434 448 466 -1 448 434 447 -1 478 468 467 -1 468 478 476 -1 439 480 442 -1 480 439 465 -1 465 439 463 -1 481 462 464 -1 462 481 482 -1 483 474 471 -1 474 483 484 -1 485 484 483 -1 484 485 486 -1 440 487 470 -1 487 440 488 -1 452 477 455 -1 477 452 461 -1 479 434 432 -1 434 479 447 -1 446 489 490 -1 489 446 468 -1 473 459 456 -1 459 473 472 -1 470 436 438 -1 436 470 487 -1 482 486 485 -1 486 482 481 -1 446 451 444 -1 451 446 490 -1 429 489 491 -1 489 429 490 -1 490 429 451 -1 451 429 428 -1 458 473 456 -1 473 458 471 -1 471 458 492 -1 471 492 483 -1 483 492 493 -1 483 493 485 -1 485 493 494 -1 485 494 354 -1 354 494 475 -1 354 475 477 -1 354 477 461 -1 354 461 355 -1 475 494 491 -1 475 491 489 -1 355 461 353 -1 485 358 482 -1 358 485 354 -1 482 358 437 -1 437 358 448 -1 448 358 466 -1 466 358 356 -1 482 437 462 -1 466 356 357 -1 462 436 465 -1 436 462 437 -1 465 436 487 -1 465 487 488 -1 465 488 480 -1 468 475 489 -1 475 468 476 -1 442 488 440 -1 488 442 480 -1 460 454 342 -1 454 460 452 -1 429 495 427 -1 495 429 491 -1 493 496 494 -1 496 493 497 -1 491 496 495 -1 496 491 494 -1 463 449 464 -1 449 463 469 -1 469 463 441 -1 441 463 439 -1 474 459 472 -1 459 474 457 -1 457 474 484 -1 457 484 498 -1 498 484 486 -1 498 486 497 -1 497 486 481 -1 497 481 349 -1 349 481 450 -1 349 450 479 -1 349 479 432 -1 349 432 352 -1 450 481 464 -1 450 464 449 -1 352 432 315 -1 497 350 496 -1 350 497 349 -1 496 350 478 -1 478 350 453 -1 453 350 454 -1 454 350 351 -1 496 478 495 -1 454 351 342 -1 495 467 427 -1 467 495 478 -1 427 467 443 -1 427 443 445 -1 427 445 430 -1 342 353 460 -1 353 342 355 -1 355 342 351 -1 458 498 492 -1 498 458 457 -1 350 358 354 -1 358 350 349 -1 492 497 493 -1 497 492 498 -1 350 355 351 -1 355 350 354 -1 499 500 501 -1 500 499 502 -1 503 504 505 -1 504 503 506 -1 507 499 508 -1 499 507 502 -1 502 507 509 -1 506 510 504 -1 510 506 511 -1 512 505 513 -1 505 512 503 -1 514 515 516 -1 515 514 517 -1 512 518 509 -1 518 512 515 -1 518 515 517 -1 509 519 502 -1 519 509 518 -1 502 519 500 -1 500 383 501 -1 383 500 519 -1 383 518 376 -1 518 383 519 -1 520 510 521 -1 510 520 504 -1 520 522 523 -1 522 520 524 -1 522 524 525 -1 522 525 526 -1 523 504 520 -1 504 523 505 -1 518 514 376 -1 514 518 517 -1 523 507 508 -1 507 523 522 -1 507 522 526 -1 507 526 509 -1 503 525 506 -1 525 503 526 -1 512 526 503 -1 526 512 509 -1 521 524 520 -1 524 521 527 -1 524 527 525 -1 508 383 513 -1 383 508 499 -1 383 499 501 -1 513 376 516 -1 376 513 383 -1 516 376 514 -1 527 510 511 -1 510 527 521 -1 508 505 523 -1 505 508 513 -1 515 513 516 -1 513 515 512 -1 506 527 511 -1 527 506 525 -1 528 529 530 -1 529 528 531 -1 532 533 534 -1 533 532 535 -1 536 537 538 -1 537 536 539 -1 534 540 541 -1 540 534 533 -1 528 533 542 -1 533 528 540 -1 543 544 545 -1 544 543 546 -1 544 546 547 -1 545 548 536 -1 548 545 544 -1 536 548 539 -1 549 550 551 -1 538 545 536 -1 545 538 552 -1 552 538 553 -1 552 553 532 -1 532 553 550 -1 532 550 549 -1 554 555 556 -1 555 554 557 -1 543 558 542 -1 558 543 545 -1 555 550 556 -1 550 555 551 -1 559 539 548 -1 539 559 537 -1 535 546 543 -1 546 535 560 -1 538 559 553 -1 559 538 537 -1 532 554 535 -1 554 532 549 -1 554 549 557 -1 535 561 560 -1 561 535 554 -1 560 561 562 -1 553 556 550 -1 556 553 559 -1 556 561 554 -1 561 556 559 -1 561 559 548 -1 561 548 544 -1 551 557 549 -1 557 551 555 -1 563 529 564 -1 529 563 530 -1 562 544 547 -1 544 562 561 -1 530 540 528 -1 540 530 563 -1 547 560 562 -1 560 547 546 -1 541 563 564 -1 563 541 540 -1 565 529 531 -1 529 565 541 -1 529 541 564 -1 542 531 528 -1 531 542 558 -1 552 558 545 -1 558 552 566 -1 566 552 532 -1 566 532 534 -1 566 531 558 -1 531 566 565 -1 565 566 534 -1 565 534 541 -1 542 535 543 -1 535 542 533 -1 89 126 92 -1 92 126 124 -1 121 93 91 -1 121 91 120 -1 128 567 568 -1 567 128 130 -1 569 121 120 -1 121 569 570 -1 571 119 572 -1 119 571 93 -1 126 568 573 -1 568 126 128 -1 574 119 122 -1 119 574 572 -1 572 574 575 -1 89 567 130 -1 567 89 576 -1 577 567 576 -1 567 577 568 -1 578 579 580 -1 579 92 581 -1 92 579 91 -1 91 579 120 -1 120 579 569 -1 569 579 578 -1 582 583 584 -1 583 582 581 -1 583 581 124 -1 124 581 92 -1 569 585 586 -1 585 569 578 -1 585 578 587 -1 586 588 589 -1 588 586 585 -1 589 588 590 -1 591 346 344 -1 346 592 347 -1 592 346 593 -1 593 346 591 -1 594 590 595 -1 590 594 589 -1 596 597 583 -1 597 596 598 -1 597 598 599 -1 583 600 584 -1 600 583 597 -1 584 600 601 -1 590 345 595 -1 591 597 599 -1 597 591 344 -1 597 344 588 -1 588 344 345 -1 588 345 590 -1 602 601 316 -1 600 316 601 -1 316 600 585 -1 316 585 333 -1 333 585 603 -1 603 585 587 -1 582 314 581 -1 314 582 312 -1 312 582 316 -1 316 582 602 -1 592 348 347 -1 348 592 604 -1 598 591 599 -1 591 598 593 -1 570 605 575 -1 605 570 606 -1 569 606 570 -1 606 569 586 -1 570 122 121 -1 122 570 574 -1 574 570 575 -1 601 582 584 -1 582 601 602 -1 346 345 344 -1 345 346 343 -1 594 348 604 -1 348 594 343 -1 343 594 345 -1 345 594 595 -1 348 346 347 -1 346 348 343 -1 607 586 596 -1 586 607 606 -1 596 573 607 -1 573 596 583 -1 597 585 600 -1 585 597 588 -1 575 571 572 -1 571 575 605 -1 577 606 607 -1 606 577 605 -1 603 578 580 -1 578 603 587 -1 596 592 598 -1 592 596 586 -1 592 586 604 -1 604 586 594 -1 594 586 589 -1 593 598 592 -1 576 605 577 -1 605 576 89 -1 605 89 93 -1 605 93 571 -1 124 573 583 -1 573 124 126 -1 607 568 577 -1 568 607 573 -1 603 332 333 -1 332 579 331 -1 579 332 580 -1 580 332 603 -1 332 314 312 -1 314 332 331 -1 316 332 312 -1 332 316 333 -1 314 579 581 -1 579 314 331 -1 608 609 610 -1 610 611 608 -1 612 613 614 -1 614 615 612 -1 610 609 612 -1 612 615 610 -1 616 611 610 -1 610 615 616 -1 615 614 616 -1 614 617 616 -1 618 617 614 -1 619 620 621 -1 621 613 619 -1 621 622 613 -1 622 614 613 -1 622 618 614 -1 623 624 625 -1 625 626 623 -1 625 627 626 -1 627 628 626 -1 628 629 626 -1 630 625 624 -1 624 631 632 -1 632 630 624 -1 619 613 612 -1 612 609 608 -1 608 633 612 -1 633 619 612 -1 634 635 636 -1 636 637 634 -1 638 620 619 -1 619 633 638 -1 639 640 641 -1 641 642 639 -1 640 643 644 -1 644 641 640 -1 645 646 647 -1 647 648 645 -1 647 644 648 -1 647 641 644 -1 645 649 650 -1 650 651 645 -1 646 645 651 -1 651 652 646 -1 646 653 654 -1 654 647 646 -1 654 641 647 -1 654 642 641 -1 643 651 650 -1 650 655 643 -1 656 657 636 -1 632 631 658 -1 658 635 632 -1 658 639 635 -1 639 636 635 -1 639 656 636 -1 616 617 618 -1 618 659 616 -1 640 652 651 -1 651 643 640 -1 643 655 660 -1 660 644 643 -1 621 623 626 -1 626 622 621 -1 653 646 652 -1 652 658 653 -1 660 655 650 -1 650 649 660 -1 639 658 652 -1 652 640 639 -1 628 657 656 -1 656 629 628 -1 653 658 621 -1 621 638 653 -1 621 620 638 -1 658 631 623 -1 623 621 658 -1 631 624 623 -1 653 638 608 -1 608 654 653 -1 608 611 654 -1 611 616 654 -1 616 659 654 -1 659 642 654 -1 633 608 638 -1 639 642 626 -1 626 656 639 -1 626 629 656 -1 642 659 622 -1 622 626 642 -1 659 618 622 -1 649 645 648 -1 648 660 649 -1 648 644 660 -1 632 635 634 -1 634 661 632 -1 661 625 632 -1 625 630 632 -1 662 661 634 -1 634 637 662 -1 628 627 662 -1 662 637 636 -1 636 657 662 -1 657 628 662 -1 625 661 662 -1 662 627 625 -1 663 664 665 -1 664 663 666 -1 666 667 668 -1 667 663 669 -1 663 667 666 -1 669 665 663 -1 665 102 670 -1 102 665 669 -1 671 666 664 -1 666 671 668 -1 668 671 103 -1 102 668 103 -1 668 102 669 -1 668 669 667 -1 103 670 102 -1 670 103 671 -1 664 670 671 -1 670 664 665 -1 672 673 674 -1 673 672 675 -1 676 677 678 -1 677 676 679 -1 680 681 682 -1 681 680 683 -1 684 678 6 -1 678 684 681 -1 678 681 674 -1 674 681 672 -1 672 681 683 -1 677 6 678 -1 6 685 684 -1 685 6 686 -1 686 677 679 -1 677 686 6 -1 675 683 680 -1 683 675 672 -1 681 685 682 -1 685 681 684 -1 679 685 686 -1 685 679 676 -1 680 673 675 -1 673 680 682 -1 676 682 685 -1 682 676 673 -1 678 673 676 -1 673 678 674 -1 687 688 689 -1 689 690 687 -1 690 691 692 -1 692 687 690 -1 687 692 693 -1 693 694 687 -1 693 695 694 -1 696 697 698 -1 698 688 696 -1 688 699 696 -1 699 700 696 -1 689 688 698 -1 698 697 692 -1 692 691 698 -1 691 690 689 -1 689 698 691 -1 696 693 692 -1 692 697 696 -1 694 699 688 -1 688 687 694 -1 695 700 699 -1 699 694 695 -1 693 696 700 -1 700 695 693 -1 701 702 703 -1 702 701 704 -1 705 706 707 -1 706 705 708 -1 709 710 711 -1 710 709 712 -1 713 714 715 -1 714 713 716 -1 709 705 712 -1 705 709 708 -1 708 709 701 -1 708 701 715 -1 715 701 703 -1 715 703 713 -1 715 706 708 -1 706 715 714 -1 712 707 710 -1 707 712 705 -1 709 704 701 -1 704 709 711 -1 717 718 719 -1 718 717 720 -1 721 722 723 -1 722 721 724 -1 722 724 725 -1 725 724 718 -1 725 718 726 -1 726 718 720 -1 723 727 728 -1 727 723 722 -1 729 730 731 -1 730 729 732 -1 730 733 731 -1 733 730 734 -1 734 730 735 -1 735 730 736 -1 737 738 739 -1 738 737 740 -1 740 737 741 -1 740 741 742 -1 742 741 743 -1 742 743 744 -1 744 743 745 -1 744 745 746 -1 744 746 747 -1 745 743 748 -1 748 743 731 -1 748 731 733 -1 747 746 749 -1 742 750 751 -1 750 742 744 -1 751 750 752 -1 752 750 753 -1 753 750 717 -1 751 752 754 -1 751 754 755 -1 753 717 719 -1 755 756 723 -1 756 755 754 -1 723 756 757 -1 723 757 758 -1 723 758 721 -1 728 755 723 -1 755 728 759 -1 760 738 761 -1 738 760 739 -1 762 721 758 -1 721 762 724 -1 746 763 749 -1 763 746 764 -1 750 765 766 -1 765 750 744 -1 767 768 769 -1 768 767 770 -1 771 758 757 -1 758 771 762 -1 772 773 774 -1 773 772 771 -1 771 772 775 -1 771 775 762 -1 762 775 718 -1 762 718 724 -1 776 731 743 -1 731 776 729 -1 777 778 779 -1 778 777 780 -1 769 781 782 -1 781 769 768 -1 783 739 760 -1 739 783 737 -1 745 764 746 -1 764 745 784 -1 718 753 719 -1 753 718 775 -1 756 771 757 -1 771 756 773 -1 750 720 717 -1 720 750 766 -1 785 744 747 -1 744 785 765 -1 786 737 783 -1 737 786 741 -1 754 773 756 -1 773 754 774 -1 787 767 788 -1 767 787 770 -1 752 774 754 -1 774 752 772 -1 733 789 790 -1 789 733 734 -1 735 789 734 -1 789 735 791 -1 789 792 790 -1 792 789 784 -1 784 789 791 -1 784 791 764 -1 764 791 793 -1 764 793 763 -1 745 792 784 -1 792 745 748 -1 779 769 782 -1 769 779 767 -1 767 779 778 -1 767 778 788 -1 788 778 722 -1 788 722 725 -1 726 788 725 -1 788 726 787 -1 782 777 779 -1 777 782 781 -1 748 790 792 -1 790 748 733 -1 736 791 735 -1 791 736 793 -1 776 741 786 -1 741 776 743 -1 780 722 778 -1 722 780 727 -1 775 752 753 -1 752 775 772 -1 794 751 795 -1 751 794 742 -1 728 781 759 -1 781 728 777 -1 777 728 780 -1 780 728 727 -1 796 760 761 -1 760 796 783 -1 783 796 794 -1 783 794 786 -1 786 794 795 -1 786 795 766 -1 766 795 770 -1 766 770 787 -1 766 787 720 -1 770 795 768 -1 768 795 759 -1 768 759 781 -1 720 787 726 -1 786 765 776 -1 765 786 766 -1 776 765 711 -1 711 765 704 -1 704 765 785 -1 776 711 710 -1 776 710 729 -1 704 785 702 -1 729 707 732 -1 707 729 710 -1 732 707 706 -1 732 706 714 -1 732 714 716 -1 755 795 751 -1 795 755 759 -1 747 702 785 -1 702 747 703 -1 703 747 749 -1 703 749 763 -1 763 713 703 -1 713 763 793 -1 713 732 716 -1 732 713 793 -1 732 793 736 -1 732 736 730 -1 796 742 794 -1 742 796 740 -1 761 740 796 -1 740 761 738 -1 797 798 799 -1 798 797 800 -1 800 801 802 -1 801 800 797 -1 797 803 801 -1 803 797 804 -1 803 804 805 -1 806 807 808 -1 807 806 799 -1 799 806 809 -1 809 806 810 -1 798 807 799 -1 807 801 808 -1 801 807 802 -1 802 798 800 -1 798 802 807 -1 806 801 803 -1 801 806 808 -1 804 799 809 -1 799 804 797 -1 805 809 810 -1 809 805 804 -1 803 810 806 -1 810 803 805 -1 811 812 813 -1 812 811 814 -1 815 816 817 -1 816 815 818 -1 819 811 820 -1 811 819 814 -1 814 819 821 -1 818 822 816 -1 822 818 823 -1 824 817 825 -1 817 824 815 -1 826 827 828 -1 827 826 829 -1 824 830 821 -1 830 824 827 -1 830 827 829 -1 821 831 814 -1 831 821 830 -1 814 831 812 -1 812 832 813 -1 832 812 831 -1 832 830 833 -1 830 832 831 -1 834 822 835 -1 822 834 816 -1 834 836 837 -1 836 834 838 -1 836 838 839 -1 836 839 840 -1 837 816 834 -1 816 837 817 -1 830 826 833 -1 826 830 829 -1 837 819 820 -1 819 837 836 -1 819 836 840 -1 819 840 821 -1 815 839 818 -1 839 815 840 -1 824 840 815 -1 840 824 821 -1 835 838 834 -1 838 835 841 -1 838 841 839 -1 820 832 825 -1 832 820 811 -1 832 811 813 -1 825 833 828 -1 833 825 832 -1 828 833 826 -1 841 822 823 -1 822 841 835 -1 820 817 837 -1 817 820 825 -1 827 825 828 -1 825 827 824 -1 818 841 823 -1 841 818 839 -1 842 843 844 -1 843 842 845 -1 842 846 845 -1 846 842 847 -1 847 842 848 -1 848 842 719 -1 719 842 849 -1 849 842 850 -1 785 851 852 -1 851 785 702 -1 853 852 851 -1 852 853 854 -1 785 765 702 -1 726 766 720 -1 855 765 856 -1 765 855 702 -1 856 765 766 -1 856 766 726 -1 846 843 845 -1 843 846 857 -1 844 850 842 -1 850 844 858 -1 858 844 859 -1 858 859 860 -1 858 860 861 -1 861 860 854 -1 861 862 863 -1 862 861 854 -1 864 854 853 -1 854 864 865 -1 854 865 862 -1 865 864 866 -1 866 867 865 -1 867 866 868 -1 749 869 870 -1 859 749 871 -1 857 844 843 -1 844 857 869 -1 844 869 749 -1 844 749 859 -1 726 872 873 -1 872 726 720 -1 863 872 861 -1 872 863 873 -1 849 717 719 -1 717 849 874 -1 874 850 858 -1 850 874 849 -1 870 744 749 -1 744 870 848 -1 744 848 750 -1 750 848 719 -1 719 717 750 -1 747 749 744 -1 875 749 747 -1 749 875 871 -1 875 859 871 -1 859 875 860 -1 847 870 869 -1 870 847 848 -1 876 855 856 -1 855 876 877 -1 744 785 875 -1 875 785 852 -1 875 852 860 -1 860 852 854 -1 747 744 875 -1 878 879 880 -1 879 878 881 -1 882 868 883 -1 868 882 867 -1 884 885 886 -1 885 884 887 -1 878 888 889 -1 888 878 880 -1 888 880 890 -1 888 890 891 -1 879 892 893 -1 892 879 881 -1 894 895 896 -1 895 894 897 -1 884 897 894 -1 897 884 886 -1 896 898 899 -1 898 896 895 -1 899 900 901 -1 900 899 898 -1 891 902 885 -1 902 891 903 -1 903 891 904 -1 904 891 890 -1 895 900 898 -1 900 895 877 -1 877 895 897 -1 877 897 886 -1 877 886 855 -1 855 886 905 -1 855 905 906 -1 855 906 907 -1 855 907 702 -1 905 886 885 -1 905 885 902 -1 702 907 908 -1 702 908 851 -1 851 908 853 -1 853 908 909 -1 853 909 910 -1 853 910 911 -1 853 911 864 -1 893 882 883 -1 882 893 892 -1 887 891 885 -1 891 887 888 -1 901 896 899 -1 896 901 876 -1 896 876 894 -1 894 876 884 -1 863 726 873 -1 726 863 912 -1 912 863 913 -1 913 863 914 -1 914 863 862 -1 726 876 856 -1 876 726 915 -1 876 915 916 -1 876 916 917 -1 876 917 884 -1 884 917 887 -1 915 726 918 -1 918 726 912 -1 887 919 888 -1 919 887 917 -1 888 919 920 -1 888 920 921 -1 888 921 889 -1 922 918 923 -1 918 922 915 -1 924 915 922 -1 915 924 916 -1 924 917 916 -1 917 924 925 -1 925 919 917 -1 919 925 926 -1 926 920 919 -1 920 926 927 -1 928 920 927 -1 920 928 921 -1 878 921 928 -1 921 878 889 -1 929 914 930 -1 914 929 913 -1 717 766 750 -1 766 717 872 -1 872 717 874 -1 872 874 861 -1 861 874 858 -1 720 766 872 -1 890 931 904 -1 931 890 880 -1 902 932 933 -1 932 902 903 -1 906 934 907 -1 934 906 935 -1 936 864 911 -1 864 936 866 -1 907 937 908 -1 937 907 934 -1 909 938 910 -1 938 909 939 -1 906 940 935 -1 940 906 905 -1 905 933 940 -1 933 905 902 -1 910 936 911 -1 936 910 938 -1 918 941 923 -1 941 918 912 -1 941 913 929 -1 913 941 912 -1 857 847 869 -1 847 857 846 -1 876 900 877 -1 900 876 901 -1 932 940 933 -1 940 932 935 -1 935 932 931 -1 935 931 934 -1 934 931 880 -1 934 880 937 -1 937 880 939 -1 939 880 879 -1 939 879 938 -1 938 879 893 -1 938 893 883 -1 938 883 936 -1 936 883 866 -1 866 883 868 -1 937 909 908 -1 909 937 939 -1 904 932 903 -1 932 904 931 -1 914 865 930 -1 865 914 862 -1 924 926 925 -1 926 924 927 -1 927 924 922 -1 927 922 928 -1 928 922 923 -1 928 923 878 -1 878 923 941 -1 878 941 881 -1 881 941 929 -1 881 929 892 -1 892 929 930 -1 892 930 882 -1 882 930 865 -1 882 865 867 -1 942 943 944 -1 943 942 945 -1 946 844 947 -1 844 946 842 -1 948 949 950 -1 949 948 951 -1 952 953 954 -1 953 952 955 -1 948 956 951 -1 956 948 957 -1 951 954 953 -1 954 951 956 -1 946 958 842 -1 958 946 959 -1 959 946 950 -1 950 946 948 -1 948 946 957 -1 960 961 962 -1 961 960 963 -1 964 961 965 -1 961 964 962 -1 966 967 968 -1 967 966 969 -1 964 966 962 -1 966 964 969 -1 967 970 968 -1 971 844 972 -1 844 971 947 -1 947 971 970 -1 947 970 967 -1 949 973 974 -1 973 949 951 -1 973 951 953 -1 975 973 953 -1 972 976 971 -1 976 972 958 -1 976 958 974 -1 974 958 959 -1 955 975 953 -1 975 955 977 -1 978 945 942 -1 945 978 979 -1 980 943 981 -1 943 980 944 -1 975 982 973 -1 982 975 977 -1 974 983 976 -1 983 974 973 -1 983 981 984 -1 981 983 980 -1 980 983 973 -1 980 973 982 -1 958 844 842 -1 844 958 972 -1 985 986 987 -1 986 985 988 -1 988 989 986 -1 989 988 990 -1 991 992 993 -1 992 991 994 -1 992 995 993 -1 995 992 996 -1 997 994 991 -1 994 997 998 -1 999 1000 1001 -1 1000 999 1002 -1 960 997 963 -1 997 960 998 -1 1000 1003 1001 -1 1003 1000 1004 -1 989 1005 1006 -1 1005 989 990 -1 1006 1002 999 -1 1002 1006 1005 -1 1004 963 1003 -1 963 1004 960 -1 990 1002 1005 -1 1002 990 1000 -1 1000 990 988 -1 1000 988 1004 -1 1004 988 985 -1 1004 985 960 -1 960 985 1007 -1 960 1007 998 -1 998 1007 1008 -1 998 1008 994 -1 994 1008 1009 -1 994 1009 992 -1 992 1009 1010 -1 992 1010 996 -1 1011 1012 1013 -1 1012 1011 1014 -1 978 1015 979 -1 1015 978 1016 -1 1016 1017 1015 -1 1017 1016 1018 -1 1018 1013 1017 -1 1013 1018 1011 -1 1012 1019 1020 -1 1019 1012 1014 -1 1021 1022 1023 -1 1022 1021 1024 -1 1024 1021 1025 -1 1024 1025 1026 -1 1026 1025 975 -1 1026 975 1027 -1 1027 975 1028 -1 1027 1028 1029 -1 1029 1028 1030 -1 1029 1030 1031 -1 1031 1030 1032 -1 1031 1032 1033 -1 1033 1032 1034 -1 1033 1034 1035 -1 1024 1036 1022 -1 1036 1024 1037 -1 1022 1038 1023 -1 1038 1022 1036 -1 1023 1039 1021 -1 1039 1023 1038 -1 977 1028 975 -1 1028 977 1040 -1 1020 985 987 -1 985 1020 1041 -1 1041 1020 1019 -1 985 1042 1027 -1 1042 985 1041 -1 1027 1007 985 -1 1007 1027 1029 -1 1007 1031 1008 -1 1031 1007 1029 -1 1008 1033 1009 -1 1033 1008 1031 -1 1033 1010 1009 -1 1010 1033 1035 -1 1028 1043 1030 -1 1043 1028 1040 -1 1044 975 1025 -1 975 1044 977 -1 1020 1006 1012 -1 1006 1020 989 -1 989 1020 986 -1 986 1020 987 -1 963 965 961 -1 965 963 997 -1 965 997 991 -1 965 991 993 -1 965 993 995 -1 1015 945 979 -1 945 1015 943 -1 943 1015 981 -1 981 1015 984 -1 984 1015 1017 -1 984 1017 1013 -1 984 1013 999 -1 984 999 1001 -1 984 1001 1003 -1 984 1003 963 -1 999 1013 1012 -1 999 1012 1006 -1 1042 1026 1027 -1 1026 1042 1045 -1 1045 1024 1026 -1 1024 1045 1037 -1 1039 1025 1021 -1 1025 1039 1044 -1 1030 1046 1032 -1 1046 1030 1043 -1 1046 1034 1032 -1 1034 1046 1047 -1 947 957 946 -1 957 947 956 -1 967 956 947 -1 956 967 969 -1 995 1034 965 -1 1034 995 996 -1 1034 996 1035 -1 1035 996 1010 -1 969 954 956 -1 954 969 964 -1 954 964 952 -1 952 964 1047 -1 1047 964 965 -1 1047 965 1034 -1 980 942 944 -1 952 977 955 -1 977 952 1040 -1 1040 952 1043 -1 1043 952 1046 -1 1046 952 1047 -1 942 1016 978 -1 1016 942 980 -1 1016 980 982 -1 1016 982 1018 -1 1018 982 1011 -1 1011 982 1038 -1 1038 982 1039 -1 1039 982 1044 -1 1044 982 977 -1 1011 1038 1014 -1 1042 1041 1045 -1 1014 1036 1019 -1 1036 1014 1038 -1 1019 1036 1037 -1 1019 1037 1045 -1 1019 1045 1041 -1 960 976 983 -1 976 960 962 -1 976 962 1048 -1 966 1048 962 -1 966 970 1048 -1 970 966 968 -1 960 984 963 -1 984 960 983 -1 971 1048 970 -1 1048 971 976 -1 959 949 974 -1 949 959 950 -1 1049 1050 1051 -1 1050 1049 1052 -1 663 671 670 -1 671 663 666 -1 670 946 947 -1 946 670 671 -1 663 105 666 -1 105 663 1053 -1 131 1053 663 -1 1053 131 1054 -1 1054 1055 1053 -1 1055 1054 1056 -1 1055 1056 110 -1 110 1056 1057 -1 1057 1056 141 -1 1057 141 1058 -1 1053 266 243 -1 266 1053 1055 -1 1056 241 269 -1 241 1056 1054 -1 671 1059 946 -1 1059 671 1060 -1 1061 1049 1051 -1 1049 1061 1062 -1 1049 1062 615 -1 615 1062 1063 -1 1063 1062 105 -1 105 1062 666 -1 666 1062 1060 -1 666 1060 671 -1 1063 614 615 -1 615 610 1049 -1 636 662 1064 -1 1064 662 1065 -1 1065 662 1066 -1 1066 662 1067 -1 110 662 627 -1 662 110 1068 -1 1068 110 1057 -1 1067 1068 1069 -1 1068 1067 662 -1 1070 1054 131 -1 1054 1070 241 -1 1063 1053 243 -1 1053 1063 105 -1 1071 1072 1073 -1 1072 1071 661 -1 661 1071 625 -1 625 1071 141 -1 141 1071 1058 -1 1074 634 635 -1 634 1074 661 -1 661 1074 1075 -1 661 1075 1076 -1 661 1076 1072 -1 1070 612 613 -1 612 1052 609 -1 1052 612 1050 -1 1050 612 1077 -1 1077 612 1078 -1 1078 612 1070 -1 1078 1070 131 -1 1078 131 663 -1 1078 663 1079 -1 1079 947 1080 -1 947 1079 670 -1 670 1079 663 -1 1056 625 141 -1 625 1056 269 -1 625 269 627 -1 627 269 266 -1 627 266 1055 -1 627 1055 110 -1 1081 1077 1078 -1 1077 1081 1082 -1 1077 1082 1061 -1 1061 1082 1083 -1 1061 1083 1084 -1 1061 1084 1062 -1 1062 1085 1060 -1 1085 1062 1084 -1 1085 1083 1086 -1 1083 1085 1084 -1 1080 1087 1079 -1 1087 1080 1088 -1 1088 1080 1059 -1 1088 1059 1086 -1 1086 1059 1085 -1 1085 1059 1060 -1 1081 1088 1082 -1 1088 1081 1087 -1 1081 1079 1087 -1 1079 1081 1078 -1 661 637 634 -1 637 661 662 -1 610 1052 1049 -1 1052 610 609 -1 614 1070 613 -1 1070 614 241 -1 241 614 243 -1 243 614 1063 -1 266 241 243 -1 241 266 269 -1 1051 1077 1061 -1 1077 1051 1050 -1 946 1080 947 -1 1080 946 1059 -1 1083 1088 1086 -1 1088 1083 1082 -1 1069 1071 1073 -1 1071 1069 1068 -1 636 1074 635 -1 1074 636 1064 -1 1066 1072 1076 -1 1072 1066 1067 -1 1065 1076 1075 -1 1076 1065 1066 -1 1071 1057 1058 -1 1057 1071 1068 -1 1067 1073 1072 -1 1073 1067 1069 -1 1064 1075 1074 -1 1075 1064 1065 -1 1089 1090 1091 -1 1090 1089 1092 -1 1093 1094 1095 -1 1094 1093 1096 -1 1097 1089 1098 -1 1089 1097 1092 -1 1092 1097 1099 -1 1096 1100 1094 -1 1100 1096 1101 -1 1102 1095 1103 -1 1095 1102 1093 -1 1104 1105 1106 -1 1105 1104 1107 -1 1102 1108 1099 -1 1108 1102 1105 -1 1108 1105 1107 -1 1099 1109 1092 -1 1109 1099 1108 -1 1092 1109 1090 -1 1090 1110 1091 -1 1110 1090 1109 -1 1110 1108 1111 -1 1108 1110 1109 -1 1112 1100 1113 -1 1100 1112 1094 -1 1112 1114 1115 -1 1114 1112 1116 -1 1114 1116 1117 -1 1114 1117 1118 -1 1115 1094 1112 -1 1094 1115 1095 -1 1108 1104 1111 -1 1104 1108 1107 -1 1115 1097 1098 -1 1097 1115 1114 -1 1097 1114 1118 -1 1097 1118 1099 -1 1093 1117 1096 -1 1117 1093 1118 -1 1102 1118 1093 -1 1118 1102 1099 -1 1113 1116 1112 -1 1116 1113 1119 -1 1116 1119 1117 -1 1098 1110 1103 -1 1110 1098 1089 -1 1110 1089 1091 -1 1103 1111 1106 -1 1111 1103 1110 -1 1106 1111 1104 -1 1119 1100 1101 -1 1100 1119 1113 -1 1098 1095 1115 -1 1095 1098 1103 -1 1105 1103 1106 -1 1103 1105 1102 -1 1096 1119 1101 -1 1119 1096 1117 -1 901 1120 1121 -1 1120 901 900 -1 1122 857 846 -1 857 1122 1123 -1 1124 1125 1126 -1 1125 1124 1127 -1 1126 856 1128 -1 856 1126 1125 -1 856 1125 855 -1 855 1125 1129 -1 1129 1125 1130 -1 1131 1128 856 -1 1132 870 1133 -1 1134 1124 1135 -1 1124 1134 848 -1 1124 848 1127 -1 1127 848 870 -1 1127 870 1132 -1 877 901 876 -1 901 877 900 -1 1136 1137 1138 -1 1137 1136 1139 -1 1138 1140 1141 -1 1140 1138 1137 -1 1142 1137 1139 -1 1137 1142 1143 -1 1143 1140 1137 -1 1140 1143 1144 -1 1144 1145 1140 -1 1145 1144 1146 -1 1144 1147 1146 -1 1147 1144 1148 -1 1142 1149 1143 -1 1149 1142 1150 -1 1143 1148 1144 -1 1148 1143 1149 -1 1151 1134 1135 -1 1134 1151 1152 -1 1141 1145 1153 -1 1145 1141 1140 -1 1154 857 1123 -1 857 1154 869 -1 869 1154 870 -1 870 1154 1133 -1 1134 847 848 -1 847 1122 846 -1 1122 847 1152 -1 1152 847 1134 -1 856 877 876 -1 877 856 855 -1 1155 901 1121 -1 901 1155 876 -1 876 1155 856 -1 856 1155 1131 -1 1129 877 855 -1 877 1120 900 -1 1120 877 1156 -1 1156 877 1129 -1 1142 1125 1150 -1 1125 1142 1157 -1 1125 1157 1130 -1 1150 1127 1158 -1 1127 1150 1125 -1 1158 1127 1132 -1 1141 1159 1138 -1 1159 1141 1160 -1 1159 1160 1148 -1 1159 1148 1149 -1 1147 1145 1146 -1 1145 1147 1153 -1 1138 1161 1136 -1 1161 1138 1159 -1 1161 1159 1149 -1 1161 1149 1150 -1 1153 1160 1141 -1 1160 1153 1147 -1 1160 1147 1148 -1 1136 1124 1139 -1 1124 1136 1151 -1 1124 1151 1135 -1 1139 1126 1162 -1 1126 1139 1124 -1 1162 1126 1128 -1 1157 1120 1156 -1 1155 1139 1162 -1 1139 1155 1121 -1 1139 1121 1142 -1 1142 1121 1120 -1 1142 1120 1157 -1 1161 1122 1136 -1 1122 1161 1123 -1 1123 1161 1154 -1 1154 1161 1158 -1 1158 1161 1150 -1 1136 1152 1151 -1 1152 1136 1122 -1 1129 1157 1156 -1 1157 1129 1130 -1 1154 1132 1133 -1 1132 1154 1158 -1 1128 1155 1162 -1 1155 1128 1131 -1 1163 1164 1165 -1 1164 1163 1166 -1 1167 1168 1169 -1 1168 1167 1170 -1 1171 1163 1172 -1 1163 1171 1166 -1 1166 1171 1173 -1 1170 1174 1168 -1 1174 1170 1175 -1 1176 1169 1177 -1 1169 1176 1167 -1 1178 1179 1180 -1 1179 1178 1181 -1 1176 682 1173 -1 682 1176 1179 -1 682 1179 1181 -1 1173 681 1166 -1 681 1173 682 -1 1166 681 1164 -1 1164 1182 1165 -1 1182 1164 681 -1 1182 682 1183 -1 682 1182 681 -1 1184 1174 1185 -1 1174 1184 1168 -1 1184 1186 1187 -1 1186 1184 1188 -1 1186 1188 1189 -1 1186 1189 1190 -1 1187 1168 1184 -1 1168 1187 1169 -1 682 1178 1183 -1 1178 682 1181 -1 1187 1171 1172 -1 1171 1187 1186 -1 1171 1186 1190 -1 1171 1190 1173 -1 1167 1189 1170 -1 1189 1167 1190 -1 1176 1190 1167 -1 1190 1176 1173 -1 1185 1188 1184 -1 1188 1185 1191 -1 1188 1191 1189 -1 1172 1182 1177 -1 1182 1172 1163 -1 1182 1163 1165 -1 1177 1183 1180 -1 1183 1177 1182 -1 1180 1183 1178 -1 1191 1174 1175 -1 1174 1191 1185 -1 1172 1169 1187 -1 1169 1172 1177 -1 1179 1177 1180 -1 1177 1179 1176 -1 1170 1191 1175 -1 1191 1170 1189 -1 1192 1193 1194 -1 1193 1192 1195 -1 1196 1197 1198 -1 1197 1196 1199 -1 1200 1192 1201 -1 1192 1200 1195 -1 1195 1200 1202 -1 1199 1203 1197 -1 1203 1199 1204 -1 1205 1198 1206 -1 1198 1205 1196 -1 1207 1208 1209 -1 1208 1207 1210 -1 1205 1211 1202 -1 1211 1205 1208 -1 1211 1208 1210 -1 1202 1212 1195 -1 1212 1202 1211 -1 1195 1212 1193 -1 1193 1213 1194 -1 1213 1193 1212 -1 1213 1211 1214 -1 1211 1213 1212 -1 1215 1203 1216 -1 1203 1215 1197 -1 1215 1217 1218 -1 1217 1215 1219 -1 1217 1219 1220 -1 1217 1220 1221 -1 1218 1197 1215 -1 1197 1218 1198 -1 1211 1207 1214 -1 1207 1211 1210 -1 1218 1200 1201 -1 1200 1218 1217 -1 1200 1217 1221 -1 1200 1221 1202 -1 1196 1220 1199 -1 1220 1196 1221 -1 1205 1221 1196 -1 1221 1205 1202 -1 1216 1219 1215 -1 1219 1216 1222 -1 1219 1222 1220 -1 1201 1213 1206 -1 1213 1201 1192 -1 1213 1192 1194 -1 1206 1214 1209 -1 1214 1206 1213 -1 1209 1214 1207 -1 1222 1203 1204 -1 1203 1222 1216 -1 1201 1198 1218 -1 1198 1201 1206 -1 1208 1206 1209 -1 1206 1208 1205 -1 1199 1222 1204 -1 1222 1199 1220 -1 1223 1224 1225 -1 1225 1226 1223 -1 1226 1227 1228 -1 1228 1223 1226 -1 1223 1228 1229 -1 1229 1230 1223 -1 1229 1231 1230 -1 1232 1233 1234 -1 1234 1224 1232 -1 1224 1235 1232 -1 1235 1236 1232 -1 1225 1224 1234 -1 1234 1233 1228 -1 1228 1227 1234 -1 1227 1226 1225 -1 1225 1234 1227 -1 1232 1229 1228 -1 1228 1233 1232 -1 1230 1235 1224 -1 1224 1223 1230 -1 1231 1236 1235 -1 1235 1230 1231 -1 1229 1232 1236 -1 1236 1231 1229 -1 1237 1238 1239 -1 1238 1237 1240 -1 1240 951 956 -1 951 1240 1237 -1 1237 1241 951 -1 1241 1237 1242 -1 1241 1242 1243 -1 1244 954 953 -1 954 1244 1239 -1 1239 1244 1245 -1 1245 1244 1246 -1 1238 954 1239 -1 956 1238 1240 -1 1238 956 954 -1 1244 951 1241 -1 951 1244 953 -1 1242 1239 1245 -1 1239 1242 1237 -1 1243 1245 1246 -1 1245 1243 1242 -1 1241 1246 1244 -1 1246 1241 1243 -1 1247 1248 1249 -1 1248 1247 1250 -1 1248 1251 1252 -1 1251 1248 1250 -1 1253 1254 1255 -1 1254 1253 1256 -1 1257 1258 1259 -1 1258 1257 1260 -1 1261 1262 1263 -1 1262 1261 1264 -1 1262 1264 1265 -1 1265 1264 1258 -1 1265 1258 1266 -1 1266 1258 1260 -1 1263 1267 1268 -1 1267 1263 1262 -1 1256 1251 1254 -1 1251 1256 1252 -1 1269 1256 1270 -1 1256 1269 1252 -1 1252 1269 1248 -1 1248 1269 1249 -1 1271 1272 1273 -1 1272 1271 1274 -1 1274 1271 1275 -1 1274 1275 1276 -1 1276 1275 1277 -1 1276 1277 976 -1 976 1277 1253 -1 976 1253 1278 -1 976 1278 1279 -1 976 1279 1048 -1 1253 1277 1270 -1 1253 1270 1256 -1 1048 1279 970 -1 1276 1280 1281 -1 1280 1276 976 -1 1281 1280 1282 -1 1282 1280 1283 -1 1283 1280 1284 -1 1284 1280 1257 -1 1281 1282 1285 -1 1284 1257 1259 -1 1285 1286 1263 -1 1286 1285 1282 -1 1263 1286 1287 -1 1263 1287 1288 -1 1263 1288 1261 -1 1289 1274 1290 -1 1274 1289 1272 -1 1280 1291 1292 -1 1291 1280 976 -1 1292 1257 1280 -1 1257 1292 1260 -1 1268 1293 1294 -1 1293 1268 1295 -1 1295 1268 1296 -1 1296 1268 1267 -1 1290 1297 1289 -1 1297 1290 1298 -1 1298 1290 1299 -1 1298 1299 1300 -1 1300 1299 1301 -1 1300 1301 1292 -1 1292 1301 1302 -1 1292 1302 1303 -1 1292 1303 1304 -1 1292 1304 1260 -1 1302 1301 1294 -1 1302 1294 1293 -1 1260 1304 1266 -1 1300 1291 1305 -1 1291 1300 1292 -1 1305 1291 1306 -1 1306 1291 1307 -1 1307 1291 1308 -1 1308 1291 1309 -1 1305 1306 1310 -1 1308 1309 1311 -1 1310 1312 1313 -1 1312 1310 1306 -1 1313 1312 1314 -1 1313 1314 1315 -1 1313 1315 1316 -1 1048 1311 1309 -1 1311 1048 1317 -1 1317 1048 970 -1 1317 970 1318 -1 1318 1319 1317 -1 1319 1318 1247 -1 1319 1313 1316 -1 1313 1319 1247 -1 1313 1247 1249 -1 1313 1249 1269 -1 1309 976 1048 -1 976 1309 1291 -1 1281 1299 1276 -1 1299 1281 1301 -1 1290 1276 1299 -1 1276 1290 1274 -1 1283 1320 1282 -1 1320 1283 1321 -1 1322 1283 1284 -1 1283 1322 1321 -1 1323 1324 1325 -1 1324 1323 1326 -1 1326 1323 1327 -1 1326 1327 1328 -1 1328 1327 1262 -1 1328 1262 1265 -1 1258 1284 1259 -1 1284 1258 1322 -1 1282 1329 1286 -1 1329 1282 1320 -1 1285 1301 1281 -1 1301 1285 1294 -1 1310 1269 1270 -1 1269 1310 1313 -1 1297 1272 1289 -1 1272 1297 1273 -1 1268 1285 1263 -1 1285 1268 1294 -1 1300 1271 1298 -1 1271 1300 1275 -1 1298 1273 1297 -1 1273 1298 1271 -1 1305 1270 1277 -1 1270 1305 1310 -1 1300 1277 1275 -1 1277 1300 1305 -1 1324 1293 1325 -1 1293 1324 1302 -1 1266 1328 1265 -1 1328 1266 1304 -1 1304 1326 1328 -1 1326 1304 1303 -1 1325 1295 1323 -1 1295 1325 1293 -1 1326 1302 1324 -1 1302 1326 1303 -1 1295 1327 1323 -1 1327 1295 1296 -1 1327 1267 1262 -1 1267 1327 1296 -1 1316 1330 1319 -1 1330 1316 1315 -1 1330 1314 1331 -1 1314 1330 1315 -1 1332 1333 1334 -1 1333 1332 1331 -1 1331 1332 1335 -1 1331 1335 1330 -1 1330 1335 1317 -1 1330 1317 1319 -1 1333 1314 1312 -1 1314 1333 1331 -1 1332 1306 1307 -1 1306 1332 1334 -1 1278 1336 1279 -1 1336 1278 1337 -1 1335 1311 1317 -1 1311 1335 1308 -1 1334 1312 1306 -1 1312 1334 1333 -1 1279 1318 970 -1 1318 1279 1336 -1 1278 1255 1337 -1 1255 1278 1253 -1 1332 1308 1335 -1 1308 1332 1307 -1 1251 1255 1254 -1 1255 1251 1337 -1 1337 1251 1250 -1 1337 1250 1336 -1 1336 1250 1247 -1 1336 1247 1318 -1 1321 1329 1320 -1 1329 1321 1338 -1 1338 1321 1322 -1 1338 1322 1339 -1 1339 1322 1258 -1 1339 1258 1264 -1 1288 1264 1261 -1 1264 1288 1339 -1 1338 1288 1287 -1 1288 1338 1339 -1 1286 1338 1287 -1 1338 1286 1329 -1 1340 1341 1342 -1 1342 1343 1340 -1 1344 1345 1346 -1 1346 1347 1344 -1 1348 1349 1340 -1 1340 1343 1348 -1 1350 1351 1352 -1 1352 1353 1350 -1 1351 1354 1355 -1 1355 1352 1351 -1 1356 1357 1358 -1 1358 1359 1356 -1 1358 1355 1359 -1 1358 1352 1355 -1 1356 1360 1361 -1 1361 1362 1356 -1 1357 1356 1362 -1 1362 1363 1357 -1 1357 1364 1365 -1 1365 1358 1357 -1 1365 1352 1358 -1 1365 1353 1352 -1 1354 1362 1361 -1 1361 1366 1354 -1 1367 1347 1346 -1 1340 1349 1368 -1 1368 1341 1340 -1 1368 1350 1341 -1 1350 1346 1341 -1 1350 1367 1346 -1 1344 1347 1367 -1 1367 1369 1344 -1 1351 1363 1362 -1 1362 1354 1351 -1 1354 1366 1370 -1 1370 1355 1354 -1 1342 1341 1346 -1 1346 1345 1342 -1 1364 1357 1363 -1 1363 1368 1364 -1 1370 1366 1361 -1 1361 1360 1370 -1 1350 1368 1363 -1 1363 1351 1350 -1 1348 1364 1368 -1 1368 1349 1348 -1 1364 1348 1342 -1 1342 1365 1364 -1 1342 1345 1365 -1 1345 1344 1365 -1 1344 1369 1365 -1 1369 1353 1365 -1 1343 1342 1348 -1 1367 1350 1353 -1 1353 1369 1367 -1 1360 1356 1359 -1 1359 1370 1360 -1 1359 1355 1370 -1 "
						                >
							<Coordinate DEF="coords_ME_10-3_001"
							            point="1.524784 -19.045187 31.262478 19.635021 18.750090 39.530193 1.524784 18.750090 31.262478 19.635021 -19.045187 39.530193 19.962023 18.750090 38.813904 19.962023 -19.045187 38.813904 1.851786 -19.045187 30.546188 1.851786 18.750090 30.546188 23.899031 1.427255 38.813904 19.962023 1.427255 34.876896 23.899031 1.427255 34.876896 19.962023 1.427255 38.813904 23.899031 -1.722352 34.876896 19.962023 -1.722352 34.876896 23.899031 -1.722352 38.813904 19.962023 -1.722352 38.813904 19.962023 -19.045187 32.917294 19.962023 18.750090 32.917294 23.899031 -19.045187 38.813904 23.899031 18.750090 32.917294 23.899031 18.750090 38.813904 23.899031 -19.045187 32.917294 25.080133 7.332767 34.492100 23.899031 12.844578 34.492100 23.899031 7.332767 34.492100 25.080133 12.844578 34.492100 19.195763 12.429734 31.690762 19.465923 8.017769 31.150444 19.195763 7.747610 31.690762 19.465923 12.159575 31.150444 25.080133 12.057176 32.129894 25.080133 7.332767 32.129894 25.080133 12.844578 32.129894 19.568321 8.120168 30.555090 19.568321 12.057176 30.555090 18.780920 12.844578 32.129894 18.780920 7.332767 32.129894 19.962023 7.332767 34.492100 18.780920 12.844578 34.492100 18.780920 7.332767 34.492100 19.962023 12.844578 34.492100 19.962023 12.844578 32.917294 23.899031 12.844578 32.917294 23.899031 7.332767 32.917294 19.962023 7.332767 32.917294 24.395130 8.017769 31.150444 24.292730 8.120168 30.555090 24.665289 12.057176 31.690762 24.665289 7.747610 31.690762 24.395130 12.057176 31.150444 24.395130 12.159575 31.150444 24.665289 12.429734 31.690762 24.292730 12.057176 30.555090 25.080133 -13.139674 34.492100 23.899031 -7.627863 34.492100 23.899031 -13.139674 34.492100 25.080133 -7.627863 34.492100 19.195763 -8.042706 31.690762 19.465923 -12.454672 31.150444 19.195763 -12.724832 31.690762 19.465923 -8.312866 31.150444 25.080133 -8.415265 32.129894 25.080133 -13.139674 32.129894 25.080133 -7.627863 32.129894 19.568321 -12.352273 30.555090 19.568321 -8.415265 30.555090 18.780920 -7.627863 32.129894 18.780920 -13.139674 32.129894 19.962023 -13.139674 34.492100 18.780920 -7.627863 34.492100 18.780920 -13.139674 34.492100 19.962023 -7.627863 34.492100 19.962023 -7.627863 32.917294 23.899031 -7.627863 32.917294 23.899031 -13.139674 32.917294 19.962023 -13.139674 32.917294 24.395130 -12.454672 31.150444 24.292730 -12.352273 30.555090 24.665289 -8.415265 31.690762 24.665289 -12.724832 31.690762 24.395130 -8.415265 31.150444 24.395130 -8.312866 31.150444 24.665289 -8.042706 31.690762 24.292730 -8.415265 30.555090 9.725802 1.820956 31.441807 13.662809 -2.116052 30.253036 9.725802 -2.116052 31.441807 13.662809 1.820956 30.253036 34.830570 -1.348593 30.030321 34.525627 -1.328651 30.122400 34.525627 -2.116052 30.122400 29.013815 1.033554 31.786680 29.013815 -1.328651 31.786680 34.525627 1.033554 30.122400 34.525627 1.820956 30.122400 34.830570 1.053497 30.030321 34.984966 -0.551245 29.983704 34.984966 0.256149 29.983704 -7.068054 -2.116052 42.681530 29.013815 1.820956 31.786680 -7.068054 1.820956 42.681530 29.013815 -2.116052 31.786680 -7.068054 -2.116052 36.512680 -7.068054 1.820956 36.512680 19.962023 1.820956 32.489822 19.962023 1.820956 28.351000 23.899031 1.820956 32.489822 29.428658 1.820956 31.258072 29.013815 1.820956 31.697203 41.263042 1.820956 21.919199 23.899031 1.820956 27.162230 39.596100 1.820956 23.599421 41.490650 1.820956 22.672987 37.900639 1.820956 24.853613 36.460323 1.820956 26.394096 29.801216 1.820956 30.122400 35.322781 1.820956 28.169931 29.698818 1.820956 30.717752 33.206730 1.820956 30.122400 29.801216 1.033554 30.122400 29.013815 1.033554 31.697203 29.428658 1.033554 31.258072 29.698818 1.033554 30.717752 29.013815 -2.116052 31.697203 29.013815 -1.328651 31.697203 29.698818 -2.116052 30.717752 29.428658 -1.328651 31.258072 29.428658 -2.116052 31.258072 29.698818 -1.328651 30.717752 29.801216 -2.116052 30.122400 29.801216 -1.328651 30.122400 19.962023 -2.116052 28.351000 19.962023 1.427255 28.552813 23.899031 -1.722352 28.552813 19.962023 -1.722352 28.552813 23.899031 1.427255 28.552813 19.962023 1.427255 32.489822 23.899031 1.427255 32.489822 35.322781 -2.116052 28.169931 41.263042 -2.116052 21.919199 23.899031 -2.116052 32.489822 23.899031 -2.116052 27.162230 39.596100 -2.116052 23.599421 41.490650 -2.116052 22.672987 37.900639 -2.116052 24.853613 36.460323 -2.116052 26.394096 19.962023 -2.116052 32.489822 19.962023 -1.722352 32.489822 23.899031 -1.722352 32.489822 41.563141 -1.348593 22.913065 41.599842 -0.551245 23.034616 41.599842 0.256149 23.034616 41.563141 1.053497 22.913065 35.655090 -0.551245 28.342373 35.655090 0.256149 28.342373 35.543396 -1.348593 28.284412 35.543396 1.053497 28.284412 36.656559 1.053497 26.546633 36.755913 0.256149 26.623863 36.755913 -0.551245 26.623863 36.656559 -1.348593 26.546633 38.066006 1.053497 25.039164 38.149731 0.256149 25.133108 38.149731 -0.551245 25.133108 38.066006 -1.348593 25.039164 39.725132 1.053497 23.811850 39.790462 0.256149 23.919403 39.790462 -0.551245 23.919403 39.725132 -1.348593 23.811850 -7.068054 1.820956 49.374367 -7.068054 -2.116052 43.468857 -7.068054 -2.116052 49.374367 -7.068054 1.820956 43.468857 12.084682 1.820956 43.468857 8.147674 1.820956 43.468857 18.383894 1.820956 43.468857 19.962023 1.820956 43.468857 30.588617 1.820956 43.468857 30.588617 1.820956 49.374367 32.163422 -0.934950 49.374367 30.588617 0.443003 49.374367 30.588617 -0.738100 49.374367 32.163422 0.639853 49.374367 30.588617 -2.116052 49.374367 30.588617 -2.116052 43.468857 18.383894 -2.116052 43.468857 19.962023 -2.116052 43.468857 12.084682 -2.116052 43.468857 8.147674 -2.116052 43.468857 30.588617 0.443003 43.468857 32.163422 0.639853 43.468857 30.588617 -0.738100 43.468857 32.163422 -0.934950 43.468857 19.962023 -3.297155 29.373987 21.930527 -3.001879 30.043657 19.962023 -2.706604 29.532225 21.930527 -3.372253 29.944416 21.930527 -2.785722 30.259815 19.962023 -2.274290 29.964539 23.899031 -8.415265 30.555090 21.930527 -7.745595 30.259815 21.930527 -7.824714 30.555090 23.899031 -8.257028 29.964539 23.899031 -3.297155 29.373987 23.899031 -2.706604 29.532225 23.899031 -2.274290 29.964539 23.899031 -7.824714 29.532225 21.930527 -7.529438 30.043657 23.899031 -2.116052 30.555090 21.930527 -2.706604 30.555090 19.962023 -8.257028 29.964539 19.962023 -8.415265 30.555090 19.962023 -2.116052 30.555090 23.899031 -12.352273 30.555090 19.962023 -12.352273 30.555090 19.962023 -7.234162 29.373987 21.930527 -7.159064 29.944416 19.962023 7.961930 29.964539 21.930527 7.529617 30.555090 19.962023 8.120168 30.555090 21.930527 7.450498 30.259815 23.899031 8.120168 30.555090 23.899031 7.961930 29.964539 19.962023 7.529617 29.532225 21.930527 7.234342 30.043657 23.899031 1.820956 30.555090 21.930527 2.490626 30.259815 21.930527 2.411507 30.555090 23.899031 1.979193 29.964539 19.962023 1.979193 29.964539 19.962023 1.820956 30.555090 19.962023 -7.824714 29.532225 23.899031 -7.234162 29.373987 19.962023 -12.352273 28.192884 19.962023 -8.572745 25.003908 19.962023 5.757964 24.649578 19.962023 -6.053060 24.649578 19.962023 8.277649 25.003908 19.962023 -10.462509 25.712570 19.962023 10.167412 25.712570 19.962023 -11.722351 26.775562 19.962023 -1.722352 26.618082 19.962023 -1.722352 30.555090 19.962023 1.427255 26.618082 19.962023 11.427255 26.775562 19.962023 2.411507 29.532225 19.962023 1.427255 30.555090 19.962023 3.002058 29.373987 19.962023 12.057176 28.192884 19.962023 6.939066 29.373987 19.962023 12.057176 30.555090 23.899031 2.411507 29.532225 21.930527 2.706782 30.043657 23.899031 -12.352273 28.192884 23.899031 -1.722352 30.555090 23.899031 -6.053060 24.649578 23.899031 5.757964 24.649578 23.899031 12.057176 30.555090 23.899031 12.057176 28.192884 23.899031 11.427255 26.775562 23.899031 6.939066 29.373987 23.899031 7.529617 29.532225 23.899031 8.277649 25.003908 23.899031 -8.572745 25.003908 23.899031 -10.462509 25.712570 23.899031 10.167412 25.712570 23.899031 1.427255 26.618082 23.899031 1.427255 30.555090 23.899031 3.002058 29.373987 23.899031 -1.722352 26.618082 23.899031 -11.722351 26.775562 21.930527 6.863967 29.944416 21.930527 3.077156 29.944416 -7.068054 1.427255 43.468857 -7.068054 -1.722352 42.681530 -7.068054 -1.722352 43.468857 -7.068054 1.427255 42.681530 19.962023 -1.722352 43.468857 19.962023 1.427255 43.468857 23.899031 -1.722352 43.468857 23.899031 1.427255 43.468857 19.962023 -1.722352 40.757538 9.725802 -1.722352 40.752319 19.962023 -1.722352 40.752319 -0.524920 -1.722352 40.752319 -0.678844 -1.722352 40.752319 -0.643650 -1.722352 40.741695 30.588617 -1.722352 43.468857 23.899031 -1.722352 40.752319 30.588617 -1.722352 40.752319 23.899031 -1.722352 40.757538 19.962023 1.427255 40.752319 19.962023 1.427255 40.757538 23.899031 1.427255 40.757538 23.899031 1.427255 40.752319 9.725802 1.427255 40.752319 -0.524920 1.427255 40.752319 -0.537781 1.427255 40.709728 -0.537781 -1.722352 40.709728 30.588617 1.427255 40.752319 30.588617 0.443003 40.752319 30.588617 -0.738100 40.752319 32.163422 0.639853 40.752319 32.163422 -0.934950 40.752319 30.588617 1.427255 43.468857 -0.510419 -2.116052 40.752319 -0.678844 1.820956 40.752319 -0.678844 -2.116052 40.752319 9.725802 1.820956 40.752319 9.725802 -2.116052 40.752319 13.662809 1.820956 40.752319 13.662809 -2.116052 40.752319 29.604366 -2.116052 33.272007 27.360271 -2.116052 32.484604 29.604366 -2.116052 32.484604 30.194918 -2.116052 38.390118 30.194918 -2.116052 33.272007 -0.510419 -2.116052 40.701466 26.702410 -2.116052 32.484604 29.801216 -2.116052 38.390118 29.698818 -2.116052 38.985470 29.428658 -2.116052 39.525787 29.013815 -2.116052 39.964920 23.899031 -2.116052 40.727451 29.013815 -2.116052 40.752319 19.962023 -2.116052 40.727451 23.899031 -2.116052 40.752319 19.962023 -2.116052 40.752319 19.962023 1.820956 40.752319 27.360271 1.820956 32.484604 26.702410 1.820956 32.484604 29.604366 1.820956 32.484604 29.604366 1.820956 33.272007 30.194918 1.820956 33.272007 29.801216 1.820956 38.390118 29.698818 1.820956 38.985470 29.428658 1.820956 39.525787 29.013815 1.820956 39.964920 19.962023 1.820956 40.727451 23.899031 1.820956 40.727451 29.013815 1.820956 40.752319 23.899031 1.820956 40.752319 30.194918 1.820956 38.390118 34.722477 1.820956 33.272007 34.131924 -2.116052 33.272007 34.131924 1.820956 33.272007 34.722477 -2.116052 33.272007 34.722477 -2.116052 32.484604 34.722477 1.820956 32.484604 30.194918 -1.722352 34.453110 30.194918 1.427255 34.453110 30.194918 1.427255 38.390118 30.194918 -1.722352 38.390118 34.131924 1.820956 38.390118 34.131924 1.427255 34.453110 34.131924 1.427255 38.390118 34.131924 -1.722352 38.390118 34.131924 -2.116052 38.390118 34.131924 -1.722352 34.453110 35.999161 1.820956 32.484604 35.999161 -2.116052 32.484604 37.967667 -0.147548 32.484604 38.282627 1.820956 33.272007 40.329872 1.820956 38.390118 40.251129 -0.147548 33.272007 38.282627 -2.116052 33.272007 42.005939 -0.147548 37.659031 40.329872 -2.116052 38.390118 30.194918 14.813082 40.752319 30.194918 1.820956 40.755405 30.194918 1.820956 49.374367 30.194918 0.639853 40.752319 30.194918 0.639853 40.755405 30.194918 -0.934950 40.752319 30.194918 -2.116052 40.755405 30.194918 -0.934950 40.755405 30.194918 -15.108178 40.752319 30.194918 14.813082 51.783493 30.194918 -15.108178 51.783493 30.194918 -2.116052 49.374367 34.131924 14.813082 50.594841 34.131924 -15.108178 50.594841 34.131924 14.813082 40.752319 34.131924 -15.108178 40.752319 30.588617 -0.934950 40.755405 30.588617 -2.116052 40.755405 30.588617 0.639853 40.755405 30.588617 1.820956 40.755405 30.588617 0.443003 40.755405 30.982319 0.492215 40.755405 32.163422 0.639853 40.755405 32.163422 -0.934950 40.755405 30.588617 -0.738100 40.755405 30.982319 -0.738100 40.755405 30.588617 0.639853 40.752319 30.982319 0.492215 40.752319 30.982319 -0.738100 40.752319 30.588617 -0.934950 40.752319 35.313026 9.301270 42.327126 34.131924 14.813082 42.327126 34.131924 9.301270 42.327126 35.313026 14.813082 42.327126 29.428658 14.398238 39.525787 29.698818 9.986273 38.985470 29.428658 9.716114 39.525787 29.698818 14.128078 38.985470 35.313026 14.025680 39.964920 35.313026 9.301270 39.964920 35.313026 14.813082 39.964920 29.801216 10.088672 38.390118 29.801216 14.025680 38.390118 29.013815 14.813082 39.964920 29.013815 9.301270 39.964920 30.194918 9.301270 42.327126 29.013815 14.813082 42.327126 29.013815 9.301270 42.327126 30.194918 14.813082 42.327126 34.131924 9.301270 40.752319 30.194918 9.301270 40.752319 34.628025 9.986273 38.985470 34.525627 10.088672 38.390118 34.898186 14.025680 39.525787 34.898186 9.716114 39.525787 34.628025 14.025680 38.985470 34.628025 14.128078 38.985470 34.898186 14.398238 39.525787 34.525627 14.025680 38.390118 30.194918 14.025680 38.390118 34.131924 10.088672 38.390118 34.131924 14.025680 38.390118 30.194918 10.088672 38.390118 32.163422 9.498121 38.390118 30.194918 -2.274290 37.799564 32.163422 -2.706604 38.390118 32.163422 -2.785722 38.094841 32.163422 -3.372253 37.779442 34.131924 -9.202666 37.209015 34.131924 -3.297155 37.209015 32.163422 -9.127568 37.779442 30.194918 -10.383769 38.390118 32.163422 -9.714099 38.094841 30.194918 -10.225532 37.799564 32.163422 -9.793218 38.390118 30.194918 9.498121 37.367252 32.163422 9.419003 38.094841 30.194918 9.930434 37.799564 32.163422 9.202846 37.878685 32.163422 -3.001879 37.878685 34.131924 -2.706604 37.367252 30.194918 -9.202666 37.209015 30.194918 -3.297155 37.209015 34.131924 9.930434 37.799564 32.163422 2.490626 38.094841 30.194918 2.411507 37.367252 30.194918 1.979193 37.799564 32.163422 2.706782 37.878685 34.131924 6.151664 32.484604 30.194918 8.776336 32.720825 34.131924 8.776336 32.720825 30.194918 6.151664 32.484604 32.163422 2.411507 38.390118 34.131924 1.979193 37.799564 34.131924 -14.320777 36.027912 30.194918 -14.320777 38.390118 30.194918 -14.320777 36.027912 34.131924 -14.320777 38.390118 34.131924 -2.274290 37.799564 30.194918 8.907570 37.209015 32.163422 8.832472 37.779442 30.194918 -9.793218 37.367252 32.163422 -9.497942 37.878685 34.131924 -9.071433 32.720825 30.194918 -6.446761 32.484604 34.131924 -6.446761 32.484604 30.194918 -9.071433 32.720825 34.131924 3.002058 37.209015 32.163422 3.077156 37.779442 34.131924 2.411507 37.367252 30.194918 3.002058 37.209015 30.194918 -2.706604 37.367252 34.131924 -10.383769 38.390118 30.194918 -13.795842 34.846809 34.131924 -13.795842 34.846809 34.131924 -11.171170 33.193268 30.194918 -11.171170 33.193268 34.131924 -12.745974 33.901928 30.194918 -12.745974 33.901928 34.131924 -9.793218 37.367252 34.131924 -10.225532 37.799564 34.131924 8.907570 37.209015 34.131924 9.498121 37.367252 34.131924 14.025680 36.027912 34.131924 10.876074 33.193268 34.131924 12.450877 33.901928 34.131924 13.500746 34.846809 30.194918 14.025680 36.027912 30.194918 13.500746 34.846809 30.194918 12.450877 33.901928 30.194918 10.876074 33.193268 35.313026 -15.108178 42.327126 34.131924 -9.596367 42.327126 34.131924 -15.108178 42.327126 35.313026 -9.596367 42.327126 29.428658 -10.011210 39.525787 29.698818 -14.423176 38.985470 29.428658 -14.693336 39.525787 29.698818 -10.281370 38.985470 35.313026 -10.383769 39.964920 35.313026 -15.108178 39.964920 35.313026 -9.596367 39.964920 29.801216 -14.320777 38.390118 29.801216 -10.383769 38.390118 29.013815 -9.596367 39.964920 29.013815 -15.108178 39.964920 30.194918 -15.108178 42.327126 29.013815 -9.596367 42.327126 29.013815 -15.108178 42.327126 30.194918 -9.596367 42.327126 30.194918 -9.596367 40.752319 34.131924 -9.596367 40.752319 34.628025 -14.423176 38.985470 34.525627 -14.320777 38.390118 34.898186 -10.383769 39.525787 34.898186 -14.693336 39.525787 34.628025 -10.383769 38.985470 34.628025 -10.281370 38.985470 34.898186 -10.011210 39.525787 34.525627 -10.383769 38.390118 34.628025 -3.005853 38.985470 29.801216 -2.903454 38.390118 34.525627 -2.903454 38.390118 29.698818 -3.005853 38.985470 29.013815 3.395759 39.964920 34.898186 2.980916 39.525787 29.428658 2.980916 39.525787 35.313026 3.395759 39.964920 29.013815 -3.690856 42.327126 30.194918 -1.722352 42.327126 29.013815 -1.722352 42.327126 30.194918 -3.690856 42.327126 34.628025 2.710756 38.985470 29.698818 2.710756 38.985470 34.898186 -3.276012 39.525787 35.313026 -3.690856 39.964920 34.131924 -3.690856 40.752319 29.013815 -3.690856 39.964920 35.313026 -3.690856 42.327126 34.131924 -3.690856 42.327126 30.194918 -3.690856 40.752319 29.013815 3.395759 42.327126 29.013815 1.427255 40.752319 29.013815 1.427255 42.327126 29.013815 -2.903454 39.964920 29.013815 -1.722352 40.752319 30.194918 3.395759 40.752319 30.194918 1.427255 42.327126 30.194918 1.427255 40.752319 30.194918 3.395759 42.327126 29.428658 -3.276012 39.525787 30.194918 -1.722352 40.752319 35.313026 3.395759 42.327126 34.131924 3.395759 40.752319 34.131924 3.395759 42.327126 34.525627 2.608357 38.390118 29.801216 2.608357 38.390118 29.698818 -2.903454 38.985470 29.428658 -2.903454 39.525787 29.801216 -2.903454 30.122400 29.698818 -3.005853 30.717752 29.013815 3.395759 31.697203 29.428658 2.980916 31.258072 34.525627 2.608357 30.122400 29.801216 2.608357 30.122400 29.428658 -3.276012 31.258072 29.698818 2.608357 30.717752 29.698818 2.710756 30.717752 34.525627 -2.903454 30.122400 34.628025 -3.005853 30.717752 29.013815 3.395759 34.059406 29.013815 1.820956 32.484604 29.013815 1.820956 34.059406 29.013815 -2.116052 32.484604 29.013815 -2.116052 34.059406 29.013815 -3.690856 31.697203 29.013815 -3.690856 34.059406 30.194918 3.395759 32.484604 35.313026 3.395759 31.697203 30.194918 3.395759 34.059406 34.131924 3.395759 32.484604 35.313026 3.395759 34.059406 34.131924 3.395759 34.059406 34.131924 -2.116052 34.059406 35.313026 -2.116052 32.484604 35.313026 -2.116052 34.059406 35.313026 1.820956 34.059406 34.131924 1.820956 34.059406 35.313026 -3.690856 31.697203 34.131924 -3.690856 32.484604 35.313026 -3.690856 34.059406 34.131924 -3.690856 34.059406 30.194918 -3.690856 32.484604 30.194918 -3.690856 34.059406 30.194918 -2.116052 34.059406 30.194918 1.820956 34.059406 35.313026 1.820956 32.484604 34.628025 2.710756 30.717752 34.898186 2.980916 31.258072 34.898186 -3.276012 31.258072 18.780920 -2.116052 24.649578 19.371471 -2.116052 24.649578 19.371471 1.820956 24.649578 18.780920 1.820956 24.649578 19.371471 -2.116052 25.436979 19.962023 -2.116052 25.436979 19.962023 1.820956 25.436979 19.371471 1.820956 25.436979 18.780920 1.820956 26.224380 19.962023 1.820956 26.224380 19.962023 3.395759 26.224380 19.962023 -2.116052 26.224380 19.962023 -3.690856 26.224380 19.962023 -3.690856 24.649578 19.962023 3.395759 24.649578 23.899031 -3.690856 24.649578 23.899031 -3.690856 26.224380 23.899031 -2.116052 25.436979 23.899031 3.395759 24.649578 23.899031 1.820956 25.436979 23.899031 1.820956 26.224380 23.899031 3.395759 26.224380 23.899031 -2.116052 26.224380 25.080133 -3.690856 26.224380 25.080133 -2.116052 26.224380 18.780920 -2.116052 26.224380 24.489582 -2.116052 24.649578 25.080133 -2.116052 24.649578 25.080133 1.820956 24.649578 24.489582 1.820956 24.649578 18.780920 -3.690856 26.224380 25.080133 3.395759 23.862177 24.665289 2.980916 23.423046 19.195763 2.980916 23.423046 18.780920 3.395759 23.862177 24.395130 2.710756 22.882727 19.465923 2.710756 22.882727 19.465923 -3.005853 22.882727 19.195763 -3.276012 23.423046 19.195763 2.608357 23.423046 19.465923 2.608357 22.882727 19.568321 -2.903454 22.287373 24.292730 -2.903454 22.287373 24.395130 -3.005853 22.882727 24.665289 -3.276012 23.423046 18.780920 -3.690856 23.862177 18.780920 2.608357 23.862177 24.292730 2.608357 22.287373 25.080133 3.395759 26.224380 25.080133 1.820956 26.224380 25.080133 -3.690856 23.862177 18.780920 3.395759 26.224380 19.568321 2.608357 22.287373 24.489582 -2.116052 25.436979 24.489582 1.820956 25.436979 4.839242 -2.116052 32.917294 -2.085222 1.820956 32.917294 -2.085222 -2.116052 32.917294 4.839242 1.820956 32.917294 -2.085222 1.427255 35.008121 -2.085222 1.820956 35.008121 -2.085222 -2.116052 35.008121 -7.068054 -2.116052 32.917294 -7.068054 1.820956 32.917294 1.851786 1.427255 30.546188 -2.085222 1.427255 26.618082 1.851786 1.427255 26.618082 -2.085222 1.427255 30.546188 -2.085222 -1.722352 26.618082 1.851786 -1.722352 30.546188 1.851786 -1.722352 26.618082 -2.085222 -1.722352 30.546188 -2.085222 18.750090 30.546188 1.851786 18.750090 24.649578 -2.085222 18.750090 24.649578 1.851786 18.750090 30.546188 1.851786 -19.045187 24.649578 -2.085222 -19.045187 24.649578 -2.085222 -19.045187 30.546188 -0.904119 -7.627863 15.594460 0.670684 -7.627863 15.594460 0.670684 -7.627863 16.381863 -0.904119 -7.627863 16.381863 -0.904119 -1.722352 16.381863 -0.904119 -1.722352 14.019657 -0.904119 -8.415265 14.019657 -0.904119 -8.042706 15.155329 -0.904119 -8.312866 14.615010 0.670684 -8.415265 14.019657 0.670684 -1.722352 14.019657 0.670684 -1.722352 16.381863 0.670684 -8.042706 15.155329 0.670684 -8.312866 14.615010 1.458085 -2.274290 13.429106 1.851786 -2.116052 14.019657 1.458085 -2.116052 14.019657 1.851786 -2.274290 13.429106 1.458085 -7.234162 12.838554 1.851786 -7.824714 12.996793 1.851786 -7.234162 12.838554 1.458085 -7.824714 12.996793 1.458085 -2.706604 12.996793 1.851786 -3.297155 12.838554 1.851786 -2.706604 12.996793 1.458085 -3.297155 12.838554 1.458085 -8.415265 14.019657 1.851786 -8.257028 13.429106 1.458085 -8.257028 13.429106 1.851786 -8.415265 14.019657 -2.085222 1.427255 14.019657 -1.691521 1.820956 14.019657 -2.085222 1.820956 14.019657 1.851786 1.427255 14.019657 -2.085222 8.120168 14.019657 1.458085 8.120168 14.019657 -2.085222 12.057176 14.019657 -1.691521 8.120168 14.019657 1.458085 1.820956 14.019657 1.851786 1.820956 14.019657 1.851786 8.120168 14.019657 1.851786 12.057176 14.019657 1.851786 -12.352273 11.657453 -2.085222 -12.352273 14.019657 -2.085222 -12.352273 11.657453 1.851786 -12.352273 14.019657 -2.085222 -7.234162 12.838554 -2.085222 -7.824714 12.996793 -2.085222 -8.257028 13.429106 -2.085222 -8.415265 14.019657 -2.085222 -9.045186 8.468476 -2.085222 6.545365 8.114145 -2.085222 -6.840462 8.114145 -2.085222 8.750090 8.468476 -2.085222 -10.698730 9.177137 -2.085222 10.403633 9.177137 -2.085222 -11.801091 10.240129 -2.085222 -1.722352 10.082649 -2.085222 -2.706604 12.996793 -2.085222 -2.274290 13.429106 -2.085222 -1.722352 14.019657 -2.085222 -3.297155 12.838554 -2.085222 -2.116052 14.019657 -2.085222 1.427255 10.082649 -2.085222 11.505995 10.240129 -2.085222 2.411507 12.996793 -2.085222 1.979193 13.429106 -2.085222 3.002058 12.838554 -2.085222 12.057176 11.657453 -2.085222 6.939066 12.838554 -2.085222 7.529617 12.996793 -2.085222 7.961930 13.429106 1.851786 12.057176 11.657453 1.851786 -6.840462 8.114145 1.851786 6.545365 8.114145 -1.691521 7.961930 13.429106 -1.691521 -2.116052 14.019657 -1.691521 -2.274290 13.429106 1.851786 -1.722352 10.082649 1.851786 1.427255 10.082649 1.458085 2.411507 12.996793 1.851786 3.002058 12.838554 1.458085 3.002058 12.838554 1.851786 2.411507 12.996793 -1.691521 7.529617 12.996793 -1.691521 2.411507 12.996793 -1.691521 6.939066 12.838554 -1.691521 3.002058 12.838554 -1.691521 1.979193 13.429106 1.851786 -11.801091 10.240129 1.851786 7.529617 12.996793 1.458085 7.961930 13.429106 1.458085 7.529617 12.996793 1.851786 7.961930 13.429106 1.851786 6.939066 12.838554 1.458085 6.939066 12.838554 1.851786 -9.045186 8.468476 -1.691521 -2.706604 12.996793 1.851786 -1.722352 14.019657 1.851786 -10.698730 9.177137 1.851786 1.979193 13.429106 1.458085 1.979193 13.429106 -1.691521 -7.824714 12.996793 -1.691521 -7.234162 12.838554 -1.691521 -8.257028 13.429106 -1.691521 -3.297155 12.838554 -1.691521 -8.415265 14.019657 1.851786 10.403633 9.177137 1.851786 11.505995 10.240129 1.851786 8.750090 8.468476 -0.904119 7.332767 15.594460 0.670684 7.332767 16.381863 0.670684 7.332767 15.594460 -0.904119 7.332767 16.381863 -0.904119 1.427255 14.019657 -0.904119 1.427255 16.381863 -0.904119 8.120168 14.019657 -0.904119 7.747610 15.155329 -0.904119 8.017769 14.615010 0.670684 8.120168 14.019657 0.670684 1.427255 16.381863 0.670684 1.427255 14.019657 0.670684 7.747610 15.155329 0.670684 8.017769 14.615010 3.032889 7.332767 17.956665 1.851786 12.844578 17.956665 1.851786 7.332767 17.956665 3.032889 12.844578 17.956665 -2.851481 12.429734 15.155329 -2.581321 8.017769 14.615010 -2.851481 7.747610 15.155329 -2.581321 12.159575 14.615010 3.032889 12.057176 15.594460 3.032889 7.332767 15.594460 3.032889 12.844578 15.594460 -2.478922 8.120168 14.019657 -2.478922 12.057176 14.019657 -3.266324 12.844578 15.594460 -3.266324 7.332767 15.594460 -2.085222 7.332767 17.956665 -3.266324 12.844578 17.956665 -3.266324 7.332767 17.956665 -2.085222 12.844578 17.956665 -2.085222 12.844578 16.381863 1.851786 12.844578 16.381863 1.851786 7.332767 16.381863 -2.085222 7.332767 16.381863 2.347886 8.017769 14.615010 2.245487 8.120168 14.019657 2.618045 12.057176 15.155329 2.618045 7.747610 15.155329 2.347886 12.057176 14.615010 2.347886 12.159575 14.615010 2.618045 12.429734 15.155329 2.245487 12.057176 14.019657 -7.068054 1.820956 16.381863 -7.068054 -2.116052 8.114145 -7.068054 -2.116052 16.381863 -7.068054 1.820956 8.114145 -3.266324 1.820956 8.114145 -3.266324 1.820956 9.688949 -2.085222 1.820956 9.688949 -0.904119 1.820956 14.019657 -0.904119 1.820956 16.381863 0.670684 -2.116052 14.019657 0.670684 -1.722352 14.019657 0.670684 -2.116052 16.381863 0.670684 -1.722352 16.381863 1.851786 -2.116052 9.688949 1.851786 1.820956 9.688949 -3.266324 -2.116052 8.114145 -0.904119 1.427255 16.381863 -0.904119 -2.116052 16.381863 -0.904119 -1.722352 16.381863 0.670684 1.427255 16.381863 3.032889 1.820956 16.381863 0.670684 1.820956 16.381863 3.032889 -2.116052 16.381863 3.032889 1.427255 16.381863 3.032889 -1.722352 16.381863 8.544700 1.427255 16.381863 8.544700 -1.722352 16.381863 -3.266324 -2.116052 9.688949 -2.085222 -2.116052 9.688949 -0.904119 -2.116052 14.019657 0.670684 1.427255 14.019657 0.670684 1.820956 14.019657 -0.904119 1.427255 14.019657 -0.904119 -1.722352 14.019657 3.032889 1.820956 9.688949 3.032889 -2.116052 9.688949 9.332101 1.427255 14.019657 9.229702 -1.722352 14.615010 9.332101 -1.722352 14.019657 9.229702 1.427255 14.615010 8.544700 1.427255 15.594460 8.544700 -1.722352 15.594460 13.426589 1.820956 10.240129 14.056511 -2.116052 11.657453 13.426589 -2.116052 10.240129 14.056511 1.820956 11.657453 14.056511 1.820956 14.019657 9.332101 1.820956 14.019657 9.332101 -2.116052 14.019657 14.056511 -2.116052 14.019657 8.959543 1.427255 15.155329 8.959543 -1.722352 15.155329 12.166747 1.820956 9.177137 10.276983 -2.116052 8.468476 10.276983 1.820956 8.468476 12.166747 -2.116052 9.177137 7.757298 -2.116052 8.114145 7.757298 1.820956 8.114145 3.032889 -2.116052 8.114145 3.032889 1.820956 8.114145 8.150999 -2.116052 12.838554 8.741550 -2.116052 12.996793 9.173863 -2.116052 13.429106 3.426589 -2.116052 12.838554 2.836038 -2.116052 12.996793 2.403725 -2.116052 13.429106 2.245487 -2.116052 14.019657 2.347886 -2.116052 14.615010 2.618045 -2.116052 15.155329 3.032889 -2.116052 15.594460 2.347886 1.820956 14.615010 2.618045 1.820956 15.155329 3.032889 1.820956 15.594460 2.403725 1.820956 13.429106 2.836038 1.820956 12.996793 3.426589 1.820956 12.838554 2.245487 1.820956 14.019657 8.150999 1.820956 12.838554 8.741550 1.820956 12.996793 9.173863 1.820956 13.429106 2.403725 1.427255 13.429106 2.245487 1.427255 14.019657 2.836038 1.427255 12.996793 3.426589 1.427255 12.838554 8.150999 1.427255 12.838554 8.741550 1.427255 12.996793 9.173863 1.427255 13.429106 2.618045 1.427255 15.155329 3.032889 1.427255 15.594460 9.173863 -1.722352 13.429106 8.741550 -1.722352 12.996793 8.150999 -1.722352 12.838554 2.403725 -1.722352 13.429106 2.836038 -1.722352 12.996793 3.032889 -1.722352 15.594460 2.245487 -1.722352 14.019657 2.618045 -1.722352 15.155329 2.347886 -1.722352 14.615010 3.426589 -1.722352 12.838554 2.347886 1.427255 14.615010 14.253361 1.820956 16.381863 9.135251 -2.116052 16.381863 9.135251 1.820956 16.381863 14.253361 -2.116052 16.381863 -7.068054 1.820956 24.649578 -7.068054 -2.116052 24.649578 -0.904120 1.820956 22.287373 -2.085222 1.427255 22.287373 -2.085222 1.820956 22.287373 -0.904120 1.427255 22.287373 0.670684 1.820956 24.649578 0.670684 1.427255 22.287373 0.670684 1.427255 24.649578 0.670684 1.820956 22.287373 -0.904120 1.427255 24.649578 -0.904120 1.820956 24.649578 -2.085222 1.820956 16.381863 -2.085222 1.820956 18.350367 1.851786 -1.722352 22.287373 0.670684 -2.116052 22.287373 0.670684 -1.722352 22.287373 1.851786 -2.116052 22.287373 0.670684 -1.722352 24.649578 0.670684 -2.116052 24.649578 -0.904119 -1.722352 22.287373 -0.904119 -2.116052 24.649578 -0.904119 -2.116052 22.287373 -0.904119 -1.722352 24.649578 -2.085222 -2.116052 22.287373 -2.085222 -2.116052 18.350367 -2.085222 -2.116052 16.381863 1.851786 1.427255 18.350367 -2.085222 1.427255 18.350367 1.851786 1.427255 22.287373 -2.085222 -1.722352 18.350367 1.851786 1.820956 22.287373 17.993519 1.820956 16.381863 17.993519 -2.116052 16.381863 1.851786 1.820956 16.381863 1.851786 -2.116052 16.381863 1.851786 1.820956 18.350367 1.851786 -1.722352 18.350367 1.851786 -2.116052 18.350367 19.568321 -1.722352 22.287373 19.410084 -2.116052 21.696823 19.568321 -2.116052 22.287373 19.410084 -1.722352 21.696823 18.977770 -2.116052 21.264509 18.977770 -1.722352 21.264509 2.224345 -2.116052 23.423046 2.639188 -1.722352 23.862177 2.639188 -2.116052 23.862177 2.224345 -1.722352 23.423046 2.639188 -2.116052 24.649578 2.639188 -1.722352 24.649578 1.954185 -2.116052 22.882727 1.954185 -1.722352 22.882727 3.032889 -2.116052 21.106272 2.442337 -1.722352 21.264509 2.442337 -2.116052 21.264509 3.032889 -1.722352 21.106272 2.010024 -2.116052 21.696823 2.010024 -1.722352 21.696823 18.387218 -1.722352 21.106272 18.387218 -2.116052 21.106272 19.465923 -1.722352 22.882727 19.195763 -1.722352 23.423046 18.780920 -1.722352 23.862177 18.780920 -1.722352 24.649578 23.662809 1.820956 18.507847 24.292730 -2.116052 19.925169 23.662809 -2.116052 18.507847 24.292730 1.820956 19.925169 20.513203 -2.116052 16.736193 20.513203 1.820956 16.736193 22.402967 -2.116052 17.444855 22.402967 1.820956 17.444855 24.292730 1.820956 22.287373 24.292730 -2.116052 22.287373 2.442337 1.427255 21.264509 18.387218 1.427255 21.106272 3.032889 1.427255 21.106272 18.977770 1.427255 21.264509 2.010024 1.427255 21.696823 19.410084 1.427255 21.696823 19.568321 1.427255 22.287373 1.954185 1.427255 22.882727 19.465923 1.427255 22.882727 2.224345 1.427255 23.423046 19.195763 1.427255 23.423046 2.639188 1.427255 23.862177 18.780920 1.427255 23.862177 2.639188 1.427255 24.649578 18.780920 1.427255 24.649578 18.387218 1.820956 21.106272 18.977770 1.820956 21.264509 3.032889 1.820956 21.106272 2.442337 1.820956 21.264509 1.954185 1.820956 22.882727 23.899031 1.820956 22.287373 19.568321 1.820956 22.287373 2.224345 1.820956 23.423046 2.010024 1.820956 21.696823 19.410084 1.820956 21.696823 2.639188 1.820956 23.862177 2.639188 1.820956 24.649578 -2.085222 -1.722352 22.287373 13.662809 1.820956 24.649578 9.725802 -2.116052 24.649578 9.725802 1.820956 24.649578 13.662809 -2.116052 24.649578 19.962023 1.427255 28.351000 19.962023 -1.722352 28.351000 23.899031 1.427255 27.162230 23.899031 -1.722352 27.162230 28.465105 1.820956 25.783512 28.465105 -2.116052 25.783512 -2.085222 1.820956 24.649578 -2.085222 1.820956 30.555090 1.851786 1.820956 24.649578 1.851786 1.820956 30.555090 19.962023 1.820956 26.618082 25.750675 1.820956 24.673916 26.386169 1.820956 24.889244 26.851786 1.820956 25.219624 26.933393 1.820956 25.277527 28.378185 1.820956 25.519876 27.701683 1.820956 25.125103 19.962023 -2.116052 26.618082 28.378185 -2.116052 25.519876 26.933393 -2.116052 25.277527 27.701683 -2.116052 25.125103 25.750675 -2.116052 24.673916 26.386169 -2.116052 24.889244 26.851786 -2.116052 25.219624 1.851786 -2.116052 24.649578 1.851786 -2.116052 30.555090 -2.085222 -2.116052 30.555090 -2.085222 -2.116052 24.649578 1.851786 -1.722352 30.555090 1.851786 -1.722352 26.618082 1.851786 1.427255 26.618082 1.851786 1.427255 30.555090 -2.085222 1.427255 30.555090 -2.085222 1.427255 26.618082 -2.085222 -1.722352 30.555090 -2.085222 -1.722352 26.618082 3.032889 -13.139674 17.956665 1.851786 -7.627863 17.956665 1.851786 -13.139674 17.956665 3.032889 -7.627863 17.956665 -2.851481 -8.042706 15.155329 -2.581321 -12.454672 14.615010 -2.851481 -12.724832 15.155329 -2.581321 -8.312866 14.615010 3.032889 -8.415265 15.594460 3.032889 -13.139674 15.594460 3.032889 -7.627863 15.594460 -2.478922 -12.352273 14.019657 -2.478922 -8.415265 14.019657 -3.266324 -7.627863 15.594460 -3.266324 -13.139674 15.594460 -2.085222 -13.139674 17.956665 -3.266324 -7.627863 17.956665 -3.266324 -13.139674 17.956665 -2.085222 -7.627863 17.956665 -2.085222 -7.627863 16.381863 1.851786 -7.627863 16.381863 1.851786 -13.139674 16.381863 -2.085222 -13.139674 16.381863 2.347886 -12.454672 14.615010 2.245487 -12.352273 14.019657 2.618045 -8.415265 15.155329 2.618045 -12.724832 15.155329 2.347886 -8.415265 14.615010 2.347886 -8.312866 14.615010 2.618045 -8.042706 15.155329 2.245487 -8.415265 14.019657 6.182495 -2.116052 8.114145 6.182495 1.820956 8.114145 -6.415930 1.820956 8.114145 -6.415930 -2.116052 8.114145 -2.085222 6.151664 8.114145 1.851786 -6.446761 8.114145 1.851786 6.151664 8.114145 -2.085222 -6.446761 8.114145 1.851786 6.151664 11.263751 1.851786 -2.116052 11.263751 1.851786 -6.446761 11.263751 1.851786 1.820956 11.263751 -2.085222 -6.446761 11.263751 -2.085222 -2.116052 11.263751 -2.085222 1.820956 11.263751 -2.085222 6.151664 11.263751 -6.415930 6.151664 6.539342 5.352808 5.321978 5.661080 -5.586244 5.321978 5.661080 6.182495 6.151664 6.539342 4.812490 4.781659 4.580442 -5.045925 4.781659 4.580442 6.182495 -6.446761 6.539342 5.352808 -5.617074 5.661080 4.812490 -5.076756 4.580442 4.607692 4.576861 3.389736 4.607692 -4.871958 3.389736 -4.841127 -4.871958 3.389736 -5.045925 -5.076756 4.580442 -5.586244 -5.617074 5.661080 -6.415930 -6.446761 6.539342 -6.415930 6.151664 11.263751 -6.415930 1.820956 11.263751 -4.841127 4.576861 3.389736 -6.415930 -2.116052 11.263751 6.182495 1.820956 11.263751 6.182495 -2.116052 11.263751 6.182495 -6.446761 11.263751 -6.415930 -6.446761 11.263751 -5.586244 -4.871958 5.661080 -5.045925 -4.871958 4.580442 -6.415930 -4.871958 6.539342 6.182495 6.151664 11.263751 3.032888 13.238278 26.224380 1.851786 18.750090 26.224380 1.851786 13.238278 26.224380 3.032888 18.750090 26.224380 -2.851481 18.335247 23.423046 -2.581322 13.923281 22.882727 -2.851481 13.653122 23.423046 -2.581322 18.065086 22.882727 3.032888 17.962688 23.862177 3.032888 13.238278 23.862177 3.032888 18.750090 23.862177 -2.478923 14.025680 22.287373 -2.478923 17.962688 22.287373 -3.266325 18.750090 23.862177 -3.266325 13.238278 23.862177 -2.085222 13.238278 26.224380 -3.266325 18.750090 26.224380 -3.266325 13.238278 26.224380 -2.085222 18.750090 26.224380 1.851786 13.238278 24.649578 -2.085222 13.238278 24.649578 2.347885 13.923281 22.882727 2.245486 14.025680 22.287373 2.618045 17.962688 23.423046 2.618045 13.653122 23.423046 2.347885 17.962688 22.882727 2.347885 18.065086 22.882727 2.618045 18.335247 23.423046 2.245486 17.962688 22.287373 3.032889 -19.045187 26.224380 1.851786 -13.533375 26.224380 1.851786 -19.045187 26.224380 3.032889 -13.533375 26.224380 -2.851481 -13.948218 23.423046 -2.581321 -18.360184 22.882727 -2.851481 -18.630342 23.423046 -2.581321 -14.218378 22.882727 3.032889 -14.320777 23.862177 3.032889 -19.045187 23.862177 3.032889 -13.533375 23.862177 -2.478922 -18.257784 22.287373 -2.478922 -14.320777 22.287373 -3.266324 -13.533375 23.862177 -3.266324 -19.045187 23.862177 -2.085222 -19.045187 26.224380 -3.266324 -13.533375 26.224380 -3.266324 -19.045187 26.224380 -2.085222 -13.533375 26.224380 -2.085222 -13.533375 24.649578 1.851786 -13.533375 24.649578 1.851786 -19.045187 24.649578 -2.085222 -19.045187 24.649578 2.347886 -18.360184 22.882727 2.245487 -18.257784 22.287373 2.618046 -14.320777 23.423046 2.618046 -18.630342 23.423046 2.347886 -14.320777 22.882727 2.347886 -14.218378 22.882727 2.618046 -13.948218 23.423046 2.245487 -14.320777 22.287373 -0.904120 -13.533375 23.862177 0.670684 -13.533375 23.862177 0.670684 -13.533375 24.649578 -0.904120 -13.533375 24.649578 -0.904119 -1.722351 24.649578 -0.904119 -1.722351 22.287373 -0.904120 -14.320777 22.287373 -0.904120 -13.948218 23.423046 -0.904120 -14.218378 22.882727 0.670684 -14.320777 22.287373 0.670684 -1.722351 22.287373 0.670684 -1.722351 24.649578 0.670684 -13.948218 23.423046 0.670684 -14.218378 22.882727 -0.904120 13.238278 23.862177 0.670683 13.238278 24.649578 0.670683 13.238278 23.862177 -0.904120 13.238278 24.649578 -0.904120 14.025680 22.287373 -0.904120 13.653122 23.423046 -0.904120 13.923281 22.882727 0.670683 14.025680 22.287373 0.670683 13.653122 23.423046 0.670683 13.923281 22.882727 -1.691521 -14.320777 22.287373 -2.085222 -14.162539 21.696823 -2.085222 -14.320777 22.287373 -1.691521 -14.162539 21.696823 -1.691521 -13.730226 21.264509 -2.085222 -13.730226 21.264509 -2.085222 -3.297155 21.106272 -1.691521 -13.139674 21.106272 -1.691521 -3.297155 21.106272 -2.085222 -13.139674 21.106272 -2.085222 1.427255 22.287373 -1.691521 1.820956 22.287373 -2.085222 1.820956 22.287373 1.851786 1.427255 22.287373 -2.085222 14.025680 22.287373 1.458085 14.025680 22.287373 -2.085222 17.962688 22.287373 -1.691521 14.025680 22.287373 1.458085 1.820956 22.287373 1.851786 1.820956 22.287373 1.851786 14.025680 22.287373 1.851786 17.962688 22.287373 -2.085222 -18.257784 22.287373 -2.085222 -18.257784 19.925169 -2.085222 -15.423139 16.736193 -2.085222 13.238278 16.381863 -2.085222 -13.533375 16.381863 -2.085222 15.128042 16.736193 -2.085222 -16.840462 17.444855 -2.085222 16.545364 17.444855 -2.085222 -17.785343 18.507847 -2.085222 -2.706604 21.264509 -2.085222 -2.274290 21.696823 -2.085222 1.427255 18.350367 -2.085222 17.490248 18.507847 -2.085222 3.002058 21.106272 -2.085222 2.411507 21.264509 -2.085222 1.979193 21.696823 -2.085222 17.962688 19.925169 -2.085222 12.844578 21.106272 -2.085222 13.435129 21.264509 -2.085222 13.867442 21.696823 1.851786 13.238278 16.381863 1.851786 15.128042 16.736193 1.851786 -1.722351 18.350367 1.851786 1.427255 18.350367 1.851786 12.844578 21.106272 1.851786 17.962688 19.925169 1.851786 13.435129 21.264509 1.851786 13.867442 21.696823 1.851786 -13.533375 16.381863 1.851786 -15.423139 16.736193 1.851786 16.545364 17.444855 1.851786 -16.840462 17.444855 1.851786 17.490248 18.507847 1.851786 3.002058 21.106272 1.851786 2.411507 21.264509 1.851786 1.979193 21.696823 1.851786 -17.785343 18.507847 1.851786 -3.297155 21.106272 1.851786 -2.706604 21.264509 1.851786 -2.274290 21.696823 1.851786 -1.722351 22.287373 1.851786 -18.257784 19.925169 1.851786 -2.116052 22.287373 1.851786 -13.139674 21.106272 1.851786 -18.257784 22.287373 1.851786 -13.730226 21.264509 1.851786 -14.162539 21.696823 1.851786 -14.320777 22.287373 1.458085 -2.116052 22.287373 -1.691521 -2.116052 22.287373 1.458085 -14.320777 22.287373 -1.691521 3.002058 21.106272 -1.691521 2.411507 21.264509 -1.691521 1.979193 21.696823 1.458085 13.435129 21.264509 1.458085 3.002058 21.106272 1.458085 12.844578 21.106272 1.458085 2.411507 21.264509 1.458085 13.867442 21.696823 1.458085 1.979193 21.696823 -1.691521 12.844578 21.106272 1.458085 -14.162539 21.696823 1.458085 -13.730226 21.264509 1.458085 -2.706604 21.264509 1.458085 -13.139674 21.106272 1.458085 -3.297155 21.106272 1.458085 -2.274290 21.696823 -1.691521 -2.274290 21.696823 -1.691521 -2.706604 21.264509 -1.691521 13.435129 21.264509 -1.691521 13.867442 21.696823 14.843912 -2.116052 17.956665 14.843912 -2.116052 16.381863 8.544700 -2.116052 16.381863 8.544700 -2.116052 17.956665 8.544700 1.820956 17.956665 8.544700 1.820956 16.381863 14.843912 1.820956 16.381863 14.843912 1.820956 17.956665 8.544700 -3.690856 17.956665 14.843912 -3.690856 17.956665 14.843912 3.395759 15.594460 14.429069 2.980916 15.155329 8.959543 2.980916 15.155329 8.544700 3.395759 15.594460 14.158910 2.710756 14.615010 9.229702 2.710756 14.615010 9.229702 -3.005853 14.615010 8.959543 -3.276012 15.155329 8.959543 2.608357 15.155329 9.229702 2.608357 14.615010 9.332101 -2.903454 14.019657 14.056511 -2.903454 14.019657 14.158910 -3.005853 14.615010 14.429069 -3.276012 15.155329 8.544700 -3.690856 15.594460 8.544700 2.608357 15.594460 14.056511 2.608357 14.019657 14.843912 3.395759 17.956665 14.843912 -3.690856 15.594460 8.544700 3.395759 17.956665 9.332101 2.608357 14.019657 "
							            />
						</IndexedFaceSet>
					</Shape>
				</Group>
			</Transform>
		</Transform>
	</Scene>
</X3D>