<?xml version="1.0" encoding="UTF-8"?>
<!DOCTYPE X3D PUBLIC "ISO//Web3D//DTD X3D 3.0//EN" "http://www.web3d.org/specifications/x3d-3.0.dtd">
<X3D version="3.0" profile="Immersive" xmlns:xsd="http://www.w3.org/2001/XMLSchema-instance" xsd:noNamespaceSchemaLocation="http://www.web3d.org/specifications/x3d-3.0.xsd">
	<head>
		<meta name="filename" content="14-1.x3d" />
		<meta name="created" content="2026-06-21 15:09:38" />
		<meta name="generator" content="Blender 4.5.4 LTS" />
		<meta name="translator" content="Web3D X3D/VRML2 format v2.5.1" />
	</head>
	<Scene>
		<NavigationInfo headlight="true"
		                visibilityLimit="0.0"
		                type='"EXAMINE", "ANY"'
		                avatarSize="0.25, 1.75, 0.75"
		                />
		<Background DEF="WO_World"
		            groundColor="0.051 0.051 0.051"
		            skyColor="0.051 0.051 0.051"
		            />
		<Transform DEF="_14-1_TRANSFORM"
		           translation="0.000000 0.000000 0.000000"
		           scale="1.000000 1.000000 1.000000"
		           rotation="0.000000 0.707107 0.707107 3.141593"
		           >
			<Transform DEF="_14-1_ifs_TRANSFORM"
			           translation="0.000000 0.000000 0.000000"
			           scale="1.000000 1.000000 1.000000"
			           rotation="0.000000 1.000000 0.000000 0.000000"
			           >
				<Group DEF="group_ME_14-1_001">
					<Shape>
						<Appearance>
						</Appearance>
						<IndexedFaceSet solid="false"
						                coordIndex="0 1 2 -1 1 0 3 -1 4 0 5 -1 0 4 3 -1 4 6 7 -1 6 4 5 -1 1 4 7 -1 4 1 3 -1 1 6 2 -1 6 1 7 -1 0 6 5 -1 6 0 2 -1 8 9 10 -1 10 11 8 -1 12 13 14 -1 14 8 12 -1 8 11 12 -1 9 15 16 -1 16 10 9 -1 12 16 15 -1 15 13 12 -1 17 18 8 -1 8 14 17 -1 14 13 17 -1 13 15 17 -1 18 19 20 -1 20 9 18 -1 9 8 18 -1 20 15 9 -1 20 17 15 -1 20 21 17 -1 22 23 24 -1 24 25 22 -1 26 27 28 -1 28 29 26 -1 29 30 26 -1 29 31 30 -1 31 32 30 -1 33 34 35 -1 35 36 33 -1 36 35 37 -1 37 38 36 -1 39 40 31 -1 31 29 39 -1 29 28 41 -1 41 39 29 -1 42 41 28 -1 28 27 42 -1 27 43 42 -1 44 45 46 -1 46 47 44 -1 47 46 48 -1 48 49 47 -1 35 34 50 -1 50 51 35 -1 51 37 35 -1 51 52 37 -1 51 53 52 -1 51 54 53 -1 54 55 53 -1 54 56 55 -1 56 20 19 -1 19 55 56 -1 19 57 55 -1 19 58 57 -1 19 59 58 -1 20 56 60 -1 60 24 20 -1 24 21 20 -1 24 23 21 -1 61 60 56 -1 56 54 61 -1 61 54 25 -1 51 62 25 -1 25 54 51 -1 62 22 25 -1 25 24 60 -1 60 61 25 -1 48 46 45 -1 45 63 48 -1 63 64 48 -1 22 62 65 -1 65 66 22 -1 65 67 66 -1 67 68 69 -1 69 66 67 -1 21 23 69 -1 69 68 21 -1 68 17 21 -1 69 23 22 -1 22 66 69 -1 37 52 45 -1 45 38 37 -1 45 44 38 -1 44 70 38 -1 70 71 38 -1 63 45 52 -1 64 32 48 -1 31 40 48 -1 48 32 31 -1 40 49 48 -1 40 72 49 -1 40 73 72 -1 70 44 47 -1 47 49 70 -1 49 72 70 -1 73 40 39 -1 39 74 73 -1 74 75 73 -1 39 41 42 -1 42 74 39 -1 76 65 62 -1 62 50 76 -1 50 62 51 -1 30 32 64 -1 52 53 77 -1 77 70 52 -1 70 63 52 -1 70 72 63 -1 72 64 63 -1 72 73 64 -1 73 75 64 -1 75 30 64 -1 71 70 77 -1 77 53 55 -1 55 78 77 -1 78 55 57 -1 57 79 78 -1 79 57 58 -1 58 80 79 -1 80 58 59 -1 59 81 80 -1 76 50 34 -1 34 33 76 -1 19 18 10 -1 10 59 19 -1 10 16 59 -1 16 12 59 -1 18 81 11 -1 11 10 18 -1 81 12 11 -1 81 59 12 -1 18 17 68 -1 68 67 18 -1 67 78 18 -1 78 79 18 -1 79 80 18 -1 80 81 18 -1 67 65 77 -1 77 78 67 -1 65 76 33 -1 33 36 65 -1 36 38 65 -1 38 71 65 -1 71 77 65 -1 74 42 43 -1 43 82 74 -1 43 27 26 -1 26 82 43 -1 75 74 82 -1 82 83 75 -1 82 26 30 -1 30 83 82 -1 83 30 75 -1 84 85 86 -1 86 87 84 -1 88 87 86 -1 86 89 88 -1 90 85 84 -1 84 91 90 -1 84 87 88 -1 88 91 84 -1 90 89 86 -1 86 85 90 -1 88 89 90 -1 90 91 88 -1 92 93 94 -1 94 95 92 -1 94 93 96 -1 96 97 94 -1 97 96 98 -1 98 99 97 -1 98 92 95 -1 95 99 98 -1 100 101 102 -1 102 103 100 -1 101 104 102 -1 102 105 103 -1 105 106 103 -1 106 107 103 -1 106 105 108 -1 108 109 106 -1 110 111 112 -1 113 114 112 -1 112 111 113 -1 114 108 112 -1 114 109 108 -1 114 115 109 -1 116 117 118 -1 118 119 116 -1 119 118 120 -1 120 121 119 -1 120 122 123 -1 123 121 120 -1 122 124 125 -1 125 123 122 -1 126 127 128 -1 128 129 126 -1 130 131 128 -1 128 127 130 -1 131 130 132 -1 132 133 131 -1 134 135 136 -1 136 95 134 -1 136 137 95 -1 95 94 134 -1 94 97 134 -1 131 133 129 -1 129 128 131 -1 137 138 99 -1 99 95 137 -1 138 97 99 -1 138 134 97 -1 138 133 134 -1 138 129 133 -1 137 136 139 -1 136 140 141 -1 141 139 136 -1 136 142 143 -1 143 140 136 -1 115 114 144 -1 144 145 115 -1 145 125 115 -1 145 119 125 -1 145 116 119 -1 119 123 125 -1 119 121 123 -1 144 146 147 -1 147 145 144 -1 137 148 149 -1 149 138 137 -1 147 150 151 -1 151 141 147 -1 141 145 147 -1 126 129 138 -1 138 152 126 -1 138 149 152 -1 117 116 145 -1 145 140 117 -1 140 153 117 -1 145 141 140 -1 154 155 135 -1 135 134 154 -1 153 124 118 -1 118 117 153 -1 124 122 118 -1 122 120 118 -1 156 157 158 -1 158 153 156 -1 158 113 153 -1 113 111 153 -1 111 124 153 -1 159 160 161 -1 161 162 159 -1 103 162 161 -1 161 100 103 -1 144 114 113 -1 113 158 144 -1 144 158 157 -1 157 146 144 -1 147 146 157 -1 157 150 147 -1 156 150 157 -1 163 151 143 -1 143 142 163 -1 108 105 102 -1 102 112 108 -1 110 112 102 -1 102 104 110 -1 136 135 142 -1 155 148 142 -1 142 135 155 -1 148 163 142 -1 148 139 163 -1 148 137 139 -1 141 151 163 -1 163 139 141 -1 132 154 134 -1 134 133 132 -1 156 153 143 -1 143 150 156 -1 153 140 143 -1 143 151 150 -1 164 165 159 -1 159 162 164 -1 162 166 164 -1 162 103 166 -1 103 107 166 -1 101 100 161 -1 161 167 101 -1 161 168 167 -1 160 169 170 -1 170 161 160 -1 170 168 161 -1 148 155 98 -1 98 149 148 -1 98 96 149 -1 96 93 149 -1 93 126 149 -1 126 152 149 -1 155 154 92 -1 92 98 155 -1 154 93 92 -1 154 126 93 -1 154 132 126 -1 132 127 126 -1 132 130 127 -1 167 168 166 -1 166 107 167 -1 107 106 167 -1 101 167 106 -1 106 104 101 -1 104 106 109 -1 109 110 104 -1 109 111 110 -1 109 124 111 -1 109 125 124 -1 125 109 115 -1 171 168 170 -1 170 172 171 -1 173 172 170 -1 170 169 173 -1 171 172 164 -1 164 166 171 -1 164 172 173 -1 173 165 164 -1 166 168 171 -1 165 173 169 -1 169 159 165 -1 169 160 159 -1 174 175 176 -1 177 174 176 -1 177 178 174 -1 179 178 177 -1 179 180 178 -1 179 181 180 -1 182 183 184 -1 184 185 182 -1 186 187 188 -1 188 189 186 -1 187 183 182 -1 182 188 187 -1 185 184 186 -1 186 189 185 -1 190 191 192 -1 192 193 190 -1 193 192 194 -1 194 195 193 -1 194 196 197 -1 197 195 194 -1 196 191 190 -1 190 197 196 -1 198 199 200 -1 200 201 198 -1 198 201 202 -1 202 203 198 -1 202 204 205 -1 205 203 202 -1 205 204 200 -1 200 199 205 -1 198 203 205 -1 205 199 198 -1 206 207 174 -1 174 178 206 -1 208 206 178 -1 178 180 208 -1 179 177 209 -1 209 210 179 -1 209 211 212 -1 212 210 209 -1 213 214 215 -1 215 216 213 -1 217 218 219 -1 219 220 217 -1 218 217 215 -1 215 214 218 -1 221 222 223 -1 223 224 221 -1 225 226 227 -1 227 228 225 -1 228 224 223 -1 223 225 228 -1 229 230 231 -1 231 207 229 -1 206 208 232 -1 232 233 206 -1 233 207 206 -1 233 229 207 -1 174 207 231 -1 231 175 174 -1 229 227 226 -1 226 234 229 -1 234 230 229 -1 222 221 235 -1 181 179 210 -1 210 212 181 -1 234 226 187 -1 187 236 234 -1 226 225 187 -1 187 186 236 -1 186 184 236 -1 184 214 236 -1 184 218 214 -1 214 213 236 -1 223 222 235 -1 235 237 223 -1 237 225 223 -1 237 183 225 -1 183 187 225 -1 237 184 183 -1 237 218 184 -1 237 219 218 -1 188 197 190 -1 190 189 188 -1 190 193 189 -1 193 185 189 -1 237 235 221 -1 221 224 237 -1 224 228 237 -1 228 182 237 -1 228 188 182 -1 182 185 237 -1 185 217 237 -1 217 220 237 -1 228 227 229 -1 229 197 228 -1 229 233 197 -1 197 188 228 -1 233 195 197 -1 233 193 195 -1 233 185 193 -1 233 215 185 -1 215 217 185 -1 233 216 215 -1 211 176 202 -1 202 212 211 -1 176 175 202 -1 202 201 212 -1 201 194 212 -1 194 192 212 -1 192 180 212 -1 192 208 180 -1 180 181 212 -1 231 230 234 -1 234 191 231 -1 234 236 191 -1 191 175 231 -1 191 204 175 -1 204 202 175 -1 191 196 204 -1 236 192 191 -1 236 208 192 -1 236 232 208 -1 200 204 196 -1 196 194 200 -1 194 201 200 -1 213 216 233 -1 233 236 213 -1 233 232 236 -1 219 237 220 -1 209 177 176 -1 176 211 209 -1 238 239 240 -1 240 241 238 -1 242 243 239 -1 239 238 242 -1 244 243 242 -1 242 245 244 -1 242 246 245 -1 244 245 241 -1 241 240 244 -1 247 248 249 -1 249 250 247 -1 251 252 247 -1 247 250 251 -1 248 253 254 -1 254 249 248 -1 254 253 252 -1 252 251 254 -1 255 256 257 -1 257 258 255 -1 257 259 258 -1 260 261 259 -1 259 262 260 -1 257 263 264 -1 264 259 257 -1 264 262 259 -1 264 265 262 -1 265 266 262 -1 265 267 266 -1 267 268 266 -1 267 240 268 -1 240 269 268 -1 267 244 240 -1 240 239 269 -1 239 270 269 -1 267 271 272 -1 272 244 267 -1 272 243 244 -1 272 239 243 -1 272 270 239 -1 273 258 259 -1 259 274 273 -1 259 275 274 -1 276 255 258 -1 258 273 276 -1 273 274 276 -1 277 263 257 -1 257 278 277 -1 257 256 279 -1 279 278 257 -1 279 256 255 -1 255 276 279 -1 278 279 276 -1 276 274 278 -1 274 277 278 -1 274 280 277 -1 274 275 280 -1 275 281 280 -1 281 275 282 -1 283 284 285 -1 285 286 283 -1 286 287 283 -1 287 288 283 -1 282 261 260 -1 260 289 282 -1 289 290 282 -1 289 291 290 -1 290 292 282 -1 292 293 282 -1 293 281 282 -1 291 268 269 -1 269 294 291 -1 294 290 291 -1 294 295 290 -1 294 296 295 -1 294 297 296 -1 297 298 296 -1 297 299 300 -1 300 301 297 -1 301 302 297 -1 301 283 302 -1 283 288 302 -1 302 298 297 -1 302 288 303 -1 303 304 302 -1 303 305 304 -1 305 306 304 -1 306 307 304 -1 306 308 307 -1 308 309 307 -1 309 310 307 -1 310 311 307 -1 312 306 305 -1 313 314 315 -1 315 316 313 -1 315 317 316 -1 315 318 317 -1 319 320 321 -1 322 318 323 -1 323 324 322 -1 324 320 322 -1 324 321 320 -1 324 325 321 -1 325 326 321 -1 325 327 326 -1 325 328 327 -1 325 329 328 -1 330 331 332 -1 332 333 330 -1 332 323 333 -1 323 315 333 -1 323 318 315 -1 332 334 323 -1 332 335 334 -1 272 271 336 -1 336 337 272 -1 336 338 337 -1 338 339 337 -1 339 335 337 -1 335 332 337 -1 264 263 277 -1 277 340 264 -1 277 338 340 -1 338 336 340 -1 277 341 338 -1 277 342 341 -1 277 280 342 -1 343 344 345 -1 345 346 343 -1 347 343 346 -1 346 348 347 -1 299 349 331 -1 331 248 299 -1 248 300 299 -1 331 253 248 -1 248 247 300 -1 247 350 300 -1 253 331 330 -1 330 252 253 -1 330 247 252 -1 330 350 247 -1 330 351 350 -1 351 352 350 -1 351 353 352 -1 353 284 352 -1 353 285 284 -1 353 314 313 -1 313 285 353 -1 345 344 354 -1 354 355 345 -1 272 337 344 -1 344 270 272 -1 344 343 270 -1 354 344 337 -1 355 332 345 -1 331 349 345 -1 345 332 331 -1 349 346 345 -1 275 259 261 -1 261 282 275 -1 356 357 293 -1 293 292 356 -1 358 356 292 -1 292 290 358 -1 359 358 290 -1 290 295 359 -1 296 360 359 -1 359 295 296 -1 356 358 359 -1 359 360 356 -1 360 357 356 -1 361 266 268 -1 268 291 361 -1 289 362 361 -1 361 291 289 -1 260 262 362 -1 362 289 260 -1 362 262 266 -1 266 361 362 -1 346 349 299 -1 299 348 346 -1 299 297 348 -1 297 294 347 -1 347 348 297 -1 269 270 343 -1 343 347 269 -1 347 294 269 -1 363 335 339 -1 339 364 363 -1 339 338 365 -1 365 364 339 -1 338 341 366 -1 366 365 338 -1 341 342 367 -1 367 366 341 -1 364 365 366 -1 366 363 364 -1 366 367 363 -1 265 264 340 -1 340 368 265 -1 368 340 336 -1 336 369 368 -1 336 271 267 -1 267 369 336 -1 267 265 368 -1 368 369 267 -1 355 354 337 -1 337 332 355 -1 301 370 371 -1 371 283 301 -1 350 370 301 -1 301 300 350 -1 371 352 284 -1 284 283 371 -1 350 352 371 -1 371 370 350 -1 372 373 302 -1 302 304 372 -1 307 374 372 -1 372 304 307 -1 373 375 298 -1 298 302 373 -1 375 373 372 -1 372 374 375 -1 330 333 376 -1 376 351 330 -1 376 333 315 -1 315 377 376 -1 315 314 353 -1 353 377 315 -1 377 353 351 -1 351 376 377 -1 378 325 324 -1 324 379 378 -1 324 323 380 -1 380 379 324 -1 323 334 381 -1 381 380 323 -1 379 380 381 -1 381 378 379 -1 310 382 383 -1 383 311 310 -1 382 310 309 -1 309 384 382 -1 384 309 308 -1 308 385 384 -1 386 385 308 -1 308 306 386 -1 386 306 312 -1 312 387 386 -1 385 386 387 -1 387 384 385 -1 387 382 384 -1 387 383 382 -1 321 388 389 -1 389 319 321 -1 321 326 390 -1 390 388 321 -1 327 391 390 -1 390 326 327 -1 328 392 391 -1 391 327 328 -1 392 328 329 -1 329 393 392 -1 389 388 390 -1 390 391 389 -1 391 392 389 -1 392 393 389 -1 394 320 319 -1 319 395 394 -1 322 320 394 -1 394 396 322 -1 318 322 396 -1 396 397 318 -1 317 318 397 -1 397 398 317 -1 316 317 398 -1 398 399 316 -1 305 400 401 -1 401 312 305 -1 400 305 303 -1 303 402 400 -1 403 400 402 -1 402 404 403 -1 405 406 403 -1 403 404 405 -1 396 394 406 -1 406 405 396 -1 400 403 407 -1 407 401 400 -1 406 394 395 -1 395 408 406 -1 403 406 408 -1 408 407 403 -1 402 303 288 -1 288 409 402 -1 404 402 409 -1 409 410 404 -1 411 405 404 -1 404 410 411 -1 397 396 405 -1 405 411 397 -1 409 288 287 -1 287 412 409 -1 410 409 412 -1 412 413 410 -1 414 411 410 -1 410 413 414 -1 398 397 411 -1 411 414 398 -1 412 287 286 -1 286 415 412 -1 413 412 415 -1 415 416 413 -1 417 414 413 -1 413 416 417 -1 399 398 414 -1 414 417 399 -1 285 313 316 -1 316 399 285 -1 399 417 285 -1 417 416 285 -1 416 415 285 -1 415 286 285 -1 329 325 378 -1 378 393 329 -1 334 335 363 -1 363 245 334 -1 363 241 245 -1 245 246 334 -1 246 242 334 -1 242 238 334 -1 238 254 334 -1 254 251 334 -1 251 250 334 -1 250 375 334 -1 375 381 334 -1 375 374 381 -1 374 378 381 -1 374 307 378 -1 307 311 378 -1 311 393 378 -1 311 383 393 -1 383 389 393 -1 383 387 389 -1 387 319 389 -1 387 395 319 -1 387 312 401 -1 401 395 387 -1 401 408 395 -1 401 407 408 -1 342 280 357 -1 357 367 342 -1 357 360 367 -1 360 363 367 -1 360 296 363 -1 296 241 363 -1 296 298 241 -1 298 238 241 -1 298 249 238 -1 249 254 238 -1 298 250 249 -1 298 375 250 -1 280 281 293 -1 293 357 280 -1 418 419 420 -1 420 421 418 -1 421 422 418 -1 422 423 418 -1 424 425 426 -1 426 427 424 -1 427 428 424 -1 427 429 428 -1 429 430 428 -1 429 431 430 -1 431 419 430 -1 431 432 419 -1 432 433 419 -1 432 423 433 -1 433 420 419 -1 423 422 433 -1 423 432 434 -1 434 435 423 -1 434 436 435 -1 436 437 435 -1 438 439 440 -1 440 441 438 -1 440 442 441 -1 443 444 445 -1 445 446 443 -1 446 431 429 -1 429 443 446 -1 447 448 449 -1 449 450 447 -1 450 449 451 -1 451 452 450 -1 452 451 453 -1 453 454 452 -1 454 455 452 -1 454 456 455 -1 453 448 447 -1 447 454 453 -1 457 421 420 -1 420 458 457 -1 459 422 421 -1 421 457 459 -1 433 422 459 -1 459 460 433 -1 420 433 460 -1 460 458 420 -1 436 434 461 -1 437 436 460 -1 460 459 437 -1 459 457 437 -1 457 462 437 -1 461 463 462 -1 462 458 461 -1 458 436 461 -1 458 460 436 -1 462 457 458 -1 464 465 466 -1 466 467 464 -1 468 469 465 -1 465 464 468 -1 470 469 468 -1 468 471 470 -1 472 473 470 -1 470 471 472 -1 474 475 476 -1 476 477 474 -1 477 478 474 -1 477 479 478 -1 479 473 478 -1 479 480 473 -1 480 470 473 -1 480 481 470 -1 481 469 470 -1 481 482 469 -1 482 465 469 -1 482 483 465 -1 483 466 465 -1 483 484 466 -1 483 485 486 -1 486 484 483 -1 482 487 485 -1 485 483 482 -1 488 487 482 -1 482 481 488 -1 480 489 488 -1 488 481 480 -1 490 491 492 -1 492 493 490 -1 492 494 495 -1 495 493 492 -1 495 494 496 -1 496 497 495 -1 497 496 498 -1 498 499 497 -1 500 501 502 -1 502 447 500 -1 502 503 447 -1 447 450 500 -1 450 452 500 -1 504 500 505 -1 505 506 504 -1 506 507 504 -1 506 508 507 -1 503 509 454 -1 454 447 503 -1 509 456 454 -1 509 455 456 -1 509 452 455 -1 509 505 452 -1 505 500 452 -1 510 435 511 -1 511 512 510 -1 512 502 510 -1 512 503 502 -1 437 462 513 -1 513 511 437 -1 511 435 437 -1 498 514 507 -1 507 508 498 -1 508 499 498 -1 499 508 467 -1 467 466 499 -1 466 486 499 -1 466 484 486 -1 515 516 517 -1 517 518 515 -1 518 519 515 -1 508 520 515 -1 515 472 508 -1 515 521 472 -1 515 522 521 -1 515 519 522 -1 519 523 522 -1 519 524 523 -1 524 525 523 -1 472 471 508 -1 471 468 508 -1 468 464 508 -1 464 467 508 -1 525 526 527 -1 527 523 525 -1 526 528 527 -1 526 529 528 -1 526 530 529 -1 438 531 532 -1 532 439 438 -1 531 533 534 -1 534 532 531 -1 535 534 533 -1 533 536 535 -1 537 535 536 -1 536 538 537 -1 539 537 538 -1 538 540 539 -1 539 540 541 -1 541 542 539 -1 542 541 543 -1 543 544 542 -1 545 544 543 -1 543 546 545 -1 547 545 546 -1 546 548 547 -1 549 547 548 -1 548 550 549 -1 425 549 550 -1 550 426 425 -1 535 537 539 -1 549 425 424 -1 424 440 549 -1 440 547 549 -1 440 545 547 -1 440 544 545 -1 440 542 544 -1 440 539 542 -1 440 535 539 -1 440 534 535 -1 440 532 534 -1 440 439 532 -1 428 430 445 -1 445 444 428 -1 441 427 426 -1 426 550 441 -1 550 548 441 -1 548 546 441 -1 546 543 441 -1 543 541 441 -1 541 540 441 -1 540 536 441 -1 536 533 441 -1 533 531 441 -1 531 438 441 -1 536 540 538 -1 429 427 443 -1 441 442 443 -1 443 427 441 -1 442 444 443 -1 442 440 444 -1 440 428 444 -1 440 424 428 -1 434 432 446 -1 446 461 434 -1 432 431 446 -1 446 445 461 -1 445 463 461 -1 445 430 419 -1 419 463 445 -1 551 552 553 -1 553 554 551 -1 502 554 553 -1 553 510 502 -1 515 555 556 -1 556 516 515 -1 515 520 557 -1 557 555 515 -1 558 559 560 -1 560 561 558 -1 562 559 558 -1 558 563 562 -1 564 565 566 -1 566 567 564 -1 567 568 564 -1 568 569 564 -1 570 571 556 -1 556 555 570 -1 555 572 570 -1 555 557 572 -1 557 573 572 -1 573 574 572 -1 573 575 574 -1 573 576 575 -1 573 577 576 -1 573 491 577 -1 573 514 491 -1 575 565 574 -1 575 566 565 -1 514 492 491 -1 514 494 492 -1 514 496 494 -1 514 498 496 -1 561 560 578 -1 578 579 561 -1 579 580 561 -1 580 505 561 -1 505 509 561 -1 581 580 579 -1 579 582 581 -1 517 516 556 -1 556 571 517 -1 423 435 553 -1 553 418 423 -1 553 552 418 -1 552 511 418 -1 511 513 418 -1 510 553 435 -1 503 512 551 -1 551 583 503 -1 584 583 554 -1 554 501 584 -1 554 502 501 -1 583 551 554 -1 511 552 551 -1 551 512 511 -1 507 514 582 -1 573 557 520 -1 520 582 573 -1 582 514 573 -1 520 581 582 -1 520 506 581 -1 520 508 506 -1 580 581 506 -1 506 505 580 -1 419 418 513 -1 513 463 419 -1 513 462 463 -1 503 583 563 -1 563 558 503 -1 558 561 503 -1 561 509 503 -1 579 578 500 -1 500 504 579 -1 507 582 579 -1 579 504 507 -1 480 530 526 -1 526 489 480 -1 526 569 489 -1 526 564 569 -1 578 560 559 -1 562 584 501 -1 501 559 562 -1 501 578 559 -1 501 500 578 -1 480 479 529 -1 529 530 480 -1 479 477 528 -1 528 529 479 -1 476 527 528 -1 528 477 476 -1 475 523 527 -1 527 476 475 -1 474 522 523 -1 523 475 474 -1 474 478 521 -1 521 522 474 -1 478 473 472 -1 472 521 478 -1 525 565 564 -1 564 526 525 -1 563 583 453 -1 453 451 563 -1 451 449 563 -1 449 562 563 -1 584 562 448 -1 448 583 584 -1 448 453 583 -1 562 449 448 -1 519 518 570 -1 570 572 519 -1 524 574 565 -1 565 525 524 -1 518 517 571 -1 571 570 518 -1 524 519 572 -1 572 574 524 -1 576 585 586 -1 586 575 576 -1 568 567 587 -1 587 588 568 -1 576 577 589 -1 589 585 576 -1 569 568 588 -1 588 489 569 -1 587 590 586 -1 586 585 587 -1 585 588 587 -1 585 589 588 -1 589 489 588 -1 589 490 489 -1 490 488 489 -1 490 493 488 -1 493 487 488 -1 493 495 487 -1 495 485 487 -1 495 497 485 -1 497 486 485 -1 497 499 486 -1 577 491 490 -1 490 589 577 -1 575 586 590 -1 590 566 575 -1 566 590 587 -1 587 567 566 -1 591 592 593 -1 592 591 594 -1 595 593 592 -1 593 595 596 -1 597 598 599 -1 598 597 600 -1 600 601 598 -1 601 600 602 -1 599 603 604 -1 603 599 598 -1 601 593 598 -1 593 601 591 -1 603 593 596 -1 593 603 598 -1 605 606 607 -1 606 605 608 -1 609 607 606 -1 607 609 610 -1 605 611 608 -1 595 603 596 -1 612 611 613 -1 611 612 608 -1 613 611 603 -1 613 603 595 -1 614 615 616 -1 615 614 617 -1 617 618 615 -1 618 617 619 -1 620 621 616 -1 621 620 622 -1 621 622 604 -1 604 622 597 -1 597 599 604 -1 614 616 621 -1 623 624 625 -1 624 623 626 -1 627 624 626 -1 624 627 628 -1 627 629 628 -1 629 627 630 -1 629 623 625 -1 623 629 630 -1 629 624 628 -1 624 629 625 -1 623 627 626 -1 627 623 630 -1 631 620 632 -1 620 631 622 -1 633 612 613 -1 612 633 634 -1 604 611 621 -1 611 604 603 -1 605 621 611 -1 621 605 607 -1 610 617 607 -1 617 610 619 -1 621 617 614 -1 617 621 607 -1 635 636 637 -1 636 635 638 -1 618 639 640 -1 639 641 642 -1 641 639 643 -1 643 639 644 -1 644 639 645 -1 645 639 646 -1 646 639 602 -1 602 639 601 -1 601 639 618 -1 601 618 619 -1 647 648 645 -1 648 647 642 -1 648 642 641 -1 645 648 644 -1 649 594 591 -1 610 601 619 -1 601 610 591 -1 650 610 609 -1 610 650 591 -1 591 650 651 -1 591 651 649 -1 651 650 652 -1 653 654 652 -1 654 653 655 -1 655 653 656 -1 656 653 657 -1 651 658 657 -1 658 651 652 -1 658 652 654 -1 657 658 656 -1 659 660 661 -1 660 659 662 -1 663 664 665 -1 664 663 666 -1 667 653 668 -1 653 667 657 -1 669 670 671 -1 670 669 672 -1 673 674 675 -1 674 673 676 -1 663 677 678 -1 677 663 665 -1 677 665 679 -1 677 679 680 -1 664 681 682 -1 681 664 666 -1 683 684 685 -1 684 683 686 -1 669 686 683 -1 686 669 671 -1 685 687 688 -1 687 685 684 -1 688 689 690 -1 689 688 687 -1 676 691 674 -1 691 676 692 -1 693 694 695 -1 694 693 696 -1 680 697 670 -1 697 680 698 -1 698 680 699 -1 699 680 679 -1 684 689 687 -1 689 684 634 -1 634 684 686 -1 634 686 671 -1 634 671 612 -1 612 671 700 -1 612 700 701 -1 612 701 702 -1 612 702 608 -1 700 671 670 -1 700 670 697 -1 608 702 703 -1 608 609 606 -1 609 608 703 -1 609 703 704 -1 609 704 705 -1 609 705 706 -1 609 706 650 -1 694 673 675 -1 673 694 696 -1 640 707 708 -1 707 640 639 -1 707 695 708 -1 695 707 693 -1 682 667 668 -1 667 682 681 -1 672 680 670 -1 680 672 677 -1 709 710 711 -1 710 709 712 -1 710 713 714 -1 713 710 712 -1 715 716 717 -1 716 715 718 -1 719 714 720 -1 714 719 710 -1 710 719 721 -1 710 721 711 -1 711 721 722 -1 711 722 723 -1 723 722 724 -1 724 722 725 -1 724 725 726 -1 726 725 727 -1 726 727 728 -1 728 727 729 -1 728 729 645 -1 645 729 647 -1 645 730 728 -1 730 645 646 -1 730 726 728 -1 726 730 731 -1 731 724 726 -1 724 731 732 -1 733 711 723 -1 711 733 709 -1 724 733 723 -1 733 724 732 -1 714 734 720 -1 734 714 713 -1 720 735 719 -1 735 720 734 -1 735 721 719 -1 721 735 736 -1 736 722 721 -1 722 736 737 -1 738 739 740 -1 739 738 741 -1 742 740 743 -1 740 742 738 -1 744 742 743 -1 742 744 745 -1 692 745 746 -1 745 692 742 -1 742 692 676 -1 742 676 738 -1 738 676 673 -1 738 673 741 -1 741 673 696 -1 741 696 747 -1 747 696 693 -1 747 693 748 -1 748 693 707 -1 748 707 749 -1 749 707 639 -1 749 639 642 -1 691 746 750 -1 746 691 692 -1 750 745 744 -1 745 750 746 -1 633 689 634 -1 689 633 690 -1 660 751 752 -1 751 660 662 -1 699 753 698 -1 753 699 754 -1 755 752 751 -1 752 755 756 -1 739 722 661 -1 722 739 741 -1 661 737 659 -1 737 661 722 -1 729 748 749 -1 748 729 727 -1 638 757 636 -1 757 638 632 -1 757 632 756 -1 756 632 752 -1 618 616 615 -1 616 618 675 -1 675 618 694 -1 694 618 695 -1 695 618 708 -1 708 618 640 -1 616 632 620 -1 632 616 674 -1 632 674 691 -1 632 691 750 -1 632 750 752 -1 752 750 660 -1 674 616 675 -1 660 744 661 -1 744 660 750 -1 661 744 743 -1 661 743 740 -1 661 740 739 -1 638 631 632 -1 631 638 635 -1 637 757 758 -1 757 637 636 -1 747 722 741 -1 722 747 725 -1 642 729 749 -1 729 642 647 -1 727 747 748 -1 747 727 725 -1 758 756 755 -1 756 758 757 -1 753 759 760 -1 759 753 761 -1 761 753 754 -1 761 754 762 -1 762 754 665 -1 762 665 763 -1 763 665 764 -1 764 665 664 -1 764 664 765 -1 765 664 682 -1 765 682 766 -1 766 682 668 -1 766 668 652 -1 652 668 653 -1 763 704 703 -1 704 763 764 -1 679 754 699 -1 754 679 665 -1 766 650 706 -1 650 766 652 -1 705 766 706 -1 766 705 765 -1 701 762 702 -1 762 701 761 -1 702 763 703 -1 763 702 762 -1 697 753 760 -1 753 697 698 -1 700 760 759 -1 760 700 697 -1 704 765 705 -1 765 704 764 -1 701 759 761 -1 759 701 700 -1 767 768 769 -1 768 767 770 -1 771 768 770 -1 768 771 772 -1 771 773 772 -1 773 771 774 -1 773 767 769 -1 767 773 774 -1 773 768 772 -1 768 773 769 -1 767 771 770 -1 771 767 774 -1 775 648 776 -1 648 775 644 -1 777 658 778 -1 658 777 656 -1 655 777 779 -1 777 655 656 -1 779 778 780 -1 778 779 777 -1 643 775 781 -1 775 643 644 -1 641 781 782 -1 781 641 643 -1 781 776 782 -1 776 781 775 -1 776 641 782 -1 641 776 648 -1 778 654 780 -1 654 778 658 -1 654 779 780 -1 779 654 655 -1 663 783 784 -1 783 663 678 -1 785 715 786 -1 715 785 718 -1 787 788 789 -1 788 787 790 -1 717 791 792 -1 791 717 716 -1 793 787 794 -1 787 793 790 -1 790 793 795 -1 790 795 784 -1 784 795 786 -1 784 786 663 -1 663 786 715 -1 663 715 666 -1 666 715 717 -1 666 717 681 -1 681 717 792 -1 681 792 667 -1 667 792 651 -1 667 651 657 -1 784 788 790 -1 788 784 783 -1 791 651 792 -1 651 791 649 -1 793 796 797 -1 796 793 794 -1 793 798 795 -1 798 793 797 -1 794 789 796 -1 789 794 787 -1 795 785 786 -1 785 795 798 -1 690 685 688 -1 685 690 633 -1 685 633 683 -1 683 633 669 -1 594 595 592 -1 595 594 718 -1 718 594 716 -1 716 594 791 -1 791 594 649 -1 595 633 613 -1 633 595 798 -1 633 798 797 -1 633 797 796 -1 633 796 669 -1 669 796 672 -1 798 595 785 -1 785 595 718 -1 672 789 677 -1 789 672 796 -1 677 789 788 -1 677 788 783 -1 677 783 678 -1 659 734 662 -1 734 659 735 -1 735 659 736 -1 736 659 737 -1 758 635 637 -1 635 758 631 -1 631 758 755 -1 631 755 751 -1 631 751 622 -1 622 751 713 -1 622 713 712 -1 622 712 709 -1 622 709 597 -1 713 751 662 -1 713 662 734 -1 597 709 733 -1 597 733 732 -1 597 602 600 -1 602 597 732 -1 602 732 731 -1 602 731 730 -1 602 730 646 -1 799 800 801 -1 800 799 802 -1 801 803 799 -1 803 801 804 -1 800 804 801 -1 804 800 805 -1 803 802 799 -1 802 803 806 -1 807 808 809 -1 808 807 810 -1 811 812 813 -1 812 811 814 -1 813 807 809 -1 807 813 812 -1 809 811 813 -1 811 809 808 -1 814 807 812 -1 807 814 810 -1 806 800 802 -1 800 806 805 -1 815 816 817 -1 816 815 818 -1 819 816 818 -1 816 819 820 -1 819 821 820 -1 821 819 822 -1 821 815 817 -1 815 821 822 -1 821 816 820 -1 816 821 817 -1 815 819 818 -1 819 815 822 -1 823 824 825 -1 824 823 826 -1 826 823 827 -1 826 827 828 -1 829 830 831 -1 830 829 832 -1 830 832 833 -1 832 834 833 -1 834 832 835 -1 834 836 837 -1 836 834 835 -1 836 835 838 -1 836 838 839 -1 839 838 840 -1 839 840 841 -1 842 808 841 -1 808 842 811 -1 811 842 814 -1 814 842 843 -1 843 844 845 -1 844 843 842 -1 844 842 846 -1 844 846 847 -1 839 810 843 -1 810 839 841 -1 810 841 808 -1 843 810 814 -1 830 804 827 -1 804 830 803 -1 803 830 806 -1 806 830 848 -1 848 830 849 -1 849 830 850 -1 850 830 833 -1 828 805 848 -1 805 828 827 -1 805 827 804 -1 848 805 806 -1 851 852 853 -1 852 851 854 -1 855 856 857 -1 856 855 858 -1 859 860 861 -1 860 859 862 -1 835 861 860 -1 861 835 832 -1 863 864 865 -1 864 863 866 -1 824 867 825 -1 867 824 868 -1 835 856 838 -1 856 835 860 -1 837 862 834 -1 860 857 856 -1 857 860 862 -1 857 862 837 -1 869 870 871 -1 870 869 872 -1 830 873 831 -1 873 830 874 -1 875 876 877 -1 876 875 878 -1 869 878 875 -1 878 869 871 -1 877 879 880 -1 879 877 876 -1 880 881 882 -1 881 880 879 -1 874 883 873 -1 883 874 884 -1 847 885 870 -1 885 847 886 -1 886 847 887 -1 887 847 846 -1 876 881 879 -1 881 876 858 -1 858 876 878 -1 858 878 871 -1 858 871 856 -1 856 871 888 -1 856 888 889 -1 856 889 890 -1 856 890 838 -1 888 871 870 -1 888 870 885 -1 838 890 840 -1 872 847 870 -1 847 872 844 -1 824 891 868 -1 891 824 892 -1 892 824 893 -1 893 824 826 -1 894 863 865 -1 863 894 851 -1 851 894 895 -1 851 895 896 -1 851 896 854 -1 854 896 897 -1 854 897 898 -1 854 898 899 -1 854 899 850 -1 897 896 868 -1 897 868 891 -1 850 899 849 -1 882 877 880 -1 877 882 855 -1 877 855 875 -1 875 855 869 -1 837 855 857 -1 855 837 900 -1 855 900 901 -1 855 901 902 -1 855 902 869 -1 869 902 872 -1 900 837 836 -1 872 903 844 -1 903 872 902 -1 844 903 904 -1 844 904 905 -1 844 905 845 -1 906 836 839 -1 836 906 900 -1 907 900 906 -1 900 907 901 -1 907 902 901 -1 902 907 908 -1 908 903 902 -1 903 908 909 -1 909 904 903 -1 904 909 910 -1 911 904 910 -1 904 911 905 -1 843 905 911 -1 905 843 845 -1 907 909 908 -1 909 907 910 -1 910 907 906 -1 910 906 911 -1 911 906 839 -1 911 839 843 -1 852 861 829 -1 861 852 854 -1 861 854 859 -1 859 854 850 -1 850 833 859 -1 832 829 861 -1 833 862 859 -1 862 833 834 -1 899 912 913 -1 912 899 898 -1 912 897 914 -1 897 912 898 -1 915 914 916 -1 914 915 912 -1 912 915 917 -1 912 917 913 -1 913 917 828 -1 913 828 848 -1 849 913 848 -1 913 849 899 -1 914 891 916 -1 891 914 897 -1 916 892 915 -1 892 916 891 -1 892 917 915 -1 917 892 893 -1 893 828 917 -1 828 893 826 -1 918 823 919 -1 823 918 827 -1 920 919 921 -1 919 920 918 -1 922 920 921 -1 920 922 923 -1 889 924 925 -1 924 889 888 -1 888 926 924 -1 926 888 885 -1 927 924 926 -1 924 927 925 -1 925 927 928 -1 925 928 929 -1 929 928 842 -1 929 842 841 -1 885 927 926 -1 927 885 886 -1 890 841 840 -1 841 890 929 -1 889 929 890 -1 929 889 925 -1 894 930 895 -1 930 894 931 -1 846 928 887 -1 928 846 842 -1 932 933 934 -1 933 932 935 -1 936 933 935 -1 933 936 937 -1 936 938 937 -1 938 936 939 -1 938 932 934 -1 932 938 939 -1 938 933 937 -1 933 938 934 -1 932 936 935 -1 936 932 939 -1 865 931 894 -1 931 865 864 -1 866 851 853 -1 851 866 863 -1 883 940 941 -1 940 883 884 -1 867 896 942 -1 896 867 868 -1 855 881 858 -1 881 855 882 -1 941 923 922 -1 923 941 940 -1 887 927 886 -1 927 887 928 -1 853 864 866 -1 864 853 931 -1 931 853 930 -1 930 853 942 -1 829 853 852 -1 853 829 873 -1 853 873 883 -1 853 883 941 -1 853 941 942 -1 942 941 867 -1 873 829 831 -1 867 922 825 -1 922 867 941 -1 825 922 921 -1 825 921 919 -1 825 919 823 -1 895 942 896 -1 942 895 930 -1 884 923 940 -1 923 884 920 -1 920 884 874 -1 920 874 918 -1 918 874 830 -1 918 830 827 -1 "
						                >
							<Coordinate DEF="coords_ME_14-1_001"
							            point="-36.376221 2.664203 9.646523 -32.752899 1.876802 34.183594 -36.376221 1.876802 9.646523 -32.752899 2.664203 34.183594 -34.310810 2.664203 34.413647 -37.934128 2.664203 9.876575 -37.934128 1.876802 9.876575 -34.310810 1.876802 34.413647 9.055119 2.362205 45.381153 9.055119 1.574803 45.381153 9.055119 1.574803 48.414646 9.055119 2.362205 48.414646 7.480315 2.362205 48.414646 7.480315 2.362205 44.807838 8.685170 2.362205 45.246471 7.480315 1.574803 44.807838 7.480315 1.574803 48.414646 4.330709 3.937008 43.661209 17.387621 3.937008 48.414646 17.387621 0.000000 48.414646 4.330709 0.000000 43.661209 4.330709 3.543307 43.661209 0.393701 3.543307 44.092838 4.330709 3.543307 44.092838 4.330709 0.393701 44.092838 0.393701 0.393701 44.092838 -15.568024 0.000000 40.934330 -13.284559 0.000000 40.146931 -12.007874 -0.000000 40.146931 -12.007874 0.000000 40.934330 -17.615269 0.000000 46.052441 -11.417323 0.000000 40.934330 -11.417323 0.000000 46.052441 -6.889764 3.937008 40.146931 -6.889764 0.000000 40.146931 -6.889764 0.000000 40.934330 -6.889764 3.937008 40.934330 -7.480315 0.000000 40.934330 -7.480315 3.937008 40.934330 -12.007874 3.937008 40.934330 -11.417323 3.937008 40.934330 -12.007874 3.937008 40.146931 -13.284559 3.937008 40.146931 -15.253063 1.968504 40.146931 -7.480315 3.543307 42.115433 -7.480315 0.393701 42.115433 -10.236220 0.393701 42.115433 -10.236220 3.543307 42.115433 -11.417323 0.393701 42.115433 -11.417323 3.543307 42.115433 -5.322436 0.000000 40.146931 0.393701 0.000000 42.227921 -7.480315 0.000000 46.052441 -7.086614 0.000000 46.052441 0.393701 0.000000 46.061344 -6.984215 0.000000 46.647793 4.330709 0.000000 46.061344 -6.714056 0.000000 47.188114 -6.299212 0.000000 47.627243 -6.299212 0.000000 48.414646 4.330709 0.393701 46.061344 0.393701 0.393701 46.061344 0.393701 3.543307 42.227921 -7.480315 0.393701 46.052441 -11.417323 0.393701 46.052441 0.393701 3.937008 42.227921 0.393701 3.543307 46.061344 0.393701 3.937008 46.061344 4.330709 3.937008 46.061344 4.330709 3.543307 46.061344 -7.480315 3.543307 46.052441 -7.480315 3.937008 46.052441 -11.417323 3.543307 46.052441 -11.417323 3.937008 46.052441 -15.568024 3.937008 40.934330 -17.615269 3.937008 46.052441 -5.322436 3.937008 40.146931 -7.086614 3.937008 46.052441 -6.984215 3.937008 46.647793 -6.714056 3.937008 47.188114 -6.299212 3.937008 47.627243 -6.299212 3.937008 48.414646 -17.536528 1.968504 40.934330 -19.291338 1.968504 45.321358 -4.330709 1.574803 49.989449 -4.330709 1.574803 48.414646 -2.755905 1.574803 48.414646 -2.755905 1.574803 49.989449 -2.755905 2.362205 49.989449 -2.755905 2.362205 48.414646 -4.330709 2.362205 48.414646 -4.330709 2.362205 49.989449 20.866142 1.574803 28.346457 19.291338 1.574803 28.346457 19.291338 1.574803 31.011995 20.866142 1.574803 31.585310 19.291338 2.362205 28.346457 19.291338 2.362205 31.011995 20.866142 2.362205 28.346457 20.866142 2.362205 31.585310 39.763779 -0.000000 29.133858 39.763779 -0.000000 34.251968 39.763779 0.393701 30.314960 39.763779 3.937008 29.133858 39.763779 0.393701 34.251968 39.763779 3.543307 30.314960 39.763779 3.543307 34.251968 39.763779 3.937008 34.251968 35.826771 3.543307 30.314960 35.826771 3.543307 34.251968 35.826771 0.393701 34.251968 35.826771 -0.000000 34.251968 35.826771 0.393701 30.314960 35.826771 -0.000000 29.133858 35.826771 3.937008 29.133858 35.826771 3.937008 34.251968 34.645668 3.937008 36.601822 34.645668 -0.000000 36.601822 34.645668 -0.000000 35.814419 34.645668 3.937008 35.814419 35.060513 -0.000000 35.387642 35.060513 3.937008 35.387642 35.330673 -0.000000 34.847321 35.330673 3.937008 34.847321 35.433071 -0.000000 34.251968 35.433071 3.937008 34.251968 16.141733 2.559055 28.346457 14.566929 2.755906 28.346457 14.566929 2.755906 29.292049 16.141733 2.559055 29.865364 14.566929 1.181102 28.346457 14.566929 1.181102 29.292049 16.141733 1.377953 28.346457 16.141733 1.377953 29.865364 16.141733 -0.000000 29.865364 24.015749 -0.000000 32.731941 24.015749 0.393701 32.731941 24.015749 3.937008 32.731941 16.141733 3.937008 29.865364 24.015749 3.543307 32.731941 27.952755 0.393701 34.165230 27.952755 3.543307 34.165230 24.015749 0.393701 30.314960 27.952755 0.393701 30.314960 35.236221 3.937008 29.133858 27.952755 3.937008 34.165230 35.236221 3.937008 28.346457 27.952755 3.937008 28.346457 24.015749 3.937008 28.346457 16.141733 3.937008 28.346457 27.952755 3.543307 28.346457 27.952755 3.543307 30.314960 16.141733 3.051181 28.346457 27.952755 -0.000000 34.165230 16.141733 -0.000000 28.346457 24.015749 -0.000000 28.346457 27.952755 -0.000000 28.346457 35.236221 -0.000000 28.346457 35.236221 -0.000000 29.133858 40.354332 3.937008 28.346457 40.354332 -0.000000 28.346457 40.354332 -0.000000 29.133858 40.354332 3.937008 29.133858 24.015749 3.543307 30.314960 43.914482 3.937008 29.133858 41.631016 3.937008 28.346457 45.961723 3.937008 34.251968 41.338581 -0.000000 34.251968 45.961723 -0.000000 34.251968 41.631016 -0.000000 28.346457 43.914482 -0.000000 29.133858 47.637794 1.968504 33.520885 45.882984 1.968504 29.133858 43.599522 1.968504 28.346457 0.392747 3.543307 56.288662 0.393701 3.543306 54.320156 0.393701 3.937007 54.320156 0.393701 3.937008 60.225670 0.392747 0.393701 56.288662 0.393701 0.000000 60.225670 0.393701 0.393700 54.320156 0.393701 -0.000001 54.320156 20.866142 2.362204 60.225670 20.866142 2.362204 55.586533 20.866142 1.574803 55.586533 20.866142 1.574803 60.225670 19.291338 1.574803 55.013218 19.291338 2.362204 55.013218 19.291338 2.362204 60.225670 19.291338 1.574803 60.225670 9.055119 2.362204 60.225670 9.055119 2.362204 54.320156 9.055119 1.574803 54.320156 9.055119 1.574803 60.225670 7.480315 1.574803 54.320156 7.480315 1.574803 60.225670 7.480315 2.362204 54.320156 7.480315 2.362204 60.225670 -4.330709 1.574803 55.894962 -2.755906 1.574803 55.894962 -2.755906 1.574803 54.320156 -4.330709 1.574803 54.320156 -4.330709 3.149606 54.320156 -4.330709 3.149606 55.894962 -2.755906 3.149606 54.320156 -2.755906 3.149606 55.894962 4.329755 0.393701 56.288662 4.329755 3.543307 56.288662 4.329282 0.393701 54.320156 -7.480322 3.937008 60.225670 -7.480322 -0.000000 60.225670 -7.481741 3.937008 54.320156 -7.481741 -0.000000 54.320156 24.015749 0.000000 56.733162 24.015747 0.393701 56.733162 24.015747 0.393702 60.225670 24.015749 0.000001 60.225670 27.952749 0.393702 60.225670 27.951330 0.393702 58.165932 27.951330 0.000001 58.165932 27.952749 0.000001 60.225670 27.952749 3.937009 60.225670 27.951330 3.937009 58.165932 27.951330 3.543308 58.165932 27.952749 3.543308 60.225670 24.015749 3.543307 56.733162 24.015747 3.937008 56.733162 24.015747 3.937008 60.225670 24.015749 3.543308 60.225670 4.330701 3.937008 60.225670 4.329282 3.937008 54.320156 4.329282 3.543307 54.320156 4.329282 0.000000 54.320156 4.330701 0.000000 60.225670 17.387621 3.937008 54.320156 33.609089 3.937009 60.225670 17.387621 0.000000 54.320156 33.609089 0.000001 60.225670 19.291338 2.362205 43.202194 19.291338 2.362205 36.917503 20.866142 2.362205 37.490822 20.866142 2.362205 43.775509 19.291338 1.574803 43.202194 19.291338 1.574803 36.917503 20.866142 1.574803 37.490822 20.866142 1.574803 43.775509 19.386351 1.574803 43.236782 7.480315 2.362205 32.617641 9.055119 2.362205 33.190956 9.055119 2.362205 39.475643 7.480315 2.362205 38.902328 7.480315 1.574803 38.902328 7.480315 1.574803 32.617641 9.055119 1.574803 33.190956 9.055119 1.574803 39.475643 37.401573 2.755904 43.510632 37.401573 1.181105 43.510635 35.826771 1.377954 42.937317 35.826771 2.559055 42.937317 35.826775 3.543307 42.937317 27.952757 3.937008 40.070740 35.826775 3.937008 42.937317 27.952757 3.543309 40.070740 35.826771 0.000000 42.937317 27.952755 -0.000000 40.070740 27.952755 0.393702 40.070740 24.015749 3.543309 38.637451 24.015749 0.393702 38.637451 24.015749 3.937008 38.637451 16.141733 3.937008 35.770874 16.141733 3.543307 35.770874 24.015749 -0.000000 38.637451 16.141733 -0.000000 35.770874 35.826771 2.559056 43.904335 35.826771 2.559060 48.425194 35.826775 3.543309 48.425194 37.401573 2.755909 48.425194 35.826771 0.000003 48.425198 35.826771 1.377957 48.425194 37.401573 1.181109 48.425198 33.638069 0.000002 48.425198 33.638069 3.937006 48.425201 35.826775 3.937011 48.425194 0.393701 3.937008 31.889763 0.393701 3.937008 30.037722 -18.503937 3.937008 23.157936 -18.773300 3.937008 23.897831 -16.858271 3.937008 24.949951 -15.156432 3.937008 26.320364 27.952757 3.937008 40.157478 27.951330 3.937009 42.413712 24.015749 3.937008 40.157478 27.951330 3.937009 44.816162 27.951330 3.937008 46.354908 16.141733 3.937011 40.157478 24.015749 3.937007 42.519684 24.015749 3.937007 44.922138 12.204726 3.937012 40.157478 4.330709 3.937008 37.755695 12.204726 3.937008 34.337585 4.330709 3.937008 31.471010 4.330709 3.937008 31.889763 4.330709 3.937008 34.250320 -13.720096 3.937008 27.966946 0.393701 3.937008 34.250320 -12.593415 3.937008 29.839077 -7.086614 3.937088 31.879213 0.393701 3.937008 36.322407 -6.984215 3.937008 32.474567 -6.714056 3.937008 33.014885 -6.299212 3.937008 33.454018 -6.299212 3.937008 33.885818 -11.811024 3.937008 31.879213 -18.503937 -0.000000 23.157936 0.393701 0.000000 30.037722 0.393701 0.000000 31.889763 -18.773300 -0.000000 23.897831 -16.858271 -0.000000 24.949951 -15.156432 -0.000000 26.320364 -11.811024 -0.000000 31.879213 -12.593415 -0.000000 29.839077 -7.086614 0.000080 31.879213 -13.720096 -0.000000 27.966946 4.330709 -0.000000 34.250320 0.393701 -0.000000 34.250320 0.393701 -0.000000 36.322407 -6.984215 -0.000000 32.474567 -6.714056 -0.000000 33.014885 -6.299212 -0.000000 33.454018 -6.299212 -0.000000 33.885818 4.330709 0.000000 31.471010 12.204724 0.000000 34.337585 12.204724 0.000005 40.157482 4.330709 0.000000 31.889763 4.330709 -0.000000 37.755695 24.015749 0.000000 44.922138 24.015749 0.000000 40.157482 16.141733 0.000003 40.157482 27.951330 0.000002 42.413712 24.015749 0.000000 42.519684 27.952755 0.000000 40.157482 27.951330 0.000002 44.816162 27.951330 0.000001 46.354908 16.141733 3.543308 37.739376 16.141733 0.393702 37.739380 12.204725 0.393702 36.306091 12.204726 3.543308 36.306087 16.141733 3.543310 40.157478 12.204726 3.543312 40.157478 12.204726 3.543307 34.337585 4.330709 3.543307 31.471010 4.330709 0.393701 31.471010 0.393701 3.543307 30.037722 0.393701 0.393701 30.037722 16.141733 0.393704 40.157478 12.204725 0.393705 40.157478 27.951330 3.543309 44.816162 27.951330 3.543308 46.354908 27.951330 3.543309 42.413712 24.015749 3.543307 42.519684 24.015749 3.543307 44.922138 24.015749 3.543309 40.157478 27.952757 3.543309 40.157478 24.015747 0.393707 44.922138 24.015747 0.393707 42.519684 27.951328 0.393709 42.413712 27.951328 0.393709 44.816162 27.951328 0.393708 46.354908 27.952755 0.393702 40.157482 24.015749 0.393702 40.157482 4.330709 3.543307 31.889763 0.393701 3.543307 31.889763 0.393701 3.543307 34.250320 4.330709 3.543307 34.250320 0.393701 3.543307 36.322407 4.330709 3.543307 37.755695 4.330709 0.393701 31.889763 0.393701 0.393701 31.889763 0.393701 0.393701 36.322407 0.393701 0.393701 34.250320 4.330709 0.393701 34.250320 4.330709 0.393701 37.755695 -6.299208 3.543307 33.454002 -6.299208 3.543307 33.885803 -6.714051 3.543307 33.014870 -6.984211 3.543307 32.474552 -7.086610 3.543387 31.879198 -11.811019 3.543307 31.879198 -7.086619 0.393781 31.879229 -11.811028 0.393701 31.879229 -6.984220 0.393701 32.474583 -6.714060 0.393701 33.014900 -6.299217 0.393701 33.454033 -6.299217 0.393701 33.885834 -12.817017 0.767459 29.948189 -12.119542 0.767459 31.766895 -13.921204 0.767459 28.113432 -15.328865 0.767459 26.499723 -16.996729 0.767459 25.156670 -18.859091 0.767459 24.133484 -12.817017 3.169549 29.948189 -12.119542 3.169549 31.766895 -13.921204 3.169549 28.113432 -12.930225 2.372201 30.003431 -14.023025 2.372201 28.187597 -14.023025 1.564807 28.187597 -12.930225 1.564807 30.003431 -12.275745 2.372201 31.710028 -12.275745 1.564807 31.710028 -15.328865 3.169549 26.499723 -15.416167 2.372201 26.590532 -15.416167 1.564807 26.590532 -16.996729 3.169549 25.156670 -17.066830 2.372201 25.261330 -17.066830 1.564807 25.261330 -18.859091 3.169549 24.133484 -18.902527 2.372201 24.252796 -18.902527 1.564807 24.252796 12.204724 0.000000 14.173228 4.330709 0.000000 14.173228 7.480315 1.574803 14.173228 9.055119 1.574803 14.173228 9.055119 2.362205 14.173228 12.204724 3.937008 14.173228 0.393701 0.000000 14.173228 -0.787402 0.000000 14.173228 -0.787402 3.937008 14.173228 0.393701 3.937008 14.173228 0.393701 0.393701 14.173228 0.393701 3.543307 14.173228 4.330709 0.393701 14.173228 4.330709 3.543307 14.173228 4.330709 3.937008 14.173228 7.480315 2.362205 14.173228 4.330709 3.937008 19.659986 12.204724 3.937008 22.440945 4.905832 3.937008 19.869364 11.969544 3.937008 22.440945 -4.330709 3.937008 16.506752 -4.330709 0.000000 16.506752 0.393701 0.000000 18.226698 0.393701 3.937008 18.226698 0.393701 0.393701 18.226698 0.393701 3.543307 16.141733 0.393701 0.393701 16.141733 4.330709 0.393701 16.141733 4.330709 3.543307 16.141733 19.291338 2.362205 22.440945 19.291338 2.362205 14.173228 20.866142 2.362205 14.173228 20.866142 2.362205 22.440945 20.866142 1.574803 14.173228 20.866142 1.574803 22.440945 19.291338 1.574803 14.173228 19.291338 1.574803 22.440945 20.789082 1.574803 22.440945 19.607979 1.574803 22.440945 9.055119 1.574803 21.379932 7.480315 1.574803 20.806618 9.055119 2.362205 21.379932 7.480315 2.362205 20.806618 4.330709 0.393701 19.659986 11.969544 -0.000000 22.440945 4.330709 0.000000 19.659986 29.133858 -0.000000 21.653543 29.133858 0.393701 21.653543 29.133858 0.393701 22.440945 29.133858 -0.000000 22.440945 28.743717 0.000000 21.240561 28.743717 0.393701 21.240561 28.448856 0.393701 20.674093 28.448856 0.000000 20.674093 28.346457 0.000000 20.078741 28.346457 0.393701 20.078741 28.937008 0.393701 19.055876 29.527559 0.393701 18.897638 34.251968 0.393701 18.897638 34.842518 0.393701 19.055876 28.504694 0.393701 19.488190 35.274834 0.393701 19.488190 35.433071 0.393701 20.078741 35.330673 0.393701 20.674093 35.035812 0.393701 21.240561 34.645668 0.393701 21.653543 34.645668 0.393701 22.440945 34.645668 3.543307 21.653543 34.645668 3.543307 22.440945 35.035812 3.543307 21.240561 35.330673 3.543307 20.674093 35.433071 3.543307 20.078741 28.346457 3.543307 20.078741 28.346457 3.937008 20.078741 28.448856 3.937008 20.674093 28.448856 3.543307 20.674093 28.743717 3.937008 21.240561 28.743717 3.543307 21.240561 29.133858 3.937008 21.653543 29.133858 3.543307 21.653543 29.133858 3.937008 22.440945 29.133858 3.543307 22.440945 24.015749 3.937008 22.440945 16.141733 3.937008 22.440945 16.141733 3.543307 22.440945 16.141733 -0.000000 22.440945 24.015749 3.543307 22.440945 24.015749 0.393701 22.440945 27.952755 0.393701 22.440945 27.952755 3.543307 22.440945 27.952755 -0.000000 22.440945 24.015749 -0.000000 22.440945 12.204724 3.543307 22.440945 12.204724 0.393701 22.440945 16.141733 0.393701 22.440945 12.204724 -0.000000 22.440945 27.952755 3.937008 22.440945 28.543306 0.000000 14.960629 28.543306 0.000000 14.173228 33.858269 0.000000 14.173228 36.377953 -0.000000 14.527559 38.267715 -0.000000 15.236220 27.952755 0.000000 14.960629 28.504694 0.000000 19.488190 28.937008 0.000000 19.055876 29.527559 0.000000 18.897638 39.527557 -0.000000 16.299213 40.157482 -0.000000 17.716536 40.157482 -0.000000 20.078741 34.251968 0.000000 18.897638 34.842518 -0.000000 19.055876 35.274834 -0.000000 19.488190 35.433071 -0.000000 20.078741 -4.287340 3.937008 16.003450 -4.287340 0.000000 16.003450 -4.049184 3.937008 15.557943 -4.049184 0.000000 15.557943 -3.654767 0.000000 15.242302 -3.654767 3.937008 15.242302 -3.167894 0.000000 15.107587 -3.167894 3.937008 15.107587 -2.667325 0.000000 15.175589 -2.667325 3.937008 15.175589 -2.559055 3.937008 15.024243 -2.559055 0.000000 15.024243 -2.405785 3.937008 14.809994 -2.405785 0.000000 14.809994 -2.067789 0.000000 14.513648 -2.067789 3.937008 14.513648 -1.671136 0.000000 14.302155 -1.671136 3.937008 14.302155 -1.236715 0.000000 14.186655 -1.236715 3.937008 14.186655 16.141733 0.393701 16.141733 12.204724 0.393701 16.141733 12.204724 3.543307 16.141733 16.141733 3.543307 16.141733 28.543306 3.937008 14.960629 28.543306 3.937008 14.173228 27.952755 3.937008 14.960629 23.425198 0.000000 14.960629 23.425198 3.937008 14.960629 24.015749 3.937008 14.960629 24.015749 0.000000 14.960629 23.425198 3.937008 14.173228 23.425198 0.000000 14.173228 40.157482 3.937008 20.078741 40.157482 3.937008 17.716536 34.251968 3.937008 18.897638 34.842518 3.937008 19.055876 35.274834 3.937008 19.488190 35.433071 3.937008 20.078741 36.377953 3.937008 14.527559 33.858269 3.937008 14.173228 38.267715 3.937008 15.236220 27.952755 3.937008 16.141733 39.527557 3.937008 16.299213 29.527559 3.937008 18.897638 28.937008 3.937008 19.055876 28.504694 3.937008 19.488190 24.015749 3.937008 16.141733 24.015749 3.543307 16.141733 24.015749 0.393701 16.141733 27.952755 0.393701 16.141733 27.952755 3.543307 16.141733 16.141733 0.000000 14.173228 16.141733 3.937008 14.173228 28.937008 3.543307 19.055876 29.527559 3.543307 18.897638 34.842518 3.543307 19.055876 35.274834 3.543307 19.488190 28.504694 3.543307 19.488190 34.251968 3.543307 18.897638 14.960629 3.543307 8.267716 14.960629 3.937008 5.905512 14.960629 3.543307 5.905512 14.960629 3.937008 8.267716 16.141733 3.937008 5.905512 16.141733 3.543307 5.905512 12.204724 3.937008 5.905512 13.385827 3.543307 5.905512 12.204724 3.543307 5.905512 13.385827 3.937008 5.905512 13.385827 3.543307 8.267716 13.385827 3.937008 8.267716 16.141733 3.543307 1.968504 12.204724 3.543307 1.968504 16.141733 0.393701 5.905512 14.960629 0.000000 5.905512 14.960629 0.393701 5.905512 16.141733 0.000000 5.905512 14.960629 0.000000 8.267716 14.960629 0.393701 8.267716 16.141733 0.393701 1.968504 16.141733 0.000000 1.574803 16.141733 3.937008 1.574803 12.204724 0.393701 5.905512 13.385827 0.000000 5.905512 12.204724 0.000000 5.905512 13.385827 0.393701 5.905512 13.385827 0.000000 8.267716 13.385827 0.393701 8.267716 12.204724 0.000000 1.574803 12.204724 0.393701 1.968504 12.204724 3.937008 1.574803 26.377953 2.362205 5.905512 25.590551 1.574803 5.905512 25.590551 2.362205 5.905512 26.377953 1.574803 5.905512 26.377953 1.574803 7.086614 25.590551 1.574803 7.086614 25.590551 2.362205 7.086614 26.377953 2.362205 7.086614 10.236220 3.937008 1.574803 10.236220 0.000000 1.574803 18.110237 3.937008 1.574803 18.110237 0.000000 1.574803 10.236220 3.937008 0.000000 6.299212 0.000000 0.000000 6.299212 3.937008 0.000000 10.236220 0.000000 0.000000 11.023623 0.393701 8.267716 11.023623 0.000000 8.267716 7.491008 1.574803 8.267716 5.511811 0.393701 8.267716 9.065811 1.574803 8.267716 9.065811 2.362205 8.267716 11.023623 3.543307 8.267716 11.023623 3.937008 8.267716 5.511811 3.543307 8.267716 7.491008 2.362205 8.267716 17.322834 3.937008 8.267716 17.322834 0.000000 8.267716 17.322834 3.543307 8.267716 17.322834 0.393701 8.267716 22.834646 0.393701 8.267716 19.302032 1.574803 8.267716 20.876835 1.574803 8.267716 20.876835 2.362205 8.267716 22.834646 3.543307 8.267716 19.302032 2.362205 8.267716 0.000000 3.937008 5.905512 0.000000 0.000000 3.543307 0.000000 0.000000 5.905512 0.000000 3.937008 3.543307 23.622047 3.543307 5.905512 23.519648 0.393701 6.500865 23.622047 0.393701 5.905512 23.519648 3.543307 6.500865 22.834646 3.543307 7.480315 22.834646 0.393701 7.480315 27.716536 3.937008 2.125984 28.346457 0.000000 3.543307 27.716536 0.000000 2.125984 28.346457 3.937008 3.543307 11.811024 0.393701 5.905512 11.652786 0.000000 5.314960 11.811024 0.000000 5.905512 11.652786 0.393701 5.314960 28.346457 3.937008 5.905512 23.622047 3.937008 5.905512 23.622047 0.000000 5.905512 28.346457 0.000000 5.905512 23.249489 3.543307 7.041184 23.249489 0.393701 7.041184 26.456694 3.937008 1.062992 24.566929 0.000000 0.354331 24.566929 3.937008 0.354331 26.456694 0.000000 1.062992 22.047245 0.000000 0.000000 22.047245 3.937008 0.000000 18.110237 0.000000 0.000000 18.110237 3.937008 0.000000 11.220472 0.000000 4.882647 11.220472 0.393701 4.882647 11.438465 0.393701 7.041184 11.708625 0.000000 6.500865 11.438465 0.000000 7.041184 11.708625 0.393701 6.500865 22.440945 0.000000 4.724410 23.031496 0.000000 4.882647 23.463810 0.000000 5.314960 17.716536 0.000000 4.724410 17.125984 0.000000 4.882647 16.693670 0.000000 5.314960 16.535433 0.000000 5.905512 16.637833 0.000000 6.500865 16.907991 0.000000 7.041184 17.322834 0.000000 7.480315 11.023623 0.393701 7.480315 11.023623 0.000000 7.480315 11.652786 3.937008 5.314960 11.220472 3.543307 4.882647 11.652786 3.543307 5.314960 11.220472 3.937008 4.882647 10.629921 3.937008 4.724410 10.629921 3.543307 4.724410 16.637833 3.543307 6.500865 16.907991 3.937008 7.041184 16.907991 3.543307 7.041184 16.637833 3.937008 6.500865 5.314960 3.543307 4.882647 5.905512 3.543307 4.724410 4.882647 3.543307 5.314960 4.724410 3.543307 5.905512 11.811024 3.543307 5.905512 11.708625 3.543307 6.500865 4.826808 3.543307 6.500865 11.438465 3.543307 7.041184 5.096968 3.543307 7.041184 11.023623 3.543307 7.480315 5.511811 3.543307 7.480315 11.023623 3.937008 7.480315 11.438465 3.937008 7.041184 11.708625 3.937008 6.500865 11.811024 3.937008 5.905512 5.905512 3.937008 4.724410 5.314960 3.937008 4.882647 4.882647 3.937008 5.314960 4.724410 3.937008 5.905512 4.882647 0.393701 5.314960 4.724410 0.000000 5.905512 4.882647 0.000000 5.314960 4.724410 0.393701 5.905512 5.314960 0.393701 4.882647 5.314960 0.000000 4.882647 5.905512 0.000000 4.724410 5.905512 0.393701 4.724410 10.629921 0.393701 4.724410 4.826808 0.393701 6.500865 5.096968 0.393701 7.041184 5.511811 0.393701 7.480315 10.629921 0.000000 4.724410 0.629921 3.937008 2.125984 0.629921 0.000000 2.125984 23.031496 0.393701 4.882647 23.463810 0.393701 5.314960 1.889764 3.937008 1.062992 1.889764 0.000000 1.062992 3.779528 0.000000 0.354331 3.779528 3.937008 0.354331 17.716536 0.393701 4.724410 22.440945 0.393701 4.724410 17.125984 0.393701 4.882647 16.693670 0.393701 5.314960 16.535433 0.393701 5.905512 16.637833 0.393701 6.500865 16.907991 0.393701 7.041184 17.322834 0.393701 7.480315 2.755906 2.362205 5.905512 1.968504 1.574803 5.905512 1.968504 2.362205 5.905512 2.755906 1.574803 5.905512 2.755906 1.574803 7.086614 1.968504 1.574803 7.086614 1.968504 2.362205 7.086614 2.755906 2.362205 7.086614 9.065811 2.362205 6.692914 7.491008 2.362205 6.692914 20.876835 2.362205 6.692914 19.302032 2.362205 6.692914 20.876835 1.574803 6.692914 19.302032 1.574803 6.692914 9.065811 1.574803 6.692914 7.491008 1.574803 6.692914 23.463810 3.937008 5.314960 23.463810 3.543307 5.314960 16.535433 3.937008 5.905512 16.535433 3.543307 5.905512 22.440945 3.543307 4.724410 23.031496 3.937008 4.882647 22.440945 3.937008 4.724410 23.031496 3.543307 4.882647 17.322834 3.937008 7.480315 17.322834 3.543307 7.480315 17.125984 3.543307 4.882647 17.716536 3.543307 4.724410 16.693670 3.543307 5.314960 17.716536 3.937008 4.724410 17.125984 3.937008 4.882647 16.693670 3.937008 5.314960 9.365025 1.574803 -7.480315 7.790221 2.362205 -7.480315 7.790221 1.574803 -7.480315 9.365025 2.362205 -7.480315 9.365025 1.574803 -5.905512 7.790221 1.574803 -5.905512 7.790221 2.362205 -5.905512 9.365025 2.362205 -5.905512 19.601244 2.362205 -7.480315 19.601244 1.574803 -5.905512 19.601244 1.574803 -7.480315 19.601244 2.362205 -5.905512 21.176048 1.574803 -5.905512 21.176048 2.362205 -7.480315 21.176048 1.574803 -7.480315 21.176048 2.362205 -5.905512 26.283464 2.362205 -5.905512 25.496063 1.574803 -5.905512 25.496063 2.362205 -5.905512 26.283464 1.574803 -5.905512 26.283464 1.574803 -4.724410 25.496063 1.574803 -4.724410 25.496063 2.362205 -4.724410 26.283464 2.362205 -4.724410 4.724410 0.000000 -5.905512 0.000000 3.937008 -5.905512 0.000000 0.000000 -5.905512 4.724410 3.937008 -5.905512 4.724410 0.393701 -5.905512 4.724410 3.543307 -5.905512 12.204724 0.000000 -5.905512 11.811024 0.393701 -5.905512 11.811024 0.000000 -5.905512 12.204724 0.393701 -5.905512 12.204724 3.543307 -5.905512 16.141733 3.543307 -5.905512 16.141733 0.393701 -5.905512 16.535433 3.937008 -5.905512 16.141733 3.937008 -5.905512 16.141733 0.000000 -5.905512 16.535433 3.543307 -5.905512 16.535433 0.000000 -5.905512 16.535433 0.393701 -5.905512 23.622047 0.393701 -5.905512 23.622047 3.543307 -5.905512 28.346457 3.937008 -5.905512 23.622047 3.937008 -5.905512 23.622047 0.000000 -5.905512 28.346457 0.000000 -5.905512 11.811024 3.543307 -5.905512 11.811024 3.937008 -5.905512 12.204724 3.937008 -5.905512 11.023623 3.937008 -10.236220 12.204724 0.000000 -10.236220 11.023623 0.000000 -10.236220 12.204724 3.937008 -10.236220 17.322834 3.937008 -10.236220 16.141733 0.000000 -10.236220 16.141733 3.937008 -10.236220 17.322834 0.000000 -10.236220 12.204724 3.543307 -9.842520 16.141733 0.393701 -9.842520 12.204724 0.393701 -9.842520 16.141733 3.543307 -9.842520 11.023623 3.937008 -11.811024 6.299212 0.000000 -11.811024 6.299212 3.937008 -11.811024 11.023623 0.000000 -11.811024 0.000000 0.000000 -8.267716 0.000000 3.937008 -8.267716 27.716536 3.937008 -9.685040 28.346457 0.000000 -8.267716 27.716536 0.000000 -9.685040 28.346457 3.937008 -8.267716 11.652786 0.000000 -6.496063 11.652786 0.393701 -6.496063 26.456694 3.937008 -10.748032 24.566929 0.000000 -11.456693 24.566929 3.937008 -11.456693 26.456694 0.000000 -10.748032 22.047245 0.000000 -11.811024 22.047245 3.937008 -11.811024 17.322834 0.000000 -11.811024 17.322834 3.937008 -11.811024 11.220472 0.000000 -6.928377 11.220472 0.393701 -6.928377 22.440945 0.000000 -7.086614 23.031496 0.000000 -6.928377 23.463810 0.000000 -6.496063 17.716536 0.000000 -7.086614 17.125984 0.000000 -6.928377 16.693670 0.000000 -6.496063 5.905512 3.937008 -7.086614 5.314960 3.937008 -6.928377 4.882647 3.937008 -6.496063 3.779528 3.937008 -11.456693 1.889764 3.937008 -10.748032 0.629921 3.937008 -9.685040 10.629921 3.937008 -7.086614 11.220472 3.937008 -6.928377 11.652786 3.937008 -6.496063 16.693670 3.937008 -6.496063 17.125984 3.937008 -6.928377 17.716536 3.937008 -7.086614 22.440945 3.937008 -7.086614 23.031496 3.937008 -6.928377 23.463810 3.937008 -6.496063 16.693670 3.543307 -6.496063 17.125984 3.543307 -6.928377 17.716536 3.543307 -7.086614 22.440945 3.543307 -7.086614 23.031496 3.543307 -6.928377 23.463810 3.543307 -6.496063 11.220472 3.543307 -6.928377 11.652786 3.543307 -6.496063 10.629921 3.543307 -7.086614 5.314960 3.543307 -6.928377 5.905512 3.543307 -7.086614 4.882647 3.543307 -6.496063 4.882647 0.393701 -6.496063 4.882647 0.000000 -6.496063 5.314960 0.393701 -6.928377 5.314960 0.000000 -6.928377 5.905512 0.000000 -7.086614 5.905512 0.393701 -7.086614 17.716536 0.393701 -7.086614 17.125984 0.393701 -6.928377 22.440945 0.393701 -7.086614 23.031496 0.393701 -6.928377 23.463810 0.393701 -6.496063 16.693670 0.393701 -6.496063 1.889764 0.000000 -10.748032 3.779528 0.000000 -11.456693 2.661417 2.362205 -5.905512 1.874016 1.574803 -5.905512 1.874016 2.362205 -5.905512 2.661417 1.574803 -5.905512 2.661417 1.574803 -4.724410 1.874016 1.574803 -4.724410 1.874016 2.362205 -4.724410 2.661417 2.362205 -4.724410 10.629921 0.393701 -7.086614 10.629921 0.000000 -7.086614 0.629921 0.000000 -9.685040 "
							            />
						</IndexedFaceSet>
					</Shape>
				</Group>
			</Transform>
		</Transform>
	</Scene>
</X3D>