<?xml version="1.0" encoding="UTF-8"?>
<!DOCTYPE X3D PUBLIC "ISO//Web3D//DTD X3D 3.0//EN" "http://www.web3d.org/specifications/x3d-3.0.dtd">
<X3D version="3.0" profile="Immersive" xmlns:xsd="http://www.w3.org/2001/XMLSchema-instance" xsd:noNamespaceSchemaLocation="http://www.web3d.org/specifications/x3d-3.0.xsd">
	<head>
		<meta name="filename" content="14-2.x3d" />
		<meta name="created" content="2026-06-21 15:09:38" />
		<meta name="generator" content="Blender 4.5.4 LTS" />
		<meta name="translator" content="Web3D X3D/VRML2 format v2.5.1" />
	</head>
	<Scene>
		<NavigationInfo headlight="true"
		                visibilityLimit="0.0"
		                type='"EXAMINE", "ANY"'
		                avatarSize="0.25, 1.75, 0.75"
		                />
		<Background DEF="WO_World"
		            groundColor="0.051 0.051 0.051"
		            skyColor="0.051 0.051 0.051"
		            />
		<Transform DEF="_14-2_TRANSFORM"
		           translation="0.000000 0.000000 0.000000"
		           scale="1.000000 1.000000 1.000000"
		           rotation="0.000000 0.707107 0.707107 3.141593"
		           >
			<Transform DEF="_14-2_ifs_TRANSFORM"
			           translation="0.000000 0.000000 0.000000"
			           scale="1.000000 1.000000 1.000000"
			           rotation="0.000000 1.000000 0.000000 0.000000"
			           >
				<Group DEF="group_ME_14-2_001">
					<Shape>
						<Appearance>
						</Appearance>
						<IndexedFaceSet solid="false"
						                coordIndex="0 1 2 -1 1 0 3 -1 4 5 6 -1 5 4 7 -1 5 7 8 -1 5 8 9 -1 5 9 10 -1 10 9 11 -1 10 11 12 -1 12 11 13 -1 13 11 14 -1 14 11 15 -1 14 15 16 -1 16 15 17 -1 17 15 18 -1 18 15 2 -1 2 15 19 -1 19 20 2 -1 20 19 21 -1 20 21 22 -1 22 21 23 -1 22 23 24 -1 22 24 25 -1 22 25 26 -1 25 24 27 -1 27 24 28 -1 28 24 29 -1 29 24 30 -1 29 30 31 -1 31 30 32 -1 32 30 33 -1 33 30 34 -1 34 30 35 -1 34 35 36 -1 34 36 37 -1 1 18 2 -1 22 38 20 -1 38 22 39 -1 0 20 38 -1 20 0 2 -1 40 41 42 -1 41 40 43 -1 44 5 10 -1 5 44 45 -1 46 40 42 -1 40 46 47 -1 48 35 49 -1 35 48 36 -1 4 50 51 -1 50 4 6 -1 25 52 53 -1 52 25 27 -1 54 53 55 -1 53 54 56 -1 57 47 46 -1 47 57 58 -1 18 43 17 -1 43 18 59 -1 60 44 61 -1 44 60 45 -1 61 62 63 -1 62 61 44 -1 64 37 65 -1 37 64 34 -1 55 52 66 -1 52 55 53 -1 33 67 32 -1 67 33 68 -1 9 69 70 -1 69 9 8 -1 13 47 58 -1 47 13 14 -1 27 71 52 -1 71 27 28 -1 72 34 64 -1 34 72 68 -1 34 68 33 -1 24 73 74 -1 73 24 23 -1 22 54 39 -1 54 22 56 -1 56 22 26 -1 71 75 76 -1 75 71 77 -1 8 78 69 -1 78 8 7 -1 67 72 79 -1 72 67 68 -1 40 17 43 -1 17 40 16 -1 11 70 80 -1 70 11 9 -1 47 16 40 -1 16 47 14 -1 10 62 44 -1 62 10 12 -1 65 36 48 -1 36 65 37 -1 49 30 81 -1 30 49 35 -1 50 45 60 -1 45 50 6 -1 45 6 5 -1 3 0 82 -1 38 83 0 -1 83 38 84 -1 84 38 39 -1 84 39 54 -1 84 54 73 -1 73 54 55 -1 73 55 74 -1 74 55 66 -1 74 66 76 -1 74 76 75 -1 74 75 81 -1 81 75 85 -1 81 85 79 -1 81 79 72 -1 81 72 64 -1 81 64 49 -1 49 64 48 -1 48 64 65 -1 60 51 50 -1 51 60 78 -1 78 60 69 -1 69 60 70 -1 70 60 61 -1 70 61 80 -1 80 61 63 -1 80 63 57 -1 80 57 46 -1 80 46 86 -1 86 46 42 -1 86 42 41 -1 86 41 82 -1 86 82 0 -1 86 0 83 -1 86 11 80 -1 11 86 15 -1 75 87 85 -1 87 75 77 -1 53 26 25 -1 26 53 56 -1 7 51 78 -1 51 7 4 -1 81 24 74 -1 24 81 30 -1 87 32 67 -1 32 87 31 -1 28 77 71 -1 77 28 29 -1 43 82 41 -1 82 43 59 -1 82 1 3 -1 1 82 59 -1 1 59 18 -1 12 58 62 -1 58 12 13 -1 77 31 87 -1 31 77 29 -1 62 57 63 -1 57 62 58 -1 87 79 85 -1 79 87 67 -1 52 76 66 -1 76 52 71 -1 83 15 86 -1 15 83 19 -1 23 84 73 -1 84 23 21 -1 21 83 84 -1 83 21 19 -1 88 89 90 -1 89 88 91 -1 92 90 93 -1 90 92 94 -1 93 89 95 -1 89 93 90 -1 96 97 98 -1 97 96 99 -1 89 100 95 -1 100 89 101 -1 101 102 100 -1 102 101 103 -1 104 101 105 -1 101 104 103 -1 106 94 107 -1 94 106 108 -1 91 101 89 -1 101 91 105 -1 109 110 111 -1 110 109 112 -1 112 113 110 -1 113 112 114 -1 113 96 98 -1 96 113 114 -1 115 109 111 -1 109 115 116 -1 117 118 119 -1 118 117 120 -1 121 122 123 -1 122 121 124 -1 99 125 97 -1 125 99 126 -1 127 124 121 -1 124 127 128 -1 124 128 129 -1 126 118 125 -1 118 126 119 -1 130 120 117 -1 120 130 131 -1 132 133 134 -1 133 132 135 -1 103 132 102 -1 132 103 135 -1 135 103 104 -1 136 137 138 -1 137 136 139 -1 133 138 134 -1 138 133 136 -1 108 90 94 -1 90 108 88 -1 140 141 142 -1 141 140 143 -1 144 145 146 -1 145 144 147 -1 145 147 148 -1 149 107 150 -1 107 149 106 -1 146 150 151 -1 150 146 145 -1 152 153 154 -1 153 152 155 -1 156 155 152 -1 155 156 157 -1 154 116 115 -1 116 154 153 -1 158 159 160 -1 159 158 142 -1 161 160 162 -1 160 161 158 -1 163 161 164 -1 161 163 165 -1 141 166 167 -1 166 141 168 -1 169 142 158 -1 142 169 140 -1 147 131 130 -1 131 147 144 -1 117 147 130 -1 147 117 148 -1 148 117 119 -1 148 119 126 -1 148 126 99 -1 148 99 149 -1 149 99 106 -1 106 99 108 -1 108 99 96 -1 108 96 88 -1 88 96 91 -1 91 96 105 -1 105 96 104 -1 104 96 114 -1 112 133 114 -1 133 112 136 -1 136 112 109 -1 136 109 116 -1 136 116 165 -1 136 165 163 -1 136 163 139 -1 139 163 170 -1 165 116 169 -1 169 116 140 -1 140 116 143 -1 143 116 153 -1 143 153 171 -1 171 153 129 -1 129 153 124 -1 124 153 155 -1 124 155 157 -1 124 157 122 -1 114 135 104 -1 135 114 133 -1 137 172 173 -1 172 137 139 -1 172 139 170 -1 165 158 161 -1 158 165 169 -1 174 161 162 -1 161 174 164 -1 164 170 163 -1 170 164 172 -1 123 157 156 -1 157 123 122 -1 173 164 174 -1 164 173 172 -1 175 94 92 -1 94 175 107 -1 151 107 175 -1 107 151 150 -1 142 167 159 -1 167 142 141 -1 171 141 143 -1 141 171 168 -1 134 110 113 -1 110 134 138 -1 110 138 111 -1 111 138 115 -1 115 138 162 -1 162 138 174 -1 174 138 137 -1 174 137 173 -1 115 162 160 -1 115 160 159 -1 115 159 167 -1 115 167 154 -1 154 167 166 -1 154 166 127 -1 154 127 121 -1 154 121 152 -1 152 121 156 -1 156 121 123 -1 132 113 102 -1 113 132 134 -1 146 131 144 -1 131 146 120 -1 120 146 118 -1 118 146 125 -1 125 146 97 -1 97 146 151 -1 97 151 175 -1 97 175 92 -1 97 92 98 -1 98 92 93 -1 98 93 95 -1 98 95 100 -1 98 100 102 -1 98 102 113 -1 168 127 166 -1 127 168 128 -1 150 148 149 -1 148 150 145 -1 129 168 171 -1 168 129 128 -1 176 177 178 -1 177 176 179 -1 180 181 182 -1 181 180 183 -1 180 184 185 -1 184 180 182 -1 179 185 184 -1 185 179 176 -1 186 176 178 -1 176 186 185 -1 185 186 187 -1 185 187 188 -1 185 188 189 -1 185 189 190 -1 185 190 191 -1 191 190 192 -1 185 191 180 -1 180 191 193 -1 191 192 194 -1 194 192 195 -1 195 192 196 -1 193 197 198 -1 197 193 191 -1 198 197 199 -1 198 199 200 -1 198 200 201 -1 201 200 202 -1 202 200 203 -1 202 203 204 -1 204 203 205 -1 204 205 206 -1 206 205 207 -1 206 207 208 -1 208 207 209 -1 208 209 210 -1 210 209 211 -1 180 212 183 -1 212 180 213 -1 213 180 214 -1 214 180 215 -1 215 180 216 -1 216 180 217 -1 217 180 218 -1 217 218 219 -1 218 180 193 -1 219 218 220 -1 219 220 221 -1 219 221 222 -1 223 224 225 -1 224 223 226 -1 227 223 225 -1 223 227 228 -1 229 227 230 -1 227 229 228 -1 223 229 226 -1 229 223 228 -1 229 224 226 -1 224 229 230 -1 227 224 230 -1 224 227 225 -1 231 232 233 -1 232 231 234 -1 235 231 233 -1 231 235 236 -1 237 235 238 -1 235 237 236 -1 231 237 234 -1 237 231 236 -1 237 232 234 -1 232 237 238 -1 235 232 238 -1 232 235 233 -1 239 240 241 -1 240 239 242 -1 243 239 244 -1 239 243 242 -1 245 243 244 -1 243 245 246 -1 247 245 248 -1 245 247 246 -1 249 250 251 -1 250 249 252 -1 253 251 254 -1 251 253 249 -1 255 253 254 -1 253 255 256 -1 257 256 255 -1 256 257 258 -1 259 260 261 -1 260 259 262 -1 262 259 263 -1 262 263 264 -1 264 263 240 -1 264 240 265 -1 265 240 242 -1 265 242 266 -1 266 242 243 -1 266 243 267 -1 267 243 246 -1 267 246 268 -1 268 246 247 -1 268 247 269 -1 270 271 272 -1 271 270 273 -1 273 270 274 -1 273 274 275 -1 275 274 276 -1 275 276 258 -1 258 276 277 -1 258 277 256 -1 256 277 278 -1 256 278 253 -1 253 278 279 -1 253 279 249 -1 249 279 280 -1 249 280 252 -1 211 281 282 -1 281 211 209 -1 281 207 283 -1 207 281 209 -1 207 284 283 -1 284 207 205 -1 284 203 285 -1 203 284 205 -1 286 265 266 -1 265 286 287 -1 288 266 267 -1 266 288 286 -1 268 288 267 -1 288 268 289 -1 290 268 269 -1 268 290 289 -1 291 292 293 -1 292 291 294 -1 294 291 295 -1 294 295 296 -1 296 295 287 -1 296 287 285 -1 285 287 286 -1 285 286 284 -1 284 286 288 -1 284 288 283 -1 283 288 289 -1 283 289 281 -1 281 289 290 -1 281 290 282 -1 297 280 279 -1 280 297 298 -1 299 279 278 -1 279 299 297 -1 277 299 278 -1 299 277 300 -1 276 300 277 -1 300 276 301 -1 302 204 303 -1 204 302 202 -1 303 206 304 -1 206 303 204 -1 206 305 304 -1 305 206 208 -1 208 306 305 -1 306 208 210 -1 307 308 309 -1 308 307 310 -1 310 307 311 -1 310 311 312 -1 312 311 302 -1 312 302 301 -1 301 302 303 -1 301 303 300 -1 300 303 304 -1 300 304 299 -1 299 304 305 -1 299 305 297 -1 297 305 306 -1 297 306 298 -1 269 282 290 -1 282 269 247 -1 250 247 248 -1 247 250 282 -1 282 250 211 -1 211 250 252 -1 252 210 211 -1 210 252 306 -1 306 252 280 -1 306 280 298 -1 264 287 265 -1 287 264 295 -1 313 287 314 -1 287 313 265 -1 314 196 192 -1 196 314 287 -1 276 312 274 -1 312 276 301 -1 315 274 316 -1 274 315 276 -1 316 270 317 -1 270 316 274 -1 318 270 272 -1 270 318 317 -1 319 272 271 -1 272 319 318 -1 320 271 273 -1 271 320 319 -1 320 275 321 -1 275 320 273 -1 321 258 257 -1 258 321 275 -1 240 322 241 -1 322 240 263 -1 263 323 322 -1 323 263 259 -1 323 261 324 -1 261 323 259 -1 324 260 325 -1 260 324 261 -1 325 262 326 -1 262 325 260 -1 262 327 326 -1 327 262 264 -1 327 265 313 -1 265 327 264 -1 311 202 302 -1 202 311 201 -1 307 201 311 -1 201 307 198 -1 307 193 198 -1 193 307 309 -1 309 218 193 -1 218 309 308 -1 308 220 218 -1 220 308 310 -1 312 220 310 -1 220 312 221 -1 301 221 312 -1 221 301 222 -1 295 196 287 -1 196 295 195 -1 194 295 291 -1 295 194 195 -1 293 194 291 -1 194 293 191 -1 292 191 293 -1 191 292 197 -1 294 197 292 -1 197 294 199 -1 200 294 296 -1 294 200 199 -1 203 296 285 -1 296 203 200 -1 273 311 275 -1 311 273 307 -1 273 309 307 -1 309 273 271 -1 271 308 309 -1 308 271 272 -1 272 310 308 -1 310 272 270 -1 274 310 270 -1 310 274 312 -1 291 264 262 -1 264 291 295 -1 262 293 291 -1 293 262 260 -1 260 292 293 -1 292 260 261 -1 261 294 292 -1 294 261 259 -1 296 259 263 -1 259 296 294 -1 301 219 222 -1 219 301 276 -1 219 276 315 -1 219 315 328 -1 178 329 186 -1 329 178 177 -1 217 328 330 -1 328 217 219 -1 213 331 212 -1 331 213 332 -1 333 217 330 -1 217 333 216 -1 214 332 213 -1 332 214 334 -1 215 334 214 -1 334 215 335 -1 212 181 183 -1 181 212 331 -1 216 335 215 -1 335 216 333 -1 192 336 314 -1 336 192 190 -1 188 337 189 -1 337 188 338 -1 336 189 337 -1 189 336 190 -1 332 181 331 -1 181 332 182 -1 182 332 334 -1 182 334 335 -1 182 335 333 -1 182 333 330 -1 182 330 318 -1 318 330 328 -1 182 318 184 -1 318 328 317 -1 317 328 316 -1 316 328 315 -1 320 324 319 -1 324 320 323 -1 323 320 321 -1 323 321 322 -1 322 321 257 -1 322 257 241 -1 241 257 255 -1 241 255 239 -1 239 255 254 -1 239 254 244 -1 244 254 251 -1 244 251 245 -1 245 251 250 -1 245 250 248 -1 179 329 177 -1 329 179 184 -1 329 184 339 -1 339 184 338 -1 338 184 337 -1 337 184 336 -1 336 184 325 -1 336 325 314 -1 325 184 319 -1 319 184 318 -1 325 319 324 -1 314 325 326 -1 314 326 327 -1 314 327 313 -1 186 339 187 -1 339 186 329 -1 187 338 188 -1 338 187 339 -1 340 341 342 -1 341 340 343 -1 344 340 342 -1 340 344 345 -1 346 344 347 -1 344 346 345 -1 340 346 343 -1 346 340 345 -1 346 341 343 -1 341 346 347 -1 344 341 347 -1 341 344 342 -1 348 349 350 -1 349 348 351 -1 352 348 350 -1 348 352 353 -1 354 352 355 -1 352 354 353 -1 348 354 351 -1 354 348 353 -1 354 349 351 -1 349 354 355 -1 352 349 355 -1 349 352 350 -1 356 357 358 -1 357 356 359 -1 360 361 362 -1 361 360 363 -1 364 360 365 -1 360 364 363 -1 359 364 365 -1 364 359 356 -1 363 366 361 -1 366 363 367 -1 367 363 368 -1 368 363 369 -1 369 363 370 -1 371 356 358 -1 356 371 364 -1 364 371 372 -1 364 372 373 -1 364 373 374 -1 364 374 375 -1 375 374 376 -1 364 375 363 -1 363 375 370 -1 375 376 377 -1 377 376 378 -1 378 376 379 -1 380 381 382 -1 381 380 383 -1 383 380 384 -1 383 384 385 -1 385 384 386 -1 385 386 387 -1 387 386 388 -1 387 388 389 -1 389 388 390 -1 390 388 391 -1 390 391 392 -1 392 391 393 -1 392 393 394 -1 394 393 395 -1 370 396 397 -1 396 370 375 -1 396 375 382 -1 396 382 381 -1 397 396 398 -1 397 398 399 -1 397 399 400 -1 401 402 403 -1 402 401 404 -1 405 401 406 -1 401 405 404 -1 407 405 406 -1 405 407 408 -1 409 407 410 -1 407 409 408 -1 411 412 413 -1 412 411 414 -1 415 413 416 -1 413 415 411 -1 417 415 416 -1 415 417 418 -1 419 418 417 -1 418 419 420 -1 421 422 423 -1 422 421 424 -1 425 423 426 -1 423 425 421 -1 427 425 426 -1 425 427 428 -1 429 428 427 -1 428 429 430 -1 431 432 433 -1 432 431 434 -1 435 433 436 -1 433 435 431 -1 437 435 436 -1 435 437 438 -1 439 437 440 -1 437 439 438 -1 395 441 442 -1 441 395 393 -1 441 391 443 -1 391 441 393 -1 391 444 443 -1 444 391 388 -1 444 386 445 -1 386 444 388 -1 446 447 448 -1 447 446 449 -1 449 446 450 -1 449 450 451 -1 451 450 402 -1 451 402 432 -1 432 402 404 -1 432 404 433 -1 433 404 405 -1 433 405 436 -1 436 405 408 -1 436 408 437 -1 437 408 409 -1 437 409 440 -1 452 453 454 -1 453 452 455 -1 455 452 456 -1 455 456 457 -1 457 456 429 -1 457 429 420 -1 420 429 427 -1 420 427 418 -1 418 427 426 -1 418 426 415 -1 415 426 423 -1 415 423 411 -1 411 423 422 -1 411 422 414 -1 458 459 460 -1 459 458 461 -1 461 458 462 -1 461 462 463 -1 463 462 434 -1 463 434 445 -1 445 434 431 -1 445 431 444 -1 444 431 435 -1 444 435 443 -1 443 435 438 -1 443 438 441 -1 441 438 439 -1 441 439 442 -1 464 389 465 -1 389 464 387 -1 465 390 466 -1 390 465 389 -1 390 467 466 -1 467 390 392 -1 392 468 467 -1 468 392 394 -1 412 409 410 -1 409 412 468 -1 468 412 414 -1 468 414 424 -1 424 414 422 -1 440 442 439 -1 442 440 409 -1 442 409 395 -1 395 409 394 -1 394 409 468 -1 451 434 432 -1 434 451 462 -1 469 434 470 -1 434 469 432 -1 470 379 376 -1 379 470 434 -1 430 456 429 -1 456 430 471 -1 462 379 434 -1 379 462 378 -1 377 462 458 -1 462 377 378 -1 460 377 458 -1 377 460 375 -1 459 375 460 -1 375 459 382 -1 461 382 459 -1 382 461 380 -1 384 461 463 -1 461 384 380 -1 386 463 445 -1 463 386 384 -1 472 387 464 -1 387 472 385 -1 473 385 472 -1 385 473 383 -1 473 381 383 -1 381 473 474 -1 474 396 381 -1 396 474 475 -1 475 398 396 -1 398 475 476 -1 471 398 476 -1 398 471 399 -1 400 471 430 -1 471 400 399 -1 473 475 474 -1 475 473 476 -1 476 473 472 -1 476 472 471 -1 471 472 464 -1 471 464 430 -1 430 464 465 -1 430 465 428 -1 428 465 466 -1 428 466 425 -1 425 466 467 -1 425 467 421 -1 421 467 468 -1 421 468 424 -1 402 477 403 -1 477 402 450 -1 450 478 477 -1 478 450 446 -1 478 448 479 -1 448 478 446 -1 479 447 480 -1 447 479 448 -1 480 449 481 -1 449 480 447 -1 449 482 481 -1 482 449 451 -1 482 432 469 -1 432 482 451 -1 429 483 484 -1 483 429 456 -1 483 452 485 -1 452 483 456 -1 486 452 454 -1 452 486 485 -1 487 454 453 -1 454 487 486 -1 488 453 455 -1 453 488 487 -1 488 457 489 -1 457 488 455 -1 489 420 419 -1 420 489 457 -1 455 472 457 -1 472 455 473 -1 455 474 473 -1 474 455 453 -1 453 475 474 -1 475 453 454 -1 454 476 475 -1 476 454 452 -1 456 476 452 -1 476 456 471 -1 430 397 400 -1 397 430 429 -1 397 429 484 -1 397 484 490 -1 458 451 449 -1 451 458 462 -1 449 460 458 -1 460 449 447 -1 447 459 460 -1 459 447 448 -1 448 461 459 -1 461 448 446 -1 463 446 450 -1 446 463 461 -1 491 360 362 -1 360 491 492 -1 360 492 493 -1 360 493 494 -1 360 494 495 -1 360 495 365 -1 365 357 359 -1 357 365 496 -1 496 365 497 -1 497 365 498 -1 498 365 499 -1 499 365 495 -1 499 495 486 -1 486 495 490 -1 486 490 485 -1 485 490 483 -1 483 490 484 -1 488 479 487 -1 479 488 478 -1 478 488 489 -1 478 489 477 -1 477 489 419 -1 477 419 403 -1 403 419 417 -1 403 417 401 -1 401 417 406 -1 406 417 416 -1 406 416 407 -1 407 416 413 -1 407 413 410 -1 410 413 412 -1 499 480 470 -1 480 499 486 -1 480 486 487 -1 480 487 479 -1 470 480 481 -1 470 481 482 -1 470 482 469 -1 358 496 371 -1 496 358 357 -1 498 372 497 -1 372 498 373 -1 371 497 372 -1 497 371 496 -1 499 373 498 -1 373 499 374 -1 370 490 495 -1 490 370 397 -1 361 491 362 -1 491 361 366 -1 376 499 470 -1 499 376 374 -1 368 492 367 -1 492 368 493 -1 367 491 366 -1 491 367 492 -1 369 495 494 -1 495 369 370 -1 368 494 493 -1 494 368 369 -1 500 501 502 -1 501 500 503 -1 504 502 505 -1 502 504 506 -1 505 501 507 -1 501 505 502 -1 508 509 510 -1 509 508 511 -1 501 512 507 -1 512 501 513 -1 513 514 512 -1 514 513 515 -1 516 513 517 -1 513 516 515 -1 518 506 519 -1 506 518 520 -1 503 513 501 -1 513 503 517 -1 521 522 523 -1 522 521 524 -1 524 525 522 -1 525 524 526 -1 525 508 510 -1 508 525 526 -1 527 521 523 -1 521 527 528 -1 529 530 531 -1 530 529 532 -1 533 534 535 -1 534 533 536 -1 511 537 509 -1 537 511 538 -1 539 536 533 -1 536 539 540 -1 536 540 541 -1 538 530 537 -1 530 538 531 -1 542 532 529 -1 532 542 543 -1 544 545 546 -1 545 544 547 -1 515 544 514 -1 544 515 547 -1 547 515 516 -1 548 549 550 -1 549 548 551 -1 545 550 546 -1 550 545 548 -1 520 502 506 -1 502 520 500 -1 552 553 554 -1 553 552 555 -1 556 557 558 -1 557 556 559 -1 557 559 560 -1 561 519 562 -1 519 561 518 -1 558 562 563 -1 562 558 557 -1 564 565 566 -1 565 564 567 -1 568 567 564 -1 567 568 569 -1 566 528 527 -1 528 566 565 -1 570 571 572 -1 571 570 554 -1 573 572 574 -1 572 573 570 -1 575 573 576 -1 573 575 577 -1 553 578 579 -1 578 553 580 -1 581 554 570 -1 554 581 552 -1 559 543 542 -1 543 559 556 -1 529 559 542 -1 559 529 560 -1 560 529 531 -1 560 531 538 -1 560 538 511 -1 560 511 561 -1 561 511 518 -1 518 511 520 -1 520 511 508 -1 520 508 500 -1 500 508 503 -1 503 508 517 -1 517 508 516 -1 516 508 526 -1 524 545 526 -1 545 524 548 -1 548 524 521 -1 548 521 528 -1 548 528 577 -1 548 577 575 -1 548 575 551 -1 551 575 582 -1 577 528 581 -1 581 528 552 -1 552 528 555 -1 555 528 565 -1 555 565 583 -1 583 565 541 -1 541 565 536 -1 536 565 567 -1 536 567 569 -1 536 569 534 -1 526 547 516 -1 547 526 545 -1 549 584 585 -1 584 549 551 -1 584 551 582 -1 577 570 573 -1 570 577 581 -1 586 573 574 -1 573 586 576 -1 576 582 575 -1 582 576 584 -1 535 569 568 -1 569 535 534 -1 585 576 586 -1 576 585 584 -1 587 506 504 -1 506 587 519 -1 563 519 587 -1 519 563 562 -1 554 579 571 -1 579 554 553 -1 583 553 555 -1 553 583 580 -1 546 522 525 -1 522 546 550 -1 522 550 523 -1 523 550 527 -1 527 550 574 -1 574 550 586 -1 586 550 549 -1 586 549 585 -1 527 574 572 -1 527 572 571 -1 527 571 579 -1 527 579 566 -1 566 579 578 -1 566 578 539 -1 566 539 533 -1 566 533 564 -1 564 533 568 -1 568 533 535 -1 544 525 514 -1 525 544 546 -1 558 543 556 -1 543 558 532 -1 532 558 530 -1 530 558 537 -1 537 558 509 -1 509 558 563 -1 509 563 587 -1 509 587 504 -1 509 504 510 -1 510 504 505 -1 510 505 507 -1 510 507 512 -1 510 512 514 -1 510 514 525 -1 580 539 578 -1 539 580 540 -1 562 560 561 -1 560 562 557 -1 541 580 583 -1 580 541 540 -1 588 589 590 -1 589 588 591 -1 592 593 594 -1 593 592 595 -1 596 597 598 -1 597 596 599 -1 597 600 598 -1 600 597 601 -1 602 596 603 -1 596 602 599 -1 604 605 606 -1 605 604 607 -1 608 604 609 -1 604 608 607 -1 608 605 607 -1 605 608 610 -1 611 612 613 -1 612 611 614 -1 602 597 599 -1 597 602 601 -1 600 596 598 -1 596 600 603 -1 615 616 617 -1 616 615 618 -1 616 618 619 -1 619 618 620 -1 619 620 609 -1 609 620 608 -1 608 620 621 -1 620 618 622 -1 623 624 625 -1 624 623 626 -1 624 626 616 -1 624 616 610 -1 610 616 619 -1 624 610 608 -1 624 608 621 -1 624 621 627 -1 613 628 629 -1 628 613 612 -1 594 629 628 -1 629 594 593 -1 630 631 632 -1 631 630 633 -1 619 604 606 -1 604 619 609 -1 633 634 631 -1 634 633 635 -1 633 595 635 -1 595 633 630 -1 595 630 611 -1 595 611 613 -1 595 613 629 -1 595 629 593 -1 605 619 606 -1 619 605 610 -1 630 614 611 -1 614 630 632 -1 636 637 638 -1 637 636 639 -1 637 639 601 -1 601 639 640 -1 601 640 600 -1 637 601 595 -1 595 601 602 -1 637 595 592 -1 591 640 641 -1 640 591 588 -1 640 588 600 -1 600 588 603 -1 603 588 602 -1 602 588 635 -1 602 635 595 -1 635 588 634 -1 642 621 620 -1 621 642 643 -1 621 643 644 -1 621 644 645 -1 621 645 646 -1 621 646 647 -1 648 649 650 -1 649 648 651 -1 652 653 654 -1 653 652 655 -1 656 657 658 -1 657 656 659 -1 626 660 616 -1 660 626 661 -1 661 626 662 -1 662 626 659 -1 659 626 657 -1 657 626 663 -1 642 622 664 -1 622 642 620 -1 665 659 656 -1 659 665 662 -1 666 667 668 -1 667 666 669 -1 625 651 648 -1 651 625 624 -1 618 670 671 -1 670 618 615 -1 590 634 588 -1 634 590 655 -1 634 655 652 -1 634 652 672 -1 634 672 673 -1 634 673 631 -1 631 673 632 -1 632 673 614 -1 614 673 612 -1 612 673 674 -1 674 673 675 -1 612 674 628 -1 628 674 594 -1 594 674 592 -1 674 675 671 -1 671 675 618 -1 618 675 664 -1 618 664 622 -1 664 675 676 -1 676 675 677 -1 677 675 678 -1 678 675 679 -1 678 679 680 -1 680 679 681 -1 681 679 627 -1 627 679 624 -1 624 679 682 -1 624 682 649 -1 624 649 651 -1 637 592 674 -1 639 683 684 -1 683 639 636 -1 685 686 687 -1 686 685 688 -1 689 671 670 -1 671 689 674 -1 684 668 667 -1 668 684 683 -1 649 690 650 -1 690 649 682 -1 627 647 681 -1 647 627 621 -1 643 677 644 -1 677 643 676 -1 617 670 615 -1 641 589 591 -1 589 641 653 -1 653 641 654 -1 654 641 691 -1 691 641 692 -1 692 641 693 -1 692 693 685 -1 692 685 687 -1 692 687 666 -1 692 666 689 -1 692 689 694 -1 689 666 668 -1 689 668 683 -1 689 683 636 -1 689 636 638 -1 694 689 670 -1 694 670 695 -1 695 670 617 -1 694 695 696 -1 694 696 665 -1 694 665 656 -1 694 656 697 -1 697 656 658 -1 697 658 698 -1 697 698 623 -1 697 623 625 -1 697 625 690 -1 690 625 650 -1 650 625 648 -1 696 662 665 -1 662 696 661 -1 693 640 699 -1 640 693 641 -1 679 694 697 -1 694 679 675 -1 663 658 657 -1 658 663 698 -1 672 654 691 -1 654 672 652 -1 626 698 663 -1 698 626 623 -1 696 660 661 -1 660 696 695 -1 643 664 676 -1 664 643 642 -1 590 653 655 -1 653 590 589 -1 681 646 680 -1 646 681 647 -1 675 692 694 -1 692 675 673 -1 682 697 690 -1 697 682 679 -1 695 616 660 -1 616 695 617 -1 673 691 692 -1 691 673 672 -1 638 674 689 -1 674 638 637 -1 685 699 688 -1 699 685 693 -1 639 699 640 -1 699 639 688 -1 688 639 686 -1 686 639 669 -1 669 639 667 -1 667 639 684 -1 645 680 646 -1 680 645 678 -1 644 678 645 -1 678 644 677 -1 687 669 666 -1 669 687 686 -1 700 701 702 -1 701 700 703 -1 704 702 701 -1 702 704 705 -1 706 707 708 -1 707 706 704 -1 709 701 703 -1 701 709 710 -1 711 712 713 -1 712 711 714 -1 712 714 707 -1 712 707 704 -1 712 704 701 -1 712 701 715 -1 715 701 710 -1 715 710 716 -1 715 716 717 -1 708 718 706 -1 718 708 719 -1 718 719 720 -1 720 719 721 -1 706 722 723 -1 722 706 718 -1 723 722 721 -1 723 721 719 -1 724 714 725 -1 714 724 707 -1 725 711 726 -1 711 725 714 -1 727 728 712 -1 728 727 729 -1 729 727 730 -1 730 727 731 -1 713 732 731 -1 732 713 712 -1 732 712 728 -1 731 732 730 -1 726 713 731 -1 713 726 711 -1 719 707 724 -1 707 719 708 -1 727 726 731 -1 726 727 725 -1 725 727 724 -1 724 723 719 -1 723 724 727 -1 723 727 705 -1 705 727 733 -1 705 733 702 -1 702 733 700 -1 700 733 734 -1 734 733 735 -1 735 733 736 -1 737 700 734 -1 704 723 705 -1 723 704 706 -1 721 730 720 -1 730 721 729 -1 732 720 730 -1 720 732 718 -1 728 718 732 -1 718 728 722 -1 721 728 729 -1 728 721 722 -1 738 739 740 -1 739 738 741 -1 740 742 743 -1 742 740 739 -1 744 743 742 -1 743 744 745 -1 744 738 745 -1 738 744 741 -1 710 737 734 -1 737 710 709 -1 700 739 703 -1 739 700 742 -1 742 700 744 -1 744 700 737 -1 709 741 737 -1 741 709 703 -1 741 703 739 -1 737 741 744 -1 715 738 712 -1 738 715 733 -1 738 733 745 -1 745 733 743 -1 712 740 727 -1 740 712 738 -1 727 740 743 -1 727 743 733 -1 716 734 735 -1 734 716 710 -1 717 735 736 -1 735 717 716 -1 715 736 733 -1 736 715 717 -1 746 747 748 -1 747 746 749 -1 750 746 748 -1 746 750 751 -1 752 750 753 -1 750 752 751 -1 746 752 749 -1 752 746 751 -1 752 747 749 -1 747 752 753 -1 750 747 753 -1 747 750 748 -1 754 755 756 -1 755 754 757 -1 758 754 756 -1 754 758 759 -1 760 758 761 -1 758 760 759 -1 754 760 757 -1 760 754 759 -1 760 755 757 -1 755 760 761 -1 758 755 761 -1 755 758 756 -1 762 763 764 -1 763 762 765 -1 766 764 763 -1 764 766 767 -1 768 769 770 -1 769 768 771 -1 771 768 772 -1 772 768 773 -1 774 775 773 -1 775 774 770 -1 775 770 769 -1 773 775 772 -1 776 777 778 -1 777 776 779 -1 780 767 766 -1 767 780 781 -1 776 781 782 -1 781 776 767 -1 768 783 773 -1 783 768 778 -1 778 768 776 -1 776 768 767 -1 767 768 764 -1 764 768 784 -1 764 784 762 -1 762 784 785 -1 785 784 786 -1 786 784 787 -1 788 762 785 -1 780 779 789 -1 779 780 766 -1 790 763 765 -1 763 790 791 -1 792 770 774 -1 770 792 777 -1 770 777 779 -1 770 779 766 -1 770 766 763 -1 770 763 793 -1 793 763 791 -1 793 791 794 -1 793 794 795 -1 782 779 776 -1 779 782 789 -1 789 796 780 -1 796 789 782 -1 796 782 797 -1 797 782 798 -1 780 799 781 -1 799 780 796 -1 781 799 798 -1 781 798 782 -1 783 774 773 -1 774 783 792 -1 778 792 783 -1 792 778 777 -1 798 772 797 -1 772 798 771 -1 800 801 802 -1 801 800 803 -1 775 797 772 -1 797 775 796 -1 798 769 771 -1 769 798 799 -1 769 796 775 -1 796 769 799 -1 801 804 805 -1 804 801 803 -1 800 806 807 -1 806 800 802 -1 805 807 806 -1 807 805 804 -1 791 788 785 -1 788 791 790 -1 762 804 765 -1 804 762 807 -1 807 762 800 -1 800 762 788 -1 790 803 788 -1 803 790 765 -1 803 765 804 -1 788 803 800 -1 793 801 770 -1 801 793 784 -1 801 784 802 -1 802 784 806 -1 770 805 768 -1 805 770 801 -1 768 805 806 -1 768 806 784 -1 794 785 786 -1 785 794 791 -1 795 786 787 -1 786 795 794 -1 793 787 784 -1 787 793 795 -1 808 809 810 -1 809 808 811 -1 810 812 813 -1 812 810 809 -1 814 815 816 -1 815 814 817 -1 818 819 820 -1 819 818 821 -1 821 818 822 -1 821 822 823 -1 821 823 824 -1 821 824 825 -1 825 824 826 -1 826 824 827 -1 827 824 817 -1 817 824 828 -1 827 817 829 -1 829 817 830 -1 830 817 831 -1 831 817 832 -1 817 828 815 -1 815 828 833 -1 815 833 834 -1 815 834 835 -1 835 834 836 -1 833 828 837 -1 837 828 838 -1 838 828 839 -1 839 828 840 -1 839 840 841 -1 841 840 842 -1 842 840 843 -1 843 840 844 -1 843 844 845 -1 843 845 846 -1 847 832 817 -1 840 848 849 -1 848 840 828 -1 850 851 852 -1 851 850 835 -1 851 835 853 -1 851 853 854 -1 854 853 855 -1 855 853 856 -1 856 853 857 -1 853 835 836 -1 858 843 859 -1 843 858 860 -1 843 860 861 -1 861 860 851 -1 861 851 854 -1 843 861 856 -1 843 856 857 -1 843 857 842 -1 835 816 815 -1 816 835 850 -1 813 862 863 -1 862 813 812 -1 863 864 865 -1 864 863 862 -1 852 816 850 -1 808 866 867 -1 866 808 868 -1 868 808 869 -1 869 808 870 -1 870 808 871 -1 871 808 810 -1 871 810 813 -1 871 813 863 -1 871 863 814 -1 871 814 848 -1 814 863 865 -1 814 865 872 -1 814 872 873 -1 814 873 874 -1 814 874 875 -1 848 814 816 -1 848 816 876 -1 876 816 877 -1 877 816 852 -1 848 876 878 -1 848 878 879 -1 848 879 880 -1 848 880 849 -1 849 880 881 -1 849 881 858 -1 849 858 859 -1 849 859 882 -1 882 859 883 -1 883 859 884 -1 828 871 848 -1 871 828 824 -1 885 829 886 -1 829 885 827 -1 887 888 889 -1 888 887 890 -1 887 891 890 -1 891 887 892 -1 891 893 894 -1 893 891 892 -1 824 870 871 -1 870 824 823 -1 886 830 895 -1 830 886 829 -1 896 825 897 -1 825 896 821 -1 830 898 895 -1 898 830 831 -1 841 857 899 -1 857 841 842 -1 900 837 901 -1 837 900 833 -1 856 902 903 -1 902 856 861 -1 839 899 904 -1 899 839 841 -1 844 849 882 -1 849 844 840 -1 897 826 905 -1 826 897 825 -1 820 868 818 -1 868 820 866 -1 877 906 876 -1 906 877 907 -1 878 908 879 -1 908 878 909 -1 819 866 820 -1 866 819 867 -1 879 910 880 -1 910 879 908 -1 860 907 851 -1 907 860 906 -1 906 860 909 -1 909 860 908 -1 908 860 910 -1 910 860 911 -1 897 912 896 -1 912 897 905 -1 912 905 885 -1 912 885 886 -1 912 886 895 -1 912 895 898 -1 831 912 898 -1 912 831 832 -1 884 845 883 -1 845 884 846 -1 905 827 885 -1 827 905 826 -1 852 907 877 -1 907 852 851 -1 911 858 881 -1 858 911 860 -1 865 913 872 -1 913 865 864 -1 914 874 873 -1 874 914 915 -1 916 857 853 -1 857 916 900 -1 857 900 901 -1 857 901 917 -1 857 917 904 -1 857 904 899 -1 856 918 855 -1 918 856 903 -1 823 869 870 -1 869 823 822 -1 901 838 917 -1 838 901 837 -1 919 855 918 -1 855 919 854 -1 888 891 894 -1 891 888 890 -1 918 902 919 -1 902 918 903 -1 916 833 900 -1 833 916 834 -1 874 847 875 -1 847 874 915 -1 847 915 912 -1 912 915 892 -1 892 915 811 -1 892 811 893 -1 912 892 887 -1 847 912 832 -1 867 811 808 -1 811 867 819 -1 811 819 893 -1 893 819 889 -1 889 819 887 -1 887 819 896 -1 887 896 912 -1 896 819 821 -1 875 817 814 -1 817 875 847 -1 818 869 822 -1 869 818 868 -1 883 844 882 -1 844 883 845 -1 917 839 904 -1 839 917 838 -1 913 873 872 -1 873 913 914 -1 915 809 811 -1 809 915 812 -1 812 915 862 -1 862 915 864 -1 864 915 913 -1 913 915 914 -1 859 846 884 -1 846 859 843 -1 876 909 878 -1 909 876 906 -1 894 889 888 -1 889 894 893 -1 910 881 880 -1 881 910 911 -1 853 834 916 -1 834 853 836 -1 902 854 919 -1 854 902 861 -1 920 921 922 -1 921 920 923 -1 924 920 922 -1 920 924 925 -1 926 924 927 -1 924 926 925 -1 920 926 923 -1 926 920 925 -1 926 921 923 -1 921 926 927 -1 924 921 927 -1 921 924 922 -1 928 929 930 -1 929 928 931 -1 932 928 930 -1 928 932 933 -1 934 932 935 -1 932 934 933 -1 928 934 931 -1 934 928 933 -1 934 929 931 -1 929 934 935 -1 932 929 935 -1 929 932 930 -1 936 937 938 -1 937 936 939 -1 937 939 940 -1 941 942 943 -1 942 941 944 -1 945 946 947 -1 946 945 948 -1 949 950 951 -1 950 949 952 -1 953 954 955 -1 954 953 956 -1 957 947 958 -1 947 957 945 -1 959 945 960 -1 945 959 948 -1 954 937 940 -1 937 954 961 -1 962 963 964 -1 963 962 965 -1 966 967 968 -1 967 966 969 -1 970 971 962 -1 971 970 972 -1 973 974 975 -1 974 973 976 -1 954 939 955 -1 939 954 940 -1 944 977 942 -1 977 944 978 -1 979 956 953 -1 956 979 980 -1 981 977 982 -1 977 981 943 -1 977 943 942 -1 983 950 984 -1 950 983 951 -1 985 986 987 -1 986 985 988 -1 965 989 990 -1 989 965 991 -1 992 965 990 -1 965 992 963 -1 959 984 948 -1 984 959 983 -1 960 957 993 -1 957 960 945 -1 944 958 978 -1 958 944 957 -1 992 980 979 -1 980 992 990 -1 949 994 952 -1 994 949 976 -1 976 949 974 -1 995 973 975 -1 973 995 996 -1 997 988 985 -1 988 997 998 -1 999 998 997 -1 998 999 1000 -1 950 1001 984 -1 1001 950 1002 -1 962 991 965 -1 991 962 971 -1 993 944 941 -1 944 993 957 -1 956 1003 1004 -1 1003 956 980 -1 987 969 966 -1 969 987 986 -1 984 946 948 -1 946 984 1001 -1 996 1000 999 -1 1000 996 995 -1 956 961 954 -1 961 956 1004 -1 938 1003 1005 -1 1003 938 1004 -1 1004 938 961 -1 961 938 937 -1 968 987 966 -1 987 968 985 -1 985 968 1006 -1 985 1006 997 -1 997 1006 1007 -1 997 1007 999 -1 999 1007 1008 -1 999 1008 1009 -1 1009 1008 989 -1 1009 989 991 -1 1009 991 971 -1 1009 971 1010 -1 989 1008 1005 -1 989 1005 1003 -1 1010 971 972 -1 999 1011 996 -1 1011 999 1009 -1 996 1011 947 -1 947 1011 958 -1 958 1011 978 -1 978 1011 982 -1 996 947 973 -1 978 982 977 -1 973 946 976 -1 946 973 947 -1 976 946 1001 -1 976 1001 1002 -1 976 1002 994 -1 980 989 1003 -1 989 980 990 -1 952 1002 950 -1 1002 952 994 -1 970 964 1012 -1 964 970 962 -1 938 1013 936 -1 1013 938 1005 -1 1007 1014 1008 -1 1014 1007 1015 -1 1005 1014 1013 -1 1014 1005 1008 -1 982 1016 981 -1 1016 982 1011 -1 974 959 975 -1 959 974 983 -1 983 974 951 -1 951 974 949 -1 988 969 986 -1 969 988 967 -1 967 988 998 -1 967 998 1017 -1 1017 998 1000 -1 1017 1000 1015 -1 1015 1000 995 -1 1015 995 1016 -1 1016 995 960 -1 1016 960 993 -1 1016 993 941 -1 1016 941 981 -1 960 995 975 -1 960 975 959 -1 981 941 943 -1 1015 1018 1014 -1 1018 1015 1016 -1 1014 1018 992 -1 992 1018 963 -1 963 1018 964 -1 964 1018 1019 -1 1014 992 1013 -1 964 1019 1012 -1 1013 979 936 -1 979 1013 992 -1 936 979 953 -1 936 953 955 -1 936 955 939 -1 1012 972 970 -1 972 1012 1010 -1 1010 1012 1019 -1 968 1017 1006 -1 1017 968 967 -1 1018 1011 1009 -1 1011 1018 1016 -1 1006 1015 1007 -1 1015 1006 1017 -1 1018 1010 1019 -1 1010 1018 1009 -1 1020 1021 1022 -1 1021 1020 1023 -1 1024 1025 1026 -1 1025 1024 1027 -1 1025 1027 1028 -1 1025 1028 1029 -1 1025 1029 1030 -1 1030 1029 1031 -1 1030 1031 1032 -1 1032 1031 1033 -1 1033 1031 1034 -1 1034 1031 1035 -1 1034 1035 1036 -1 1036 1035 1037 -1 1037 1035 1038 -1 1038 1035 1022 -1 1022 1035 1039 -1 1039 1040 1022 -1 1040 1039 1041 -1 1040 1041 1042 -1 1042 1041 1043 -1 1042 1043 1044 -1 1042 1044 1045 -1 1042 1045 1046 -1 1045 1044 1047 -1 1047 1044 1048 -1 1048 1044 1049 -1 1049 1044 1050 -1 1049 1050 1051 -1 1051 1050 1052 -1 1052 1050 1053 -1 1053 1050 1054 -1 1054 1050 1055 -1 1054 1055 1056 -1 1054 1056 1057 -1 1021 1038 1022 -1 1042 1058 1040 -1 1058 1042 1059 -1 1020 1040 1058 -1 1040 1020 1022 -1 1060 1061 1062 -1 1061 1060 1063 -1 1064 1025 1030 -1 1025 1064 1065 -1 1066 1060 1062 -1 1060 1066 1067 -1 1068 1055 1069 -1 1055 1068 1056 -1 1024 1070 1071 -1 1070 1024 1026 -1 1045 1072 1073 -1 1072 1045 1047 -1 1074 1073 1075 -1 1073 1074 1076 -1 1077 1067 1066 -1 1067 1077 1078 -1 1038 1063 1037 -1 1063 1038 1079 -1 1080 1064 1081 -1 1064 1080 1065 -1 1081 1082 1083 -1 1082 1081 1064 -1 1084 1057 1085 -1 1057 1084 1054 -1 1075 1072 1086 -1 1072 1075 1073 -1 1053 1087 1052 -1 1087 1053 1088 -1 1029 1089 1090 -1 1089 1029 1028 -1 1033 1067 1078 -1 1067 1033 1034 -1 1047 1091 1072 -1 1091 1047 1048 -1 1092 1054 1084 -1 1054 1092 1088 -1 1054 1088 1053 -1 1044 1093 1094 -1 1093 1044 1043 -1 1042 1074 1059 -1 1074 1042 1076 -1 1076 1042 1046 -1 1091 1095 1096 -1 1095 1091 1097 -1 1028 1098 1089 -1 1098 1028 1027 -1 1087 1092 1099 -1 1092 1087 1088 -1 1060 1037 1063 -1 1037 1060 1036 -1 1031 1090 1100 -1 1090 1031 1029 -1 1067 1036 1060 -1 1036 1067 1034 -1 1030 1082 1064 -1 1082 1030 1032 -1 1085 1056 1068 -1 1056 1085 1057 -1 1069 1050 1101 -1 1050 1069 1055 -1 1070 1065 1080 -1 1065 1070 1026 -1 1065 1026 1025 -1 1023 1020 1102 -1 1058 1103 1020 -1 1103 1058 1104 -1 1104 1058 1059 -1 1104 1059 1074 -1 1104 1074 1093 -1 1093 1074 1075 -1 1093 1075 1094 -1 1094 1075 1086 -1 1094 1086 1096 -1 1094 1096 1095 -1 1094 1095 1101 -1 1101 1095 1105 -1 1101 1105 1099 -1 1101 1099 1092 -1 1101 1092 1084 -1 1101 1084 1069 -1 1069 1084 1068 -1 1068 1084 1085 -1 1080 1071 1070 -1 1071 1080 1098 -1 1098 1080 1089 -1 1089 1080 1090 -1 1090 1080 1081 -1 1090 1081 1100 -1 1100 1081 1083 -1 1100 1083 1077 -1 1100 1077 1066 -1 1100 1066 1106 -1 1106 1066 1062 -1 1106 1062 1061 -1 1106 1061 1102 -1 1106 1102 1020 -1 1106 1020 1103 -1 1106 1031 1100 -1 1031 1106 1035 -1 1095 1107 1105 -1 1107 1095 1097 -1 1073 1046 1045 -1 1046 1073 1076 -1 1027 1071 1098 -1 1071 1027 1024 -1 1101 1044 1094 -1 1044 1101 1050 -1 1107 1052 1087 -1 1052 1107 1051 -1 1048 1097 1091 -1 1097 1048 1049 -1 1063 1102 1061 -1 1102 1063 1079 -1 1102 1021 1023 -1 1021 1102 1079 -1 1021 1079 1038 -1 1032 1078 1082 -1 1078 1032 1033 -1 1097 1051 1107 -1 1051 1097 1049 -1 1082 1077 1083 -1 1077 1082 1078 -1 1107 1099 1105 -1 1099 1107 1087 -1 1072 1096 1086 -1 1096 1072 1091 -1 1103 1035 1106 -1 1035 1103 1039 -1 1043 1104 1093 -1 1104 1043 1041 -1 1041 1103 1104 -1 1103 1041 1039 -1 1108 1109 1110 -1 1109 1108 1111 -1 1110 1112 1113 -1 1112 1110 1109 -1 1114 1115 1116 -1 1115 1114 1117 -1 1109 1118 1119 -1 1118 1109 1111 -1 1112 1119 1120 -1 1119 1112 1109 -1 1115 1121 1122 -1 1121 1115 1117 -1 1112 1123 1124 -1 1123 1112 1120 -1 1116 1125 1126 -1 1125 1116 1115 -1 1113 1124 1127 -1 1124 1113 1112 -1 1126 1114 1116 -1 1114 1126 1128 -1 1128 1126 1129 -1 1130 1111 1108 -1 1111 1130 1131 -1 1132 1133 1134 -1 1133 1132 1135 -1 1135 1136 1133 -1 1136 1135 1137 -1 1138 1135 1132 -1 1135 1138 1139 -1 1140 1141 1142 -1 1141 1140 1143 -1 1142 1144 1145 -1 1144 1142 1141 -1 1115 1146 1125 -1 1146 1115 1122 -1 1111 1147 1118 -1 1147 1111 1131 -1 1122 1147 1131 -1 1147 1122 1121 -1 1130 1122 1131 -1 1122 1130 1146 -1 1129 1130 1148 -1 1130 1129 1146 -1 1146 1129 1125 -1 1125 1129 1126 -1 1149 1150 1151 -1 1150 1149 1152 -1 1152 1149 1153 -1 1152 1153 1154 -1 1154 1153 1155 -1 1154 1155 1156 -1 1156 1155 1110 -1 1156 1110 1113 -1 1156 1113 1157 -1 1110 1155 1108 -1 1108 1155 1148 -1 1108 1148 1130 -1 1157 1113 1127 -1 1154 1158 1159 -1 1158 1154 1156 -1 1159 1158 1160 -1 1160 1158 1144 -1 1144 1158 1161 -1 1159 1160 1162 -1 1159 1162 1163 -1 1144 1161 1145 -1 1163 1164 1165 -1 1164 1163 1162 -1 1165 1164 1138 -1 1165 1138 1132 -1 1165 1132 1134 -1 1141 1166 1167 -1 1166 1141 1143 -1 1168 1129 1148 -1 1129 1168 1128 -1 1157 1123 1169 -1 1123 1157 1127 -1 1123 1127 1124 -1 1170 1150 1171 -1 1150 1170 1151 -1 1172 1163 1165 -1 1163 1172 1173 -1 1163 1174 1159 -1 1174 1163 1173 -1 1172 1175 1173 -1 1175 1172 1176 -1 1176 1172 1137 -1 1137 1172 1136 -1 1177 1170 1171 -1 1170 1177 1178 -1 1178 1177 1179 -1 1178 1179 1180 -1 1180 1179 1174 -1 1180 1174 1181 -1 1181 1174 1166 -1 1181 1166 1143 -1 1181 1143 1182 -1 1166 1174 1183 -1 1183 1174 1173 -1 1183 1173 1175 -1 1182 1143 1140 -1 1180 1184 1185 -1 1184 1180 1181 -1 1185 1184 1119 -1 1119 1184 1120 -1 1120 1184 1169 -1 1185 1119 1118 -1 1185 1118 1168 -1 1120 1169 1123 -1 1168 1147 1128 -1 1147 1168 1118 -1 1128 1147 1121 -1 1128 1121 1117 -1 1128 1117 1114 -1 1171 1152 1177 -1 1152 1171 1150 -1 1177 1154 1179 -1 1154 1177 1152 -1 1165 1136 1172 -1 1136 1165 1134 -1 1136 1134 1133 -1 1180 1149 1178 -1 1149 1180 1153 -1 1179 1159 1174 -1 1159 1179 1154 -1 1169 1156 1157 -1 1156 1169 1184 -1 1158 1184 1181 -1 1184 1158 1156 -1 1145 1140 1142 -1 1140 1145 1182 -1 1182 1145 1161 -1 1185 1153 1180 -1 1153 1185 1155 -1 1185 1148 1155 -1 1148 1185 1168 -1 1178 1151 1170 -1 1151 1178 1149 -1 1158 1182 1161 -1 1182 1158 1181 -1 1164 1139 1138 -1 1139 1164 1186 -1 1135 1176 1137 -1 1176 1135 1139 -1 1162 1186 1164 -1 1186 1162 1187 -1 1139 1175 1176 -1 1175 1139 1186 -1 1162 1167 1187 -1 1167 1162 1160 -1 1167 1183 1187 -1 1183 1167 1166 -1 1186 1183 1175 -1 1183 1186 1187 -1 1141 1160 1144 -1 1160 1141 1167 -1 1188 1189 1190 -1 1189 1188 1191 -1 1189 1191 1192 -1 1193 1194 1195 -1 1194 1193 1196 -1 1197 1198 1199 -1 1198 1197 1200 -1 1201 1202 1203 -1 1202 1201 1204 -1 1205 1206 1207 -1 1206 1205 1208 -1 1209 1199 1210 -1 1199 1209 1197 -1 1211 1197 1212 -1 1197 1211 1200 -1 1206 1189 1192 -1 1189 1206 1213 -1 1214 1215 1216 -1 1215 1214 1217 -1 1218 1219 1220 -1 1219 1218 1221 -1 1222 1223 1214 -1 1223 1222 1224 -1 1225 1226 1227 -1 1226 1225 1228 -1 1206 1191 1207 -1 1191 1206 1192 -1 1196 1229 1194 -1 1229 1196 1230 -1 1231 1208 1205 -1 1208 1231 1232 -1 1233 1229 1234 -1 1229 1233 1195 -1 1229 1195 1194 -1 1235 1202 1236 -1 1202 1235 1203 -1 1237 1238 1239 -1 1238 1237 1240 -1 1217 1241 1242 -1 1241 1217 1243 -1 1244 1217 1242 -1 1217 1244 1215 -1 1211 1236 1200 -1 1236 1211 1235 -1 1212 1209 1245 -1 1209 1212 1197 -1 1196 1210 1230 -1 1210 1196 1209 -1 1244 1232 1231 -1 1232 1244 1242 -1 1201 1246 1204 -1 1246 1201 1228 -1 1228 1201 1226 -1 1247 1225 1227 -1 1225 1247 1248 -1 1249 1240 1237 -1 1240 1249 1250 -1 1251 1250 1249 -1 1250 1251 1252 -1 1202 1253 1236 -1 1253 1202 1254 -1 1214 1243 1217 -1 1243 1214 1223 -1 1245 1196 1193 -1 1196 1245 1209 -1 1208 1255 1256 -1 1255 1208 1232 -1 1239 1221 1218 -1 1221 1239 1238 -1 1236 1198 1200 -1 1198 1236 1253 -1 1248 1252 1251 -1 1252 1248 1247 -1 1208 1213 1206 -1 1213 1208 1256 -1 1190 1255 1257 -1 1255 1190 1256 -1 1256 1190 1213 -1 1213 1190 1189 -1 1220 1239 1218 -1 1239 1220 1237 -1 1237 1220 1258 -1 1237 1258 1249 -1 1249 1258 1259 -1 1249 1259 1251 -1 1251 1259 1260 -1 1251 1260 1261 -1 1261 1260 1241 -1 1261 1241 1243 -1 1261 1243 1223 -1 1261 1223 1262 -1 1241 1260 1257 -1 1241 1257 1255 -1 1262 1223 1224 -1 1251 1263 1248 -1 1263 1251 1261 -1 1248 1263 1199 -1 1199 1263 1210 -1 1210 1263 1230 -1 1230 1263 1234 -1 1248 1199 1225 -1 1230 1234 1229 -1 1225 1198 1228 -1 1198 1225 1199 -1 1228 1198 1253 -1 1228 1253 1254 -1 1228 1254 1246 -1 1232 1241 1255 -1 1241 1232 1242 -1 1204 1254 1202 -1 1254 1204 1246 -1 1222 1216 1264 -1 1216 1222 1214 -1 1190 1265 1188 -1 1265 1190 1257 -1 1259 1266 1260 -1 1266 1259 1267 -1 1257 1266 1265 -1 1266 1257 1260 -1 1234 1268 1233 -1 1268 1234 1263 -1 1226 1211 1227 -1 1211 1226 1235 -1 1235 1226 1203 -1 1203 1226 1201 -1 1240 1221 1238 -1 1221 1240 1219 -1 1219 1240 1250 -1 1219 1250 1269 -1 1269 1250 1252 -1 1269 1252 1267 -1 1267 1252 1247 -1 1267 1247 1268 -1 1268 1247 1212 -1 1268 1212 1245 -1 1268 1245 1193 -1 1268 1193 1233 -1 1212 1247 1227 -1 1212 1227 1211 -1 1233 1193 1195 -1 1267 1270 1266 -1 1270 1267 1268 -1 1266 1270 1244 -1 1244 1270 1215 -1 1215 1270 1216 -1 1216 1270 1271 -1 1266 1244 1265 -1 1216 1271 1264 -1 1265 1231 1188 -1 1231 1265 1244 -1 1188 1231 1205 -1 1188 1205 1207 -1 1188 1207 1191 -1 1264 1224 1222 -1 1224 1264 1262 -1 1262 1264 1271 -1 1220 1269 1258 -1 1269 1220 1219 -1 1270 1263 1261 -1 1263 1270 1268 -1 1258 1267 1259 -1 1267 1258 1269 -1 1270 1262 1271 -1 1262 1270 1261 -1 1272 1273 1274 -1 1273 1272 1275 -1 1273 1276 1277 -1 1276 1273 1275 -1 1278 1279 1280 -1 1279 1278 1281 -1 1282 1280 1283 -1 1280 1282 1278 -1 1282 1284 1285 -1 1284 1282 1283 -1 1277 1286 1287 -1 1286 1277 1276 -1 1281 1286 1279 -1 1286 1281 1287 -1 1288 1281 1289 -1 1281 1288 1287 -1 1290 1282 1291 -1 1282 1290 1278 -1 1289 1278 1290 -1 1278 1289 1281 -1 1291 1285 1292 -1 1285 1291 1282 -1 1293 1277 1294 -1 1277 1293 1273 -1 1274 1293 1295 -1 1293 1274 1273 -1 1296 1297 1298 -1 1297 1296 1299 -1 1295 1272 1274 -1 1272 1295 1300 -1 1300 1295 1301 -1 1301 1288 1302 -1 1288 1301 1294 -1 1294 1301 1293 -1 1293 1301 1295 -1 1303 1304 1305 -1 1304 1303 1306 -1 1306 1303 1307 -1 1306 1307 1308 -1 1308 1307 1309 -1 1308 1309 1310 -1 1310 1309 1289 -1 1310 1289 1290 -1 1310 1290 1291 -1 1310 1291 1311 -1 1289 1309 1302 -1 1289 1302 1288 -1 1311 1291 1292 -1 1308 1312 1313 -1 1312 1308 1310 -1 1313 1312 1314 -1 1314 1312 1315 -1 1315 1312 1316 -1 1316 1312 1317 -1 1313 1314 1318 -1 1316 1317 1319 -1 1318 1320 1321 -1 1320 1318 1314 -1 1321 1320 1322 -1 1321 1322 1323 -1 1321 1323 1324 -1 1288 1277 1287 -1 1277 1288 1294 -1 1319 1296 1298 -1 1296 1319 1325 -1 1325 1319 1317 -1 1326 1306 1327 -1 1306 1326 1304 -1 1312 1328 1329 -1 1328 1312 1310 -1 1329 1317 1312 -1 1317 1329 1325 -1 1330 1331 1332 -1 1331 1330 1333 -1 1333 1330 1334 -1 1334 1330 1335 -1 1327 1336 1326 -1 1336 1327 1337 -1 1337 1327 1338 -1 1337 1338 1339 -1 1339 1338 1340 -1 1339 1340 1329 -1 1329 1340 1341 -1 1329 1341 1342 -1 1329 1342 1299 -1 1329 1299 1325 -1 1341 1340 1332 -1 1341 1332 1331 -1 1325 1299 1296 -1 1339 1328 1343 -1 1328 1339 1329 -1 1343 1328 1279 -1 1279 1328 1280 -1 1280 1328 1283 -1 1283 1328 1344 -1 1343 1279 1345 -1 1283 1344 1284 -1 1345 1286 1300 -1 1286 1345 1279 -1 1300 1286 1276 -1 1300 1276 1275 -1 1300 1275 1272 -1 1311 1284 1344 -1 1284 1311 1292 -1 1284 1292 1285 -1 1344 1310 1311 -1 1310 1344 1328 -1 1323 1346 1324 -1 1346 1323 1347 -1 1322 1347 1323 -1 1347 1322 1348 -1 1320 1348 1322 -1 1348 1320 1349 -1 1314 1349 1320 -1 1349 1314 1350 -1 1314 1351 1350 -1 1351 1314 1315 -1 1297 1315 1316 -1 1315 1297 1351 -1 1297 1342 1351 -1 1342 1297 1299 -1 1348 1331 1333 -1 1331 1348 1349 -1 1333 1347 1348 -1 1347 1333 1334 -1 1347 1335 1346 -1 1335 1347 1334 -1 1298 1316 1319 -1 1316 1298 1297 -1 1351 1341 1350 -1 1341 1351 1342 -1 1349 1341 1331 -1 1341 1349 1350 -1 1313 1338 1308 -1 1338 1313 1340 -1 1327 1308 1338 -1 1308 1327 1306 -1 1318 1340 1313 -1 1340 1318 1332 -1 1345 1301 1302 -1 1301 1345 1300 -1 1321 1335 1330 -1 1335 1321 1324 -1 1335 1324 1346 -1 1336 1304 1326 -1 1304 1336 1305 -1 1330 1318 1321 -1 1318 1330 1332 -1 1339 1303 1337 -1 1303 1339 1307 -1 1337 1305 1336 -1 1305 1337 1303 -1 1343 1302 1309 -1 1302 1343 1345 -1 1339 1309 1307 -1 1309 1339 1343 -1 "
						                >
							<Coordinate DEF="coords_ME_14-2_001"
							            point="50.283970 -11.815174 19.125120 49.865215 -11.815174 23.062128 51.717258 -11.815174 23.062128 49.865215 -11.815174 19.125120 52.227421 -22.445095 23.062128 49.865215 -18.508087 23.062128 49.865215 -22.445095 23.062128 53.644741 -21.815174 23.062128 54.707733 -20.555332 23.062128 55.416397 -18.665567 23.062128 50.455765 -18.349850 23.062128 55.770725 -16.145884 23.062128 50.888081 -17.917536 23.062128 51.046318 -17.326986 23.062128 51.046318 -13.389977 23.062128 55.770725 -11.815174 23.062128 50.888081 -12.799426 23.062128 50.455765 -12.367113 23.062128 49.865215 -12.208876 23.062128 53.802223 -11.815174 23.062128 51.717258 -8.665568 23.062128 53.802223 -8.665568 23.062128 49.865215 -8.665568 23.062128 55.770725 -8.665568 23.062128 55.770725 -4.334859 23.062128 50.455765 -8.113629 23.062128 49.865215 -8.271868 23.062128 50.888081 -7.681316 23.062128 51.046318 -7.090765 23.062128 51.046318 -3.153757 23.062128 55.416397 -1.815174 23.062128 50.888081 -2.563206 23.062128 50.455765 -2.130893 23.062128 49.865215 -1.972655 23.062128 49.865215 1.964353 23.062128 54.707733 0.074589 23.062128 53.644741 1.334432 23.062128 52.227421 1.964353 23.062128 50.283970 -8.665568 19.125120 49.865215 -8.665568 19.125120 50.376648 -13.094702 21.093624 50.455765 -12.367113 19.125120 50.888081 -12.799426 19.125120 50.160492 -12.878546 21.093624 50.160492 -17.838417 21.093624 49.865215 -17.917536 21.093624 51.046318 -13.389977 19.125120 50.475887 -13.465076 21.093624 53.644741 1.334432 19.125120 54.707733 0.074589 19.125120 49.865215 -22.445095 19.125120 52.227421 -22.445095 19.125120 50.376648 -7.386041 21.093624 50.160492 -7.602197 21.093624 49.865215 -8.271868 19.125120 50.455765 -8.113629 19.125120 49.865215 -7.681316 21.093624 51.046318 -17.326986 19.125120 50.475887 -17.251886 21.093624 49.865215 -12.799426 21.093624 49.865215 -18.508087 19.125120 50.455765 -18.349850 19.125120 50.376648 -17.622261 21.093624 50.888081 -17.917536 19.125120 49.865215 1.964353 19.125120 52.227421 1.964353 19.125120 50.888081 -7.681316 19.125120 50.160492 -2.642325 21.093624 49.865215 -2.563206 21.093624 54.707733 -20.555332 19.125120 55.416397 -18.665567 19.125120 50.475887 -7.015666 21.093624 49.865215 -1.972655 19.125120 55.770725 -8.665568 19.125120 55.770725 -4.334859 19.125120 51.046318 -3.153757 19.125120 51.046318 -7.090765 19.125120 50.475887 -3.228856 21.093624 53.644741 -21.815174 19.125120 50.455765 -2.130893 19.125120 55.770725 -16.145884 19.125120 55.416397 -1.815174 19.125120 49.865215 -12.208876 19.125120 53.802223 -11.815174 19.125120 53.802223 -8.665568 19.125120 50.888081 -2.563206 19.125120 55.770725 -11.815174 19.125120 50.376648 -2.858482 21.093624 51.046318 -13.389977 50.619534 50.376648 -13.094702 48.651031 50.475887 -13.465076 48.651031 50.888081 -12.799426 50.619534 51.046318 -23.232498 46.682526 51.046318 -13.389977 46.682526 50.475887 -23.157398 48.651031 50.888081 -12.799426 46.682526 55.770725 -11.815174 50.619534 55.770725 -23.626198 46.682526 55.770725 -11.815174 46.682526 55.770725 -23.626198 50.619534 50.455765 -12.367113 46.682526 50.160492 -12.878546 48.651031 49.865215 -12.208876 46.682526 49.865215 -12.799426 48.651031 49.865215 -12.208876 50.619534 50.455765 -12.367113 50.619534 50.888081 -23.823048 50.619534 50.376648 -23.527773 48.651031 51.046318 -23.232498 50.619534 55.770725 -8.665568 50.619534 52.265350 -8.665568 46.682526 55.770725 -8.665568 46.682526 53.698639 -8.665568 50.619534 52.265350 -11.815174 46.682526 53.698639 -11.815174 50.619534 55.770725 3.145455 46.682526 55.770725 3.145455 50.619534 53.644741 -27.878166 50.619534 54.707733 -26.933285 46.682526 54.707733 -26.933285 50.619534 53.644741 -27.878166 46.682526 49.865215 7.869865 46.682526 52.227421 7.869865 50.619534 52.227421 7.869865 46.682526 49.865215 7.869865 50.619534 55.416397 -25.515963 46.682526 55.416397 -25.515963 50.619534 49.865215 3.932857 46.682526 49.865215 3.342306 48.651031 49.865215 3.932857 50.619534 52.227421 -28.350607 50.619534 52.227421 -28.350607 46.682526 49.865215 -11.815174 46.682526 51.833717 -11.815174 50.619534 51.833717 -11.815174 46.682526 49.865215 -11.815174 50.619534 51.833717 -8.665568 50.619534 49.865215 -8.665568 46.682526 51.833717 -8.665568 46.682526 49.865215 -8.665568 50.619534 51.046318 2.751755 50.619534 50.376648 3.047030 48.651031 50.475887 2.676656 48.651031 50.888081 3.342306 50.619534 49.865215 -28.350607 46.682526 49.865215 -23.823048 48.651031 49.865215 -24.413599 46.682526 49.865215 -28.350607 50.619534 49.865215 -24.413599 50.619534 50.455765 -24.255362 50.619534 50.160492 -23.743929 48.651031 50.455765 -24.255362 46.682526 54.707733 6.452542 46.682526 55.416397 5.035219 50.619534 55.416397 5.035219 46.682526 54.707733 6.452542 50.619534 53.644741 7.397424 46.682526 53.644741 7.397424 50.619534 50.475887 -7.015666 48.651031 51.046318 2.751755 46.682526 51.046318 -7.090765 46.682526 50.376648 -7.386041 48.651031 50.888081 -7.681316 46.682526 50.455765 -8.113629 50.619534 50.160492 -7.602197 48.651031 50.888081 -7.681316 50.619534 50.455765 3.774619 46.682526 50.888081 3.342306 46.682526 50.160492 3.263187 48.651031 51.046318 -7.090765 50.619534 49.865215 -8.271868 50.619534 50.455765 3.774619 50.619534 49.865215 -7.681316 48.651031 49.865215 -8.271868 46.682526 50.455765 -8.113629 46.682526 50.888081 -23.823048 46.682526 32.739231 -8.271868 62.618507 28.802223 -3.941159 62.618507 32.739231 -3.941159 62.618507 28.802223 -8.271868 62.618507 32.739231 -12.208876 66.555511 28.802223 -12.208876 62.618507 28.802223 -12.208876 66.555511 32.739231 -12.208876 62.618507 28.802223 -8.271868 66.555511 32.739231 -8.271868 66.555511 32.739231 -1.316487 62.854725 32.739231 0.783251 63.327168 32.739231 2.358054 64.035828 32.739231 3.407923 64.980713 32.739231 3.932857 66.161812 32.739231 -1.185253 67.342918 32.739231 3.932857 68.524017 32.739231 -13.389977 67.342918 32.739231 -0.594702 67.501152 32.739231 -0.162389 67.933464 32.739231 -0.004151 68.524017 32.739231 -7.090765 67.342918 32.739231 -12.799426 67.501152 32.739231 -7.681316 67.501152 32.739231 -8.113629 67.933464 32.739231 -12.367113 67.933464 32.739231 -12.208876 68.524017 32.739231 -8.271868 68.524017 32.739231 -12.311275 69.119370 32.739231 -8.169469 69.119370 32.739231 -12.581433 69.659691 32.739231 -7.899309 69.659691 32.739231 -12.996277 70.098824 32.739231 -7.484466 70.098824 32.739231 -12.996277 70.886223 32.739231 -7.484466 70.886223 32.739231 -16.539583 62.618507 32.739231 -19.164255 62.854725 32.739231 -21.263994 63.327168 32.739231 -22.838797 64.035828 32.739231 -23.888666 64.980713 32.739231 -24.413599 66.161812 32.739231 -19.295490 67.342918 32.739231 -24.413599 68.524017 32.739231 -19.886040 67.501152 32.739231 -20.318354 67.933464 32.739231 -20.476591 68.524017 31.164427 -18.901789 72.461029 30.377026 -18.901789 66.949211 31.164427 -18.901789 66.949211 30.377026 -18.901789 72.461029 31.164427 -17.326986 66.949211 31.164427 -17.326986 72.461029 30.377026 -17.326986 72.461029 30.377026 -17.326986 66.949211 31.164427 -3.153757 72.461029 30.377026 -3.153757 66.949211 31.164427 -3.153757 66.949211 30.377026 -3.153757 72.461029 31.164427 -1.578954 66.949211 31.164427 -1.578954 72.461029 30.377026 -1.578954 72.461029 30.377026 -1.578954 66.949211 28.802223 -8.169469 69.119370 29.195923 -8.271868 68.524017 28.802223 -8.271868 68.524017 29.195923 -8.169469 69.119370 29.195923 -7.899309 69.659691 28.802223 -7.899309 69.659691 28.802223 -7.484466 70.098824 29.195923 -7.484466 70.098824 29.195923 -7.484466 70.886223 28.802223 -7.484466 70.886223 29.195923 -12.996277 70.098824 28.802223 -12.996277 70.886223 28.802223 -12.996277 70.098824 29.195923 -12.996277 70.886223 29.195923 -12.581433 69.659691 28.802223 -12.581433 69.659691 28.802223 -12.311275 69.119370 29.195923 -12.311275 69.119370 28.802223 -12.208876 68.524017 29.195923 -12.208876 68.524017 29.195923 -7.681316 67.501152 29.195923 -1.185253 67.342918 29.195923 -7.090765 67.342918 29.195923 -0.594702 67.501152 29.195923 -8.113629 67.933464 29.195923 -0.162389 67.933464 29.195923 -0.004151 68.524017 29.195923 -0.106550 69.119370 29.195923 -0.376709 69.659691 29.195923 -0.791552 70.098824 29.195923 -0.791552 70.886223 29.195923 -19.886040 67.501152 29.195923 -13.389977 67.342918 29.195923 -19.295490 67.342918 29.195923 -12.799426 67.501152 29.195923 -20.318354 67.933464 29.195923 -12.367113 67.933464 29.195923 -20.476591 68.524017 29.195923 -20.374193 69.119370 29.195923 -20.104033 69.659691 29.195923 -19.689190 70.098824 29.195923 -19.689190 70.886223 32.345531 -7.484466 70.098824 32.345531 -7.484466 70.886223 32.345531 -7.899309 69.659691 32.345531 -8.169469 69.119370 32.345531 -8.271868 68.524017 32.345531 -0.106550 69.119370 32.345531 -0.004151 68.524017 32.345531 -0.376709 69.659691 32.345531 -0.791552 70.098824 32.345531 -0.791552 70.886223 32.345531 -0.594702 67.501152 32.345531 -7.090765 67.342918 32.345531 -1.185253 67.342918 32.345531 -7.681316 67.501152 32.345531 -0.162389 67.933464 32.345531 -8.113629 67.933464 32.345531 -19.689190 70.098824 32.345531 -19.689190 70.886223 32.345531 -20.104033 69.659691 32.345531 -20.374193 69.119370 32.345531 -20.476591 68.524017 32.345531 -12.208876 68.524017 32.345531 -12.311275 69.119370 32.345531 -12.581433 69.659691 32.345531 -12.996277 70.098824 32.345531 -12.996277 70.886223 32.345531 -12.799426 67.501152 32.345531 -19.295490 67.342918 32.345531 -13.389977 67.342918 32.345531 -19.886040 67.501152 32.345531 -12.367113 67.933464 32.345531 -20.318354 67.933464 28.802223 -0.004151 68.524017 28.802223 3.932857 68.524017 28.802223 -20.476591 68.524017 28.802223 -20.318354 67.933464 28.802223 -19.886040 67.501152 28.802223 -19.295490 67.342918 28.802223 -13.389977 67.342918 28.802223 -12.799426 67.501152 28.802223 -12.367113 67.933464 28.802223 -8.113629 67.933464 28.802223 -7.681316 67.501152 28.802223 -7.090765 67.342918 28.802223 -1.185253 67.342918 28.802223 -0.594702 67.501152 28.802223 -0.162389 67.933464 28.802223 -24.413599 68.524017 28.802223 -1.316487 62.854725 28.802223 -24.413599 66.161812 28.802223 -16.539583 62.618507 28.802223 -19.164255 62.854725 28.802223 -23.888666 64.980713 28.802223 -21.263994 63.327168 28.802223 -22.838797 64.035828 28.802223 3.932857 66.161812 28.802223 3.407923 64.980713 28.802223 2.358054 64.035828 28.802223 0.783251 63.327168 2.424270 -18.901789 69.715668 1.636868 -18.901789 64.203857 2.424270 -18.901789 64.203857 1.636868 -18.901789 69.715668 2.424270 -17.326986 64.203857 2.424270 -17.326986 69.715668 1.636868 -17.326986 69.715668 1.636868 -17.326986 64.203857 2.424270 -3.153757 69.715668 1.636868 -3.153757 64.203857 2.424270 -3.153757 64.203857 1.636868 -3.153757 69.715668 2.424270 -1.578954 64.203857 2.424270 -1.578954 69.715668 1.636868 -1.578954 69.715668 1.636868 -1.578954 64.203857 3.999073 -8.271868 59.873150 0.062065 3.145455 59.873150 3.999073 3.145455 59.873150 0.062065 -8.271868 59.873150 0.062065 -12.208876 63.416458 3.999073 -12.208876 59.873150 0.062065 -12.208876 59.873150 3.999073 -12.208876 63.416458 3.999073 -8.271868 63.416458 0.062065 -8.271868 63.416458 3.999073 -23.626198 59.873150 3.999073 -25.515963 60.227482 3.999073 -26.933285 60.936142 3.999073 -27.878166 61.999134 3.999073 -28.350607 63.416458 3.999073 5.035219 60.227482 3.999073 6.452542 60.936142 3.999073 7.397424 61.999134 3.999073 7.869865 63.416458 3.999073 2.751755 64.597557 3.999073 7.869865 65.778664 3.999073 3.342306 64.755798 3.999073 3.774619 65.188110 3.999073 3.932857 65.778664 3.999073 -7.681316 64.755798 3.999073 -13.389977 64.597557 3.999073 -7.090765 64.597557 3.999073 -12.799426 64.755798 3.999073 -8.113629 65.188110 3.999073 -12.367113 65.188110 3.999073 -8.271868 65.778664 3.999073 -12.208876 65.778664 3.999073 -8.169469 66.374016 3.999073 -12.311275 66.374016 3.999073 -12.581433 66.914337 3.999073 -7.899309 66.914337 3.999073 -12.996277 67.353470 3.999073 -7.484466 67.353470 3.999073 -12.996277 68.140869 3.999073 -7.484466 68.140869 3.999073 -23.232498 64.597557 3.999073 -28.350607 65.778664 3.999073 -23.823048 64.755798 3.999073 -24.255362 65.188110 3.999073 -24.413599 65.778664 0.062065 -8.169469 66.374016 0.455766 -8.271868 65.778664 0.062065 -8.271868 65.778664 0.455766 -8.169469 66.374016 0.455766 -7.899309 66.914337 0.062065 -7.899309 66.914337 0.062065 -7.484466 67.353470 0.455766 -7.484466 67.353470 0.455766 -7.484466 68.140869 0.062065 -7.484466 68.140869 0.455766 -12.996277 67.353470 0.062065 -12.996277 68.140869 0.062065 -12.996277 67.353470 0.455766 -12.996277 68.140869 0.455766 -12.581433 66.914337 0.062065 -12.581433 66.914337 0.062065 -12.311275 66.374016 0.455766 -12.311275 66.374016 0.062065 -12.208876 65.778664 0.455766 -12.208876 65.778664 3.605372 -23.626198 67.353470 0.455766 -23.626198 68.140869 0.455766 -23.626198 67.353470 3.605372 -23.626198 68.140869 3.605372 -24.041040 66.914337 0.455766 -24.041040 66.914337 0.455766 -24.311201 66.374016 3.605372 -24.311201 66.374016 0.455766 -24.413599 65.778664 3.605372 -24.413599 65.778664 3.605372 3.830458 66.374016 0.455766 3.932857 65.778664 0.455766 3.830458 66.374016 3.605372 3.932857 65.778664 3.605372 3.560299 66.914337 0.455766 3.560299 66.914337 0.455766 3.145455 67.353470 3.605372 3.145455 67.353470 3.605372 3.145455 68.140869 0.455766 3.145455 68.140869 3.605372 -7.484466 67.353470 3.605372 -7.484466 68.140869 3.605372 -7.899309 66.914337 3.605372 -8.169469 66.374016 3.605372 -8.271868 65.778664 0.455766 -7.681316 64.755798 0.455766 2.751755 64.597557 0.455766 -7.090765 64.597557 0.455766 3.342306 64.755798 0.455766 -8.113629 65.188110 0.455766 3.774619 65.188110 0.455766 -23.823048 64.755798 0.455766 -13.389977 64.597557 0.455766 -23.232498 64.597557 0.455766 -12.799426 64.755798 0.455766 -24.255362 65.188110 0.455766 -12.367113 65.188110 3.605372 3.342306 64.755798 3.605372 -7.090765 64.597557 3.605372 2.751755 64.597557 3.605372 -7.681316 64.755798 3.605372 3.774619 65.188110 3.605372 -8.113629 65.188110 3.605372 -12.208876 65.778664 3.605372 -12.311275 66.374016 3.605372 -12.581433 66.914337 3.605372 -12.996277 67.353470 3.605372 -12.996277 68.140869 0.062065 3.932857 65.778664 0.062065 7.869865 65.778664 3.605372 -24.255362 65.188110 3.605372 -12.367113 65.188110 3.605372 -12.799426 64.755798 3.605372 -13.389977 64.597557 3.605372 -23.232498 64.597557 3.605372 -23.823048 64.755798 0.062065 -8.113629 65.188110 0.062065 -7.681316 64.755798 0.062065 -7.090765 64.597557 0.062065 2.751755 64.597557 0.062065 3.342306 64.755798 0.062065 3.774619 65.188110 0.062065 -24.255362 65.188110 0.062065 -24.413599 65.778664 0.062065 -23.823048 64.755798 0.062065 -23.232498 64.597557 0.062065 -13.389977 64.597557 0.062065 -12.799426 64.755798 0.062065 -12.367113 65.188110 0.062065 -28.350607 65.778664 0.062065 -23.626198 59.873150 0.062065 -25.515963 60.227482 0.062065 -26.933285 60.936142 0.062065 -27.878166 61.999134 0.062065 -28.350607 63.416458 0.062065 5.035219 60.227482 0.062065 6.452542 60.936142 0.062065 7.397424 61.999134 0.062065 7.869865 63.416458 28.802223 -13.389977 50.422684 26.833719 -13.094702 51.092354 26.833719 -13.465076 50.993111 28.802223 -12.799426 50.580921 24.865215 -23.232498 50.422684 24.865215 -13.389977 50.422684 26.833719 -23.157398 50.993111 24.865215 -12.799426 50.580921 28.802223 -11.815174 45.698273 24.865215 -23.626198 45.698273 24.865215 -11.815174 45.698273 28.802223 -23.626198 45.698273 24.865215 -12.367113 51.013233 26.833719 -12.878546 51.308510 24.865215 -12.208876 51.603786 26.833719 -12.799426 51.603786 28.802223 -12.208876 51.603786 28.802223 -12.367113 51.013233 28.802223 -23.823048 50.580921 26.833719 -23.527773 51.092354 28.802223 -23.232498 50.422684 28.802223 -8.665568 45.698273 24.865215 -8.665568 49.203651 24.865215 -8.665568 45.698273 28.802223 -8.665568 47.770363 24.865215 -11.815174 49.203651 28.802223 -11.815174 47.770363 24.865215 3.145455 45.698273 28.802223 3.145455 45.698273 28.802223 -27.878166 47.824257 24.865215 -26.933285 46.761265 28.802223 -26.933285 46.761265 24.865215 -27.878166 47.824257 24.865215 7.869865 51.603786 28.802223 7.869865 49.241581 24.865215 7.869865 49.241581 28.802223 7.869865 51.603786 24.865215 -25.515963 46.052605 28.802223 -25.515963 46.052605 24.865215 3.932857 51.603786 26.833719 3.342306 51.603786 28.802223 3.932857 51.603786 28.802223 -28.350607 49.241581 24.865215 -28.350607 49.241581 24.865215 -11.815174 51.603786 28.802223 -11.815174 49.635281 24.865215 -11.815174 49.635281 28.802223 -11.815174 51.603786 28.802223 -8.665568 49.635281 24.865215 -8.665568 51.603786 24.865215 -8.665568 49.635281 28.802223 -8.665568 51.603786 28.802223 2.751755 50.422684 26.833719 3.047030 51.092354 26.833719 2.676656 50.993111 28.802223 3.342306 50.580921 24.865215 -28.350607 51.603786 26.833719 -23.823048 51.603786 24.865215 -24.413599 51.603786 28.802223 -28.350607 51.603786 28.802223 -24.413599 51.603786 28.802223 -24.255362 51.013233 26.833719 -23.743929 51.308510 24.865215 -24.255362 51.013233 24.865215 6.452542 46.761265 28.802223 5.035219 46.052605 24.865215 5.035219 46.052605 28.802223 6.452542 46.761265 24.865215 7.397424 47.824257 28.802223 7.397424 47.824257 26.833719 -7.015666 50.993111 24.865215 2.751755 50.422684 24.865215 -7.090765 50.422684 26.833719 -7.386041 51.092354 24.865215 -7.681316 50.580921 28.802223 -8.113629 51.013233 26.833719 -7.602197 51.308510 28.802223 -7.681316 50.580921 24.865215 3.774619 51.013233 24.865215 3.342306 50.580921 26.833719 3.263187 51.308510 28.802223 -7.090765 50.422684 28.802223 -8.271868 51.603786 28.802223 3.774619 51.013233 26.833719 -7.681316 51.603786 24.865215 -8.271868 51.603786 24.865215 -8.113629 51.013233 24.865215 -23.823048 50.580921 -7.024549 -22.445095 13.810160 -10.961556 -22.445095 11.447954 -7.024549 -22.445095 11.447954 -10.961556 -22.445095 13.810160 -7.024549 -12.208876 13.810160 -7.418250 -12.367113 13.219608 -7.024549 -12.367113 13.219608 -7.418250 -12.208876 13.810160 -8.599352 -14.964781 12.235356 -9.386754 -13.389977 12.235356 -9.386754 -14.964781 12.235356 -8.599352 -13.389977 12.235356 -9.386754 -14.964781 13.810160 -9.386754 -13.389977 13.810160 -8.599352 -13.389977 13.810160 -8.599352 -14.964781 13.810160 -8.599352 -7.090765 12.235356 -9.386754 -5.515962 12.235356 -9.386754 -7.090765 12.235356 -8.599352 -5.515962 12.235356 -8.599352 -5.515962 13.810160 -8.599352 -7.090765 13.810160 -9.386754 -5.515962 13.810160 -7.418250 -17.326986 12.629057 -7.024549 -13.389977 12.629057 -7.418250 -13.389977 12.629057 -7.024549 -17.326986 12.629057 -10.961556 -8.665568 13.810160 -10.567856 -8.271868 13.810160 -10.961556 -8.271868 13.810160 -7.024549 -8.665568 13.810160 -9.386754 -7.090765 13.810160 -7.418250 -8.271868 13.810160 -7.418250 -1.972655 13.810160 -7.024549 -8.271868 13.810160 -10.961556 -1.972655 13.810160 -7.024549 1.964353 13.810160 -10.961556 1.964353 13.810160 -10.567856 -1.972655 13.810160 -7.024549 -1.972655 13.810160 -7.024549 -12.799426 12.787294 -7.418250 -12.799426 12.787294 -7.418250 -17.917536 12.787294 -7.024549 -18.349850 13.219608 -7.024549 -17.917536 12.787294 -7.418250 -18.349850 13.219608 -7.024549 -18.508087 13.810160 -7.418250 -18.508087 13.810160 -10.961556 -12.208876 13.810160 -7.024549 -11.815174 13.810160 -10.961556 -11.815174 13.810160 -10.567856 -12.208876 13.810160 -10.567856 -18.508087 13.810160 -10.961556 -18.508087 13.810160 -7.418250 -8.113629 13.219608 -7.418250 -7.681316 12.787294 -7.418250 -7.090765 12.629057 -7.418250 -3.153757 12.629057 -7.418250 -2.563206 12.787294 -7.418250 -2.130893 13.219608 -10.961556 1.964353 11.447954 -7.024549 1.413172 10.030632 -10.961556 1.413172 10.030632 -7.024549 1.964353 11.447954 -7.024549 -20.791552 8.967640 -10.961556 -21.893915 10.030632 -10.961556 -20.791552 8.967640 -7.024549 -21.893915 10.030632 -10.961556 -3.153757 12.629057 -10.567856 -2.563206 12.787294 -10.961556 -2.563206 12.787294 -10.567856 -3.153757 12.629057 -10.567856 -8.113629 13.219608 -10.567856 -7.681316 12.787294 -10.567856 -7.090765 12.629057 -10.567856 -2.130893 13.219608 -7.024549 -8.113629 13.219608 -10.961556 -7.090765 12.629057 -10.961556 -13.389977 12.629057 -10.567856 -12.799426 12.787294 -10.961556 -12.799426 12.787294 -10.567856 -13.389977 12.629057 -10.961556 -8.665568 9.873152 -7.024549 -8.665568 9.873152 -7.024549 -19.138010 8.258978 -7.024549 -16.933285 7.904647 -7.024549 -11.815174 9.873152 -7.024549 -3.547458 7.904647 -7.024549 -7.681316 12.787294 -7.024549 -7.090765 12.629057 -7.024549 -3.153757 12.629057 -7.024549 -1.342734 8.258978 -7.024549 -2.563206 12.787294 -7.024549 -2.130893 13.219608 -7.024549 0.310810 8.967640 -10.961556 -12.367113 13.219608 -10.567856 -12.367113 13.219608 -10.961556 -17.917536 12.787294 -10.567856 -17.326986 12.629057 -10.961556 -17.326986 12.629057 -10.567856 -17.917536 12.787294 -10.961556 -11.815174 9.873152 -10.961556 0.310810 8.967640 -10.961556 -19.138010 8.258978 -10.961556 -16.933285 7.904647 -10.961556 -18.349850 13.219608 -10.961556 -3.547458 7.904647 -10.961556 -8.113629 13.219608 -10.961556 -7.681316 12.787294 -10.961556 -1.342734 8.258978 -10.961556 -2.130893 13.219608 -10.567856 -18.349850 13.219608 -8.205651 -8.665568 20.109371 -9.780455 -8.665568 18.928270 -8.205651 -8.665568 18.928270 -9.780455 -8.665568 20.109371 -9.780455 -11.815174 18.928270 -8.205651 -11.815174 18.928270 -9.780455 -11.815174 20.109371 -9.780455 -17.720686 19.321970 -9.780455 -17.720686 20.109371 -9.780455 -2.760056 20.109371 -9.780455 -2.760056 19.321970 -9.780455 -18.405689 18.342520 -9.780455 -11.815174 17.747168 -9.780455 -18.508087 17.747168 -9.780455 -18.135529 18.882839 -9.780455 -1.972655 17.747168 -9.780455 -2.345213 18.882839 -9.780455 -2.075054 18.342520 -9.386754 -14.964781 20.109371 -8.205651 -17.720686 20.109371 -8.599352 -14.964781 20.109371 -8.599352 -13.389977 20.109371 -9.386754 -13.389977 20.109371 -8.205651 -11.815174 20.109371 -8.205651 -17.720686 19.321970 -8.205651 -18.135529 18.882839 -8.205651 -18.405689 18.342520 -8.205651 -11.815174 17.747168 -9.386754 -13.389977 17.747168 -8.599352 -13.389977 17.747168 -8.599352 -14.964781 17.747168 -8.205651 -18.508087 17.747168 -9.386754 -14.964781 17.747168 -8.205651 -1.972655 17.747168 -8.205651 -2.760056 19.321970 -8.205651 -2.345213 18.882839 -8.205651 -2.075054 18.342520 -8.205651 -2.760056 20.109371 -9.386754 -5.515962 17.747168 -9.386754 -7.090765 20.109371 -9.386754 -7.090765 17.747168 -9.386754 -5.515962 20.109371 -8.599352 -7.090765 20.109371 -8.599352 -7.090765 17.747168 -8.599352 -5.515962 20.109371 -8.599352 -5.515962 17.747168 -8.599352 -14.964781 21.684175 -9.386754 -14.964781 16.172363 -8.599352 -14.964781 16.172363 -9.386754 -14.964781 21.684175 -8.599352 -13.389977 16.172363 -8.599352 -13.389977 21.684175 -9.386754 -13.389977 21.684175 -9.386754 -13.389977 16.172363 -8.599352 -7.090765 21.684175 -9.386754 -7.090765 16.172363 -8.599352 -7.090765 16.172363 -9.386754 -7.090765 21.684175 -8.599352 -5.515962 16.172363 -8.599352 -5.515962 21.684175 -9.386754 -5.515962 21.684175 -9.386754 -5.515962 16.172363 -8.205651 -8.665568 40.188110 -9.780455 -8.665568 39.007011 -8.205651 -8.665568 39.007011 -9.780455 -8.665568 40.188110 -9.780455 -11.815174 39.007011 -8.205651 -11.815174 39.007011 -8.205651 -11.815174 37.825909 -9.397832 -17.326986 37.825909 -9.780455 -11.815174 37.825909 -8.610431 -17.326986 37.825909 -8.610431 -18.901789 37.825909 -8.205651 -24.413599 37.825909 -9.780455 -24.413599 37.825909 -9.397832 -18.901789 37.825909 -8.205651 -23.626198 39.400711 -9.780455 -24.041040 38.961578 -8.205651 -24.041040 38.961578 -9.780455 -23.626198 39.400711 -9.780455 -11.815174 40.188110 -8.205651 -11.815174 40.188110 -8.205651 -23.626198 40.188110 -8.205651 -24.311201 38.421261 -8.205651 3.932857 37.825909 -8.205651 3.145455 39.400711 -8.205651 3.560299 38.961578 -8.205651 3.830458 38.421261 -8.205651 3.145455 40.188110 -9.780455 -23.626198 40.188110 -9.780455 3.145455 40.188110 -9.780455 3.145455 39.400711 -9.780455 -24.311201 38.421261 -9.780455 3.932857 37.825909 -9.780455 3.560299 38.961578 -9.780455 3.830458 38.421261 -9.397832 -18.901789 40.188110 -8.610431 -18.901789 40.188110 -8.610431 -17.326986 40.188110 -9.397832 -17.326986 40.188110 -8.610431 -1.578954 40.188110 -9.397832 -1.578954 37.825909 -8.610431 -1.578954 37.825909 -9.397832 -1.578954 40.188110 -9.397832 -3.153757 40.188110 -9.397832 -3.153757 37.825909 -8.610431 -3.153757 37.825909 -8.610431 -3.153757 40.188110 -10.961556 -24.413599 33.888901 -10.567856 -24.255362 33.298347 -10.961556 -24.255362 33.298347 -10.567856 -24.413599 33.888901 -10.567856 -23.823048 32.866035 -10.961556 -23.823048 32.866035 -10.961556 -11.815174 29.951891 -7.024549 -8.665568 29.951891 -10.961556 -8.665568 29.951891 -7.024549 -11.815174 29.951891 -7.024549 -27.878166 30.109371 -7.024549 -28.350607 33.888901 -7.024549 -28.350607 31.526695 -7.024549 -24.413599 33.888901 -7.024549 -26.933285 29.046379 -7.024549 -25.515963 28.337719 -7.024549 -23.626198 27.983387 -7.024549 -24.255362 33.298347 -7.024549 -23.823048 32.866035 -7.024549 -23.232498 32.707798 -7.024549 3.145455 27.983387 -7.024549 -13.389977 32.707798 -7.024549 -12.799426 32.866035 -7.024549 -12.367113 33.298347 -7.024549 -12.208876 33.888901 -7.024549 -7.681316 32.866035 -7.024549 -8.113629 33.298347 -7.024549 -8.665568 33.888901 -7.024549 -8.271868 33.888901 -7.024549 -7.090765 32.707798 -7.024549 2.751755 32.707798 -7.024549 3.342306 32.866035 -7.024549 5.035219 28.337719 -7.024549 3.774619 33.298347 -7.024549 3.932857 33.888901 -7.024549 7.869865 33.888901 -7.024549 6.452542 29.046379 -7.024549 7.397424 30.109371 -7.024549 7.869865 31.526695 -7.024549 -11.815174 33.888901 -10.961557 3.145455 27.983387 -10.961557 5.035219 28.337719 -10.961556 -8.665568 33.888901 -10.567856 -8.271868 33.888901 -10.961556 -8.271868 33.888901 -7.418250 -8.271868 33.888901 -9.397832 -3.153757 33.888901 -8.610431 -3.153757 33.888901 -8.610431 -1.578954 33.888901 -7.418250 3.932857 33.888901 -10.961557 3.932857 33.888901 -10.961557 7.869865 33.888901 -10.567856 3.932857 33.888901 -9.397832 -1.578954 33.888901 -10.567856 -23.232498 32.707798 -10.961556 -23.232498 32.707798 -10.567856 -13.389977 32.707798 -10.961556 -13.389977 32.707798 -10.961556 -28.350607 31.526695 -10.961556 -28.350607 33.888901 -10.961556 -27.878166 30.109371 -10.961556 -26.933285 29.046379 -10.961556 -25.515963 28.337719 -10.961556 -23.626198 27.983387 -10.961556 -12.799426 32.866035 -10.961556 -12.367113 33.298347 -10.961556 -12.208876 33.888901 -10.961556 -11.815174 33.888901 -10.961556 -7.681316 32.866035 -10.961556 -8.113629 33.298347 -10.961556 -7.090765 32.707798 -10.961557 2.751755 32.707798 -10.961557 3.342306 32.866035 -10.961557 3.774619 33.298347 -10.961557 6.452542 29.046379 -10.961557 7.397424 30.109371 -10.961557 7.869865 31.526695 -7.418250 -23.232498 32.707798 -7.418250 -13.389977 32.707798 -8.610431 -17.326986 33.888901 -8.610431 -18.901789 32.314095 -8.610431 -18.901789 33.888901 -8.610431 -17.326986 32.314095 -9.397832 -17.326986 32.314095 -9.397832 -17.326986 33.888901 -9.397832 -18.901789 33.888901 -9.397832 -18.901789 32.314095 -7.418250 -12.799426 32.866035 -7.418250 -24.413599 33.888901 -7.418250 -24.255362 33.298347 -7.418250 -12.367113 33.298347 -7.418250 3.774619 33.298347 -7.418250 -7.681316 32.866035 -7.418250 -7.090765 32.707798 -9.397832 -1.578954 32.314095 -8.610431 -1.578954 32.314095 -7.418250 3.342306 32.866035 -7.418250 -23.823048 32.866035 -10.567856 -7.681316 32.866035 -10.567856 -8.113629 33.298347 -10.567856 2.751755 32.707798 -10.567856 -7.090765 32.707798 -10.567856 3.342306 32.866035 -10.567856 3.774619 33.298347 -7.418250 -12.208876 33.888901 -10.567856 -12.799426 32.866035 -10.567856 -12.367113 33.298347 -10.567856 -12.208876 33.888901 -7.418250 -8.113629 33.298347 -7.418250 2.751755 32.707798 -8.610431 -3.153757 32.314095 -9.397832 -3.153757 32.314095 -8.610431 -3.153757 41.762917 -9.397832 -3.153757 36.251102 -8.610431 -3.153757 36.251102 -9.397832 -3.153757 41.762917 -8.610431 -1.578954 36.251102 -8.610431 -1.578954 41.762917 -9.397832 -1.578954 41.762917 -9.397832 -1.578954 36.251102 -8.610431 -18.901789 41.762917 -9.397832 -18.901789 36.251102 -8.610431 -18.901789 36.251102 -9.397832 -18.901789 41.762917 -8.610431 -17.326986 36.251102 -8.610431 -17.326986 41.762917 -9.397832 -17.326986 41.762917 -9.397832 -17.326986 36.251102 61.479389 3.932857 74.429527 65.416397 -0.004151 74.429527 65.416397 3.932857 74.429527 61.479389 -0.004151 74.429527 63.447891 -0.594702 74.429527 61.479389 -12.367113 73.838982 63.447891 -12.799426 74.429527 61.479389 -12.208876 74.429527 63.447891 -12.878546 74.134254 63.447891 -13.465076 73.818855 65.416397 -19.295490 73.248428 65.416397 -13.389977 73.248428 63.447891 -19.220390 73.818855 61.479389 -20.476591 74.429527 63.447891 -19.806921 74.134254 61.479389 -20.318354 73.838982 63.447891 -19.886040 74.429527 61.479389 -0.594702 73.406662 63.447891 -0.673821 74.134254 61.479389 -0.162389 73.838982 63.447891 -0.889978 73.918098 63.447891 -13.094702 73.918098 65.416397 -12.799426 73.406662 61.479389 -19.295490 73.248428 61.479389 -13.389977 73.248428 65.416397 -0.162389 73.838982 63.447891 -7.602197 74.134254 61.479389 -7.681316 73.406662 61.479389 -8.113629 73.838982 63.447891 -7.386041 73.918098 65.416397 -3.941159 68.524017 61.479389 -1.316487 68.760239 65.416397 -1.316487 68.760239 61.479389 -3.941159 68.524017 63.447891 -7.681316 74.429527 65.416397 -8.113629 73.838982 65.416397 -8.271868 74.429527 65.416397 -24.413599 72.067322 61.479389 -24.413599 74.429527 61.479389 -24.413599 72.067322 65.416397 -24.413599 74.429527 65.416397 -12.208876 74.429527 65.416397 -12.367113 73.838982 61.479389 -1.185253 73.248428 63.447891 -1.260352 73.818855 61.479389 -11.815174 74.429527 65.416397 -11.815174 74.429527 61.479389 -19.886040 73.406662 63.447891 -19.590765 73.918098 65.416397 -19.164255 68.760239 61.479389 -16.539583 68.524017 65.416397 -16.539583 68.524017 61.479389 -19.164255 68.760239 65.416397 -7.090765 73.248428 63.447891 -7.015666 73.818855 65.416397 -7.681316 73.406662 61.479389 -7.090765 73.248428 61.479389 -12.799426 73.406662 65.416397 -20.476591 74.429527 61.479389 -23.888666 70.886223 65.416397 -23.888666 70.886223 65.416397 -21.263994 69.232681 61.479389 -21.263994 69.232681 65.416397 -22.838797 69.941338 61.479389 -22.838797 69.941338 65.416397 -19.886040 73.406662 65.416397 -20.318354 73.838982 65.416397 -1.185253 73.248428 65.416397 -0.594702 73.406662 65.416397 3.932857 72.067322 65.416397 0.783251 69.232681 65.416397 2.358054 69.941338 65.416397 3.407923 70.886223 65.416397 -8.665568 70.492523 65.416397 -8.665568 74.429527 65.416397 -11.815174 70.492523 61.479389 -8.271868 74.429527 61.479389 3.932857 72.067322 61.479389 3.407923 70.886223 61.479389 2.358054 69.941338 61.479389 -11.815174 70.492523 61.479389 0.783251 69.232681 61.479389 -8.665568 70.492523 61.479389 -8.665568 74.429527 26.046318 -11.815174 23.627626 29.983326 -11.815174 24.046379 29.983326 -11.815174 22.194338 26.046318 -11.815174 24.046379 29.983326 -22.445095 21.684175 29.983326 -18.508087 24.046379 29.983326 -22.445095 24.046379 29.983326 -21.815174 20.266851 29.983326 -20.555332 19.203859 29.983326 -18.665567 18.495199 29.983326 -18.349850 23.455828 29.983326 -16.145884 18.140867 29.983326 -17.917536 23.023516 29.983326 -17.326986 22.865278 29.983326 -13.389977 22.865278 29.983326 -11.815174 18.140867 29.983326 -12.799426 23.023516 29.983326 -12.367113 23.455828 29.983326 -12.208876 24.046379 29.983326 -11.815174 20.109371 29.983326 -8.665568 22.194336 29.983326 -8.665568 20.109371 29.983326 -8.665568 24.046379 29.983326 -8.665568 18.140867 29.983326 -4.334859 18.140867 29.983326 -8.113629 23.455828 29.983326 -8.271868 24.046379 29.983326 -7.681316 23.023516 29.983326 -7.090765 22.865278 29.983326 -3.153757 22.865278 29.983326 -1.815174 18.495199 29.983326 -2.563206 23.023516 29.983326 -2.130893 23.455828 29.983326 -1.972655 24.046379 29.983326 1.964353 24.046379 29.983326 0.074589 19.203859 29.983326 1.334432 20.266851 29.983326 1.964353 21.684175 26.046318 -8.665568 23.627625 26.046318 -8.665568 24.046379 28.014822 -13.094702 23.534948 26.046318 -12.367113 23.455828 26.046318 -12.799426 23.023516 28.014822 -12.878546 23.751104 28.014822 -17.838417 23.751104 28.014822 -17.917536 24.046379 26.046318 -13.389977 22.865278 28.014822 -13.465076 23.435705 26.046318 1.334432 20.266851 26.046318 0.074589 19.203859 26.046318 -22.445095 24.046379 26.046318 -22.445095 21.684175 28.014822 -7.386041 23.534948 28.014822 -7.602197 23.751104 26.046318 -8.271868 24.046379 26.046318 -8.113629 23.455828 28.014822 -7.681316 24.046379 26.046318 -17.326986 22.865278 28.014822 -17.251886 23.435705 28.014822 -12.799426 24.046379 26.046318 -18.508087 24.046379 26.046318 -18.349850 23.455828 28.014822 -17.622261 23.534948 26.046318 -17.917536 23.023516 26.046318 1.964353 24.046379 26.046318 1.964353 21.684175 26.046318 -7.681316 23.023516 28.014822 -2.642325 23.751104 28.014822 -2.563206 24.046379 26.046318 -20.555332 19.203859 26.046318 -18.665567 18.495199 28.014822 -7.015666 23.435705 26.046318 -1.972655 24.046379 26.046318 -8.665568 18.140867 26.046318 -4.334859 18.140867 26.046318 -3.153757 22.865278 26.046318 -7.090765 22.865278 28.014822 -3.228856 23.435705 26.046318 -21.815174 20.266851 26.046318 -2.130893 23.455828 26.046318 -16.145884 18.140867 26.046318 -1.815174 18.495199 26.046318 -12.208876 24.046379 26.046318 -11.815174 20.109371 26.046318 -8.665568 20.109371 26.046318 -2.563206 23.023516 26.046318 -11.815174 18.140867 28.014822 -2.858482 23.534948 -34.583603 -13.389977 44.518822 -32.615101 -13.094702 45.188492 -34.583603 -12.799426 44.677059 -32.615101 -13.465076 45.089249 -32.615101 -12.878546 45.404648 -34.583603 -12.367113 45.109371 -30.646597 -18.508087 45.699924 -32.615101 -17.838417 45.404648 -32.615101 -17.917536 45.699924 -30.646597 -18.349850 45.109371 -30.646597 -13.389977 44.518822 -30.646597 -12.799426 44.677059 -30.646597 -12.367113 45.109371 -30.646597 -17.917536 44.677059 -32.615101 -17.622261 45.188492 -30.646597 -12.208876 45.699924 -32.615101 -12.799426 45.699924 -34.583603 -18.349850 45.109371 -34.583603 -18.508087 45.699924 -34.583603 -12.208876 45.699924 -30.646597 -22.445095 45.699924 -34.583603 -22.445095 45.699924 -34.583603 -17.326986 44.518822 -32.615101 -17.251886 45.089249 -34.583603 -2.130893 45.109371 -32.615101 -2.563206 45.699924 -34.583603 -1.972655 45.699924 -32.615101 -2.642325 45.404648 -30.646597 -1.972655 45.699924 -30.646597 -2.130893 45.109371 -34.583603 -2.563206 44.677059 -32.615101 -2.858482 45.188492 -30.646597 -8.271868 45.699924 -32.615101 -7.602197 45.404648 -32.615101 -7.681316 45.699924 -30.646597 -8.113629 45.109371 -34.583603 -8.113629 45.109371 -34.583603 -8.271868 45.699924 -34.583603 -17.917536 44.677059 -30.646597 -17.326986 44.518822 -34.583603 -22.445095 43.337719 -34.583603 -18.665567 40.148743 -34.583603 -4.334859 39.794411 -34.583603 -16.145884 39.794411 -34.583603 -1.815174 40.148743 -34.583603 -20.555332 40.857403 -34.583603 0.074589 40.857403 -34.583603 -21.815174 41.920395 -34.583603 -11.815174 41.762917 -34.583603 -11.815174 45.699924 -34.583603 -8.665568 41.762917 -34.583603 1.334432 41.920395 -34.583603 -7.681316 44.677059 -34.583603 -8.665568 45.699924 -34.583603 -7.090765 44.518822 -34.583603 1.964353 43.337719 -34.583603 -3.153757 44.518822 -34.583603 1.964353 45.699924 -30.646597 -7.681316 44.677059 -32.615101 -7.386041 45.188492 -30.646597 -22.445095 43.337719 -30.646597 -11.815174 45.699924 -30.646597 -16.145884 39.794411 -30.646597 -4.334859 39.794411 -30.646597 1.964353 45.699924 -30.646597 1.964353 43.337719 -30.646597 1.334432 41.920395 -30.646597 -3.153757 44.518822 -30.646597 -2.563206 44.677059 -30.646597 -1.815174 40.148743 -30.646597 -18.665567 40.148743 -30.646597 0.074589 40.857403 -30.646597 -20.555332 40.857403 -30.646597 -8.665568 41.762917 -30.646597 -8.665568 45.699924 -30.646597 -7.090765 44.518822 -30.646597 -11.815174 41.762917 -30.646597 -21.815174 41.920395 -32.615101 -3.228856 45.089249 -32.615101 -7.015666 45.089249 -58.205650 3.932857 71.684174 -54.268642 -0.004151 71.684174 -54.268642 3.932857 71.684174 -58.205650 -0.004151 71.684174 -56.237148 -0.594702 71.684174 -58.205650 -12.367113 71.093620 -56.237148 -12.799426 71.684174 -58.205650 -12.208876 71.684174 -56.237148 -12.878546 71.388901 -56.237148 -13.465076 71.073502 -54.268642 -19.295490 70.503075 -54.268642 -13.389977 70.503075 -56.237148 -19.220390 71.073502 -58.205650 -20.476591 71.684174 -56.237148 -19.806921 71.388901 -58.205650 -20.318354 71.093620 -56.237148 -19.886040 71.684174 -58.205650 -0.594702 70.661308 -56.237148 -0.673821 71.388901 -58.205650 -0.162389 71.093620 -56.237148 -0.889978 71.172745 -56.237148 -13.094702 71.172745 -54.268642 -12.799426 70.661308 -58.205650 -19.295490 70.503075 -58.205650 -13.389977 70.503075 -54.268642 -0.162389 71.093620 -56.237148 -7.602197 71.388901 -58.205650 -7.681316 70.661308 -58.205650 -8.113629 71.093620 -56.237148 -7.386041 71.172745 -54.268642 -3.941159 65.778664 -58.205650 -1.316487 66.014885 -54.268642 -1.316487 66.014885 -58.205650 -3.941159 65.778664 -56.237148 -7.681316 71.684174 -54.268642 -8.113629 71.093620 -54.268642 -8.271868 71.684174 -54.268642 -24.413599 69.321968 -58.205650 -24.413599 71.684174 -58.205650 -24.413599 69.321968 -54.268642 -24.413599 71.684174 -54.268642 -12.208876 71.684174 -54.268642 -12.367113 71.093620 -58.205650 -1.185253 70.503075 -56.237148 -1.260352 71.073502 -58.205650 -11.815174 71.684174 -54.268642 -11.815174 71.684174 -58.205650 -19.886040 70.661308 -56.237148 -19.590765 71.172745 -54.268642 -19.164255 66.014885 -58.205650 -16.539583 65.778664 -54.268642 -16.539583 65.778664 -58.205650 -19.164255 66.014885 -54.268642 -7.090765 70.503075 -56.237148 -7.015666 71.073502 -54.268642 -7.681316 70.661308 -58.205650 -7.090765 70.503075 -58.205650 -12.799426 70.661308 -54.268642 -20.476591 71.684174 -58.205650 -23.888666 68.140869 -54.268642 -23.888666 68.140869 -54.268642 -21.263994 66.487328 -58.205650 -21.263994 66.487328 -54.268642 -22.838797 67.195984 -58.205650 -22.838797 67.195984 -54.268642 -19.886040 70.661308 -54.268642 -20.318354 71.093620 -54.268642 -1.185253 70.503075 -54.268642 -0.594702 70.661308 -54.268642 3.932857 69.321968 -54.268642 0.783251 66.487328 -54.268642 2.358054 67.195984 -54.268642 3.407923 68.140869 -54.268642 -8.665568 67.747169 -54.268642 -8.665568 71.684174 -54.268642 -11.815174 67.747169 -58.205650 -8.271868 71.684174 -58.205650 3.932857 69.321968 -58.205650 3.407923 68.140869 -58.205650 2.358054 67.195984 -58.205650 -11.815174 67.747169 -58.205650 0.783251 66.487328 -58.205650 -8.665568 67.747169 -58.205650 -8.665568 71.684174 -30.646597 -24.413599 65.778664 -32.615101 -23.743929 65.483391 -32.615101 -23.823048 65.778664 -30.646597 -24.255362 65.188110 -30.646597 -23.823048 64.755798 -32.615101 -23.527773 65.267227 -32.615101 -13.094702 65.267227 -30.646597 -13.389977 64.597557 -30.646597 -12.799426 64.755798 -32.615101 -13.465076 65.167992 -32.615101 -12.878546 65.483391 -30.646597 -12.367113 65.188110 -30.646597 -12.208876 65.778664 -32.615101 -12.799426 65.778664 -30.646597 -23.232498 64.597557 -32.615101 -23.157398 65.167992 -34.583603 -23.232498 64.597557 -34.583603 -13.389977 64.597557 -34.583603 -12.799426 64.755798 -34.583603 -12.367113 65.188110 -34.583603 -12.208876 65.778664 -34.583603 -24.255362 65.188110 -34.583603 -23.823048 64.755798 -34.583603 -24.413599 65.778664 -30.646597 -8.271868 65.778664 -32.615101 -7.602197 65.483391 -32.615101 -7.681316 65.778664 -30.646597 -8.113629 65.188110 -30.646597 -28.350607 65.778664 -34.583603 -28.350607 65.778664 -34.583603 -28.350607 63.416458 -34.583603 -25.515963 60.227482 -34.583603 3.145455 59.873150 -34.583603 -23.626198 59.873150 -34.583603 5.035219 60.227482 -34.583603 -26.933285 60.936142 -34.583603 6.452542 60.936142 -34.583603 -27.878166 61.999134 -34.583603 -11.815174 61.841656 -34.583603 -11.815174 65.778664 -34.583603 -8.665568 61.841656 -34.583603 7.397424 61.999134 -34.583603 -7.090765 64.597557 -34.583603 -7.681316 64.755798 -34.583603 -8.113629 65.188110 -34.583603 -8.665568 65.778664 -34.583603 7.869865 63.416458 -34.583603 -8.271868 65.778664 -34.583603 2.751755 64.597557 -34.583603 7.869865 65.778664 -34.583603 3.342306 64.755798 -34.583603 3.774619 65.188110 -34.583603 3.932857 65.778664 -30.646597 -8.665568 65.778664 -30.646597 3.145455 59.873150 -30.646597 5.035219 60.227482 -30.646597 -11.815174 61.841656 -30.646597 -8.665568 61.841656 -30.646597 7.869865 65.778664 -30.646597 2.751755 64.597557 -30.646597 7.869865 63.416458 -30.646597 3.342306 64.755798 -30.646597 3.774619 65.188110 -30.646597 3.932857 65.778664 -30.646597 -23.626198 59.873150 -30.646597 -25.515963 60.227482 -30.646597 6.452542 60.936142 -30.646597 -26.933285 60.936142 -30.646597 7.397424 61.999134 -30.646597 -7.090765 64.597557 -30.646597 -7.681316 64.755798 -30.646597 -27.878166 61.999134 -30.646597 -11.815174 65.778664 -30.646597 -28.350607 63.416458 -32.615101 3.342306 65.778664 -32.615101 3.263187 65.483391 -32.615101 3.047030 65.267227 -32.615101 2.676656 65.167992 -32.615101 -7.015666 65.167992 -32.615101 -7.386041 65.267227 "
							            />
						</IndexedFaceSet>
					</Shape>
				</Group>
			</Transform>
		</Transform>
	</Scene>
</X3D>