<?xml version="1.0" encoding="UTF-8"?>
<!DOCTYPE X3D PUBLIC "ISO//Web3D//DTD X3D 3.0//EN" "http://www.web3d.org/specifications/x3d-3.0.dtd">
<X3D version="3.0" profile="Immersive" xmlns:xsd="http://www.w3.org/2001/XMLSchema-instance" xsd:noNamespaceSchemaLocation="http://www.web3d.org/specifications/x3d-3.0.xsd">
	<head>
		<meta name="filename" content="20-1-2.x3d" />
		<meta name="created" content="2026-06-21 15:09:40" />
		<meta name="generator" content="Blender 4.5.4 LTS" />
		<meta name="translator" content="Web3D X3D/VRML2 format v2.5.1" />
	</head>
	<Scene>
		<NavigationInfo headlight="true"
		                visibilityLimit="0.0"
		                type='"EXAMINE", "ANY"'
		                avatarSize="0.25, 1.75, 0.75"
		                />
		<Background DEF="WO_World"
		            groundColor="0.051 0.051 0.051"
		            skyColor="0.051 0.051 0.051"
		            />
		<Transform DEF="_20-1-2_TRANSFORM"
		           translation="0.000000 0.000000 0.000000"
		           scale="1.000000 1.000000 1.000000"
		           rotation="0.000000 0.707107 0.707107 3.141593"
		           >
			<Transform DEF="_20-1-2_ifs_TRANSFORM"
			           translation="0.000000 0.000000 0.000000"
			           scale="1.000000 1.000000 1.000000"
			           rotation="0.000000 1.000000 0.000000 0.000000"
			           >
				<Group DEF="group_ME_20-1-2_001">
					<Shape>
						<Appearance>
						</Appearance>
						<IndexedFaceSet solid="false"
						                coordIndex="0 1 2 -1 1 0 3 -1 4 5 6 -1 5 4 7 -1 8 4 9 -1 4 8 7 -1 7 8 1 -1 7 1 3 -1 7 3 10 -1 7 10 11 -1 7 11 12 -1 7 12 13 -1 14 3 0 -1 3 14 10 -1 11 14 15 -1 14 11 10 -1 16 11 15 -1 11 16 12 -1 1 17 2 -1 17 1 8 -1 5 18 6 -1 18 5 17 -1 17 5 2 -1 2 5 0 -1 0 5 14 -1 14 5 15 -1 15 5 16 -1 16 5 19 -1 8 18 17 -1 18 8 9 -1 4 18 9 -1 18 4 6 -1 5 13 19 -1 13 5 7 -1 19 12 16 -1 12 19 13 -1 20 21 22 -1 21 20 23 -1 23 20 24 -1 23 24 25 -1 25 24 26 -1 25 26 27 -1 28 29 30 -1 28 30 31 -1 32 33 34 -1 34 33 35 -1 32 27 33 -1 27 32 25 -1 23 32 36 -1 32 23 25 -1 28 24 29 -1 24 28 26 -1 37 38 39 -1 40 41 36 -1 40 42 41 -1 43 38 37 -1 23 41 21 -1 41 23 36 -1 22 39 20 -1 39 22 37 -1 44 45 46 -1 45 44 47 -1 48 44 49 -1 44 48 47 -1 50 49 51 -1 49 50 48 -1 43 51 38 -1 51 43 50 -1 50 43 42 -1 50 42 40 -1 52 30 53 -1 30 52 31 -1 31 52 35 -1 35 52 34 -1 54 53 55 -1 53 54 52 -1 56 55 57 -1 55 56 54 -1 58 57 59 -1 57 58 56 -1 45 60 61 -1 60 45 58 -1 58 45 47 -1 58 47 56 -1 56 47 48 -1 56 48 54 -1 54 48 50 -1 54 50 52 -1 52 50 40 -1 52 40 34 -1 34 40 36 -1 34 36 32 -1 60 59 62 -1 59 60 58 -1 45 63 46 -1 63 45 61 -1 21 37 22 -1 37 21 43 -1 43 21 42 -1 42 21 41 -1 60 63 61 -1 63 60 62 -1 59 63 62 -1 63 59 46 -1 46 59 57 -1 46 57 44 -1 44 57 55 -1 44 55 49 -1 49 55 53 -1 49 53 51 -1 51 53 30 -1 51 30 38 -1 38 30 29 -1 38 29 39 -1 39 29 24 -1 39 24 20 -1 35 28 31 -1 28 35 26 -1 26 35 27 -1 27 35 33 -1 64 65 66 -1 65 64 67 -1 67 64 68 -1 67 68 69 -1 69 68 70 -1 69 70 71 -1 72 73 74 -1 72 74 75 -1 76 77 78 -1 78 77 79 -1 76 71 77 -1 71 76 69 -1 67 76 80 -1 76 67 69 -1 72 68 73 -1 68 72 70 -1 81 82 83 -1 84 85 80 -1 84 86 85 -1 87 82 81 -1 67 85 65 -1 85 67 80 -1 66 83 64 -1 83 66 81 -1 88 89 90 -1 89 88 91 -1 92 88 93 -1 88 92 91 -1 94 93 95 -1 93 94 92 -1 87 95 82 -1 95 87 94 -1 94 87 86 -1 94 86 84 -1 96 74 97 -1 74 96 75 -1 75 96 79 -1 79 96 78 -1 98 97 99 -1 97 98 96 -1 100 99 101 -1 99 100 98 -1 102 101 103 -1 101 102 100 -1 89 104 105 -1 104 89 102 -1 102 89 91 -1 102 91 100 -1 100 91 92 -1 100 92 98 -1 98 92 94 -1 98 94 96 -1 96 94 84 -1 96 84 78 -1 78 84 80 -1 78 80 76 -1 104 103 106 -1 103 104 102 -1 89 107 90 -1 107 89 105 -1 65 81 66 -1 81 65 87 -1 87 65 86 -1 86 65 85 -1 104 107 105 -1 107 104 106 -1 103 107 106 -1 107 103 90 -1 90 103 101 -1 90 101 88 -1 88 101 99 -1 88 99 93 -1 93 99 97 -1 93 97 95 -1 95 97 74 -1 95 74 82 -1 82 74 73 -1 82 73 83 -1 83 73 68 -1 83 68 64 -1 79 72 75 -1 72 79 70 -1 70 79 71 -1 71 79 77 -1 108 109 110 -1 109 108 111 -1 111 108 112 -1 111 112 113 -1 113 112 114 -1 113 114 115 -1 115 114 116 -1 115 116 117 -1 117 116 118 -1 117 118 119 -1 119 118 120 -1 119 120 121 -1 121 120 122 -1 121 122 123 -1 124 113 115 -1 113 124 125 -1 126 127 128 -1 127 126 129 -1 128 130 131 -1 130 128 127 -1 131 132 133 -1 132 131 130 -1 133 134 135 -1 134 133 132 -1 136 137 138 -1 137 136 139 -1 138 140 141 -1 140 138 137 -1 142 143 144 -1 143 142 145 -1 142 146 147 -1 146 142 144 -1 125 111 113 -1 111 125 148 -1 147 149 150 -1 149 147 146 -1 129 151 127 -1 151 129 152 -1 127 153 130 -1 153 127 151 -1 130 154 132 -1 154 130 153 -1 132 155 134 -1 155 132 154 -1 137 156 157 -1 156 137 139 -1 137 158 140 -1 158 137 157 -1 144 159 160 -1 159 144 143 -1 146 160 161 -1 160 146 144 -1 146 162 149 -1 162 146 161 -1 163 111 148 -1 111 163 109 -1 152 164 151 -1 164 152 165 -1 151 166 153 -1 166 151 164 -1 153 167 154 -1 167 153 166 -1 167 155 154 -1 155 167 168 -1 157 169 170 -1 169 157 156 -1 170 158 157 -1 158 170 171 -1 160 172 173 -1 172 160 159 -1 161 173 174 -1 173 161 160 -1 161 175 162 -1 175 161 174 -1 176 109 163 -1 109 176 110 -1 177 178 179 -1 178 177 180 -1 181 182 183 -1 182 181 184 -1 185 186 187 -1 186 185 188 -1 189 118 116 -1 118 189 190 -1 191 192 193 -1 192 191 194 -1 194 195 192 -1 195 194 196 -1 182 197 198 -1 197 182 199 -1 195 200 201 -1 200 195 196 -1 184 199 182 -1 199 184 202 -1 186 202 184 -1 202 186 203 -1 120 204 122 -1 204 120 205 -1 188 203 186 -1 203 188 206 -1 187 184 181 -1 184 187 186 -1 207 208 209 -1 208 207 210 -1 183 198 211 -1 198 183 182 -1 212 177 213 -1 177 212 180 -1 214 206 215 -1 206 214 203 -1 216 203 214 -1 203 216 202 -1 217 210 207 -1 210 217 218 -1 190 120 118 -1 120 190 205 -1 219 202 216 -1 202 219 199 -1 197 219 220 -1 219 197 199 -1 221 222 223 -1 222 221 224 -1 210 201 208 -1 201 210 195 -1 225 211 226 -1 211 225 183 -1 227 181 228 -1 181 227 187 -1 218 195 210 -1 195 218 192 -1 229 180 212 -1 180 229 230 -1 193 218 231 -1 218 193 192 -1 178 230 232 -1 230 178 180 -1 233 218 217 -1 218 233 231 -1 223 234 235 -1 234 223 222 -1 222 179 234 -1 179 222 177 -1 236 194 191 -1 194 236 237 -1 224 177 222 -1 177 224 213 -1 237 196 194 -1 196 237 238 -1 228 183 225 -1 183 228 181 -1 239 187 227 -1 187 239 185 -1 240 196 238 -1 196 240 200 -1 241 242 243 -1 242 241 244 -1 245 246 247 -1 246 245 248 -1 220 244 241 -1 244 220 219 -1 249 250 251 -1 250 249 252 -1 243 245 247 -1 245 243 242 -1 253 254 255 -1 254 253 256 -1 242 257 245 -1 257 242 258 -1 259 253 260 -1 253 259 256 -1 216 261 262 -1 261 216 214 -1 258 263 257 -1 263 258 264 -1 262 264 258 -1 264 262 261 -1 264 265 263 -1 265 264 266 -1 251 267 268 -1 267 251 250 -1 269 254 256 -1 254 269 270 -1 214 271 261 -1 271 214 215 -1 122 272 123 -1 272 122 204 -1 230 270 269 -1 270 230 229 -1 219 262 244 -1 262 219 216 -1 232 269 273 -1 269 232 230 -1 240 274 275 -1 274 240 238 -1 276 249 277 -1 249 276 252 -1 121 278 119 -1 278 121 279 -1 244 258 242 -1 258 244 262 -1 278 117 119 -1 117 278 280 -1 261 266 264 -1 266 261 271 -1 275 252 276 -1 252 275 274 -1 274 250 252 -1 250 274 281 -1 123 279 121 -1 279 123 272 -1 238 281 274 -1 281 238 237 -1 250 282 267 -1 282 250 281 -1 265 283 263 -1 283 265 284 -1 263 285 257 -1 285 263 283 -1 282 237 236 -1 237 282 281 -1 273 256 259 -1 256 273 269 -1 257 248 245 -1 248 257 285 -1 286 251 287 -1 251 286 249 -1 163 288 176 -1 288 163 175 -1 175 163 148 -1 175 148 162 -1 162 148 125 -1 162 125 149 -1 149 125 124 -1 149 124 150 -1 150 124 280 -1 150 280 289 -1 289 280 277 -1 277 280 278 -1 277 278 276 -1 276 278 279 -1 276 279 275 -1 275 279 272 -1 288 290 176 -1 290 288 291 -1 290 291 292 -1 292 291 293 -1 292 293 294 -1 294 293 209 -1 294 209 189 -1 189 209 208 -1 189 208 201 -1 189 201 190 -1 190 201 200 -1 190 200 205 -1 205 200 240 -1 205 240 204 -1 204 240 275 -1 204 275 272 -1 295 141 296 -1 141 295 138 -1 297 138 295 -1 138 297 136 -1 285 133 248 -1 133 285 131 -1 286 150 289 -1 150 286 147 -1 248 135 246 -1 135 248 133 -1 165 298 299 -1 298 165 152 -1 298 152 300 -1 300 152 129 -1 300 129 239 -1 239 129 126 -1 239 126 185 -1 185 126 284 -1 185 284 188 -1 188 284 265 -1 188 265 206 -1 206 265 266 -1 206 266 215 -1 215 266 271 -1 284 128 283 -1 128 284 126 -1 172 301 302 -1 301 172 171 -1 171 172 159 -1 171 159 158 -1 158 159 143 -1 158 143 140 -1 140 143 145 -1 140 145 141 -1 141 145 303 -1 141 303 296 -1 296 303 260 -1 260 303 268 -1 260 268 259 -1 259 268 267 -1 259 267 273 -1 273 267 282 -1 301 304 302 -1 304 301 305 -1 304 305 306 -1 306 305 307 -1 306 307 233 -1 233 307 235 -1 233 235 231 -1 231 235 234 -1 231 234 179 -1 231 179 193 -1 193 179 178 -1 193 178 191 -1 191 178 232 -1 191 232 236 -1 236 232 273 -1 236 273 282 -1 249 289 277 -1 289 249 286 -1 287 145 142 -1 145 287 303 -1 295 255 297 -1 255 295 253 -1 283 131 285 -1 131 283 128 -1 169 308 309 -1 308 169 168 -1 168 169 156 -1 168 156 155 -1 155 156 139 -1 155 139 134 -1 134 139 136 -1 134 136 135 -1 135 136 297 -1 135 297 246 -1 246 297 247 -1 247 297 255 -1 247 255 243 -1 243 255 254 -1 243 254 241 -1 241 254 270 -1 308 310 309 -1 310 308 311 -1 310 311 312 -1 312 311 313 -1 312 313 221 -1 221 313 226 -1 221 226 224 -1 224 226 211 -1 224 211 198 -1 224 198 213 -1 213 198 197 -1 213 197 212 -1 212 197 220 -1 212 220 229 -1 229 220 241 -1 229 241 270 -1 287 147 286 -1 147 287 142 -1 280 115 117 -1 115 280 124 -1 253 296 260 -1 296 253 295 -1 287 268 303 -1 268 287 251 -1 314 315 316 -1 315 314 317 -1 318 319 320 -1 319 318 321 -1 322 305 323 -1 305 322 307 -1 315 291 316 -1 291 315 293 -1 310 322 323 -1 322 310 312 -1 324 308 325 -1 308 324 311 -1 292 114 112 -1 114 292 294 -1 319 324 325 -1 324 319 321 -1 326 311 324 -1 311 326 313 -1 327 324 321 -1 324 327 326 -1 298 320 299 -1 320 298 318 -1 328 321 318 -1 321 328 327 -1 290 110 176 -1 110 290 108 -1 174 288 175 -1 288 174 329 -1 327 225 326 -1 225 327 228 -1 300 227 328 -1 227 300 239 -1 328 228 327 -1 228 328 227 -1 304 317 314 -1 317 304 306 -1 300 318 298 -1 318 300 328 -1 326 226 313 -1 226 326 225 -1 173 329 174 -1 329 173 330 -1 312 223 322 -1 223 312 221 -1 169 331 170 -1 331 169 309 -1 292 108 290 -1 108 292 112 -1 322 235 307 -1 235 322 223 -1 325 168 167 -1 168 325 308 -1 164 319 166 -1 319 164 320 -1 316 288 329 -1 288 316 291 -1 306 217 317 -1 217 306 233 -1 173 302 330 -1 302 173 172 -1 314 329 330 -1 329 314 316 -1 317 207 315 -1 207 317 217 -1 331 171 170 -1 171 331 301 -1 302 314 330 -1 314 302 304 -1 315 209 293 -1 209 315 207 -1 166 325 167 -1 325 166 319 -1 165 320 164 -1 320 165 299 -1 323 301 331 -1 301 323 305 -1 294 116 114 -1 116 294 189 -1 309 323 331 -1 323 309 310 -1 332 333 334 -1 333 332 335 -1 336 337 338 -1 337 336 339 -1 337 339 340 -1 341 338 337 -1 342 343 344 -1 343 342 345 -1 346 347 348 -1 347 346 349 -1 349 346 350 -1 350 346 337 -1 350 337 340 -1 351 352 353 -1 354 355 356 -1 355 354 357 -1 357 354 358 -1 358 359 357 -1 359 358 360 -1 359 361 362 -1 361 359 363 -1 363 359 360 -1 359 355 357 -1 355 359 362 -1 361 354 356 -1 354 361 363 -1 356 362 355 -1 362 356 361 -1 342 349 350 -1 349 342 364 -1 364 342 344 -1 364 344 365 -1 364 365 351 -1 364 351 353 -1 364 353 366 -1 367 368 369 -1 368 367 370 -1 368 370 371 -1 368 371 372 -1 368 372 373 -1 368 373 374 -1 368 374 375 -1 348 337 346 -1 337 348 376 -1 337 376 341 -1 341 376 377 -1 377 376 378 -1 378 376 379 -1 379 376 380 -1 380 376 381 -1 382 376 383 -1 376 382 381 -1 381 382 384 -1 385 386 387 -1 386 385 388 -1 388 385 389 -1 388 389 390 -1 388 390 391 -1 391 390 355 -1 355 390 383 -1 355 383 356 -1 356 383 376 -1 391 362 392 -1 362 391 355 -1 392 362 361 -1 392 361 364 -1 392 364 393 -1 393 364 366 -1 393 366 394 -1 347 376 348 -1 376 347 356 -1 356 347 349 -1 356 349 361 -1 361 349 364 -1 341 395 338 -1 395 341 377 -1 394 396 393 -1 396 394 397 -1 377 398 395 -1 398 377 378 -1 399 400 401 -1 400 399 402 -1 403 404 405 -1 404 403 406 -1 407 408 409 -1 408 407 410 -1 408 410 411 -1 412 339 413 -1 339 412 411 -1 411 412 408 -1 414 415 416 -1 415 414 417 -1 343 418 419 -1 418 343 420 -1 421 332 334 -1 332 421 408 -1 408 421 409 -1 398 379 422 -1 379 398 378 -1 393 423 392 -1 423 393 396 -1 396 424 423 -1 424 396 425 -1 417 426 415 -1 426 417 427 -1 428 373 372 -1 373 428 429 -1 425 420 430 -1 420 425 418 -1 333 421 334 -1 421 333 431 -1 412 333 335 -1 333 412 431 -1 431 412 413 -1 402 422 400 -1 422 402 398 -1 397 425 396 -1 425 397 418 -1 415 432 429 -1 432 415 426 -1 402 406 403 -1 406 402 399 -1 429 374 373 -1 374 429 432 -1 410 426 411 -1 426 410 432 -1 345 420 343 -1 420 345 427 -1 379 380 422 -1 411 427 345 -1 427 411 426 -1 416 429 428 -1 429 416 415 -1 424 430 433 -1 430 424 425 -1 433 417 414 -1 417 433 430 -1 374 410 375 -1 410 374 432 -1 366 397 394 -1 397 366 352 -1 352 366 353 -1 434 421 336 -1 421 434 407 -1 421 407 409 -1 336 431 339 -1 431 336 421 -1 339 431 413 -1 430 427 417 -1 427 430 420 -1 412 332 408 -1 332 412 335 -1 343 365 344 -1 365 343 419 -1 411 340 339 -1 340 411 350 -1 350 411 342 -1 342 411 345 -1 351 419 352 -1 419 351 365 -1 352 418 397 -1 418 352 419 -1 435 436 437 -1 436 435 438 -1 400 381 384 -1 381 400 422 -1 381 422 380 -1 405 438 435 -1 438 405 404 -1 439 437 440 -1 437 439 434 -1 441 442 443 -1 442 441 444 -1 444 441 445 -1 445 441 446 -1 446 441 447 -1 447 441 440 -1 440 441 439 -1 401 384 382 -1 384 401 400 -1 437 447 440 -1 447 437 436 -1 391 423 448 -1 423 391 392 -1 438 449 436 -1 449 438 450 -1 404 450 438 -1 450 404 451 -1 406 451 404 -1 451 406 452 -1 453 454 455 -1 454 453 456 -1 399 452 406 -1 452 399 457 -1 386 458 459 -1 458 386 388 -1 399 460 457 -1 460 399 401 -1 401 383 460 -1 383 401 382 -1 436 446 447 -1 446 436 449 -1 458 461 462 -1 461 458 448 -1 463 456 453 -1 456 463 464 -1 448 424 461 -1 424 448 423 -1 450 465 449 -1 465 450 466 -1 451 466 450 -1 466 451 467 -1 338 403 405 -1 403 338 395 -1 452 467 451 -1 467 452 468 -1 469 470 471 -1 470 469 463 -1 457 468 452 -1 468 457 472 -1 457 473 472 -1 473 457 460 -1 454 372 371 -1 372 454 428 -1 460 390 473 -1 390 460 383 -1 449 445 446 -1 445 449 465 -1 474 475 476 -1 475 474 471 -1 466 477 465 -1 477 466 478 -1 461 433 479 -1 433 461 424 -1 434 435 437 -1 435 434 336 -1 395 402 403 -1 402 395 398 -1 456 428 454 -1 428 456 416 -1 453 480 481 -1 480 453 455 -1 336 405 435 -1 405 336 338 -1 387 459 482 -1 459 387 386 -1 473 389 483 -1 389 473 390 -1 465 444 445 -1 444 465 477 -1 464 416 456 -1 416 464 414 -1 478 484 477 -1 484 478 485 -1 486 485 478 -1 485 486 487 -1 488 487 486 -1 487 488 489 -1 490 489 488 -1 489 490 491 -1 463 481 470 -1 481 463 453 -1 462 471 474 -1 471 462 469 -1 490 492 491 -1 492 490 483 -1 483 385 492 -1 385 483 389 -1 484 444 477 -1 444 484 442 -1 455 371 370 -1 371 455 454 -1 485 493 484 -1 493 485 494 -1 487 494 485 -1 494 487 495 -1 489 495 487 -1 495 489 475 -1 491 475 489 -1 475 491 476 -1 491 482 476 -1 482 491 492 -1 459 462 474 -1 462 459 458 -1 479 414 464 -1 414 479 433 -1 455 367 480 -1 367 455 370 -1 388 448 458 -1 448 388 391 -1 492 387 482 -1 387 492 385 -1 482 474 476 -1 474 482 459 -1 493 442 484 -1 442 493 496 -1 496 493 497 -1 443 442 496 -1 469 464 463 -1 464 469 479 -1 481 493 494 -1 493 481 480 -1 495 481 494 -1 481 495 470 -1 471 495 475 -1 495 471 470 -1 462 479 469 -1 479 462 461 -1 354 360 358 -1 360 354 363 -1 498 369 368 -1 369 498 499 -1 496 441 443 -1 441 496 500 -1 498 407 501 -1 407 498 410 -1 410 498 368 -1 410 368 375 -1 441 434 439 -1 434 441 500 -1 500 407 434 -1 407 500 501 -1 467 478 466 -1 478 467 486 -1 499 496 497 -1 496 499 498 -1 496 498 500 -1 500 498 501 -1 472 483 490 -1 483 472 473 -1 472 488 468 -1 488 472 490 -1 480 497 493 -1 497 480 499 -1 499 367 369 -1 367 499 480 -1 468 486 467 -1 486 468 488 -1 502 503 504 -1 503 502 505 -1 506 507 508 -1 507 506 509 -1 510 506 511 -1 506 510 509 -1 509 510 503 -1 509 503 505 -1 509 505 512 -1 509 512 513 -1 509 513 514 -1 509 514 515 -1 516 505 502 -1 505 516 512 -1 513 516 517 -1 516 513 512 -1 518 513 517 -1 513 518 514 -1 503 519 504 -1 519 503 510 -1 507 520 508 -1 520 507 519 -1 519 507 504 -1 504 507 502 -1 502 507 516 -1 516 507 517 -1 517 507 518 -1 518 507 521 -1 510 520 519 -1 520 510 511 -1 506 520 511 -1 520 506 508 -1 507 515 521 -1 515 507 509 -1 521 514 518 -1 514 521 515 -1 522 523 524 -1 523 522 525 -1 525 522 526 -1 525 526 527 -1 527 526 528 -1 527 528 529 -1 530 531 532 -1 530 532 533 -1 534 535 536 -1 536 535 537 -1 534 529 535 -1 529 534 527 -1 525 534 538 -1 534 525 527 -1 530 526 531 -1 526 530 528 -1 539 540 541 -1 542 543 538 -1 542 544 543 -1 545 540 539 -1 525 543 523 -1 543 525 538 -1 524 541 522 -1 541 524 539 -1 546 547 548 -1 547 546 549 -1 550 546 551 -1 546 550 549 -1 552 551 553 -1 551 552 550 -1 545 553 540 -1 553 545 552 -1 552 545 544 -1 552 544 542 -1 554 532 555 -1 532 554 533 -1 533 554 537 -1 537 554 536 -1 556 555 557 -1 555 556 554 -1 558 557 559 -1 557 558 556 -1 560 559 561 -1 559 560 558 -1 547 562 563 -1 562 547 560 -1 560 547 549 -1 560 549 558 -1 558 549 550 -1 558 550 556 -1 556 550 552 -1 556 552 554 -1 554 552 542 -1 554 542 536 -1 536 542 538 -1 536 538 534 -1 562 561 564 -1 561 562 560 -1 547 565 548 -1 565 547 563 -1 523 539 524 -1 539 523 545 -1 545 523 544 -1 544 523 543 -1 562 565 563 -1 565 562 564 -1 561 565 564 -1 565 561 548 -1 548 561 559 -1 548 559 546 -1 546 559 557 -1 546 557 551 -1 551 557 555 -1 551 555 553 -1 553 555 532 -1 553 532 540 -1 540 532 531 -1 540 531 541 -1 541 531 526 -1 541 526 522 -1 537 530 533 -1 530 537 528 -1 528 537 529 -1 529 537 535 -1 566 567 568 -1 567 566 569 -1 569 566 570 -1 569 570 571 -1 571 570 572 -1 571 572 573 -1 574 575 576 -1 574 576 577 -1 578 579 580 -1 580 579 581 -1 578 573 579 -1 573 578 571 -1 569 578 582 -1 578 569 571 -1 574 570 575 -1 570 574 572 -1 583 584 585 -1 586 587 582 -1 586 588 587 -1 589 584 583 -1 569 587 567 -1 587 569 582 -1 568 585 566 -1 585 568 583 -1 590 591 592 -1 591 590 593 -1 594 590 595 -1 590 594 593 -1 596 595 597 -1 595 596 594 -1 589 597 584 -1 597 589 596 -1 596 589 588 -1 596 588 586 -1 598 576 599 -1 576 598 577 -1 577 598 581 -1 581 598 580 -1 600 599 601 -1 599 600 598 -1 602 601 603 -1 601 602 600 -1 604 603 605 -1 603 604 602 -1 591 606 607 -1 606 591 604 -1 604 591 593 -1 604 593 602 -1 602 593 594 -1 602 594 600 -1 600 594 596 -1 600 596 598 -1 598 596 586 -1 598 586 580 -1 580 586 578 -1 578 586 582 -1 606 605 608 -1 605 606 604 -1 591 609 592 -1 609 591 607 -1 567 583 568 -1 583 567 589 -1 589 567 588 -1 588 567 587 -1 606 609 607 -1 609 606 608 -1 605 609 608 -1 609 605 592 -1 592 605 603 -1 592 603 590 -1 590 603 601 -1 590 601 595 -1 595 601 599 -1 595 599 597 -1 597 599 576 -1 597 576 584 -1 584 576 575 -1 584 575 585 -1 585 575 570 -1 585 570 566 -1 581 574 577 -1 574 581 572 -1 572 581 573 -1 573 581 579 -1 610 611 612 -1 611 610 613 -1 613 610 614 -1 613 614 615 -1 615 614 616 -1 615 616 617 -1 617 616 618 -1 617 618 619 -1 619 618 620 -1 619 620 621 -1 621 620 622 -1 621 622 623 -1 623 622 624 -1 623 624 625 -1 626 615 617 -1 615 626 627 -1 628 629 630 -1 629 628 631 -1 630 632 633 -1 632 630 629 -1 633 634 635 -1 634 633 632 -1 635 636 637 -1 636 635 634 -1 638 639 640 -1 639 638 641 -1 640 642 643 -1 642 640 639 -1 644 645 646 -1 645 644 647 -1 644 648 649 -1 648 644 646 -1 627 613 615 -1 613 627 650 -1 649 651 652 -1 651 649 648 -1 631 653 629 -1 653 631 654 -1 629 655 632 -1 655 629 653 -1 632 656 634 -1 656 632 655 -1 634 657 636 -1 657 634 656 -1 639 658 659 -1 658 639 641 -1 639 660 642 -1 660 639 659 -1 646 661 662 -1 661 646 645 -1 648 662 663 -1 662 648 646 -1 648 664 651 -1 664 648 663 -1 665 613 650 -1 613 665 611 -1 654 666 653 -1 666 654 667 -1 653 668 655 -1 668 653 666 -1 655 669 656 -1 669 655 668 -1 669 657 656 -1 657 669 670 -1 659 671 672 -1 671 659 658 -1 672 660 659 -1 660 672 673 -1 662 674 675 -1 674 662 661 -1 663 675 676 -1 675 663 662 -1 663 677 664 -1 677 663 676 -1 678 611 665 -1 611 678 612 -1 679 680 681 -1 680 679 682 -1 683 684 685 -1 684 683 686 -1 687 688 689 -1 688 687 690 -1 691 620 618 -1 620 691 692 -1 693 694 695 -1 694 693 696 -1 696 697 694 -1 697 696 698 -1 684 699 700 -1 699 684 701 -1 697 702 703 -1 702 697 698 -1 686 701 684 -1 701 686 704 -1 688 704 686 -1 704 688 705 -1 622 706 624 -1 706 622 707 -1 690 705 688 -1 705 690 708 -1 689 686 683 -1 686 689 688 -1 709 710 711 -1 710 709 712 -1 685 700 713 -1 700 685 684 -1 714 679 715 -1 679 714 682 -1 716 708 717 -1 708 716 705 -1 718 705 716 -1 705 718 704 -1 719 712 709 -1 712 719 720 -1 692 622 620 -1 622 692 707 -1 721 704 718 -1 704 721 701 -1 699 721 722 -1 721 699 701 -1 723 724 725 -1 724 723 726 -1 712 703 710 -1 703 712 697 -1 727 713 728 -1 713 727 685 -1 729 683 730 -1 683 729 689 -1 720 697 712 -1 697 720 694 -1 731 682 714 -1 682 731 732 -1 695 720 733 -1 720 695 694 -1 680 732 734 -1 732 680 682 -1 735 720 719 -1 720 735 733 -1 725 736 737 -1 736 725 724 -1 724 681 736 -1 681 724 679 -1 738 696 693 -1 696 738 739 -1 726 679 724 -1 679 726 715 -1 739 698 696 -1 698 739 740 -1 730 685 727 -1 685 730 683 -1 741 689 729 -1 689 741 687 -1 742 698 740 -1 698 742 702 -1 743 744 745 -1 744 743 746 -1 747 748 749 -1 748 747 750 -1 722 746 743 -1 746 722 721 -1 751 752 753 -1 752 751 754 -1 745 747 749 -1 747 745 744 -1 755 756 757 -1 756 755 758 -1 744 759 747 -1 759 744 760 -1 761 755 762 -1 755 761 758 -1 718 763 764 -1 763 718 716 -1 760 765 759 -1 765 760 766 -1 764 766 760 -1 766 764 763 -1 766 767 765 -1 767 766 768 -1 753 769 770 -1 769 753 752 -1 771 756 758 -1 756 771 772 -1 716 773 763 -1 773 716 717 -1 624 774 625 -1 774 624 706 -1 732 772 771 -1 772 732 731 -1 721 764 746 -1 764 721 718 -1 734 771 775 -1 771 734 732 -1 742 776 777 -1 776 742 740 -1 778 751 779 -1 751 778 754 -1 623 780 621 -1 780 623 781 -1 746 760 744 -1 760 746 764 -1 780 619 621 -1 619 780 782 -1 763 768 766 -1 768 763 773 -1 777 754 778 -1 754 777 776 -1 776 752 754 -1 752 776 783 -1 625 781 623 -1 781 625 774 -1 740 783 776 -1 783 740 739 -1 752 784 769 -1 784 752 783 -1 767 785 765 -1 785 767 786 -1 765 787 759 -1 787 765 785 -1 784 739 738 -1 739 784 783 -1 775 758 761 -1 758 775 771 -1 759 750 747 -1 750 759 787 -1 788 753 789 -1 753 788 751 -1 665 790 678 -1 790 665 677 -1 677 665 650 -1 677 650 664 -1 664 650 627 -1 664 627 651 -1 651 627 626 -1 651 626 652 -1 652 626 782 -1 652 782 791 -1 791 782 779 -1 779 782 780 -1 779 780 778 -1 778 780 781 -1 778 781 777 -1 777 781 774 -1 790 792 678 -1 792 790 793 -1 792 793 794 -1 794 793 795 -1 794 795 796 -1 796 795 711 -1 796 711 691 -1 691 711 710 -1 691 710 703 -1 691 703 692 -1 692 703 702 -1 692 702 707 -1 707 702 742 -1 707 742 706 -1 706 742 777 -1 706 777 774 -1 797 643 798 -1 643 797 640 -1 799 640 797 -1 640 799 638 -1 787 635 750 -1 635 787 633 -1 788 652 791 -1 652 788 649 -1 750 637 748 -1 637 750 635 -1 667 800 801 -1 800 667 654 -1 800 654 802 -1 802 654 631 -1 802 631 741 -1 741 631 628 -1 741 628 687 -1 687 628 786 -1 687 786 690 -1 690 786 767 -1 690 767 708 -1 708 767 768 -1 708 768 717 -1 717 768 773 -1 786 630 785 -1 630 786 628 -1 674 803 804 -1 803 674 673 -1 673 674 661 -1 673 661 660 -1 660 661 645 -1 660 645 642 -1 642 645 647 -1 642 647 643 -1 643 647 805 -1 643 805 798 -1 798 805 762 -1 762 805 770 -1 762 770 761 -1 761 770 769 -1 761 769 775 -1 775 769 784 -1 803 806 804 -1 806 803 807 -1 806 807 808 -1 808 807 809 -1 808 809 735 -1 735 809 737 -1 735 737 733 -1 733 737 736 -1 733 736 681 -1 733 681 695 -1 695 681 680 -1 695 680 693 -1 693 680 734 -1 693 734 738 -1 738 734 775 -1 738 775 784 -1 751 791 779 -1 791 751 788 -1 789 647 644 -1 647 789 805 -1 797 757 799 -1 757 797 755 -1 785 633 787 -1 633 785 630 -1 671 810 811 -1 810 671 670 -1 670 671 658 -1 670 658 657 -1 657 658 641 -1 657 641 636 -1 636 641 638 -1 636 638 637 -1 637 638 799 -1 637 799 748 -1 748 799 749 -1 749 799 757 -1 749 757 745 -1 745 757 756 -1 745 756 743 -1 743 756 772 -1 810 812 811 -1 812 810 813 -1 812 813 814 -1 814 813 815 -1 814 815 723 -1 723 815 728 -1 723 728 726 -1 726 728 713 -1 726 713 700 -1 726 700 715 -1 715 700 699 -1 715 699 714 -1 714 699 722 -1 714 722 731 -1 731 722 743 -1 731 743 772 -1 789 649 788 -1 649 789 644 -1 782 617 619 -1 617 782 626 -1 755 798 762 -1 798 755 797 -1 789 770 805 -1 770 789 753 -1 816 817 818 -1 817 816 819 -1 820 821 822 -1 821 820 823 -1 824 807 825 -1 807 824 809 -1 817 793 818 -1 793 817 795 -1 812 824 825 -1 824 812 814 -1 826 810 827 -1 810 826 813 -1 794 616 614 -1 616 794 796 -1 821 826 827 -1 826 821 823 -1 828 813 826 -1 813 828 815 -1 829 826 823 -1 826 829 828 -1 800 822 801 -1 822 800 820 -1 830 823 820 -1 823 830 829 -1 792 612 678 -1 612 792 610 -1 676 790 677 -1 790 676 831 -1 829 727 828 -1 727 829 730 -1 802 729 830 -1 729 802 741 -1 830 730 829 -1 730 830 729 -1 806 819 816 -1 819 806 808 -1 802 820 800 -1 820 802 830 -1 828 728 815 -1 728 828 727 -1 675 831 676 -1 831 675 832 -1 814 725 824 -1 725 814 723 -1 671 833 672 -1 833 671 811 -1 794 610 792 -1 610 794 614 -1 824 737 809 -1 737 824 725 -1 827 670 669 -1 670 827 810 -1 666 821 668 -1 821 666 822 -1 818 790 831 -1 790 818 793 -1 808 719 819 -1 719 808 735 -1 675 804 832 -1 804 675 674 -1 816 831 832 -1 831 816 818 -1 819 709 817 -1 709 819 719 -1 833 673 672 -1 673 833 803 -1 804 816 832 -1 816 804 806 -1 817 711 795 -1 711 817 709 -1 668 827 669 -1 827 668 821 -1 667 822 666 -1 822 667 801 -1 825 803 833 -1 803 825 807 -1 796 618 616 -1 618 796 691 -1 811 825 833 -1 825 811 812 -1 834 835 836 -1 835 834 837 -1 838 839 840 -1 839 838 841 -1 839 841 842 -1 843 840 839 -1 844 845 846 -1 845 844 847 -1 848 849 850 -1 849 848 851 -1 851 848 852 -1 852 848 839 -1 852 839 842 -1 853 854 855 -1 856 857 858 -1 857 856 859 -1 859 856 860 -1 860 861 859 -1 861 860 862 -1 861 863 864 -1 863 861 865 -1 865 861 862 -1 861 857 859 -1 857 861 864 -1 863 856 858 -1 856 863 865 -1 858 864 857 -1 864 858 863 -1 844 851 852 -1 851 844 866 -1 866 844 846 -1 866 846 867 -1 866 867 853 -1 866 853 855 -1 866 855 868 -1 869 870 871 -1 870 869 872 -1 870 872 873 -1 870 873 874 -1 870 874 875 -1 870 875 876 -1 870 876 877 -1 850 839 848 -1 839 850 563 -1 839 563 843 -1 843 563 878 -1 878 563 879 -1 879 563 880 -1 880 563 881 -1 881 563 882 -1 883 563 884 -1 563 883 882 -1 882 883 885 -1 886 887 888 -1 887 886 889 -1 889 886 890 -1 889 890 891 -1 889 891 892 -1 892 891 857 -1 857 891 884 -1 857 884 858 -1 858 884 563 -1 892 864 893 -1 864 892 857 -1 893 864 863 -1 893 863 866 -1 893 866 894 -1 894 866 868 -1 894 868 895 -1 849 563 850 -1 563 849 858 -1 858 849 851 -1 858 851 863 -1 863 851 866 -1 843 896 840 -1 896 843 878 -1 895 897 894 -1 897 895 898 -1 878 899 896 -1 899 878 879 -1 900 901 902 -1 901 900 903 -1 904 905 906 -1 905 904 907 -1 908 909 910 -1 909 908 911 -1 909 911 912 -1 913 841 914 -1 841 913 912 -1 912 913 909 -1 915 916 917 -1 916 915 918 -1 845 919 920 -1 919 845 921 -1 922 834 836 -1 834 922 909 -1 909 922 910 -1 899 880 923 -1 880 899 879 -1 894 924 893 -1 924 894 897 -1 897 925 924 -1 925 897 926 -1 918 927 916 -1 927 918 928 -1 929 875 874 -1 875 929 930 -1 926 921 931 -1 921 926 919 -1 835 922 836 -1 922 835 591 -1 913 835 837 -1 835 913 591 -1 591 913 914 -1 903 923 901 -1 923 903 899 -1 898 926 897 -1 926 898 919 -1 916 932 930 -1 932 916 927 -1 903 907 904 -1 907 903 900 -1 930 876 875 -1 876 930 932 -1 911 927 912 -1 927 911 932 -1 847 921 845 -1 921 847 928 -1 880 881 923 -1 912 928 847 -1 928 912 927 -1 917 930 929 -1 930 917 916 -1 925 931 933 -1 931 925 926 -1 933 918 915 -1 918 933 931 -1 876 911 877 -1 911 876 932 -1 868 898 895 -1 898 868 854 -1 854 868 855 -1 934 922 838 -1 922 934 908 -1 922 908 910 -1 838 591 841 -1 591 838 922 -1 841 591 914 -1 931 928 918 -1 928 931 921 -1 913 834 909 -1 834 913 837 -1 845 867 846 -1 867 845 920 -1 912 842 841 -1 842 912 852 -1 852 912 844 -1 844 912 847 -1 853 920 854 -1 920 853 867 -1 854 919 898 -1 919 854 920 -1 935 936 937 -1 936 935 938 -1 901 882 885 -1 882 901 923 -1 882 923 881 -1 906 938 935 -1 938 906 905 -1 939 937 940 -1 937 939 934 -1 941 942 943 -1 942 941 944 -1 944 941 945 -1 945 941 946 -1 946 941 947 -1 947 941 940 -1 940 941 939 -1 902 885 883 -1 885 902 901 -1 937 947 940 -1 947 937 936 -1 892 924 948 -1 924 892 893 -1 938 949 936 -1 949 938 950 -1 905 950 938 -1 950 905 951 -1 907 951 905 -1 951 907 952 -1 953 954 955 -1 954 953 956 -1 900 952 907 -1 952 900 957 -1 887 958 959 -1 958 887 889 -1 900 960 957 -1 960 900 902 -1 902 884 960 -1 884 902 883 -1 936 946 947 -1 946 936 949 -1 958 961 962 -1 961 958 948 -1 963 956 953 -1 956 963 964 -1 948 925 961 -1 925 948 924 -1 950 965 949 -1 965 950 966 -1 951 966 950 -1 966 951 967 -1 840 904 906 -1 904 840 896 -1 952 967 951 -1 967 952 968 -1 969 970 971 -1 970 969 963 -1 957 968 952 -1 968 957 972 -1 957 973 972 -1 973 957 960 -1 954 874 873 -1 874 954 929 -1 960 891 973 -1 891 960 884 -1 949 945 946 -1 945 949 965 -1 974 975 976 -1 975 974 971 -1 966 977 965 -1 977 966 978 -1 961 933 979 -1 933 961 925 -1 934 935 937 -1 935 934 838 -1 896 903 904 -1 903 896 899 -1 956 929 954 -1 929 956 917 -1 953 980 981 -1 980 953 955 -1 838 906 935 -1 906 838 840 -1 888 959 982 -1 959 888 887 -1 973 890 983 -1 890 973 891 -1 965 944 945 -1 944 965 977 -1 964 917 956 -1 917 964 915 -1 978 984 977 -1 984 978 985 -1 986 985 978 -1 985 986 987 -1 988 987 986 -1 987 988 989 -1 990 989 988 -1 989 990 991 -1 963 981 970 -1 981 963 953 -1 962 971 974 -1 971 962 969 -1 990 992 991 -1 992 990 983 -1 983 886 992 -1 886 983 890 -1 984 944 977 -1 944 984 942 -1 955 873 872 -1 873 955 954 -1 985 993 984 -1 993 985 994 -1 987 994 985 -1 994 987 995 -1 989 995 987 -1 995 989 975 -1 991 975 989 -1 975 991 976 -1 991 982 976 -1 982 991 992 -1 959 962 974 -1 962 959 958 -1 979 915 964 -1 915 979 933 -1 955 869 980 -1 869 955 872 -1 889 948 958 -1 948 889 892 -1 992 888 982 -1 888 992 886 -1 982 974 976 -1 974 982 959 -1 993 942 984 -1 942 993 996 -1 996 993 997 -1 943 942 996 -1 969 964 963 -1 964 969 979 -1 981 993 994 -1 993 981 980 -1 995 981 994 -1 981 995 970 -1 971 995 975 -1 995 971 970 -1 962 979 969 -1 979 962 961 -1 856 862 860 -1 862 856 865 -1 998 871 870 -1 871 998 999 -1 996 941 943 -1 941 996 1000 -1 998 908 1001 -1 908 998 911 -1 911 998 870 -1 911 870 877 -1 941 934 939 -1 934 941 1000 -1 1000 908 934 -1 908 1000 1001 -1 967 978 966 -1 978 967 986 -1 999 996 997 -1 996 999 998 -1 996 998 1000 -1 1000 998 1001 -1 972 983 990 -1 983 972 973 -1 972 988 968 -1 988 972 990 -1 980 997 993 -1 997 980 999 -1 999 869 871 -1 869 999 980 -1 968 986 967 -1 986 968 988 -1 1002 1003 1004 -1 1003 1002 1005 -1 1006 1007 1008 -1 1007 1006 1009 -1 1010 1006 1011 -1 1006 1010 1009 -1 1009 1010 1004 -1 1009 1004 1003 -1 1009 1003 1012 -1 1009 1012 1013 -1 1009 1013 1014 -1 1009 1014 1015 -1 1005 1012 1003 -1 1012 1005 1016 -1 1017 1012 1016 -1 1012 1017 1013 -1 1017 1014 1013 -1 1014 1017 1018 -1 1004 1019 1002 -1 1019 1004 1010 -1 1007 1020 1008 -1 1020 1007 1019 -1 1019 1007 1002 -1 1002 1007 1005 -1 1005 1007 1016 -1 1016 1007 1017 -1 1017 1007 1018 -1 1018 1007 1021 -1 1010 1020 1019 -1 1020 1010 1011 -1 1006 1020 1011 -1 1020 1006 1008 -1 1021 1009 1015 -1 1009 1021 1007 -1 1018 1015 1014 -1 1015 1018 1021 -1 "
						                >
							<Coordinate DEF="coords_ME_20-1-2_001"
							            point="2.952999 -51.309582 6.228744 -1.771410 -51.608990 5.929335 2.952999 -51.608990 5.929335 -1.771410 -51.309582 6.228744 -1.771410 54.453632 0.000000 2.952999 54.453632 7.086614 2.952999 54.453632 0.000000 -1.771410 54.453632 7.086614 -1.771410 -51.679459 5.511811 -1.771410 -51.679459 0.000000 -1.771410 -50.892059 6.299212 -1.771410 -50.821590 6.716736 -1.771410 -50.522182 7.016146 -1.771410 -50.104656 7.086614 2.952999 -50.892059 6.299212 2.952999 -50.821590 6.716736 2.952999 -50.522182 7.016146 2.952999 -51.679459 5.511811 2.952999 -51.679459 0.000000 2.952999 -50.104656 7.086614 46.868458 -40.695210 85.826775 46.868458 -41.049538 94.685036 46.868458 -41.049538 87.559235 46.868458 -40.695210 96.456696 46.868458 -34.317257 85.826775 46.868458 -34.317257 96.456696 46.868458 -33.962925 87.559235 46.868458 -33.962925 94.685036 29.688251 -33.962925 87.559235 29.219345 -34.317257 85.826775 20.986422 -33.962925 85.826775 20.986422 -33.962925 87.559235 29.219345 -34.317257 96.456696 29.219345 -33.962925 94.685036 20.986422 -33.962925 96.456696 20.986422 -33.962925 94.685036 29.219345 -40.695210 96.456696 29.219345 -41.049538 87.559235 20.986422 -41.049538 85.826775 29.219345 -40.695210 85.826775 20.986422 -41.049538 96.456696 29.219345 -41.049538 94.685036 20.986422 -41.049538 94.685036 20.986422 -41.049538 87.559235 9.647840 -39.986546 85.826775 8.387997 -39.277885 96.456696 8.387997 -39.277885 85.826775 9.647840 -39.986546 96.456696 12.167524 -40.518044 96.456696 12.167524 -40.518044 85.826775 15.947052 -40.872372 96.456696 15.947052 -40.872372 85.826775 15.947052 -34.140091 96.456696 15.947052 -34.140091 85.826775 12.167524 -34.494419 96.456696 12.167524 -34.494419 85.826775 9.647840 -35.025917 96.456696 9.647840 -35.025917 85.826775 8.387997 -35.734577 96.456696 8.387997 -35.734577 85.826775 2.021027 -35.734577 96.456696 2.021027 -39.277885 96.456696 2.021027 -35.734577 85.826775 2.021027 -39.277885 85.826775 46.868458 -41.049538 106.299210 46.868458 -41.443241 116.141731 46.868458 -41.443241 108.224167 46.868458 -41.049538 118.110237 46.868458 -33.962925 106.299210 46.868458 -33.962925 118.110237 46.868458 -33.569225 108.224167 46.868458 -33.569225 116.141731 29.045420 -33.569225 108.224167 28.576515 -33.962925 106.299210 20.343592 -33.569225 106.299210 20.343592 -33.569225 108.224167 28.576515 -33.962925 118.110237 28.576515 -33.569225 116.141731 20.343592 -33.569225 118.110237 20.343592 -33.569225 116.141731 28.576515 -41.049538 118.110237 28.576515 -41.443241 108.224167 20.343592 -41.443241 106.299210 28.576515 -41.049538 106.299210 20.343592 -41.443241 118.110237 28.576515 -41.443241 116.141731 20.343592 -41.443241 116.141731 20.343592 -41.443241 108.224167 9.005009 -40.262138 106.299210 7.745166 -39.474735 118.110237 7.745166 -39.474735 106.299210 9.005009 -40.262138 118.110237 11.524694 -40.852688 118.110237 11.524694 -40.852688 106.299210 15.304221 -41.246387 118.110237 15.304221 -41.246387 106.299210 15.304221 -33.766075 118.110237 15.304221 -33.766075 106.299210 11.524694 -34.159775 118.110237 11.524694 -34.159775 106.299210 9.005009 -34.750328 118.110237 9.005009 -34.750328 106.299210 7.745166 -35.537727 118.110237 7.745166 -35.537727 106.299210 1.378196 -35.537727 118.110237 1.378196 -39.474735 118.110237 1.378196 -35.537727 106.299210 1.378196 -39.474735 106.299210 -12.260151 -32.167465 -7.127565 -12.260151 -42.813538 -7.127565 -13.318969 -37.490501 -7.127565 -9.244893 -47.326187 -7.127565 -9.244893 -27.654812 -7.127565 -4.732241 -50.341446 -7.127565 -4.732241 -24.639555 -7.127565 0.590794 -51.400261 -7.127565 0.590794 -23.580736 -7.127565 5.913830 -50.341446 -7.127565 5.913830 -24.639555 -7.127565 10.426482 -47.326187 -7.127565 10.426482 -27.654812 -7.127565 13.441740 -42.813538 -7.127565 13.441740 -32.167465 -7.127565 14.500557 -37.490501 -7.127565 0.590794 -51.400261 -6.560225 -4.732241 -50.341446 -6.560225 0.590794 -45.773949 -0.000000 -2.624810 -45.253654 -0.965659 0.590794 -45.893276 -0.965659 -2.579144 -45.143410 -0.000000 -2.761595 -45.583885 -1.866624 0.590794 -46.250717 -1.866624 -2.980192 -46.111626 -2.641577 0.590794 -46.821938 -2.641577 -2.980192 -46.111626 -3.197442 0.590794 -46.821938 -3.197442 0.590794 -46.959457 -3.197442 -3.190698 -46.619831 -3.622947 0.590794 -47.372017 -3.622947 -3.032819 -46.238674 -3.197442 -3.190698 -46.619831 -4.048453 0.590794 -47.372017 -4.048453 0.590794 -49.110306 -4.707034 -3.499738 -47.365921 -4.048453 -3.855913 -48.225800 -4.707034 0.590794 -48.179577 -4.048453 -4.150774 -48.937656 -5.557728 0.590794 -49.880814 -5.557728 -9.244893 -47.326187 -6.560225 -4.370348 -49.467758 -6.560225 0.590794 -50.454590 -6.560225 -5.350867 -43.432159 -0.965659 -5.266488 -43.347782 -0.000000 -5.603614 -43.684910 -1.866624 -6.007528 -44.088821 -2.641577 -6.007528 -44.088821 -3.197442 -6.104770 -44.186066 -3.197442 -6.396493 -44.477787 -3.622947 -6.396493 -44.477787 -4.048453 -6.967525 -45.048820 -4.048453 -7.625649 -45.706944 -4.707034 -8.170481 -46.251774 -5.557728 -8.576202 -46.657497 -6.560225 -12.260151 -42.813538 -6.560225 -7.172360 -40.706104 -0.965659 -7.062114 -40.660439 -0.000000 -7.502591 -40.842888 -1.866624 -8.030330 -41.061485 -2.641577 -8.030330 -41.061485 -3.197442 -8.157381 -41.114113 -3.197442 -8.538537 -41.271992 -3.622947 -8.538537 -41.271992 -4.048453 -9.284625 -41.581032 -4.048453 -10.144507 -41.937206 -4.707034 -10.856363 -42.232067 -5.557728 -11.386464 -42.451645 -6.560225 -13.318969 -37.490501 -6.560225 4.372287 -28.361168 -3.622947 7.578082 -30.503212 -4.048453 4.372287 -28.361168 -4.048453 7.578082 -30.503212 -3.622947 0.590794 -28.730284 -1.866624 4.161781 -28.869375 -2.641577 0.590794 -28.159061 -2.641577 3.943184 -29.397116 -1.866624 0.590794 -29.207052 -0.000000 3.806398 -29.727345 -0.965659 0.590794 -29.087721 -0.965659 3.760733 -29.837591 -0.000000 0.590794 -23.580736 -6.560225 5.913830 -24.639555 -6.560225 8.149114 -29.932180 -4.048453 5.037502 -26.755198 -4.707034 4.681327 -27.615080 -4.048453 8.807239 -29.274055 -4.707034 5.332363 -26.043343 -5.557728 9.352070 -28.729225 -5.557728 7.189117 -30.892178 -3.197442 4.161781 -28.869375 -3.197442 7.189117 -30.892178 -2.641577 9.757792 -28.323503 -6.560225 5.551938 -25.513241 -6.560225 6.785203 -31.296091 -1.866624 6.532456 -31.548838 -0.965659 13.441740 -32.167465 -6.560225 10.426482 -27.654812 -6.560225 6.448077 -31.633217 -0.000000 -4.150774 -26.043343 -5.557728 0.590794 -24.526409 -6.560225 -4.370348 -25.513241 -6.560225 0.590794 -25.100185 -5.557728 0.590794 -28.159061 -3.197442 7.286358 -30.794935 -3.197442 4.214407 -28.742325 -3.197442 8.353950 -34.274895 -0.965659 8.243703 -34.320560 -0.000000 8.684179 -34.138111 -1.866624 -3.855913 -26.755198 -4.707034 0.590794 -25.870693 -4.707034 9.211919 -33.919514 -2.641577 9.211919 -33.919514 -3.197442 -3.032819 -28.742325 -3.197442 0.590794 -27.608982 -3.622947 -3.190698 -28.361168 -3.622947 0.590794 -28.021542 -3.197442 -2.980192 -28.869375 -2.641577 -2.980192 -28.869375 -3.197442 -2.624810 -29.727345 -0.965659 -2.761595 -29.397116 -1.866624 9.338970 -33.866886 -3.197442 9.720125 -33.709007 -3.622947 0.590794 -26.801422 -4.048453 9.720125 -33.709007 -4.048453 -3.499738 -27.615080 -4.048453 0.590794 -27.608982 -4.048453 -3.190698 -28.361168 -4.048453 10.466214 -33.399967 -4.048453 11.326096 -33.043793 -4.707034 12.037952 -32.748932 -5.557728 -2.579144 -29.837591 -0.000000 12.568053 -32.529358 -6.560225 9.922232 -37.490501 -3.197442 9.211919 -41.061485 -2.641577 9.211919 -41.061485 -3.197442 9.922232 -37.490501 -2.641577 7.189117 -44.088821 -2.641577 4.161781 -46.111626 -3.197442 7.189117 -44.088821 -3.197442 4.161781 -46.111626 -2.641577 9.352070 -46.251774 -5.557728 11.326096 -41.937206 -4.707034 8.807239 -45.706944 -4.707034 12.037952 -42.232067 -5.557728 7.578082 -44.477787 -3.622947 9.338970 -41.114113 -3.197442 7.286358 -44.186066 -3.197442 9.720125 -41.271992 -3.622947 6.785203 -43.684910 -1.866624 8.684179 -40.842888 -1.866624 9.720125 -41.271992 -4.048453 7.578082 -44.477787 -4.048453 8.993572 -37.490501 -0.965659 9.351011 -37.490501 -1.866624 6.532456 -43.432159 -0.965659 8.353950 -40.706104 -0.965659 6.448077 -43.347782 -0.000000 8.243703 -40.660439 -0.000000 10.466214 -41.581032 -4.048453 8.149114 -45.048820 -4.048453 10.472311 -37.490501 -3.622947 10.059752 -37.490501 -3.197442 8.874243 -37.490501 -0.000000 14.500557 -37.490501 -6.560225 10.472311 -37.490501 -4.048453 12.981109 -37.490501 -5.557728 13.554886 -37.490501 -6.560225 12.568053 -42.451645 -6.560225 9.757792 -46.657497 -6.560225 10.426482 -47.326187 -6.560225 13.441740 -42.813538 -6.560225 5.913830 -50.341446 -6.560225 12.210601 -37.490501 -4.707034 11.279871 -37.490501 -4.048453 3.806398 -45.253654 -0.965659 3.760733 -45.143410 -0.000000 3.943184 -45.583885 -1.866624 5.332363 -48.937656 -5.557728 5.037502 -48.225800 -4.707034 -12.373297 -37.490501 -6.560225 5.551938 -49.467758 -6.560225 -12.260151 -32.167465 -6.560225 -11.386464 -32.529358 -6.560225 -9.244893 -27.654812 -6.560225 -8.576202 -28.323503 -6.560225 -4.732241 -24.639555 -6.560225 4.372287 -46.619831 -3.622947 4.372287 -46.619831 -4.048453 4.214407 -46.238674 -3.197442 -7.062114 -34.320560 -0.000000 -7.692654 -37.490501 -0.000000 -5.266488 -31.633217 -0.000000 -9.290723 -37.490501 -4.048453 -10.098283 -37.490501 -4.048453 4.681327 -47.365921 -4.048453 -9.284625 -33.399967 -4.048453 -8.538537 -33.709007 -4.048453 -6.967525 -29.932180 -4.048453 -6.396493 -30.503212 -4.048453 -8.740644 -37.490501 -3.197442 -8.878163 -37.490501 -3.197442 -8.157381 -33.866886 -3.197442 -8.030330 -33.919514 -3.197442 -6.104770 -30.794935 -3.197442 -6.007528 -30.892178 -3.197442 -10.144507 -33.043793 -4.707034 -8.170481 -28.729225 -5.557728 -10.856363 -32.748932 -5.557728 -7.625649 -29.274055 -4.707034 -7.172360 -34.274895 -0.965659 -8.169422 -37.490501 -1.866624 -7.811984 -37.490501 -0.965659 -7.502591 -34.138111 -1.866624 -6.396493 -30.503212 -3.622947 -8.538537 -33.709007 -3.622947 -8.030330 -33.919514 -2.641577 -8.740644 -37.490501 -2.641577 -6.007528 -30.892178 -2.641577 -5.603614 -31.296091 -1.866624 -5.350867 -31.548838 -0.965659 -11.799520 -37.490501 -5.557728 -11.029012 -37.490501 -4.707034 -9.290723 -37.490501 -3.622947 2.692794 -35.724865 85.751480 2.777831 -39.268173 96.381058 2.692794 -39.268173 85.751480 2.777831 -35.724865 96.381058 8.698421 -40.534885 98.302261 8.580525 -39.465023 106.177475 8.197205 -40.283783 111.430054 9.302771 -37.496521 98.297424 8.972073 -37.496521 106.174339 8.360060 -39.465023 111.428749 8.360060 -35.528015 111.428749 7.546029 -34.995518 116.422295 7.651946 -35.528015 116.421448 8.197205 -34.709259 111.430054 3.394823 -39.465023 106.218956 2.213759 -38.283920 106.228409 2.213759 -39.465023 106.228409 2.213759 -35.528015 106.228409 8.580525 -35.528015 106.177475 6.684287 -35.528015 117.787971 6.652856 -35.369995 117.788223 6.272233 -35.528015 117.898445 2.320842 -38.283920 119.613808 0.733491 -38.283920 118.051651 2.308244 -38.283920 118.039055 0.746089 -38.283920 119.626404 1.533465 -38.283920 119.620102 0.746089 -36.709118 119.626404 1.533465 -36.709118 119.620102 2.308244 -36.709118 118.039055 0.733491 -36.709118 118.051651 2.320842 -36.709118 119.613808 2.308244 -35.528015 118.039055 7.328747 -35.528015 117.218460 5.778240 -35.528015 118.011292 -7.062114 -34.332603 -0.000000 8.373611 -35.134315 -0.123486 -7.221580 -35.134315 0.001276 -5.269956 -31.650362 -0.014337 -2.587801 -29.858147 -0.035795 0.576016 -29.228804 -0.061105 3.739833 -29.858147 -0.086416 6.421987 -31.650362 -0.107873 8.214146 -34.332603 -0.122210 2.308244 -39.465023 118.039055 7.651946 -39.465023 116.421448 7.328747 -39.465023 117.218460 6.684287 -39.465023 117.787971 6.272233 -39.465023 117.898445 5.778240 -39.465023 118.011292 3.328763 -41.861305 118.030891 1.520867 -42.220928 118.045349 4.861423 -40.837181 118.018631 -2.843778 -39.304474 118.080269 -2.843778 -35.688568 118.080269 -3.203391 -37.496521 118.083145 -1.819688 -34.155857 118.072075 -1.819688 -40.837181 118.072075 -0.287028 -41.861305 118.059814 -0.287028 -33.131737 118.059814 1.520867 -32.772110 118.045349 3.328763 -33.131737 118.030891 4.861423 -34.155857 118.018631 7.546029 -39.997520 116.422295 3.645594 -32.362640 117.812286 5.448316 -33.567219 117.797859 7.247916 -39.871403 117.219101 3.889431 -43.229996 117.245972 5.448316 -41.425823 117.797859 3.645594 -42.630402 117.812286 5.902696 -41.884731 117.229866 6.129371 -42.117771 116.433632 4.255548 -44.225563 111.461586 6.618398 -42.646706 111.442680 4.009192 -43.534473 116.450592 9.473369 -37.496521 78.610390 9.059561 -35.724865 85.700546 9.411954 -37.496521 85.697723 8.844047 -34.332603 78.615425 8.698421 -34.458153 98.302261 8.967438 -35.724865 96.331543 9.319831 -37.496521 96.328728 1.468376 -30.213057 111.483879 4.401661 -30.161257 98.336639 1.363392 -29.556889 98.360939 4.255548 -30.767477 111.461586 5.902696 -33.108307 117.229866 7.247916 -35.121635 117.219101 6.129371 -32.875271 116.433632 9.059561 -39.268173 85.700546 6.652856 -39.623043 117.788223 1.519139 -31.939648 117.829292 1.514624 -31.290651 117.264969 3.889431 -31.763044 117.245972 6.977380 -31.882353 98.316032 6.618398 -32.346333 111.442680 1.205917 -29.228804 78.676537 4.369734 -29.858147 78.651222 4.009192 -31.458567 116.450592 8.967438 -39.268173 96.331543 7.051888 -31.650362 78.629768 1.508269 -30.961086 116.470596 8.844047 -40.660439 78.615425 6.977380 -43.110687 98.316032 4.369734 -45.134895 78.651222 7.051888 -43.342678 78.629768 4.401661 -44.831783 98.336639 8.214146 -40.660439 -0.122210 6.421987 -43.342678 -0.107873 8.373611 -39.858727 -0.123486 -7.062114 -40.660439 -0.000000 -7.221580 -39.858727 0.001276 -5.269956 -43.342678 -0.014337 -2.587801 -45.134895 -0.035795 0.576016 -45.764236 -0.061105 3.739833 -45.134895 -0.086416 -0.607316 -32.362640 117.846306 1.205917 -45.764236 78.676537 1.363392 -45.436153 98.360939 1.468376 -44.779984 111.483879 1.508269 -44.031952 116.470596 -4.250596 -31.882353 98.405853 -1.957900 -29.858147 78.701843 -4.640055 -31.650362 78.723297 -1.674876 -30.161257 98.385246 1.514624 -43.702389 117.264969 -2.410038 -33.567219 117.860733 -3.614578 -35.369995 117.870369 1.519139 -43.053394 117.829292 -0.860183 -31.763044 117.283966 -2.873447 -33.108307 117.300072 -3.681647 -32.346333 111.525085 -1.318796 -30.767477 111.506180 -1.957900 -45.134895 78.701843 -1.674876 -44.831783 98.385246 -1.318796 -44.225563 111.506180 -0.992653 -43.534473 116.490608 -3.112832 -32.875271 116.507568 -5.260453 -34.709259 111.537712 -4.529490 -34.995518 116.518898 -0.860183 -43.229996 117.283966 -0.607316 -42.630402 117.846306 -4.218667 -35.121635 117.310837 -5.026955 -37.496521 116.522881 -4.691046 -37.496521 117.314613 -4.640055 -43.342678 78.723297 -4.250596 -43.110687 98.405853 -0.992653 -31.458567 116.490608 -6.432213 -34.332603 78.737640 -5.971637 -34.458153 98.419624 -4.037556 -37.496521 117.873749 -2.410038 -41.425823 117.860733 -6.432213 -40.660439 78.737640 -5.971637 -40.534885 98.419624 -3.681647 -42.646706 111.525085 -5.260453 -40.283783 111.537712 -3.112832 -42.117771 116.507568 -4.529490 -39.997520 116.518898 -2.873447 -41.884731 117.300072 -4.218667 -39.871403 117.310837 -3.614578 -39.623043 117.870369 -7.061535 -37.496521 78.742676 -6.575986 -37.496521 98.424454 -5.814856 -37.496521 111.542145 -7.164888 -39.858727 7.087663 -7.634745 -37.496521 7.091422 8.430302 -35.134315 6.962902 -7.164888 -35.134315 7.087663 8.430302 -39.858727 6.962902 8.900159 -37.496521 6.959143 -13.228288 -39.868435 6.228744 -13.527698 -35.144028 5.929335 -13.527698 -39.868435 5.929335 -13.228288 -35.144028 6.228744 46.868458 -35.144028 0.000000 46.868458 -39.868435 7.086614 46.868458 -39.868435 0.000000 46.868458 -35.144028 7.086614 -13.598166 -35.144028 5.511811 -13.598166 -35.144028 0.000000 -12.810764 -35.144028 6.299212 -12.740295 -35.144028 6.716736 -12.440886 -35.144028 7.016146 -12.023362 -35.144028 7.086614 -12.810764 -39.868435 6.299212 -12.740295 -39.868435 6.716736 -12.440886 -39.868435 7.016146 -13.598166 -39.868435 5.511811 -13.598166 -39.868435 0.000000 -12.023362 -39.868435 7.086614 79.788193 -51.044495 106.190948 79.394493 -51.044495 116.033470 79.394493 -51.044495 108.115906 79.788193 -51.044495 118.001976 86.874809 -51.044495 106.190948 86.874809 -51.044495 118.001976 87.268509 -51.044495 108.115906 87.268509 -51.044495 116.033470 87.268509 11.817913 108.115906 86.874809 12.286818 106.190948 87.268509 20.519741 106.190948 87.268509 20.519741 108.115906 86.874809 12.286818 118.001976 87.268509 12.286818 116.033470 87.268509 20.519741 118.001976 87.268509 20.519741 116.033470 79.788193 12.286818 118.001976 79.394493 12.286818 108.115906 79.394493 20.519741 106.190948 79.788193 12.286818 106.190948 79.394493 20.519741 118.001976 79.394493 12.286818 116.033470 79.394493 20.519741 116.033470 79.394493 20.519741 108.115906 80.575592 31.858324 106.190948 81.362991 33.118168 118.001976 81.362991 33.118168 106.190948 80.575592 31.858324 118.001976 79.985039 29.338638 118.001976 79.985039 29.338638 106.190948 79.591339 25.559111 118.001976 79.591339 25.559111 106.190948 87.071655 25.559111 118.001976 87.071655 25.559111 106.190948 86.677956 29.338638 118.001976 86.677956 29.338638 106.190948 86.087402 31.858324 118.001976 86.087402 31.858324 106.190948 85.300003 33.118168 118.001976 85.300003 33.118168 106.190948 85.300003 39.485138 118.001976 81.362991 39.485138 118.001976 85.300003 39.485138 106.190948 81.362991 39.485138 106.190948 80.359039 -50.867329 85.721558 80.004707 -50.867329 94.579826 80.004707 -50.867329 87.454018 80.359039 -50.867329 96.351479 86.736992 -50.867329 85.721558 86.736992 -50.867329 96.351479 87.091324 -50.867329 87.454018 87.091324 -50.867329 94.579826 87.091324 11.352248 87.454018 86.736992 11.821153 85.721558 87.091324 20.054077 85.721558 87.091324 20.054077 87.454018 86.736992 11.821153 96.351479 87.091324 11.821153 94.579826 87.091324 20.054077 96.351479 87.091324 20.054077 94.579826 80.359039 11.821153 96.351479 80.004707 11.821153 87.454018 80.004707 20.054077 85.721558 80.359039 11.821153 85.721558 80.004707 20.054077 96.351479 80.004707 11.821153 94.579826 80.004707 20.054077 94.579826 80.004707 20.054077 87.454018 81.067696 31.392658 85.721558 81.776360 32.652500 96.351479 81.776360 32.652500 85.721558 81.067696 31.392658 96.351479 80.536201 28.872974 96.351479 80.536201 28.872974 85.721558 80.181870 25.093447 96.351479 80.181870 25.093447 85.721558 86.914154 25.093447 96.351479 86.914154 25.093447 85.721558 86.559822 28.872974 96.351479 86.559822 28.872974 85.721558 86.028328 31.392658 96.351479 86.028328 31.392658 85.721558 85.319664 32.652500 96.351479 85.319664 32.652500 85.721558 85.319664 39.019470 96.351479 81.776360 39.019470 96.351479 85.319664 39.019470 85.721558 81.776360 39.019470 85.721558 89.819336 53.123486 -7.127565 79.173264 53.123486 -7.127565 84.496300 54.182301 -7.127565 74.660614 50.108227 -7.127565 94.331985 50.108227 -7.127565 71.645355 45.595573 -7.127565 97.347244 45.595573 -7.127565 70.586533 40.272537 -7.127565 98.406059 40.272537 -7.127565 71.645355 34.949501 -7.127565 97.347244 34.949501 -7.127565 74.660614 30.436852 -7.127565 94.331985 30.436852 -7.127565 79.173264 27.421593 -7.127565 89.819336 27.421593 -7.127565 84.496300 26.362776 -7.127565 70.586533 40.272537 -6.560225 71.645355 45.595573 -6.560225 76.212852 40.272537 0.000000 76.733147 43.488144 -0.965659 76.093521 40.272537 -0.965659 76.843391 43.442478 0.000000 76.402916 43.624928 -1.866624 75.736084 40.272537 -1.866624 75.875175 43.843525 -2.641577 75.164864 40.272537 -2.641577 75.875175 43.843525 -3.197442 75.164864 40.272537 -3.197442 75.027344 40.272537 -3.197442 75.366966 44.054031 -3.622947 74.614784 40.272537 -3.622947 75.748123 43.896152 -3.197442 75.366966 44.054031 -4.048453 74.614784 40.272537 -4.048453 72.876495 40.272537 -4.707034 74.620880 44.363071 -4.048453 73.760994 44.719246 -4.707034 73.807220 40.272537 -4.048453 73.049141 45.014107 -5.557728 72.105980 40.272537 -5.557728 74.660614 50.108227 -6.560225 72.519043 45.233681 -6.560225 71.532204 40.272537 -6.560225 78.554634 46.214199 -0.965659 78.639015 46.129822 0.000000 78.301888 46.466946 -1.866624 77.897972 46.870861 -2.641577 77.897972 46.870861 -3.197442 77.800735 46.968102 -3.197442 77.509010 47.259827 -3.622947 77.509010 47.259827 -4.048453 76.937981 47.830856 -4.048453 76.279854 48.488983 -4.707034 75.735023 49.033813 -5.557728 75.329300 49.439537 -6.560225 79.173264 53.123486 -6.560225 81.280693 48.035694 -0.965659 81.326363 47.925446 0.000000 81.143906 48.365925 -1.866624 80.925308 48.893661 -2.641577 80.925308 48.893661 -3.197442 80.872688 49.020714 -3.197442 80.714806 49.401871 -3.622947 80.714806 49.401871 -4.048453 80.405762 50.147957 -4.048453 80.049591 51.007839 -4.707034 79.754730 51.719696 -5.557728 79.535156 52.249798 -6.560225 84.496300 54.182301 -6.560225 93.625626 36.491047 -3.622947 91.483589 33.285252 -4.048453 93.625626 36.491047 -4.048453 91.483589 33.285252 -3.622947 93.256516 40.272537 -1.866624 93.117424 36.701553 -2.641577 93.827736 40.272537 -2.641577 92.589684 36.920147 -1.866624 92.779747 40.272537 0.000000 92.259453 37.056934 -0.965659 92.899078 40.272537 -0.965659 92.149208 37.102600 0.000000 98.406059 40.272537 -6.560225 97.347244 34.949501 -6.560225 92.054619 32.714218 -4.048453 95.231598 35.825832 -4.707034 94.371719 36.182007 -4.048453 92.712746 32.056095 -4.707034 95.943459 35.530972 -5.557728 93.257576 31.511263 -5.557728 91.094620 33.674217 -3.197442 93.117424 36.701553 -3.197442 91.094620 33.674217 -2.641577 93.663292 31.105541 -6.560225 96.473557 35.311394 -6.560225 90.690704 34.078129 -1.866624 90.437958 34.330875 -0.965659 89.819336 27.421593 -6.560225 94.331985 30.436852 -6.560225 90.353584 34.415257 0.000000 95.943459 45.014107 -5.557728 97.460388 40.272537 -6.560225 96.473557 45.233681 -6.560225 96.886612 40.272537 -5.557728 93.827736 40.272537 -3.197442 91.191864 33.576973 -3.197442 93.244476 36.648926 -3.197442 87.711899 32.509384 -0.965659 87.666237 32.619629 0.000000 87.848686 32.179153 -1.866624 95.231598 44.719246 -4.707034 96.116104 40.272537 -4.707034 88.067284 31.651415 -2.641577 88.067284 31.651415 -3.197442 93.244476 43.896152 -3.197442 94.377815 40.272537 -3.622947 93.625626 44.054031 -3.622947 93.965256 40.272537 -3.197442 93.117424 43.843525 -2.641577 93.117424 43.843525 -3.197442 92.259453 43.488144 -0.965659 92.589684 43.624928 -1.866624 88.119911 31.524363 -3.197442 88.277794 31.143208 -3.622947 95.185371 40.272537 -4.048453 88.277794 31.143208 -4.048453 94.371719 44.363071 -4.048453 94.377815 40.272537 -4.048453 93.625626 44.054031 -4.048453 88.586830 30.397120 -4.048453 88.943008 29.537237 -4.707034 89.237869 28.825380 -5.557728 92.149208 43.442478 0.000000 89.457443 28.295280 -6.560225 84.496300 30.941101 -3.197442 80.925308 31.651415 -2.641577 80.925308 31.651415 -3.197442 84.496300 30.941101 -2.641577 77.897972 33.674217 -2.641577 75.875175 36.701553 -3.197442 77.897972 33.674217 -3.197442 75.875175 36.701553 -2.641577 75.735023 31.511263 -5.557728 80.049591 29.537237 -4.707034 76.279854 32.056095 -4.707034 79.754730 28.825380 -5.557728 77.509010 33.285252 -3.622947 80.872688 31.524363 -3.197442 77.800735 33.576973 -3.197442 80.714806 31.143208 -3.622947 78.301888 34.078129 -1.866624 81.143906 32.179153 -1.866624 80.714806 31.143208 -4.048453 77.509010 33.285252 -4.048453 84.496300 31.869761 -0.965659 84.496300 31.512321 -1.866624 78.554634 34.330875 -0.965659 81.280693 32.509384 -0.965659 78.639015 34.415257 0.000000 81.326363 32.619629 0.000000 80.405762 30.397120 -4.048453 76.937981 32.714218 -4.048453 84.496300 30.391022 -3.622947 84.496300 30.803581 -3.197442 84.496300 31.989090 0.000000 84.496300 26.362776 -6.560225 84.496300 30.391022 -4.048453 84.496300 27.882223 -5.557728 84.496300 27.308447 -6.560225 79.535156 28.295280 -6.560225 75.329300 31.105541 -6.560225 74.660614 30.436852 -6.560225 79.173264 27.421593 -6.560225 71.645355 34.949501 -6.560225 84.496300 28.652733 -4.707034 84.496300 29.583462 -4.048453 76.733147 37.056934 -0.965659 76.843391 37.102600 0.000000 76.402916 36.920147 -1.866624 73.049141 35.530972 -5.557728 73.760994 35.825832 -4.707034 84.496300 53.236629 -6.560225 72.519043 35.311394 -6.560225 89.819336 53.123486 -6.560225 89.457443 52.249798 -6.560225 94.331985 50.108227 -6.560225 93.663292 49.439537 -6.560225 97.347244 45.595573 -6.560225 75.366966 36.491047 -3.622947 75.366966 36.491047 -4.048453 75.748123 36.648926 -3.197442 87.666237 47.925446 0.000000 84.496300 48.555988 0.000000 90.353584 46.129822 0.000000 84.496300 50.154057 -4.048453 84.496300 50.961617 -4.048453 74.620880 36.182007 -4.048453 88.586830 50.147957 -4.048453 88.277794 49.401871 -4.048453 92.054619 47.830856 -4.048453 91.483589 47.259827 -4.048453 84.496300 49.603977 -3.197442 84.496300 49.741497 -3.197442 88.119911 49.020714 -3.197442 88.067284 48.893661 -3.197442 91.191864 46.968102 -3.197442 91.094620 46.870861 -3.197442 88.943008 51.007839 -4.707034 93.257576 49.033813 -5.557728 89.237869 51.719696 -5.557728 92.712746 48.488983 -4.707034 87.711899 48.035694 -0.965659 84.496300 49.032757 -1.866624 84.496300 48.675316 -0.965659 87.848686 48.365925 -1.866624 91.483589 47.259827 -3.622947 88.277794 49.401871 -3.622947 88.067284 48.893661 -2.641577 84.496300 49.603977 -2.641577 91.094620 46.870861 -2.641577 90.690704 46.466946 -1.866624 90.437958 46.214199 -0.965659 84.496300 52.662853 -5.557728 84.496300 51.892345 -4.707034 84.496300 50.154057 -3.622947 85.425781 38.842308 85.757523 81.776360 38.842308 96.351479 81.882652 38.842308 85.722092 85.319489 38.842308 96.386909 80.490028 32.937275 98.307220 81.481102 33.118168 106.191544 80.609894 33.543495 111.432434 83.528244 32.332905 98.337601 83.449501 32.726608 106.211227 81.428612 33.380634 111.440620 85.365417 33.380634 111.479988 85.848022 34.234585 116.471939 85.315552 34.128666 116.466621 86.184135 33.543495 111.488174 81.481102 38.304035 106.191544 82.662140 39.485138 106.203354 81.481102 39.485138 106.191544 85.417908 39.485138 106.230911 85.417908 33.118168 106.230911 85.301964 35.107224 117.825287 85.459976 35.138657 117.826874 85.300896 35.520149 117.932457 82.528290 39.485138 119.588509 82.544037 41.059940 118.013786 82.544037 39.485138 118.013786 82.528290 41.059940 119.588509 82.528290 40.272537 119.588509 84.103012 41.059940 119.604256 84.103012 40.272537 119.604256 84.118759 39.485138 118.029533 84.118759 41.059940 118.029533 84.103012 39.485138 119.604256 85.299805 39.485138 118.041344 85.307610 34.458229 117.260971 85.299805 36.015030 118.041344 87.676201 47.910912 -0.051035 86.874527 32.474693 -0.059052 86.874527 48.070385 -0.059052 90.358307 46.118698 -0.024214 92.150436 43.436459 -0.006293 92.779747 40.272537 0.000000 92.150436 37.108620 -0.006293 90.358307 34.426380 -0.024214 87.676201 32.634163 -0.051035 81.378738 34.128666 116.427246 81.370796 34.458229 117.221603 81.365158 35.107224 117.785919 81.364082 35.520149 117.893089 81.362991 36.015030 118.001976 78.966835 38.464584 117.978012 78.607224 40.272537 117.974419 79.990906 36.931877 117.988251 81.523537 44.637325 118.003578 85.139259 44.637325 118.039734 83.331398 44.996948 118.021660 86.671898 43.613201 118.055061 79.990906 43.613201 117.988251 78.966835 42.080490 117.978012 87.695969 42.080490 118.065300 88.055573 40.272537 118.068901 87.695969 38.464584 118.065300 86.671898 36.931877 118.055061 80.846268 34.234585 116.421928 88.467186 38.146015 117.856941 87.262665 36.343235 117.844894 80.964439 34.539062 117.217545 77.606018 37.897655 117.183960 79.404457 36.343235 117.766312 78.199936 38.146015 117.754272 78.951210 35.884327 117.197411 78.726128 35.651291 116.400726 76.668304 37.485279 111.393021 78.247086 35.122353 111.408806 77.309494 37.771538 116.386559 83.725082 32.004822 78.653549 85.425781 32.475334 85.757523 83.654221 32.122932 85.739807 86.888840 32.634163 78.685188 86.566452 32.937275 98.367989 85.319489 32.652500 96.386909 83.547928 32.300098 96.369194 90.680115 40.272537 111.533134 90.863136 37.234173 98.410950 91.467476 40.272537 98.416992 90.125717 37.485279 111.527596 87.727196 35.884327 117.285172 85.713966 34.539062 117.265038 87.968163 35.651291 116.493141 81.882652 32.475334 85.722092 81.207146 35.138657 117.784340 88.890160 40.272537 117.861176 89.544762 40.272537 117.303345 89.072395 37.897655 117.298622 89.142128 34.658371 98.393745 88.546944 35.122353 111.511803 91.992386 40.272537 78.736221 91.363075 37.108620 78.729927 89.384796 37.771538 116.507309 89.570946 34.426380 78.712006 89.882256 40.272537 116.512283 80.561317 32.634163 78.621910 77.914352 34.658371 98.281464 76.087090 37.108620 78.577171 77.879211 34.426380 78.595093 76.193344 37.234173 98.264252 81.348686 32.634163 -0.114311 78.666580 34.426380 -0.141132 82.150360 32.474693 -0.106294 81.348686 47.910912 -0.114311 82.150360 48.070385 -0.106294 78.666580 46.118698 -0.141132 76.874451 43.436459 -0.159053 76.245140 40.272537 -0.165346 76.874451 37.108620 -0.159053 88.467186 42.399063 117.856941 75.457779 40.272537 78.570877 75.589005 40.272537 98.258209 76.113914 40.272537 111.387474 76.812042 40.272537 116.381584 89.142128 45.886707 98.393745 91.363075 43.436459 78.729927 89.570946 46.118698 78.712006 90.863136 43.310905 98.410950 77.133644 40.272537 117.179237 87.262665 44.201839 117.844894 85.459976 45.406422 117.826874 77.776962 40.272537 117.750038 89.072395 42.647423 117.298622 87.727196 44.660751 117.285172 88.546944 45.422726 111.511803 90.125717 43.059799 111.527596 76.087090 43.436459 78.577171 76.193344 43.310905 98.264252 76.668304 43.059799 111.393021 77.309494 42.773540 116.386559 87.968163 44.893787 116.493141 86.184135 47.001583 111.488174 85.848022 46.310490 116.471939 77.606018 42.647423 117.183960 78.199936 42.399063 117.754272 85.713966 46.006012 117.265038 83.347145 46.807972 116.446930 83.339203 46.478409 117.241287 77.879211 46.118698 78.595093 77.914352 45.886707 98.281464 89.384796 42.773540 116.507309 86.888840 47.910912 78.685188 86.566452 47.607803 98.367989 83.333557 45.829411 117.805603 79.404457 44.201839 117.766312 80.561317 47.910912 78.621910 80.490028 47.607803 98.307220 78.247086 45.422726 111.408806 80.609894 47.001583 111.432434 78.726128 44.893787 116.400726 80.846268 46.310490 116.421928 78.951210 44.660751 117.197411 80.964439 46.006012 117.217545 81.207146 45.406422 117.784340 83.725082 48.540257 78.653549 83.528244 48.212170 98.337601 83.397011 47.556004 111.460304 82.079491 48.070385 6.979966 84.441582 48.540257 7.003587 86.803665 32.474693 7.027208 86.803665 48.070385 7.027208 82.079491 32.474693 6.979966 84.441582 32.004822 7.003587 82.118362 54.391029 5.929335 86.842773 54.091621 6.228744 86.842773 54.391029 5.929335 82.118362 54.091621 6.228744 86.842773 -51.044495 0.000000 82.118362 -51.044495 7.086614 82.118362 -51.044495 0.000000 86.842773 -51.044495 7.086614 86.842773 54.461498 5.511811 86.842773 54.461498 0.000000 86.842773 53.674099 6.299212 86.842773 53.603630 6.716736 86.842773 53.304218 7.016146 86.842773 52.886696 7.086614 82.118362 53.674099 6.299212 82.118362 53.603630 6.716736 82.118362 53.304218 7.016146 82.118362 54.461498 5.511811 82.118362 54.461498 0.000000 82.118362 52.886696 7.086614 "
							            />
						</IndexedFaceSet>
					</Shape>
				</Group>
			</Transform>
		</Transform>
	</Scene>
</X3D>