<?xml version="1.0" encoding="UTF-8"?>
<!DOCTYPE X3D PUBLIC "ISO//Web3D//DTD X3D 3.0//EN" "http://www.web3d.org/specifications/x3d-3.0.dtd">
<X3D version="3.0" profile="Immersive" xmlns:xsd="http://www.w3.org/2001/XMLSchema-instance" xsd:noNamespaceSchemaLocation="http://www.web3d.org/specifications/x3d-3.0.xsd">
	<head>
		<meta name="filename" content="20-1-1.x3d" />
		<meta name="created" content="2026-06-21 15:09:40" />
		<meta name="generator" content="Blender 4.5.4 LTS" />
		<meta name="translator" content="Web3D X3D/VRML2 format v2.5.1" />
	</head>
	<Scene>
		<NavigationInfo headlight="true"
		                visibilityLimit="0.0"
		                type='"EXAMINE", "ANY"'
		                avatarSize="0.25, 1.75, 0.75"
		                />
		<Background DEF="WO_World"
		            groundColor="0.051 0.051 0.051"
		            skyColor="0.051 0.051 0.051"
		            />
		<Transform DEF="_20-1-1_TRANSFORM"
		           translation="0.000000 0.000000 0.000000"
		           scale="1.000000 1.000000 1.000000"
		           rotation="0.000000 0.707107 0.707107 3.141593"
		           >
			<Transform DEF="_20-1-1_ifs_TRANSFORM"
			           translation="0.000000 0.000000 0.000000"
			           scale="1.000000 1.000000 1.000000"
			           rotation="0.000000 1.000000 0.000000 0.000000"
			           >
				<Group DEF="group_ME_20-1-1_001">
					<Shape>
						<Appearance>
						</Appearance>
						<IndexedFaceSet solid="false"
						                coordIndex="0 1 2 -1 1 0 3 -1 4 5 6 -1 5 4 7 -1 8 4 9 -1 4 8 7 -1 7 8 1 -1 7 1 3 -1 7 3 10 -1 7 10 11 -1 7 11 12 -1 7 12 13 -1 14 3 0 -1 3 14 10 -1 11 14 15 -1 14 11 10 -1 16 11 15 -1 11 16 12 -1 1 17 2 -1 17 1 8 -1 5 18 6 -1 18 5 17 -1 17 5 2 -1 2 5 0 -1 0 5 14 -1 14 5 15 -1 15 5 16 -1 16 5 19 -1 8 18 17 -1 18 8 9 -1 4 18 9 -1 18 4 6 -1 5 13 19 -1 13 5 7 -1 19 12 16 -1 12 19 13 -1 20 21 22 -1 21 20 23 -1 23 20 24 -1 23 24 25 -1 25 24 26 -1 25 26 27 -1 28 29 30 -1 28 30 31 -1 32 33 34 -1 34 33 35 -1 32 27 33 -1 27 32 25 -1 23 32 36 -1 32 23 25 -1 28 24 29 -1 24 28 26 -1 37 38 39 -1 40 41 36 -1 40 42 41 -1 43 38 37 -1 23 41 21 -1 41 23 36 -1 22 39 20 -1 39 22 37 -1 44 45 46 -1 45 44 47 -1 48 44 49 -1 44 48 47 -1 50 49 51 -1 49 50 48 -1 43 51 38 -1 51 43 50 -1 50 43 42 -1 50 42 40 -1 52 30 53 -1 30 52 31 -1 31 52 35 -1 35 52 34 -1 54 53 55 -1 53 54 52 -1 56 55 57 -1 55 56 54 -1 58 57 59 -1 57 58 56 -1 45 60 61 -1 60 45 58 -1 58 45 47 -1 58 47 56 -1 56 47 48 -1 56 48 54 -1 54 48 50 -1 54 50 52 -1 52 50 40 -1 52 40 34 -1 34 40 36 -1 34 36 32 -1 60 59 62 -1 59 60 58 -1 45 63 46 -1 63 45 61 -1 21 37 22 -1 37 21 43 -1 43 21 42 -1 42 21 41 -1 60 63 61 -1 63 60 62 -1 59 63 62 -1 63 59 46 -1 46 59 57 -1 46 57 44 -1 44 57 55 -1 44 55 49 -1 49 55 53 -1 49 53 51 -1 51 53 30 -1 51 30 38 -1 38 30 29 -1 38 29 39 -1 39 29 24 -1 39 24 20 -1 35 28 31 -1 28 35 26 -1 26 35 27 -1 27 35 33 -1 64 65 66 -1 65 64 67 -1 67 64 68 -1 67 68 69 -1 69 68 70 -1 69 70 71 -1 72 73 74 -1 72 74 75 -1 76 77 78 -1 78 77 79 -1 76 71 77 -1 71 76 69 -1 67 76 80 -1 76 67 69 -1 72 68 73 -1 68 72 70 -1 81 82 83 -1 84 85 80 -1 84 86 85 -1 87 82 81 -1 67 85 65 -1 85 67 80 -1 66 83 64 -1 83 66 81 -1 88 89 90 -1 89 88 91 -1 92 88 93 -1 88 92 91 -1 94 93 95 -1 93 94 92 -1 87 95 82 -1 95 87 94 -1 94 87 86 -1 94 86 84 -1 96 74 97 -1 74 96 75 -1 75 96 79 -1 79 96 78 -1 98 97 99 -1 97 98 96 -1 100 99 101 -1 99 100 98 -1 102 101 103 -1 101 102 100 -1 89 104 105 -1 104 89 102 -1 102 89 91 -1 102 91 100 -1 100 91 92 -1 100 92 98 -1 98 92 94 -1 98 94 96 -1 96 94 84 -1 96 84 78 -1 78 84 80 -1 78 80 76 -1 104 103 106 -1 103 104 102 -1 89 107 90 -1 107 89 105 -1 65 81 66 -1 81 65 87 -1 87 65 86 -1 86 65 85 -1 104 107 105 -1 107 104 106 -1 103 107 106 -1 107 103 90 -1 90 103 101 -1 90 101 88 -1 88 101 99 -1 88 99 93 -1 93 99 97 -1 93 97 95 -1 95 97 74 -1 95 74 82 -1 82 74 73 -1 82 73 83 -1 83 73 68 -1 83 68 64 -1 79 72 75 -1 72 79 70 -1 70 79 71 -1 71 79 77 -1 108 109 110 -1 109 108 111 -1 111 108 112 -1 111 112 113 -1 113 112 114 -1 113 114 115 -1 115 114 116 -1 115 116 117 -1 117 116 118 -1 117 118 119 -1 119 118 120 -1 119 120 121 -1 121 120 122 -1 121 122 123 -1 124 113 115 -1 113 124 125 -1 126 127 128 -1 127 126 129 -1 128 130 131 -1 130 128 127 -1 131 132 133 -1 132 131 130 -1 133 134 135 -1 134 133 132 -1 136 137 138 -1 137 136 139 -1 138 140 141 -1 140 138 137 -1 142 143 144 -1 143 142 145 -1 142 146 147 -1 146 142 144 -1 125 111 113 -1 111 125 148 -1 147 149 150 -1 149 147 146 -1 129 151 127 -1 151 129 152 -1 127 153 130 -1 153 127 151 -1 130 154 132 -1 154 130 153 -1 132 155 134 -1 155 132 154 -1 137 156 157 -1 156 137 139 -1 137 158 140 -1 158 137 157 -1 144 159 160 -1 159 144 143 -1 146 160 161 -1 160 146 144 -1 146 162 149 -1 162 146 161 -1 163 111 148 -1 111 163 109 -1 152 164 151 -1 164 152 165 -1 151 166 153 -1 166 151 164 -1 153 167 154 -1 167 153 166 -1 167 155 154 -1 155 167 168 -1 157 169 170 -1 169 157 156 -1 170 158 157 -1 158 170 171 -1 160 172 173 -1 172 160 159 -1 161 173 174 -1 173 161 160 -1 161 175 162 -1 175 161 174 -1 176 109 163 -1 109 176 110 -1 177 178 179 -1 178 177 180 -1 181 182 183 -1 182 181 184 -1 185 186 187 -1 186 185 188 -1 189 118 116 -1 118 189 190 -1 191 192 193 -1 192 191 194 -1 194 195 192 -1 195 194 196 -1 182 197 198 -1 197 182 199 -1 195 200 201 -1 200 195 196 -1 184 199 182 -1 199 184 202 -1 186 202 184 -1 202 186 203 -1 120 204 122 -1 204 120 205 -1 188 203 186 -1 203 188 206 -1 187 184 181 -1 184 187 186 -1 207 208 209 -1 208 207 210 -1 183 198 211 -1 198 183 182 -1 212 177 213 -1 177 212 180 -1 214 206 215 -1 206 214 203 -1 216 203 214 -1 203 216 202 -1 217 210 207 -1 210 217 218 -1 190 120 118 -1 120 190 205 -1 219 202 216 -1 202 219 199 -1 197 219 220 -1 219 197 199 -1 221 222 223 -1 222 221 224 -1 210 201 208 -1 201 210 195 -1 225 211 226 -1 211 225 183 -1 227 181 228 -1 181 227 187 -1 218 195 210 -1 195 218 192 -1 229 180 212 -1 180 229 230 -1 193 218 231 -1 218 193 192 -1 178 230 232 -1 230 178 180 -1 233 218 217 -1 218 233 231 -1 223 234 235 -1 234 223 222 -1 222 179 234 -1 179 222 177 -1 236 194 191 -1 194 236 237 -1 224 177 222 -1 177 224 213 -1 237 196 194 -1 196 237 238 -1 228 183 225 -1 183 228 181 -1 239 187 227 -1 187 239 185 -1 240 196 238 -1 196 240 200 -1 241 242 243 -1 242 241 244 -1 245 246 247 -1 246 245 248 -1 220 244 241 -1 244 220 219 -1 249 250 251 -1 250 249 252 -1 243 245 247 -1 245 243 242 -1 253 254 255 -1 254 253 256 -1 242 257 245 -1 257 242 258 -1 259 253 260 -1 253 259 256 -1 216 261 262 -1 261 216 214 -1 258 263 257 -1 263 258 264 -1 262 264 258 -1 264 262 261 -1 264 265 263 -1 265 264 266 -1 251 267 268 -1 267 251 250 -1 269 254 256 -1 254 269 270 -1 214 271 261 -1 271 214 215 -1 122 272 123 -1 272 122 204 -1 230 270 269 -1 270 230 229 -1 219 262 244 -1 262 219 216 -1 232 269 273 -1 269 232 230 -1 240 274 275 -1 274 240 238 -1 276 249 277 -1 249 276 252 -1 121 278 119 -1 278 121 279 -1 244 258 242 -1 258 244 262 -1 278 117 119 -1 117 278 280 -1 261 266 264 -1 266 261 271 -1 275 252 276 -1 252 275 274 -1 274 250 252 -1 250 274 281 -1 123 279 121 -1 279 123 272 -1 238 281 274 -1 281 238 237 -1 250 282 267 -1 282 250 281 -1 265 283 263 -1 283 265 284 -1 263 285 257 -1 285 263 283 -1 282 237 236 -1 237 282 281 -1 273 256 259 -1 256 273 269 -1 257 248 245 -1 248 257 285 -1 286 251 287 -1 251 286 249 -1 163 288 176 -1 288 163 175 -1 175 163 148 -1 175 148 162 -1 162 148 125 -1 162 125 149 -1 149 125 124 -1 149 124 150 -1 150 124 280 -1 150 280 289 -1 289 280 277 -1 277 280 278 -1 277 278 276 -1 276 278 279 -1 276 279 275 -1 275 279 272 -1 288 290 176 -1 290 288 291 -1 290 291 292 -1 292 291 293 -1 292 293 294 -1 294 293 209 -1 294 209 189 -1 189 209 208 -1 189 208 201 -1 189 201 190 -1 190 201 200 -1 190 200 205 -1 205 200 240 -1 205 240 204 -1 204 240 275 -1 204 275 272 -1 295 141 296 -1 141 295 138 -1 297 138 295 -1 138 297 136 -1 285 133 248 -1 133 285 131 -1 286 150 289 -1 150 286 147 -1 248 135 246 -1 135 248 133 -1 165 298 299 -1 298 165 152 -1 298 152 300 -1 300 152 129 -1 300 129 239 -1 239 129 126 -1 239 126 185 -1 185 126 284 -1 185 284 188 -1 188 284 265 -1 188 265 206 -1 206 265 266 -1 206 266 215 -1 215 266 271 -1 284 128 283 -1 128 284 126 -1 172 301 302 -1 301 172 171 -1 171 172 159 -1 171 159 158 -1 158 159 143 -1 158 143 140 -1 140 143 145 -1 140 145 141 -1 141 145 303 -1 141 303 296 -1 296 303 260 -1 260 303 268 -1 260 268 259 -1 259 268 267 -1 259 267 273 -1 273 267 282 -1 301 304 302 -1 304 301 305 -1 304 305 306 -1 306 305 307 -1 306 307 233 -1 233 307 235 -1 233 235 231 -1 231 235 234 -1 231 234 179 -1 231 179 193 -1 193 179 178 -1 193 178 191 -1 191 178 232 -1 191 232 236 -1 236 232 273 -1 236 273 282 -1 249 289 277 -1 289 249 286 -1 287 145 142 -1 145 287 303 -1 295 255 297 -1 255 295 253 -1 283 131 285 -1 131 283 128 -1 169 308 309 -1 308 169 168 -1 168 169 156 -1 168 156 155 -1 155 156 139 -1 155 139 134 -1 134 139 136 -1 134 136 135 -1 135 136 297 -1 135 297 246 -1 246 297 247 -1 247 297 255 -1 247 255 243 -1 243 255 254 -1 243 254 241 -1 241 254 270 -1 308 310 309 -1 310 308 311 -1 310 311 312 -1 312 311 313 -1 312 313 221 -1 221 313 226 -1 221 226 224 -1 224 226 211 -1 224 211 198 -1 224 198 213 -1 213 198 197 -1 213 197 212 -1 212 197 220 -1 212 220 229 -1 229 220 241 -1 229 241 270 -1 287 147 286 -1 147 287 142 -1 280 115 117 -1 115 280 124 -1 253 296 260 -1 296 253 295 -1 287 268 303 -1 268 287 251 -1 314 315 316 -1 315 314 317 -1 318 319 320 -1 319 318 321 -1 322 305 323 -1 305 322 307 -1 315 291 316 -1 291 315 293 -1 310 322 323 -1 322 310 312 -1 324 308 325 -1 308 324 311 -1 292 114 112 -1 114 292 294 -1 319 324 325 -1 324 319 321 -1 326 311 324 -1 311 326 313 -1 327 324 321 -1 324 327 326 -1 298 320 299 -1 320 298 318 -1 328 321 318 -1 321 328 327 -1 290 110 176 -1 110 290 108 -1 174 288 175 -1 288 174 329 -1 327 225 326 -1 225 327 228 -1 300 227 328 -1 227 300 239 -1 328 228 327 -1 228 328 227 -1 304 317 314 -1 317 304 306 -1 300 318 298 -1 318 300 328 -1 326 226 313 -1 226 326 225 -1 173 329 174 -1 329 173 330 -1 312 223 322 -1 223 312 221 -1 169 331 170 -1 331 169 309 -1 292 108 290 -1 108 292 112 -1 322 235 307 -1 235 322 223 -1 325 168 167 -1 168 325 308 -1 164 319 166 -1 319 164 320 -1 316 288 329 -1 288 316 291 -1 306 217 317 -1 217 306 233 -1 173 302 330 -1 302 173 172 -1 314 329 330 -1 329 314 316 -1 317 207 315 -1 207 317 217 -1 331 171 170 -1 171 331 301 -1 302 314 330 -1 314 302 304 -1 315 209 293 -1 209 315 207 -1 166 325 167 -1 325 166 319 -1 165 320 164 -1 320 165 299 -1 323 301 331 -1 301 323 305 -1 294 116 114 -1 116 294 189 -1 309 323 331 -1 323 309 310 -1 62 61 63 -1 61 62 60 -1 332 90 333 -1 90 332 334 -1 90 334 335 -1 336 333 90 -1 337 338 339 -1 338 337 340 -1 341 342 107 -1 342 341 106 -1 106 341 103 -1 103 341 90 -1 103 90 335 -1 343 344 345 -1 346 347 348 -1 347 346 349 -1 349 346 350 -1 350 351 349 -1 351 350 352 -1 351 353 354 -1 353 351 355 -1 355 351 352 -1 351 347 349 -1 347 351 354 -1 353 346 348 -1 346 353 355 -1 348 354 347 -1 354 348 353 -1 337 106 103 -1 106 337 104 -1 104 337 339 -1 104 339 356 -1 104 356 343 -1 104 343 345 -1 104 345 357 -1 358 359 360 -1 359 358 361 -1 359 361 362 -1 359 362 363 -1 359 363 364 -1 359 364 365 -1 359 365 366 -1 107 90 341 -1 90 107 105 -1 90 105 336 -1 336 105 367 -1 367 105 368 -1 368 105 369 -1 369 105 370 -1 370 105 371 -1 372 105 373 -1 105 372 371 -1 371 372 374 -1 375 376 377 -1 376 375 378 -1 378 375 379 -1 378 379 380 -1 378 380 381 -1 381 380 347 -1 347 380 373 -1 347 373 348 -1 348 373 105 -1 381 354 382 -1 354 381 347 -1 382 354 353 -1 382 353 104 -1 382 104 383 -1 383 104 357 -1 383 357 384 -1 342 105 107 -1 105 342 348 -1 348 342 106 -1 348 106 353 -1 353 106 104 -1 336 385 333 -1 385 336 367 -1 384 386 383 -1 386 384 387 -1 367 388 385 -1 388 367 368 -1 389 390 391 -1 390 389 392 -1 393 394 395 -1 394 393 396 -1 397 59 398 -1 59 397 399 -1 59 399 400 -1 401 334 402 -1 334 401 400 -1 400 401 59 -1 403 404 405 -1 404 403 406 -1 338 407 408 -1 407 338 409 -1 46 62 63 -1 62 46 59 -1 59 46 398 -1 388 369 410 -1 369 388 368 -1 383 411 382 -1 411 383 386 -1 386 412 411 -1 412 386 413 -1 406 414 404 -1 414 406 415 -1 416 364 363 -1 364 416 417 -1 413 409 418 -1 409 413 407 -1 61 46 63 -1 46 61 419 -1 401 61 60 -1 61 401 419 -1 419 401 402 -1 392 410 390 -1 410 392 388 -1 387 413 386 -1 413 387 407 -1 404 420 417 -1 420 404 414 -1 392 396 393 -1 396 392 389 -1 417 365 364 -1 365 417 420 -1 399 414 400 -1 414 399 420 -1 340 409 338 -1 409 340 415 -1 369 370 410 -1 400 415 340 -1 415 400 414 -1 405 417 416 -1 417 405 404 -1 412 418 421 -1 418 412 413 -1 421 406 403 -1 406 421 418 -1 365 399 366 -1 399 365 420 -1 357 387 384 -1 387 357 344 -1 344 357 345 -1 422 46 332 -1 46 422 397 -1 46 397 398 -1 332 419 334 -1 419 332 46 -1 334 419 402 -1 418 415 406 -1 415 418 409 -1 401 62 59 -1 62 401 60 -1 338 356 339 -1 356 338 408 -1 400 335 334 -1 335 400 103 -1 103 400 337 -1 337 400 340 -1 343 408 344 -1 408 343 356 -1 344 407 387 -1 407 344 408 -1 423 424 425 -1 424 423 426 -1 390 371 374 -1 371 390 410 -1 371 410 370 -1 395 426 423 -1 426 395 394 -1 427 425 428 -1 425 427 422 -1 429 430 431 -1 430 429 432 -1 432 429 433 -1 433 429 126 -1 126 429 434 -1 434 429 428 -1 428 429 427 -1 391 374 372 -1 374 391 390 -1 425 434 428 -1 434 425 424 -1 381 411 435 -1 411 381 382 -1 426 436 424 -1 436 426 437 -1 394 437 426 -1 437 394 438 -1 396 438 394 -1 438 396 439 -1 440 441 442 -1 441 440 443 -1 389 439 396 -1 439 389 444 -1 376 445 446 -1 445 376 378 -1 389 447 444 -1 447 389 391 -1 391 373 447 -1 373 391 372 -1 424 126 434 -1 126 424 436 -1 445 448 449 -1 448 445 435 -1 450 443 440 -1 443 450 451 -1 435 412 448 -1 412 435 411 -1 437 452 436 -1 452 437 453 -1 438 453 437 -1 453 438 454 -1 333 393 395 -1 393 333 385 -1 439 454 438 -1 454 439 455 -1 456 457 458 -1 457 456 450 -1 444 455 439 -1 455 444 459 -1 444 460 459 -1 460 444 447 -1 441 363 362 -1 363 441 416 -1 447 380 460 -1 380 447 373 -1 436 433 126 -1 433 436 452 -1 461 462 463 -1 462 461 458 -1 453 464 452 -1 464 453 465 -1 448 421 466 -1 421 448 412 -1 422 423 425 -1 423 422 332 -1 385 392 393 -1 392 385 388 -1 443 416 441 -1 416 443 405 -1 440 467 468 -1 467 440 442 -1 332 395 423 -1 395 332 333 -1 377 446 469 -1 446 377 376 -1 460 379 470 -1 379 460 380 -1 452 432 433 -1 432 452 464 -1 451 405 443 -1 405 451 403 -1 465 471 464 -1 471 465 472 -1 473 472 465 -1 472 473 474 -1 475 474 473 -1 474 475 476 -1 477 476 475 -1 476 477 478 -1 450 468 457 -1 468 450 440 -1 449 458 461 -1 458 449 456 -1 477 479 478 -1 479 477 470 -1 470 375 479 -1 375 470 379 -1 471 432 464 -1 432 471 430 -1 442 362 361 -1 362 442 441 -1 472 480 471 -1 480 472 481 -1 474 481 472 -1 481 474 482 -1 476 482 474 -1 482 476 462 -1 478 462 476 -1 462 478 463 -1 478 469 463 -1 469 478 479 -1 446 449 461 -1 449 446 445 -1 466 403 451 -1 403 466 421 -1 442 358 467 -1 358 442 361 -1 378 435 445 -1 435 378 381 -1 479 377 469 -1 377 479 375 -1 469 461 463 -1 461 469 446 -1 480 430 471 -1 430 480 483 -1 483 480 484 -1 431 430 483 -1 456 451 450 -1 451 456 466 -1 468 480 481 -1 480 468 467 -1 482 468 481 -1 468 482 457 -1 458 482 462 -1 482 458 457 -1 449 466 456 -1 466 449 448 -1 346 352 350 -1 352 346 355 -1 485 360 359 -1 360 485 486 -1 483 429 431 -1 429 483 487 -1 485 397 488 -1 397 485 399 -1 399 485 359 -1 399 359 366 -1 429 422 427 -1 422 429 487 -1 487 397 422 -1 397 487 488 -1 454 465 453 -1 465 454 473 -1 486 483 484 -1 483 486 485 -1 483 485 487 -1 487 485 488 -1 459 470 477 -1 470 459 460 -1 459 475 455 -1 475 459 477 -1 467 484 480 -1 484 467 486 -1 486 358 360 -1 358 486 467 -1 455 473 454 -1 473 455 475 -1 489 490 491 -1 490 489 492 -1 493 494 495 -1 494 493 496 -1 497 493 498 -1 493 497 496 -1 496 497 490 -1 496 490 492 -1 496 492 499 -1 496 499 500 -1 496 500 501 -1 496 501 502 -1 503 492 489 -1 492 503 499 -1 500 503 504 -1 503 500 499 -1 505 500 504 -1 500 505 501 -1 490 506 491 -1 506 490 497 -1 494 507 495 -1 507 494 506 -1 506 494 491 -1 491 494 489 -1 489 494 503 -1 503 494 504 -1 504 494 505 -1 505 494 508 -1 497 507 506 -1 507 497 498 -1 493 507 498 -1 507 493 495 -1 494 502 508 -1 502 494 496 -1 508 501 505 -1 501 508 502 -1 509 510 511 -1 510 509 512 -1 512 509 513 -1 512 513 514 -1 514 513 515 -1 514 515 516 -1 517 518 519 -1 517 519 520 -1 521 522 523 -1 523 522 524 -1 521 516 522 -1 516 521 514 -1 512 521 525 -1 521 512 514 -1 517 513 518 -1 513 517 515 -1 526 527 528 -1 529 530 525 -1 529 531 530 -1 532 527 526 -1 512 530 510 -1 530 512 525 -1 511 528 509 -1 528 511 526 -1 533 534 535 -1 534 533 536 -1 537 533 538 -1 533 537 536 -1 539 538 540 -1 538 539 537 -1 532 540 527 -1 540 532 539 -1 539 532 531 -1 539 531 529 -1 541 519 542 -1 519 541 520 -1 520 541 524 -1 524 541 523 -1 543 542 544 -1 542 543 541 -1 545 544 546 -1 544 545 543 -1 547 546 548 -1 546 547 545 -1 534 549 550 -1 549 534 547 -1 547 534 536 -1 547 536 545 -1 545 536 537 -1 545 537 543 -1 543 537 539 -1 543 539 541 -1 541 539 529 -1 541 529 523 -1 523 529 525 -1 523 525 521 -1 549 548 551 -1 548 549 547 -1 534 552 535 -1 552 534 550 -1 510 526 511 -1 526 510 532 -1 532 510 531 -1 531 510 530 -1 549 552 550 -1 552 549 551 -1 548 552 551 -1 552 548 535 -1 535 548 546 -1 535 546 533 -1 533 546 544 -1 533 544 538 -1 538 544 542 -1 538 542 540 -1 540 542 519 -1 540 519 527 -1 527 519 518 -1 527 518 528 -1 528 518 513 -1 528 513 509 -1 524 517 520 -1 517 524 515 -1 515 524 516 -1 516 524 522 -1 553 554 555 -1 554 553 556 -1 556 553 557 -1 556 557 558 -1 558 557 559 -1 558 559 560 -1 561 562 563 -1 561 563 564 -1 565 566 567 -1 567 566 568 -1 565 560 566 -1 560 565 558 -1 556 565 569 -1 565 556 558 -1 561 557 562 -1 557 561 559 -1 570 571 572 -1 573 574 569 -1 573 575 574 -1 576 571 570 -1 556 574 554 -1 574 556 569 -1 555 572 553 -1 572 555 570 -1 577 578 579 -1 578 577 580 -1 581 577 582 -1 577 581 580 -1 583 582 584 -1 582 583 581 -1 576 584 571 -1 584 576 583 -1 583 576 575 -1 583 575 573 -1 585 563 586 -1 563 585 564 -1 564 585 568 -1 568 585 567 -1 587 586 588 -1 586 587 585 -1 589 588 590 -1 588 589 587 -1 591 590 592 -1 590 591 589 -1 578 593 594 -1 593 578 591 -1 591 578 580 -1 591 580 589 -1 589 580 581 -1 589 581 587 -1 587 581 583 -1 587 583 585 -1 585 583 573 -1 585 573 567 -1 567 573 569 -1 567 569 565 -1 593 592 595 -1 592 593 591 -1 578 596 579 -1 596 578 594 -1 554 570 555 -1 570 554 576 -1 576 554 575 -1 575 554 574 -1 593 596 594 -1 596 593 595 -1 592 596 595 -1 596 592 579 -1 579 592 590 -1 579 590 577 -1 577 590 588 -1 577 588 582 -1 582 588 586 -1 582 586 584 -1 584 586 563 -1 584 563 571 -1 571 563 562 -1 571 562 572 -1 572 562 557 -1 572 557 553 -1 568 561 564 -1 561 568 559 -1 559 568 560 -1 560 568 566 -1 597 598 599 -1 598 597 600 -1 600 597 601 -1 600 601 602 -1 602 601 603 -1 602 603 604 -1 604 603 605 -1 604 605 606 -1 606 605 607 -1 606 607 608 -1 608 607 609 -1 608 609 610 -1 610 609 611 -1 610 611 612 -1 613 602 604 -1 602 613 614 -1 615 616 617 -1 616 615 618 -1 617 619 620 -1 619 617 616 -1 620 621 622 -1 621 620 619 -1 622 623 624 -1 623 622 621 -1 625 626 627 -1 626 625 628 -1 627 629 630 -1 629 627 626 -1 631 632 633 -1 632 631 634 -1 631 635 636 -1 635 631 633 -1 614 600 602 -1 600 614 637 -1 636 638 639 -1 638 636 635 -1 618 640 616 -1 640 618 641 -1 616 642 619 -1 642 616 640 -1 619 643 621 -1 643 619 642 -1 621 644 623 -1 644 621 643 -1 626 645 646 -1 645 626 628 -1 626 647 629 -1 647 626 646 -1 633 648 649 -1 648 633 632 -1 635 649 650 -1 649 635 633 -1 635 651 638 -1 651 635 650 -1 652 600 637 -1 600 652 598 -1 641 653 640 -1 653 641 654 -1 640 655 642 -1 655 640 653 -1 642 656 643 -1 656 642 655 -1 656 644 643 -1 644 656 657 -1 646 658 659 -1 658 646 645 -1 659 647 646 -1 647 659 660 -1 649 661 662 -1 661 649 648 -1 650 662 663 -1 662 650 649 -1 650 664 651 -1 664 650 663 -1 665 598 652 -1 598 665 599 -1 666 667 668 -1 667 666 669 -1 670 671 672 -1 671 670 673 -1 674 675 676 -1 675 674 677 -1 678 607 605 -1 607 678 679 -1 680 681 682 -1 681 680 683 -1 683 684 681 -1 684 683 685 -1 671 686 687 -1 686 671 688 -1 684 689 690 -1 689 684 685 -1 673 688 671 -1 688 673 691 -1 675 691 673 -1 691 675 692 -1 609 693 611 -1 693 609 694 -1 677 692 675 -1 692 677 695 -1 676 673 670 -1 673 676 675 -1 696 697 698 -1 697 696 699 -1 672 687 700 -1 687 672 671 -1 701 666 702 -1 666 701 669 -1 703 695 704 -1 695 703 692 -1 705 692 703 -1 692 705 691 -1 706 699 696 -1 699 706 707 -1 679 609 607 -1 609 679 694 -1 708 691 705 -1 691 708 688 -1 686 708 709 -1 708 686 688 -1 710 711 712 -1 711 710 713 -1 699 690 697 -1 690 699 684 -1 714 700 715 -1 700 714 672 -1 716 670 717 -1 670 716 676 -1 707 684 699 -1 684 707 681 -1 718 669 701 -1 669 718 719 -1 682 707 720 -1 707 682 681 -1 667 719 721 -1 719 667 669 -1 722 707 706 -1 707 722 720 -1 712 723 724 -1 723 712 711 -1 711 668 723 -1 668 711 666 -1 725 683 680 -1 683 725 726 -1 713 666 711 -1 666 713 702 -1 726 685 683 -1 685 726 727 -1 717 672 714 -1 672 717 670 -1 728 676 716 -1 676 728 674 -1 729 685 727 -1 685 729 689 -1 730 731 732 -1 731 730 733 -1 734 735 736 -1 735 734 737 -1 709 733 730 -1 733 709 708 -1 738 739 740 -1 739 738 741 -1 732 734 736 -1 734 732 731 -1 742 743 744 -1 743 742 745 -1 731 746 734 -1 746 731 747 -1 748 742 749 -1 742 748 745 -1 705 750 751 -1 750 705 703 -1 747 752 746 -1 752 747 753 -1 751 753 747 -1 753 751 750 -1 753 754 752 -1 754 753 755 -1 740 756 757 -1 756 740 739 -1 758 743 745 -1 743 758 759 -1 703 760 750 -1 760 703 704 -1 611 761 612 -1 761 611 693 -1 719 759 758 -1 759 719 718 -1 708 751 733 -1 751 708 705 -1 721 758 762 -1 758 721 719 -1 729 763 764 -1 763 729 727 -1 765 738 766 -1 738 765 741 -1 610 767 608 -1 767 610 768 -1 733 747 731 -1 747 733 751 -1 767 606 608 -1 606 767 769 -1 750 755 753 -1 755 750 760 -1 764 741 765 -1 741 764 763 -1 763 739 741 -1 739 763 770 -1 612 768 610 -1 768 612 761 -1 727 770 763 -1 770 727 726 -1 739 771 756 -1 771 739 770 -1 754 772 752 -1 772 754 773 -1 752 774 746 -1 774 752 772 -1 771 726 725 -1 726 771 770 -1 762 745 748 -1 745 762 758 -1 746 737 734 -1 737 746 774 -1 775 740 776 -1 740 775 738 -1 652 777 665 -1 777 652 664 -1 664 652 637 -1 664 637 651 -1 651 637 614 -1 651 614 638 -1 638 614 613 -1 638 613 639 -1 639 613 769 -1 639 769 778 -1 778 769 766 -1 766 769 767 -1 766 767 765 -1 765 767 768 -1 765 768 764 -1 764 768 761 -1 777 779 665 -1 779 777 780 -1 779 780 781 -1 781 780 782 -1 781 782 783 -1 783 782 698 -1 783 698 678 -1 678 698 697 -1 678 697 690 -1 678 690 679 -1 679 690 689 -1 679 689 694 -1 694 689 729 -1 694 729 693 -1 693 729 764 -1 693 764 761 -1 784 630 785 -1 630 784 627 -1 786 627 784 -1 627 786 625 -1 774 622 737 -1 622 774 620 -1 775 639 778 -1 639 775 636 -1 737 624 735 -1 624 737 622 -1 654 787 788 -1 787 654 641 -1 787 641 789 -1 789 641 618 -1 789 618 728 -1 728 618 615 -1 728 615 674 -1 674 615 773 -1 674 773 677 -1 677 773 754 -1 677 754 695 -1 695 754 755 -1 695 755 704 -1 704 755 760 -1 773 617 772 -1 617 773 615 -1 661 790 791 -1 790 661 660 -1 660 661 648 -1 660 648 647 -1 647 648 632 -1 647 632 629 -1 629 632 634 -1 629 634 630 -1 630 634 792 -1 630 792 785 -1 785 792 749 -1 749 792 757 -1 749 757 748 -1 748 757 756 -1 748 756 762 -1 762 756 771 -1 790 793 791 -1 793 790 794 -1 793 794 795 -1 795 794 796 -1 795 796 722 -1 722 796 724 -1 722 724 720 -1 720 724 723 -1 720 723 668 -1 720 668 682 -1 682 668 667 -1 682 667 680 -1 680 667 721 -1 680 721 725 -1 725 721 762 -1 725 762 771 -1 738 778 766 -1 778 738 775 -1 776 634 631 -1 634 776 792 -1 784 744 786 -1 744 784 742 -1 772 620 774 -1 620 772 617 -1 658 797 798 -1 797 658 657 -1 657 658 645 -1 657 645 644 -1 644 645 628 -1 644 628 623 -1 623 628 625 -1 623 625 624 -1 624 625 786 -1 624 786 735 -1 735 786 736 -1 736 786 744 -1 736 744 732 -1 732 744 743 -1 732 743 730 -1 730 743 759 -1 797 799 798 -1 799 797 800 -1 799 800 801 -1 801 800 802 -1 801 802 710 -1 710 802 715 -1 710 715 713 -1 713 715 700 -1 713 700 687 -1 713 687 702 -1 702 687 686 -1 702 686 701 -1 701 686 709 -1 701 709 718 -1 718 709 730 -1 718 730 759 -1 776 636 775 -1 636 776 631 -1 769 604 606 -1 604 769 613 -1 742 785 749 -1 785 742 784 -1 776 757 792 -1 757 776 740 -1 803 804 805 -1 804 803 806 -1 807 808 809 -1 808 807 810 -1 811 794 812 -1 794 811 796 -1 804 780 805 -1 780 804 782 -1 799 811 812 -1 811 799 801 -1 813 797 814 -1 797 813 800 -1 781 603 601 -1 603 781 783 -1 808 813 814 -1 813 808 810 -1 815 800 813 -1 800 815 802 -1 816 813 810 -1 813 816 815 -1 787 809 788 -1 809 787 807 -1 817 810 807 -1 810 817 816 -1 779 599 665 -1 599 779 597 -1 663 777 664 -1 777 663 818 -1 816 714 815 -1 714 816 717 -1 789 716 817 -1 716 789 728 -1 817 717 816 -1 717 817 716 -1 793 806 803 -1 806 793 795 -1 789 807 787 -1 807 789 817 -1 815 715 802 -1 715 815 714 -1 662 818 663 -1 818 662 819 -1 801 712 811 -1 712 801 710 -1 658 820 659 -1 820 658 798 -1 781 597 779 -1 597 781 601 -1 811 724 796 -1 724 811 712 -1 814 657 656 -1 657 814 797 -1 653 808 655 -1 808 653 809 -1 805 777 818 -1 777 805 780 -1 795 706 806 -1 706 795 722 -1 662 791 819 -1 791 662 661 -1 803 818 819 -1 818 803 805 -1 806 696 804 -1 696 806 706 -1 820 660 659 -1 660 820 790 -1 791 803 819 -1 803 791 793 -1 804 698 782 -1 698 804 696 -1 655 814 656 -1 814 655 808 -1 654 809 653 -1 809 654 788 -1 812 790 820 -1 790 812 794 -1 783 605 603 -1 605 783 678 -1 798 812 820 -1 812 798 799 -1 595 594 596 -1 594 595 593 -1 821 535 822 -1 535 821 823 -1 535 823 824 -1 825 822 535 -1 826 827 828 -1 827 826 829 -1 830 831 552 -1 831 830 551 -1 551 830 548 -1 548 830 535 -1 548 535 824 -1 832 833 834 -1 835 836 837 -1 836 835 838 -1 838 835 839 -1 839 840 838 -1 840 839 841 -1 840 842 843 -1 842 840 844 -1 844 840 841 -1 840 836 838 -1 836 840 843 -1 842 835 837 -1 835 842 844 -1 837 843 836 -1 843 837 842 -1 826 551 548 -1 551 826 549 -1 549 826 828 -1 549 828 845 -1 549 845 832 -1 549 832 834 -1 549 834 846 -1 847 848 849 -1 848 847 850 -1 848 850 851 -1 848 851 852 -1 848 852 853 -1 848 853 854 -1 848 854 855 -1 552 535 830 -1 535 552 550 -1 535 550 825 -1 825 550 856 -1 856 550 857 -1 857 550 858 -1 858 550 859 -1 859 550 860 -1 861 550 862 -1 550 861 860 -1 860 861 863 -1 864 865 866 -1 865 864 867 -1 867 864 868 -1 867 868 869 -1 867 869 870 -1 870 869 836 -1 836 869 862 -1 836 862 837 -1 837 862 550 -1 870 843 871 -1 843 870 836 -1 871 843 842 -1 871 842 549 -1 871 549 872 -1 872 549 846 -1 872 846 873 -1 831 550 552 -1 550 831 837 -1 837 831 551 -1 837 551 842 -1 842 551 549 -1 825 874 822 -1 874 825 856 -1 873 875 872 -1 875 873 876 -1 856 877 874 -1 877 856 857 -1 878 879 880 -1 879 878 881 -1 882 883 884 -1 883 882 885 -1 886 592 887 -1 592 886 888 -1 592 888 889 -1 890 823 891 -1 823 890 889 -1 889 890 592 -1 892 893 894 -1 893 892 895 -1 827 896 897 -1 896 827 898 -1 579 595 596 -1 595 579 592 -1 592 579 887 -1 877 858 899 -1 858 877 857 -1 872 900 871 -1 900 872 875 -1 875 901 900 -1 901 875 902 -1 895 903 893 -1 903 895 904 -1 905 853 852 -1 853 905 906 -1 902 898 907 -1 898 902 896 -1 594 579 596 -1 579 594 908 -1 890 594 593 -1 594 890 908 -1 908 890 891 -1 881 899 879 -1 899 881 877 -1 876 902 875 -1 902 876 896 -1 893 909 906 -1 909 893 903 -1 881 885 882 -1 885 881 878 -1 906 854 853 -1 854 906 909 -1 888 903 889 -1 903 888 909 -1 829 898 827 -1 898 829 904 -1 858 859 899 -1 889 904 829 -1 904 889 903 -1 894 906 905 -1 906 894 893 -1 901 907 910 -1 907 901 902 -1 910 895 892 -1 895 910 907 -1 854 888 855 -1 888 854 909 -1 846 876 873 -1 876 846 833 -1 833 846 834 -1 911 579 821 -1 579 911 886 -1 579 886 887 -1 821 908 823 -1 908 821 579 -1 823 908 891 -1 907 904 895 -1 904 907 898 -1 890 595 592 -1 595 890 593 -1 827 845 828 -1 845 827 897 -1 889 824 823 -1 824 889 548 -1 548 889 826 -1 826 889 829 -1 832 897 833 -1 897 832 845 -1 833 896 876 -1 896 833 897 -1 912 913 914 -1 913 912 915 -1 879 860 863 -1 860 879 899 -1 860 899 859 -1 884 915 912 -1 915 884 883 -1 916 914 917 -1 914 916 911 -1 918 919 920 -1 919 918 921 -1 921 918 922 -1 922 918 615 -1 615 918 923 -1 923 918 917 -1 917 918 916 -1 880 863 861 -1 863 880 879 -1 914 923 917 -1 923 914 913 -1 870 900 924 -1 900 870 871 -1 915 925 913 -1 925 915 926 -1 883 926 915 -1 926 883 927 -1 885 927 883 -1 927 885 928 -1 929 930 931 -1 930 929 932 -1 878 928 885 -1 928 878 933 -1 865 934 935 -1 934 865 867 -1 878 936 933 -1 936 878 880 -1 880 862 936 -1 862 880 861 -1 913 615 923 -1 615 913 925 -1 934 937 938 -1 937 934 924 -1 939 932 929 -1 932 939 940 -1 924 901 937 -1 901 924 900 -1 926 941 925 -1 941 926 942 -1 927 942 926 -1 942 927 943 -1 822 882 884 -1 882 822 874 -1 928 943 927 -1 943 928 944 -1 945 946 947 -1 946 945 939 -1 933 944 928 -1 944 933 948 -1 933 949 948 -1 949 933 936 -1 930 852 851 -1 852 930 905 -1 936 869 949 -1 869 936 862 -1 925 922 615 -1 922 925 941 -1 950 951 952 -1 951 950 947 -1 942 953 941 -1 953 942 954 -1 937 910 955 -1 910 937 901 -1 911 912 914 -1 912 911 821 -1 874 881 882 -1 881 874 877 -1 932 905 930 -1 905 932 894 -1 929 956 957 -1 956 929 931 -1 821 884 912 -1 884 821 822 -1 866 935 958 -1 935 866 865 -1 949 868 959 -1 868 949 869 -1 941 921 922 -1 921 941 953 -1 940 894 932 -1 894 940 892 -1 954 960 953 -1 960 954 961 -1 962 961 954 -1 961 962 963 -1 964 963 962 -1 963 964 965 -1 966 965 964 -1 965 966 967 -1 939 957 946 -1 957 939 929 -1 938 947 950 -1 947 938 945 -1 966 968 967 -1 968 966 959 -1 959 864 968 -1 864 959 868 -1 960 921 953 -1 921 960 919 -1 931 851 850 -1 851 931 930 -1 961 969 960 -1 969 961 970 -1 963 970 961 -1 970 963 971 -1 965 971 963 -1 971 965 951 -1 967 951 965 -1 951 967 952 -1 967 958 952 -1 958 967 968 -1 935 938 950 -1 938 935 934 -1 955 892 940 -1 892 955 910 -1 931 847 956 -1 847 931 850 -1 867 924 934 -1 924 867 870 -1 968 866 958 -1 866 968 864 -1 958 950 952 -1 950 958 935 -1 969 919 960 -1 919 969 972 -1 972 969 973 -1 920 919 972 -1 945 940 939 -1 940 945 955 -1 957 969 970 -1 969 957 956 -1 971 957 970 -1 957 971 946 -1 947 971 951 -1 971 947 946 -1 938 955 945 -1 955 938 937 -1 835 841 839 -1 841 835 844 -1 974 849 848 -1 849 974 975 -1 972 918 920 -1 918 972 976 -1 974 886 977 -1 886 974 888 -1 888 974 848 -1 888 848 855 -1 918 911 916 -1 911 918 976 -1 976 886 911 -1 886 976 977 -1 943 954 942 -1 954 943 962 -1 975 972 973 -1 972 975 974 -1 972 974 976 -1 976 974 977 -1 948 959 966 -1 959 948 949 -1 948 964 944 -1 964 948 966 -1 956 973 969 -1 973 956 975 -1 975 847 849 -1 847 975 956 -1 944 962 943 -1 962 944 964 -1 978 979 980 -1 979 978 981 -1 982 983 984 -1 983 982 985 -1 986 982 987 -1 982 986 985 -1 985 986 979 -1 985 979 981 -1 985 981 988 -1 985 988 989 -1 985 989 990 -1 985 990 991 -1 992 981 978 -1 981 992 988 -1 989 992 993 -1 992 989 988 -1 994 989 993 -1 989 994 990 -1 979 995 980 -1 995 979 986 -1 983 996 984 -1 996 983 995 -1 995 983 980 -1 980 983 978 -1 978 983 992 -1 992 983 993 -1 993 983 994 -1 994 983 997 -1 986 996 995 -1 996 986 987 -1 982 996 987 -1 996 982 984 -1 983 991 997 -1 991 983 985 -1 997 990 994 -1 990 997 991 -1 "
						                >
							<Coordinate DEF="coords_ME_20-1-1_001"
							            point="2.952999 -51.309582 6.228744 -1.771410 -51.608990 5.929335 2.952999 -51.608990 5.929335 -1.771410 -51.309582 6.228744 -1.771410 54.453632 0.000000 2.952999 54.453632 7.086614 2.952999 54.453632 0.000000 -1.771410 54.453632 7.086614 -1.771410 -51.679459 5.511811 -1.771410 -51.679459 0.000000 -1.771410 -50.892059 6.299212 -1.771410 -50.821590 6.716736 -1.771410 -50.522182 7.016146 -1.771410 -50.104656 7.086614 2.952999 -50.892059 6.299212 2.952999 -50.821590 6.716736 2.952999 -50.522182 7.016146 2.952999 -51.679459 5.511811 2.952999 -51.679459 0.000000 2.952999 -50.104656 7.086614 46.868458 -40.695210 85.826775 46.868458 -41.049538 94.685036 46.868458 -41.049538 87.559235 46.868458 -40.695210 96.456696 46.868458 -34.317257 85.826775 46.868458 -34.317257 96.456696 46.868458 -33.962925 87.559235 46.868458 -33.962925 94.685036 29.688251 -33.962925 87.559235 29.219345 -34.317257 85.826775 20.986422 -33.962925 85.826775 20.986422 -33.962925 87.559235 29.219345 -34.317257 96.456696 29.219345 -33.962925 94.685036 20.986422 -33.962925 96.456696 20.986422 -33.962925 94.685036 29.219345 -40.695210 96.456696 29.219345 -41.049538 87.559235 20.986422 -41.049538 85.826775 29.219345 -40.695210 85.826775 20.986422 -41.049538 96.456696 29.219345 -41.049538 94.685036 20.986422 -41.049538 94.685036 20.986422 -41.049538 87.559235 9.647840 -39.986546 85.826775 8.387997 -39.277885 96.456696 8.387997 -39.277885 85.826775 9.647840 -39.986546 96.456696 12.167524 -40.518044 96.456696 12.167524 -40.518044 85.826775 15.947052 -40.872372 96.456696 15.947052 -40.872372 85.826775 15.947052 -34.140091 96.456696 15.947052 -34.140091 85.826775 12.167524 -34.494419 96.456696 12.167524 -34.494419 85.826775 9.647840 -35.025917 96.456696 9.647840 -35.025917 85.826775 8.387997 -35.734577 96.456696 8.387997 -35.734577 85.826775 2.021027 -35.734577 96.456696 2.021027 -39.277885 96.456696 2.021027 -35.734577 85.826775 2.021027 -39.277885 85.826775 46.868458 -41.049538 106.299210 46.868458 -41.443241 116.141731 46.868458 -41.443241 108.224167 46.868458 -41.049538 118.110237 46.868458 -33.962925 106.299210 46.868458 -33.962925 118.110237 46.868458 -33.569225 108.224167 46.868458 -33.569225 116.141731 29.045420 -33.569225 108.224167 28.576515 -33.962925 106.299210 20.343592 -33.569225 106.299210 20.343592 -33.569225 108.224167 28.576515 -33.962925 118.110237 28.576515 -33.569225 116.141731 20.343592 -33.569225 118.110237 20.343592 -33.569225 116.141731 28.576515 -41.049538 118.110237 28.576515 -41.443241 108.224167 20.343592 -41.443241 106.299210 28.576515 -41.049538 106.299210 20.343592 -41.443241 118.110237 28.576515 -41.443241 116.141731 20.343592 -41.443241 116.141731 20.343592 -41.443241 108.224167 9.005009 -40.262138 106.299210 7.745166 -39.474735 118.110237 7.745166 -39.474735 106.299210 9.005009 -40.262138 118.110237 11.524694 -40.852688 118.110237 11.524694 -40.852688 106.299210 15.304221 -41.246387 118.110237 15.304221 -41.246387 106.299210 15.304221 -33.766075 118.110237 15.304221 -33.766075 106.299210 11.524694 -34.159775 118.110237 11.524694 -34.159775 106.299210 9.005009 -34.750328 118.110237 9.005009 -34.750328 106.299210 7.745166 -35.537727 118.110237 7.745166 -35.537727 106.299210 1.378196 -35.537727 118.110237 1.378196 -39.474735 118.110237 1.378196 -35.537727 106.299210 1.378196 -39.474735 106.299210 -12.260151 -32.167465 -7.127565 -12.260151 -42.813538 -7.127565 -13.318969 -37.490501 -7.127565 -9.244893 -47.326187 -7.127565 -9.244893 -27.654812 -7.127565 -4.732241 -50.341446 -7.127565 -4.732241 -24.639555 -7.127565 0.590794 -51.400261 -7.127565 0.590794 -23.580736 -7.127565 5.913830 -50.341446 -7.127565 5.913830 -24.639555 -7.127565 10.426482 -47.326187 -7.127565 10.426482 -27.654812 -7.127565 13.441740 -42.813538 -7.127565 13.441740 -32.167465 -7.127565 14.500557 -37.490501 -7.127565 0.590794 -51.400261 -6.560225 -4.732241 -50.341446 -6.560225 0.590794 -45.773949 0.000000 -2.624810 -45.253654 -0.965659 0.590794 -45.893276 -0.965659 -2.579144 -45.143410 0.000000 -2.761595 -45.583885 -1.866624 0.590794 -46.250717 -1.866624 -2.980192 -46.111626 -2.641577 0.590794 -46.821938 -2.641577 -2.980192 -46.111626 -3.197442 0.590794 -46.821938 -3.197442 0.590794 -46.959457 -3.197442 -3.190698 -46.619831 -3.622947 0.590794 -47.372017 -3.622947 -3.032819 -46.238674 -3.197442 -3.190698 -46.619831 -4.048453 0.590794 -47.372017 -4.048453 0.590794 -49.110306 -4.707034 -3.499738 -47.365921 -4.048453 -3.855913 -48.225800 -4.707034 0.590794 -48.179577 -4.048453 -4.150774 -48.937656 -5.557728 0.590794 -49.880814 -5.557728 -9.244893 -47.326187 -6.560225 -4.370348 -49.467758 -6.560225 0.590794 -50.454590 -6.560225 -5.350867 -43.432159 -0.965659 -5.266488 -43.347782 0.000000 -5.603614 -43.684910 -1.866624 -6.007528 -44.088821 -2.641577 -6.007528 -44.088821 -3.197442 -6.104770 -44.186066 -3.197442 -6.396493 -44.477787 -3.622947 -6.396493 -44.477787 -4.048453 -6.967525 -45.048820 -4.048453 -7.625649 -45.706944 -4.707034 -8.170481 -46.251774 -5.557728 -8.576202 -46.657497 -6.560225 -12.260151 -42.813538 -6.560225 -7.172360 -40.706104 -0.965659 -7.062114 -40.660439 0.000000 -7.502591 -40.842888 -1.866624 -8.030330 -41.061485 -2.641577 -8.030330 -41.061485 -3.197442 -8.157381 -41.114113 -3.197442 -8.538537 -41.271992 -3.622947 -8.538537 -41.271992 -4.048453 -9.284625 -41.581032 -4.048453 -10.144507 -41.937206 -4.707034 -10.856363 -42.232067 -5.557728 -11.386464 -42.451645 -6.560225 -13.318969 -37.490501 -6.560225 4.372287 -28.361168 -3.622947 7.578082 -30.503212 -4.048453 4.372287 -28.361168 -4.048453 7.578082 -30.503212 -3.622947 0.590794 -28.730284 -1.866624 4.161781 -28.869375 -2.641577 0.590794 -28.159061 -2.641577 3.943184 -29.397116 -1.866624 0.590794 -29.207052 0.000000 3.806398 -29.727345 -0.965659 0.590794 -29.087721 -0.965659 3.760733 -29.837591 0.000000 0.590794 -23.580736 -6.560225 5.913830 -24.639555 -6.560225 8.149114 -29.932180 -4.048453 5.037502 -26.755198 -4.707034 4.681327 -27.615080 -4.048453 8.807239 -29.274055 -4.707034 5.332363 -26.043343 -5.557728 9.352070 -28.729225 -5.557728 7.189117 -30.892178 -3.197442 4.161781 -28.869375 -3.197442 7.189117 -30.892178 -2.641577 9.757792 -28.323503 -6.560225 5.551938 -25.513241 -6.560225 6.785203 -31.296091 -1.866624 6.532456 -31.548838 -0.965659 13.441740 -32.167465 -6.560225 10.426482 -27.654812 -6.560225 6.448077 -31.633217 0.000000 -4.150774 -26.043343 -5.557728 0.590794 -24.526409 -6.560225 -4.370348 -25.513241 -6.560225 0.590794 -25.100185 -5.557728 0.590794 -28.159061 -3.197442 7.286358 -30.794935 -3.197442 4.214407 -28.742325 -3.197442 8.353950 -34.274895 -0.965659 8.243703 -34.320560 0.000000 8.684179 -34.138111 -1.866624 -3.855913 -26.755198 -4.707034 0.590794 -25.870693 -4.707034 9.211919 -33.919514 -2.641577 9.211919 -33.919514 -3.197442 -3.032819 -28.742325 -3.197442 0.590794 -27.608982 -3.622947 -3.190698 -28.361168 -3.622947 0.590794 -28.021542 -3.197442 -2.980192 -28.869375 -2.641577 -2.980192 -28.869375 -3.197442 -2.624810 -29.727345 -0.965659 -2.761595 -29.397116 -1.866624 9.338970 -33.866886 -3.197442 9.720125 -33.709007 -3.622947 0.590794 -26.801422 -4.048453 9.720125 -33.709007 -4.048453 -3.499738 -27.615080 -4.048453 0.590794 -27.608982 -4.048453 -3.190698 -28.361168 -4.048453 10.466214 -33.399967 -4.048453 11.326096 -33.043793 -4.707034 12.037952 -32.748932 -5.557728 -2.579144 -29.837591 0.000000 12.568053 -32.529358 -6.560225 9.922232 -37.490501 -3.197442 9.211919 -41.061485 -2.641577 9.211919 -41.061485 -3.197442 9.922232 -37.490501 -2.641577 7.189117 -44.088821 -2.641577 4.161781 -46.111626 -3.197442 7.189117 -44.088821 -3.197442 4.161781 -46.111626 -2.641577 9.352070 -46.251774 -5.557728 11.326096 -41.937206 -4.707034 8.807239 -45.706944 -4.707034 12.037952 -42.232067 -5.557728 7.578082 -44.477787 -3.622947 9.338970 -41.114113 -3.197442 7.286358 -44.186066 -3.197442 9.720125 -41.271992 -3.622947 6.785203 -43.684910 -1.866624 8.684179 -40.842888 -1.866624 9.720125 -41.271992 -4.048453 7.578082 -44.477787 -4.048453 8.993572 -37.490501 -0.965659 9.351011 -37.490501 -1.866624 6.532456 -43.432159 -0.965659 8.353950 -40.706104 -0.965659 6.448077 -43.347782 0.000000 8.243703 -40.660439 0.000000 10.466214 -41.581032 -4.048453 8.149114 -45.048820 -4.048453 10.472311 -37.490501 -3.622947 10.059752 -37.490501 -3.197442 8.874243 -37.490501 0.000000 14.500557 -37.490501 -6.560225 10.472311 -37.490501 -4.048453 12.981109 -37.490501 -5.557728 13.554886 -37.490501 -6.560225 12.568053 -42.451645 -6.560225 9.757792 -46.657497 -6.560225 10.426482 -47.326187 -6.560225 13.441740 -42.813538 -6.560225 5.913830 -50.341446 -6.560225 12.210601 -37.490501 -4.707034 11.279871 -37.490501 -4.048453 3.806398 -45.253654 -0.965659 3.760733 -45.143410 0.000000 3.943184 -45.583885 -1.866624 5.332363 -48.937656 -5.557728 5.037502 -48.225800 -4.707034 -12.373297 -37.490501 -6.560225 5.551938 -49.467758 -6.560225 -12.260151 -32.167465 -6.560225 -11.386464 -32.529358 -6.560225 -9.244893 -27.654812 -6.560225 -8.576202 -28.323503 -6.560225 -4.732241 -24.639555 -6.560225 4.372287 -46.619831 -3.622947 4.372287 -46.619831 -4.048453 4.214407 -46.238674 -3.197442 -7.062114 -34.320560 0.000000 -7.692654 -37.490501 0.000000 -5.266488 -31.633217 0.000000 -9.290723 -37.490501 -4.048453 -10.098283 -37.490501 -4.048453 4.681327 -47.365921 -4.048453 -9.284625 -33.399967 -4.048453 -8.538537 -33.709007 -4.048453 -6.967525 -29.932180 -4.048453 -6.396493 -30.503212 -4.048453 -8.740644 -37.490501 -3.197442 -8.878163 -37.490501 -3.197442 -8.157381 -33.866886 -3.197442 -8.030330 -33.919514 -3.197442 -6.104770 -30.794935 -3.197442 -6.007528 -30.892178 -3.197442 -10.144507 -33.043793 -4.707034 -8.170481 -28.729225 -5.557728 -10.856363 -32.748932 -5.557728 -7.625649 -29.274055 -4.707034 -7.172360 -34.274895 -0.965659 -8.169422 -37.490501 -1.866624 -7.811984 -37.490501 -0.965659 -7.502591 -34.138111 -1.866624 -6.396493 -30.503212 -3.622947 -8.538537 -33.709007 -3.622947 -8.030330 -33.919514 -2.641577 -8.740644 -37.490501 -2.641577 -6.007528 -30.892178 -2.641577 -5.603614 -31.296091 -1.866624 -5.350867 -31.548838 -0.965659 -11.799520 -37.490501 -5.557728 -11.029012 -37.490501 -4.707034 -9.290723 -37.490501 -3.622947 7.926058 -40.544598 98.425194 7.319838 -40.293491 111.548553 8.530427 -37.506233 98.425194 8.136726 -37.506233 106.299210 7.482699 -39.474735 111.548553 7.482699 -35.537727 111.548553 6.628747 -35.005230 116.535431 6.734668 -35.537727 116.535431 7.319838 -34.718971 111.548553 2.559298 -39.474735 106.299210 1.378196 -38.293633 106.299210 5.756108 -35.537727 117.894173 5.724676 -35.379707 117.894173 5.343184 -35.537727 118.001343 1.378196 -38.293633 119.685036 -0.196607 -38.293633 118.110237 1.378196 -38.293633 118.110237 -0.196607 -38.293633 119.685036 0.590794 -38.293633 119.685036 -0.196607 -36.718830 119.685036 0.590794 -36.718830 119.685036 1.378196 -36.718830 118.110237 -0.196607 -36.718830 118.110237 1.378196 -36.718830 119.685036 6.405103 -35.537727 117.329826 4.848303 -35.537727 118.110237 -7.047580 -34.342312 0.000000 8.388639 -35.144028 0.000000 -7.207050 -35.144028 0.000000 -5.255364 -31.660072 0.000000 -2.573124 -29.867857 0.000000 0.590794 -29.238516 0.000000 3.754713 -29.867857 0.000000 6.436953 -31.660072 0.000000 8.229169 -34.342312 0.000000 6.734668 -39.474735 116.535431 6.405103 -39.474735 117.329826 5.756108 -39.474735 117.894173 5.343184 -39.474735 118.001343 4.848303 -39.474735 118.110237 2.398748 -41.871017 118.110237 0.590794 -42.230640 118.110237 3.931456 -40.846893 118.110237 -3.773991 -39.314186 118.110237 -3.773991 -35.698280 118.110237 -4.133615 -37.506233 118.110237 -2.749867 -34.165569 118.110237 -2.749867 -40.846893 118.110237 -1.217159 -41.871017 118.110237 -1.217159 -33.141445 118.110237 0.590794 -32.781822 118.110237 2.398748 -33.141445 118.110237 3.931456 -34.165569 118.110237 6.628747 -40.007233 116.535431 2.717318 -32.372349 117.894173 4.520097 -33.576927 117.894173 6.324269 -39.881115 117.329826 2.965677 -43.239708 117.329826 4.520097 -41.435535 117.894173 2.717318 -42.640114 117.894173 4.979006 -41.894444 117.329826 5.212043 -42.127480 116.535431 3.378056 -44.235275 111.548553 5.740982 -42.656418 111.548553 3.091796 -43.544186 116.535431 8.858511 -37.506233 78.740158 8.740400 -37.506233 85.826775 8.229169 -34.342312 78.740158 7.926058 -34.467865 98.425194 8.210832 -35.734577 96.456696 8.563235 -37.506233 96.456696 0.590794 -30.222767 111.548553 3.629160 -30.170967 98.425194 0.590794 -29.566599 98.425194 3.378056 -30.777187 111.548553 4.979006 -33.118019 117.329826 6.324269 -35.131348 117.329826 5.212043 -32.884983 116.535431 5.724676 -39.632755 117.894173 0.590794 -31.949358 117.894173 0.590794 -31.300364 117.329826 2.965677 -31.772757 117.329826 6.204962 -31.892063 98.425194 5.740982 -32.356045 111.548553 0.590794 -29.238516 78.740158 3.754713 -29.867857 78.740158 3.091796 -31.468279 116.535431 8.210832 -39.277885 96.456696 6.436953 -31.660072 78.740158 0.590794 -30.970798 116.535431 8.229169 -40.670151 78.740158 6.204962 -43.120399 98.425194 3.754713 -45.144608 78.740158 6.436953 -43.352390 78.740158 3.629160 -44.841496 98.425194 8.229169 -40.670151 0.000000 6.436953 -43.352390 0.000000 8.388639 -39.868435 0.000000 -7.047580 -40.670151 0.000000 -7.207050 -39.868435 0.000000 -5.255364 -43.352390 0.000000 -2.573124 -45.144608 0.000000 3.754713 -45.144608 0.000000 -1.535729 -32.372349 117.894173 0.590794 -45.773949 78.740158 0.590794 -45.445866 98.425194 0.590794 -44.789696 111.548553 0.590794 -44.041664 116.535431 -5.023374 -31.892063 98.425194 -2.573124 -29.867857 78.740158 -5.255364 -31.660072 78.740158 -2.447572 -30.170967 98.425194 0.590794 -43.712101 117.329826 -3.338508 -33.576927 117.894173 -4.543087 -35.379707 117.894173 0.590794 -43.063107 117.894173 -1.784089 -31.772757 117.329826 -3.797417 -33.118019 117.329826 -4.559393 -32.356045 111.548553 -2.196467 -30.777187 111.548553 -2.573124 -45.144608 78.740158 -2.447572 -44.841496 98.425194 -2.196467 -44.235275 111.548553 -1.910208 -43.544186 116.535431 -4.030455 -32.884983 116.535431 -6.138249 -34.718971 111.548553 -5.447158 -35.005230 116.535431 -1.784089 -43.239708 117.329826 -1.535729 -42.640114 117.894173 -5.142681 -35.131348 117.329826 -5.944639 -37.506233 116.535431 -5.615074 -37.506233 117.329826 -5.255364 -43.352390 78.740158 -5.023374 -43.120399 98.425194 -1.910208 -31.468279 116.535431 -7.047580 -34.342312 78.740158 -6.744470 -34.467865 98.425194 -4.966079 -37.506233 117.894173 -3.338508 -41.435535 117.894173 -7.047580 -40.670151 78.740158 -6.744470 -40.544598 98.425194 -4.559393 -42.656418 111.548553 -6.138249 -40.293491 111.548553 -4.030455 -42.127480 116.535431 -5.447158 -40.007233 116.535431 -3.797417 -41.894444 117.329826 -5.142681 -39.881115 117.329826 -4.543087 -39.632755 117.894173 -7.676922 -37.506233 78.740158 -7.348838 -37.506233 98.425194 -6.692670 -37.506233 111.548553 -7.207050 -39.868435 7.086614 -7.676922 -37.506233 7.086614 8.388639 -35.144028 7.086614 -7.207050 -35.144028 7.086614 8.388639 -39.868435 7.086614 8.858511 -37.506233 7.086614 -13.228288 -39.868435 6.228744 -13.527698 -35.144028 5.929335 -13.527698 -39.868435 5.929335 -13.228288 -35.144028 6.228744 46.868458 -35.144028 0.000000 46.868458 -39.868435 7.086614 46.868458 -39.868435 0.000000 46.868458 -35.144028 7.086614 -13.598166 -35.144028 5.511811 -13.598166 -35.144028 0.000000 -12.810764 -35.144028 6.299212 -12.740295 -35.144028 6.716736 -12.440886 -35.144028 7.016146 -12.023362 -35.144028 7.086614 -12.810764 -39.868435 6.299212 -12.740295 -39.868435 6.716736 -12.440886 -39.868435 7.016146 -13.598166 -39.868435 5.511811 -13.598166 -39.868435 0.000000 -12.023362 -39.868435 7.086614 80.937256 -51.044495 106.299210 80.543556 -51.044495 116.141731 80.543556 -51.044495 108.224167 80.937256 -51.044495 118.110237 88.023872 -51.044495 106.299210 88.023872 -51.044495 118.110237 88.417572 -51.044495 108.224167 88.417572 -51.044495 116.141731 88.417572 11.817913 108.224167 88.023872 12.286818 106.299210 88.417572 20.519741 106.299210 88.417572 20.519741 108.224167 88.023872 12.286818 118.110237 88.417572 12.286818 116.141731 88.417572 20.519741 118.110237 88.417572 20.519741 116.141731 80.937256 12.286818 118.110237 80.543556 12.286818 108.224167 80.543556 20.519741 106.299210 80.937256 12.286818 106.299210 80.543556 20.519741 118.110237 80.543556 12.286818 116.141731 80.543556 20.519741 116.141731 80.543556 20.519741 108.224167 81.724663 31.858324 106.299210 82.512062 33.118168 118.110237 82.512062 33.118168 106.299210 81.724663 31.858324 118.110237 81.134109 29.338638 118.110237 81.134109 29.338638 106.299210 80.740410 25.559111 118.110237 80.740410 25.559111 106.299210 88.220726 25.559111 118.110237 88.220726 25.559111 106.299210 87.827026 29.338638 118.110237 87.827026 29.338638 106.299210 87.236473 31.858324 118.110237 87.236473 31.858324 106.299210 86.449074 33.118168 118.110237 86.449074 33.118168 106.299210 86.449074 39.485138 118.110237 82.512062 39.485138 118.110237 86.449074 39.485138 106.299210 82.512062 39.485138 106.299210 81.291588 -51.687325 85.826775 80.937256 -51.687325 94.685036 80.937256 -51.687325 87.559235 81.291588 -51.687325 96.456696 87.669540 -51.687325 85.826775 87.669540 -51.687325 96.456696 88.023872 -51.687325 87.559235 88.023872 -51.687325 94.685036 88.023872 11.175082 87.559235 87.669540 11.643988 85.826775 88.023872 19.876911 85.826775 88.023872 19.876911 87.559235 87.669540 11.643988 96.456696 88.023872 11.643988 94.685036 88.023872 19.876911 96.456696 88.023872 19.876911 94.685036 81.291588 11.643988 96.456696 80.937256 11.643988 87.559235 80.937256 19.876911 85.826775 81.291588 11.643988 85.826775 80.937256 19.876911 96.456696 80.937256 11.643988 94.685036 80.937256 19.876911 94.685036 80.937256 19.876911 87.559235 82.000252 31.215494 85.826775 82.708916 32.475334 96.456696 82.708916 32.475334 85.826775 82.000252 31.215494 96.456696 81.468758 28.695808 96.456696 81.468758 28.695808 85.826775 81.114426 24.916281 96.456696 81.114426 24.916281 85.826775 87.846710 24.916281 96.456696 87.846710 24.916281 85.826775 87.492378 28.695808 96.456696 87.492378 28.695808 85.826775 86.960884 31.215494 96.456696 86.960884 31.215494 85.826775 86.252220 32.475334 96.456696 86.252220 32.475334 85.826775 86.252220 38.842308 96.456696 82.708916 38.842308 96.456696 86.252220 38.842308 85.826775 82.708916 38.842308 85.826775 89.819336 53.123486 -7.127565 79.173264 53.123486 -7.127565 84.496300 54.182301 -7.127565 74.660614 50.108227 -7.127565 94.331985 50.108227 -7.127565 71.645355 45.595573 -7.127565 97.347244 45.595573 -7.127565 70.586533 40.272537 -7.127565 98.406059 40.272537 -7.127565 71.645355 34.949501 -7.127565 97.347244 34.949501 -7.127565 74.660614 30.436852 -7.127565 94.331985 30.436852 -7.127565 79.173264 27.421593 -7.127565 89.819336 27.421593 -7.127565 84.496300 26.362776 -7.127565 70.586533 40.272537 -6.560225 71.645355 45.595573 -6.560225 76.212852 40.272537 0.000000 76.733147 43.488144 -0.965659 76.093521 40.272537 -0.965659 76.843391 43.442478 0.000000 76.402916 43.624928 -1.866624 75.736084 40.272537 -1.866624 75.875175 43.843525 -2.641577 75.164864 40.272537 -2.641577 75.875175 43.843525 -3.197442 75.164864 40.272537 -3.197442 75.027344 40.272537 -3.197442 75.366966 44.054031 -3.622947 74.614784 40.272537 -3.622947 75.748123 43.896152 -3.197442 75.366966 44.054031 -4.048453 74.614784 40.272537 -4.048453 72.876495 40.272537 -4.707034 74.620880 44.363071 -4.048453 73.760994 44.719246 -4.707034 73.807220 40.272537 -4.048453 73.049141 45.014107 -5.557728 72.105980 40.272537 -5.557728 74.660614 50.108227 -6.560225 72.519043 45.233681 -6.560225 71.532204 40.272537 -6.560225 78.554634 46.214199 -0.965659 78.639015 46.129822 0.000000 78.301888 46.466946 -1.866624 77.897972 46.870861 -2.641577 77.897972 46.870861 -3.197442 77.800735 46.968102 -3.197442 77.509010 47.259827 -3.622947 77.509010 47.259827 -4.048453 76.937981 47.830856 -4.048453 76.279854 48.488983 -4.707034 75.735023 49.033813 -5.557728 75.329300 49.439537 -6.560225 79.173264 53.123486 -6.560225 81.280693 48.035694 -0.965659 81.326363 47.925446 0.000000 81.143906 48.365925 -1.866624 80.925308 48.893661 -2.641577 80.925308 48.893661 -3.197442 80.872688 49.020714 -3.197442 80.714806 49.401871 -3.622947 80.714806 49.401871 -4.048453 80.405762 50.147957 -4.048453 80.049591 51.007839 -4.707034 79.754730 51.719696 -5.557728 79.535156 52.249798 -6.560225 84.496300 54.182301 -6.560225 93.625626 36.491047 -3.622947 91.483589 33.285252 -4.048453 93.625626 36.491047 -4.048453 91.483589 33.285252 -3.622947 93.256516 40.272537 -1.866624 93.117424 36.701553 -2.641577 93.827736 40.272537 -2.641577 92.589684 36.920147 -1.866624 92.779747 40.272537 0.000000 92.259453 37.056934 -0.965659 92.899078 40.272537 -0.965659 92.149208 37.102600 0.000000 98.406059 40.272537 -6.560225 97.347244 34.949501 -6.560225 92.054619 32.714218 -4.048453 95.231598 35.825832 -4.707034 94.371719 36.182007 -4.048453 92.712746 32.056095 -4.707034 95.943459 35.530972 -5.557728 93.257576 31.511263 -5.557728 91.094620 33.674217 -3.197442 93.117424 36.701553 -3.197442 91.094620 33.674217 -2.641577 93.663292 31.105541 -6.560225 96.473557 35.311394 -6.560225 90.690704 34.078129 -1.866624 90.437958 34.330875 -0.965659 89.819336 27.421593 -6.560225 94.331985 30.436852 -6.560225 90.353584 34.415257 0.000000 95.943459 45.014107 -5.557728 97.460388 40.272537 -6.560225 96.473557 45.233681 -6.560225 96.886612 40.272537 -5.557728 93.827736 40.272537 -3.197442 91.191864 33.576973 -3.197442 93.244476 36.648926 -3.197442 87.711899 32.509384 -0.965659 87.666237 32.619629 0.000000 87.848686 32.179153 -1.866624 95.231598 44.719246 -4.707034 96.116104 40.272537 -4.707034 88.067284 31.651415 -2.641577 88.067284 31.651415 -3.197442 93.244476 43.896152 -3.197442 94.377815 40.272537 -3.622947 93.625626 44.054031 -3.622947 93.965256 40.272537 -3.197442 93.117424 43.843525 -2.641577 93.117424 43.843525 -3.197442 92.259453 43.488144 -0.965659 92.589684 43.624928 -1.866624 88.119911 31.524363 -3.197442 88.277794 31.143208 -3.622947 95.185371 40.272537 -4.048453 88.277794 31.143208 -4.048453 94.371719 44.363071 -4.048453 94.377815 40.272537 -4.048453 93.625626 44.054031 -4.048453 88.586830 30.397120 -4.048453 88.943008 29.537237 -4.707034 89.237869 28.825380 -5.557728 92.149208 43.442478 0.000000 89.457443 28.295280 -6.560225 84.496300 30.941101 -3.197442 80.925308 31.651415 -2.641577 80.925308 31.651415 -3.197442 84.496300 30.941101 -2.641577 77.897972 33.674217 -2.641577 75.875175 36.701553 -3.197442 77.897972 33.674217 -3.197442 75.875175 36.701553 -2.641577 75.735023 31.511263 -5.557728 80.049591 29.537237 -4.707034 76.279854 32.056095 -4.707034 79.754730 28.825380 -5.557728 77.509010 33.285252 -3.622947 80.872688 31.524363 -3.197442 77.800735 33.576973 -3.197442 80.714806 31.143208 -3.622947 78.301888 34.078129 -1.866624 81.143906 32.179153 -1.866624 80.714806 31.143208 -4.048453 77.509010 33.285252 -4.048453 84.496300 31.869761 -0.965659 84.496300 31.512321 -1.866624 78.554634 34.330875 -0.965659 81.280693 32.509384 -0.965659 78.639015 34.415257 0.000000 81.326363 32.619629 0.000000 80.405762 30.397120 -4.048453 76.937981 32.714218 -4.048453 84.496300 30.391022 -3.622947 84.496300 30.803581 -3.197442 84.496300 31.989090 0.000000 84.496300 26.362776 -6.560225 84.496300 30.391022 -4.048453 84.496300 27.882223 -5.557728 84.496300 27.308447 -6.560225 79.535156 28.295280 -6.560225 75.329300 31.105541 -6.560225 74.660614 30.436852 -6.560225 79.173264 27.421593 -6.560225 71.645355 34.949501 -6.560225 84.496300 28.652733 -4.707034 84.496300 29.583462 -4.048453 76.733147 37.056934 -0.965659 76.843391 37.102600 0.000000 76.402916 36.920147 -1.866624 73.049141 35.530972 -5.557728 73.760994 35.825832 -4.707034 84.496300 53.236629 -6.560225 72.519043 35.311394 -6.560225 89.819336 53.123486 -6.560225 89.457443 52.249798 -6.560225 94.331985 50.108227 -6.560225 93.663292 49.439537 -6.560225 97.347244 45.595573 -6.560225 75.366966 36.491047 -3.622947 75.366966 36.491047 -4.048453 75.748123 36.648926 -3.197442 87.666237 47.925446 0.000000 84.496300 48.555988 0.000000 90.353584 46.129822 0.000000 84.496300 50.154057 -4.048453 84.496300 50.961617 -4.048453 74.620880 36.182007 -4.048453 88.586830 50.147957 -4.048453 88.277794 49.401871 -4.048453 92.054619 47.830856 -4.048453 91.483589 47.259827 -4.048453 84.496300 49.603977 -3.197442 84.496300 49.741497 -3.197442 88.119911 49.020714 -3.197442 88.067284 48.893661 -3.197442 91.191864 46.968102 -3.197442 91.094620 46.870861 -3.197442 88.943008 51.007839 -4.707034 93.257576 49.033813 -5.557728 89.237869 51.719696 -5.557728 92.712746 48.488983 -4.707034 87.711899 48.035694 -0.965659 84.496300 49.032757 -1.866624 84.496300 48.675316 -0.965659 87.848686 48.365925 -1.866624 91.483589 47.259827 -3.622947 88.277794 49.401871 -3.622947 88.067284 48.893661 -2.641577 84.496300 49.603977 -2.641577 91.094620 46.870861 -2.641577 90.690704 46.466946 -1.866624 90.437958 46.214199 -0.965659 84.496300 52.662853 -5.557728 84.496300 51.892345 -4.707034 84.496300 50.154057 -3.622947 81.442200 32.937275 98.425194 81.693306 33.543495 111.548553 84.480568 32.332905 98.425194 84.480568 32.726608 106.299210 82.512062 33.380634 111.548553 86.449074 33.380634 111.548553 86.981567 34.234585 116.535431 86.449074 34.128666 116.535431 87.267830 33.543495 111.548553 82.512062 38.304035 106.299210 83.693161 39.485138 106.299210 86.449074 35.107224 117.894173 86.607086 35.138657 117.894173 86.449074 35.520149 118.001343 83.693161 39.485138 119.685036 83.693161 41.059940 118.110237 83.693161 39.485138 118.110237 83.693161 41.059940 119.685036 83.693161 40.272537 119.685036 85.267967 41.059940 119.685036 85.267967 40.272537 119.685036 85.267967 39.485138 118.110237 85.267967 41.059940 118.110237 85.267967 39.485138 119.685036 86.449074 34.458229 117.329826 86.449074 36.015030 118.110237 87.644485 47.910912 0.000000 86.842773 32.474693 0.000000 86.842773 48.070385 0.000000 90.326721 46.118698 0.000000 92.118942 43.436459 0.000000 92.748283 40.272537 0.000000 92.118942 37.108620 0.000000 90.326721 34.426380 0.000000 87.644485 32.634163 0.000000 82.512062 34.128666 116.535431 82.512062 34.458229 117.329826 82.512062 35.107224 117.894173 82.512062 35.520149 118.001343 82.512062 36.015030 118.110237 80.115784 38.464584 118.110237 79.756157 40.272537 118.110237 81.139908 36.931877 118.110237 82.672615 44.637325 118.110237 86.288521 44.637325 118.110237 84.480568 44.996948 118.110237 87.821228 43.613201 118.110237 81.139908 43.613201 118.110237 80.115784 42.080490 118.110237 88.845352 42.080490 118.110237 89.204979 40.272537 118.110237 88.845352 38.464584 118.110237 87.821228 36.931877 118.110237 81.979561 34.234585 116.535431 89.614449 38.146015 117.894173 88.409866 36.343235 117.894173 82.105682 34.539062 117.329826 78.747093 37.897655 117.329826 80.551262 36.343235 117.894173 79.346687 38.146015 117.894173 80.092354 35.884327 117.329826 79.859314 35.651291 116.535431 77.751526 37.485279 111.548553 79.330376 35.122353 111.548553 78.442612 37.771538 116.535431 84.480568 32.004822 78.740158 84.480568 32.122932 85.826775 87.644485 32.634163 78.740158 87.518929 32.937275 98.425194 86.252220 32.652500 96.456696 84.480568 32.300098 96.456696 91.764030 40.272537 111.548553 91.815834 37.234173 98.425194 92.420197 40.272537 98.425194 91.209610 37.485279 111.548553 88.868774 35.884327 117.329826 86.855446 34.539062 117.329826 89.101814 35.651291 116.535431 82.354042 35.138657 117.894173 90.037437 40.272537 117.894173 90.686432 40.272537 117.329826 90.214043 37.897655 117.329826 90.094734 34.658371 98.425194 89.630753 35.122353 111.548553 92.748283 40.272537 78.740158 92.118942 37.108620 78.740158 90.518517 37.771538 116.535431 82.708916 32.652500 96.456696 90.326721 34.426380 78.740158 91.015999 40.272537 116.535431 81.316650 32.634163 78.740158 78.866402 34.658371 98.425194 76.842194 37.108620 78.740158 78.634407 34.426380 78.740158 77.145302 37.234173 98.425194 81.316650 32.634163 0.000000 78.634407 34.426380 0.000000 82.118362 32.474693 0.000000 81.316650 47.910912 0.000000 82.118362 48.070385 0.000000 78.634407 46.118698 0.000000 76.842194 43.436459 0.000000 76.842194 37.108620 0.000000 89.614449 42.399063 117.894173 76.212852 40.272537 78.740158 76.540932 40.272537 98.425194 77.197105 40.272537 111.548553 77.945137 40.272537 116.535431 90.094734 45.886707 98.425194 92.118942 43.436459 78.740158 90.326721 46.118698 78.740158 91.815834 43.310905 98.425194 78.274696 40.272537 117.329826 88.409866 44.201839 117.894173 86.607086 45.406422 117.894173 78.923691 40.272537 117.894173 90.214043 42.647423 117.329826 88.868774 44.660751 117.329826 89.630753 45.422726 111.548553 91.209610 43.059799 111.548553 76.842194 43.436459 78.740158 77.145302 43.310905 98.425194 77.751526 43.059799 111.548553 78.442612 42.773540 116.535431 89.101814 44.893787 116.535431 87.267830 47.001583 111.548553 86.981567 46.310490 116.535431 78.747093 42.647423 117.329826 79.346687 42.399063 117.894173 86.855446 46.006012 117.329826 84.480568 46.807972 116.535431 84.480568 46.478409 117.329826 78.634407 46.118698 78.740158 78.866402 45.886707 98.425194 90.518517 42.773540 116.535431 87.644485 47.910912 78.740158 87.518929 47.607803 98.425194 84.480568 45.829411 117.894173 80.551262 44.201839 117.894173 81.316650 47.910912 78.740158 81.442200 47.607803 98.425194 79.330376 45.422726 111.548553 81.693306 47.001583 111.548553 79.859314 44.893787 116.535431 81.979561 46.310490 116.535431 80.092354 44.660751 117.329826 82.105682 46.006012 117.329826 82.354042 45.406422 117.894173 84.480568 48.540257 78.740158 84.480568 48.212170 98.425194 84.480568 47.556004 111.548553 82.118362 48.070385 7.086614 84.480568 48.540257 7.086614 86.842773 32.474693 7.086614 86.842773 48.070385 7.086614 82.118362 32.474693 7.086614 84.480568 32.004822 7.086614 82.118362 54.091621 6.228744 86.842773 54.391029 5.929335 82.118362 54.391029 5.929335 86.842773 54.091621 6.228744 86.842773 -51.671593 0.000000 82.118362 -51.671593 7.086614 82.118362 -51.671593 0.000000 86.842773 -51.671593 7.086614 86.842773 54.461498 5.511811 86.842773 54.461498 0.000000 86.842773 53.674099 6.299212 86.842773 53.603630 6.716736 86.842773 53.304218 7.016146 86.842773 52.886696 7.086614 82.118362 53.674099 6.299212 82.118362 53.603630 6.716736 82.118362 53.304218 7.016146 82.118362 54.461498 5.511811 82.118362 54.461498 0.000000 82.118362 52.886696 7.086614 "
							            />
						</IndexedFaceSet>
					</Shape>
				</Group>
			</Transform>
		</Transform>
	</Scene>
</X3D>