<?xml version="1.0" encoding="UTF-8"?>
<!DOCTYPE X3D PUBLIC "ISO//Web3D//DTD X3D 3.0//EN" "http://www.web3d.org/specifications/x3d-3.0.dtd">
<X3D version="3.0" profile="Immersive" xmlns:xsd="http://www.w3.org/2001/XMLSchema-instance" xsd:noNamespaceSchemaLocation="http://www.web3d.org/specifications/x3d-3.0.xsd">
	<head>
		<meta name="filename" content="20-2.x3d" />
		<meta name="created" content="2026-06-21 15:09:40" />
		<meta name="generator" content="Blender 4.5.4 LTS" />
		<meta name="translator" content="Web3D X3D/VRML2 format v2.5.1" />
	</head>
	<Scene>
		<NavigationInfo headlight="true"
		                visibilityLimit="0.0"
		                type='"EXAMINE", "ANY"'
		                avatarSize="0.25, 1.75, 0.75"
		                />
		<Background DEF="WO_World"
		            groundColor="0.051 0.051 0.051"
		            skyColor="0.051 0.051 0.051"
		            />
		<Transform DEF="_20-2_TRANSFORM"
		           translation="0.000000 0.000000 0.000000"
		           scale="1.000000 1.000000 1.000000"
		           rotation="0.000000 0.707107 0.707107 3.141593"
		           >
			<Transform DEF="_20-2_ifs_TRANSFORM"
			           translation="0.000000 0.000000 0.000000"
			           scale="1.000000 1.000000 1.000000"
			           rotation="0.000000 1.000000 0.000000 0.000000"
			           >
				<Group DEF="group_ME_20-2_001">
					<Shape>
						<Appearance>
						</Appearance>
						<IndexedFaceSet solid="false"
						                coordIndex="0 1 2 -1 1 0 3 -1 4 5 6 -1 5 4 7 -1 8 9 10 -1 9 8 11 -1 12 10 13 -1 10 12 14 -1 10 14 8 -1 14 12 15 -1 15 12 7 -1 15 7 4 -1 15 4 16 -1 9 16 17 -1 16 9 11 -1 16 11 15 -1 18 0 2 -1 0 18 19 -1 19 18 13 -1 19 13 10 -1 17 20 21 -1 20 17 16 -1 20 4 6 -1 4 20 16 -1 12 5 7 -1 5 12 22 -1 5 22 23 -1 23 22 24 -1 17 25 9 -1 25 26 27 -1 26 25 21 -1 21 25 17 -1 28 27 26 -1 27 28 11 -1 27 11 29 -1 29 11 8 -1 30 1 3 -1 1 30 31 -1 31 30 32 -1 31 32 33 -1 25 33 32 -1 33 25 29 -1 29 25 27 -1 33 34 22 -1 34 33 29 -1 22 34 24 -1 20 26 21 -1 26 20 28 -1 28 20 35 -1 35 5 23 -1 5 35 6 -1 6 35 20 -1 12 33 22 -1 33 12 13 -1 10 25 32 -1 25 10 9 -1 33 18 31 -1 18 33 13 -1 30 10 32 -1 10 30 19 -1 18 1 31 -1 1 18 2 -1 0 30 3 -1 30 0 19 -1 11 35 15 -1 35 11 28 -1 14 24 34 -1 24 35 23 -1 35 24 15 -1 15 24 14 -1 29 14 34 -1 14 29 8 -1 36 37 38 -1 37 36 39 -1 40 37 41 -1 37 40 38 -1 38 42 43 -1 42 38 40 -1 42 40 44 -1 44 40 45 -1 46 47 48 -1 47 46 49 -1 36 47 49 -1 47 36 50 -1 50 36 38 -1 50 38 43 -1 36 51 39 -1 51 36 49 -1 51 52 53 -1 52 51 54 -1 54 51 46 -1 46 51 49 -1 52 55 53 -1 55 52 56 -1 57 58 59 -1 58 57 60 -1 61 62 63 -1 62 61 64 -1 64 61 65 -1 64 65 66 -1 67 66 65 -1 66 67 60 -1 66 60 56 -1 60 67 58 -1 56 54 66 -1 54 56 52 -1 55 60 57 -1 60 55 56 -1 47 66 48 -1 66 47 64 -1 47 62 64 -1 62 47 50 -1 46 66 54 -1 66 46 48 -1 59 40 41 -1 40 59 67 -1 67 59 58 -1 45 40 67 -1 44 61 42 -1 61 44 65 -1 43 61 63 -1 61 43 42 -1 44 67 65 -1 67 44 45 -1 62 43 63 -1 43 62 50 -1 51 37 39 -1 37 51 55 -1 55 51 53 -1 37 57 41 -1 57 37 55 -1 41 57 59 -1 68 69 70 -1 69 68 71 -1 69 71 72 -1 69 72 73 -1 73 72 74 -1 73 74 75 -1 75 74 76 -1 75 76 77 -1 77 76 78 -1 79 70 80 -1 70 79 68 -1 81 79 80 -1 79 81 82 -1 83 81 84 -1 81 83 82 -1 85 86 87 -1 86 85 88 -1 86 88 89 -1 86 89 90 -1 91 89 88 -1 89 91 92 -1 93 92 91 -1 92 93 94 -1 95 94 93 -1 94 95 96 -1 69 80 70 -1 80 69 81 -1 81 69 97 -1 81 97 84 -1 84 97 98 -1 98 97 99 -1 99 87 98 -1 87 99 100 -1 101 92 96 -1 92 101 102 -1 92 102 89 -1 89 102 90 -1 90 102 103 -1 94 96 92 -1 86 98 87 -1 98 86 84 -1 84 86 83 -1 83 86 104 -1 86 105 104 -1 105 86 106 -1 79 82 68 -1 71 82 107 -1 82 71 68 -1 107 82 83 -1 107 83 104 -1 107 104 105 -1 93 108 95 -1 108 93 91 -1 108 91 109 -1 109 91 88 -1 109 88 85 -1 109 85 110 -1 111 112 113 -1 112 111 114 -1 115 116 117 -1 116 115 118 -1 117 114 111 -1 114 117 116 -1 115 101 118 -1 101 115 102 -1 114 119 112 -1 119 114 116 -1 119 116 120 -1 120 116 118 -1 120 118 121 -1 121 118 101 -1 121 101 108 -1 108 101 96 -1 108 96 95 -1 75 122 123 -1 122 75 77 -1 73 123 124 -1 123 73 75 -1 73 97 69 -1 97 73 124 -1 103 86 90 -1 86 103 106 -1 71 125 72 -1 125 71 107 -1 74 125 126 -1 125 74 72 -1 76 126 127 -1 126 76 74 -1 78 127 128 -1 127 78 76 -1 77 128 122 -1 128 77 78 -1 129 111 113 -1 111 129 117 -1 117 129 130 -1 117 130 115 -1 115 130 131 -1 115 131 102 -1 102 131 109 -1 102 109 103 -1 103 109 110 -1 103 110 106 -1 106 110 100 -1 106 100 105 -1 105 100 99 -1 105 99 107 -1 107 99 97 -1 107 97 125 -1 125 97 124 -1 125 124 126 -1 126 124 123 -1 126 123 127 -1 127 123 122 -1 127 122 128 -1 87 110 85 -1 110 87 100 -1 109 121 108 -1 121 109 131 -1 130 121 131 -1 121 130 120 -1 129 120 130 -1 120 129 119 -1 113 119 129 -1 119 113 112 -1 132 133 134 -1 133 132 135 -1 136 137 138 -1 137 136 139 -1 137 139 133 -1 137 133 135 -1 137 135 140 -1 137 140 141 -1 142 132 134 -1 132 142 143 -1 144 143 142 -1 143 144 145 -1 145 144 146 -1 146 144 147 -1 146 147 148 -1 148 147 149 -1 148 149 150 -1 150 149 151 -1 150 151 152 -1 137 153 138 -1 153 137 154 -1 154 137 155 -1 155 137 156 -1 156 137 157 -1 157 137 158 -1 156 159 155 -1 159 156 160 -1 160 161 159 -1 161 160 162 -1 163 164 165 -1 164 163 166 -1 166 163 167 -1 166 167 168 -1 168 167 169 -1 168 169 170 -1 170 169 171 -1 170 171 162 -1 162 171 161 -1 172 151 149 -1 151 172 173 -1 174 149 147 -1 149 174 172 -1 174 144 175 -1 144 174 147 -1 158 176 177 -1 176 158 137 -1 178 146 179 -1 146 178 145 -1 180 146 148 -1 146 180 179 -1 181 148 150 -1 148 181 180 -1 182 150 152 -1 150 182 181 -1 173 152 151 -1 152 173 182 -1 138 183 184 -1 183 138 153 -1 171 185 186 -1 185 171 169 -1 167 185 169 -1 185 167 187 -1 163 187 167 -1 187 163 188 -1 165 188 163 -1 188 165 189 -1 190 188 189 -1 188 190 191 -1 188 191 187 -1 187 191 192 -1 187 192 185 -1 185 192 193 -1 185 193 186 -1 186 193 177 -1 186 177 183 -1 183 177 176 -1 183 176 184 -1 184 176 194 -1 184 194 195 -1 195 194 178 -1 195 178 175 -1 175 178 179 -1 175 179 174 -1 174 179 180 -1 174 180 172 -1 172 180 181 -1 172 181 173 -1 173 181 182 -1 144 142 175 -1 175 136 195 -1 136 175 142 -1 136 142 134 -1 136 134 139 -1 139 134 133 -1 195 138 184 -1 138 195 136 -1 157 160 156 -1 170 177 193 -1 177 170 162 -1 177 162 158 -1 158 162 160 -1 158 160 157 -1 176 141 194 -1 141 176 137 -1 194 145 178 -1 145 194 143 -1 143 194 141 -1 143 141 132 -1 132 141 140 -1 140 135 132 -1 153 186 183 -1 186 153 161 -1 161 153 159 -1 159 153 155 -1 155 153 154 -1 171 186 161 -1 164 189 165 -1 189 164 190 -1 166 190 164 -1 190 166 191 -1 168 193 192 -1 193 168 170 -1 168 191 166 -1 191 168 192 -1 196 197 198 -1 197 196 199 -1 199 196 200 -1 201 196 198 -1 196 201 202 -1 202 201 203 -1 204 196 202 -1 205 206 197 -1 207 197 199 -1 197 207 205 -1 208 209 210 -1 209 208 201 -1 201 208 206 -1 209 198 211 -1 198 209 201 -1 211 198 197 -1 211 197 206 -1 211 206 208 -1 212 202 213 -1 202 212 204 -1 207 214 205 -1 214 207 215 -1 206 205 216 -1 202 217 213 -1 217 202 203 -1 217 203 218 -1 218 203 216 -1 218 216 205 -1 218 205 214 -1 219 212 220 -1 212 219 196 -1 196 219 200 -1 200 219 199 -1 199 219 207 -1 207 219 215 -1 204 212 196 -1 216 201 206 -1 201 216 203 -1 221 222 223 -1 222 221 224 -1 222 208 210 -1 208 222 224 -1 219 209 211 -1 209 219 220 -1 222 217 223 -1 212 209 220 -1 209 212 213 -1 209 213 210 -1 210 213 217 -1 210 217 222 -1 221 217 218 -1 217 221 223 -1 208 214 211 -1 214 208 218 -1 218 208 221 -1 221 208 224 -1 211 215 219 -1 215 211 214 -1 225 226 227 -1 226 225 228 -1 228 225 229 -1 229 225 230 -1 230 225 231 -1 232 226 228 -1 233 234 235 -1 234 233 236 -1 236 237 234 -1 237 236 238 -1 237 238 239 -1 237 239 240 -1 241 238 242 -1 238 241 239 -1 239 241 230 -1 230 241 229 -1 243 244 245 -1 244 243 246 -1 246 243 242 -1 242 243 241 -1 244 247 248 -1 247 244 246 -1 248 247 241 -1 248 241 243 -1 244 225 227 -1 225 244 248 -1 241 228 229 -1 228 241 247 -1 249 250 251 -1 250 249 252 -1 244 250 245 -1 250 244 234 -1 234 244 235 -1 235 244 226 -1 226 244 227 -1 251 250 234 -1 232 235 226 -1 235 232 233 -1 236 247 246 -1 247 236 233 -1 247 233 232 -1 247 232 228 -1 246 238 236 -1 238 246 242 -1 240 230 231 -1 230 240 239 -1 234 249 251 -1 249 234 237 -1 225 240 231 -1 249 243 252 -1 243 249 237 -1 243 237 248 -1 248 237 240 -1 248 240 225 -1 243 250 252 -1 250 243 245 -1 253 254 255 -1 254 253 256 -1 257 253 255 -1 253 257 258 -1 258 257 259 -1 260 253 258 -1 253 260 256 -1 256 260 261 -1 256 261 262 -1 256 262 263 -1 256 263 264 -1 256 264 265 -1 254 257 255 -1 257 254 266 -1 266 254 267 -1 267 254 268 -1 268 254 269 -1 269 254 270 -1 270 254 271 -1 272 273 274 -1 273 272 275 -1 276 257 277 -1 257 276 278 -1 257 278 259 -1 266 277 257 -1 266 279 277 -1 279 266 267 -1 267 275 279 -1 275 267 268 -1 275 269 273 -1 269 275 268 -1 269 270 273 -1 280 281 282 -1 281 280 283 -1 282 284 285 -1 284 282 281 -1 283 286 281 -1 286 283 287 -1 288 289 290 -1 289 288 291 -1 260 292 261 -1 292 260 290 -1 293 294 295 -1 294 293 296 -1 297 298 299 -1 298 297 300 -1 301 302 303 -1 302 301 304 -1 305 306 307 -1 306 305 295 -1 272 295 305 -1 295 272 293 -1 308 309 310 -1 309 308 311 -1 292 287 312 -1 287 292 313 -1 314 315 316 -1 315 314 274 -1 306 317 318 -1 317 306 319 -1 320 321 322 -1 321 320 286 -1 292 262 261 -1 262 292 312 -1 295 319 306 -1 319 295 294 -1 290 313 292 -1 313 290 289 -1 263 312 323 -1 312 263 262 -1 310 300 297 -1 300 310 309 -1 265 283 280 -1 283 265 323 -1 323 265 264 -1 296 314 301 -1 314 296 293 -1 278 258 259 -1 258 278 288 -1 258 288 290 -1 290 260 258 -1 322 324 325 -1 324 322 321 -1 307 318 326 -1 318 307 306 -1 281 320 284 -1 320 281 286 -1 263 323 264 -1 296 310 294 -1 310 296 308 -1 294 297 319 -1 297 294 310 -1 274 271 315 -1 271 274 273 -1 271 273 270 -1 321 289 324 -1 289 321 313 -1 319 299 317 -1 299 319 297 -1 293 274 314 -1 274 293 272 -1 323 287 283 -1 287 323 312 -1 296 303 308 -1 303 296 301 -1 324 291 327 -1 291 324 289 -1 286 313 321 -1 313 286 287 -1 314 304 301 -1 304 314 316 -1 325 327 328 -1 327 325 324 -1 276 307 326 -1 307 276 277 -1 308 329 311 -1 329 308 303 -1 303 330 329 -1 330 303 302 -1 331 332 333 -1 332 331 334 -1 335 336 337 -1 336 335 338 -1 277 305 307 -1 305 277 279 -1 339 340 341 -1 340 339 342 -1 334 338 332 -1 338 334 343 -1 344 331 333 -1 331 344 345 -1 346 347 345 -1 347 346 348 -1 349 344 350 -1 344 349 351 -1 352 322 353 -1 322 352 320 -1 316 254 304 -1 254 316 271 -1 271 316 315 -1 354 351 349 -1 351 354 346 -1 346 354 330 -1 346 330 302 -1 346 302 348 -1 348 302 285 -1 285 302 304 -1 285 304 256 -1 285 256 282 -1 256 304 254 -1 282 256 265 -1 282 265 280 -1 333 340 342 -1 340 333 332 -1 341 335 355 -1 335 341 340 -1 347 320 352 -1 320 347 284 -1 300 356 298 -1 356 300 355 -1 351 345 344 -1 345 351 346 -1 311 341 309 -1 341 311 339 -1 332 335 340 -1 335 332 338 -1 331 353 334 -1 353 331 352 -1 343 357 358 -1 357 343 359 -1 348 284 347 -1 284 348 285 -1 311 360 339 -1 360 311 329 -1 350 333 342 -1 333 350 344 -1 279 272 305 -1 272 279 275 -1 334 359 343 -1 359 334 353 -1 339 350 342 -1 350 339 360 -1 355 337 356 -1 337 355 335 -1 353 325 359 -1 325 353 322 -1 343 336 338 -1 336 343 358 -1 345 352 331 -1 352 345 347 -1 329 354 360 -1 354 329 330 -1 360 349 350 -1 349 360 354 -1 359 328 357 -1 328 359 325 -1 309 355 300 -1 355 309 341 -1 361 362 363 -1 362 361 364 -1 364 361 365 -1 364 365 366 -1 366 365 367 -1 366 367 368 -1 369 370 371 -1 369 371 372 -1 373 374 375 -1 375 374 376 -1 373 368 374 -1 368 373 366 -1 364 373 377 -1 373 364 366 -1 369 365 370 -1 365 369 367 -1 378 379 380 -1 381 382 377 -1 381 383 382 -1 384 379 378 -1 364 382 362 -1 382 364 377 -1 363 380 361 -1 380 363 378 -1 385 386 387 -1 386 385 388 -1 389 385 390 -1 385 389 388 -1 391 390 392 -1 390 391 389 -1 384 392 379 -1 392 384 391 -1 391 384 383 -1 391 383 381 -1 393 371 394 -1 371 393 372 -1 372 393 376 -1 376 393 375 -1 395 394 396 -1 394 395 393 -1 397 396 398 -1 396 397 395 -1 399 398 400 -1 398 399 397 -1 386 401 402 -1 401 386 399 -1 399 386 388 -1 399 388 397 -1 397 388 389 -1 397 389 395 -1 395 389 391 -1 395 391 393 -1 393 391 381 -1 393 381 375 -1 375 381 377 -1 375 377 373 -1 401 400 403 -1 400 401 399 -1 386 404 387 -1 404 386 402 -1 362 378 363 -1 378 362 384 -1 384 362 383 -1 383 362 382 -1 401 404 402 -1 404 401 403 -1 400 404 403 -1 404 400 387 -1 387 400 398 -1 387 398 385 -1 385 398 396 -1 385 396 390 -1 390 396 394 -1 390 394 392 -1 392 394 371 -1 392 371 379 -1 379 371 370 -1 379 370 380 -1 380 370 365 -1 380 365 361 -1 376 369 372 -1 369 376 367 -1 367 376 368 -1 368 376 374 -1 405 406 407 -1 406 405 408 -1 405 409 408 -1 409 405 410 -1 409 411 412 -1 411 409 410 -1 411 406 412 -1 406 411 407 -1 409 406 408 -1 406 409 412 -1 411 405 407 -1 405 411 410 -1 413 414 415 -1 414 413 416 -1 416 413 417 -1 418 419 420 -1 419 418 421 -1 422 423 424 -1 423 422 425 -1 425 422 426 -1 425 426 427 -1 425 427 428 -1 428 427 429 -1 429 427 415 -1 429 415 430 -1 429 430 431 -1 430 415 414 -1 430 414 420 -1 430 420 419 -1 431 430 432 -1 431 432 433 -1 434 414 435 -1 414 434 420 -1 419 436 437 -1 436 419 421 -1 436 418 438 -1 418 436 421 -1 418 434 438 -1 434 418 420 -1 439 440 441 -1 440 439 442 -1 443 444 445 -1 444 443 446 -1 444 446 447 -1 448 445 444 -1 448 449 445 -1 449 448 450 -1 450 442 449 -1 442 450 451 -1 442 452 440 -1 452 442 451 -1 452 453 440 -1 433 454 431 -1 454 433 455 -1 431 456 429 -1 456 431 454 -1 455 457 454 -1 457 455 458 -1 459 460 461 -1 460 459 462 -1 461 463 464 -1 463 461 465 -1 466 467 468 -1 467 466 469 -1 470 471 472 -1 471 470 473 -1 474 427 475 -1 427 474 415 -1 476 477 478 -1 477 476 468 -1 439 468 476 -1 468 439 466 -1 479 480 481 -1 480 479 482 -1 465 458 483 -1 458 465 484 -1 485 417 413 -1 417 485 441 -1 477 486 487 -1 486 477 488 -1 489 490 491 -1 490 489 457 -1 465 492 463 -1 492 465 483 -1 468 488 477 -1 488 468 467 -1 461 484 465 -1 484 461 460 -1 493 483 494 -1 483 493 492 -1 481 473 470 -1 473 481 480 -1 432 455 433 -1 455 432 494 -1 494 432 495 -1 469 485 474 -1 485 469 466 -1 459 447 446 -1 447 459 496 -1 496 459 461 -1 461 464 496 -1 491 497 498 -1 497 491 490 -1 478 487 499 -1 487 478 477 -1 454 489 456 -1 489 454 457 -1 493 494 495 -1 469 481 467 -1 481 469 479 -1 467 470 488 -1 470 467 481 -1 441 416 417 -1 416 441 440 -1 416 440 453 -1 490 460 497 -1 460 490 484 -1 488 472 486 -1 472 488 470 -1 466 441 485 -1 441 466 439 -1 494 458 455 -1 458 494 483 -1 469 475 479 -1 475 469 474 -1 497 462 500 -1 462 497 460 -1 457 484 490 -1 484 457 458 -1 485 415 474 -1 415 485 413 -1 498 500 501 -1 500 498 497 -1 443 478 499 -1 478 443 445 -1 479 502 482 -1 502 479 475 -1 475 426 502 -1 426 475 427 -1 503 504 505 -1 504 503 506 -1 507 508 509 -1 508 507 510 -1 445 476 478 -1 476 445 449 -1 511 512 513 -1 512 511 514 -1 506 510 504 -1 510 506 515 -1 516 503 505 -1 503 516 517 -1 425 518 517 -1 518 425 428 -1 424 516 519 -1 516 424 423 -1 520 491 521 -1 491 520 489 -1 505 512 514 -1 512 505 504 -1 513 507 522 -1 507 513 512 -1 518 489 520 -1 489 518 456 -1 473 523 471 -1 523 473 522 -1 423 517 516 -1 517 423 425 -1 482 513 480 -1 513 482 511 -1 504 507 512 -1 507 504 510 -1 503 521 506 -1 521 503 520 -1 515 524 525 -1 524 515 526 -1 428 456 518 -1 456 428 429 -1 482 527 511 -1 527 482 502 -1 519 505 514 -1 505 519 516 -1 449 439 476 -1 439 449 442 -1 506 526 515 -1 526 506 521 -1 511 519 514 -1 519 511 527 -1 522 509 523 -1 509 522 507 -1 521 498 526 -1 498 521 491 -1 515 508 510 -1 508 515 525 -1 517 520 503 -1 520 517 518 -1 502 422 527 -1 422 502 426 -1 527 424 519 -1 424 527 422 -1 526 501 524 -1 501 526 498 -1 480 522 473 -1 522 480 513 -1 464 528 496 -1 528 464 430 -1 430 464 463 -1 430 463 492 -1 430 492 493 -1 430 493 495 -1 430 495 432 -1 528 419 437 -1 419 528 430 -1 414 444 435 -1 444 414 448 -1 448 414 450 -1 450 414 451 -1 451 414 452 -1 452 414 453 -1 453 414 416 -1 444 434 435 -1 434 444 438 -1 438 444 436 -1 436 528 437 -1 528 436 496 -1 496 436 444 -1 496 444 447 -1 529 530 531 -1 530 529 532 -1 529 533 532 -1 533 529 534 -1 533 535 536 -1 535 533 534 -1 535 530 536 -1 530 535 531 -1 533 530 532 -1 530 533 536 -1 535 529 531 -1 529 535 534 -1 537 538 539 -1 538 537 540 -1 541 542 543 -1 542 541 544 -1 541 545 546 -1 545 541 543 -1 537 545 540 -1 545 537 546 -1 547 537 539 -1 537 547 546 -1 546 547 541 -1 541 548 544 -1 548 541 549 -1 549 541 547 -1 549 547 550 -1 549 550 551 -1 551 550 552 -1 551 552 553 -1 553 552 554 -1 553 554 555 -1 555 554 556 -1 555 556 557 -1 557 556 558 -1 557 558 559 -1 560 561 562 -1 561 560 563 -1 563 560 564 -1 563 564 565 -1 565 564 566 -1 565 566 567 -1 568 569 570 -1 568 570 571 -1 559 572 557 -1 557 572 573 -1 559 567 572 -1 567 559 565 -1 563 559 558 -1 559 563 565 -1 568 564 569 -1 564 568 566 -1 574 575 576 -1 556 577 558 -1 556 578 577 -1 579 575 574 -1 563 577 561 -1 577 563 558 -1 562 576 560 -1 576 562 574 -1 580 547 581 -1 547 580 550 -1 552 580 582 -1 580 552 550 -1 554 582 583 -1 582 554 552 -1 579 583 575 -1 583 579 554 -1 554 579 578 -1 554 578 556 -1 555 570 584 -1 570 555 571 -1 571 555 573 -1 573 555 557 -1 553 584 585 -1 584 553 555 -1 551 585 586 -1 585 551 553 -1 549 586 587 -1 586 549 551 -1 548 587 588 -1 587 548 549 -1 547 538 581 -1 538 547 539 -1 561 574 562 -1 574 561 579 -1 579 561 578 -1 578 561 577 -1 548 542 544 -1 542 548 588 -1 587 542 588 -1 542 587 543 -1 543 587 545 -1 545 538 540 -1 538 545 581 -1 581 545 587 -1 581 587 586 -1 581 586 580 -1 580 586 585 -1 580 585 582 -1 582 585 584 -1 582 584 583 -1 583 584 570 -1 583 570 575 -1 575 570 569 -1 575 569 576 -1 576 569 564 -1 576 564 560 -1 573 568 571 -1 568 573 566 -1 566 573 567 -1 567 573 572 -1 589 590 591 -1 592 589 591 -1 589 592 593 -1 590 594 595 -1 594 590 589 -1 596 597 598 -1 599 600 601 -1 600 599 602 -1 600 603 604 -1 603 600 602 -1 605 606 607 -1 606 605 608 -1 609 610 611 -1 610 609 612 -1 613 614 615 -1 614 613 616 -1 617 615 618 -1 615 617 613 -1 619 620 621 -1 620 619 622 -1 623 624 625 -1 626 609 611 -1 609 626 627 -1 608 628 606 -1 628 608 617 -1 598 629 616 -1 629 598 597 -1 625 593 592 -1 593 625 624 -1 630 631 632 -1 604 627 626 -1 627 604 603 -1 622 601 620 -1 601 622 599 -1 605 633 634 -1 633 605 607 -1 617 618 628 -1 633 635 634 -1 636 610 612 -1 636 637 610 -1 637 636 638 -1 631 639 640 -1 639 631 598 -1 598 631 630 -1 598 630 596 -1 623 631 624 -1 631 623 632 -1 634 619 621 -1 619 634 635 -1 625 632 623 -1 632 625 592 -1 632 592 591 -1 632 591 590 -1 632 590 595 -1 632 595 638 -1 632 638 636 -1 632 636 630 -1 630 636 612 -1 630 612 609 -1 630 609 596 -1 596 609 627 -1 596 627 603 -1 596 603 602 -1 596 602 599 -1 596 599 622 -1 596 622 619 -1 596 619 635 -1 596 635 597 -1 597 635 633 -1 597 633 607 -1 597 607 629 -1 629 607 606 -1 629 606 628 -1 629 628 618 -1 629 618 615 -1 629 615 614 -1 629 614 616 -1 641 642 610 -1 643 644 642 -1 645 646 637 -1 647 643 641 -1 648 649 650 -1 647 641 646 -1 651 644 652 -1 637 641 610 -1 644 651 653 -1 645 637 594 -1 654 589 593 -1 642 655 611 -1 631 640 624 -1 634 621 656 -1 595 637 638 -1 637 595 594 -1 640 654 593 -1 654 657 589 -1 648 634 656 -1 657 594 589 -1 649 656 658 -1 656 659 660 -1 661 605 648 -1 662 608 605 -1 644 653 642 -1 642 653 655 -1 648 656 649 -1 652 644 643 -1 640 593 624 -1 646 641 637 -1 610 642 611 -1 658 656 660 -1 605 634 648 -1 657 645 594 -1 656 621 659 -1 663 613 617 -1 648 650 661 -1 641 643 642 -1 662 605 661 -1 664 604 665 -1 604 664 600 -1 598 616 639 -1 658 666 667 -1 652 643 647 -1 639 613 663 -1 664 668 669 -1 670 671 668 -1 654 672 657 -1 672 654 663 -1 663 654 640 -1 663 640 639 -1 665 670 668 -1 668 655 653 -1 655 668 671 -1 670 626 671 -1 626 670 665 -1 626 665 604 -1 659 669 660 -1 669 659 673 -1 601 664 674 -1 664 601 600 -1 620 675 673 -1 675 620 674 -1 674 620 601 -1 664 665 668 -1 675 669 673 -1 661 647 646 -1 647 661 652 -1 652 661 667 -1 667 661 650 -1 671 611 655 -1 611 671 626 -1 660 668 653 -1 668 660 669 -1 658 660 666 -1 649 667 650 -1 667 651 652 -1 651 667 666 -1 664 669 674 -1 663 617 672 -1 639 616 613 -1 649 658 667 -1 674 669 675 -1 672 608 662 -1 645 661 646 -1 661 645 662 -1 662 645 657 -1 662 657 672 -1 621 673 659 -1 673 621 620 -1 672 617 608 -1 676 677 678 -1 677 676 679 -1 651 680 681 -1 680 682 683 -1 682 680 666 -1 666 680 651 -1 680 676 684 -1 676 680 685 -1 685 680 686 -1 686 680 683 -1 687 678 683 -1 678 687 684 -1 678 684 676 -1 683 678 686 -1 688 686 689 -1 686 688 685 -1 683 690 687 -1 690 683 682 -1 690 684 687 -1 684 690 660 -1 684 660 691 -1 691 660 653 -1 681 684 691 -1 684 681 680 -1 653 666 651 -1 666 653 660 -1 685 679 676 -1 679 685 688 -1 651 691 653 -1 691 651 681 -1 690 677 660 -1 677 690 682 -1 677 682 689 -1 689 682 688 -1 660 679 666 -1 679 660 677 -1 666 679 688 -1 666 688 682 -1 677 686 678 -1 686 677 689 -1 692 693 694 -1 693 692 695 -1 696 693 697 -1 693 696 694 -1 692 698 695 -1 698 692 699 -1 698 693 695 -1 693 698 697 -1 698 696 697 -1 696 698 699 -1 696 692 694 -1 692 696 699 -1 700 701 702 -1 701 700 703 -1 704 705 706 -1 705 704 707 -1 708 709 710 -1 711 712 713 -1 712 711 714 -1 715 716 717 -1 716 715 718 -1 707 719 705 -1 719 707 720 -1 721 722 723 -1 722 724 725 -1 724 722 721 -1 718 726 716 -1 726 718 727 -1 728 721 723 -1 721 728 729 -1 730 731 732 -1 731 730 733 -1 734 735 736 -1 734 733 730 -1 733 734 737 -1 738 739 704 -1 739 738 740 -1 740 738 741 -1 734 736 742 -1 743 715 703 -1 744 718 745 -1 704 742 707 -1 742 704 739 -1 744 746 747 -1 746 744 745 -1 746 745 748 -1 748 745 743 -1 710 727 744 -1 749 740 741 -1 743 750 748 -1 750 743 751 -1 750 751 752 -1 752 751 753 -1 754 755 756 -1 755 754 757 -1 758 759 760 -1 761 734 749 -1 734 761 737 -1 713 741 738 -1 741 713 762 -1 751 700 753 -1 754 756 763 -1 734 742 749 -1 734 730 735 -1 742 720 707 -1 720 742 736 -1 744 727 718 -1 745 715 743 -1 749 742 739 -1 764 752 753 -1 752 764 756 -1 752 756 755 -1 752 755 765 -1 763 737 754 -1 743 703 751 -1 756 764 766 -1 756 766 763 -1 745 718 715 -1 764 753 767 -1 736 732 720 -1 732 736 735 -1 732 735 730 -1 762 749 741 -1 749 762 761 -1 759 765 755 -1 748 750 724 -1 763 768 737 -1 712 760 713 -1 752 758 769 -1 768 731 733 -1 700 770 767 -1 767 768 766 -1 759 755 771 -1 760 761 762 -1 771 761 760 -1 751 703 700 -1 753 700 767 -1 768 733 737 -1 766 768 763 -1 748 724 721 -1 767 770 768 -1 746 748 721 -1 747 746 729 -1 725 769 772 -1 769 725 724 -1 770 731 768 -1 773 747 774 -1 760 762 713 -1 746 721 729 -1 750 769 724 -1 771 757 761 -1 769 758 712 -1 771 755 757 -1 758 752 765 -1 749 739 740 -1 764 767 766 -1 758 765 759 -1 750 752 769 -1 759 771 760 -1 758 760 712 -1 775 726 727 -1 747 729 774 -1 775 716 726 -1 716 775 709 -1 716 709 717 -1 717 709 776 -1 776 709 701 -1 701 709 702 -1 702 709 777 -1 777 709 708 -1 777 708 778 -1 778 708 779 -1 779 708 780 -1 779 780 781 -1 781 780 719 -1 719 780 705 -1 705 780 706 -1 706 780 782 -1 782 780 711 -1 711 780 714 -1 714 780 783 -1 714 783 784 -1 784 783 772 -1 772 783 785 -1 772 785 725 -1 725 785 722 -1 722 785 723 -1 723 785 728 -1 728 785 786 -1 770 779 731 -1 779 770 778 -1 713 782 711 -1 782 713 738 -1 786 729 728 -1 729 786 774 -1 780 773 783 -1 738 706 782 -1 706 738 704 -1 715 717 776 -1 777 778 770 -1 785 773 774 -1 773 785 783 -1 784 769 712 -1 769 784 772 -1 710 775 727 -1 775 710 709 -1 708 773 780 -1 773 708 710 -1 773 710 747 -1 747 710 744 -1 700 777 770 -1 777 700 702 -1 784 712 714 -1 732 779 781 -1 779 732 731 -1 703 776 701 -1 776 703 715 -1 785 774 786 -1 720 781 719 -1 781 720 732 -1 787 788 789 -1 788 787 790 -1 791 792 793 -1 792 791 794 -1 757 795 761 -1 795 757 796 -1 754 796 757 -1 796 754 797 -1 797 754 793 -1 797 793 792 -1 737 757 761 -1 757 737 754 -1 795 737 761 -1 737 795 798 -1 737 798 791 -1 791 798 794 -1 791 787 737 -1 787 791 793 -1 787 793 799 -1 799 793 800 -1 737 789 754 -1 789 737 787 -1 754 789 800 -1 754 800 793 -1 795 797 798 -1 797 795 796 -1 798 788 794 -1 788 798 797 -1 788 797 801 -1 801 797 802 -1 794 790 792 -1 790 794 788 -1 792 790 802 -1 792 802 797 -1 789 801 800 -1 801 789 788 -1 802 800 801 -1 800 802 799 -1 802 787 799 -1 787 802 790 -1 803 804 805 -1 804 803 806 -1 807 808 809 -1 808 807 810 -1 808 810 811 -1 811 810 812 -1 809 813 814 -1 813 809 808 -1 814 813 812 -1 814 812 810 -1 815 809 816 -1 809 815 817 -1 809 817 818 -1 816 814 819 -1 814 816 809 -1 819 814 820 -1 819 821 816 -1 821 819 822 -1 823 810 824 -1 810 823 825 -1 810 825 814 -1 814 825 820 -1 822 806 821 -1 806 822 826 -1 806 827 804 -1 827 806 826 -1 804 828 829 -1 828 804 827 -1 817 830 818 -1 830 817 831 -1 830 831 825 -1 825 831 832 -1 825 819 820 -1 819 825 832 -1 807 833 834 -1 833 807 830 -1 830 807 809 -1 830 809 818 -1 835 823 824 -1 823 835 836 -1 833 837 834 -1 837 833 838 -1 838 833 823 -1 838 823 836 -1 839 813 840 -1 813 839 812 -1 841 842 843 -1 842 841 844 -1 844 841 845 -1 808 846 847 -1 846 808 811 -1 848 849 850 -1 849 848 851 -1 851 848 852 -1 853 808 847 -1 808 853 813 -1 813 853 840 -1 842 849 843 -1 849 842 850 -1 851 845 841 -1 845 851 852 -1 854 855 856 -1 855 854 857 -1 856 858 859 -1 858 856 855 -1 857 860 855 -1 860 857 861 -1 831 862 832 -1 862 831 863 -1 819 864 822 -1 864 819 832 -1 865 866 867 -1 866 865 868 -1 869 870 871 -1 870 869 872 -1 873 874 875 -1 874 873 876 -1 877 878 879 -1 878 877 867 -1 803 867 877 -1 867 803 865 -1 880 881 882 -1 881 880 883 -1 864 861 884 -1 861 864 885 -1 886 887 888 -1 887 886 805 -1 878 889 890 -1 889 878 840 -1 840 878 839 -1 839 891 892 -1 891 839 878 -1 853 889 840 -1 893 894 895 -1 894 893 860 -1 864 826 822 -1 826 864 884 -1 867 891 878 -1 891 867 866 -1 832 885 864 -1 885 832 862 -1 827 884 896 -1 884 827 826 -1 882 872 869 -1 872 882 881 -1 897 857 854 -1 857 897 896 -1 868 886 873 -1 886 868 865 -1 895 898 899 -1 898 895 894 -1 879 890 900 -1 890 879 878 -1 855 893 858 -1 893 855 860 -1 828 896 897 -1 896 828 827 -1 868 882 866 -1 882 868 880 -1 866 869 891 -1 869 866 882 -1 805 829 887 -1 829 805 804 -1 894 862 898 -1 862 894 885 -1 865 805 886 -1 805 865 803 -1 896 861 857 -1 861 896 884 -1 868 875 880 -1 875 868 873 -1 898 863 901 -1 863 898 862 -1 860 885 894 -1 885 860 861 -1 886 876 873 -1 876 886 888 -1 815 879 900 -1 879 815 816 -1 880 902 883 -1 902 880 875 -1 875 903 902 -1 903 875 874 -1 904 905 906 -1 905 904 907 -1 816 877 879 -1 877 816 821 -1 908 909 910 -1 909 908 911 -1 907 836 905 -1 836 907 912 -1 913 904 906 -1 904 913 914 -1 915 916 914 -1 916 915 917 -1 918 913 919 -1 913 918 920 -1 921 895 922 -1 895 921 893 -1 923 920 918 -1 920 923 915 -1 915 923 903 -1 915 903 874 -1 915 874 917 -1 917 874 859 -1 859 874 876 -1 859 876 856 -1 856 876 888 -1 856 888 887 -1 856 887 854 -1 854 887 897 -1 897 887 829 -1 897 829 828 -1 906 909 911 -1 909 906 905 -1 910 835 924 -1 835 910 909 -1 916 893 921 -1 893 916 858 -1 872 925 870 -1 925 872 924 -1 920 914 913 -1 914 920 915 -1 883 910 881 -1 910 883 908 -1 905 835 909 -1 835 905 836 -1 904 922 907 -1 922 904 921 -1 912 926 927 -1 926 912 928 -1 917 858 916 -1 858 917 859 -1 883 929 908 -1 929 883 902 -1 919 906 911 -1 906 919 913 -1 821 803 877 -1 803 821 806 -1 907 928 912 -1 928 907 922 -1 908 919 911 -1 919 908 929 -1 924 810 807 -1 810 924 835 -1 810 835 824 -1 925 807 837 -1 807 925 924 -1 837 807 834 -1 922 899 928 -1 899 922 895 -1 912 838 836 -1 838 912 927 -1 914 921 904 -1 921 914 916 -1 902 923 929 -1 923 902 903 -1 929 918 919 -1 918 929 923 -1 928 930 926 -1 930 928 842 -1 842 928 850 -1 850 928 848 -1 848 928 899 -1 844 930 842 -1 881 924 872 -1 924 881 910 -1 830 841 833 -1 841 830 825 -1 841 825 851 -1 851 825 849 -1 833 843 823 -1 843 833 841 -1 823 843 849 -1 823 849 825 -1 812 846 811 -1 846 812 892 -1 892 812 839 -1 899 852 848 -1 844 901 930 -1 901 844 845 -1 901 845 898 -1 898 845 852 -1 898 852 899 -1 891 846 892 -1 853 871 889 -1 871 853 847 -1 871 847 869 -1 869 847 846 -1 869 846 891 -1 931 932 933 -1 932 931 934 -1 931 935 934 -1 935 931 936 -1 935 937 938 -1 937 935 936 -1 937 932 938 -1 932 937 933 -1 935 932 934 -1 932 935 938 -1 937 931 933 -1 931 937 936 -1 "
						                >
							<Coordinate DEF="coords_ME_20-2_001"
							            point="10.438070 -5.801590 119.600006 10.438070 -12.025450 115.269302 10.438070 -12.025450 119.600006 10.438070 -5.801590 115.269302 34.776653 -18.008009 119.600006 22.607361 -18.008009 110.938591 34.776653 -18.008009 110.938591 22.607361 -18.008009 119.600006 21.741220 -8.047379 119.600006 22.607361 -5.801590 119.600006 14.838234 -5.801590 119.600006 23.473503 -8.047379 119.600006 22.607361 -12.025450 119.600006 14.838234 -12.025450 119.600006 21.741220 -9.779662 119.600006 23.473503 -9.779662 119.600006 34.776653 0.180968 119.600006 22.607361 0.180968 119.600006 14.838234 -15.016729 119.600006 14.838234 -2.810311 119.600006 34.776653 0.180968 110.938591 22.607361 0.180968 110.938591 22.607361 -12.025450 115.269302 22.607361 -9.779662 110.938591 22.607361 -9.779662 115.269302 22.607361 -5.801590 115.269302 22.607361 -8.047379 110.938591 22.607361 -8.047379 115.269302 23.473503 -8.047379 110.938591 21.741220 -8.047379 115.269302 14.838234 -2.810311 115.269302 14.838234 -15.016729 115.269302 14.838234 -5.801590 115.269302 14.838234 -12.025450 115.269302 21.741220 -9.779662 115.269302 23.473503 -9.779662 110.938591 -19.920197 0.180968 119.600006 -19.920197 -18.008009 110.938591 -19.920197 -18.008009 119.600006 -19.920197 0.180968 110.938591 -2.683977 -18.008009 119.600006 -2.683977 -18.008009 110.938591 -10.453104 -15.016729 119.600006 -14.853269 -12.025450 119.600006 -10.453104 -12.025450 119.600006 -2.683977 -12.025450 119.600006 -2.683977 -5.801590 119.600006 -10.453104 -2.810311 119.600006 -10.453104 -5.801590 119.600006 -2.683977 0.180968 119.600006 -14.853269 -5.801590 119.600006 -2.683977 0.180968 110.938591 -2.683977 -8.047379 115.269302 -2.683977 -8.047379 110.938591 -2.683977 -5.801590 115.269302 -3.550119 -8.047379 110.938591 -3.550119 -8.047379 115.269302 -3.550119 -9.779662 110.938591 -2.683977 -9.779662 115.269302 -2.683977 -9.779662 110.938591 -3.550119 -9.779662 115.269302 -10.453104 -15.016729 115.269302 -14.853269 -5.801590 115.269302 -14.853269 -12.025450 115.269302 -10.453104 -2.810311 115.269302 -10.453104 -12.025450 115.269302 -10.453104 -5.801590 115.269302 -2.683977 -12.025450 115.269302 23.536890 -4.171426 146.360184 23.536890 -3.092435 133.597961 23.536890 -4.171426 133.151016 23.536890 -3.092435 145.913239 23.536890 -1.619856 144.783295 23.536890 -1.619856 134.727905 23.536890 -0.489907 143.310715 23.536890 -0.489907 136.200485 23.536890 0.220408 141.595871 23.536890 0.220408 137.915329 23.536890 0.462684 139.755600 28.426382 -4.171426 146.360184 28.426382 -4.171426 133.151016 28.426382 -3.189514 133.557739 28.426382 -3.189514 145.953461 29.422298 -4.171426 146.360184 29.422298 -4.171426 133.151016 30.067228 -8.487817 132.887634 31.933739 -6.647552 146.865829 31.933739 -6.647552 132.645370 29.422298 -9.123679 133.151016 29.422298 -9.123679 146.360184 30.067228 -8.487817 146.623566 28.426382 -10.105591 133.557739 28.426382 -10.105591 145.953461 28.426382 -9.123679 133.151016 28.426382 -9.123679 146.360184 23.536890 -9.123679 133.151016 23.536890 -9.123679 146.360184 50.606575 -3.092435 133.597961 30.067228 -4.807288 132.887634 50.606575 -4.807288 132.887634 50.606575 -6.647552 132.645370 23.536890 -10.202671 145.913239 50.606575 -10.202671 145.913239 50.606575 -8.487817 146.623566 30.067228 -4.807288 146.623566 50.606575 -4.807288 146.623566 50.606575 -6.647552 146.865829 50.606575 -3.092435 145.913239 23.536890 -10.202671 133.597961 50.606575 -10.202671 133.597961 50.606575 -8.487817 132.887634 50.606575 -13.515513 141.595871 23.536890 -13.757789 139.755600 50.606575 -13.757789 139.755600 23.536890 -13.515513 141.595871 50.606575 -11.675249 144.783295 23.536890 -12.805198 143.310715 50.606575 -12.805198 143.310715 23.536890 -11.675249 144.783295 23.536890 -13.515513 137.915329 23.536890 -12.805198 136.200485 23.536890 -11.675249 134.727905 50.606575 0.220408 137.915329 50.606575 -0.489907 136.200485 50.606575 -1.619856 134.727905 50.606575 -1.619856 144.783295 50.606575 -0.489907 143.310715 50.606575 0.220408 141.595871 50.606575 0.462684 139.755600 50.606575 -13.515513 137.915329 50.606575 -12.805198 136.200485 50.606575 -11.675249 134.727905 6.350792 -4.171426 146.360184 6.350792 -3.189514 133.557739 6.350792 -4.171426 133.151016 6.350792 -3.189514 145.953461 7.991639 -4.807288 132.887634 9.858150 -6.647552 146.865829 9.858150 -6.647552 132.645370 7.346708 -4.171426 133.151016 7.346708 -4.171426 146.360184 7.991639 -4.807288 146.623566 1.461299 -4.171426 133.151016 1.461299 -4.171426 146.360184 1.461299 -3.092435 133.597961 1.461299 -3.092435 145.913239 1.461299 -1.619856 144.783295 1.461299 -1.619856 134.727905 1.461299 -0.489907 143.310715 1.461299 -0.489907 136.200485 1.461299 0.220408 141.595871 1.461299 0.220408 137.915329 1.461299 0.462684 139.755600 7.991639 -8.487817 132.887634 7.346708 -9.123679 133.151016 6.350792 -10.105591 133.557739 6.350792 -10.105591 145.953461 7.346708 -9.123679 146.360184 7.991639 -8.487817 146.623566 6.350792 -9.123679 133.151016 6.350792 -9.123679 146.360184 1.461299 -9.123679 133.151016 1.461299 -9.123679 146.360184 1.461299 -13.515513 137.915329 1.461299 -13.515513 141.595871 1.461299 -13.757789 139.755600 1.461299 -12.805198 143.310715 1.461299 -12.805198 136.200485 1.461299 -11.675249 144.783295 1.461299 -11.675249 134.727905 1.461299 -10.202671 145.913239 1.461299 -10.202671 133.597961 -19.920197 -0.489907 136.200485 -19.920197 0.220408 137.915329 -19.920197 -1.619856 134.727905 -19.920197 -3.092435 133.597961 -19.920197 -6.647552 146.865829 -19.920197 -8.487817 146.623566 -19.920197 -3.092435 145.913239 -19.920197 -1.619856 144.783295 -19.920197 -0.489907 143.310715 -19.920197 0.220408 141.595871 -19.920197 0.462684 139.755600 -19.920197 -8.487817 132.887634 -19.920197 -6.647552 132.645370 -19.920197 -11.675249 134.727905 -19.920197 -10.202671 133.597961 -19.920197 -12.805198 136.200485 -19.920197 -13.515513 137.915329 -19.920197 -13.757789 139.755600 -19.920197 -13.515513 141.595871 -19.920197 -12.805198 143.310715 -19.920197 -11.675249 144.783295 -19.920197 -10.202671 145.913239 -19.920197 -4.807288 146.623566 -19.920197 -4.807288 132.887634 -0.883495 -9.814397 95.391121 -0.883495 -8.082113 90.151192 -0.883495 -9.814397 90.151192 -0.883495 -8.082113 95.391121 -0.883495 -8.948256 95.391121 -2.615778 -9.814397 90.151192 -1.666260 -9.814397 93.182686 -2.615778 -9.814397 93.655754 -1.666260 -9.814397 95.781113 -1.666260 -8.082113 93.182686 -2.615778 -6.349830 90.151192 -1.666260 -8.082113 95.781113 -19.920197 0.180968 90.151192 4.418386 -18.008009 90.151192 -19.920197 -18.008009 90.151192 4.418386 0.180968 90.151192 -1.666260 -18.008009 95.781113 -1.666260 -18.008009 93.182686 -1.666260 0.180968 93.182686 -1.666260 0.180968 95.781113 -2.615778 -8.082113 93.655754 -7.750906 -18.008009 96.214180 -7.750906 0.180968 96.214180 4.418386 0.180968 92.749619 4.418386 -18.008009 92.749619 -7.750906 0.180968 98.812607 -19.920197 -18.008009 98.812607 -7.750906 -18.008009 98.812607 -19.920197 0.180968 98.812607 17.677528 1.878516 96.214180 23.762175 -16.310459 93.182686 17.677528 -16.310459 96.214180 22.896032 -8.082113 93.614220 22.896032 -6.349830 93.614220 23.762175 -6.349830 93.182686 23.762175 1.878516 93.182686 23.762175 -8.082113 93.182686 23.762175 -8.082113 95.781113 29.846821 -16.310459 92.749619 23.762175 -16.310459 95.781113 24.628317 -8.082113 95.349579 29.846821 1.878516 92.749619 24.628317 -6.349830 95.349579 23.762175 -6.349830 95.781113 23.762175 1.878516 95.781113 22.896032 -6.349830 98.812607 24.628317 -6.349830 98.812607 42.016113 1.878516 98.812607 17.677528 -16.310459 98.812607 42.016113 -16.310459 98.812607 24.628317 -8.082113 98.812607 22.896032 -8.082113 98.812607 17.677528 1.878516 98.812607 29.846821 1.878516 90.151192 42.016113 -16.310459 90.151192 29.846821 -16.310459 90.151192 42.016113 1.878516 90.151192 -12.466206 1.973007 38.584259 -12.466206 -1.964000 50.395283 -12.466206 -1.964000 38.584259 -12.466206 1.973007 50.395283 -6.099235 -1.964000 38.584259 -6.099235 1.973007 38.584259 -5.707675 0.004503 38.584259 -6.361702 1.973007 43.833603 -7.109734 1.973007 48.820480 -7.439299 1.973007 49.614876 -8.088294 1.973007 50.179218 -8.501219 1.973007 50.286392 -8.996099 1.973007 50.395283 -6.361702 -1.964000 43.833603 -7.109734 -1.964000 48.820480 -7.439299 -1.964000 49.614876 -8.088294 -1.964000 50.179218 -8.501219 -1.964000 50.286392 -8.996099 -1.964000 50.395283 -8.865396 -4.383708 49.614876 -8.119726 -2.122020 50.179218 -9.324305 -3.924799 50.179218 -7.520133 -2.370380 49.614876 -5.918343 -3.033862 30.710243 -6.524563 -2.782758 43.833603 -5.313975 0.004503 30.710243 -7.215654 -2.496499 48.820480 -9.912946 3.345165 50.395283 -11.127084 5.138385 50.179218 -11.445654 4.369288 50.395283 -9.324305 3.933806 50.179218 -13.253607 5.561377 50.179218 -13.253607 4.728913 50.395283 -10.878724 5.737978 49.614876 -8.865396 4.392715 49.614876 -5.918343 3.042869 30.710243 -8.103420 5.154691 43.833603 -6.524563 2.791765 43.833603 -7.639439 5.618671 30.710243 -7.215654 2.505505 48.820480 -10.878724 -5.728971 49.614876 -13.253607 -6.530930 48.820480 -10.752605 -6.033449 48.820480 -13.253607 -6.201365 49.614876 -16.040869 -6.724540 43.833603 -18.867775 -5.609664 30.710243 -16.291973 -7.330760 30.710243 -18.403795 -5.145684 43.833603 -13.253607 -5.552370 50.179218 -15.061561 -4.360282 50.395283 -15.380131 -5.129378 50.179218 -13.253607 -4.719906 50.395283 -8.632359 -4.616745 48.820480 -10.466346 -6.724540 43.833603 -8.103420 -5.145684 43.833603 -15.628490 -5.728971 49.614876 -17.874857 -4.616745 48.820480 -15.754609 -6.033449 48.820480 -17.641819 -4.383708 49.614876 -7.520133 2.379386 49.614876 -8.632359 4.625752 48.820480 -11.127084 -5.129378 50.179218 -9.912946 -3.336159 50.395283 -11.445654 -4.360282 50.395283 -13.253607 -7.935129 30.710243 -10.215241 -7.330760 30.710243 -13.253607 -7.278961 43.833603 -13.253607 6.210372 49.614876 -10.752605 6.042456 48.820480 -13.253607 6.539937 48.820480 -8.119726 2.131027 50.179218 -10.466346 6.733547 43.833603 -13.253607 7.287968 43.833603 -7.639439 -5.609664 30.710243 -10.215241 7.339767 30.710243 -13.253607 7.944136 30.710243 -17.182909 -3.924799 50.179218 -16.594269 -3.336159 50.395283 -17.641819 4.392715 49.614876 -19.291559 2.505505 48.820480 -18.987082 2.379386 49.614876 -17.874857 4.625752 48.820480 -20.537071 0.004503 43.833603 -20.588871 3.042869 30.710243 -21.193239 0.004503 30.710243 -19.982651 2.791765 43.833603 -18.987082 -2.370380 49.614876 -19.789040 0.004503 48.820480 -19.291559 -2.496499 48.820480 -19.459476 0.004503 49.614876 -18.403795 5.154691 43.833603 -18.387489 2.131027 50.179218 -17.182909 3.933806 50.179218 -16.594269 3.345165 50.395283 -15.380131 5.138385 50.179218 -15.061561 4.369288 50.395283 -17.978016 0.004503 50.395283 -18.810480 0.004503 50.179218 -17.618393 1.812457 50.395283 -15.628490 5.737978 49.614876 -15.754609 6.042456 48.820480 -17.618393 -1.803450 50.395283 -19.982651 -2.782758 43.833603 -20.588871 -3.033862 30.710243 -16.291973 7.339767 30.710243 -18.867775 5.618671 30.710243 -16.040869 6.733547 43.833603 -18.387489 -2.122020 50.179218 35.937443 -3.538804 38.584259 35.937443 -3.932504 48.426777 35.937443 -3.932504 40.509216 35.937443 -3.538804 50.395283 35.937443 3.547811 38.584259 35.937443 3.547811 50.395283 35.937443 3.941511 40.509216 35.937443 3.941511 48.426777 24.649837 3.941511 40.509216 24.180933 3.547811 38.584259 15.948009 3.941511 38.584259 15.948009 3.941511 40.509216 24.180933 3.547811 50.395283 24.180933 3.941511 48.426777 15.948009 3.941511 50.395283 15.948009 3.941511 48.426777 24.180933 -3.538804 50.395283 24.180933 -3.932504 40.509216 15.948009 -3.932504 38.584259 24.180933 -3.538804 38.584259 15.948009 -3.932504 50.395283 24.180933 -3.932504 48.426777 15.948009 -3.932504 48.426777 15.948009 -3.932504 40.509216 4.609426 -2.751402 38.584259 3.349584 -1.964000 50.395283 3.349584 -1.964000 38.584259 4.609426 -2.751402 50.395283 7.129111 -3.341953 50.395283 7.129111 -3.341953 38.584259 10.908639 -3.735654 50.395283 10.908639 -3.735654 38.584259 10.908639 3.744661 50.395283 10.908639 3.744661 38.584259 7.129111 3.350960 50.395283 7.129111 3.350960 38.584259 4.609426 2.760409 50.395283 4.609426 2.760409 38.584259 3.349584 1.973007 50.395283 3.349584 1.973007 38.584259 -3.017387 1.973007 50.395283 -3.017387 -1.964000 50.395283 -3.017387 1.973007 38.584259 -3.017387 -1.964000 38.584259 -14.041009 0.791905 51.970085 -14.041009 -0.782898 50.395283 -14.041009 -0.782898 51.970085 -14.041009 0.791905 50.395283 -12.466206 0.791905 50.395283 -12.466206 0.791905 51.970085 -12.466206 -0.782898 51.970085 -12.466206 -0.782898 50.395283 -11.445654 -4.360282 80.355911 -12.466206 -1.964000 80.355911 -13.253607 -4.719906 80.355911 -8.996099 -1.964000 80.355911 -9.912946 -3.336159 80.355911 -10.891402 -0.782898 80.355911 -12.466206 0.595055 80.355911 -12.466206 -0.586048 80.355911 -10.891402 0.791905 80.355911 -17.618393 -1.803450 80.355911 -17.618393 1.812457 80.355911 -17.978016 0.004503 80.355911 -16.594269 3.345165 80.355911 -16.594269 -3.336159 80.355911 -15.061561 -4.360282 80.355911 -15.061561 4.369288 80.355911 -13.253607 4.728913 80.355911 -12.466206 1.973007 80.355911 -11.445654 4.369288 80.355911 -8.996099 1.973007 80.355911 -9.912946 3.345165 80.355911 -12.466206 -0.586048 68.544891 -12.466206 -1.964000 68.544891 -10.891402 0.791905 68.544891 -12.466206 0.595055 68.544891 -10.891402 -0.782898 68.544891 -8.865396 -4.383708 79.575508 -8.119726 -2.122020 80.139847 -9.324305 -3.924799 80.139847 -7.520133 -2.370380 79.575508 -5.918343 -3.033862 60.670872 -6.099235 -1.964000 68.544891 -6.524563 -2.782758 73.794235 -5.313975 0.004503 60.670872 -5.707675 0.004503 68.544891 -6.361702 -1.964000 73.794235 -7.215654 -2.496499 78.781105 -7.109734 -1.964000 78.781105 -7.439299 -1.964000 79.575508 -8.088294 -1.964000 80.139847 -8.501219 -1.964000 80.247025 -11.127084 5.138385 80.139847 -9.324305 3.933806 80.139847 -13.253607 5.561377 80.139847 -10.878724 5.737978 79.575508 -8.865396 4.392715 79.575508 -5.918343 3.042869 60.670872 -8.103420 5.154691 73.794235 -6.524563 2.791765 73.794235 -7.639439 5.618671 60.670872 -7.109734 1.973007 78.781105 -6.361702 1.973007 73.794235 -7.215654 2.505505 78.781105 -10.878724 -5.728971 79.575508 -13.253607 -6.530930 78.781105 -10.752605 -6.033449 78.781105 -13.253607 -6.201365 79.575508 -16.040869 -6.724540 73.794235 -18.867775 -5.609664 60.670872 -16.291973 -7.330760 60.670872 -18.403795 -5.145684 73.794235 -13.253607 -5.552370 80.139847 -15.380131 -5.129378 80.139847 -8.632359 -4.616745 78.781105 -10.466346 -6.724540 73.794235 -8.103420 -5.145684 73.794235 -15.628490 -5.728971 79.575508 -17.874857 -4.616745 78.781105 -15.754609 -6.033449 78.781105 -17.641819 -4.383708 79.575508 -7.520133 2.379386 79.575508 -8.632359 4.625752 78.781105 -11.127084 -5.129378 80.139847 -13.253607 -7.935129 60.670872 -10.215241 -7.330760 60.670872 -13.253607 -7.278961 73.794235 -13.253607 6.210372 79.575508 -10.752605 6.042456 78.781105 -13.253607 6.539937 78.781105 -7.439299 1.973007 79.575508 -8.088294 1.973007 80.139847 -8.119726 2.131027 80.139847 -8.501219 1.973007 80.247025 -6.099235 1.973007 68.544891 -10.466346 6.733547 73.794235 -13.253607 7.287968 73.794235 -7.639439 -5.609664 60.670872 -10.215241 7.339767 60.670872 -13.253607 7.944136 60.670872 -17.182909 -3.924799 80.139847 -17.641819 4.392715 79.575508 -19.291559 2.505505 78.781105 -18.987082 2.379386 79.575508 -17.874857 4.625752 78.781105 -20.537071 0.004503 73.794235 -20.588871 3.042869 60.670872 -21.193239 0.004503 60.670872 -19.982651 2.791765 73.794235 -18.987082 -2.370380 79.575508 -19.789040 0.004503 78.781105 -19.291559 -2.496499 78.781105 -19.459476 0.004503 79.575508 -18.403795 5.154691 73.794235 -18.387489 2.131027 80.139847 -17.182909 3.933806 80.139847 -15.380131 5.138385 80.139847 -18.810480 0.004503 80.139847 -15.628490 5.737978 79.575508 -15.754609 6.042456 78.781105 -19.982651 -2.782758 73.794235 -20.588871 -3.033862 60.670872 -16.291973 7.339767 60.670872 -18.867775 5.618671 60.670872 -16.040869 6.733547 73.794235 -18.387489 -2.122020 80.139847 -12.466206 1.973007 68.544891 -14.041009 0.791905 81.930717 -14.041009 -0.782898 80.355911 -14.041009 -0.782898 81.930717 -14.041009 0.791905 80.355911 -12.466206 0.791905 80.355911 -12.466206 0.791905 81.930717 -12.466206 -0.782898 81.930717 -12.466206 -0.782898 80.355911 -3.017387 -0.586048 80.355911 -3.017387 -1.964000 68.544891 -3.017387 -1.964000 80.355911 -3.017387 -0.586048 68.544891 -1.442584 0.791905 80.355911 -3.017387 0.595055 68.544891 -1.442584 0.791905 68.544891 -3.017387 0.595055 80.355911 -1.442584 -0.782898 68.544891 -1.442584 -0.782898 80.355911 3.349584 -1.964000 80.355911 -3.017387 1.973007 80.355911 3.349584 1.973007 80.355911 4.609426 -2.751402 80.355911 4.609426 2.760409 80.355911 7.129111 -3.341953 80.355911 7.129111 3.350960 80.355911 10.908639 -3.735654 80.355911 10.908639 3.744661 80.355911 15.948009 -3.932504 80.355911 15.948009 3.941511 80.355911 24.180933 -3.538804 80.355911 24.180933 3.547811 80.355911 35.937443 -3.538804 68.544891 35.937443 -3.932504 78.387405 35.937443 -3.932504 70.469841 35.937443 -3.538804 80.355911 35.937443 3.547811 68.544891 35.937443 3.547811 80.355911 35.937443 3.941511 70.469841 35.937443 3.941511 78.387405 24.649837 3.941511 70.469841 24.180933 3.547811 68.544891 15.948009 3.941511 68.544891 15.948009 3.941511 70.469841 24.180933 3.941511 78.387405 15.948009 3.941511 78.387405 24.180933 -3.932504 70.469841 15.948009 -3.932504 68.544891 24.180933 -3.538804 68.544891 24.180933 -3.932504 78.387405 15.948009 -3.932504 78.387405 15.948009 -3.932504 70.469841 4.609426 -2.751402 68.544891 3.349584 -1.964000 68.544891 7.129111 -3.341953 68.544891 10.908639 -3.735654 68.544891 10.908639 3.744661 68.544891 7.129111 3.350960 68.544891 4.609426 2.760409 68.544891 3.349584 1.973007 68.544891 -3.017387 1.973007 68.544891 36.842850 -6.038804 22.227337 45.110565 -6.084419 15.257504 45.110565 -6.250090 18.039957 45.110565 -6.364619 19.832500 40.517391 -6.302911 23.030199 35.268047 -5.736966 21.883253 45.110565 -6.013352 14.852250 45.110565 4.925763 26.190557 45.110565 5.713165 24.782942 43.142063 4.925763 25.962212 45.110565 0.946687 7.857893 44.454803 0.004503 7.723016 44.277840 0.842596 7.774620 45.110565 0.004503 7.781989 45.110565 -0.937680 7.857893 44.277840 -0.833589 7.774620 32.118439 5.142299 20.506918 45.110565 6.022359 14.852250 45.110565 5.921826 14.144688 35.268047 5.745973 21.883253 45.110565 -4.227780 8.544888 43.535763 -5.322268 11.298225 43.535763 -4.030930 8.387408 45.110565 -5.088673 10.485434 40.517391 6.311918 23.030199 45.110565 6.500566 21.534552 45.110565 6.373626 19.832500 43.142063 6.500566 23.259588 36.842850 6.047811 22.227337 45.110565 6.259097 18.039957 45.110565 4.236787 8.544888 43.914814 2.455916 8.012924 43.535763 4.039937 8.387408 45.110565 2.605385 8.132500 45.110565 -6.491560 23.431629 43.142063 -6.491560 23.259588 45.110565 -6.491560 21.534552 43.914814 -2.446909 8.012924 45.110565 -2.596378 8.132500 45.110565 6.093426 15.257504 45.110565 6.500566 23.431629 45.110565 -4.916757 26.190557 43.142063 -4.916757 25.962212 45.110565 -5.704158 24.782942 45.110565 5.591117 11.732926 43.535763 5.331275 11.298225 45.110565 5.097679 10.485434 45.110565 -5.582111 11.732926 32.118439 -5.133292 20.506918 45.110565 -5.912819 14.144688 40.517391 4.782848 25.657749 40.517391 -4.773841 25.657749 31.331038 -4.793725 20.162836 40.386158 -4.152977 9.342071 28.968834 -3.775024 18.098333 28.706366 -3.473187 17.868944 32.118439 -3.887766 22.308668 31.331038 -3.630518 21.851974 28.968834 -2.858775 19.111816 31.331038 4.802732 20.162836 28.968834 3.784031 18.098333 28.968834 2.867782 19.111816 27.394030 -1.964000 15.001581 28.706366 -2.630111 18.807356 38.811352 -1.964000 6.733865 36.842850 -4.573760 24.592133 40.386158 -3.145103 7.678746 40.386158 4.161984 9.342071 35.268047 -4.345095 24.135439 28.706366 3.482194 17.868944 40.386158 3.154110 7.678746 38.811352 1.973007 6.733865 31.331038 3.639525 21.851974 32.118439 3.896773 22.308668 36.842850 4.582767 24.592133 42.076260 0.004503 7.256725 41.982410 -0.188000 7.258149 27.394030 1.973007 15.001581 28.706366 2.639117 18.807356 40.461369 -1.128679 6.958341 40.461369 1.137686 6.958341 41.885990 -0.372693 7.275964 41.201523 -1.683795 7.402433 35.268047 4.354102 24.135439 41.201523 1.692802 7.402433 41.982410 0.197007 7.258149 41.885990 0.381700 7.275964 19.027889 -0.249497 10.080321 17.453085 1.973007 10.080321 17.453085 0.258504 10.080321 19.027889 1.973007 10.080321 21.291668 -0.979749 15.001581 21.291668 -1.964000 15.001581 15.189306 1.973007 15.001581 15.189306 0.988755 15.001581 21.291668 -0.979749 6.733865 19.027889 -0.249497 11.655125 17.453085 0.258504 11.655125 15.189306 0.988755 6.733865 19.027889 1.973007 11.655125 17.453085 1.973007 11.655125 15.189306 1.973007 6.733865 21.291668 -1.964000 6.733865 3.281826 10.736131 11.655125 1.707023 10.736131 10.080321 3.281826 10.736131 10.080321 1.707023 10.736131 11.655125 3.281826 25.808310 10.080321 1.707023 25.808310 10.080321 1.707023 25.808310 11.655125 3.281826 25.808310 11.655125 -27.133528 -5.133292 20.506918 -40.125656 -6.013352 14.852250 -40.125656 -5.912819 14.144688 -30.283134 -5.736966 21.883253 -39.292927 0.842596 7.774620 -40.125656 0.004503 7.781989 -40.125656 0.946687 7.857893 -39.469891 0.004503 7.723016 -40.125656 -4.916757 26.190557 -40.125656 -5.704158 24.782942 -38.157150 -4.916757 25.962212 -40.125656 4.236787 8.544888 -38.550850 5.331275 11.298225 -38.550850 4.039937 8.387408 -40.125656 5.097679 10.485434 -31.857939 -6.038804 22.227337 -40.125656 -6.364619 19.832500 -40.125656 -6.250090 18.039957 -35.532478 -6.302911 23.030199 -40.125656 -0.937680 7.857893 -39.292927 -0.833589 7.774620 -31.857939 6.047811 22.227337 -40.125656 6.093426 15.257504 -40.125656 6.259097 18.039957 -30.283134 5.745973 21.883253 -40.125656 6.022359 14.852250 -40.125656 -6.491560 21.534552 -38.157150 -6.491560 23.259588 -40.125656 6.373626 19.832500 -35.532478 6.311918 23.030199 -36.216610 -1.683795 7.402433 -38.550850 -4.030930 8.387408 -38.929905 -2.446909 8.012924 -35.401245 -3.145103 7.678746 -35.476456 -1.128679 6.958341 -36.901077 -0.372693 7.275964 -36.997498 -0.188000 7.258149 -33.826443 -1.964000 6.733865 -38.929905 2.455916 8.012924 -36.997498 0.197007 7.258149 -36.901077 0.381700 7.275964 -36.216610 1.692802 7.402433 -37.091347 0.004503 7.256725 -30.283134 -4.345095 24.135439 -35.532478 -4.773841 25.657749 -31.857939 -4.573760 24.592133 -31.857939 4.582767 24.592133 -35.532478 4.782848 25.657749 -30.283134 4.354102 24.135439 -35.476456 1.137686 6.958341 -27.133528 3.896773 22.308668 -27.133528 -3.887766 22.308668 -26.346127 3.639525 21.851974 -26.346127 -3.630518 21.851974 -22.409119 -1.964000 15.001581 -23.721455 2.639117 18.807356 -23.721455 -2.630111 18.807356 -22.409119 1.973007 15.001581 -26.346127 4.802732 20.162836 -23.983923 3.784031 18.098333 -35.401245 4.161984 9.342071 -33.826443 1.973007 6.733865 -35.401245 3.154110 7.678746 -23.721455 -3.473187 17.868944 -23.983923 -2.858775 19.111816 -23.983923 2.867782 19.111816 -23.983923 -3.775024 18.098333 -26.346127 -4.793725 20.162836 -35.401245 -4.152977 9.342071 -27.133528 5.142299 20.506918 -38.550850 -5.322268 11.298225 -23.721455 3.482194 17.868944 -40.125656 5.921826 14.144688 -38.157150 4.925763 25.962212 -38.157150 6.500566 23.259588 -40.125656 -6.491560 23.431629 -40.125656 -6.084419 15.257504 -40.125656 -5.582111 11.732926 -40.125656 -5.088673 10.485434 -40.125656 -4.227780 8.544888 -40.125656 4.925763 26.190557 -40.125656 -2.596378 8.132500 -40.125656 2.605385 8.132500 -40.125656 5.713165 24.782942 -40.125656 5.591117 11.732926 -40.125656 6.500566 23.431629 -40.125656 6.500566 21.534552 -12.468174 -1.964000 10.080321 -14.042977 0.258504 10.080321 -14.042977 -1.964000 10.080321 -12.468174 -0.249497 10.080321 -10.204394 -1.964000 6.733865 -10.204394 -0.979749 15.001581 -10.204394 -1.964000 15.001581 -10.204394 -0.979749 6.733865 -16.306757 1.973007 6.733865 -16.306757 1.973007 15.001581 -16.306757 0.988755 15.001581 -16.306757 0.988755 6.733865 -12.468174 -1.964000 11.655125 -14.042977 -1.964000 11.655125 -14.042977 0.258504 11.655125 -12.468174 -0.249497 11.655125 6.882636 -4.383708 20.914087 7.628305 -2.122020 21.478432 6.423727 -3.924799 21.478432 8.227900 -2.370380 20.914087 -4.817428 -1.964000 6.733865 1.707023 -1.964000 10.080321 9.806276 -1.964000 6.733865 -4.404042 -1.964000 15.001581 1.707023 -1.964000 11.655125 3.281826 -1.964000 11.655125 3.281826 -1.964000 10.080321 9.392891 -1.964000 15.001581 9.829688 -3.033862 2.009455 9.223468 -2.782758 15.132814 10.434057 0.004503 2.009455 10.197836 0.004503 6.733865 9.777889 0.004503 15.132814 9.784451 0.004503 15.001581 8.532377 -2.496499 20.119692 9.029858 0.004503 20.119692 -4.404042 1.973007 15.001581 -4.795602 0.004503 15.001581 9.392891 1.973007 15.001581 8.700293 0.004503 20.914087 8.051297 0.004503 21.478432 7.218834 0.004503 21.694494 6.859210 -1.803450 21.694494 9.806276 1.973007 6.733865 9.829688 3.042869 2.009455 9.223468 2.791765 15.132814 -4.817428 1.973007 6.733865 -5.208988 0.004503 6.733865 -4.789040 0.004503 15.132814 -4.234620 2.791765 15.132814 -5.445208 0.004503 2.009455 -4.840840 3.042869 2.009455 3.281826 -7.296222 11.655125 3.281826 -7.374962 10.080321 3.281826 1.973007 10.080321 1.707023 7.383969 10.080321 1.707023 1.973007 10.080321 2.494424 7.540593 10.080321 3.281826 7.383969 10.080321 1.707023 -7.296222 11.655125 1.707023 -7.374962 10.080321 2.494424 7.461853 11.655125 1.707023 1.973007 11.655125 1.707023 7.305229 11.655125 3.281826 1.973007 11.655125 3.281826 7.305229 11.655125 2.494424 -7.531586 10.080321 5.835086 3.345165 21.694494 4.620947 5.138385 21.478432 4.302378 4.369288 21.694494 6.423727 3.933806 21.478432 2.494424 5.561377 21.478432 2.494424 4.728913 21.694494 4.869308 5.737978 20.914087 6.882636 4.392715 20.914087 7.644611 5.154691 15.132814 8.108592 5.618671 2.009455 8.532377 2.505505 20.119692 4.869308 -5.728971 20.914087 2.494424 -6.530930 20.119692 4.995426 -6.033449 20.119692 2.494424 -6.201365 20.914087 -0.292837 -6.724540 15.132814 -3.119744 -5.609664 2.009455 -0.543942 -7.330760 2.009455 -2.655763 -5.145684 15.132814 2.494424 -5.552370 21.478432 0.686471 -4.360282 21.694494 0.367901 -5.129378 21.478432 2.494424 -4.719906 21.694494 7.115673 -4.616745 20.119692 5.281685 -6.724540 15.132814 7.644611 -5.145684 15.132814 0.119541 -5.728971 20.914087 -2.126825 -4.616745 20.119692 -0.006578 -6.033449 20.119692 -1.893788 -4.383708 20.914087 8.227900 2.379386 20.914087 7.115673 4.625752 20.119692 4.620947 -5.129378 21.478432 5.835086 -3.336159 21.694494 4.302378 -4.360282 21.694494 2.494424 -7.935129 2.009455 5.532790 -7.330760 2.009455 2.494424 -7.278961 15.132814 2.494424 -7.452846 11.655125 2.494424 6.210372 20.914087 4.995426 6.042456 20.119692 2.494424 6.539937 20.119692 7.628305 2.131027 21.478432 6.859210 1.812457 21.694494 5.281685 6.733547 15.132814 2.494424 7.287968 15.132814 8.108592 -5.609664 2.009455 5.532790 7.339767 2.009455 -1.434878 -3.924799 21.478432 -0.846238 -3.336159 21.694494 -1.893788 4.392715 20.914087 -3.543529 2.505505 20.119692 -3.239051 2.379386 20.914087 -2.126825 4.625752 20.119692 -3.239051 -2.370380 20.914087 -4.041009 0.004503 20.119692 -3.543529 -2.496499 20.119692 -3.711444 0.004503 20.914087 -2.655763 5.154691 15.132814 -2.639457 2.131027 21.478432 -1.434878 3.933806 21.478432 -0.846238 3.345165 21.694494 0.367901 5.138385 21.478432 0.686471 4.369288 21.694494 -2.229985 0.004503 21.694494 -3.062449 0.004503 21.478432 -1.870361 1.812457 21.694494 0.119541 5.737978 20.914087 -0.006578 6.042456 20.119692 -1.870361 -1.803450 21.694494 -4.234620 -2.782758 15.132814 -4.840840 -3.033862 2.009455 -0.543942 7.339767 2.009455 -3.119744 5.618671 2.009455 -0.292837 6.733547 15.132814 -2.639457 -2.122020 21.478432 2.494424 7.944136 2.009455 1.707023 0.791905 23.269299 1.707023 -0.782898 21.694494 1.707023 -0.782898 23.269299 1.707023 0.791905 21.694494 3.281826 0.791905 21.694494 3.281826 0.791905 23.269299 3.281826 -0.782898 23.269299 3.281826 -0.782898 21.694494 "
							            />
						</IndexedFaceSet>
					</Shape>
				</Group>
			</Transform>
		</Transform>
	</Scene>
</X3D>