<?xml version="1.0" encoding="UTF-8"?>
<!DOCTYPE X3D PUBLIC "ISO//Web3D//DTD X3D 3.0//EN" "http://www.web3d.org/specifications/x3d-3.0.dtd">
<X3D version="3.0" profile="Immersive" xmlns:xsd="http://www.w3.org/2001/XMLSchema-instance" xsd:noNamespaceSchemaLocation="http://www.web3d.org/specifications/x3d-3.0.xsd">
	<head>
		<meta name="filename" content="20-3.x3d" />
		<meta name="created" content="2026-06-21 15:09:40" />
		<meta name="generator" content="Blender 4.5.4 LTS" />
		<meta name="translator" content="Web3D X3D/VRML2 format v2.5.1" />
	</head>
	<Scene>
		<NavigationInfo headlight="true"
		                visibilityLimit="0.0"
		                type='"EXAMINE", "ANY"'
		                avatarSize="0.25, 1.75, 0.75"
		                />
		<Background DEF="WO_World"
		            groundColor="0.051 0.051 0.051"
		            skyColor="0.051 0.051 0.051"
		            />
		<Transform DEF="_20-3_TRANSFORM"
		           translation="0.000000 0.000000 0.000000"
		           scale="1.000000 1.000000 1.000000"
		           rotation="0.000000 0.707107 0.707107 3.141593"
		           >
			<Transform DEF="_20-3_ifs_TRANSFORM"
			           translation="0.000000 0.000000 0.000000"
			           scale="1.000000 1.000000 1.000000"
			           rotation="0.000000 1.000000 0.000000 0.000000"
			           >
				<Group DEF="group_ME_20-3_001">
					<Shape>
						<Appearance>
						</Appearance>
						<IndexedFaceSet solid="false"
						                coordIndex="0 1 2 -1 1 0 3 -1 4 5 6 -1 5 4 7 -1 8 9 10 -1 9 8 11 -1 5 12 6 -1 12 5 13 -1 10 14 15 -1 14 10 9 -1 14 9 16 -1 16 9 17 -1 17 9 18 -1 19 15 14 -1 20 21 22 -1 23 8 24 -1 8 23 25 -1 8 25 11 -1 11 25 21 -1 11 21 20 -1 26 0 27 -1 0 26 3 -1 28 29 30 -1 29 28 31 -1 30 32 33 -1 32 30 29 -1 34 29 31 -1 29 34 35 -1 35 32 29 -1 32 35 36 -1 36 37 32 -1 37 36 38 -1 36 39 38 -1 39 36 40 -1 34 41 35 -1 41 34 42 -1 35 40 36 -1 40 35 41 -1 43 23 24 -1 23 43 44 -1 33 37 45 -1 37 33 32 -1 46 5 7 -1 5 46 13 -1 13 46 21 -1 21 46 22 -1 23 12 25 -1 12 4 6 -1 4 12 44 -1 44 12 23 -1 14 26 27 -1 26 14 16 -1 12 21 25 -1 21 12 13 -1 47 0 2 -1 0 47 27 -1 27 47 14 -1 14 47 19 -1 17 26 16 -1 26 1 3 -1 1 26 48 -1 48 26 17 -1 34 9 42 -1 9 34 49 -1 9 49 18 -1 42 11 50 -1 11 42 9 -1 50 11 20 -1 33 51 30 -1 51 33 52 -1 51 52 40 -1 51 40 41 -1 39 37 38 -1 37 39 45 -1 30 53 28 -1 53 30 51 -1 53 51 41 -1 53 41 42 -1 45 52 33 -1 52 45 39 -1 52 39 40 -1 28 8 31 -1 8 28 43 -1 8 43 24 -1 31 10 54 -1 10 31 8 -1 54 10 15 -1 49 1 48 -1 47 31 54 -1 31 47 2 -1 31 2 34 -1 34 2 1 -1 34 1 49 -1 53 4 28 -1 4 53 7 -1 7 53 46 -1 46 53 50 -1 50 53 42 -1 28 44 43 -1 44 28 4 -1 17 49 48 -1 49 17 18 -1 46 20 22 -1 20 46 50 -1 15 47 54 -1 47 15 19 -1 55 56 57 -1 56 55 58 -1 59 60 61 -1 60 59 62 -1 63 64 65 -1 64 63 66 -1 67 66 63 -1 66 67 68 -1 69 68 67 -1 68 69 70 -1 71 72 73 -1 72 71 74 -1 75 76 77 -1 76 75 78 -1 79 78 75 -1 78 79 80 -1 81 80 79 -1 80 81 82 -1 83 82 81 -1 82 83 84 -1 85 86 87 -1 86 85 88 -1 89 90 91 -1 90 89 65 -1 92 65 89 -1 65 92 63 -1 93 63 92 -1 63 93 67 -1 94 67 93 -1 67 94 69 -1 95 73 96 -1 73 95 71 -1 97 77 98 -1 77 97 75 -1 99 75 97 -1 75 99 79 -1 100 79 99 -1 79 100 81 -1 101 81 100 -1 81 101 83 -1 102 87 103 -1 87 102 85 -1 104 91 105 -1 91 104 89 -1 104 92 89 -1 92 104 106 -1 107 92 106 -1 92 107 93 -1 108 93 107 -1 93 108 94 -1 109 95 96 -1 95 109 110 -1 111 97 98 -1 97 111 112 -1 113 97 112 -1 97 113 99 -1 114 99 113 -1 99 114 100 -1 115 100 114 -1 100 115 101 -1 116 102 103 -1 102 116 117 -1 118 105 119 -1 105 118 104 -1 106 118 120 -1 118 106 104 -1 121 106 120 -1 106 121 107 -1 122 107 121 -1 107 122 108 -1 110 123 124 -1 123 110 109 -1 112 125 126 -1 125 112 111 -1 127 112 126 -1 112 127 113 -1 128 113 127 -1 113 128 114 -1 115 128 129 -1 128 115 114 -1 117 130 131 -1 130 117 116 -1 132 119 133 -1 119 132 118 -1 134 118 132 -1 118 134 120 -1 135 120 134 -1 120 135 121 -1 136 121 135 -1 121 136 122 -1 124 137 138 -1 137 124 123 -1 126 139 140 -1 139 126 125 -1 141 126 140 -1 126 141 127 -1 142 127 141 -1 127 142 128 -1 143 128 142 -1 128 143 129 -1 131 144 145 -1 144 131 130 -1 146 132 133 -1 132 146 147 -1 148 132 147 -1 132 148 134 -1 149 134 148 -1 134 149 135 -1 149 136 135 -1 136 149 150 -1 151 137 152 -1 137 151 138 -1 153 139 154 -1 139 153 140 -1 153 141 140 -1 141 153 155 -1 155 142 141 -1 142 155 156 -1 157 142 156 -1 142 157 143 -1 158 144 159 -1 144 158 145 -1 160 147 146 -1 147 160 161 -1 162 147 161 -1 147 162 148 -1 162 149 148 -1 149 162 163 -1 163 150 149 -1 150 163 164 -1 165 152 166 -1 152 165 151 -1 167 154 168 -1 154 167 153 -1 167 155 153 -1 155 167 169 -1 169 156 155 -1 156 169 170 -1 171 156 170 -1 156 171 157 -1 172 159 173 -1 159 172 158 -1 174 161 160 -1 161 174 175 -1 175 162 161 -1 162 175 176 -1 176 163 162 -1 163 176 177 -1 177 164 163 -1 164 177 178 -1 57 165 166 -1 165 57 56 -1 61 167 168 -1 167 61 60 -1 60 169 167 -1 169 60 179 -1 179 170 169 -1 170 179 180 -1 181 170 180 -1 170 181 171 -1 182 172 173 -1 172 182 183 -1 184 175 174 -1 175 184 185 -1 150 152 137 -1 152 150 164 -1 152 164 166 -1 166 164 178 -1 166 178 57 -1 57 178 186 -1 57 186 55 -1 55 186 187 -1 187 186 188 -1 187 188 189 -1 189 188 190 -1 189 190 191 -1 191 190 192 -1 191 192 193 -1 193 192 194 -1 194 192 195 -1 150 122 136 -1 122 150 137 -1 122 137 123 -1 122 123 108 -1 108 123 109 -1 108 109 94 -1 94 109 96 -1 94 96 69 -1 69 96 73 -1 69 73 70 -1 70 73 72 -1 70 72 196 -1 70 196 197 -1 197 196 198 -1 197 198 194 -1 194 198 193 -1 184 199 185 -1 199 184 200 -1 201 185 199 -1 185 201 202 -1 203 202 201 -1 202 203 204 -1 204 188 186 -1 188 204 203 -1 205 55 187 -1 55 205 58 -1 206 59 207 -1 59 206 62 -1 62 208 209 -1 208 62 206 -1 209 210 211 -1 210 209 208 -1 212 211 210 -1 211 212 213 -1 214 215 216 -1 215 214 217 -1 200 218 199 -1 218 200 219 -1 220 199 218 -1 199 220 201 -1 201 221 203 -1 221 201 220 -1 203 190 188 -1 190 203 221 -1 222 187 189 -1 187 222 205 -1 223 207 224 -1 207 223 206 -1 206 225 208 -1 225 206 223 -1 208 226 210 -1 226 208 225 -1 227 210 226 -1 210 227 212 -1 228 216 229 -1 216 228 214 -1 219 230 218 -1 230 219 231 -1 230 220 218 -1 220 230 232 -1 220 233 221 -1 233 220 232 -1 221 192 190 -1 192 221 233 -1 191 222 189 -1 222 191 234 -1 235 223 224 -1 223 235 236 -1 223 237 225 -1 237 223 236 -1 225 238 226 -1 238 225 237 -1 238 227 226 -1 227 238 239 -1 240 228 229 -1 228 240 241 -1 231 242 230 -1 242 231 243 -1 242 232 230 -1 232 242 244 -1 244 233 232 -1 233 244 245 -1 233 195 192 -1 195 233 245 -1 193 234 191 -1 234 193 246 -1 151 139 138 -1 139 151 154 -1 154 151 165 -1 154 165 168 -1 168 165 56 -1 168 56 61 -1 61 56 58 -1 61 58 59 -1 59 58 207 -1 207 58 205 -1 207 205 224 -1 224 205 222 -1 224 222 235 -1 235 222 234 -1 235 234 247 -1 247 234 246 -1 139 124 138 -1 124 139 125 -1 124 125 110 -1 110 125 111 -1 110 111 95 -1 95 111 98 -1 95 98 71 -1 71 98 77 -1 71 77 74 -1 74 77 76 -1 74 76 248 -1 74 248 249 -1 249 248 250 -1 249 250 251 -1 251 250 247 -1 251 247 246 -1 247 236 235 -1 236 247 252 -1 236 253 237 -1 253 236 252 -1 237 254 238 -1 254 237 253 -1 254 239 238 -1 239 254 255 -1 256 241 240 -1 241 256 257 -1 242 258 259 -1 258 242 243 -1 242 260 244 -1 260 242 259 -1 244 261 245 -1 261 244 260 -1 195 261 194 -1 261 195 245 -1 198 246 193 -1 246 198 251 -1 250 252 247 -1 252 250 262 -1 253 262 263 -1 262 253 252 -1 254 263 264 -1 263 254 253 -1 254 265 255 -1 265 254 264 -1 158 133 145 -1 133 158 146 -1 146 158 172 -1 146 172 160 -1 160 172 183 -1 160 183 174 -1 174 183 217 -1 174 217 184 -1 184 217 200 -1 200 217 214 -1 200 214 219 -1 219 214 228 -1 219 228 231 -1 231 228 241 -1 231 241 243 -1 243 241 257 -1 133 131 145 -1 131 133 119 -1 131 119 117 -1 117 119 105 -1 117 105 102 -1 102 105 91 -1 102 91 85 -1 85 91 90 -1 85 90 88 -1 88 90 266 -1 88 266 267 -1 88 267 268 -1 268 267 258 -1 268 258 269 -1 269 258 243 -1 269 243 257 -1 270 257 256 -1 257 270 269 -1 259 267 271 -1 267 259 258 -1 259 272 260 -1 272 259 271 -1 261 272 273 -1 272 261 260 -1 194 273 197 -1 273 194 261 -1 198 249 251 -1 249 198 196 -1 250 274 262 -1 274 250 248 -1 263 274 275 -1 274 263 262 -1 264 275 276 -1 275 264 263 -1 264 277 265 -1 277 264 276 -1 270 268 269 -1 268 270 278 -1 271 266 64 -1 266 271 267 -1 66 271 64 -1 271 66 272 -1 273 66 68 -1 66 273 272 -1 197 68 70 -1 68 197 273 -1 74 196 72 -1 196 74 249 -1 78 248 76 -1 248 78 274 -1 275 78 80 -1 78 275 274 -1 276 80 82 -1 80 276 275 -1 84 276 82 -1 276 84 277 -1 88 278 86 -1 278 88 268 -1 130 159 144 -1 159 130 116 -1 159 116 173 -1 173 116 103 -1 173 103 182 -1 182 103 87 -1 182 87 215 -1 215 87 86 -1 215 86 216 -1 216 86 278 -1 216 278 229 -1 229 278 270 -1 229 270 240 -1 240 270 256 -1 65 266 90 -1 266 65 64 -1 215 183 182 -1 183 215 217 -1 185 176 175 -1 176 185 202 -1 209 180 179 -1 180 209 211 -1 211 181 180 -1 181 211 213 -1 62 179 60 -1 179 62 209 -1 204 178 177 -1 178 204 186 -1 202 177 176 -1 177 202 204 -1 279 280 281 -1 280 279 282 -1 283 281 284 -1 281 283 279 -1 282 285 280 -1 285 282 286 -1 286 287 285 -1 287 286 288 -1 289 290 291 -1 290 289 292 -1 291 293 294 -1 293 291 290 -1 294 295 296 -1 295 294 293 -1 296 297 298 -1 297 296 295 -1 298 299 300 -1 299 298 297 -1 300 301 302 -1 301 300 299 -1 303 291 304 -1 291 303 289 -1 304 294 305 -1 294 304 291 -1 305 296 306 -1 296 305 294 -1 306 298 307 -1 298 306 296 -1 307 300 308 -1 300 307 298 -1 308 302 309 -1 302 308 300 -1 310 304 311 -1 304 310 303 -1 311 305 312 -1 305 311 304 -1 305 313 312 -1 313 305 306 -1 306 314 313 -1 314 306 307 -1 307 315 314 -1 315 307 308 -1 308 316 315 -1 316 308 309 -1 317 310 318 -1 310 317 303 -1 303 317 319 -1 303 319 320 -1 303 320 289 -1 289 320 292 -1 292 320 321 -1 292 321 322 -1 322 321 323 -1 322 323 324 -1 322 324 325 -1 325 324 326 -1 326 324 327 -1 326 327 328 -1 318 311 329 -1 311 318 310 -1 329 312 330 -1 312 329 311 -1 312 331 330 -1 331 312 313 -1 313 332 331 -1 332 313 314 -1 314 333 332 -1 333 314 315 -1 315 334 333 -1 334 315 316 -1 335 318 329 -1 318 335 317 -1 336 329 330 -1 329 336 335 -1 336 331 337 -1 331 336 330 -1 337 332 338 -1 332 337 331 -1 338 333 339 -1 333 338 332 -1 339 334 340 -1 334 339 333 -1 341 317 335 -1 317 341 319 -1 342 335 336 -1 335 342 341 -1 342 337 343 -1 337 342 336 -1 343 338 344 -1 338 343 337 -1 344 339 345 -1 339 344 338 -1 345 340 346 -1 340 345 339 -1 347 319 341 -1 319 347 320 -1 348 341 342 -1 341 348 347 -1 348 343 349 -1 343 348 342 -1 349 344 350 -1 344 349 343 -1 350 345 351 -1 345 350 344 -1 351 346 352 -1 346 351 345 -1 353 320 347 -1 320 353 321 -1 354 347 348 -1 347 354 353 -1 354 349 355 -1 349 354 348 -1 355 350 356 -1 350 355 349 -1 356 351 357 -1 351 356 350 -1 358 351 352 -1 351 358 357 -1 359 321 353 -1 321 359 323 -1 354 359 353 -1 359 354 360 -1 360 355 361 -1 355 360 354 -1 361 356 362 -1 356 361 355 -1 362 357 363 -1 357 362 356 -1 363 358 364 -1 358 363 357 -1 359 324 323 -1 324 359 365 -1 360 365 359 -1 365 360 287 -1 287 361 285 -1 361 287 360 -1 285 362 280 -1 362 285 361 -1 280 363 281 -1 363 280 362 -1 281 364 284 -1 364 281 363 -1 365 327 324 -1 327 365 366 -1 367 279 283 -1 279 367 368 -1 328 369 326 -1 369 328 370 -1 370 371 369 -1 371 370 372 -1 373 372 374 -1 372 373 371 -1 375 374 376 -1 374 375 373 -1 377 376 368 -1 376 377 375 -1 378 368 367 -1 368 378 377 -1 326 379 325 -1 379 326 369 -1 369 380 379 -1 380 369 371 -1 373 380 371 -1 380 373 381 -1 375 381 373 -1 381 375 382 -1 377 382 375 -1 382 377 383 -1 378 383 377 -1 383 378 384 -1 325 385 322 -1 385 325 379 -1 379 386 385 -1 386 379 380 -1 386 381 387 -1 381 386 380 -1 387 382 388 -1 382 387 381 -1 388 383 389 -1 383 388 382 -1 389 384 390 -1 384 389 383 -1 322 290 292 -1 290 322 385 -1 385 293 290 -1 293 385 386 -1 293 387 295 -1 387 293 386 -1 295 388 297 -1 388 295 387 -1 297 389 299 -1 389 297 388 -1 299 390 301 -1 390 299 389 -1 376 286 282 -1 286 376 374 -1 366 328 327 -1 328 366 370 -1 374 288 286 -1 288 374 372 -1 368 282 279 -1 282 368 376 -1 288 370 366 -1 370 288 372 -1 287 366 365 -1 366 287 288 -1 157 129 143 -1 129 157 391 -1 391 157 171 -1 391 171 392 -1 391 392 101 -1 101 392 393 -1 393 392 394 -1 393 394 212 -1 393 212 395 -1 395 212 227 -1 395 227 277 -1 277 227 239 -1 277 239 265 -1 265 239 255 -1 396 352 397 -1 352 396 358 -1 398 397 399 -1 397 398 396 -1 400 399 401 -1 399 400 398 -1 392 400 401 -1 400 392 394 -1 352 402 397 -1 402 352 346 -1 397 403 399 -1 403 397 402 -1 404 399 403 -1 399 404 401 -1 171 401 404 -1 401 171 392 -1 340 402 346 -1 402 340 405 -1 405 403 402 -1 403 405 406 -1 407 403 406 -1 403 407 404 -1 157 404 407 -1 404 157 171 -1 334 405 340 -1 405 334 408 -1 408 406 405 -1 406 408 409 -1 409 407 406 -1 407 409 410 -1 143 407 410 -1 407 143 157 -1 316 408 334 -1 408 316 411 -1 408 412 409 -1 412 408 411 -1 412 410 409 -1 410 412 413 -1 413 143 410 -1 143 413 129 -1 316 414 411 -1 414 316 309 -1 411 415 412 -1 415 411 414 -1 415 413 412 -1 413 415 416 -1 416 129 413 -1 129 416 391 -1 309 417 414 -1 417 309 302 -1 414 418 415 -1 418 414 417 -1 418 416 415 -1 416 418 419 -1 419 391 416 -1 391 419 101 -1 302 420 417 -1 420 302 301 -1 417 421 418 -1 421 417 420 -1 418 422 419 -1 422 418 421 -1 422 101 419 -1 101 422 393 -1 301 423 420 -1 423 301 390 -1 420 424 421 -1 424 420 423 -1 421 425 422 -1 425 421 424 -1 425 393 422 -1 393 425 395 -1 390 426 423 -1 426 390 384 -1 423 427 424 -1 427 423 426 -1 424 428 425 -1 428 424 427 -1 425 277 395 -1 277 425 428 -1 426 378 429 -1 378 426 384 -1 427 429 430 -1 429 427 426 -1 427 431 428 -1 431 427 430 -1 428 265 277 -1 265 428 431 -1 429 367 432 -1 367 429 378 -1 430 432 433 -1 432 430 429 -1 431 433 434 -1 433 431 430 -1 431 255 265 -1 255 431 434 -1 435 367 283 -1 367 435 432 -1 436 432 435 -1 432 436 433 -1 437 433 436 -1 433 437 434 -1 255 437 239 -1 437 255 434 -1 438 283 284 -1 283 438 435 -1 439 435 438 -1 435 439 436 -1 437 439 440 -1 439 437 436 -1 239 440 227 -1 440 239 437 -1 284 441 438 -1 441 284 364 -1 438 442 439 -1 442 438 441 -1 440 442 443 -1 442 440 439 -1 227 443 212 -1 443 227 440 -1 364 396 441 -1 396 364 358 -1 441 398 442 -1 398 441 396 -1 442 400 443 -1 400 442 398 -1 212 400 394 -1 400 212 443 -1 444 445 446 -1 445 444 447 -1 447 444 448 -1 447 448 449 -1 449 448 450 -1 449 450 451 -1 451 450 452 -1 451 452 453 -1 453 452 454 -1 453 454 455 -1 455 454 456 -1 455 456 457 -1 457 456 458 -1 457 458 459 -1 460 449 451 -1 449 460 461 -1 462 463 464 -1 463 462 465 -1 464 466 467 -1 466 464 463 -1 467 468 469 -1 468 467 466 -1 469 470 471 -1 470 469 468 -1 472 473 474 -1 473 472 475 -1 474 476 477 -1 476 474 473 -1 478 479 480 -1 479 478 481 -1 478 482 483 -1 482 478 480 -1 461 447 449 -1 447 461 484 -1 483 485 486 -1 485 483 482 -1 465 487 463 -1 487 465 488 -1 463 489 466 -1 489 463 487 -1 466 490 468 -1 490 466 489 -1 468 491 470 -1 491 468 490 -1 473 492 493 -1 492 473 475 -1 473 494 476 -1 494 473 493 -1 480 495 496 -1 495 480 479 -1 482 496 497 -1 496 482 480 -1 482 498 485 -1 498 482 497 -1 499 447 484 -1 447 499 445 -1 488 500 487 -1 500 488 501 -1 487 502 489 -1 502 487 500 -1 489 503 490 -1 503 489 502 -1 503 491 490 -1 491 503 504 -1 493 505 506 -1 505 493 492 -1 506 494 493 -1 494 506 507 -1 496 508 509 -1 508 496 495 -1 497 509 510 -1 509 497 496 -1 497 511 498 -1 511 497 510 -1 512 445 499 -1 445 512 446 -1 513 514 515 -1 514 513 516 -1 517 518 519 -1 518 517 520 -1 521 522 523 -1 522 521 524 -1 525 454 452 -1 454 525 526 -1 527 528 529 -1 528 527 530 -1 530 531 528 -1 531 530 532 -1 518 533 534 -1 533 518 535 -1 531 536 537 -1 536 531 532 -1 520 535 518 -1 535 520 538 -1 522 538 520 -1 538 522 539 -1 456 540 458 -1 540 456 541 -1 524 539 522 -1 539 524 542 -1 523 520 517 -1 520 523 522 -1 543 544 545 -1 544 543 546 -1 519 534 547 -1 534 519 518 -1 548 513 549 -1 513 548 516 -1 550 542 551 -1 542 550 539 -1 552 539 550 -1 539 552 538 -1 553 546 543 -1 546 553 554 -1 526 456 454 -1 456 526 541 -1 555 538 552 -1 538 555 535 -1 533 555 556 -1 555 533 535 -1 557 558 559 -1 558 557 560 -1 546 537 544 -1 537 546 531 -1 561 547 562 -1 547 561 519 -1 563 517 564 -1 517 563 523 -1 554 531 546 -1 531 554 528 -1 565 516 548 -1 516 565 566 -1 529 554 567 -1 554 529 528 -1 514 566 568 -1 566 514 516 -1 569 554 553 -1 554 569 567 -1 559 570 571 -1 570 559 558 -1 558 515 570 -1 515 558 513 -1 572 530 527 -1 530 572 573 -1 560 513 558 -1 513 560 549 -1 573 532 530 -1 532 573 574 -1 564 519 561 -1 519 564 517 -1 575 523 563 -1 523 575 521 -1 576 532 574 -1 532 576 536 -1 577 578 579 -1 578 577 580 -1 581 582 583 -1 582 581 584 -1 556 580 577 -1 580 556 555 -1 585 586 587 -1 586 585 588 -1 579 581 583 -1 581 579 578 -1 589 590 591 -1 590 589 592 -1 578 593 581 -1 593 578 594 -1 595 589 596 -1 589 595 592 -1 552 597 598 -1 597 552 550 -1 594 599 593 -1 599 594 600 -1 598 600 594 -1 600 598 597 -1 600 601 599 -1 601 600 602 -1 587 603 604 -1 603 587 586 -1 605 590 592 -1 590 605 606 -1 550 607 597 -1 607 550 551 -1 458 608 459 -1 608 458 540 -1 566 606 605 -1 606 566 565 -1 555 598 580 -1 598 555 552 -1 568 605 609 -1 605 568 566 -1 576 610 611 -1 610 576 574 -1 612 585 613 -1 585 612 588 -1 457 614 455 -1 614 457 615 -1 580 594 578 -1 594 580 598 -1 614 453 455 -1 453 614 616 -1 597 602 600 -1 602 597 607 -1 611 588 612 -1 588 611 610 -1 610 586 588 -1 586 610 617 -1 459 615 457 -1 615 459 608 -1 574 617 610 -1 617 574 573 -1 586 618 603 -1 618 586 617 -1 601 619 599 -1 619 601 620 -1 599 621 593 -1 621 599 619 -1 618 573 572 -1 573 618 617 -1 609 592 595 -1 592 609 605 -1 593 584 581 -1 584 593 621 -1 622 587 623 -1 587 622 585 -1 499 624 512 -1 624 499 511 -1 511 499 484 -1 511 484 498 -1 498 484 461 -1 498 461 485 -1 485 461 460 -1 485 460 486 -1 486 460 616 -1 486 616 625 -1 625 616 613 -1 613 616 614 -1 613 614 612 -1 612 614 615 -1 612 615 611 -1 611 615 608 -1 624 626 512 -1 626 624 627 -1 626 627 628 -1 628 627 629 -1 628 629 630 -1 630 629 545 -1 630 545 525 -1 525 545 544 -1 525 544 537 -1 525 537 526 -1 526 537 536 -1 526 536 541 -1 541 536 576 -1 541 576 540 -1 540 576 611 -1 540 611 608 -1 631 477 632 -1 477 631 474 -1 633 474 631 -1 474 633 472 -1 621 469 584 -1 469 621 467 -1 622 486 625 -1 486 622 483 -1 584 471 582 -1 471 584 469 -1 501 634 635 -1 634 501 488 -1 634 488 636 -1 636 488 465 -1 636 465 575 -1 575 465 462 -1 575 462 521 -1 521 462 620 -1 521 620 524 -1 524 620 601 -1 524 601 542 -1 542 601 602 -1 542 602 551 -1 551 602 607 -1 620 464 619 -1 464 620 462 -1 508 637 638 -1 637 508 507 -1 507 508 495 -1 507 495 494 -1 494 495 479 -1 494 479 476 -1 476 479 481 -1 476 481 477 -1 477 481 639 -1 477 639 632 -1 632 639 596 -1 596 639 604 -1 596 604 595 -1 595 604 603 -1 595 603 609 -1 609 603 618 -1 637 640 638 -1 640 637 641 -1 640 641 642 -1 642 641 643 -1 642 643 569 -1 569 643 571 -1 569 571 567 -1 567 571 570 -1 567 570 515 -1 567 515 529 -1 529 515 514 -1 529 514 527 -1 527 514 568 -1 527 568 572 -1 572 568 609 -1 572 609 618 -1 585 625 613 -1 625 585 622 -1 623 481 478 -1 481 623 639 -1 631 591 633 -1 591 631 589 -1 619 467 621 -1 467 619 464 -1 505 644 645 -1 644 505 504 -1 504 505 492 -1 504 492 491 -1 491 492 475 -1 491 475 470 -1 470 475 472 -1 470 472 471 -1 471 472 633 -1 471 633 582 -1 582 633 583 -1 583 633 591 -1 583 591 579 -1 579 591 590 -1 579 590 577 -1 577 590 606 -1 644 646 645 -1 646 644 647 -1 646 647 648 -1 648 647 649 -1 648 649 557 -1 557 649 562 -1 557 562 560 -1 560 562 547 -1 560 547 534 -1 560 534 549 -1 549 534 533 -1 549 533 548 -1 548 533 556 -1 548 556 565 -1 565 556 577 -1 565 577 606 -1 623 483 622 -1 483 623 478 -1 616 451 453 -1 451 616 460 -1 589 632 596 -1 632 589 631 -1 623 604 639 -1 604 623 587 -1 650 651 652 -1 651 650 653 -1 654 655 656 -1 655 654 657 -1 658 641 659 -1 641 658 643 -1 651 627 652 -1 627 651 629 -1 646 658 659 -1 658 646 648 -1 660 644 661 -1 644 660 647 -1 628 450 448 -1 450 628 630 -1 655 660 661 -1 660 655 657 -1 662 647 660 -1 647 662 649 -1 663 660 657 -1 660 663 662 -1 634 656 635 -1 656 634 654 -1 664 657 654 -1 657 664 663 -1 626 446 512 -1 446 626 444 -1 510 624 511 -1 624 510 665 -1 663 561 662 -1 561 663 564 -1 636 563 664 -1 563 636 575 -1 664 564 663 -1 564 664 563 -1 640 653 650 -1 653 640 642 -1 636 654 634 -1 654 636 664 -1 662 562 649 -1 562 662 561 -1 509 665 510 -1 665 509 666 -1 648 559 658 -1 559 648 557 -1 505 667 506 -1 667 505 645 -1 628 444 626 -1 444 628 448 -1 658 571 643 -1 571 658 559 -1 661 504 503 -1 504 661 644 -1 500 655 502 -1 655 500 656 -1 652 624 665 -1 624 652 627 -1 642 553 653 -1 553 642 569 -1 509 638 666 -1 638 509 508 -1 650 665 666 -1 665 650 652 -1 653 543 651 -1 543 653 553 -1 667 507 506 -1 507 667 637 -1 638 650 666 -1 650 638 640 -1 651 545 629 -1 545 651 543 -1 502 661 503 -1 661 502 655 -1 501 656 500 -1 656 501 635 -1 659 637 667 -1 637 659 641 -1 630 452 450 -1 452 630 525 -1 645 659 667 -1 659 645 646 -1 668 669 670 -1 669 668 671 -1 669 671 672 -1 672 671 673 -1 672 673 674 -1 674 673 675 -1 674 675 462 -1 462 675 676 -1 462 676 677 -1 677 676 678 -1 677 678 679 -1 679 678 680 -1 679 680 681 -1 681 680 682 -1 683 684 685 -1 684 683 686 -1 687 685 688 -1 685 687 683 -1 686 689 684 -1 689 686 690 -1 690 691 689 -1 691 690 692 -1 693 675 673 -1 675 693 694 -1 695 696 697 -1 696 695 698 -1 697 699 700 -1 699 697 696 -1 700 701 702 -1 701 700 699 -1 702 703 704 -1 703 702 701 -1 704 705 706 -1 705 704 703 -1 706 694 693 -1 694 706 705 -1 707 673 671 -1 673 707 693 -1 708 697 709 -1 697 708 695 -1 709 700 710 -1 700 709 697 -1 710 702 711 -1 702 710 700 -1 711 704 712 -1 704 711 702 -1 712 706 713 -1 706 712 704 -1 713 693 707 -1 693 713 706 -1 707 668 714 -1 668 707 671 -1 715 709 716 -1 709 715 708 -1 716 710 717 -1 710 716 709 -1 710 718 717 -1 718 710 711 -1 711 719 718 -1 719 711 712 -1 712 720 719 -1 720 712 713 -1 713 714 720 -1 714 713 707 -1 714 670 721 -1 670 714 668 -1 722 715 723 -1 715 722 708 -1 708 722 724 -1 708 724 725 -1 708 725 695 -1 695 725 698 -1 698 725 726 -1 698 726 727 -1 727 726 728 -1 727 728 729 -1 727 729 730 -1 730 729 731 -1 731 729 732 -1 731 732 733 -1 723 716 734 -1 716 723 715 -1 734 717 735 -1 717 734 716 -1 717 736 735 -1 736 717 718 -1 718 737 736 -1 737 718 719 -1 737 720 738 -1 720 737 719 -1 720 721 738 -1 721 720 714 -1 721 669 739 -1 669 721 670 -1 740 723 734 -1 723 740 722 -1 741 734 735 -1 734 741 740 -1 741 736 742 -1 736 741 735 -1 742 737 743 -1 737 742 736 -1 743 738 744 -1 738 743 737 -1 744 721 739 -1 721 744 738 -1 739 672 745 -1 672 739 669 -1 746 722 740 -1 722 746 724 -1 747 740 741 -1 740 747 746 -1 747 742 748 -1 742 747 741 -1 748 743 749 -1 743 748 742 -1 749 744 750 -1 744 749 743 -1 750 739 745 -1 739 750 744 -1 751 672 674 -1 672 751 745 -1 752 724 746 -1 724 752 725 -1 753 746 747 -1 746 753 752 -1 753 748 754 -1 748 753 747 -1 754 749 755 -1 749 754 748 -1 755 750 756 -1 750 755 749 -1 756 745 751 -1 745 756 750 -1 757 674 462 -1 674 757 751 -1 758 725 752 -1 725 758 726 -1 759 752 753 -1 752 759 758 -1 759 754 760 -1 754 759 753 -1 760 755 761 -1 755 760 754 -1 761 756 762 -1 756 761 755 -1 762 751 757 -1 751 762 756 -1 763 462 677 -1 462 763 757 -1 764 726 758 -1 726 764 728 -1 759 764 758 -1 764 759 765 -1 765 760 766 -1 760 765 759 -1 766 761 767 -1 761 766 760 -1 767 762 768 -1 762 767 761 -1 768 757 763 -1 757 768 762 -1 688 677 679 -1 677 688 763 -1 764 729 728 -1 729 764 769 -1 765 769 764 -1 769 765 691 -1 691 766 689 -1 766 691 765 -1 689 767 684 -1 767 689 766 -1 684 768 685 -1 768 684 767 -1 685 763 688 -1 763 685 768 -1 681 688 679 -1 688 681 687 -1 769 732 729 -1 732 769 770 -1 771 683 687 -1 683 771 772 -1 680 771 682 -1 771 680 773 -1 733 774 731 -1 774 733 775 -1 775 776 774 -1 776 775 777 -1 778 777 779 -1 777 778 776 -1 780 778 779 -1 778 780 781 -1 782 780 772 -1 780 782 781 -1 773 772 771 -1 772 773 782 -1 678 773 680 -1 773 678 783 -1 731 784 730 -1 784 731 774 -1 774 785 784 -1 785 774 776 -1 778 785 776 -1 785 778 786 -1 781 786 778 -1 786 781 787 -1 782 787 781 -1 787 782 788 -1 773 788 782 -1 788 773 783 -1 789 678 676 -1 678 789 783 -1 730 790 727 -1 790 730 784 -1 784 791 790 -1 791 784 785 -1 791 786 792 -1 786 791 785 -1 792 787 793 -1 787 792 786 -1 793 788 794 -1 788 793 787 -1 794 783 789 -1 783 794 788 -1 694 676 675 -1 676 694 789 -1 727 696 698 -1 696 727 790 -1 790 699 696 -1 699 790 791 -1 699 792 701 -1 792 699 791 -1 701 793 703 -1 793 701 792 -1 703 794 705 -1 794 703 793 -1 705 789 694 -1 789 705 794 -1 780 690 686 -1 690 780 779 -1 770 733 732 -1 733 770 775 -1 779 692 690 -1 692 779 777 -1 682 687 681 -1 687 682 771 -1 772 686 683 -1 686 772 780 -1 692 775 770 -1 775 692 777 -1 691 770 769 -1 770 691 692 -1 795 796 797 -1 796 795 798 -1 799 800 801 -1 800 799 802 -1 803 804 805 -1 804 803 806 -1 800 807 801 -1 807 800 808 -1 805 809 810 -1 809 805 804 -1 809 804 811 -1 811 804 812 -1 812 804 813 -1 814 810 809 -1 815 816 817 -1 818 803 819 -1 803 818 820 -1 803 820 806 -1 806 820 816 -1 806 816 815 -1 821 795 822 -1 795 821 798 -1 823 824 825 -1 824 823 826 -1 825 827 828 -1 827 825 824 -1 829 824 826 -1 824 829 830 -1 830 827 824 -1 827 830 831 -1 831 832 827 -1 832 831 833 -1 831 834 833 -1 834 831 835 -1 829 836 830 -1 836 829 837 -1 830 835 831 -1 835 830 836 -1 838 818 819 -1 818 838 839 -1 828 832 840 -1 832 828 827 -1 841 800 802 -1 800 841 808 -1 808 841 816 -1 816 841 817 -1 818 807 820 -1 807 799 801 -1 799 807 839 -1 839 807 818 -1 809 821 822 -1 821 809 811 -1 807 816 820 -1 816 807 808 -1 842 795 797 -1 795 842 822 -1 822 842 809 -1 809 842 814 -1 812 821 811 -1 821 796 798 -1 796 821 843 -1 843 821 812 -1 829 804 837 -1 804 829 844 -1 804 844 813 -1 837 806 845 -1 806 837 804 -1 845 806 815 -1 828 846 825 -1 846 828 847 -1 846 847 835 -1 846 835 836 -1 834 832 833 -1 832 834 840 -1 825 848 823 -1 848 825 846 -1 848 846 836 -1 848 836 837 -1 840 847 828 -1 847 840 834 -1 847 834 835 -1 823 803 826 -1 803 823 838 -1 803 838 819 -1 826 805 849 -1 805 826 803 -1 849 805 810 -1 844 796 843 -1 842 826 849 -1 826 842 797 -1 826 797 829 -1 829 797 796 -1 829 796 844 -1 848 799 823 -1 799 848 802 -1 802 848 841 -1 841 848 845 -1 845 848 837 -1 823 839 838 -1 839 823 799 -1 812 844 843 -1 844 812 813 -1 841 815 817 -1 815 841 845 -1 810 842 849 -1 842 810 814 -1 "
						                >
							<Coordinate DEF="coords_ME_20-3_001"
							            point="-1.377710 -29.043171 137.576569 2.559298 -25.893566 137.576569 -1.377710 -25.893566 137.576569 2.559298 -29.043171 137.576569 -1.377710 -38.491989 137.576569 2.559298 -35.342384 137.576569 -1.377710 -35.342384 137.576569 2.559298 -38.491989 137.576569 -5.708418 -34.161282 137.576569 6.890007 -30.224274 137.576569 -5.708418 -30.224274 137.576569 6.890007 -34.161282 137.576569 -1.377710 -35.342384 139.151367 2.559298 -35.342384 139.151367 -1.377710 -30.224274 139.151367 -5.708418 -30.224274 140.726166 2.559298 -30.224274 139.151367 2.559298 -30.224274 140.726166 6.890007 -30.224274 140.726166 -1.377710 -30.224274 140.726166 6.890007 -34.161282 140.726166 2.559298 -34.161282 139.151367 2.559298 -34.161282 140.726166 -1.377710 -34.161282 140.726166 -5.708418 -34.161282 140.726166 -1.377710 -34.161282 139.151367 2.559298 -29.043171 139.151367 -1.377710 -29.043171 139.151367 -5.708418 -38.491989 136.001755 -4.878732 -26.723251 135.123505 -4.878732 -37.662304 135.123505 -5.708418 -25.893566 136.001755 -4.338413 -27.263571 134.042862 -4.338413 -37.121986 134.042862 6.890007 -25.893566 136.001755 6.060321 -26.723251 135.123505 5.520001 -27.263571 134.042862 -4.133615 -27.468369 132.852158 5.315204 -27.468369 132.852158 5.315204 -36.917187 132.852158 5.520001 -37.121986 134.042862 6.060321 -37.662304 135.123505 6.890007 -38.491989 136.001755 -5.708418 -38.491989 140.726166 -1.377710 -38.491989 140.726166 -4.133615 -36.917187 132.852158 2.559298 -38.491989 140.726166 -1.377710 -25.893566 140.726166 2.559298 -25.893566 140.726166 6.890007 -25.893566 140.726166 6.890007 -38.491989 140.726166 5.315204 -37.662304 135.123505 5.315204 -37.121986 134.042862 5.315204 -38.491989 136.001755 -5.708418 -25.893566 140.726166 0.590795 -42.013359 10.759017 -3.167378 -41.265812 11.310198 -3.167378 -41.265812 10.759016 0.590795 -42.013359 11.310198 0.590795 -41.737766 11.310198 -3.061914 -41.011196 12.136970 -3.061914 -41.011196 11.310198 0.590795 -41.737766 12.136970 0.590794 -20.052299 9.580653 5.360381 -20.677977 9.110115 0.590794 -19.729246 9.110115 5.236754 -20.976439 9.580653 0.590794 -20.590515 10.208248 5.030788 -21.473684 10.208248 0.590794 -21.545427 10.759016 4.665359 -22.355907 10.759016 0.590794 -22.372198 11.310198 4.348968 -23.119745 10.759016 0.590794 -22.372198 10.759016 4.348968 -23.119745 11.310198 0.590794 -22.647789 12.136970 4.243504 -23.374357 11.310198 0.590794 -22.647789 11.310198 4.243504 -23.374357 12.136970 0.590794 -23.903778 12.624289 3.762857 -24.534740 12.624289 0.590794 -24.897581 13.533876 3.382545 -25.452894 13.533876 0.590794 -25.493921 14.741920 3.154336 -26.003841 14.741920 0.590794 -18.137659 8.165535 5.969455 -19.207542 7.614354 0.590794 -18.137659 7.614354 5.969455 -19.207542 8.165535 -4.178792 -20.677977 9.110115 0.590794 -18.688841 8.165535 -4.576939 -19.716766 8.165535 -4.055166 -20.976439 9.580653 -3.849200 -21.473684 10.208248 -3.483771 -22.355907 10.759016 -3.167379 -23.119745 11.310198 -3.167379 -23.119745 10.759016 -3.061915 -23.374357 12.136970 -3.061915 -23.374357 11.310198 -2.581268 -24.534740 12.624289 -2.200957 -25.452894 13.533876 -1.972747 -26.003841 14.741920 -4.787867 -19.207542 8.165535 -4.787867 -19.207542 7.614354 -8.222253 -23.379730 9.110115 -8.957932 -22.644053 8.165535 -7.993821 -23.608164 9.580653 -7.613245 -23.988739 10.208248 -6.938020 -24.663963 10.759016 -6.353404 -25.248579 10.759016 -6.353404 -25.248579 11.310198 -6.158532 -25.443451 11.310198 -6.158532 -25.443451 12.136970 -5.270413 -26.331570 12.624289 -4.567689 -27.034294 13.533876 -4.146013 -27.455971 14.741920 -9.347675 -22.254309 7.614354 -9.347675 -22.254309 8.165535 -10.924006 -27.423191 9.110115 -11.885217 -27.025045 8.165535 -10.625546 -27.546818 9.580653 -10.128299 -27.752785 10.208248 -9.246076 -28.118214 10.759016 -8.482238 -28.434605 10.759016 -8.482238 -28.434605 11.310198 -8.227626 -28.540070 11.310198 -8.227626 -28.540070 12.136970 -7.067243 -29.020716 12.624289 -6.149089 -29.401028 13.533876 -5.598143 -29.629236 14.741920 -12.394442 -26.814117 7.614354 -12.394442 -26.814117 8.165535 -11.872736 -32.192780 9.110115 -12.913142 -32.192780 8.165535 -11.549685 -32.192780 9.580653 -11.011469 -32.192780 10.208248 -10.056557 -32.192780 10.759016 -9.229785 -32.192780 10.759016 -9.229785 -32.192780 11.310198 -8.954194 -32.192780 11.310198 -8.954194 -32.192780 12.136970 -7.698205 -32.192780 12.624289 -6.704403 -32.192780 13.533876 -6.108063 -32.192780 14.741920 -13.464324 -32.192780 7.614354 -13.464324 -32.192780 8.165535 -11.885217 -37.360512 8.165535 -10.924006 -36.962364 9.110115 -10.625546 -36.838737 9.580653 -10.128299 -36.632771 10.208248 -9.246076 -36.267342 10.759016 -8.482238 -35.950951 11.310198 -8.482238 -35.950951 10.759016 -8.227625 -35.845486 12.136970 -8.227625 -35.845486 11.310198 -7.067242 -35.364841 12.624289 -6.149089 -34.984528 13.533876 -5.598143 -34.756321 14.741920 -12.394442 -37.571438 8.165535 -12.394442 -37.571438 7.614354 -8.957931 -41.741505 8.165535 -8.222253 -41.005825 9.110115 -7.993820 -40.777393 9.580653 -7.613245 -40.396816 10.208248 -6.938020 -39.721592 10.759016 -6.353404 -39.136978 11.310198 -6.353404 -39.136978 10.759016 -6.158532 -38.942104 12.136970 -6.158532 -38.942104 11.310198 -5.270413 -38.053986 12.624289 -4.567689 -37.351261 13.533876 -4.146013 -36.929585 14.741920 -9.347674 -42.131248 8.165535 -9.347674 -42.131248 7.614354 -4.576938 -44.668789 8.165535 -4.178792 -43.707581 9.110115 -4.055165 -43.409119 9.580653 -3.849199 -42.911873 10.208248 -3.483770 -42.029648 10.759016 -2.581268 -39.850815 12.624289 -2.200957 -38.932663 13.533876 -1.972747 -38.381714 14.741920 -4.787866 -45.178013 7.614354 -4.787866 -45.178013 8.165535 0.590795 -45.696716 8.165535 0.590795 -44.656307 9.110115 0.590795 -42.840130 10.759017 4.348968 -41.265812 10.759016 4.665359 -42.029648 10.759016 7.534993 -39.136974 10.759016 8.119609 -39.721592 10.759016 9.663827 -35.950951 10.759016 10.427664 -36.267342 10.759016 10.411374 -32.192780 10.759016 10.427664 -28.118214 10.759016 11.238146 -32.192780 10.759016 7.534993 -25.248579 10.759016 8.119609 -24.663963 10.759016 9.663827 -28.434605 10.759016 5.360381 -43.707581 9.110115 5.758527 -44.668789 8.165535 5.236754 -43.409119 9.580653 0.590795 -44.333256 9.580654 5.030788 -42.911873 10.208248 0.590795 -43.795040 10.208249 4.348968 -41.265812 11.310198 4.243504 -41.011196 12.136970 4.243504 -41.011196 11.310198 3.762857 -39.850815 12.624289 0.590795 -40.481777 12.624290 3.382546 -38.932663 13.533876 0.590795 -39.487976 13.533876 3.154336 -38.381714 14.741920 0.590795 -38.891636 14.741920 5.969455 -45.178013 8.165535 0.590795 -46.247894 7.614354 5.969455 -45.178013 7.614354 0.590795 -46.247894 8.165535 9.403842 -41.005825 9.110115 10.139520 -41.741505 8.165535 9.175409 -40.777393 9.580653 8.794833 -40.396816 10.208248 7.534993 -39.136974 11.310198 7.340121 -38.942104 12.136970 7.340121 -38.942104 11.310198 6.452002 -38.053986 12.624289 5.749278 -37.351261 13.533876 5.327602 -36.929585 14.741920 10.529263 -42.131248 8.165535 10.529263 -42.131248 7.614354 12.105596 -36.962364 9.110115 13.066806 -37.360512 8.165535 11.807135 -36.838737 9.580653 11.309888 -36.632771 10.208248 9.663827 -35.950951 11.310198 9.409214 -35.845486 11.310198 9.409214 -35.845486 12.136970 8.248831 -35.364841 12.624289 7.330678 -34.984528 13.533876 6.779732 -34.756321 14.741920 13.576031 -37.571438 7.614354 13.576031 -37.571438 8.165535 13.054325 -32.192780 9.110115 14.094731 -32.192780 8.165535 12.731273 -32.192780 9.580653 12.193058 -32.192780 10.208248 10.411374 -32.192780 11.310198 10.135783 -32.192780 11.310198 7.340121 -25.443451 11.310198 7.534993 -25.248579 11.310198 9.409214 -28.540070 11.310198 9.663827 -28.434605 11.310198 10.135783 -32.192780 12.136970 8.879794 -32.192780 12.624289 7.885992 -32.192780 13.533876 7.289652 -32.192780 14.741920 14.645912 -32.192780 7.614354 14.645912 -32.192780 8.165535 13.066806 -27.025045 8.165535 12.105596 -27.423191 9.110115 11.807134 -27.546818 9.580653 11.309888 -27.752785 10.208248 9.409214 -28.540070 12.136970 8.248831 -29.020716 12.624289 7.330678 -29.401026 13.533876 6.779732 -29.629236 14.741920 5.758527 -19.716766 8.165535 10.139520 -22.644053 8.165535 10.529263 -22.254309 8.165535 13.576031 -26.814117 8.165535 13.576031 -26.814117 7.614354 9.403841 -23.379730 9.110115 9.175409 -23.608164 9.580653 8.794833 -23.988739 10.208248 7.340121 -25.443451 12.136970 6.452002 -26.331570 12.624289 5.749278 -27.034294 13.533876 5.327602 -27.455971 14.741920 10.529263 -22.254309 7.614354 7.926058 -35.231144 113.167114 5.740982 -37.342964 126.290474 6.204962 -37.806946 113.167114 7.319838 -34.980038 126.290474 8.229169 -35.356697 93.482079 6.436953 -38.038937 93.482079 5.212043 -36.814026 131.277359 6.628747 -34.693779 131.277359 4.979006 -36.580990 132.071747 6.324269 -34.567661 132.071747 -1.217159 -27.827993 132.852158 0.590794 -26.635904 132.636093 -1.535729 -27.058897 132.636093 0.590794 -27.468369 132.852158 0.590794 -25.986910 132.071747 -1.784089 -26.459303 132.071747 0.590794 -25.657345 131.277359 -1.910208 -26.154825 131.277359 0.590794 -24.909313 126.290474 -2.196467 -25.463734 126.290474 0.590794 -24.253145 113.167114 -2.447572 -24.857513 113.167114 0.590794 -23.925062 93.482079 -2.573124 -24.554403 93.482079 -2.749867 -28.852116 132.852158 -3.338508 -28.263475 132.636093 -3.797417 -27.804565 132.071747 -4.030455 -27.571529 131.277359 -4.559393 -27.042591 126.290474 -5.023374 -26.578609 113.167114 -5.255364 -26.346619 93.482079 -3.773991 -30.384825 132.852158 -4.543087 -30.066254 132.636093 -5.142681 -29.817894 132.071747 -5.447158 -29.691776 131.277359 -6.138249 -29.405518 126.290474 -6.744470 -29.154411 113.167114 -7.047580 -29.028860 93.482079 -3.773991 -34.000732 132.852158 -4.133615 -32.192780 132.852158 -2.749867 -35.533440 132.852158 -1.217159 -36.557564 132.852158 0.590794 -36.917187 132.852158 2.398748 -27.827993 132.852158 2.398748 -36.557564 132.852158 3.931456 -35.533440 132.852158 3.931456 -28.852116 132.852158 4.955580 -30.384825 132.852158 4.955580 -34.000732 132.852158 5.315204 -32.192780 132.852158 -4.966079 -32.192780 132.636093 -5.615074 -32.192780 132.071747 -5.944639 -32.192780 131.277359 -6.692670 -32.192780 126.290474 -7.348838 -32.192780 113.167114 -7.676922 -32.192780 93.482079 -4.543087 -34.319302 132.636093 -5.142681 -34.567661 132.071747 -5.447158 -34.693779 131.277359 -6.138249 -34.980038 126.290474 -6.744470 -35.231144 113.167114 -7.047580 -35.356697 93.482079 -3.338508 -36.122082 132.636093 -3.797417 -36.580990 132.071747 -4.030455 -36.814026 131.277359 -4.559393 -37.342964 126.290474 -5.023374 -37.806946 113.167114 -5.255364 -38.038937 93.482079 -1.535729 -37.326660 132.636093 -1.784089 -37.926254 132.071747 -1.910208 -38.230732 131.277359 -2.196467 -38.921822 126.290474 -2.447572 -39.528042 113.167114 -2.573124 -39.831154 93.482079 0.590794 -37.749653 132.636093 0.590794 -38.398647 132.071747 0.590794 -38.728210 131.277359 0.590794 -39.476242 126.290474 0.590794 -40.132412 113.167114 0.590794 -40.460495 93.482079 2.717318 -37.326660 132.636093 2.965677 -37.926254 132.071747 3.091796 -38.230732 131.277359 3.378056 -38.921822 126.290474 3.629160 -39.528042 113.167114 3.754713 -39.831154 93.482079 4.520097 -36.122082 132.636093 5.724676 -34.319302 132.636093 8.858511 -32.192780 93.482079 8.530427 -32.192780 113.167114 5.724676 -30.066254 132.636093 6.147667 -32.192780 132.636093 6.324269 -29.817894 132.071747 6.796663 -32.192780 132.071747 6.628747 -29.691776 131.277359 7.126227 -32.192780 131.277359 7.319838 -29.405518 126.290474 7.874259 -32.192780 126.290474 7.926058 -29.154411 113.167114 8.229169 -29.028860 93.482079 4.520097 -28.263475 132.636093 4.979006 -27.804565 132.071747 5.212043 -27.571529 131.277359 5.740982 -27.042591 126.290474 6.204962 -26.578609 113.167114 6.436953 -26.346619 93.482079 2.717318 -27.058897 132.636093 2.965677 -26.459303 132.071747 3.091796 -26.154825 131.277359 3.378056 -25.463734 126.290474 3.629160 -24.857513 113.167114 3.754713 -24.554403 93.482079 -4.146013 -27.455971 14.741920 -1.972747 -38.381714 14.741920 0.590794 -25.493921 14.741920 0.590794 -38.891636 14.741920 3.154336 -26.003841 14.741920 0.590794 -40.460495 16.316723 -2.573124 -39.831154 16.316723 0.590794 -40.250500 15.531035 -2.492763 -39.637142 15.531035 0.590794 -39.676521 14.954883 -2.273111 -39.106857 14.954883 -5.255364 -38.038937 16.316723 -5.106876 -37.890450 15.531035 -4.701013 -37.484585 14.954883 -7.047580 -35.356697 16.316723 -6.853571 -35.276337 15.531035 -6.323285 -35.056683 14.954883 -7.676922 -32.192780 16.316723 -7.466928 -32.192780 15.531035 -6.892951 -32.192780 14.954883 -7.047580 -29.028860 16.316723 -6.853571 -29.109221 15.531035 -6.323285 -29.328873 14.954883 -5.255364 -26.346619 16.316723 -5.106876 -26.495108 15.531035 -4.701013 -26.900970 14.954883 -2.573124 -24.554403 16.316723 -2.492763 -24.748413 15.531035 -2.273111 -25.278700 14.954883 0.590794 -23.925062 16.316723 0.590794 -24.135056 15.531035 0.590794 -24.709032 14.954883 3.754713 -24.554403 16.316723 3.674351 -24.748413 15.531035 3.454700 -25.278700 14.954883 6.436953 -26.346619 16.316723 6.288465 -26.495108 15.531035 5.882601 -26.900970 14.954883 8.229169 -29.028860 16.316723 8.035160 -29.109221 15.531035 7.504873 -29.328873 14.954883 8.858511 -32.192780 16.316723 8.648518 -32.192780 15.531035 8.074539 -32.192780 14.954883 8.229169 -35.356697 16.316723 8.035160 -35.276337 15.531035 7.504873 -35.056683 14.954883 6.436953 -38.038937 16.316723 6.288465 -37.890450 15.531035 5.882601 -37.484585 14.954883 3.754713 -39.831154 16.316723 3.674351 -39.637142 15.531035 3.454700 -39.106857 14.954883 -12.260151 52.673550 7.614354 -12.260151 42.027477 7.614354 -13.318969 47.350513 7.614354 -9.244893 37.514824 7.614354 -9.244893 57.186199 7.614354 -4.732241 34.499569 7.614354 -4.732241 60.201458 7.614354 0.590794 33.440750 7.614354 0.590794 61.260277 7.614354 5.913830 34.499569 7.614354 5.913830 60.201458 7.614354 10.426482 37.514824 7.614354 10.426482 57.186199 7.614354 13.441740 42.027477 7.614354 13.441740 52.673550 7.614354 14.500557 47.350513 7.614354 0.590794 33.440750 8.181695 -4.732241 34.499569 8.181695 0.590794 39.067066 14.741920 -2.624810 39.587357 13.776260 0.590794 38.947735 13.776260 -2.579144 39.697605 14.741920 -2.761595 39.257130 12.875295 0.590794 38.590298 12.875295 -2.980192 38.729389 12.100342 0.590794 38.019073 12.100342 -2.980192 38.729389 11.544477 0.590794 38.019073 11.544477 0.590794 37.881554 11.544477 -3.190698 38.221180 11.118972 0.590794 37.468998 11.118972 -3.032819 38.602337 11.544477 -3.190698 38.221180 10.693466 0.590794 37.468998 10.693466 0.590794 35.730705 10.034885 -3.499738 37.475094 10.693466 -3.855913 36.615211 10.034885 0.590794 36.661434 10.693466 -4.150774 35.903355 9.184192 0.590794 34.960197 9.184192 -9.244893 37.514824 8.181695 -4.370348 35.373253 8.181695 0.590794 34.386421 8.181695 -5.350867 41.408852 13.776260 -5.266488 41.493229 14.741920 -5.603614 41.156105 12.875295 -6.007528 40.752190 12.100342 -6.007528 40.752190 11.544477 -6.104770 40.654949 11.544477 -6.396493 40.363224 11.118972 -6.396493 40.363224 10.693466 -6.967525 39.792194 10.693466 -7.625649 39.134068 10.034885 -8.170481 38.589237 9.184192 -8.576202 38.183517 8.181695 -12.260151 42.027477 8.181695 -7.172360 44.134911 13.776260 -7.062114 44.180576 14.741920 -7.502591 43.998123 12.875295 -8.030330 43.779526 12.100342 -8.030330 43.779526 11.544477 -8.157381 43.726898 11.544477 -8.538537 43.569019 11.118972 -8.538537 43.569019 10.693466 -9.284625 43.259979 10.693466 -10.144507 42.903805 10.034885 -10.856363 42.608944 9.184192 -11.386464 42.389370 8.181695 -13.318969 47.350513 8.181695 4.372287 56.479843 11.118972 7.578082 54.337799 10.693466 4.372287 56.479843 10.693466 7.578082 54.337799 11.118972 0.590794 56.110729 12.875295 4.161781 55.971638 12.100342 0.590794 56.681950 12.100342 3.943184 55.443897 12.875295 0.590794 55.633961 14.741920 3.806398 55.113667 13.776260 0.590794 55.753292 13.776260 3.760733 55.003422 14.741920 0.590794 61.260277 8.181695 5.913830 60.201458 8.181695 8.149114 54.908833 10.693466 5.037502 58.085815 10.034885 4.681327 57.225933 10.693466 8.807239 55.566956 10.034885 5.332363 58.797672 9.184192 9.352070 56.111790 9.184192 7.189117 53.948837 11.544477 4.161781 55.971638 11.544477 7.189117 53.948837 12.100342 9.757792 56.517509 8.181695 5.551938 59.327770 8.181695 6.785203 53.544922 12.875295 6.532456 53.292175 13.776260 13.441740 52.673550 8.181695 10.426482 57.186199 8.181695 6.448077 53.207794 14.741920 -4.150774 58.797672 9.184192 0.590794 60.314606 8.181695 -4.370348 59.327770 8.181695 0.590794 59.740826 9.184192 0.590794 56.681950 11.544477 7.286358 54.046078 11.544477 4.214407 56.098690 11.544477 8.353950 50.566116 13.776260 8.243703 50.520451 14.741920 8.684179 50.702904 12.875295 -3.855913 58.085815 10.034885 0.590794 58.970318 10.034885 9.211919 50.921501 12.100342 9.211919 50.921501 11.544477 -3.032819 56.098690 11.544477 0.590794 57.232029 11.118972 -3.190698 56.479843 11.118972 0.590794 56.819469 11.544477 -2.980192 55.971638 12.100342 -2.980192 55.971638 11.544477 -2.624810 55.113667 13.776260 -2.761595 55.443897 12.875295 9.338970 50.974125 11.544477 9.720125 51.132008 11.118972 0.590794 58.039589 10.693466 9.720125 51.132008 10.693466 -3.499738 57.225933 10.693466 0.590794 57.232029 10.693466 -3.190698 56.479843 10.693466 10.466214 51.441044 10.693466 11.326096 51.797222 10.034885 12.037952 52.092083 9.184192 -2.579144 55.003422 14.741920 12.568053 52.311657 8.181695 9.922232 47.350513 11.544477 9.211919 43.779526 12.100342 9.211919 43.779526 11.544477 9.922232 47.350513 12.100342 7.189117 40.752190 12.100342 4.161781 38.729389 11.544477 7.189117 40.752190 11.544477 4.161781 38.729389 12.100342 9.352070 38.589237 9.184192 11.326096 42.903805 10.034885 8.807239 39.134068 10.034885 12.037952 42.608944 9.184192 7.578082 40.363224 11.118972 9.338970 43.726898 11.544477 7.286358 40.654949 11.544477 9.720125 43.569019 11.118972 6.785203 41.156105 12.875295 8.684179 43.998123 12.875295 9.720125 43.569019 10.693466 7.578082 40.363224 10.693466 8.993572 47.350513 13.776260 9.351011 47.350513 12.875295 6.532456 41.408852 13.776260 8.353950 44.134911 13.776260 6.448077 41.493229 14.741920 8.243703 44.180576 14.741920 10.466214 43.259979 10.693466 8.149114 39.792194 10.693466 10.472311 47.350513 11.118972 10.059752 47.350513 11.544477 8.874243 47.350513 14.741920 14.500557 47.350513 8.181695 10.472311 47.350513 10.693466 12.981109 47.350513 9.184192 13.554886 47.350513 8.181695 12.568053 42.389370 8.181695 9.757792 38.183517 8.181695 10.426482 37.514824 8.181695 13.441740 42.027477 8.181695 5.913830 34.499569 8.181695 12.210601 47.350513 10.034885 11.279871 47.350513 10.693466 3.806398 39.587357 13.776260 3.760733 39.697605 14.741920 3.943184 39.257130 12.875295 5.332363 35.903355 9.184192 5.037502 36.615211 10.034885 -12.373297 47.350513 8.181695 5.551938 35.373253 8.181695 -12.260151 52.673550 8.181695 -11.386464 52.311657 8.181695 -9.244893 57.186199 8.181695 -8.576202 56.517509 8.181695 -4.732241 60.201458 8.181695 4.372287 38.221180 11.118972 4.372287 38.221180 10.693466 4.214407 38.602337 11.544477 -7.062114 50.520451 14.741920 -7.692654 47.350513 14.741920 -5.266488 53.207794 14.741920 -9.290723 47.350513 10.693466 -10.098283 47.350513 10.693466 4.681327 37.475094 10.693466 -9.284625 51.441044 10.693466 -8.538537 51.132008 10.693466 -6.967525 54.908833 10.693466 -6.396493 54.337799 10.693466 -8.740644 47.350513 11.544477 -8.878163 47.350513 11.544477 -8.157381 50.974125 11.544477 -8.030330 50.921501 11.544477 -6.104770 54.046078 11.544477 -6.007528 53.948837 11.544477 -10.144507 51.797222 10.034885 -8.170481 56.111790 9.184192 -10.856363 52.092083 9.184192 -7.625649 55.566956 10.034885 -7.172360 50.566116 13.776260 -8.169422 47.350513 12.875295 -7.811984 47.350513 13.776260 -7.502591 50.702904 12.875295 -6.396493 54.337799 11.118972 -8.538537 51.132008 11.118972 -8.030330 50.921501 12.100342 -8.740644 47.350513 12.100342 -6.007528 53.948837 12.100342 -5.603614 53.544922 12.875295 -5.350867 53.292175 13.776260 -11.799520 47.350513 9.184192 -11.029012 47.350513 10.034885 -9.290723 47.350513 11.118972 -7.047580 50.498699 14.741920 -7.047580 44.170864 14.741920 -7.676922 47.334782 14.741920 -5.255364 53.180939 14.741920 -5.255364 41.488625 14.741920 -2.573124 54.973156 14.741920 -2.573124 39.696407 14.741920 0.590794 55.602497 14.741920 3.754713 54.973156 14.741920 3.754713 39.696407 14.741920 6.436953 53.180939 14.741920 6.436953 41.488625 14.741920 8.229169 50.498699 14.741920 8.229169 44.170864 14.741920 8.858511 47.334782 14.741920 7.926058 44.296417 113.167114 5.740982 42.184593 126.290474 6.204962 41.720612 113.167114 7.319838 44.547520 126.290474 8.229169 44.170864 93.482079 6.436953 41.488625 93.482079 5.212043 42.713531 131.277359 6.628747 44.833778 131.277359 4.979006 42.946571 132.071747 6.324269 44.959900 132.071747 -2.573124 54.973156 93.482079 0.590794 55.602497 93.482079 -1.217159 51.699566 132.852158 0.590794 52.891655 132.636093 -1.535729 52.468662 132.636093 0.590794 52.059189 132.852158 0.590794 53.540649 132.071747 -1.784089 53.068256 132.071747 0.590794 53.870213 131.277359 -1.910208 53.372734 131.277359 0.590794 54.618244 126.290474 -2.196467 54.063824 126.290474 0.590794 55.274414 113.167114 -2.447572 54.670044 113.167114 -5.255364 53.180939 93.482079 -2.749867 50.675442 132.852158 -3.338508 51.264084 132.636093 -3.797417 51.722992 132.071747 -4.030455 51.956032 131.277359 -4.559393 52.484970 126.290474 -5.023374 52.948948 113.167114 -7.047580 50.498699 93.482079 -3.773991 49.142735 132.852158 -4.543087 49.461304 132.636093 -5.142681 49.709663 132.071747 -5.447158 49.835785 131.277359 -6.138249 50.122044 126.290474 -6.744470 50.373146 113.167114 -7.676922 47.334782 93.482079 -3.773991 45.526829 132.852158 -4.133615 47.334782 132.852158 -2.749867 43.994118 132.852158 -1.217159 42.969997 132.852158 0.590794 42.610371 132.852158 2.398748 51.699566 132.852158 2.398748 42.969997 132.852158 3.931456 43.994118 132.852158 3.931456 50.675442 132.852158 4.955580 49.142735 132.852158 4.955580 45.526829 132.852158 5.315204 47.334782 132.852158 -4.966079 47.334782 132.636093 -5.615074 47.334782 132.071747 -5.944639 47.334782 131.277359 -6.692670 47.334782 126.290474 -7.348838 47.334782 113.167114 -7.047580 44.170864 93.482079 -4.543087 45.208260 132.636093 -5.142681 44.959900 132.071747 -5.447158 44.833778 131.277359 -6.138249 44.547520 126.290474 -6.744470 44.296417 113.167114 -5.255364 41.488625 93.482079 -3.338508 43.405479 132.636093 -3.797417 42.946571 132.071747 -4.030455 42.713531 131.277359 -4.559393 42.184593 126.290474 -5.023374 41.720612 113.167114 -2.573124 39.696407 93.482079 -1.535729 42.200901 132.636093 -1.784089 41.601307 132.071747 -1.910208 41.296829 131.277359 -2.196467 40.605736 126.290474 -2.447572 39.999516 113.167114 0.590794 39.067066 93.482079 0.590794 41.777908 132.636093 0.590794 41.128914 132.071747 0.590794 40.799347 131.277359 0.590794 40.051315 126.290474 0.590794 39.395149 113.167114 3.754713 39.696407 93.482079 2.717318 42.200901 132.636093 2.965677 41.601307 132.071747 3.091796 41.296829 131.277359 3.378056 40.605736 126.290474 3.629160 39.999516 113.167114 4.520097 43.405479 132.636093 5.724676 45.208260 132.636093 8.858511 47.334782 93.482079 8.530427 47.334782 113.167114 8.229169 50.498699 93.482079 5.724676 49.461304 132.636093 6.147667 47.334782 132.636093 6.324269 49.709663 132.071747 6.796663 47.334782 132.071747 6.628747 49.835785 131.277359 7.126227 47.334782 131.277359 7.874259 47.334782 126.290474 7.319838 50.122044 126.290474 7.926058 50.373146 113.167114 6.436953 53.180939 93.482079 4.520097 51.264084 132.636093 4.979006 51.722992 132.071747 5.212043 51.956032 131.277359 5.740982 52.484970 126.290474 6.204962 52.948948 113.167114 3.754713 54.973156 93.482079 2.717318 52.468662 132.636093 2.965677 53.068256 132.071747 3.091796 53.372734 131.277359 3.378056 54.063824 126.290474 3.629160 54.670044 113.167114 -1.298969 50.484386 137.575043 2.638039 53.633995 137.575043 -1.298969 53.633995 137.575043 2.638039 50.484386 137.575043 -1.298969 41.035568 137.575043 2.638039 44.185173 137.575043 -1.298969 44.185173 137.575043 2.638039 41.035568 137.575043 -5.629678 45.366276 137.575043 6.968747 49.303284 137.575043 -5.629678 49.303284 137.575043 6.968747 45.366276 137.575043 -1.298969 44.185173 139.149841 2.638039 44.185173 139.149841 -1.298969 49.303284 139.149841 -5.629678 49.303284 140.724640 2.638039 49.303284 139.149841 2.638039 49.303284 140.724640 6.968747 49.303284 140.724640 -1.298969 49.303284 140.724640 6.968747 45.366276 140.724640 2.638039 45.366276 139.149841 2.638039 45.366276 140.724640 -1.298969 45.366276 140.724640 -5.629678 45.366276 140.724640 -1.298969 45.366276 139.149841 2.638039 50.484386 139.149841 -1.298969 50.484386 139.149841 -5.629678 41.035568 136.000244 -4.799992 52.804306 135.121979 -4.799992 41.865253 135.121979 -5.629678 53.633995 136.000244 -4.259673 52.263988 134.041336 -4.259673 42.405575 134.041336 6.968747 53.633995 136.000244 6.139061 52.804306 135.121979 5.598742 52.263988 134.041336 -4.054875 52.059189 132.850632 5.393944 52.059189 132.850632 5.393944 42.610371 132.850632 5.598742 42.405575 134.041336 6.139061 41.865253 135.121979 6.968747 41.035568 136.000244 -5.629678 41.035568 140.724640 -1.298969 41.035568 140.724640 -4.054875 42.610371 132.850632 2.638039 41.035568 140.724640 -1.298969 53.633995 140.724640 2.638039 53.633995 140.724640 6.968747 53.633995 140.724640 6.968747 41.035568 140.724640 5.393944 41.865253 135.121979 5.393944 42.405575 134.041336 5.393944 41.035568 136.000244 -5.629678 53.633995 140.724640 "
							            />
						</IndexedFaceSet>
					</Shape>
				</Group>
			</Transform>
		</Transform>
	</Scene>
</X3D>