<?xml version="1.0" encoding="UTF-8"?>
<!DOCTYPE X3D PUBLIC "ISO//Web3D//DTD X3D 3.0//EN" "http://www.web3d.org/specifications/x3d-3.0.dtd">
<X3D version="3.0" profile="Immersive" xmlns:xsd="http://www.w3.org/2001/XMLSchema-instance" xsd:noNamespaceSchemaLocation="http://www.web3d.org/specifications/x3d-3.0.xsd">
	<head>
		<meta name="filename" content="22-1.x3d" />
		<meta name="created" content="2026-06-21 15:09:40" />
		<meta name="generator" content="Blender 4.5.4 LTS" />
		<meta name="translator" content="Web3D X3D/VRML2 format v2.5.1" />
	</head>
	<Scene>
		<NavigationInfo headlight="true"
		                visibilityLimit="0.0"
		                type='"EXAMINE", "ANY"'
		                avatarSize="0.25, 1.75, 0.75"
		                />
		<Background DEF="WO_World"
		            groundColor="0.051 0.051 0.051"
		            skyColor="0.051 0.051 0.051"
		            />
		<Transform DEF="_22-1_TRANSFORM"
		           translation="0.000000 0.000000 0.000000"
		           scale="1.000000 1.000000 1.000000"
		           rotation="0.000000 0.707107 0.707107 3.141593"
		           >
			<Transform DEF="_22-1_ifs_TRANSFORM"
			           translation="0.000000 0.000000 0.000000"
			           scale="1.000000 1.000000 1.000000"
			           rotation="0.000000 1.000000 0.000000 0.000000"
			           >
				<Group DEF="group_ME_22-1_001">
					<Shape>
						<Appearance>
						</Appearance>
						<IndexedFaceSet solid="false"
						                coordIndex="0 1 2 -1 1 0 3 -1 4 0 2 -1 0 4 5 -1 6 1 3 -1 1 6 7 -1 6 4 7 -1 4 6 5 -1 0 6 3 -1 6 0 5 -1 4 1 7 -1 1 4 2 -1 8 9 10 -1 10 11 8 -1 12 9 8 -1 8 13 12 -1 11 10 14 -1 14 15 11 -1 15 14 12 -1 12 13 15 -1 8 11 15 -1 15 13 8 -1 12 14 10 -1 10 9 12 -1 16 17 18 -1 17 16 19 -1 16 20 19 -1 20 16 21 -1 19 22 17 -1 22 19 23 -1 23 19 20 -1 23 20 24 -1 23 24 25 -1 25 26 27 -1 26 25 24 -1 20 26 24 -1 26 20 21 -1 25 28 23 -1 28 25 27 -1 18 22 29 -1 22 18 17 -1 18 21 16 -1 21 18 29 -1 21 29 30 -1 21 30 28 -1 21 28 26 -1 26 28 27 -1 28 30 23 -1 23 29 22 -1 29 23 30 -1 31 32 33 -1 32 31 34 -1 32 35 33 -1 35 32 36 -1 36 37 35 -1 37 36 38 -1 38 39 37 -1 39 38 40 -1 40 41 39 -1 41 40 42 -1 42 43 41 -1 43 42 44 -1 44 45 43 -1 45 44 46 -1 46 47 45 -1 47 46 48 -1 48 49 47 -1 49 48 50 -1 50 51 49 -1 51 50 52 -1 52 53 51 -1 53 52 54 -1 54 55 53 -1 55 54 56 -1 56 57 55 -1 57 56 58 -1 58 59 57 -1 59 58 60 -1 59 61 62 -1 61 59 60 -1 61 63 62 -1 63 61 64 -1 64 65 63 -1 65 64 66 -1 66 67 65 -1 67 66 68 -1 68 69 67 -1 69 68 70 -1 70 71 69 -1 71 70 72 -1 72 73 71 -1 73 72 74 -1 73 75 76 -1 75 73 74 -1 76 77 78 -1 77 76 75 -1 77 79 78 -1 79 77 80 -1 79 81 82 -1 81 79 80 -1 81 83 82 -1 83 81 84 -1 84 85 83 -1 85 84 86 -1 87 34 31 -1 34 87 88 -1 55 51 53 -1 51 55 57 -1 51 57 59 -1 67 63 65 -1 89 83 85 -1 83 89 90 -1 90 89 91 -1 47 43 45 -1 43 47 41 -1 41 47 49 -1 41 49 39 -1 39 49 51 -1 39 51 37 -1 37 51 35 -1 35 51 92 -1 92 51 93 -1 93 51 59 -1 93 59 62 -1 93 62 63 -1 93 63 94 -1 94 63 67 -1 94 67 69 -1 94 69 71 -1 94 71 73 -1 94 73 76 -1 94 76 78 -1 94 78 79 -1 94 79 90 -1 90 79 82 -1 90 82 83 -1 31 95 87 -1 95 31 92 -1 92 31 33 -1 92 33 35 -1 86 89 85 -1 89 86 96 -1 91 97 90 -1 97 91 98 -1 97 94 90 -1 94 97 99 -1 94 100 93 -1 100 94 99 -1 93 101 92 -1 101 93 100 -1 101 95 92 -1 95 101 102 -1 89 98 91 -1 98 89 96 -1 102 87 95 -1 87 102 88 -1 102 34 88 -1 34 102 101 -1 34 101 32 -1 32 101 36 -1 44 48 46 -1 48 44 42 -1 48 42 50 -1 50 42 40 -1 50 40 52 -1 52 40 38 -1 52 38 36 -1 52 36 101 -1 52 101 100 -1 52 100 60 -1 60 100 61 -1 61 100 64 -1 64 100 99 -1 64 99 68 -1 68 99 70 -1 70 99 72 -1 72 99 74 -1 74 99 75 -1 75 99 77 -1 77 99 80 -1 80 99 97 -1 80 97 81 -1 81 97 84 -1 84 96 86 -1 96 84 97 -1 96 97 98 -1 68 66 64 -1 52 56 54 -1 56 52 58 -1 58 52 60 -1 103 104 105 -1 104 103 106 -1 107 108 109 -1 108 107 110 -1 106 111 104 -1 111 106 112 -1 108 105 109 -1 105 108 103 -1 110 103 108 -1 103 110 106 -1 106 110 113 -1 106 113 112 -1 114 110 107 -1 110 114 113 -1 111 113 114 -1 113 111 112 -1 105 107 109 -1 107 105 104 -1 107 104 114 -1 114 104 111 -1 115 17 116 -1 17 115 18 -1 22 117 118 -1 117 22 119 -1 119 22 29 -1 118 120 121 -1 120 118 117 -1 122 121 123 -1 121 122 116 -1 121 116 118 -1 118 116 17 -1 118 17 22 -1 121 124 123 -1 124 121 125 -1 125 121 120 -1 117 125 120 -1 125 117 119 -1 125 126 124 -1 126 125 115 -1 115 125 119 -1 115 119 18 -1 18 119 29 -1 126 116 122 -1 116 126 115 -1 126 123 124 -1 123 126 122 -1 127 128 129 -1 128 127 130 -1 127 131 130 -1 131 127 132 -1 130 133 128 -1 133 130 134 -1 134 130 131 -1 134 131 135 -1 134 135 136 -1 136 137 138 -1 137 136 135 -1 131 137 135 -1 137 131 132 -1 136 139 134 -1 139 136 138 -1 129 133 140 -1 133 129 128 -1 129 132 127 -1 132 129 140 -1 132 140 141 -1 132 141 139 -1 132 139 137 -1 137 139 138 -1 139 141 134 -1 134 140 133 -1 140 134 141 -1 142 143 144 -1 143 142 145 -1 143 146 144 -1 146 143 147 -1 147 148 146 -1 148 147 149 -1 149 150 148 -1 150 149 151 -1 151 152 150 -1 152 151 153 -1 153 154 152 -1 154 153 155 -1 155 156 154 -1 156 155 157 -1 157 158 156 -1 158 157 159 -1 159 160 158 -1 160 159 161 -1 161 162 160 -1 162 161 163 -1 163 164 162 -1 164 163 165 -1 165 166 164 -1 166 165 167 -1 167 168 166 -1 168 167 169 -1 169 170 168 -1 170 169 171 -1 170 172 173 -1 172 170 171 -1 172 174 173 -1 174 172 175 -1 175 176 174 -1 176 175 177 -1 177 178 176 -1 178 177 179 -1 179 180 178 -1 180 179 181 -1 181 182 180 -1 182 181 183 -1 183 184 182 -1 184 183 185 -1 184 186 187 -1 186 184 185 -1 187 188 189 -1 188 187 186 -1 188 190 189 -1 190 188 191 -1 190 192 193 -1 192 190 191 -1 192 194 193 -1 194 192 195 -1 195 196 194 -1 196 195 197 -1 198 145 142 -1 145 198 199 -1 166 162 164 -1 162 166 168 -1 162 168 170 -1 178 174 176 -1 200 194 196 -1 194 200 201 -1 201 200 202 -1 158 154 156 -1 154 158 152 -1 152 158 160 -1 152 160 150 -1 150 160 162 -1 150 162 148 -1 148 162 146 -1 146 162 203 -1 203 162 204 -1 204 162 170 -1 204 170 173 -1 204 173 174 -1 204 174 205 -1 205 174 178 -1 205 178 180 -1 205 180 182 -1 205 182 184 -1 205 184 187 -1 205 187 189 -1 205 189 190 -1 205 190 201 -1 201 190 193 -1 201 193 194 -1 142 206 198 -1 206 142 203 -1 203 142 144 -1 203 144 146 -1 197 200 196 -1 200 197 207 -1 202 208 201 -1 208 202 209 -1 208 205 201 -1 205 208 210 -1 205 211 204 -1 211 205 210 -1 204 212 203 -1 212 204 211 -1 212 206 203 -1 206 212 213 -1 200 209 202 -1 209 200 207 -1 213 198 206 -1 198 213 199 -1 213 145 199 -1 145 213 212 -1 145 212 143 -1 143 212 147 -1 155 159 157 -1 159 155 153 -1 159 153 161 -1 161 153 151 -1 161 151 163 -1 163 151 149 -1 163 149 147 -1 163 147 212 -1 163 212 211 -1 163 211 171 -1 171 211 172 -1 172 211 175 -1 175 211 210 -1 175 210 179 -1 179 210 181 -1 181 210 183 -1 183 210 185 -1 185 210 186 -1 186 210 188 -1 188 210 191 -1 191 210 208 -1 191 208 192 -1 192 208 195 -1 195 207 197 -1 207 195 208 -1 207 208 209 -1 179 177 175 -1 163 167 165 -1 167 163 169 -1 169 163 171 -1 214 215 216 -1 215 214 217 -1 218 219 220 -1 219 218 221 -1 217 222 215 -1 222 217 223 -1 219 216 220 -1 216 219 214 -1 221 214 219 -1 214 221 217 -1 217 221 224 -1 217 224 223 -1 225 221 218 -1 221 225 224 -1 222 224 225 -1 224 222 223 -1 216 218 220 -1 218 216 215 -1 218 215 225 -1 225 215 222 -1 226 128 227 -1 128 226 129 -1 133 228 229 -1 228 133 230 -1 230 133 140 -1 229 231 232 -1 231 229 228 -1 233 232 234 -1 232 233 227 -1 232 227 229 -1 229 227 128 -1 229 128 133 -1 232 235 234 -1 235 232 236 -1 236 232 231 -1 228 236 231 -1 236 228 230 -1 236 237 235 -1 237 236 226 -1 226 236 230 -1 226 230 129 -1 129 230 140 -1 237 227 233 -1 227 237 226 -1 237 234 235 -1 234 237 233 -1 238 239 240 -1 240 241 238 -1 240 242 241 -1 242 243 241 -1 243 244 241 -1 243 245 244 -1 245 246 244 -1 245 247 246 -1 247 248 246 -1 247 249 248 -1 247 250 249 -1 250 251 249 -1 250 252 251 -1 252 253 251 -1 254 255 256 -1 256 257 254 -1 252 250 255 -1 255 254 252 -1 257 256 258 -1 258 259 257 -1 259 258 260 -1 260 261 259 -1 262 263 264 -1 264 265 262 -1 263 266 267 -1 267 264 263 -1 266 268 269 -1 269 267 266 -1 268 270 271 -1 271 269 268 -1 270 272 273 -1 273 271 270 -1 272 244 246 -1 246 273 272 -1 274 275 263 -1 263 262 274 -1 275 276 266 -1 266 263 275 -1 276 277 268 -1 268 266 276 -1 277 278 270 -1 270 268 277 -1 278 279 272 -1 272 270 278 -1 279 241 244 -1 244 272 279 -1 280 281 275 -1 275 274 280 -1 281 282 276 -1 276 275 281 -1 276 282 283 -1 283 277 276 -1 277 283 284 -1 284 278 277 -1 278 284 285 -1 285 279 278 -1 279 285 238 -1 238 241 279 -1 286 287 280 -1 280 274 286 -1 274 288 286 -1 274 289 288 -1 274 262 289 -1 262 290 289 -1 262 265 290 -1 265 291 290 -1 291 292 290 -1 291 293 292 -1 291 294 293 -1 294 295 293 -1 295 296 293 -1 295 297 296 -1 287 298 281 -1 281 280 287 -1 298 299 282 -1 282 281 298 -1 282 299 300 -1 300 283 282 -1 283 300 301 -1 301 284 283 -1 284 301 302 -1 302 285 284 -1 285 302 239 -1 239 238 285 -1 303 298 287 -1 287 286 303 -1 304 299 298 -1 298 303 304 -1 304 305 300 -1 300 299 304 -1 305 306 301 -1 301 300 305 -1 306 307 302 -1 302 301 306 -1 307 240 239 -1 239 302 307 -1 308 303 286 -1 286 288 308 -1 309 304 303 -1 303 308 309 -1 309 310 305 -1 305 304 309 -1 310 311 306 -1 306 305 310 -1 311 312 307 -1 307 306 311 -1 312 242 240 -1 240 307 312 -1 313 308 288 -1 288 289 313 -1 314 309 308 -1 308 313 314 -1 314 315 310 -1 310 309 314 -1 315 316 311 -1 311 310 315 -1 316 317 312 -1 312 311 316 -1 317 243 242 -1 242 312 317 -1 318 313 289 -1 289 290 318 -1 319 314 313 -1 313 318 319 -1 319 320 315 -1 315 314 319 -1 320 321 316 -1 316 315 320 -1 321 322 317 -1 317 316 321 -1 245 243 317 -1 317 322 245 -1 323 318 290 -1 290 292 323 -1 319 318 323 -1 323 324 319 -1 324 325 320 -1 320 319 324 -1 325 326 321 -1 321 320 325 -1 326 327 322 -1 322 321 326 -1 327 247 245 -1 245 322 327 -1 323 292 293 -1 293 328 323 -1 324 323 328 -1 328 260 324 -1 260 258 325 -1 325 324 260 -1 258 256 326 -1 326 325 258 -1 256 255 327 -1 327 326 256 -1 255 250 247 -1 247 327 255 -1 328 293 296 -1 296 329 328 -1 253 252 254 -1 254 330 253 -1 297 295 331 -1 331 332 297 -1 332 331 333 -1 333 334 332 -1 335 336 334 -1 334 333 335 -1 337 338 336 -1 336 335 337 -1 339 330 338 -1 338 337 339 -1 251 253 330 -1 330 339 251 -1 295 294 340 -1 340 331 295 -1 331 340 341 -1 341 333 331 -1 335 333 341 -1 341 342 335 -1 337 335 342 -1 342 343 337 -1 339 337 343 -1 343 344 339 -1 251 339 344 -1 344 249 251 -1 294 291 345 -1 345 340 294 -1 340 345 346 -1 346 341 340 -1 346 347 342 -1 342 341 346 -1 347 348 343 -1 343 342 347 -1 348 349 344 -1 344 343 348 -1 349 248 249 -1 249 344 349 -1 291 265 264 -1 264 345 291 -1 345 264 267 -1 267 346 345 -1 267 269 347 -1 347 346 267 -1 269 271 348 -1 348 347 269 -1 271 273 349 -1 349 348 271 -1 273 246 248 -1 248 349 273 -1 338 257 259 -1 259 336 338 -1 329 296 297 -1 297 332 329 -1 336 259 261 -1 261 334 336 -1 330 254 257 -1 257 338 330 -1 261 329 332 -1 332 334 261 -1 260 328 329 -1 329 261 260 -1 350 351 352 -1 351 350 353 -1 354 350 352 -1 350 354 355 -1 356 351 353 -1 351 356 357 -1 356 354 357 -1 354 356 355 -1 350 356 353 -1 356 350 355 -1 354 351 357 -1 351 354 352 -1 358 359 360 -1 360 361 358 -1 362 359 358 -1 358 363 362 -1 361 360 364 -1 364 365 361 -1 365 364 362 -1 362 363 365 -1 358 361 365 -1 365 363 358 -1 362 364 360 -1 360 359 362 -1 366 367 368 -1 367 366 369 -1 370 371 372 -1 371 370 367 -1 371 367 373 -1 373 367 369 -1 373 369 374 -1 374 369 375 -1 374 375 376 -1 376 375 377 -1 376 377 378 -1 378 377 379 -1 378 379 380 -1 380 379 381 -1 380 381 382 -1 382 381 383 -1 382 383 384 -1 384 383 385 -1 384 385 386 -1 386 385 387 -1 386 387 388 -1 388 387 389 -1 388 389 390 -1 390 389 391 -1 389 392 391 -1 392 389 393 -1 394 385 383 -1 385 394 395 -1 396 377 375 -1 377 396 397 -1 368 370 398 -1 370 368 367 -1 399 383 381 -1 383 399 394 -1 385 400 387 -1 400 385 395 -1 401 381 379 -1 381 401 399 -1 402 398 403 -1 398 402 404 -1 398 404 368 -1 368 404 405 -1 368 405 366 -1 366 405 406 -1 366 406 396 -1 396 406 407 -1 396 407 397 -1 397 407 408 -1 397 408 401 -1 401 408 399 -1 399 408 409 -1 399 409 410 -1 399 410 394 -1 394 410 411 -1 394 411 395 -1 395 411 412 -1 395 412 400 -1 400 412 413 -1 400 413 393 -1 393 413 392 -1 406 374 376 -1 374 406 405 -1 409 380 382 -1 380 409 408 -1 404 374 405 -1 374 404 373 -1 408 378 380 -1 378 408 407 -1 391 413 390 -1 413 391 392 -1 403 371 402 -1 371 403 372 -1 411 384 386 -1 384 411 410 -1 390 412 388 -1 412 390 413 -1 397 379 377 -1 379 397 401 -1 366 375 369 -1 375 366 396 -1 402 373 404 -1 373 402 371 -1 410 382 384 -1 382 410 409 -1 387 393 389 -1 393 387 400 -1 388 411 386 -1 411 388 412 -1 398 372 403 -1 372 398 370 -1 407 376 378 -1 376 407 406 -1 414 415 416 -1 415 414 417 -1 418 419 420 -1 419 418 415 -1 419 415 421 -1 421 415 417 -1 421 417 422 -1 422 417 423 -1 422 423 424 -1 424 423 425 -1 424 425 426 -1 426 425 427 -1 426 427 428 -1 428 427 429 -1 428 429 430 -1 430 429 431 -1 430 431 432 -1 432 431 433 -1 432 433 434 -1 434 433 435 -1 434 435 436 -1 436 435 437 -1 436 437 438 -1 438 437 439 -1 437 440 439 -1 440 437 441 -1 442 433 431 -1 433 442 443 -1 444 425 423 -1 425 444 445 -1 416 418 446 -1 418 416 415 -1 447 431 429 -1 431 447 442 -1 433 448 435 -1 448 433 443 -1 449 429 427 -1 429 449 447 -1 450 446 451 -1 446 450 452 -1 446 452 416 -1 416 452 453 -1 416 453 414 -1 414 453 454 -1 414 454 444 -1 444 454 455 -1 444 455 445 -1 445 455 456 -1 445 456 449 -1 449 456 447 -1 447 456 457 -1 447 457 458 -1 447 458 442 -1 442 458 459 -1 442 459 443 -1 443 459 460 -1 443 460 448 -1 448 460 461 -1 448 461 441 -1 441 461 440 -1 454 422 424 -1 422 454 453 -1 457 428 430 -1 428 457 456 -1 452 422 453 -1 422 452 421 -1 456 426 428 -1 426 456 455 -1 439 461 438 -1 461 439 440 -1 451 419 450 -1 419 451 420 -1 459 432 434 -1 432 459 458 -1 438 460 436 -1 460 438 461 -1 445 427 425 -1 427 445 449 -1 414 423 417 -1 423 414 444 -1 450 421 452 -1 421 450 419 -1 458 430 432 -1 430 458 457 -1 435 441 437 -1 441 435 448 -1 436 459 434 -1 459 436 460 -1 446 420 451 -1 420 446 418 -1 455 424 426 -1 424 455 454 -1 462 463 464 -1 463 462 465 -1 462 466 465 -1 466 462 467 -1 465 468 463 -1 468 465 469 -1 469 465 466 -1 469 466 470 -1 469 470 471 -1 471 472 473 -1 472 471 470 -1 466 472 470 -1 472 466 467 -1 471 474 469 -1 474 471 473 -1 464 468 475 -1 468 464 463 -1 464 467 462 -1 467 464 475 -1 467 475 476 -1 467 476 474 -1 467 474 472 -1 472 474 473 -1 474 476 469 -1 469 475 468 -1 475 469 476 -1 477 478 479 -1 478 477 480 -1 478 481 479 -1 481 478 482 -1 482 483 481 -1 483 482 484 -1 484 485 483 -1 485 484 486 -1 486 487 485 -1 487 486 488 -1 488 489 487 -1 489 488 490 -1 490 491 489 -1 491 490 492 -1 492 493 491 -1 493 492 494 -1 494 495 493 -1 495 494 496 -1 496 497 495 -1 497 496 498 -1 498 499 497 -1 499 498 500 -1 500 501 499 -1 501 500 502 -1 502 503 501 -1 503 502 504 -1 504 505 503 -1 505 504 506 -1 505 507 508 -1 507 505 506 -1 507 509 508 -1 509 507 510 -1 510 511 509 -1 511 510 512 -1 512 513 511 -1 513 512 514 -1 514 515 513 -1 515 514 516 -1 516 517 515 -1 517 516 518 -1 518 519 517 -1 519 518 520 -1 519 521 522 -1 521 519 520 -1 522 523 524 -1 523 522 521 -1 523 525 524 -1 525 523 526 -1 525 527 528 -1 527 525 526 -1 527 529 528 -1 529 527 530 -1 530 531 529 -1 531 530 532 -1 533 480 477 -1 480 533 534 -1 501 497 499 -1 497 501 503 -1 497 503 505 -1 513 509 511 -1 535 529 531 -1 529 535 536 -1 536 535 537 -1 493 489 491 -1 489 493 487 -1 487 493 495 -1 487 495 485 -1 485 495 497 -1 485 497 483 -1 483 497 481 -1 481 497 538 -1 538 497 539 -1 539 497 505 -1 539 505 508 -1 539 508 509 -1 539 509 540 -1 540 509 513 -1 540 513 515 -1 540 515 517 -1 540 517 519 -1 540 519 522 -1 540 522 524 -1 540 524 525 -1 540 525 536 -1 536 525 528 -1 536 528 529 -1 477 541 533 -1 541 477 538 -1 538 477 479 -1 538 479 481 -1 532 535 531 -1 535 532 542 -1 537 543 536 -1 543 537 544 -1 543 540 536 -1 540 543 545 -1 540 546 539 -1 546 540 545 -1 539 547 538 -1 547 539 546 -1 547 541 538 -1 541 547 548 -1 535 544 537 -1 544 535 542 -1 548 533 541 -1 533 548 534 -1 548 480 534 -1 480 548 547 -1 480 547 478 -1 478 547 482 -1 490 494 492 -1 494 490 488 -1 494 488 496 -1 496 488 486 -1 496 486 498 -1 498 486 484 -1 498 484 482 -1 498 482 547 -1 498 547 546 -1 498 546 506 -1 506 546 507 -1 507 546 510 -1 510 546 545 -1 510 545 514 -1 514 545 516 -1 516 545 518 -1 518 545 520 -1 520 545 521 -1 521 545 523 -1 523 545 526 -1 526 545 543 -1 526 543 527 -1 527 543 530 -1 530 542 532 -1 542 530 543 -1 542 543 544 -1 514 512 510 -1 498 502 500 -1 502 498 504 -1 504 498 506 -1 549 550 551 -1 550 549 552 -1 553 554 555 -1 554 553 556 -1 552 557 550 -1 557 552 558 -1 554 551 555 -1 551 554 549 -1 556 549 554 -1 549 556 552 -1 552 556 559 -1 552 559 558 -1 560 556 553 -1 556 560 559 -1 557 559 560 -1 559 557 558 -1 551 553 555 -1 553 551 550 -1 553 550 560 -1 560 550 557 -1 561 463 562 -1 463 561 464 -1 468 563 564 -1 563 468 565 -1 565 468 475 -1 564 566 567 -1 566 564 563 -1 568 567 569 -1 567 568 562 -1 567 562 564 -1 564 562 463 -1 564 463 468 -1 567 570 569 -1 570 567 571 -1 571 567 566 -1 563 571 566 -1 571 563 565 -1 571 572 570 -1 572 571 561 -1 561 571 565 -1 561 565 464 -1 464 565 475 -1 572 562 568 -1 562 572 561 -1 572 569 570 -1 569 572 568 -1 573 574 575 -1 575 576 573 -1 577 574 573 -1 573 578 577 -1 576 575 579 -1 579 580 576 -1 580 579 577 -1 577 578 580 -1 573 576 580 -1 580 578 573 -1 577 579 575 -1 575 574 577 -1 581 582 583 -1 582 581 584 -1 585 581 583 -1 581 585 586 -1 587 582 584 -1 582 587 588 -1 587 585 588 -1 585 587 586 -1 581 587 584 -1 587 581 586 -1 585 582 588 -1 582 585 583 -1 "
						                >
							<Coordinate DEF="coords_ME_22-1_001"
							            point="-89.288681 22.148296 129.606873 -77.477654 -70.024033 129.606873 -89.288681 -70.024033 129.606873 -77.477654 22.148296 129.606873 -89.288681 -70.024033 133.543884 -89.288681 22.148296 133.543884 -77.477654 22.148296 133.543884 -77.477654 -70.024033 133.543884 -89.288681 -0.686350 58.002754 -89.288681 -0.686350 156.378525 -77.477654 -0.686350 156.378525 -77.477654 -0.686350 58.002754 -89.288681 -4.623357 156.378525 -89.288681 -4.623357 58.002754 -77.477654 -4.623357 156.378525 -77.477654 -4.623357 58.002754 -116.396645 -28.283880 110.957352 -115.296738 -23.577187 105.642059 -115.296738 -28.588179 110.653046 -116.396645 -23.272886 105.946358 -90.310654 32.027939 161.247177 -90.310654 27.016945 166.258179 -114.930099 -23.678619 105.540627 -84.217575 31.827559 161.046799 -85.841942 51.083771 180.303009 -83.138031 50.959858 180.179092 -85.841942 46.072777 185.314011 -83.138031 45.948864 185.190094 -84.217575 26.816565 166.057800 -114.930099 -28.689613 110.551613 -107.764633 -15.739598 123.501633 -77.167397 18.900885 158.698898 -77.485069 24.762264 153.424728 -77.485069 19.194494 158.992508 -77.167397 24.468655 153.131119 -77.532425 19.562656 159.360657 -77.532425 25.130426 153.792892 -77.335381 19.835827 159.633835 -77.335381 25.403595 154.066055 -77.294876 19.891973 159.689987 -77.294876 25.459743 154.122208 -76.845596 20.081017 159.879028 -76.845596 25.648787 154.311249 -76.396309 20.270058 160.068069 -76.396309 25.837828 154.500290 -76.158768 20.599377 160.397385 -76.158768 26.167147 154.829605 -76.206123 20.967537 160.765549 -76.206123 26.535307 155.197769 -76.523796 21.261147 161.059158 -76.523796 26.828917 155.491379 -77.013939 21.389772 161.187775 -77.013939 26.957542 155.620010 -75.845230 21.840782 161.638794 -75.845230 27.408552 156.071014 -75.414574 22.731628 162.529633 -75.414574 28.299398 156.961868 -75.681427 23.162882 162.960892 -75.681427 28.730652 157.393112 -75.948288 23.594137 163.392136 -75.948288 29.161907 157.824371 -77.165878 29.542789 158.205261 -77.165878 23.975019 163.773026 -78.427467 23.674110 163.472122 -78.427467 29.241880 157.904343 -78.228447 24.015959 163.813965 -78.228447 29.583729 158.246201 -78.317841 24.380194 164.178207 -78.317841 29.947964 158.610428 -78.668121 24.654633 164.452637 -78.668121 30.222403 158.884872 -79.171394 24.754744 164.552750 -79.171394 30.322514 158.984985 -79.672653 24.649693 164.447693 -79.672653 30.217463 158.879929 -80.211075 30.050877 158.713348 -80.211075 24.483107 164.281113 -80.721199 30.047949 158.710419 -80.721199 24.480179 164.278183 -81.149269 24.676384 164.474396 -81.149269 30.244154 158.906616 -81.353760 30.574625 159.237091 -81.353760 25.006855 164.804855 -81.267059 25.362329 165.160339 -81.267059 30.930099 159.592560 -80.917839 25.625277 165.423279 -80.917839 31.193047 159.855515 -76.677254 18.772261 158.570267 -76.677254 24.340031 153.002502 -84.217575 26.538176 166.336182 -139.540741 -76.130821 63.667187 -139.837326 -73.982368 65.815636 -131.851227 -78.258186 61.539818 -134.856155 -78.638977 61.159027 -137.699112 -77.852455 61.945553 -129.571472 -76.822502 62.975506 -84.217575 32.105946 160.768417 -139.540741 -70.563049 58.099419 -139.837326 -68.414597 60.247868 -137.699112 -72.284683 56.377785 -134.856155 -73.071213 55.591255 -131.851227 -72.690414 55.972050 -129.571472 -71.254730 57.407734 -171.992249 -100.736702 37.947746 -146.085434 -66.885368 62.890656 -171.992249 -96.282486 33.493530 -146.085434 -71.339584 67.344872 -145.049835 -67.289391 62.486629 -170.989853 -101.178398 37.506054 -170.989853 -96.724182 33.051838 -145.049835 -71.743607 66.940849 -116.359703 -23.491497 106.284523 -116.359703 -27.945713 110.738739 -115.296738 -28.309792 110.374664 -115.296738 -23.855576 105.920448 -145.049835 -72.021996 67.219238 -145.049835 -67.011002 62.208241 -138.704071 -66.923286 62.852734 -138.704071 -66.644897 62.574345 -138.704071 -71.655891 67.585335 -139.993347 -68.921028 60.854992 -139.993347 -68.642639 60.576603 -170.989853 -96.445793 32.773449 -166.311966 -98.507034 30.712208 -166.311966 -103.518028 35.723202 -139.993347 -73.653633 65.587601 -170.989853 -101.456787 37.784443 24.533644 -28.407793 106.509674 19.218351 -23.701099 105.409760 24.229345 -28.712091 105.409760 19.522652 -23.396799 106.509674 74.823479 31.904026 80.423676 79.834473 26.893032 80.423676 19.116919 -23.802532 105.043121 74.623093 31.703646 74.330605 93.879311 50.959858 75.954964 93.755394 50.835945 73.251053 98.890297 45.948864 75.954964 98.766388 45.824951 73.251053 79.634087 26.692652 74.330605 24.127911 -28.813526 105.043121 37.077927 -15.863511 97.877655 72.275185 18.776972 67.280418 67.001030 24.638351 67.598091 72.568794 19.070581 67.598091 66.707420 24.344742 67.280418 72.936958 19.438744 67.645447 67.369186 25.006514 67.645447 73.210129 19.711914 67.448402 67.642357 25.279684 67.448402 73.266273 19.768063 67.407898 67.698509 25.335831 67.407898 73.455315 19.957104 66.958618 67.887550 25.524874 66.958618 73.644356 20.146145 66.509338 68.076591 25.713915 66.509338 73.973679 20.475464 66.271790 68.405907 26.043234 66.271790 74.341835 20.843624 66.319145 68.774071 26.411394 66.319145 74.635445 21.137234 66.636818 69.067680 26.705004 66.636818 74.764076 21.265860 67.126961 69.196304 26.833630 67.126961 75.215080 21.716869 65.958260 69.647316 27.284639 65.958260 76.105927 22.607716 65.527596 70.538162 28.175486 65.527596 76.537186 23.038969 65.794456 70.969414 28.606739 65.794456 76.968437 23.470224 66.061310 71.400665 29.037994 66.061310 71.781548 29.418877 67.278908 77.349319 23.851107 67.278908 77.048409 23.550198 68.540489 71.480644 29.117968 68.540489 77.390259 23.892046 68.341469 71.822487 29.459816 68.341469 77.754494 24.256281 68.430870 72.186729 29.824051 68.430870 78.028931 24.530720 68.781151 72.461166 30.098490 68.781151 78.129044 24.630831 69.284424 72.561272 30.198601 69.284424 78.023994 24.525780 69.785675 72.456223 30.093550 69.785675 72.289635 29.926964 70.324104 77.857407 24.359194 70.324104 72.286713 29.924036 70.834221 77.854477 24.356266 70.834221 78.050682 24.552471 71.262291 72.482918 30.120241 71.262291 72.813385 30.450712 71.466782 78.381157 24.882942 71.466782 78.736633 25.238417 71.380089 73.168861 30.806187 71.380089 78.999580 25.501364 71.030869 73.431808 31.069134 71.030869 72.146561 18.648348 66.790276 66.578789 24.216118 66.790276 79.912476 26.414263 74.330605 -22.756517 -76.254730 129.653763 -20.608067 -74.106277 129.950348 -24.883886 -78.382103 121.964249 -25.264679 -78.762894 124.969177 -24.478151 -77.976364 127.812134 -23.448200 -76.946411 119.684502 74.344711 31.982033 74.330605 -28.324286 -70.686958 129.653763 -26.175837 -68.538513 129.950348 -30.045921 -72.408592 127.812134 -30.832447 -73.195122 124.969177 -30.451656 -72.814331 121.964249 -29.015970 -71.378647 119.684502 -48.475956 -100.860619 162.105270 -23.533051 -67.009277 136.198456 -52.930172 -96.406403 162.105270 -19.078835 -71.463493 136.198456 -23.937073 -67.413300 135.162857 -48.917652 -101.302307 161.102875 -53.371868 -96.848099 161.102875 -19.482859 -71.867516 135.162857 19.860817 -23.615410 106.472725 24.315033 -28.069626 106.472725 23.950956 -28.433704 105.409760 19.496740 -23.979488 105.409760 -19.204470 -72.145905 135.162857 -24.215462 -67.134911 135.162857 -23.570971 -67.047195 128.817108 -23.849360 -66.768814 128.817108 -18.838367 -71.779800 128.817108 -25.568712 -69.044937 130.106369 -25.847099 -68.766548 130.106369 -53.650257 -96.569710 161.102875 -55.711498 -98.630951 156.424988 -50.700504 -103.641945 156.424988 -20.836107 -73.777542 130.106369 -48.639263 -101.580696 161.102875 14.015170 -29.503077 -1.299213 13.385828 -26.339159 -1.299213 14.015170 -23.175240 -1.299213 15.807385 -32.185318 -1.299213 15.807385 -20.493000 -1.299213 18.489626 -18.700785 -1.299213 18.489626 -33.977531 -1.299213 21.653543 -18.071442 -1.299213 21.653543 -34.606876 -1.299213 24.817463 -18.700785 -1.299213 24.817463 -33.977531 -1.299213 27.499702 -32.185318 -1.299213 27.499702 -20.493000 -1.299213 29.291918 -29.503077 -1.299213 29.291918 -23.175240 -1.299213 29.921261 -26.339159 -1.299213 28.988808 -23.300793 18.385826 27.267712 -20.724991 18.385826 26.803732 -21.188971 31.509186 28.382587 -23.551897 31.509186 26.274794 -21.717909 36.496063 27.691498 -23.838156 36.496063 26.041756 -21.950947 37.290459 27.387018 -23.964275 37.290459 19.845591 -30.703943 38.070866 19.527021 -31.473040 37.854805 21.653543 -31.896032 37.854805 21.653543 -31.063568 38.070866 19.278662 -32.072632 37.290459 21.653543 -32.545029 37.290459 19.152542 -32.377110 36.496063 21.653543 -32.874592 36.496063 18.866283 -33.068203 31.509186 21.653543 -33.622623 31.509186 18.615179 -33.674423 18.385826 21.653543 -34.278790 18.385826 18.312881 -29.679821 38.070866 17.724241 -30.268461 37.854805 17.265333 -30.727369 37.290459 17.032295 -30.960407 36.496063 16.503357 -31.489346 31.509186 16.039375 -31.953327 18.385826 17.288759 -28.147112 38.070866 16.519663 -28.465681 37.854805 15.920070 -28.714041 37.290459 15.615591 -28.840160 36.496063 14.924500 -29.126419 31.509186 14.318280 -29.377523 18.385826 17.288759 -24.531206 38.070866 16.929134 -26.339159 38.070866 18.312881 -22.998497 38.070866 19.845591 -21.974373 38.070866 21.653543 -21.614750 38.070866 23.461498 -30.703943 38.070866 23.461498 -21.974373 38.070866 24.994205 -22.998497 38.070866 24.994205 -29.679821 38.070866 26.018330 -28.147112 38.070866 26.018330 -24.531206 38.070866 26.377954 -26.339159 38.070866 16.096670 -26.339159 37.854805 15.447676 -26.339159 37.290459 15.118112 -26.339159 36.496063 14.370080 -26.339159 31.509186 13.713912 -26.339159 18.385826 16.519663 -24.212635 37.854805 15.920070 -23.964275 37.290459 15.615591 -23.838156 36.496063 14.924500 -23.551897 31.509186 14.318280 -23.300793 18.385826 17.724241 -22.409855 37.854805 17.265333 -21.950947 37.290459 17.032295 -21.717909 36.496063 16.503357 -21.188971 31.509186 16.039375 -20.724991 18.385826 19.527021 -21.205276 37.854805 19.278662 -20.605684 37.290459 19.152542 -20.301205 36.496063 18.866283 -19.610115 31.509186 18.615179 -19.003895 18.385826 21.653543 -20.782286 37.854805 21.653543 -20.133289 37.290459 21.653543 -19.803726 36.496063 21.653543 -19.055695 31.509186 21.653543 -18.399527 18.385826 23.780067 -21.205276 37.854805 24.028427 -20.605684 37.290459 24.154547 -20.301205 36.496063 24.440805 -19.610115 31.509186 24.691910 -19.003895 18.385826 25.582848 -22.409855 37.854805 26.787426 -24.212635 37.854805 29.593176 -26.339159 18.385826 26.787426 -28.465681 37.854805 27.210417 -26.339159 37.854805 27.387018 -28.714041 37.290459 27.859413 -26.339159 37.290459 27.691498 -28.840160 36.496063 28.188978 -26.339159 36.496063 28.382587 -29.126419 31.509186 28.937008 -26.339159 31.509186 28.988808 -29.377523 18.385826 25.582848 -30.268461 37.854805 26.041756 -30.727369 37.290459 26.274794 -30.960407 36.496063 26.803732 -31.489346 31.509186 27.267712 -31.953327 18.385826 23.780067 -31.473040 37.854805 24.028427 -32.072632 37.290459 24.154547 -32.377110 36.496063 24.440805 -33.068203 31.509186 24.691910 -33.674423 18.385826 43.307087 22.148296 79.401703 43.307087 -94.035721 67.590683 43.307087 -94.035721 79.401703 43.307087 22.148296 67.590683 47.244095 -94.035721 79.401703 47.244095 22.148296 79.401703 47.244095 22.148296 67.590683 47.244095 -94.035721 67.590683 -46.013573 -0.686350 79.401703 70.078743 -0.686350 79.401703 70.078743 -0.686350 67.590683 -46.013573 -0.686350 67.590683 70.078743 -4.623357 79.401703 -46.013573 -4.623357 79.401703 70.078743 -4.623357 67.590683 -46.013573 -4.623357 67.590683 -70.186806 -72.958740 72.104248 -14.517510 -73.366432 71.791420 -70.186806 -73.366432 71.791420 -14.517510 -72.958740 72.104248 -14.517510 -73.841194 71.594765 -14.517510 -74.860168 71.594765 -14.517510 -74.350685 71.527687 -14.517510 -75.334938 71.791420 -14.517510 -75.742622 72.104248 -14.517510 -72.645912 72.511940 -14.517510 -76.055458 72.511940 -14.517510 -72.449257 72.986702 -14.517510 -76.252113 72.986702 -14.517510 -72.382179 73.496193 -14.517510 -76.319191 73.496193 -14.517510 -72.449257 74.005676 -14.517510 -76.252113 74.005676 -14.517510 -72.645912 74.480446 -14.517510 -76.055458 74.480446 -14.517510 -72.958740 74.888138 -14.517510 -75.742622 74.888138 -14.517510 -73.366432 75.200966 -14.517510 -75.334938 75.200966 -14.517510 -73.841194 75.397621 -14.517510 -74.860168 75.397621 -14.517510 -74.350685 75.464699 -70.186806 -74.350685 75.464699 -70.186806 -73.841194 75.397621 -70.186806 -72.645912 74.480446 -70.186806 -72.958740 74.888138 -70.186806 -72.645912 72.511940 -70.186806 -72.449257 72.986702 -70.186806 -73.841194 71.594765 -70.186806 -72.449257 74.005676 -70.186806 -73.366432 75.200966 -70.186806 -72.382179 73.496193 -70.186806 -74.860168 71.594765 -70.186806 -74.350685 71.527687 -70.186806 -75.334938 71.791420 -70.186806 -75.742622 72.104248 -70.186806 -76.055458 72.511940 -70.186806 -76.252113 72.986702 -70.186806 -76.319191 73.496193 -70.186806 -76.252113 74.005676 -70.186806 -76.055458 74.480446 -70.186806 -75.742622 74.888138 -70.186806 -75.334938 75.200966 -70.186806 -74.860168 75.397621 -24.936592 -62.391949 72.104248 -25.344282 -118.061241 71.791420 -25.344282 -62.391949 71.791420 -24.936592 -118.061241 72.104248 -25.819048 -118.061241 71.594765 -26.838020 -118.061241 71.594765 -26.328535 -118.061241 71.527687 -27.312786 -118.061241 71.791420 -27.720476 -118.061241 72.104248 -24.623760 -118.061241 72.511940 -28.033308 -118.061241 72.511940 -24.427105 -118.061241 72.986702 -28.229963 -118.061241 72.986702 -24.360031 -118.061241 73.496193 -28.297039 -118.061241 73.496193 -24.427105 -118.061241 74.005676 -28.229963 -118.061241 74.005676 -24.623760 -118.061241 74.480446 -28.033308 -118.061241 74.480446 -24.936592 -118.061241 74.888138 -27.720476 -118.061241 74.888138 -25.344282 -118.061241 75.200966 -27.312786 -118.061241 75.200966 -25.819048 -118.061241 75.397621 -26.838020 -118.061241 75.397621 -26.328535 -118.061241 75.464699 -26.328535 -62.391949 75.464699 -25.819048 -62.391949 75.397621 -24.623760 -62.391949 74.480446 -24.936592 -62.391949 74.888138 -24.623760 -62.391949 72.511940 -24.427105 -62.391949 72.986702 -25.819048 -62.391949 71.594765 -24.427105 -62.391949 74.005676 -25.344282 -62.391949 75.200966 -24.360031 -62.391949 73.496193 -26.838020 -62.391949 71.594765 -26.328535 -62.391949 71.527687 -27.312786 -62.391949 71.791420 -27.720476 -62.391949 72.104248 -28.033308 -62.391949 72.511940 -28.229963 -62.391949 72.986702 -28.297039 -62.391949 73.496193 -28.229963 -62.391949 74.005676 -28.033308 -62.391949 74.480446 -27.720476 -62.391949 74.888138 -27.312786 -62.391949 75.200966 -26.838020 -62.391949 75.397621 -116.410591 129.005676 111.929390 -115.306732 128.477310 104.850021 -115.248894 128.792465 111.929390 -116.468430 128.690521 104.850021 -105.754082 210.349487 101.127312 -105.696243 210.664627 108.206673 -114.919502 128.406250 104.850021 -99.718750 211.228592 101.038864 -106.499336 237.629578 99.918983 -103.811623 237.971161 99.881821 -106.441490 237.944717 106.998352 -103.753784 238.286316 106.961182 -99.660912 211.543747 108.118233 -114.861656 128.721390 111.929390 -111.315208 148.044479 111.040215 -90.679932 202.306717 108.850159 -91.135124 202.303482 100.971947 -91.070854 202.653641 108.837906 -90.744202 201.956543 100.984192 -91.216492 203.155304 108.816765 -91.280762 202.805145 100.950798 -91.096626 203.571625 108.797249 -91.160896 203.221466 100.931290 -91.071991 203.657196 108.793243 -91.136261 203.307037 100.927277 -90.681862 204.004730 108.774582 -90.746124 203.654572 100.908623 -90.291725 204.352264 108.755928 -90.355995 204.002090 100.889961 -90.147224 204.854156 108.732399 -90.211494 204.503983 100.866440 -90.292862 205.355820 108.711258 -90.357132 205.005646 100.845299 -90.683784 205.702744 108.699013 -90.748055 205.352585 100.833046 -91.199585 205.788086 108.699425 -91.263847 205.437912 100.833458 -90.173767 206.635590 108.653313 -90.238037 206.285416 100.787354 -89.990929 207.953018 108.593170 -90.055191 207.602859 100.727211 -90.369034 208.500519 108.571892 -90.433296 208.150360 100.705925 -90.747139 209.048019 108.550606 -90.811409 208.697861 100.684647 -92.109261 208.994949 100.682022 -92.044991 209.345108 108.547989 -93.202400 208.688156 108.586685 -93.266670 208.337997 100.720726 -93.099098 209.200119 108.563049 -93.163368 208.849945 100.697090 -93.284950 209.688354 108.542839 -93.349220 209.338196 100.676872 -93.702721 210.002502 108.532265 -93.766991 209.652328 100.666298 -94.223732 210.045792 108.534592 -94.287994 209.695618 100.668633 -94.687500 209.804886 108.549110 -94.751770 209.454727 100.683144 -95.235458 209.121414 100.701935 -95.171188 209.471588 108.567894 -95.735435 209.020477 100.710510 -95.671165 209.370651 108.576477 -96.144234 209.561508 108.571846 -96.208504 209.211349 100.705879 -96.498245 209.630890 100.689568 -96.433975 209.981064 108.555534 -96.444603 210.490585 108.532936 -96.508873 210.140411 100.666977 -96.172600 210.921616 108.511528 -96.236870 210.571457 100.645569 -90.164139 202.221375 108.849739 -90.228401 201.871216 100.983780 -99.657700 211.561249 108.511528 -126.316185 58.647976 115.536499 -127.185936 61.571674 115.413452 -118.194717 57.157406 115.536499 -121.042000 56.058601 115.608681 -124.044655 56.609692 115.608681 -116.343414 59.581699 115.413452 -99.721962 211.211090 100.645561 -126.380447 58.297810 107.670540 -127.250206 61.221508 107.547493 -124.108925 56.259525 107.742714 -121.106270 55.708435 107.742714 -118.258980 56.807240 107.670540 -116.407684 59.231533 107.547493 -151.402451 17.548515 116.782860 -133.939133 62.963444 108.312805 -151.453873 17.268383 110.490089 -133.887726 63.243576 114.605576 -132.813705 62.599697 108.319801 -150.299469 17.126213 116.792648 -150.350891 16.846081 110.499878 -132.762299 62.879829 114.612572 -116.445045 128.797958 105.239151 -116.393631 129.078094 111.531921 -115.252106 128.774948 111.536087 -115.303520 128.494827 105.243317 -132.759079 62.897335 115.005867 -132.816925 62.582188 107.926506 -126.682892 64.312538 108.193459 -126.686111 64.295029 107.800163 -126.628265 64.610176 114.879532 -127.410507 61.296730 108.333656 -127.413719 61.279224 107.940361 -150.354095 16.828573 110.106575 -145.206848 14.857830 110.152252 -145.149017 15.172979 117.231621 -127.355881 61.594372 115.019730 -150.296265 17.143721 117.185944 -86.849991 114.034531 55.337067 -99.529297 185.354370 121.899139 -87.934822 187.597244 121.704567 -75.255508 116.277405 55.142490 -98.976425 182.747742 124.797401 -86.297119 111.427910 58.235321 -87.381950 184.990616 124.602821 -74.702637 113.670784 58.040749 -99.285446 181.064041 86.975281 -74.747276 122.281265 154.634003 -86.341759 120.038391 154.828583 -87.690971 183.306915 86.780708 -86.849182 122.892616 157.492401 -99.792877 183.918259 89.639099 -88.198395 186.161133 89.444527 -75.254707 125.135490 157.297821 "
							            />
						</IndexedFaceSet>
					</Shape>
				</Group>
			</Transform>
		</Transform>
	</Scene>
</X3D>