<?xml version="1.0" encoding="UTF-8"?>
<!DOCTYPE X3D PUBLIC "ISO//Web3D//DTD X3D 3.0//EN" "http://www.web3d.org/specifications/x3d-3.0.dtd">
<X3D version="3.0" profile="Immersive" xmlns:xsd="http://www.w3.org/2001/XMLSchema-instance" xsd:noNamespaceSchemaLocation="http://www.web3d.org/specifications/x3d-3.0.xsd">
	<head>
		<meta name="filename" content="24-1.x3d" />
		<meta name="created" content="2026-06-21 15:09:41" />
		<meta name="generator" content="Blender 4.5.4 LTS" />
		<meta name="translator" content="Web3D X3D/VRML2 format v2.5.1" />
	</head>
	<Scene>
		<NavigationInfo headlight="true"
		                visibilityLimit="0.0"
		                type='"EXAMINE", "ANY"'
		                avatarSize="0.25, 1.75, 0.75"
		                />
		<Background DEF="WO_World"
		            groundColor="0.051 0.051 0.051"
		            skyColor="0.051 0.051 0.051"
		            />
		<Transform DEF="_24-1_TRANSFORM"
		           translation="0.000000 0.000000 0.000000"
		           scale="1.000000 1.000000 1.000000"
		           rotation="0.000000 0.707107 0.707107 3.141593"
		           >
			<Transform DEF="_24-1_ifs_TRANSFORM"
			           translation="0.000000 0.000000 0.000000"
			           scale="1.000000 1.000000 1.000000"
			           rotation="0.000000 1.000000 0.000000 0.000000"
			           >
				<Group DEF="group_ME_24-1_001">
					<Shape>
						<Appearance>
						</Appearance>
						<IndexedFaceSet solid="false"
						                coordIndex="0 1 2 -1 1 0 3 -1 4 5 6 -1 5 4 7 -1 0 4 3 -1 4 0 7 -1 6 8 9 -1 8 6 5 -1 10 11 12 -1 11 10 13 -1 14 1 15 -1 1 14 2 -1 16 17 18 -1 17 16 19 -1 9 4 6 -1 1 10 15 -1 10 1 3 -1 10 3 13 -1 13 3 4 -1 13 4 9 -1 20 21 22 -1 21 20 23 -1 22 24 25 -1 24 22 21 -1 26 27 28 -1 27 26 29 -1 27 29 21 -1 21 29 24 -1 26 30 31 -1 30 26 32 -1 28 32 26 -1 32 28 33 -1 28 34 35 -1 34 28 27 -1 34 27 21 -1 34 21 23 -1 25 30 32 -1 30 25 36 -1 11 37 12 -1 37 11 20 -1 18 0 14 -1 0 18 17 -1 0 17 7 -1 7 17 5 -1 5 17 8 -1 2 14 0 -1 22 32 33 -1 32 22 25 -1 25 38 36 -1 38 25 24 -1 35 33 28 -1 33 35 37 -1 38 30 36 -1 30 38 31 -1 20 33 37 -1 33 20 22 -1 35 14 37 -1 14 35 16 -1 14 16 18 -1 37 15 12 -1 15 37 14 -1 12 15 10 -1 34 16 35 -1 16 34 19 -1 19 34 23 -1 20 9 23 -1 9 20 11 -1 9 11 13 -1 23 8 19 -1 8 23 9 -1 19 8 17 -1 31 29 26 -1 29 31 38 -1 29 38 24 -1 39 40 41 -1 40 39 42 -1 43 44 45 -1 44 43 46 -1 47 39 48 -1 39 47 42 -1 42 47 49 -1 46 50 44 -1 50 46 51 -1 52 45 53 -1 45 52 43 -1 54 55 56 -1 55 54 57 -1 52 58 49 -1 58 52 55 -1 58 55 57 -1 49 59 42 -1 59 49 58 -1 42 59 40 -1 40 60 41 -1 60 40 59 -1 60 58 61 -1 58 60 59 -1 62 50 63 -1 50 62 44 -1 62 64 65 -1 64 62 66 -1 64 66 67 -1 64 67 68 -1 65 44 62 -1 44 65 45 -1 58 54 61 -1 54 58 57 -1 65 47 48 -1 47 65 64 -1 47 64 68 -1 47 68 49 -1 43 67 46 -1 67 43 68 -1 52 68 43 -1 68 52 49 -1 63 66 62 -1 66 63 69 -1 66 69 67 -1 48 60 53 -1 60 48 39 -1 60 39 41 -1 53 61 56 -1 61 53 60 -1 56 61 54 -1 69 50 51 -1 50 69 63 -1 48 45 65 -1 45 48 53 -1 55 53 56 -1 53 55 52 -1 46 69 51 -1 69 46 67 -1 70 71 72 -1 71 70 73 -1 74 70 72 -1 70 74 75 -1 73 76 71 -1 76 73 77 -1 78 79 80 -1 79 78 81 -1 82 78 83 -1 78 82 81 -1 84 82 83 -1 82 84 85 -1 81 86 79 -1 86 81 87 -1 87 81 82 -1 87 82 85 -1 87 85 77 -1 87 77 73 -1 87 73 70 -1 87 70 75 -1 86 88 89 -1 88 86 87 -1 88 75 74 -1 75 88 87 -1 76 85 84 -1 85 76 77 -1 88 80 89 -1 80 88 78 -1 78 88 83 -1 83 88 84 -1 84 88 76 -1 76 88 71 -1 71 88 72 -1 72 88 74 -1 86 80 79 -1 80 86 89 -1 90 91 92 -1 91 90 93 -1 94 95 96 -1 95 94 97 -1 98 90 99 -1 90 98 93 -1 93 98 100 -1 97 101 95 -1 101 97 102 -1 103 96 104 -1 96 103 94 -1 105 106 107 -1 106 105 108 -1 103 109 100 -1 109 103 106 -1 109 106 108 -1 100 110 93 -1 110 100 109 -1 93 110 91 -1 91 111 92 -1 111 91 110 -1 111 109 112 -1 109 111 110 -1 113 101 114 -1 101 113 95 -1 113 115 116 -1 115 113 117 -1 115 117 118 -1 115 118 119 -1 116 95 113 -1 95 116 96 -1 109 105 112 -1 105 109 108 -1 116 98 99 -1 98 116 115 -1 98 115 119 -1 98 119 100 -1 94 118 97 -1 118 94 119 -1 103 119 94 -1 119 103 100 -1 114 117 113 -1 117 114 120 -1 117 120 118 -1 99 111 104 -1 111 99 90 -1 111 90 92 -1 104 112 107 -1 112 104 111 -1 107 112 105 -1 120 101 102 -1 101 120 114 -1 99 96 116 -1 96 99 104 -1 106 104 107 -1 104 106 103 -1 97 120 102 -1 120 97 118 -1 121 122 123 -1 122 121 124 -1 125 126 127 -1 126 125 128 -1 122 125 127 -1 125 122 124 -1 126 129 130 -1 129 126 128 -1 131 132 133 -1 132 131 134 -1 132 134 135 -1 135 134 136 -1 136 134 137 -1 138 133 132 -1 139 140 141 -1 140 139 134 -1 134 139 137 -1 141 142 143 -1 142 141 144 -1 144 141 134 -1 134 141 140 -1 141 145 146 -1 145 141 143 -1 143 147 148 -1 147 143 149 -1 149 143 144 -1 144 143 142 -1 139 129 150 -1 151 146 152 -1 146 151 130 -1 146 130 141 -1 141 130 129 -1 141 129 139 -1 143 153 145 -1 153 143 148 -1 133 146 131 -1 146 133 152 -1 148 154 155 -1 154 148 149 -1 149 148 147 -1 156 134 131 -1 134 156 144 -1 157 144 156 -1 144 157 149 -1 158 149 157 -1 149 158 154 -1 131 145 156 -1 145 131 146 -1 156 153 157 -1 153 156 145 -1 157 159 158 -1 159 157 153 -1 148 159 153 -1 159 148 155 -1 154 159 155 -1 159 154 158 -1 132 121 123 -1 121 132 135 -1 151 126 130 -1 126 151 127 -1 127 151 122 -1 122 132 123 -1 132 122 138 -1 138 122 151 -1 136 121 135 -1 121 136 124 -1 124 136 125 -1 125 129 128 -1 129 125 150 -1 150 125 136 -1 133 151 152 -1 151 133 138 -1 136 139 150 -1 139 136 137 -1 160 161 162 -1 161 160 163 -1 164 165 166 -1 165 164 167 -1 160 164 163 -1 164 160 167 -1 166 168 169 -1 168 166 165 -1 170 171 172 -1 171 170 173 -1 174 161 175 -1 161 174 162 -1 176 177 178 -1 177 176 179 -1 169 164 166 -1 161 170 175 -1 170 161 163 -1 170 163 173 -1 173 163 164 -1 173 164 169 -1 180 181 182 -1 181 180 183 -1 182 184 185 -1 184 182 181 -1 186 187 188 -1 187 186 189 -1 187 189 181 -1 181 189 184 -1 186 190 191 -1 190 186 192 -1 188 192 186 -1 192 188 193 -1 188 194 195 -1 194 188 187 -1 194 187 181 -1 194 181 183 -1 185 190 192 -1 190 185 196 -1 171 197 172 -1 197 171 180 -1 178 160 174 -1 160 178 177 -1 160 177 167 -1 167 177 165 -1 165 177 168 -1 162 174 160 -1 182 192 193 -1 192 182 185 -1 185 198 196 -1 198 185 184 -1 195 193 188 -1 193 195 197 -1 198 190 196 -1 190 198 191 -1 180 193 197 -1 193 180 182 -1 195 174 197 -1 174 195 176 -1 174 176 178 -1 197 175 172 -1 175 197 174 -1 172 175 170 -1 194 176 195 -1 176 194 179 -1 179 194 183 -1 180 169 183 -1 169 180 171 -1 169 171 173 -1 183 168 179 -1 168 183 169 -1 179 168 177 -1 191 189 186 -1 189 191 198 -1 189 198 184 -1 128 199 200 -1 199 128 126 -1 124 123 122 -1 123 124 121 -1 124 201 202 -1 201 124 122 -1 202 127 125 -1 127 202 201 -1 203 204 205 -1 204 203 206 -1 207 208 209 -1 208 207 210 -1 207 211 212 -1 211 207 209 -1 213 207 214 -1 207 213 210 -1 205 210 213 -1 210 205 204 -1 210 215 208 -1 215 210 204 -1 214 212 216 -1 212 214 207 -1 217 218 206 -1 218 217 219 -1 220 221 222 -1 221 220 223 -1 224 217 225 -1 217 224 221 -1 222 224 226 -1 224 222 221 -1 221 219 217 -1 219 221 223 -1 227 228 229 -1 228 227 230 -1 226 220 222 -1 220 226 231 -1 231 226 232 -1 233 122 123 -1 122 233 234 -1 122 234 235 -1 122 235 201 -1 201 235 127 -1 127 199 126 -1 199 127 236 -1 236 127 237 -1 237 127 235 -1 237 235 238 -1 237 238 239 -1 239 238 240 -1 239 240 241 -1 241 240 203 -1 203 240 232 -1 203 232 225 -1 225 232 224 -1 224 232 226 -1 213 242 205 -1 242 213 243 -1 243 213 214 -1 243 214 244 -1 244 214 216 -1 244 216 245 -1 245 216 246 -1 245 246 247 -1 241 248 249 -1 248 241 203 -1 248 203 205 -1 248 205 242 -1 249 248 250 -1 249 250 251 -1 249 251 252 -1 204 218 215 -1 218 204 206 -1 203 217 206 -1 217 203 225 -1 245 227 229 -1 227 245 253 -1 253 245 247 -1 200 236 254 -1 236 200 199 -1 247 255 253 -1 255 247 246 -1 254 128 200 -1 128 254 125 -1 125 254 256 -1 125 256 202 -1 202 256 124 -1 124 257 121 -1 257 124 258 -1 258 124 259 -1 259 124 256 -1 259 256 260 -1 259 260 261 -1 261 260 262 -1 261 262 263 -1 263 262 264 -1 264 262 265 -1 264 265 266 -1 266 265 267 -1 267 265 268 -1 269 215 270 -1 215 269 208 -1 208 269 230 -1 208 230 209 -1 209 230 227 -1 209 227 211 -1 211 227 253 -1 211 253 255 -1 263 218 231 -1 218 263 264 -1 218 264 270 -1 218 270 215 -1 231 218 219 -1 231 219 223 -1 231 223 220 -1 246 211 255 -1 211 246 216 -1 211 216 212 -1 251 271 252 -1 271 251 272 -1 250 272 251 -1 272 250 273 -1 248 273 250 -1 273 248 274 -1 242 274 248 -1 274 242 275 -1 242 276 275 -1 276 242 243 -1 228 243 244 -1 243 228 276 -1 228 269 276 -1 269 228 230 -1 273 264 266 -1 264 273 274 -1 266 272 273 -1 272 266 267 -1 272 268 271 -1 268 272 267 -1 229 244 245 -1 244 229 228 -1 276 270 275 -1 270 276 269 -1 274 270 264 -1 270 274 275 -1 239 256 237 -1 256 239 260 -1 254 237 256 -1 237 254 236 -1 241 260 239 -1 260 241 262 -1 263 232 240 -1 232 263 231 -1 249 268 265 -1 268 249 252 -1 268 252 271 -1 257 123 121 -1 123 257 233 -1 265 241 249 -1 241 265 262 -1 259 234 258 -1 234 259 235 -1 258 233 257 -1 233 258 234 -1 261 240 238 -1 240 261 263 -1 259 238 235 -1 238 259 261 -1 277 278 279 -1 278 277 280 -1 281 282 283 -1 282 281 284 -1 278 281 283 -1 281 278 280 -1 282 285 286 -1 285 282 284 -1 287 288 289 -1 288 287 290 -1 288 290 291 -1 291 290 292 -1 292 290 293 -1 294 289 288 -1 295 296 297 -1 296 295 290 -1 290 295 293 -1 297 298 299 -1 298 297 300 -1 300 297 290 -1 290 297 296 -1 297 301 302 -1 301 297 299 -1 299 303 304 -1 303 299 305 -1 305 299 300 -1 300 299 298 -1 295 285 306 -1 307 302 308 -1 302 307 286 -1 302 286 297 -1 297 286 285 -1 297 285 295 -1 299 309 301 -1 309 299 304 -1 289 302 287 -1 302 289 308 -1 304 310 311 -1 310 304 305 -1 305 304 303 -1 312 290 287 -1 290 312 300 -1 313 300 312 -1 300 313 305 -1 314 305 313 -1 305 314 310 -1 287 301 312 -1 301 287 302 -1 312 309 313 -1 309 312 301 -1 313 315 314 -1 315 313 309 -1 304 315 309 -1 315 304 311 -1 310 315 311 -1 315 310 314 -1 288 277 279 -1 277 288 291 -1 307 282 286 -1 282 307 283 -1 283 307 278 -1 278 288 279 -1 288 278 294 -1 294 278 307 -1 292 277 291 -1 277 292 280 -1 280 292 281 -1 281 285 284 -1 285 281 306 -1 306 281 292 -1 289 307 308 -1 307 289 294 -1 292 295 306 -1 295 292 293 -1 316 317 318 -1 317 316 319 -1 320 321 322 -1 321 320 323 -1 324 316 325 -1 316 324 319 -1 319 324 326 -1 323 327 321 -1 327 323 328 -1 329 322 330 -1 322 329 320 -1 331 332 333 -1 332 331 334 -1 329 335 326 -1 335 329 332 -1 335 332 334 -1 326 336 319 -1 336 326 335 -1 319 336 317 -1 317 337 318 -1 337 317 336 -1 337 335 338 -1 335 337 336 -1 339 327 340 -1 327 339 321 -1 339 341 342 -1 341 339 343 -1 341 343 344 -1 341 344 345 -1 342 321 339 -1 321 342 322 -1 335 331 338 -1 331 335 334 -1 342 324 325 -1 324 342 341 -1 324 341 345 -1 324 345 326 -1 320 344 323 -1 344 320 345 -1 329 345 320 -1 345 329 326 -1 340 343 339 -1 343 340 346 -1 343 346 344 -1 325 337 330 -1 337 325 316 -1 337 316 318 -1 330 338 333 -1 338 330 337 -1 333 338 331 -1 346 327 328 -1 327 346 340 -1 325 322 342 -1 322 325 330 -1 332 330 333 -1 330 332 329 -1 323 346 328 -1 346 323 344 -1 347 348 349 -1 348 347 350 -1 351 352 353 -1 352 351 354 -1 355 347 356 -1 347 355 350 -1 350 355 357 -1 354 358 352 -1 358 354 359 -1 360 353 361 -1 353 360 351 -1 362 363 364 -1 363 362 365 -1 360 366 357 -1 366 360 363 -1 366 363 365 -1 357 367 350 -1 367 357 366 -1 350 367 348 -1 348 368 349 -1 368 348 367 -1 368 366 369 -1 366 368 367 -1 370 358 371 -1 358 370 352 -1 370 372 373 -1 372 370 374 -1 372 374 375 -1 372 375 376 -1 373 352 370 -1 352 373 353 -1 366 362 369 -1 362 366 365 -1 373 355 356 -1 355 373 372 -1 355 372 376 -1 355 376 357 -1 351 375 354 -1 375 351 376 -1 360 376 351 -1 376 360 357 -1 371 374 370 -1 374 371 377 -1 374 377 375 -1 356 368 361 -1 368 356 347 -1 368 347 349 -1 361 369 364 -1 369 361 368 -1 364 369 362 -1 377 358 359 -1 358 377 371 -1 356 353 373 -1 353 356 361 -1 363 361 364 -1 361 363 360 -1 354 377 359 -1 377 354 375 -1 165 378 379 -1 378 165 166 -1 167 163 164 -1 163 167 160 -1 166 167 164 -1 167 166 165 -1 380 381 382 -1 381 380 383 -1 382 384 385 -1 384 382 381 -1 386 387 388 -1 387 386 389 -1 381 390 391 -1 390 381 383 -1 384 391 392 -1 391 384 381 -1 387 393 394 -1 393 387 389 -1 384 395 396 -1 395 384 392 -1 388 397 398 -1 397 388 387 -1 385 396 399 -1 396 385 384 -1 398 386 388 -1 386 398 400 -1 400 398 401 -1 402 383 380 -1 383 402 403 -1 404 405 406 -1 405 404 407 -1 407 408 405 -1 408 407 409 -1 410 407 404 -1 407 410 411 -1 412 413 414 -1 413 412 415 -1 414 416 417 -1 416 414 413 -1 387 418 397 -1 418 387 394 -1 383 419 390 -1 419 383 403 -1 394 419 403 -1 419 394 393 -1 402 394 403 -1 394 402 418 -1 420 163 161 -1 163 420 421 -1 163 421 422 -1 163 422 164 -1 164 378 166 -1 378 164 423 -1 423 164 424 -1 424 164 422 -1 424 422 425 -1 424 425 426 -1 426 425 427 -1 426 427 428 -1 428 427 402 -1 402 427 401 -1 402 401 418 -1 418 401 397 -1 397 401 398 -1 382 429 380 -1 429 382 430 -1 430 382 385 -1 430 385 416 -1 416 385 399 -1 416 399 431 -1 431 417 416 -1 417 431 432 -1 428 433 434 -1 433 428 380 -1 380 428 402 -1 433 380 429 -1 434 433 410 -1 434 410 404 -1 434 404 406 -1 413 435 436 -1 435 413 415 -1 437 401 427 -1 401 437 400 -1 431 395 438 -1 395 431 399 -1 395 399 396 -1 162 420 161 -1 420 162 439 -1 440 428 434 -1 428 440 441 -1 428 442 426 -1 442 428 441 -1 443 165 379 -1 165 443 167 -1 167 443 444 -1 167 444 160 -1 160 439 162 -1 439 160 445 -1 445 160 446 -1 446 160 444 -1 446 444 442 -1 446 442 447 -1 447 442 441 -1 447 441 437 -1 437 441 448 -1 448 441 440 -1 437 448 390 -1 448 440 449 -1 449 440 409 -1 409 440 408 -1 390 450 391 -1 450 390 448 -1 391 450 435 -1 391 435 415 -1 391 415 392 -1 392 415 412 -1 392 412 438 -1 438 412 451 -1 395 392 438 -1 437 419 400 -1 419 437 390 -1 400 419 393 -1 400 393 389 -1 400 389 386 -1 379 423 443 -1 423 379 378 -1 443 424 444 -1 424 443 423 -1 434 408 440 -1 408 434 406 -1 408 406 405 -1 446 421 445 -1 421 446 422 -1 444 426 442 -1 426 444 424 -1 432 438 451 -1 438 432 431 -1 417 412 414 -1 412 417 451 -1 451 417 432 -1 447 422 446 -1 422 447 425 -1 447 427 425 -1 427 447 437 -1 445 420 439 -1 420 445 421 -1 433 411 410 -1 411 433 452 -1 407 449 409 -1 449 407 411 -1 429 452 433 -1 452 429 453 -1 411 448 449 -1 448 411 452 -1 429 436 453 -1 436 429 430 -1 436 450 453 -1 450 436 435 -1 452 450 448 -1 450 452 453 -1 413 430 416 -1 430 413 436 -1 454 455 456 -1 455 454 457 -1 458 454 456 -1 454 458 459 -1 457 460 455 -1 460 457 461 -1 462 463 464 -1 463 462 465 -1 466 462 467 -1 462 466 465 -1 468 466 467 -1 466 468 469 -1 465 470 463 -1 470 465 471 -1 471 465 466 -1 471 466 469 -1 471 469 461 -1 471 461 457 -1 471 457 454 -1 471 454 459 -1 472 471 473 -1 471 472 470 -1 473 459 458 -1 459 473 471 -1 460 469 468 -1 469 460 461 -1 473 464 472 -1 464 473 462 -1 462 473 467 -1 467 473 468 -1 468 473 460 -1 460 473 455 -1 455 473 456 -1 456 473 458 -1 470 464 463 -1 464 470 472 -1 474 475 476 -1 475 474 477 -1 478 479 480 -1 479 478 481 -1 482 474 483 -1 474 482 477 -1 477 482 484 -1 481 485 479 -1 485 481 486 -1 487 480 488 -1 480 487 478 -1 489 490 491 -1 490 489 492 -1 487 493 484 -1 493 487 490 -1 493 490 492 -1 484 494 477 -1 494 484 493 -1 477 494 475 -1 475 495 476 -1 495 475 494 -1 495 493 496 -1 493 495 494 -1 497 485 498 -1 485 497 479 -1 497 499 500 -1 499 497 501 -1 499 501 502 -1 499 502 503 -1 500 479 497 -1 479 500 480 -1 493 489 496 -1 489 493 492 -1 500 482 483 -1 482 500 499 -1 482 499 503 -1 482 503 484 -1 478 502 481 -1 502 478 503 -1 487 503 478 -1 503 487 484 -1 498 501 497 -1 501 498 504 -1 501 504 502 -1 483 495 488 -1 495 483 474 -1 495 474 476 -1 488 496 491 -1 496 488 495 -1 491 496 489 -1 504 485 486 -1 485 504 498 -1 483 480 500 -1 480 483 488 -1 490 488 491 -1 488 490 487 -1 481 504 486 -1 504 481 502 -1 505 506 507 -1 506 505 508 -1 509 505 507 -1 505 509 510 -1 508 511 506 -1 511 508 512 -1 513 514 515 -1 514 513 516 -1 517 513 518 -1 513 517 516 -1 519 517 518 -1 517 519 520 -1 516 521 514 -1 521 516 522 -1 522 516 517 -1 522 517 520 -1 522 520 512 -1 522 512 508 -1 522 508 505 -1 522 505 510 -1 523 522 524 -1 522 523 521 -1 524 510 509 -1 510 524 522 -1 511 520 519 -1 520 511 512 -1 524 515 523 -1 515 524 513 -1 513 524 518 -1 518 524 519 -1 519 524 511 -1 511 524 506 -1 506 524 507 -1 507 524 509 -1 521 515 514 -1 515 521 523 -1 525 526 527 -1 526 525 528 -1 529 530 531 -1 530 529 532 -1 529 533 534 -1 533 529 531 -1 528 534 533 -1 534 528 525 -1 535 525 527 -1 525 535 534 -1 534 535 536 -1 534 536 537 -1 534 537 529 -1 529 538 532 -1 538 529 539 -1 539 529 540 -1 540 529 541 -1 541 529 537 -1 541 537 542 -1 541 542 543 -1 543 542 544 -1 543 544 545 -1 545 544 546 -1 546 544 547 -1 545 546 548 -1 546 547 549 -1 549 547 550 -1 550 547 551 -1 552 553 554 -1 548 555 556 -1 555 548 546 -1 556 555 557 -1 556 557 554 -1 556 554 558 -1 558 554 559 -1 559 554 553 -1 559 553 560 -1 545 561 562 -1 561 545 548 -1 562 561 563 -1 562 563 564 -1 562 564 565 -1 566 559 560 -1 559 566 567 -1 559 567 568 -1 569 560 553 -1 560 569 566 -1 570 568 567 -1 568 570 571 -1 572 561 548 -1 561 572 573 -1 574 575 576 -1 575 574 577 -1 578 579 580 -1 579 578 581 -1 582 548 556 -1 548 582 572 -1 583 572 584 -1 572 583 573 -1 579 551 585 -1 551 579 550 -1 586 587 588 -1 587 586 589 -1 527 590 535 -1 590 527 526 -1 591 554 586 -1 554 591 552 -1 545 592 593 -1 592 545 562 -1 579 594 580 -1 594 579 585 -1 571 559 568 -1 559 571 558 -1 595 581 578 -1 581 595 596 -1 597 575 598 -1 575 597 576 -1 539 599 538 -1 599 539 600 -1 589 555 601 -1 555 589 557 -1 602 589 601 -1 589 602 587 -1 583 598 573 -1 598 583 597 -1 584 582 603 -1 582 584 572 -1 571 556 558 -1 556 571 582 -1 602 596 595 -1 596 602 601 -1 574 565 577 -1 565 574 562 -1 562 574 592 -1 604 545 593 -1 545 604 543 -1 540 600 539 -1 600 540 605 -1 541 605 540 -1 605 541 606 -1 607 551 547 -1 551 607 594 -1 551 594 585 -1 575 563 598 -1 563 575 564 -1 586 557 589 -1 557 586 554 -1 603 571 570 -1 571 603 582 -1 581 546 549 -1 546 581 596 -1 538 530 532 -1 530 538 599 -1 598 561 573 -1 561 598 563 -1 543 606 541 -1 606 543 604 -1 581 550 579 -1 550 581 549 -1 596 555 546 -1 555 596 601 -1 577 564 575 -1 564 577 565 -1 591 588 608 -1 588 591 586 -1 547 609 607 -1 609 547 544 -1 537 610 542 -1 610 537 611 -1 544 610 609 -1 610 544 542 -1 599 531 530 -1 531 599 600 -1 531 600 605 -1 531 605 606 -1 531 606 533 -1 533 526 528 -1 526 533 590 -1 590 533 612 -1 612 533 611 -1 611 533 606 -1 611 606 604 -1 611 604 610 -1 610 604 609 -1 609 604 593 -1 609 593 583 -1 583 593 592 -1 583 592 597 -1 597 592 576 -1 576 592 574 -1 603 602 584 -1 602 603 587 -1 587 603 570 -1 587 570 588 -1 588 570 567 -1 588 567 608 -1 608 567 566 -1 608 566 569 -1 609 595 607 -1 595 609 584 -1 584 609 583 -1 595 584 602 -1 607 595 578 -1 607 578 580 -1 607 580 594 -1 608 552 591 -1 552 608 553 -1 553 608 569 -1 535 612 536 -1 612 535 590 -1 536 611 537 -1 611 536 612 -1 613 614 615 -1 614 613 616 -1 617 618 619 -1 618 617 620 -1 621 613 622 -1 613 621 616 -1 616 621 623 -1 620 624 618 -1 624 620 625 -1 626 619 627 -1 619 626 617 -1 628 629 630 -1 629 628 631 -1 626 632 623 -1 632 626 629 -1 632 629 631 -1 623 633 616 -1 633 623 632 -1 616 633 614 -1 614 634 615 -1 634 614 633 -1 634 632 635 -1 632 634 633 -1 636 624 637 -1 624 636 618 -1 636 638 639 -1 638 636 640 -1 638 640 641 -1 638 641 642 -1 639 618 636 -1 618 639 619 -1 632 628 635 -1 628 632 631 -1 639 621 622 -1 621 639 638 -1 621 638 642 -1 621 642 623 -1 617 641 620 -1 641 617 642 -1 626 642 617 -1 642 626 623 -1 637 640 636 -1 640 637 643 -1 640 643 641 -1 622 634 627 -1 634 622 613 -1 634 613 615 -1 627 635 630 -1 635 627 634 -1 630 635 628 -1 643 624 625 -1 624 643 637 -1 622 619 639 -1 619 622 627 -1 629 627 630 -1 627 629 626 -1 620 643 625 -1 643 620 641 -1 644 645 646 -1 645 644 647 -1 647 644 648 -1 648 644 649 -1 646 650 651 -1 650 646 645 -1 652 653 654 -1 653 649 644 -1 649 653 652 -1 654 655 656 -1 655 644 657 -1 644 655 654 -1 644 654 653 -1 654 658 659 -1 658 654 656 -1 656 660 661 -1 660 657 662 -1 657 660 656 -1 657 656 655 -1 652 663 664 -1 665 659 666 -1 659 665 667 -1 659 667 654 -1 654 667 663 -1 654 663 652 -1 656 668 658 -1 668 656 661 -1 651 659 646 -1 659 651 666 -1 661 669 670 -1 669 661 662 -1 662 661 660 -1 671 644 646 -1 644 671 657 -1 672 657 671 -1 657 672 662 -1 673 662 672 -1 662 673 669 -1 646 658 671 -1 658 646 659 -1 671 668 672 -1 668 671 658 -1 672 674 673 -1 674 672 668 -1 661 674 668 -1 674 661 670 -1 669 674 670 -1 674 669 673 -1 645 663 667 -1 663 645 647 -1 665 645 667 -1 645 665 650 -1 648 663 647 -1 663 648 664 -1 651 665 666 -1 665 651 650 -1 648 652 664 -1 652 648 649 -1 533 525 528 -1 525 533 534 -1 528 675 676 -1 675 528 525 -1 677 678 679 -1 678 677 680 -1 681 530 682 -1 530 681 532 -1 683 684 685 -1 684 683 686 -1 676 533 528 -1 530 677 682 -1 677 530 531 -1 677 531 680 -1 680 531 533 -1 680 533 676 -1 687 688 689 -1 688 687 690 -1 689 691 692 -1 691 689 688 -1 693 694 695 -1 694 693 696 -1 694 696 688 -1 688 696 691 -1 693 697 698 -1 697 693 699 -1 695 699 693 -1 699 695 700 -1 695 701 702 -1 701 695 694 -1 701 694 688 -1 701 688 690 -1 692 697 699 -1 697 692 703 -1 678 704 679 -1 704 678 687 -1 685 529 681 -1 529 685 684 -1 529 684 534 -1 534 684 525 -1 525 684 675 -1 532 681 529 -1 689 699 700 -1 699 689 692 -1 692 705 703 -1 705 692 691 -1 702 700 695 -1 700 702 704 -1 705 697 703 -1 697 705 698 -1 687 700 704 -1 700 687 689 -1 702 681 704 -1 681 702 683 -1 681 683 685 -1 704 682 679 -1 682 704 681 -1 679 682 677 -1 701 683 702 -1 683 701 686 -1 686 701 690 -1 687 676 690 -1 676 687 678 -1 676 678 680 -1 690 675 686 -1 675 690 676 -1 686 675 684 -1 698 696 693 -1 696 698 705 -1 696 705 691 -1 "
						                >
							<Coordinate DEF="coords_ME_24-1_001"
							            point="2.578332 1.740918 5.215547 2.578332 -2.196090 4.428145 2.578332 1.740918 4.428145 2.578332 -2.196090 5.215547 -2.933479 -2.196090 5.215547 -2.933479 1.740918 4.428145 -2.933479 -2.196090 4.428145 -2.933479 1.740918 5.215547 -3.720881 1.740918 4.428145 -3.720881 -2.196090 4.428145 3.365733 -2.196090 6.002949 -3.720881 -3.377192 6.002949 3.365733 -3.377192 6.002949 -3.720881 -2.196090 6.002949 3.365733 1.740918 4.428145 3.365733 -2.196090 4.428145 3.365733 2.922021 6.002949 -3.720881 1.740918 6.002949 3.365733 1.740918 6.002949 -3.720881 2.922021 6.002949 -3.720881 -3.377192 3.640744 -3.306038 2.507177 3.201613 -3.306038 -2.962349 3.201613 -3.720881 2.922021 3.640744 -3.035878 2.237018 2.661294 -3.035878 -2.692189 2.661294 2.680731 2.237018 2.661294 -2.933479 2.507177 3.201613 2.950890 2.507177 3.201613 -2.933479 2.237018 2.661294 2.578332 -2.589790 2.065941 2.578332 2.134619 2.065941 2.680731 -2.692189 2.661294 2.950890 -2.962349 3.201613 -2.933479 2.922021 3.640744 3.365733 2.922021 3.640744 -2.933479 -2.589790 2.065941 3.365733 -3.377192 3.640744 -2.933479 2.134619 2.065941 12.814552 3.034001 62.065075 7.302741 1.852899 62.065075 12.814552 1.852899 62.065075 7.302741 3.034001 62.065075 7.717584 -2.850368 59.263741 12.129549 -2.580209 58.723423 12.399709 -2.850368 59.263741 7.987744 -2.580209 58.723423 8.090142 3.034001 59.702869 12.814552 3.034001 59.702869 7.302741 3.034001 59.702869 12.027150 -2.477810 58.128067 8.090142 -2.477810 58.128067 7.302741 -3.265211 59.702869 12.814552 -3.265211 59.702869 12.814552 -2.084109 62.065075 7.302741 -3.265211 62.065075 12.814552 -3.265211 62.065075 7.302741 -2.084109 62.065075 7.302741 -2.084109 60.490273 7.302741 1.852899 60.490273 12.814552 1.852899 60.490273 12.814552 -2.084109 60.490273 12.129549 2.348999 58.723423 12.027150 2.246600 58.128067 8.090142 2.619158 59.263741 12.399709 2.619158 59.263741 8.090142 2.348999 58.723423 7.987744 2.348999 58.723423 7.717584 2.619158 59.263741 8.090142 2.246600 58.128067 -23.829824 1.843317 69.617142 -22.039778 -2.093691 69.020454 -23.829824 -2.093691 69.617142 -22.039778 1.843317 69.020454 -24.401983 -2.093691 70.332794 -24.401983 1.843317 70.332794 -19.677574 -2.093691 68.757988 -19.677574 1.843317 68.757988 24.416914 -2.093691 69.545387 25.204315 1.843317 70.332794 25.204315 -2.093691 70.332794 24.416914 1.843317 69.545387 22.842112 1.843317 69.020454 22.842112 -2.093691 69.020454 20.479906 -2.093691 68.757988 20.479906 1.843317 68.757988 25.204315 1.843317 73.482399 -24.401983 1.843317 73.482399 -24.401983 -2.093691 73.482399 25.204315 -2.093691 73.482399 -7.657889 3.024420 62.065075 -13.169700 1.843317 62.065075 -7.657889 1.843317 62.065075 -13.169700 3.024420 62.065075 -12.754857 -2.859950 59.263741 -8.342892 -2.589790 58.723423 -8.072732 -2.859950 59.263741 -12.484697 -2.589790 58.723423 -12.382298 3.024420 59.702869 -7.657889 3.024420 59.702869 -13.169700 3.024420 59.702869 -8.445291 -2.487391 58.128067 -12.382298 -2.487391 58.128067 -13.169700 -3.274793 59.702869 -7.657889 -3.274793 59.702869 -7.657889 -2.093691 62.065075 -13.169700 -3.274793 62.065075 -7.657889 -3.274793 62.065075 -13.169700 -2.093691 62.065075 -13.169700 -2.093691 60.490273 -13.169700 1.843317 60.490273 -7.657889 1.843317 60.490273 -7.657889 -2.093691 60.490273 -8.342892 2.339417 58.723423 -8.445291 2.237018 58.128067 -12.382298 2.609576 59.263741 -8.072732 2.609576 59.263741 -12.382298 2.339417 58.723423 -12.484697 2.339417 58.723423 -12.754857 2.609576 59.263741 -12.382298 2.237018 58.128067 2.184631 1.843317 60.490273 2.184631 -2.093691 61.277676 2.184631 -2.093691 60.490273 2.184631 1.843317 61.277676 -2.539778 1.843317 61.277676 -2.539778 -2.093691 60.490273 -2.539778 -2.093691 61.277676 -2.539778 1.843317 60.490273 -3.327180 1.843317 60.490273 -3.327180 -2.093691 60.490273 2.972033 -3.274793 59.702869 2.972033 -2.093691 60.490273 2.972033 -3.274793 62.065075 2.972033 3.024420 59.702869 2.972033 1.843317 60.490273 2.972033 1.843317 62.065075 2.972033 3.024420 62.065075 2.972033 -2.093691 62.065075 -3.327180 3.024420 62.065075 -2.539778 3.024420 59.702869 -3.327180 3.024420 59.702869 -2.539778 2.609576 59.263741 -2.912337 2.609576 59.263741 2.557189 2.609576 59.263741 -2.912337 -2.859950 59.263741 -3.327180 -3.274793 59.702869 -2.539778 2.339417 58.723423 -2.642178 2.339417 58.723423 2.287030 2.339417 58.723423 -3.327180 1.843317 62.065075 -3.327180 -2.093691 62.065075 -3.327180 -3.274793 62.065075 -2.642178 -2.589790 58.723423 2.184631 2.237018 58.128067 -2.539778 2.237018 58.128067 2.557189 -2.859950 59.263741 2.287030 -2.589790 58.723423 2.184631 -2.487391 58.128067 -2.539778 -2.487391 58.128067 2.578332 1.843317 53.009956 2.578332 -2.093691 52.222557 2.578332 1.843317 52.222557 2.578332 -2.093691 53.009956 -2.933479 -2.093691 53.009956 -2.933479 1.843317 52.222557 -2.933479 -2.093691 52.222557 -2.933479 1.843317 53.009956 -3.720881 1.843317 52.222557 -3.720881 -2.093691 52.222557 3.365733 -2.093691 53.797359 -3.720881 -3.274793 53.797359 3.365733 -3.274793 53.797359 -3.720881 -2.093691 53.797359 3.365733 1.843317 52.222557 3.365733 -2.093691 52.222557 3.365733 3.024420 53.797359 -3.720881 1.843317 53.797359 3.365733 1.843317 53.797359 -3.720881 3.024420 53.797359 -3.720881 -3.274793 51.435154 -3.306038 2.609576 50.996025 -3.306038 -2.859950 50.996025 -3.720881 3.024420 51.435154 -3.035878 2.339417 50.455704 -3.035878 -2.589790 50.455704 2.680731 2.339417 50.455704 -2.933479 2.609576 50.996025 2.950890 2.609576 50.996025 -2.933479 2.339417 50.455704 2.578332 -2.487391 49.860352 2.578332 2.237018 49.860352 2.680731 -2.589790 50.455704 2.950890 -2.859950 50.996025 -2.933479 3.024420 51.435154 3.365733 3.024420 51.435154 -2.933479 -2.487391 49.860352 3.365733 -3.274793 51.435154 -2.933479 2.237018 49.860352 -13.563400 -2.093691 60.490273 -13.563400 1.843317 60.490273 -0.177574 -2.093691 61.277676 -0.177574 1.843317 61.277676 12.814552 -2.093691 65.214684 3.047131 -0.125187 65.785110 2.972033 -2.093691 65.214684 12.739453 -0.125187 65.785110 2.460600 -0.125187 66.100510 2.381481 1.843317 65.372917 1.949168 1.843317 65.805237 2.676757 -0.125187 65.884354 1.790930 1.843317 66.395782 2.381481 -0.125187 66.395782 2.381481 -2.093691 65.372917 1.949168 -2.093691 65.805237 2.972033 1.843317 65.214684 1.790930 -2.093691 66.395782 13.109828 -0.125187 65.884354 12.814552 1.843317 65.214684 13.405104 1.843317 65.372917 13.995654 1.843317 66.395782 13.325984 -0.125187 66.100510 13.405104 -0.125187 66.395782 13.837417 1.843317 65.805237 13.837417 -2.093691 65.805237 13.405104 -2.093691 65.372917 13.995654 -2.093691 66.395782 -2.146078 1.843317 66.395782 -2.815748 -0.125187 66.100510 -2.736629 -0.125187 66.395782 -2.304316 1.843317 65.805237 17.932663 1.843317 66.395782 17.932663 -2.093691 66.395782 13.208253 -2.093691 60.490273 15.098017 -2.093691 60.844604 16.515339 -2.093691 61.553265 -15.453164 -2.093691 60.844604 -16.870487 -2.093691 61.553265 17.460222 -2.093691 62.616257 -17.815369 -2.093691 62.616257 17.932663 -2.093691 64.033577 -18.287809 -2.093691 64.033577 -3.327180 -2.093691 65.214684 -2.736629 -2.093691 65.372917 -2.304316 -2.093691 65.805237 -2.146078 -2.093691 66.395782 1.397229 -2.093691 66.395782 -1.752377 -2.093691 66.395782 -13.169700 -2.093691 65.214684 -18.287809 -2.093691 66.395782 -13.760251 -2.093691 65.372917 -14.192565 -2.093691 65.805237 -14.350802 -2.093691 66.395782 -1.752377 1.843317 66.395782 -15.453164 1.843317 60.844604 1.397229 1.843317 66.395782 -16.870487 1.843317 61.553265 13.208253 1.843317 60.490273 15.098017 1.843317 60.844604 16.515339 1.843317 61.553265 -17.815369 1.843317 62.616257 17.460222 1.843317 62.616257 -18.287809 1.843317 64.033577 17.932663 1.843317 64.033577 -13.169700 1.843317 65.214684 -18.287809 1.843317 66.395782 -13.760251 1.843317 65.372917 -14.192565 1.843317 65.805237 -14.350802 1.843317 66.395782 -2.736629 1.843317 65.372917 -3.327180 1.843317 65.214684 -13.760251 -0.125187 66.395782 -13.681132 -0.125187 66.100510 -13.464975 -0.125187 65.884354 -13.094602 -0.125187 65.785110 -3.402278 -0.125187 65.785110 -3.031904 -0.125187 65.884354 2.184631 1.843317 68.757988 2.184631 -2.093691 69.545387 2.184631 -2.093691 68.757988 2.184631 1.843317 69.545387 -2.539778 1.843317 69.545387 -2.539778 -2.093691 68.757988 -2.539778 -2.093691 69.545387 -2.539778 1.843317 68.757988 -3.327180 1.843317 68.757988 -3.327180 -2.093691 68.757988 2.972033 -3.274793 67.970589 2.972033 -2.093691 68.757988 2.972033 -3.274793 70.332794 2.972033 3.024420 67.970589 2.972033 1.843317 68.757988 2.972033 1.843317 70.332794 2.972033 3.024420 70.332794 2.972033 -2.093691 70.332794 -3.327180 3.024420 70.332794 -2.539778 3.024420 67.970589 -3.327180 3.024420 67.970589 -2.539778 2.609576 67.531456 -2.912337 2.609576 67.531456 2.557189 2.609576 67.531456 -2.912337 -2.859950 67.531456 -3.327180 -3.274793 67.970589 -2.539778 2.339417 66.991135 -2.642178 2.339417 66.991135 2.287030 2.339417 66.991135 -3.327180 1.843317 70.332794 -3.327180 -2.093691 70.332794 -3.327180 -3.274793 70.332794 -2.642178 -2.589790 66.991135 2.184631 2.237018 66.395782 -2.539778 2.237018 66.395782 2.557189 -2.859950 67.531456 2.287030 -2.589790 66.991135 2.184631 -2.487391 66.395782 -2.539778 -2.487391 66.395782 18.720064 3.024420 70.332794 13.208253 1.843317 70.332794 18.720064 1.843317 70.332794 13.208253 3.024420 70.332794 13.623096 -2.859950 67.531456 18.035061 -2.589790 66.991135 18.305222 -2.859950 67.531456 13.893255 -2.589790 66.991135 13.995654 3.024420 67.970589 18.720064 3.024420 67.970589 13.208253 3.024420 67.970589 17.932663 -2.487391 66.395782 13.995654 -2.487391 66.395782 13.208253 -3.274793 67.970589 18.720064 -3.274793 67.970589 18.720064 -2.093691 70.332794 13.208253 -3.274793 70.332794 18.720064 -3.274793 70.332794 13.208253 -2.093691 70.332794 13.208253 -2.093691 68.757988 13.208253 1.843317 68.757988 18.720064 1.843317 68.757988 18.720064 -2.093691 68.757988 18.035061 2.339417 66.991135 17.932663 2.237018 66.395782 13.995654 2.609576 67.531456 18.305222 2.609576 67.531456 13.995654 2.339417 66.991135 13.893255 2.339417 66.991135 13.623096 2.609576 67.531456 13.995654 2.237018 66.395782 -13.563400 3.024420 70.332794 -19.075212 1.843317 70.332794 -13.563400 1.843317 70.332794 -19.075212 3.024420 70.332794 -18.660368 -2.859950 67.531456 -14.248404 -2.589790 66.991135 -13.978244 -2.859950 67.531456 -18.390209 -2.589790 66.991135 -18.287809 3.024420 67.970589 -13.563400 3.024420 67.970589 -19.075212 3.024420 67.970589 -14.350802 -2.487391 66.395782 -18.287809 -2.487391 66.395782 -19.075212 -3.274793 67.970589 -13.563400 -3.274793 67.970589 -13.563400 -2.093691 70.332794 -19.075212 -3.274793 70.332794 -13.563400 -3.274793 70.332794 -19.075212 -2.093691 70.332794 -19.075212 -2.093691 68.757988 -19.075212 1.843317 68.757988 -13.563400 1.843317 68.757988 -13.563400 -2.093691 68.757988 -14.248404 2.339417 66.991135 -14.350802 2.237018 66.395782 -18.287809 2.609576 67.531456 -13.978244 2.609576 67.531456 -18.287809 2.339417 66.991135 -18.390209 2.339417 66.991135 -18.660368 2.609576 67.531456 -18.287809 2.237018 66.395782 -6.083086 -2.093691 52.222557 -6.083086 1.843317 52.222557 2.972033 -2.093691 56.946964 2.676757 -0.125187 57.616634 2.381481 -2.093691 57.105202 3.047131 -0.125187 57.517395 2.460600 -0.125187 57.832794 1.949168 -2.093691 57.537518 8.090142 1.843317 58.128067 7.420473 -0.125187 57.832794 7.499591 -0.125187 58.128067 7.931905 1.843317 57.537518 2.972033 1.843317 56.946964 2.381481 1.843317 57.105202 1.949168 1.843317 57.537518 7.499591 1.843317 57.105202 7.204316 -0.125187 57.616634 1.790930 1.843317 58.128067 2.381481 -0.125187 58.128067 7.931905 -2.093691 57.537518 8.090142 -2.093691 58.128067 1.790930 -2.093691 58.128067 12.027150 1.843317 58.128067 12.027150 -2.093691 58.128067 6.909040 -2.093691 56.946964 6.833942 -0.125187 57.517395 -8.287053 -2.093691 57.537518 -7.854739 -0.125187 58.128067 -8.445291 -2.093691 58.128067 -7.775620 -0.125187 57.832794 -8.445291 1.843317 58.128067 -8.287053 1.843317 57.537518 -7.854739 -2.093691 57.105202 -7.559464 -0.125187 57.616634 -2.146078 1.843317 58.128067 -2.815748 -0.125187 57.832794 -2.736629 -0.125187 58.128067 -2.304316 1.843317 57.537518 -2.304316 -2.093691 57.537518 -2.146078 -2.093691 58.128067 7.499591 -2.093691 57.105202 6.909040 1.843317 56.946964 5.727938 -2.093691 52.222557 8.247623 -2.093691 52.576885 10.137386 -2.093691 53.285549 -8.602771 -2.093691 52.576885 -10.492535 -2.093691 53.285549 11.397229 -2.093691 54.348541 -11.752377 -2.093691 54.348541 12.027150 -2.093691 55.765862 -12.382298 -2.093691 55.765862 -3.327180 -2.093691 56.946964 -2.736629 -2.093691 57.105202 1.397229 -2.093691 58.128067 -1.752377 -2.093691 58.128067 -7.264188 -2.093691 56.946964 -12.382298 -2.093691 58.128067 -2.736629 1.843317 57.105202 -3.031904 -0.125187 57.616634 12.027150 1.843317 55.765862 1.397229 1.843317 58.128067 5.727938 1.843317 52.222557 -12.382298 1.843317 58.128067 -12.382298 1.843317 55.765862 -11.752377 1.843317 54.348541 -8.602771 1.843317 52.576885 -10.492535 1.843317 53.285549 8.247623 1.843317 52.576885 10.137386 1.843317 53.285549 11.397229 1.843317 54.348541 -7.264188 1.843317 56.946964 -7.854739 1.843317 57.105202 -3.327180 1.843317 56.946964 -1.752377 1.843317 58.128067 -7.189090 -0.125187 57.517395 -3.402278 -0.125187 57.517395 -18.416439 1.740918 5.287295 -16.626392 -2.196090 4.690613 -18.416439 -2.196090 5.287295 -16.626392 1.740918 4.690613 -18.988598 -2.196090 6.002949 -18.988598 1.740918 6.002949 -14.264188 -2.196090 4.428145 -14.264188 1.740918 4.428145 18.019276 -2.196090 5.215547 18.806679 1.740918 6.002949 18.806679 -2.196090 6.002949 18.019276 1.740918 5.215547 16.444473 1.740918 4.690613 16.444473 -2.196090 4.690613 14.082269 -2.196090 4.428145 14.082269 1.740918 4.428145 18.806679 1.740918 9.152555 -18.988598 1.740918 9.152555 18.806679 -2.196090 9.152555 -18.988598 -2.196090 9.152555 14.783056 3.024420 35.171375 9.271245 1.843317 35.171375 14.783056 1.843317 35.171375 9.271245 3.024420 35.171375 9.686089 -2.859950 32.370041 14.098053 -2.589790 31.829720 14.368213 -2.859950 32.370041 9.956247 -2.589790 31.829720 10.058646 3.024420 32.809170 14.783056 3.024420 32.809170 9.271245 3.024420 32.809170 13.995654 -2.487391 31.234367 10.058646 -2.487391 31.234367 9.271245 -3.274793 32.809170 14.783056 -3.274793 32.809170 14.783056 -2.093691 35.171375 9.271245 -3.274793 35.171375 14.783056 -3.274793 35.171375 9.271245 -2.093691 35.171375 9.271245 -2.093691 33.596573 9.271245 1.843317 33.596573 14.783056 1.843317 33.596573 14.783056 -2.093691 33.596573 14.098053 2.339417 31.829720 13.995654 2.237018 31.234367 10.058646 2.609576 32.370041 14.368213 2.609576 32.370041 10.058646 2.339417 31.829720 9.956247 2.339417 31.829720 9.686089 2.609576 32.370041 10.058646 2.237018 31.234367 -19.991388 1.843317 34.420109 -18.201342 -2.093691 33.823429 -19.991388 -2.093691 34.420109 -18.201342 1.843317 33.823429 -20.563547 -2.093691 35.135765 -20.563547 1.843317 35.135765 -15.839138 -2.093691 33.560963 -15.839138 1.843317 33.560963 19.599045 -2.093691 34.551529 20.386446 1.843317 35.338932 20.386446 -2.093691 35.338932 19.599045 1.843317 34.551529 18.024240 1.843317 34.026596 18.024240 -2.093691 34.026596 15.662037 -2.093691 33.764130 15.662037 1.843317 33.764130 20.386446 1.843317 38.488537 -20.563547 1.843317 38.285370 20.386446 -2.093691 38.488537 -20.563547 -2.093691 38.285370 -2.933479 1.843317 25.328856 -6.476787 -2.093691 25.328856 -6.476787 1.843317 25.328856 -2.933479 -2.093691 25.328856 2.578332 1.843317 26.116257 2.578332 -2.093691 25.328856 2.578332 -2.093691 26.116257 2.578332 1.843317 25.328856 -2.933479 -2.093691 26.116257 -2.933479 1.843317 26.116257 -9.101459 1.843317 25.565077 -11.201196 1.843317 26.037518 -12.775999 1.843317 26.746178 6.121639 1.843317 25.328856 8.746310 1.843317 25.565077 10.846048 1.843317 26.037518 12.420852 1.843317 26.746178 -13.825868 1.843317 27.691061 13.470720 1.843317 27.691061 -14.350802 1.843317 28.872162 13.995654 1.843317 28.872162 -9.232692 1.843317 30.053265 -14.350802 1.843317 31.234367 2.972033 1.843317 30.053265 -9.823243 1.843317 30.211502 -10.255557 1.843317 30.643816 -10.413795 1.843317 31.234367 -2.146078 1.843317 31.234367 -1.752377 1.843317 31.234367 -2.304316 1.843317 30.643816 -3.327180 1.843317 30.053265 2.381481 1.843317 30.211502 -2.736629 1.843317 30.211502 1.949168 1.843317 30.643816 1.790930 1.843317 31.234367 1.397229 1.843317 31.234367 8.877544 1.843317 30.053265 13.995654 1.843317 31.234367 9.468096 1.843317 30.211502 9.900409 1.843317 30.643816 10.058646 1.843317 31.234367 1.397229 -2.093691 31.234367 1.790930 -2.093691 31.234367 2.381481 -0.125187 31.234367 -1.752377 -2.093691 31.234367 1.949168 -2.093691 30.643816 2.460600 -0.125187 30.939093 3.047131 -0.125187 30.623693 8.802446 -0.125187 30.623693 10.058646 -2.093691 31.234367 9.388976 -0.125187 30.939093 9.900409 -2.093691 30.643816 9.468096 -0.125187 31.234367 -9.823243 -2.093691 30.211502 -9.744124 -0.125187 30.939093 -10.255557 -2.093691 30.643816 -9.527967 -0.125187 30.722935 2.676757 -0.125187 30.722935 8.877544 -2.093691 30.053265 2.972033 -2.093691 30.053265 -9.823243 -0.125187 31.234367 -2.815748 -0.125187 30.939093 -2.736629 -2.093691 30.211502 -2.304316 -2.093691 30.643816 -3.031904 -0.125187 30.722935 -9.101459 -2.093691 25.565077 -2.736629 -0.125187 31.234367 13.995654 -2.093691 31.234367 13.995654 -2.093691 28.872162 -10.413795 -2.093691 31.234367 -9.232692 -2.093691 30.053265 -9.157594 -0.125187 30.623693 9.468096 -2.093691 30.211502 9.172820 -0.125187 30.722935 6.121639 -2.093691 25.328856 8.746310 -2.093691 25.565077 -3.402278 -0.125187 30.623693 -3.327180 -2.093691 30.053265 2.381481 -2.093691 30.211502 13.470720 -2.093691 27.691061 10.846048 -2.093691 26.037518 12.420852 -2.093691 26.746178 -14.350802 -2.093691 31.234367 -2.146078 -2.093691 31.234367 -14.350802 -2.093691 28.872162 -13.825868 -2.093691 27.691061 -12.775999 -2.093691 26.746178 -11.201196 -2.093691 26.037518 -9.626392 3.024420 35.171375 -15.138204 1.843317 35.171375 -9.626392 1.843317 35.171375 -15.138204 3.024420 35.171375 -14.723361 -2.859950 32.370041 -10.311396 -2.589790 31.829720 -10.041236 -2.859950 32.370041 -14.453201 -2.589790 31.829720 -14.350802 3.024420 32.809170 -9.626392 3.024420 32.809170 -15.138204 3.024420 32.809170 -10.413795 -2.487391 31.234367 -14.350802 -2.487391 31.234367 -15.138204 -3.274793 32.809170 -9.626392 -3.274793 32.809170 -9.626392 -2.093691 35.171375 -15.138204 -3.274793 35.171375 -9.626392 -3.274793 35.171375 -15.138204 -2.093691 35.171375 -15.138204 -2.093691 33.596573 -15.138204 1.843317 33.596573 -9.626392 1.843317 33.596573 -9.626392 -2.093691 33.596573 -10.311396 2.339417 31.829720 -10.413795 2.237018 31.234367 -14.350802 2.609576 32.370041 -10.041236 2.609576 32.370041 -14.350802 2.339417 31.829720 -14.453201 2.339417 31.829720 -14.723361 2.609576 32.370041 -14.350802 2.237018 31.234367 2.972033 3.024420 32.809170 2.972033 -2.093691 33.596573 2.972033 -3.274793 32.809170 2.972033 1.843317 33.596573 2.972033 1.843317 35.171375 2.972033 3.024420 35.171375 2.972033 -2.093691 35.171375 2.972033 -3.274793 35.171375 -3.327180 3.024420 35.171375 -2.539778 3.024420 32.809170 -3.327180 3.024420 32.809170 -2.539778 2.609576 32.370041 -2.912337 2.609576 32.370041 2.557189 2.609576 32.370041 -2.912337 -2.859950 32.370041 -3.327180 -3.274793 32.809170 -2.539778 2.339417 31.829720 -2.642178 2.339417 31.829720 2.287030 2.339417 31.829720 -3.327180 1.843317 33.596573 -3.327180 1.843317 35.171375 -3.327180 -2.093691 35.171375 -3.327180 -3.274793 35.171375 -3.327180 -2.093691 33.596573 -2.642178 -2.589790 31.829720 2.184631 2.237018 31.234367 -2.539778 2.237018 31.234367 2.557189 -2.859950 32.370041 2.287030 -2.589790 31.829720 2.184631 -2.487391 31.234367 -2.539778 -2.487391 31.234367 -3.720881 1.843317 25.328856 -3.720881 -2.093691 25.328856 3.365733 -2.093691 26.903658 -3.720881 -3.274793 26.903658 3.365733 -3.274793 26.903658 -3.720881 -2.093691 26.903658 3.365733 1.843317 25.328856 3.365733 -2.093691 25.328856 3.365733 3.024420 26.903658 -3.720881 1.843317 26.903658 3.365733 1.843317 26.903658 -3.720881 3.024420 26.903658 -3.720881 -3.274793 24.541454 -3.306038 2.609576 24.102324 -3.306038 -2.859950 24.102324 -3.720881 3.024420 24.541454 -3.035878 2.339417 23.562004 -3.035878 -2.589790 23.562004 2.680731 2.339417 23.562004 -2.933479 2.609576 24.102324 2.950890 2.609576 24.102324 -2.933479 2.339417 23.562004 2.578332 -2.487391 22.966650 2.578332 2.237018 22.966650 2.680731 -2.589790 23.562004 2.950890 -2.859950 24.102324 -2.933479 3.024420 24.541454 3.365733 3.024420 24.541454 -2.933479 -2.487391 22.966650 3.365733 -3.274793 24.541454 -2.933479 2.237018 22.966650 "
							            />
						</IndexedFaceSet>
					</Shape>
				</Group>
			</Transform>
		</Transform>
	</Scene>
</X3D>