<?xml version="1.0" encoding="UTF-8"?>
<!DOCTYPE X3D PUBLIC "ISO//Web3D//DTD X3D 3.0//EN" "http://www.web3d.org/specifications/x3d-3.0.dtd">
<X3D version="3.0" profile="Immersive" xmlns:xsd="http://www.w3.org/2001/XMLSchema-instance" xsd:noNamespaceSchemaLocation="http://www.web3d.org/specifications/x3d-3.0.xsd">
	<head>
		<meta name="filename" content="24-2.x3d" />
		<meta name="created" content="2026-06-21 15:09:41" />
		<meta name="generator" content="Blender 4.5.4 LTS" />
		<meta name="translator" content="Web3D X3D/VRML2 format v2.5.1" />
	</head>
	<Scene>
		<NavigationInfo headlight="true"
		                visibilityLimit="0.0"
		                type='"EXAMINE", "ANY"'
		                avatarSize="0.25, 1.75, 0.75"
		                />
		<Background DEF="WO_World"
		            groundColor="0.051 0.051 0.051"
		            skyColor="0.051 0.051 0.051"
		            />
		<Transform DEF="_24-2_TRANSFORM"
		           translation="0.000000 0.000000 0.000000"
		           scale="1.000000 1.000000 1.000000"
		           rotation="0.000000 0.707107 0.707107 3.141593"
		           >
			<Transform DEF="_24-2_ifs_TRANSFORM"
			           translation="0.000000 0.000000 0.000000"
			           scale="1.000000 1.000000 1.000000"
			           rotation="0.000000 1.000000 0.000000 0.000000"
			           >
				<Group DEF="group_ME_24-2_001">
					<Shape>
						<Appearance>
						</Appearance>
						<IndexedFaceSet solid="false"
						                coordIndex="0 1 2 -1 1 0 3 -1 1 3 4 -1 3 5 4 -1 4 6 1 -1 1 6 2 -1 7 3 0 -1 3 7 5 -1 0 6 7 -1 6 0 2 -1 4 7 6 -1 7 4 5 -1 8 9 10 -1 9 8 11 -1 12 13 14 -1 13 12 15 -1 9 12 14 -1 12 9 11 -1 9 13 10 -1 13 9 14 -1 12 8 15 -1 8 12 11 -1 8 13 15 -1 13 8 10 -1 16 17 18 -1 19 16 18 -1 16 19 20 -1 19 17 21 -1 17 19 18 -1 20 17 16 -1 17 20 21 -1 20 19 21 -1 22 23 24 -1 23 22 25 -1 26 27 28 -1 27 26 29 -1 30 31 32 -1 31 30 33 -1 29 34 27 -1 34 29 35 -1 34 35 36 -1 36 35 24 -1 36 24 37 -1 37 24 23 -1 37 23 31 -1 31 23 38 -1 31 38 32 -1 32 38 39 -1 32 39 40 -1 40 39 41 -1 42 32 40 -1 32 42 30 -1 28 34 43 -1 34 28 27 -1 44 36 37 -1 36 44 45 -1 46 24 35 -1 24 46 22 -1 33 37 31 -1 37 33 44 -1 43 26 28 -1 26 43 45 -1 26 45 46 -1 46 45 22 -1 22 45 44 -1 22 44 33 -1 22 33 25 -1 25 33 30 -1 25 30 47 -1 47 30 48 -1 48 30 42 -1 48 42 49 -1 39 49 41 -1 49 39 48 -1 47 39 38 -1 39 47 48 -1 41 42 40 -1 42 41 49 -1 25 38 23 -1 38 25 47 -1 26 35 29 -1 35 26 46 -1 45 34 36 -1 34 45 43 -1 50 51 52 -1 53 50 52 -1 50 53 54 -1 53 51 55 -1 51 53 52 -1 54 51 50 -1 51 54 55 -1 54 53 55 -1 56 57 58 -1 57 56 59 -1 60 61 62 -1 61 60 63 -1 64 65 66 -1 65 64 67 -1 63 68 61 -1 68 63 69 -1 68 69 70 -1 70 69 58 -1 70 58 71 -1 71 58 57 -1 71 57 65 -1 65 57 72 -1 65 72 66 -1 66 72 73 -1 66 73 74 -1 74 73 75 -1 76 66 74 -1 66 76 64 -1 62 68 77 -1 68 62 61 -1 78 70 71 -1 70 78 79 -1 80 58 69 -1 58 80 56 -1 67 71 65 -1 71 67 78 -1 77 60 62 -1 60 77 79 -1 60 79 80 -1 80 79 56 -1 56 79 78 -1 56 78 67 -1 56 67 59 -1 59 67 64 -1 59 64 81 -1 81 64 82 -1 82 64 76 -1 82 76 83 -1 73 83 75 -1 83 73 82 -1 81 73 72 -1 73 81 82 -1 75 76 74 -1 76 75 83 -1 59 72 57 -1 72 59 81 -1 60 69 63 -1 69 60 80 -1 79 68 70 -1 68 79 77 -1 84 85 86 -1 87 84 86 -1 84 87 88 -1 87 85 89 -1 85 87 86 -1 88 85 84 -1 85 88 89 -1 88 87 89 -1 90 91 92 -1 91 90 93 -1 94 95 96 -1 95 94 97 -1 98 99 100 -1 99 98 101 -1 97 102 95 -1 102 97 103 -1 102 103 104 -1 104 103 92 -1 104 92 105 -1 105 92 91 -1 105 91 99 -1 99 91 106 -1 99 106 100 -1 100 106 107 -1 100 107 108 -1 108 107 109 -1 110 100 108 -1 100 110 98 -1 96 102 111 -1 102 96 95 -1 112 104 105 -1 104 112 113 -1 114 92 103 -1 92 114 90 -1 101 105 99 -1 105 101 112 -1 111 94 96 -1 94 111 113 -1 94 113 114 -1 114 113 90 -1 90 113 112 -1 90 112 101 -1 90 101 93 -1 93 101 98 -1 93 98 115 -1 115 98 116 -1 116 98 110 -1 116 110 117 -1 107 117 109 -1 117 107 116 -1 115 107 106 -1 107 115 116 -1 109 110 108 -1 110 109 117 -1 93 106 91 -1 106 93 115 -1 94 103 97 -1 103 94 114 -1 113 102 104 -1 102 113 111 -1 118 119 120 -1 120 121 118 -1 120 122 121 -1 122 123 121 -1 122 124 123 -1 124 125 123 -1 126 119 118 -1 118 127 126 -1 128 121 123 -1 123 129 128 -1 123 125 130 -1 130 129 123 -1 131 126 127 -1 127 128 131 -1 128 132 131 -1 128 129 132 -1 129 133 132 -1 129 130 133 -1 131 120 119 -1 119 126 131 -1 118 121 128 -1 128 127 118 -1 125 124 133 -1 133 130 125 -1 133 124 122 -1 122 132 133 -1 122 120 131 -1 131 132 122 -1 134 135 136 -1 135 134 137 -1 138 139 140 -1 139 138 141 -1 142 143 144 -1 143 142 145 -1 146 147 148 -1 147 146 149 -1 150 151 152 -1 151 150 153 -1 154 138 155 -1 138 154 141 -1 156 154 155 -1 154 156 157 -1 158 159 160 -1 159 158 161 -1 162 150 152 -1 150 162 163 -1 164 148 165 -1 148 164 146 -1 139 160 140 -1 160 139 158 -1 166 156 167 -1 156 166 157 -1 153 144 151 -1 144 153 142 -1 161 162 159 -1 162 161 163 -1 168 169 170 -1 169 168 171 -1 169 165 170 -1 165 169 164 -1 172 171 168 -1 171 172 173 -1 147 166 167 -1 166 147 149 -1 174 134 136 -1 134 174 175 -1 176 174 177 -1 174 176 175 -1 145 178 143 -1 178 145 179 -1 178 180 181 -1 180 178 179 -1 180 177 181 -1 177 180 176 -1 137 182 183 -1 184 173 185 -1 173 184 186 -1 173 186 187 -1 173 187 188 -1 173 188 189 -1 173 189 190 -1 173 190 191 -1 173 191 192 -1 173 192 193 -1 173 193 194 -1 173 194 195 -1 173 195 196 -1 173 196 182 -1 173 182 137 -1 173 137 134 -1 173 134 175 -1 173 175 176 -1 173 176 180 -1 173 180 179 -1 173 179 145 -1 173 145 142 -1 173 142 153 -1 173 153 150 -1 173 150 163 -1 173 163 161 -1 173 161 158 -1 173 158 139 -1 173 139 141 -1 173 141 154 -1 173 154 157 -1 173 157 166 -1 173 166 149 -1 173 149 146 -1 173 146 164 -1 173 164 169 -1 173 169 171 -1 197 185 198 -1 185 197 184 -1 186 197 199 -1 197 186 184 -1 187 199 200 -1 199 187 186 -1 201 187 200 -1 187 201 188 -1 202 188 201 -1 188 202 189 -1 190 202 203 -1 202 190 189 -1 191 203 204 -1 203 191 190 -1 205 191 204 -1 191 205 192 -1 193 205 206 -1 205 193 192 -1 194 206 207 -1 206 194 193 -1 195 207 208 -1 207 195 194 -1 196 208 209 -1 208 196 195 -1 182 209 210 -1 209 182 196 -1 183 210 211 -1 210 183 182 -1 137 211 135 -1 211 137 183 -1 212 213 214 -1 213 212 215 -1 216 217 218 -1 217 216 219 -1 220 221 222 -1 221 220 223 -1 219 224 217 -1 224 219 225 -1 223 226 221 -1 226 223 227 -1 224 228 229 -1 228 224 225 -1 227 230 226 -1 230 227 231 -1 228 232 229 -1 232 228 233 -1 231 234 230 -1 234 231 235 -1 233 236 232 -1 236 233 237 -1 234 238 239 -1 238 234 235 -1 237 222 236 -1 222 237 220 -1 238 240 239 -1 240 238 241 -1 242 218 243 -1 218 242 216 -1 240 244 245 -1 244 240 241 -1 215 246 213 -1 246 215 247 -1 244 248 245 -1 248 244 249 -1 247 250 246 -1 250 247 251 -1 248 252 253 -1 252 248 249 -1 251 254 250 -1 254 251 255 -1 256 253 252 -1 253 256 257 -1 258 254 255 -1 254 258 259 -1 260 257 256 -1 257 260 261 -1 262 173 172 -1 173 262 263 -1 264 214 265 -1 214 264 212 -1 230 221 226 -1 221 230 210 -1 210 135 211 -1 135 210 230 -1 135 230 234 -1 135 234 136 -1 136 234 239 -1 136 239 174 -1 174 239 240 -1 174 240 177 -1 177 240 245 -1 177 245 181 -1 181 245 248 -1 181 248 178 -1 178 248 253 -1 178 253 143 -1 143 253 257 -1 143 257 144 -1 144 257 261 -1 144 261 151 -1 151 261 265 -1 151 265 152 -1 152 265 214 -1 152 214 162 -1 162 214 213 -1 162 213 159 -1 159 213 246 -1 159 246 160 -1 160 246 250 -1 160 250 140 -1 140 250 254 -1 140 254 138 -1 138 254 259 -1 138 259 155 -1 155 259 266 -1 155 266 156 -1 156 266 267 -1 156 267 167 -1 167 267 268 -1 167 268 147 -1 147 268 269 -1 147 269 148 -1 148 269 270 -1 148 270 165 -1 165 270 271 -1 165 271 170 -1 170 271 262 -1 170 262 172 -1 170 172 168 -1 272 197 198 -1 197 272 273 -1 197 273 199 -1 199 273 274 -1 199 274 200 -1 200 274 275 -1 200 275 201 -1 201 275 243 -1 201 243 202 -1 202 243 218 -1 202 218 203 -1 203 218 217 -1 203 217 204 -1 204 217 224 -1 204 224 205 -1 205 224 229 -1 205 229 206 -1 206 229 232 -1 206 232 207 -1 207 232 236 -1 207 236 208 -1 208 236 222 -1 208 222 209 -1 209 222 221 -1 209 221 210 -1 276 267 266 -1 267 276 277 -1 277 268 267 -1 268 277 278 -1 185 272 198 -1 272 185 279 -1 278 269 268 -1 269 278 280 -1 281 272 279 -1 272 281 273 -1 282 269 280 -1 269 282 270 -1 283 273 281 -1 273 283 274 -1 282 271 270 -1 271 282 284 -1 283 275 274 -1 275 283 285 -1 284 262 271 -1 262 284 263 -1 285 243 275 -1 243 285 242 -1 173 279 185 -1 279 173 281 -1 281 173 283 -1 283 173 285 -1 285 173 242 -1 242 173 216 -1 216 173 219 -1 219 173 225 -1 225 173 228 -1 228 173 233 -1 233 173 237 -1 237 173 220 -1 220 173 223 -1 223 173 231 -1 231 173 235 -1 235 173 238 -1 238 173 241 -1 241 173 244 -1 244 173 249 -1 249 173 252 -1 252 173 256 -1 256 173 260 -1 260 173 264 -1 264 173 212 -1 212 173 215 -1 215 173 247 -1 247 173 251 -1 251 173 255 -1 255 173 258 -1 258 173 276 -1 276 173 277 -1 277 173 278 -1 278 173 280 -1 280 173 282 -1 282 173 284 -1 284 173 263 -1 231 227 223 -1 261 264 265 -1 264 261 260 -1 258 266 259 -1 266 258 276 -1 286 287 288 -1 287 286 289 -1 289 290 291 -1 290 289 286 -1 291 292 293 -1 292 291 290 -1 294 293 292 -1 293 294 295 -1 296 294 297 -1 294 296 295 -1 296 298 299 -1 298 296 297 -1 299 300 301 -1 300 299 298 -1 302 300 303 -1 300 302 301 -1 304 303 305 -1 303 304 302 -1 304 306 307 -1 306 304 305 -1 307 308 309 -1 308 307 306 -1 310 309 308 -1 309 310 311 -1 312 310 313 -1 310 312 311 -1 312 314 315 -1 314 312 313 -1 316 317 318 -1 317 316 319 -1 320 321 322 -1 321 320 323 -1 320 324 325 -1 324 320 322 -1 326 324 327 -1 324 326 325 -1 328 326 327 -1 326 328 329 -1 330 328 331 -1 328 330 329 -1 330 332 333 -1 332 330 331 -1 333 334 335 -1 334 333 332 -1 336 334 337 -1 334 336 335 -1 338 336 337 -1 336 338 339 -1 339 340 341 -1 340 339 338 -1 342 318 343 -1 318 342 316 -1 342 344 345 -1 344 342 343 -1 346 344 347 -1 344 346 345 -1 348 347 349 -1 347 348 346 -1 350 349 351 -1 349 350 348 -1 350 352 353 -1 352 350 351 -1 353 354 355 -1 354 353 352 -1 356 354 357 -1 354 356 355 -1 358 357 359 -1 357 358 356 -1 359 360 358 -1 360 359 361 -1 315 362 363 -1 362 315 314 -1 323 362 321 -1 362 323 363 -1 364 286 288 -1 286 364 290 -1 290 364 365 -1 290 365 292 -1 292 365 366 -1 292 366 294 -1 294 366 367 -1 294 367 297 -1 297 367 368 -1 297 368 298 -1 298 368 369 -1 298 369 300 -1 300 369 370 -1 300 370 303 -1 303 370 371 -1 303 371 305 -1 305 371 372 -1 305 372 306 -1 306 372 373 -1 306 373 308 -1 308 373 374 -1 308 374 310 -1 310 374 375 -1 310 375 313 -1 313 375 376 -1 377 376 378 -1 376 377 362 -1 362 377 321 -1 321 377 379 -1 321 379 322 -1 322 379 380 -1 322 380 324 -1 324 380 381 -1 324 381 327 -1 327 381 382 -1 327 382 328 -1 328 382 383 -1 328 383 331 -1 331 383 384 -1 331 384 332 -1 332 384 385 -1 332 385 334 -1 334 385 386 -1 334 386 337 -1 337 386 387 -1 337 387 338 -1 338 387 388 -1 338 388 340 -1 340 388 389 -1 340 389 317 -1 317 389 390 -1 317 390 318 -1 318 390 391 -1 318 391 343 -1 343 391 392 -1 343 392 344 -1 344 392 393 -1 344 393 347 -1 347 393 394 -1 347 394 349 -1 349 394 395 -1 349 395 351 -1 351 395 396 -1 351 396 352 -1 352 396 397 -1 352 397 354 -1 354 397 398 -1 354 398 357 -1 357 398 399 -1 357 399 359 -1 359 399 400 -1 359 400 361 -1 313 362 314 -1 362 313 376 -1 363 312 315 -1 289 360 287 -1 360 289 291 -1 360 291 293 -1 360 293 295 -1 360 295 296 -1 360 296 299 -1 360 299 301 -1 360 301 302 -1 360 302 304 -1 360 304 307 -1 360 307 309 -1 360 309 311 -1 360 311 312 -1 360 312 363 -1 360 363 323 -1 360 323 320 -1 360 320 325 -1 360 325 326 -1 360 326 329 -1 360 329 330 -1 360 330 333 -1 360 333 335 -1 360 335 336 -1 360 336 339 -1 360 339 341 -1 360 341 319 -1 360 319 316 -1 360 316 342 -1 360 342 345 -1 360 345 346 -1 360 346 348 -1 360 348 350 -1 360 350 353 -1 360 353 355 -1 360 355 356 -1 360 356 358 -1 319 340 317 -1 340 319 341 -1 360 401 287 -1 401 360 402 -1 402 360 403 -1 403 360 404 -1 404 360 405 -1 405 360 406 -1 406 360 407 -1 407 360 408 -1 408 360 409 -1 409 360 410 -1 410 360 411 -1 411 360 412 -1 412 360 413 -1 413 360 414 -1 414 360 415 -1 415 360 416 -1 416 360 417 -1 417 360 418 -1 418 360 419 -1 419 360 420 -1 420 360 421 -1 421 360 422 -1 422 360 423 -1 423 360 424 -1 424 360 425 -1 425 360 426 -1 426 360 427 -1 427 360 428 -1 428 360 429 -1 429 360 430 -1 430 360 431 -1 431 360 432 -1 432 360 433 -1 433 360 434 -1 434 360 435 -1 435 360 436 -1 414 437 413 -1 406 370 369 -1 370 406 407 -1 374 412 375 -1 412 374 411 -1 407 371 370 -1 371 407 408 -1 412 376 375 -1 376 412 413 -1 408 372 371 -1 372 408 409 -1 437 376 413 -1 376 437 378 -1 409 373 372 -1 373 409 410 -1 437 377 378 -1 377 437 414 -1 411 373 410 -1 373 411 374 -1 377 415 379 -1 415 377 414 -1 423 388 387 -1 388 423 424 -1 415 380 379 -1 380 415 416 -1 425 388 424 -1 388 425 389 -1 417 380 416 -1 380 417 381 -1 435 400 399 -1 400 435 436 -1 425 390 389 -1 390 425 426 -1 418 383 382 -1 383 418 419 -1 426 391 390 -1 391 426 427 -1 383 420 384 -1 420 383 419 -1 427 392 391 -1 392 427 428 -1 421 384 420 -1 384 421 385 -1 429 392 428 -1 392 429 393 -1 422 385 421 -1 385 422 386 -1 393 430 394 -1 430 393 429 -1 386 423 387 -1 423 386 422 -1 394 431 395 -1 431 394 430 -1 287 364 288 -1 364 287 401 -1 431 396 395 -1 396 431 432 -1 367 405 368 -1 405 367 404 -1 433 396 432 -1 396 433 397 -1 406 368 405 -1 368 406 369 -1 434 397 433 -1 397 434 398 -1 402 364 401 -1 364 402 365 -1 434 399 398 -1 399 434 435 -1 403 365 402 -1 365 403 366 -1 417 382 381 -1 382 417 418 -1 400 360 361 -1 360 400 436 -1 403 367 366 -1 367 403 404 -1 438 439 440 -1 439 438 441 -1 438 442 441 -1 442 438 443 -1 442 444 445 -1 444 442 443 -1 444 446 445 -1 446 444 447 -1 448 446 447 -1 446 448 449 -1 448 450 449 -1 450 448 451 -1 451 452 450 -1 452 451 453 -1 454 452 453 -1 452 454 455 -1 456 455 454 -1 455 456 457 -1 456 458 457 -1 458 456 459 -1 458 460 461 -1 460 458 459 -1 462 461 460 -1 461 462 463 -1 462 464 463 -1 464 462 465 -1 464 466 467 -1 466 464 465 -1 466 468 467 -1 468 466 469 -1 470 468 469 -1 468 470 471 -1 472 471 470 -1 471 472 473 -1 472 474 473 -1 474 472 475 -1 475 476 474 -1 476 475 477 -1 477 478 476 -1 478 477 479 -1 479 480 478 -1 480 479 481 -1 481 482 480 -1 482 481 483 -1 483 484 482 -1 484 483 485 -1 485 486 484 -1 486 485 487 -1 487 488 486 -1 488 487 489 -1 489 490 488 -1 490 489 491 -1 491 492 490 -1 492 491 493 -1 493 494 492 -1 494 493 495 -1 495 496 494 -1 496 495 497 -1 497 498 496 -1 498 497 499 -1 499 500 498 -1 500 499 501 -1 501 502 500 -1 502 501 503 -1 503 504 502 -1 504 503 505 -1 505 506 504 -1 506 505 507 -1 506 508 509 -1 508 506 507 -1 508 510 509 -1 510 508 511 -1 511 512 510 -1 512 511 513 -1 513 514 512 -1 514 513 515 -1 514 440 439 -1 440 514 515 -1 485 489 487 -1 469 472 470 -1 460 465 462 -1 511 515 513 -1 515 511 508 -1 515 508 507 -1 515 507 505 -1 515 505 503 -1 515 503 501 -1 515 501 499 -1 515 499 497 -1 515 497 495 -1 515 495 493 -1 515 493 491 -1 515 491 489 -1 515 489 485 -1 515 485 483 -1 515 483 481 -1 515 481 479 -1 515 479 477 -1 515 477 475 -1 515 475 472 -1 515 472 469 -1 515 469 466 -1 515 466 465 -1 515 465 460 -1 515 460 459 -1 515 459 456 -1 515 456 454 -1 515 454 453 -1 515 453 451 -1 515 451 448 -1 515 448 447 -1 515 447 444 -1 515 444 443 -1 515 443 438 -1 515 438 440 -1 514 510 512 -1 510 514 509 -1 509 514 506 -1 506 514 504 -1 504 514 502 -1 502 514 500 -1 500 514 498 -1 498 514 496 -1 496 514 494 -1 494 514 492 -1 492 514 490 -1 490 514 488 -1 488 514 484 -1 484 514 482 -1 482 514 480 -1 480 514 478 -1 478 514 476 -1 476 514 474 -1 474 514 473 -1 473 514 468 -1 468 514 467 -1 467 514 464 -1 464 514 461 -1 461 514 458 -1 458 514 457 -1 457 514 455 -1 455 514 452 -1 452 514 450 -1 450 514 449 -1 449 514 446 -1 446 514 445 -1 445 514 442 -1 442 514 441 -1 441 514 439 -1 461 463 464 -1 468 471 473 -1 484 486 488 -1 516 514 515 -1 515 517 516 -1 518 519 516 -1 516 517 518 -1 518 520 521 -1 521 519 518 -1 522 523 521 -1 521 520 522 -1 524 525 523 -1 523 522 524 -1 524 526 527 -1 527 525 524 -1 526 528 529 -1 529 527 526 -1 528 530 531 -1 531 529 528 -1 532 533 531 -1 531 530 532 -1 532 534 535 -1 535 533 532 -1 534 536 537 -1 537 535 534 -1 536 538 539 -1 539 537 536 -1 540 539 538 -1 538 541 540 -1 541 542 543 -1 543 540 541 -1 542 544 545 -1 545 543 542 -1 546 547 545 -1 545 544 546 -1 548 549 547 -1 547 546 548 -1 548 550 551 -1 551 549 548 -1 550 552 553 -1 553 551 550 -1 552 554 555 -1 555 553 552 -1 556 557 555 -1 555 554 556 -1 556 558 559 -1 559 557 556 -1 560 561 559 -1 559 558 560 -1 562 563 561 -1 561 560 562 -1 564 563 562 -1 562 565 564 -1 566 567 564 -1 564 565 566 -1 568 569 567 -1 567 566 568 -1 570 571 569 -1 569 568 570 -1 572 571 570 -1 570 573 572 -1 573 574 575 -1 575 572 573 -1 574 576 577 -1 577 575 574 -1 578 579 577 -1 577 576 578 -1 580 581 579 -1 579 578 580 -1 580 582 583 -1 583 581 580 -1 584 585 583 -1 583 582 584 -1 586 587 585 -1 585 584 586 -1 588 589 587 -1 587 586 588 -1 588 440 439 -1 439 589 588 -1 439 440 515 -1 515 514 439 -1 544 542 541 -1 560 558 556 -1 568 566 565 -1 518 517 515 -1 515 520 518 -1 515 522 520 -1 515 524 522 -1 515 526 524 -1 515 528 526 -1 515 530 528 -1 515 532 530 -1 515 534 532 -1 515 536 534 -1 515 538 536 -1 515 541 538 -1 515 544 541 -1 515 546 544 -1 515 548 546 -1 515 550 548 -1 515 552 550 -1 515 554 552 -1 515 556 554 -1 515 560 556 -1 515 562 560 -1 515 565 562 -1 515 568 565 -1 515 570 568 -1 515 573 570 -1 515 574 573 -1 515 576 574 -1 515 578 576 -1 515 580 578 -1 515 582 580 -1 515 584 582 -1 515 586 584 -1 515 588 586 -1 515 440 588 -1 514 516 519 -1 519 521 514 -1 521 523 514 -1 523 525 514 -1 525 527 514 -1 527 529 514 -1 529 531 514 -1 531 533 514 -1 533 535 514 -1 535 537 514 -1 537 539 514 -1 539 540 514 -1 540 545 514 -1 545 547 514 -1 547 549 514 -1 549 551 514 -1 551 553 514 -1 553 555 514 -1 555 557 514 -1 557 561 514 -1 561 563 514 -1 563 564 514 -1 564 569 514 -1 569 571 514 -1 571 572 514 -1 572 575 514 -1 575 577 514 -1 577 579 514 -1 579 581 514 -1 581 583 514 -1 583 585 514 -1 585 587 514 -1 587 589 514 -1 589 439 514 -1 569 564 567 -1 561 557 559 -1 545 540 543 -1 590 591 592 -1 591 590 593 -1 591 594 595 -1 594 591 593 -1 595 596 597 -1 596 595 594 -1 596 592 597 -1 592 596 590 -1 596 593 590 -1 593 596 594 -1 591 597 592 -1 597 591 595 -1 598 599 600 -1 599 598 601 -1 601 602 603 -1 602 601 598 -1 603 604 605 -1 604 603 602 -1 598 604 602 -1 604 598 600 -1 606 607 608 -1 607 606 609 -1 609 606 610 -1 609 610 611 -1 611 610 612 -1 612 610 613 -1 613 610 614 -1 614 610 615 -1 615 610 616 -1 616 610 617 -1 617 610 618 -1 618 610 619 -1 619 610 620 -1 620 610 621 -1 620 621 622 -1 622 621 623 -1 622 623 624 -1 624 623 604 -1 624 604 600 -1 625 626 627 -1 626 625 611 -1 626 611 612 -1 604 628 623 -1 628 604 605 -1 623 629 621 -1 629 623 628 -1 621 630 610 -1 630 621 629 -1 610 631 606 -1 631 610 630 -1 606 632 608 -1 632 606 631 -1 608 633 607 -1 633 608 632 -1 607 634 609 -1 634 607 633 -1 609 635 611 -1 635 609 634 -1 611 636 625 -1 636 611 635 -1 625 637 627 -1 637 625 636 -1 627 638 626 -1 638 627 637 -1 626 639 612 -1 639 626 638 -1 640 612 639 -1 612 640 613 -1 613 641 614 -1 641 613 640 -1 614 642 615 -1 642 614 641 -1 643 615 642 -1 615 643 616 -1 616 644 617 -1 644 616 643 -1 645 617 644 -1 617 645 618 -1 646 618 645 -1 618 646 619 -1 647 619 646 -1 619 647 620 -1 648 620 647 -1 620 648 622 -1 649 622 648 -1 622 649 624 -1 599 624 649 -1 624 599 600 -1 601 605 603 -1 605 601 599 -1 631 633 632 -1 633 631 634 -1 634 631 630 -1 634 630 635 -1 635 630 639 -1 639 630 640 -1 640 630 641 -1 641 630 642 -1 642 630 643 -1 643 630 644 -1 644 630 645 -1 645 630 646 -1 646 630 647 -1 647 630 629 -1 647 629 648 -1 648 629 628 -1 648 628 649 -1 649 628 605 -1 649 605 599 -1 636 638 637 -1 638 636 635 -1 638 635 639 -1 650 651 604 -1 651 650 652 -1 651 653 654 -1 653 651 652 -1 654 655 656 -1 655 654 653 -1 655 657 656 -1 657 655 658 -1 657 659 660 -1 659 657 658 -1 660 661 662 -1 661 660 659 -1 661 663 662 -1 663 661 664 -1 663 665 666 -1 665 663 664 -1 666 667 668 -1 667 666 665 -1 667 669 668 -1 669 667 670 -1 669 671 672 -1 671 669 670 -1 671 673 672 -1 673 671 674 -1 674 675 673 -1 675 674 676 -1 676 677 675 -1 677 676 678 -1 677 679 680 -1 679 677 678 -1 679 681 680 -1 681 679 682 -1 682 683 681 -1 683 682 684 -1 683 685 686 -1 685 683 684 -1 686 687 688 -1 687 686 685 -1 687 689 688 -1 689 687 690 -1 689 691 692 -1 691 689 690 -1 692 693 694 -1 693 692 691 -1 694 695 696 -1 695 694 693 -1 695 697 696 -1 697 695 698 -1 698 699 697 -1 699 698 700 -1 699 701 702 -1 701 699 700 -1 702 703 704 -1 703 702 701 -1 704 705 706 -1 705 704 703 -1 705 707 706 -1 707 705 708 -1 707 709 710 -1 709 707 708 -1 710 711 712 -1 711 710 709 -1 711 713 712 -1 713 711 714 -1 714 715 713 -1 715 714 716 -1 715 717 718 -1 717 715 716 -1 717 719 718 -1 719 717 720 -1 720 721 719 -1 721 720 722 -1 722 723 721 -1 723 722 724 -1 723 725 726 -1 725 723 724 -1 726 727 728 -1 727 726 725 -1 728 729 730 -1 729 728 727 -1 729 731 730 -1 731 729 732 -1 732 733 731 -1 733 732 734 -1 733 735 736 -1 735 733 734 -1 736 737 738 -1 737 736 735 -1 738 739 740 -1 739 738 737 -1 739 741 740 -1 741 739 742 -1 741 743 744 -1 743 741 742 -1 744 745 746 -1 745 744 743 -1 746 747 748 -1 747 746 745 -1 747 749 748 -1 749 747 750 -1 749 751 752 -1 751 749 750 -1 752 753 754 -1 753 752 751 -1 754 755 756 -1 755 754 753 -1 755 757 756 -1 757 755 758 -1 758 759 757 -1 759 758 760 -1 759 761 762 -1 761 759 760 -1 762 763 764 -1 763 762 761 -1 763 765 764 -1 765 763 766 -1 766 767 765 -1 767 766 768 -1 767 769 770 -1 769 767 768 -1 770 771 772 -1 771 770 769 -1 771 773 772 -1 773 771 774 -1 773 775 776 -1 775 773 774 -1 776 777 778 -1 777 776 775 -1 778 779 780 -1 779 778 777 -1 780 781 782 -1 781 780 779 -1 782 783 784 -1 783 782 781 -1 665 664 667 -1 659 658 661 -1 650 670 652 -1 670 650 783 -1 670 783 781 -1 670 781 779 -1 670 779 777 -1 670 777 775 -1 670 775 774 -1 670 774 771 -1 670 771 769 -1 670 769 768 -1 670 768 766 -1 670 766 671 -1 652 670 658 -1 658 670 664 -1 664 670 667 -1 658 664 661 -1 652 658 655 -1 652 655 653 -1 750 747 751 -1 766 732 671 -1 732 766 763 -1 732 763 734 -1 734 763 761 -1 734 761 760 -1 734 760 758 -1 734 758 739 -1 739 758 742 -1 742 758 755 -1 742 755 743 -1 743 755 753 -1 743 753 751 -1 743 751 747 -1 743 747 745 -1 739 735 734 -1 735 739 737 -1 727 724 729 -1 724 727 725 -1 701 700 703 -1 698 695 700 -1 732 674 671 -1 674 732 729 -1 674 729 724 -1 674 724 722 -1 674 722 676 -1 676 722 720 -1 676 720 678 -1 678 720 717 -1 678 717 679 -1 679 717 716 -1 679 716 682 -1 682 716 714 -1 682 714 711 -1 682 711 684 -1 684 711 709 -1 684 709 685 -1 685 709 708 -1 685 708 687 -1 687 708 705 -1 687 705 690 -1 690 705 691 -1 691 705 703 -1 691 703 693 -1 693 703 695 -1 695 703 700 -1 783 785 784 -1 785 783 786 -1 786 787 785 -1 787 786 788 -1 788 789 787 -1 789 788 790 -1 790 791 789 -1 791 790 792 -1 792 793 791 -1 793 792 794 -1 793 795 796 -1 795 793 794 -1 795 797 796 -1 797 795 798 -1 798 799 797 -1 799 798 800 -1 799 801 802 -1 801 799 800 -1 802 803 804 -1 803 802 801 -1 803 805 804 -1 805 803 806 -1 806 807 805 -1 807 806 808 -1 807 809 810 -1 809 807 808 -1 810 811 812 -1 811 810 809 -1 811 813 812 -1 813 811 814 -1 814 815 813 -1 815 814 816 -1 816 817 815 -1 817 816 818 -1 817 819 820 -1 819 817 818 -1 819 821 820 -1 821 819 822 -1 822 823 821 -1 823 822 824 -1 824 825 823 -1 825 824 826 -1 825 827 828 -1 827 825 826 -1 827 829 828 -1 829 827 830 -1 830 831 829 -1 831 830 832 -1 832 833 831 -1 833 832 834 -1 833 835 836 -1 835 833 834 -1 835 837 836 -1 837 835 838 -1 838 839 837 -1 839 838 840 -1 840 841 839 -1 841 840 842 -1 842 843 841 -1 843 842 844 -1 844 845 843 -1 845 844 846 -1 846 847 845 -1 847 846 848 -1 848 849 847 -1 849 848 850 -1 850 851 849 -1 851 850 852 -1 852 853 851 -1 853 852 854 -1 854 855 853 -1 855 854 856 -1 856 857 855 -1 857 856 858 -1 858 859 857 -1 859 858 860 -1 860 861 859 -1 861 860 862 -1 862 863 861 -1 863 862 864 -1 864 865 863 -1 865 864 866 -1 866 867 865 -1 867 866 868 -1 868 869 867 -1 869 868 870 -1 870 871 869 -1 871 870 872 -1 872 873 871 -1 873 872 874 -1 874 875 873 -1 875 874 876 -1 876 877 875 -1 877 876 878 -1 878 879 877 -1 879 878 880 -1 880 881 879 -1 881 880 882 -1 882 883 881 -1 883 882 884 -1 884 885 883 -1 885 884 886 -1 886 887 885 -1 887 886 888 -1 888 889 887 -1 889 888 890 -1 890 891 889 -1 891 890 892 -1 892 893 891 -1 893 892 894 -1 894 895 893 -1 895 894 896 -1 896 897 895 -1 897 896 898 -1 898 899 897 -1 899 898 900 -1 900 901 899 -1 901 900 902 -1 902 903 901 -1 903 902 904 -1 904 905 903 -1 905 904 906 -1 906 907 905 -1 907 906 908 -1 908 909 907 -1 909 908 910 -1 910 911 909 -1 911 910 912 -1 912 913 911 -1 913 912 914 -1 914 915 913 -1 915 914 916 -1 916 604 915 -1 604 916 650 -1 868 872 870 -1 864 868 866 -1 906 910 908 -1 840 844 842 -1 844 840 838 -1 900 904 902 -1 816 819 818 -1 819 816 814 -1 819 814 824 -1 824 814 826 -1 826 814 811 -1 826 811 809 -1 826 809 827 -1 827 809 808 -1 827 808 834 -1 834 808 835 -1 835 808 806 -1 835 806 803 -1 835 803 801 -1 835 801 896 -1 896 801 898 -1 914 650 916 -1 650 914 912 -1 650 912 910 -1 650 910 906 -1 650 906 904 -1 650 904 900 -1 650 900 898 -1 650 898 801 -1 650 801 800 -1 650 800 798 -1 650 798 795 -1 650 795 794 -1 650 794 792 -1 650 792 790 -1 650 790 788 -1 650 788 786 -1 650 786 783 -1 872 876 874 -1 876 872 868 -1 876 868 864 -1 876 864 862 -1 876 862 878 -1 878 862 860 -1 878 860 880 -1 880 860 882 -1 882 860 858 -1 882 858 884 -1 884 858 856 -1 884 856 886 -1 886 856 854 -1 886 854 888 -1 888 854 852 -1 888 852 850 -1 888 850 890 -1 890 850 848 -1 890 848 892 -1 892 848 846 -1 892 846 894 -1 894 846 844 -1 894 844 896 -1 896 844 838 -1 896 838 835 -1 827 832 830 -1 832 827 834 -1 824 822 819 -1 917 918 919 -1 918 917 920 -1 918 920 921 -1 921 920 922 -1 922 920 923 -1 922 923 924 -1 925 926 927 -1 926 925 928 -1 924 929 922 -1 929 924 930 -1 931 932 933 -1 932 931 934 -1 932 935 936 -1 935 932 934 -1 937 928 925 -1 928 937 931 -1 931 937 938 -1 931 938 934 -1 934 938 939 -1 934 939 935 -1 937 927 940 -1 927 937 925 -1 941 936 930 -1 936 941 932 -1 933 941 942 -1 941 933 932 -1 926 931 933 -1 931 926 928 -1 943 933 942 -1 933 943 926 -1 927 943 944 -1 943 927 926 -1 945 940 946 -1 940 945 947 -1 940 944 946 -1 944 940 927 -1 923 930 924 -1 930 923 941 -1 948 923 920 -1 923 948 941 -1 941 948 942 -1 917 948 920 -1 948 917 943 -1 948 943 942 -1 944 917 919 -1 917 944 943 -1 929 921 922 -1 921 929 949 -1 949 929 945 -1 921 946 918 -1 946 921 949 -1 946 949 945 -1 946 919 918 -1 919 946 944 -1 930 950 929 -1 950 930 936 -1 950 945 929 -1 945 950 947 -1 936 939 950 -1 939 936 935 -1 939 947 950 -1 947 939 938 -1 947 937 940 -1 937 947 938 -1 951 952 953 -1 952 951 954 -1 951 955 956 -1 955 951 953 -1 952 955 953 -1 955 952 957 -1 956 954 951 -1 954 956 958 -1 958 955 957 -1 955 958 956 -1 957 954 958 -1 954 957 952 -1 959 960 961 -1 960 959 962 -1 963 964 965 -1 964 963 966 -1 967 968 969 -1 968 967 970 -1 970 967 971 -1 970 971 972 -1 973 974 975 -1 974 973 976 -1 959 972 971 -1 972 959 961 -1 965 974 963 -1 974 965 975 -1 975 965 968 -1 968 965 969 -1 969 977 967 -1 977 969 965 -1 977 965 964 -1 966 974 976 -1 974 966 963 -1 962 978 979 -1 978 962 959 -1 978 959 980 -1 981 968 970 -1 968 981 975 -1 975 981 973 -1 971 980 959 -1 980 971 967 -1 980 967 977 -1 982 972 961 -1 972 982 970 -1 970 982 981 -1 976 964 966 -1 964 976 973 -1 964 973 981 -1 964 981 977 -1 977 981 980 -1 980 981 982 -1 980 982 983 -1 980 983 978 -1 983 960 984 -1 960 983 961 -1 961 983 982 -1 979 960 962 -1 960 979 984 -1 978 984 979 -1 984 978 983 -1 "
						                >
							<Coordinate DEF="coords_ME_24-2_001"
							            point="-66.577721 47.496750 23.416796 -42.109798 47.496750 34.270195 -66.129494 47.496750 22.540531 -42.558029 47.496750 36.327564 -42.109798 46.162106 35.451298 -42.558029 46.162106 36.327564 -66.129494 46.162106 22.540531 -66.577721 46.162106 23.416796 -122.339233 101.687904 39.348438 -118.402222 101.687904 27.537416 -122.339233 101.687904 27.537416 -118.402222 101.687904 39.348438 -118.402222 49.705410 39.348438 -122.339233 49.705410 27.537416 -118.402222 49.705410 27.537416 -122.339233 49.705410 39.348438 -69.871994 102.672157 59.894291 -69.871994 53.065857 59.894291 -69.871994 53.065857 65.799805 -65.934982 53.065857 65.799805 -65.934982 102.672157 59.894291 -65.934982 53.065857 59.894291 -63.769630 101.687904 56.441536 -64.036522 52.081608 57.437599 -63.769630 52.081608 56.441536 -64.036522 101.687904 57.437599 -65.836555 101.687904 52.861511 -67.903488 52.081608 52.307678 -67.903488 101.687904 52.307678 -65.836555 52.081608 52.861511 -71.483513 101.687904 58.508465 -71.770454 52.081608 57.437599 -71.483513 52.081608 58.508465 -71.770454 101.687904 57.437599 -69.970421 52.081608 52.861511 -64.323463 52.081608 54.374607 -71.483513 52.081608 54.374607 -72.037346 52.081608 56.441536 -64.323463 52.081608 58.508465 -65.836555 52.081608 60.021564 -69.970421 52.081608 60.021564 -67.903488 52.081608 60.575394 -69.970421 101.687904 60.021564 -69.970421 101.687904 52.861511 -72.037346 101.687904 56.441536 -71.483513 101.687904 54.374607 -64.323463 101.687904 54.374607 -64.323463 101.687904 58.508465 -65.836555 101.687904 60.021564 -67.903488 101.687904 60.575394 -30.360928 102.672157 87.209183 -30.360928 53.065857 87.209183 -30.360928 53.065857 93.114693 -26.423920 53.065857 93.114693 -26.423920 102.672157 87.209183 -26.423920 53.065857 87.209183 -24.258564 101.687904 83.756432 -24.525459 52.081608 84.752487 -24.258564 52.081608 83.756432 -24.525459 101.687904 84.752487 -26.325493 101.687904 80.176399 -28.392424 52.081608 79.622566 -28.392424 101.687904 79.622566 -26.325493 52.081608 80.176399 -31.972448 101.687904 85.823357 -32.259388 52.081608 84.752487 -31.972448 52.081608 85.823357 -32.259388 101.687904 84.752487 -30.459352 52.081608 80.176399 -24.812397 52.081608 81.689499 -31.972448 52.081608 81.689499 -32.526279 52.081608 83.756432 -24.812397 52.081608 85.823357 -26.325493 52.081608 87.336456 -30.459352 52.081608 87.336456 -28.392424 52.081608 87.890289 -30.459352 101.687904 87.336456 -30.459352 101.687904 80.176399 -32.526279 101.687904 83.756432 -31.972448 101.687904 81.689499 -24.812397 101.687904 81.689499 -24.812397 101.687904 85.823357 -26.325493 101.687904 87.336456 -28.392424 101.687904 87.890289 8.233624 100.295959 121.593819 8.233624 50.689663 121.593819 8.233624 50.689663 127.499329 12.170631 50.689663 127.499329 12.170631 100.295959 121.593819 12.170631 50.689663 121.593819 14.335985 99.311714 118.141060 14.069091 49.705414 119.137123 14.335985 49.705414 118.141060 14.069091 99.311714 119.137123 12.269056 99.311714 114.561035 10.202127 49.705414 114.007202 10.202127 99.311714 114.007202 12.269056 49.705414 114.561035 6.622101 99.311714 120.207993 6.335163 49.705414 119.137123 6.622101 49.705414 120.207993 6.335163 99.311714 119.137123 8.135198 49.705414 114.561035 13.782153 49.705414 116.074135 6.622101 49.705414 116.074135 6.068269 49.705414 118.141060 13.782153 49.705414 120.207993 12.269056 49.705414 121.721085 8.135198 49.705414 121.721085 10.202127 49.705414 122.274918 8.135198 99.311714 121.721085 8.135198 99.311714 114.561035 6.068269 99.311714 118.141060 6.622101 99.311714 116.074135 13.782153 99.311714 116.074135 13.782153 99.311714 120.207993 12.269056 99.311714 121.721085 10.202127 99.311714 122.274918 42.909012 48.313469 101.914108 42.074039 47.736908 100.986450 41.239067 48.313469 100.058792 43.254868 49.705414 102.298355 40.893208 49.705414 99.674545 42.909012 51.097355 101.914108 41.239067 51.097355 100.058792 42.074039 51.673916 100.986450 8.819874 47.736908 130.918106 9.654847 48.313469 131.845764 10.000704 49.705414 132.230011 9.654847 51.097355 131.845764 8.819874 51.673916 130.918106 7.984900 48.313469 129.990448 7.639043 49.705414 129.606201 7.984900 51.097355 129.990448 -122.739868 47.736908 15.427746 -121.982582 46.162106 14.777321 -122.739868 46.162106 15.427746 -121.982582 47.736908 14.777321 -126.967384 46.162106 19.181032 -126.774757 47.736908 18.786139 -126.774757 46.162106 18.786139 -126.967384 47.736908 19.181032 -124.793060 47.736908 17.237902 -124.363365 46.162106 17.297535 -124.793060 46.162106 17.237902 -124.363365 47.736908 17.297535 -129.571823 47.736908 20.628918 -128.761566 46.162106 20.496861 -129.571823 46.162106 20.628918 -128.761566 47.736908 20.496861 -125.541634 47.736908 17.701475 -125.213791 46.162106 17.382139 -125.541634 46.162106 17.701475 -125.213791 47.736908 17.382139 -127.535316 47.736908 19.268997 -127.535316 46.162106 19.268997 -128.057053 46.162106 19.538303 -128.057053 47.736908 19.538303 -126.483055 47.736908 18.462217 -126.117859 46.162106 18.237680 -126.483055 46.162106 18.462217 -126.117859 47.736908 18.237680 -125.711197 46.162106 18.132215 -125.711197 47.736908 18.132215 -130.336365 47.736908 20.963728 -130.336365 46.162106 20.963728 -128.479996 47.736908 19.961817 -128.479996 46.162106 19.961817 -131.548096 46.162106 22.149179 -131.008728 47.736908 21.480955 -131.008728 46.162106 21.480955 -131.548096 47.736908 22.149179 -118.816628 46.162106 27.420347 -118.816628 47.736908 27.420347 -123.006157 46.162106 16.404133 -123.006157 47.736908 16.404133 -123.403038 47.736908 16.505550 -123.403038 46.162106 16.505550 -124.098640 46.162106 16.963442 -124.098640 47.736908 16.963442 -123.773224 47.736908 16.695074 -123.773224 46.162106 16.695074 -120.242638 47.736908 15.236896 -121.027046 47.736908 14.704294 -112.020294 47.736908 10.090971 -111.436989 47.736908 9.596299 -112.978432 47.736908 10.063335 -113.913223 47.736908 10.344692 -114.735558 47.736908 10.908220 -115.367043 47.736908 11.700202 -116.258041 47.736908 11.750056 -117.091125 47.736908 12.124166 -117.760628 47.736908 12.775080 -118.181618 47.736908 13.620229 -118.911591 47.736908 13.557264 -119.599754 47.736908 13.866893 -120.081802 47.736908 14.475184 -112.020294 46.162106 10.090971 -111.436989 46.162106 9.596299 -112.978432 46.162106 10.063335 -113.913223 46.162106 10.344692 -114.735558 46.162106 10.908220 -115.367043 46.162106 11.700202 -116.258041 46.162106 11.750056 -117.091125 46.162106 12.124166 -117.760628 46.162106 12.775080 -118.181618 46.162106 13.620229 -118.911591 46.162106 13.557264 -119.599754 46.162106 13.866893 -120.081802 46.162106 14.475184 -120.242638 46.162106 15.236896 -121.027046 46.162106 14.704294 -107.374260 47.736908 25.724201 -107.161171 46.162106 26.086260 -107.374260 46.162106 25.724201 -107.161171 47.736908 26.086260 -109.549355 47.736908 14.527635 -109.224541 46.162106 15.381147 -109.549355 46.162106 14.527635 -109.224541 47.736908 15.381147 -108.771027 47.736908 19.158152 -109.195702 46.162106 19.810627 -108.771027 46.162106 19.158152 -109.195702 47.736908 19.810627 -109.211098 46.162106 16.314817 -109.211098 47.736908 16.314817 -108.264381 46.162106 19.988380 -108.264381 47.736908 19.988380 -109.510735 47.736908 17.210209 -109.510735 46.162106 17.210209 -107.640121 46.162106 20.715487 -107.640121 47.736908 20.715487 -108.949898 46.162106 17.681673 -108.949898 47.736908 17.681673 -107.564240 46.162106 21.710865 -107.564240 47.736908 21.710865 -108.682007 46.162106 18.387135 -108.682007 47.736908 18.387135 -108.066078 47.736908 22.589731 -108.066078 46.162106 22.589731 -107.857040 46.162106 22.942011 -107.857040 47.736908 22.942011 -110.144341 47.736908 13.862541 -110.144341 46.162106 13.862541 -107.729164 47.736908 23.337748 -107.729164 46.162106 23.337748 -107.061577 46.162106 26.503231 -107.061577 47.736908 26.503231 -107.688698 46.162106 23.757601 -107.688698 47.736908 23.757601 -107.084221 46.162106 26.938549 -107.084221 47.736908 26.938549 -107.737610 47.736908 24.181047 -107.737610 46.162106 24.181047 -107.227112 46.162106 27.354036 -107.227112 47.736908 27.354036 -107.391518 47.736908 24.442608 -107.391518 46.162106 24.442608 -106.887573 47.736908 27.817719 -106.887573 46.162106 27.817719 -107.195885 47.736908 24.842039 -107.195885 46.162106 24.842039 -106.085159 46.162106 32.691517 -106.085159 47.736908 32.691517 -107.189720 47.736908 25.299664 -107.189720 46.162106 25.299664 -106.708908 46.162106 28.377008 -106.709114 46.162106 28.975554 -106.888161 46.162106 29.553041 -106.408386 46.162106 30.219206 -106.104279 46.162106 30.996466 -105.994308 46.162106 31.837601 -111.374069 46.162106 10.358526 -110.676811 46.162106 11.016269 -110.214493 46.162106 11.876067 -110.031174 46.162106 12.855960 -106.708908 47.736908 28.377008 -106.709114 47.736908 28.975554 -106.888161 47.736908 29.553041 -111.374069 47.736908 10.358526 -106.408386 47.736908 30.219206 -110.676811 47.736908 11.016269 -106.104279 47.736908 30.996466 -110.214493 47.736908 11.876067 -105.994308 47.736908 31.837601 -110.031174 47.736908 12.855960 -15.654887 46.752655 63.660690 -14.973424 47.736908 63.313477 -14.973424 46.752655 63.313477 -15.654887 47.736908 63.660690 -16.580969 46.752655 63.413376 -16.580969 47.736908 63.413376 -17.555412 46.752655 63.472141 -17.555412 47.736908 63.472141 -18.485329 46.752655 63.831375 -18.485329 47.736908 63.831375 -19.282074 47.736908 64.456841 -19.282074 46.752655 64.456841 -20.160643 46.752655 64.300385 -20.160643 47.736908 64.300385 -21.057449 46.752655 64.472809 -21.057449 47.736908 64.472809 -21.858734 47.736908 64.952248 -21.858734 46.752655 64.952248 -22.462862 47.736908 65.677879 -22.462862 46.752655 65.677879 -23.158764 46.752655 65.448677 -23.158764 47.736908 65.448677 -23.899702 46.752655 65.591690 -23.899702 47.736908 65.591690 -24.508762 46.752655 66.072769 -24.508762 47.736908 66.072769 -24.840517 47.736908 66.777046 -24.840517 46.752655 66.777046 -25.481356 46.752655 66.078278 -25.481356 47.736908 66.078278 -32.013935 47.736908 68.728386 -31.655537 46.752655 68.480263 -32.013935 46.752655 68.728386 -31.655537 47.736908 68.480263 -27.798437 47.736908 67.277229 -27.314671 46.752655 66.388290 -27.798437 46.752655 67.277229 -27.314671 47.736908 66.388290 -28.207998 46.752655 67.284630 -28.207998 47.736908 67.284630 -28.611860 47.736908 67.383904 -28.611860 46.752655 67.383904 -28.990282 46.752655 67.570213 -28.990282 47.736908 67.570213 -29.324770 47.736908 67.834450 -29.324770 46.752655 67.834450 -29.729218 46.752655 67.677567 -29.729218 47.736908 67.677567 -30.171846 46.752655 67.721146 -30.171846 47.736908 67.721146 -30.564362 47.736908 67.956497 -30.564362 46.752655 67.956497 -30.828470 46.752655 68.336670 -30.828470 47.736908 68.336670 -31.248484 46.752655 68.345757 -31.248484 47.736908 68.345757 -32.292240 47.736908 69.068375 -32.292240 46.752655 69.068375 -32.865177 46.752655 69.023323 -32.865177 47.736908 69.023323 -33.434868 47.736908 69.165382 -33.434868 46.752655 69.165382 -33.943909 47.736908 69.480240 -33.943909 46.752655 69.480240 -34.341011 47.736908 69.936157 -34.341011 46.752655 69.936157 -35.159920 46.752655 69.878273 -35.159920 47.736908 69.878273 -35.980972 46.752655 70.028221 -35.980972 47.736908 70.028221 -36.754295 47.736908 70.376900 -36.754295 46.752655 70.376900 -37.432907 47.736908 70.903122 -37.432907 46.752655 70.903122 -26.255548 47.736908 78.961784 -26.255548 46.752655 78.961784 -26.428064 46.752655 65.929527 -26.428064 47.736908 65.929527 -15.087543 46.752655 64.069733 -14.560301 46.752655 64.870239 -14.308176 46.752655 65.813332 -14.355203 46.752655 66.809120 -14.696897 46.752655 67.762665 -14.270870 46.752655 68.546799 -14.151116 46.752655 69.452141 -14.352825 46.752655 70.363861 -14.850413 46.752655 71.166306 -14.413078 46.752655 71.754143 -14.314664 46.752655 72.502312 -14.578669 46.752655 73.232170 -15.142055 46.752655 73.769455 -13.836359 46.752655 75.007904 -14.276606 46.752655 74.156685 -13.991501 46.752655 75.994041 -14.682058 46.752655 76.733887 -14.559674 46.752655 77.124809 -14.526266 46.752655 77.539345 -14.583467 46.752655 77.957253 -14.728483 46.752655 78.358086 -14.451849 46.752655 78.692253 -14.353348 46.752655 79.125977 -14.452627 46.752655 79.572746 -14.729884 46.752655 79.943443 -14.605800 46.752655 80.344810 -14.604804 46.752655 80.773506 -14.726984 46.752655 81.191940 -14.961624 46.752655 81.563416 -14.737865 46.752655 82.092766 -14.692654 46.752655 82.678162 -14.830545 46.752655 83.260605 -15.137647 46.752655 83.781410 -14.823991 46.752655 84.540085 -14.706846 46.752655 85.366455 -14.793330 46.752655 86.210327 -15.078188 46.752655 87.020439 -15.087543 47.736908 64.069733 -14.560301 47.736908 64.870239 -14.308176 47.736908 65.813332 -14.355203 47.736908 66.809120 -14.696897 47.736908 67.762665 -14.270870 47.736908 68.546799 -14.151116 47.736908 69.452141 -14.352825 47.736908 70.363861 -14.850413 47.736908 71.166306 -14.413078 47.736908 71.754143 -14.314664 47.736908 72.502312 -14.578669 47.736908 73.232170 -15.142055 47.736908 73.769455 -13.836359 47.736908 75.007904 -13.991501 47.736908 75.994041 -14.682058 47.736908 76.733887 -14.559674 47.736908 77.124809 -14.526266 47.736908 77.539345 -14.583467 47.736908 77.957253 -14.728483 47.736908 78.358086 -14.451849 47.736908 78.692253 -14.353348 47.736908 79.125977 -14.452627 47.736908 79.572746 -14.729884 47.736908 79.943443 -14.605800 47.736908 80.344810 -14.604804 47.736908 80.773506 -14.726984 47.736908 81.191940 -14.961624 47.736908 81.563416 -14.737865 47.736908 82.092766 -14.692654 47.736908 82.678162 -14.830545 47.736908 83.260605 -15.137647 47.736908 83.781410 -14.823991 47.736908 84.540085 -14.706846 47.736908 85.366455 -14.793330 47.736908 86.210327 -15.078188 47.736908 87.020439 -14.276606 47.736908 74.156685 -58.315525 46.752655 36.106720 -57.694424 47.736908 35.660419 -57.694424 46.752655 35.660419 -58.315525 47.736908 36.106720 -59.268360 47.736908 36.002331 -59.268360 46.752655 36.002331 -60.222702 46.752655 36.207809 -60.222702 47.736908 36.207809 -61.087582 47.736908 36.703575 -61.087582 46.752655 36.703575 -61.780552 46.752655 37.442360 -61.780552 47.736908 37.442360 -62.672676 47.736908 37.420597 -62.672676 46.752655 37.420597 -63.533081 47.736908 37.726688 -63.533081 46.752655 37.726688 -64.252632 46.752655 38.321812 -64.252632 47.736908 38.321812 -64.740044 46.752655 39.130478 -64.740044 47.736908 39.130478 -65.462608 47.736908 39.009174 -65.462608 46.752655 39.009174 -66.173393 46.752655 39.262615 -66.173393 47.736908 39.262615 -66.702675 46.752655 39.830284 -66.702675 47.736908 39.830284 -66.924080 47.736908 40.576645 -66.924080 46.752655 40.576645 -67.663246 46.752655 39.982849 -67.663246 47.736908 39.982849 -68.621559 47.736908 39.979008 -68.621559 46.752655 39.979008 -69.428574 46.752655 40.566605 -69.428574 47.736908 40.566605 -69.772308 46.752655 41.518490 -69.772308 47.736908 41.518490 -70.176041 47.736908 41.587753 -70.176041 46.752655 41.587753 -70.560234 47.736908 41.746979 -70.560234 46.752655 41.746979 -70.906120 47.736908 41.988380 -70.906120 46.752655 41.988380 -71.196793 47.736908 42.300167 -71.196793 46.752655 42.300167 -71.620323 47.736908 42.206264 -71.620323 46.752655 42.206264 -72.051262 47.736908 42.316296 -72.051262 46.752655 42.316296 -72.403664 47.736908 42.608311 -72.403664 46.752655 42.608311 -72.607224 47.736908 43.024063 -72.607224 46.752655 43.024063 -73.021034 47.736908 43.096577 -73.021034 46.752655 43.096577 -73.403061 47.736908 43.291103 -73.403061 46.752655 43.291103 -73.719795 47.736908 43.590584 -73.719795 46.752655 43.590584 -73.943481 47.736908 43.968758 -73.943481 46.752655 43.968758 -74.516640 47.736908 44.010895 -74.516640 46.752655 44.010895 -75.058281 47.736908 44.237492 -75.058281 46.752655 44.237492 -75.513840 47.736908 44.625717 -75.513840 46.752655 44.625717 -75.837410 47.736908 45.136459 -75.837410 46.752655 45.136459 -76.655655 47.736908 45.203106 -76.655655 46.752655 45.203106 -77.444580 46.752655 45.475525 -77.444580 47.736908 45.475525 -78.156258 47.736908 45.937160 -78.156258 46.752655 45.937160 -78.747467 47.736908 46.559978 -78.747467 46.752655 46.559978 -66.479759 47.736908 52.835217 -66.479759 46.752655 52.835217 -54.212048 47.736908 59.110458 -54.212048 46.752655 59.110458 -54.053005 46.752655 58.266579 -54.053005 47.736908 58.266579 -54.095161 46.752655 57.419331 -54.095161 47.736908 57.419331 -54.335957 46.752655 56.620190 -54.335957 47.736908 56.620190 -54.760757 46.752655 55.917690 -54.760757 47.736908 55.917690 -54.535969 46.752655 55.356422 -54.535969 47.736908 55.356422 -54.487766 46.752655 54.759823 -54.487766 47.736908 54.759823 -54.621002 46.752655 54.188004 -54.621002 47.736908 54.188004 -54.922260 46.752655 53.698586 -54.922260 47.736908 53.698586 -54.746506 46.752655 53.295895 -54.746506 47.736908 53.295895 -54.689026 46.752655 52.863796 -54.689026 47.736908 52.863796 -54.754856 46.752655 52.440182 -54.754856 47.736908 52.440182 -54.938225 47.736908 52.062199 -54.938225 46.752655 52.062199 -54.720226 46.752655 51.653828 -54.720226 47.736908 51.653828 -54.689671 46.752655 51.197186 -54.689671 47.736908 51.197186 -54.852642 46.752655 50.783352 -54.852642 47.736908 50.783352 -55.176640 46.752655 50.494877 -55.176640 47.736908 50.494877 -55.093925 46.752655 50.076717 -55.093925 47.736908 50.076717 -55.100594 46.752655 49.654968 -55.100594 47.736908 49.654968 -55.196320 46.752655 49.250252 -55.196320 47.736908 49.250252 -55.376427 46.752655 48.882343 -55.376427 47.736908 48.882343 -54.805725 46.752655 48.046555 -54.805725 47.736908 48.046555 -54.801533 46.752655 47.048298 -54.801533 47.736908 47.048298 -55.365471 46.752655 46.273468 -55.365471 47.736908 46.273468 -56.279533 47.736908 46.021595 -56.279533 46.752655 46.021595 -55.803898 46.752655 45.405281 -55.803898 47.736908 45.405281 -55.653332 46.752655 44.643887 -55.653332 47.736908 44.643887 -55.863781 46.752655 43.919212 -55.863781 47.736908 43.919212 -56.385002 47.736908 43.404289 -56.385002 46.752655 43.404289 -56.014519 46.752655 42.535812 -56.014519 47.736908 42.535812 -55.953037 46.752655 41.604073 -55.953037 47.736908 41.604073 -56.208355 46.752655 40.727257 -56.208355 47.736908 40.727257 -56.748089 46.752655 40.016590 -56.748089 47.736908 40.016590 -56.554562 46.752655 39.022327 -56.554562 47.736908 39.022327 -56.658699 46.752655 38.030888 -56.658699 47.736908 38.030888 -57.050575 46.752655 37.136784 -57.050575 47.736908 37.136784 -57.692837 46.752655 36.425240 -57.692837 47.736908 36.425240 36.195499 47.736908 86.166008 48.047874 46.162106 99.334030 36.195499 46.162106 86.166008 48.047874 47.736908 99.334030 46.877384 47.736908 100.387573 46.877384 46.162106 100.387573 35.025009 47.736908 87.219551 35.025009 46.162106 87.219551 43.338753 47.736908 103.572655 10.202127 46.162106 133.398514 10.202127 47.736908 133.398514 43.338753 46.162106 103.572655 31.486378 47.736908 90.404633 31.486378 46.162106 90.404633 10.202127 47.736908 109.562317 10.202127 46.162106 109.562317 -145.129089 47.736908 17.142685 -147.775177 47.736908 16.968147 -146.439514 47.736908 16.864031 -149.026581 47.736908 17.446499 -113.365471 47.736908 28.852007 -150.091141 47.736908 18.259865 -157.935699 47.736908 18.880703 -159.286682 47.736908 20.483715 -160.759811 47.736908 20.839975 -161.925583 47.736908 21.808462 -162.988495 47.736908 23.285870 -164.671478 47.736908 23.978739 -165.612930 47.736908 26.426085 -166.302734 47.736908 28.219240 -120.370728 47.736908 45.151588 -59.530754 47.736908 55.433514 -68.538033 47.736908 70.744576 -18.159384 47.736908 84.034477 -29.167952 47.736908 97.961998 -152.025330 47.736908 17.451340 -156.152756 47.736908 17.777994 -154.115128 47.736908 17.285212 -18.159384 46.162106 84.034477 -59.530754 46.162106 55.433514 -113.365471 46.162106 28.852007 -145.129089 46.162106 17.142685 -146.439514 46.162106 16.864031 -147.775177 46.162106 16.968147 -149.026581 46.162106 17.446499 -150.091141 46.162106 18.259865 -152.025330 46.162106 17.451340 -154.115128 46.162106 17.285212 -156.152756 46.162106 17.777994 -157.935699 46.162106 18.880703 -159.286682 46.162106 20.483715 -160.759811 46.162106 20.839975 -161.925583 46.162106 21.808462 -162.988495 46.162106 23.285870 -164.671478 46.162106 23.978739 -165.612930 46.162106 26.426085 -166.302734 46.162106 28.219240 -120.370728 46.162106 45.151588 -68.538033 46.162106 70.744576 -29.167952 46.162106 97.961998 10.202127 46.752655 109.562317 17.017427 47.736908 103.440018 17.017427 46.752655 103.440018 16.997334 46.752655 102.390259 16.997334 47.736908 102.390259 16.438093 46.752655 101.507294 16.438093 47.736908 101.507294 15.506011 47.736908 101.053696 15.506011 46.752655 101.053696 15.605012 46.752655 100.326241 15.605012 47.736908 100.326241 15.238700 46.752655 99.693146 15.238700 47.736908 99.693146 14.564908 47.736908 99.427193 14.564908 46.752655 99.427193 14.568964 46.752655 99.047775 14.568964 47.736908 99.047775 14.322050 46.752655 98.763084 14.322050 47.736908 98.763084 13.951041 47.736908 98.719398 13.951041 46.752655 98.719398 13.951041 46.752655 97.684761 13.951041 47.736908 97.684761 14.918585 47.736908 98.102592 14.918585 46.752655 98.102592 15.961455 47.736908 97.967377 15.961455 46.752655 97.967377 16.794689 47.736908 97.316063 16.794689 46.752655 97.316063 17.190609 46.752655 96.326622 17.190609 47.736908 96.326622 18.380007 47.736908 96.174667 18.380007 46.752655 96.174667 19.387779 47.736908 95.515152 19.387779 46.752655 95.515152 20.015741 46.752655 94.477760 20.015741 47.736908 94.477760 20.140404 46.752655 93.266502 20.140404 47.736908 93.266502 20.874765 47.736908 92.704811 20.874765 46.752655 92.704811 21.405447 46.752655 91.942291 21.405447 47.736908 91.942291 21.681849 46.752655 91.051643 21.681849 47.736908 91.051643 21.677622 46.752655 90.117790 21.677622 47.736908 90.117790 22.013151 47.736908 89.945381 22.013151 46.752655 89.945381 21.676882 47.736908 89.778099 21.676882 46.752655 89.778099 21.810980 46.752655 88.661545 21.810980 47.736908 88.661545 21.555399 46.752655 87.567078 21.555399 47.736908 87.567078 20.941895 46.752655 86.630707 20.941895 47.736908 86.630707 20.046696 47.736908 85.968773 20.046696 46.752655 85.968773 19.821400 46.752655 84.919891 19.821400 47.736908 84.919891 19.182480 46.752655 84.064774 19.182480 47.736908 84.064774 18.248638 47.736908 83.562302 18.248638 46.752655 83.562302 17.193367 47.736908 83.505814 17.193367 46.752655 83.505814 16.795918 46.752655 82.880890 16.795918 47.736908 82.880890 16.206730 47.736908 82.438995 16.206730 46.752655 82.438995 15.501842 47.736908 82.237144 15.501842 46.752655 82.237144 14.772223 47.736908 82.301392 14.772223 46.752655 82.301392 14.977495 46.752655 81.791344 14.977495 47.736908 81.791344 14.929004 46.752655 81.242508 14.929004 47.736908 81.242508 14.637603 46.752655 80.777748 14.637603 47.736908 80.777748 14.168520 47.736908 80.501091 14.168520 46.752655 80.501091 14.943624 47.736908 80.246414 14.943624 46.752655 80.246414 15.482552 46.752655 79.625801 15.482552 47.736908 79.625801 15.634632 46.752655 78.812744 15.634632 47.736908 78.812744 15.357348 46.752655 78.034554 15.357348 47.736908 78.034554 15.987357 47.736908 77.724258 15.987357 46.752655 77.724258 16.449888 46.752655 77.190285 16.449888 47.736908 77.190285 16.672735 46.752655 76.515984 16.672735 47.736908 76.515984 16.621111 46.752655 75.806625 16.621111 47.736908 75.806625 16.940477 47.736908 75.507591 16.940477 46.752655 75.507591 16.621111 46.752655 75.382950 16.621111 47.736908 75.382950 16.389885 46.752655 74.713013 16.389885 47.736908 74.713013 15.988942 46.752655 74.131561 15.988942 47.736908 74.131561 15.448161 47.736908 73.681931 15.448161 46.752655 73.681931 14.807842 47.736908 73.397629 14.807842 46.752655 73.397629 14.660748 46.752655 72.845169 14.660748 47.736908 72.845169 14.311531 46.752655 72.396088 14.311531 47.736908 72.396088 13.816542 47.736908 72.122849 13.816542 46.752655 72.122849 13.255650 47.736908 72.069534 13.255650 46.752655 72.069534 13.206669 46.752655 71.613091 13.206669 47.736908 71.613091 12.986854 46.752655 71.211914 12.986854 47.736908 71.211914 12.796735 47.736908 71.060913 12.796735 46.752655 71.060913 12.194524 46.752655 70.846619 12.194524 47.736908 70.846619 12.005875 46.752655 70.810944 12.005874 47.736908 70.810944 11.390746 46.752655 70.648155 11.390746 47.736908 70.648155 10.788491 46.752655 70.441574 10.788491 47.736908 70.441574 10.202127 46.752655 70.192238 10.202127 47.736908 70.192238 9.615763 47.736908 70.441574 9.615763 46.752655 70.441574 9.013508 47.736908 70.648155 9.013508 46.752655 70.648155 8.398380 47.736908 70.810944 8.398380 46.752655 70.810944 8.209730 47.736908 70.846619 8.209730 46.752655 70.846619 7.607520 47.736908 71.060913 7.607520 46.752655 71.060913 7.417400 46.752655 71.211914 7.417400 47.736908 71.211914 7.197585 47.736908 71.613091 7.197585 46.752655 71.613091 7.148605 47.736908 72.069534 7.148605 46.752655 72.069534 6.587713 46.752655 72.122849 6.587713 47.736908 72.122849 6.092723 46.752655 72.396088 6.092723 47.736908 72.396088 5.743506 47.736908 72.845169 5.743506 46.752655 72.845169 5.596412 47.736908 73.397629 5.596412 46.752655 73.397629 4.956093 46.752655 73.681931 4.956093 47.736908 73.681931 4.415312 46.752655 74.131561 4.415312 47.736908 74.131561 4.014369 47.736908 74.713013 4.014369 46.752655 74.713013 3.783144 47.736908 75.382950 3.783144 46.752655 75.382950 3.463777 47.736908 75.507591 3.463777 46.752655 75.507591 3.783144 46.752655 75.806625 3.783144 47.736908 75.806625 3.731518 47.736908 76.515984 3.731518 46.752655 76.515984 3.954366 47.736908 77.190285 3.954366 46.752655 77.190285 4.416898 47.736908 77.724258 4.416898 46.752655 77.724258 5.046906 46.752655 78.034554 5.046906 47.736908 78.034554 4.769622 47.736908 78.812744 4.769622 46.752655 78.812744 4.921702 47.736908 79.625801 4.921702 46.752655 79.625801 5.460629 47.736908 80.246414 5.460629 46.752655 80.246414 6.235734 46.752655 80.501091 6.235734 47.736908 80.501091 5.766651 47.736908 80.777748 5.766651 46.752655 80.777748 5.475250 47.736908 81.242508 5.475250 46.752655 81.242508 5.426759 47.736908 81.791344 5.426759 46.752655 81.791344 5.632031 47.736908 82.301392 5.632031 46.752655 82.301392 4.902413 47.736908 82.237144 4.902413 46.752655 82.237144 4.197525 47.736908 82.438995 4.197525 46.752655 82.438995 3.608337 47.736908 82.880890 3.608337 46.752655 82.880890 3.210888 47.736908 83.505814 3.210888 46.752655 83.505814 2.155616 47.736908 83.562302 2.155616 46.752655 83.562302 1.221774 47.736908 84.064774 1.221774 46.752655 84.064774 0.582854 47.736908 84.919891 0.582854 46.752655 84.919891 0.357558 47.736908 85.968773 0.357558 46.752655 85.968773 -0.537640 47.736908 86.630707 -0.537640 46.752655 86.630707 -1.151144 47.736908 87.567078 -1.151144 46.752655 87.567078 -1.406726 47.736908 88.661545 -1.406726 46.752655 88.661545 -1.272627 47.736908 89.778099 -1.272627 46.752655 89.778099 -1.608896 47.736908 89.945381 -1.608896 46.752655 89.945381 -1.273367 47.736908 90.117790 -1.273367 46.752655 90.117790 -1.277595 47.736908 91.051643 -1.277595 46.752655 91.051643 -1.001192 47.736908 91.942291 -1.001192 46.752655 91.942291 -0.470511 47.736908 92.704811 -0.470511 46.752655 92.704811 0.263851 47.736908 93.266502 0.263851 46.752655 93.266502 0.388513 47.736908 94.477760 0.388513 46.752655 94.477760 1.016475 47.736908 95.515152 1.016475 46.752655 95.515152 2.024247 47.736908 96.174667 2.024247 46.752655 96.174667 3.213645 47.736908 96.326622 3.213645 46.752655 96.326622 3.609565 47.736908 97.316063 3.609565 46.752655 97.316063 4.442799 47.736908 97.967377 4.442799 46.752655 97.967377 5.485669 47.736908 98.102592 5.485669 46.752655 98.102592 6.453213 47.736908 97.684761 6.453213 46.752655 97.684761 6.453213 47.736908 98.719398 6.453213 46.752655 98.719398 6.082204 47.736908 98.763084 6.082204 46.752655 98.763084 5.835290 47.736908 99.047775 5.835290 46.752655 99.047775 5.839346 47.736908 99.427193 5.839346 46.752655 99.427193 5.165555 47.736908 99.693146 5.165555 46.752655 99.693146 4.799242 47.736908 100.326241 4.799242 46.752655 100.326241 4.898244 47.736908 101.053696 4.898244 46.752655 101.053696 3.966161 47.736908 101.507294 3.966161 46.752655 101.507294 3.406920 47.736908 102.390259 3.406920 46.752655 102.390259 3.386828 47.736908 103.440018 3.386828 46.752655 103.440018 -147.209305 48.313469 29.425541 -146.104156 48.313469 27.187330 -146.656723 47.736908 28.306435 -147.438187 49.705410 29.889088 -145.875275 49.705410 26.723783 -146.104156 51.097355 27.187330 -147.209305 51.097355 29.425541 -146.656723 51.673916 28.306435 11.674559 47.736908 130.857697 -29.943480 48.313469 95.077019 -29.167952 47.736908 94.095856 10.839585 48.313469 131.785355 -67.903488 51.097355 65.799805 -68.538033 51.673916 66.878433 10.493729 49.705414 132.169601 -29.943480 51.097355 95.077019 -30.264715 49.705410 95.483429 10.839585 51.097355 131.785355 11.674559 51.673916 130.857697 -29.167952 51.673916 94.095856 12.509532 48.313469 129.930038 12.855390 49.705414 129.545792 12.509532 51.097355 129.930038 -28.392424 48.313469 93.114693 -69.172569 51.097355 67.957062 -69.435410 49.705410 68.403847 -69.172569 48.313469 67.957062 -68.538033 47.736908 66.878433 -67.640656 49.705410 65.353020 -67.903488 48.313469 65.799805 -28.071188 49.705410 92.708282 -108.644333 49.705410 49.043995 -108.644333 49.705410 45.106987 -28.392424 51.097355 93.114693 -147.979858 47.827457 32.759346 -148.683868 51.764465 32.411808 -148.683868 47.827457 32.411808 -147.979858 51.764465 32.759346 -147.437729 47.827457 29.887508 -143.647491 47.827457 31.758575 -147.437729 51.764465 29.887508 -143.647491 51.764465 31.758575 -157.651810 51.173916 26.162352 -156.673630 48.418011 26.468487 -157.651810 48.418011 26.162352 -156.673630 51.173916 26.468487 -164.790665 50.622734 24.807055 -164.078461 50.914536 27.085798 -163.219788 50.914536 24.766264 -165.446716 50.622734 26.579283 -160.892273 51.087456 25.203131 -162.995377 48.661949 24.760437 -162.995377 50.929974 24.760437 -160.892273 48.504471 25.203131 -160.356201 51.101353 25.315975 -160.356201 48.490574 25.315975 -164.078461 48.677391 27.085798 -164.790665 48.969193 24.807055 -163.219788 48.677391 24.766264 -165.446716 48.969193 26.579283 -161.889236 51.087456 27.896223 -120.236053 51.173916 43.315739 -147.437729 51.173916 29.887508 -158.727020 51.173916 29.066837 -161.889236 48.504471 27.896223 -158.727020 48.418011 29.066837 -120.236053 48.418011 43.315739 -147.437729 48.418011 29.887508 "
							            />
						</IndexedFaceSet>
					</Shape>
				</Group>
			</Transform>
		</Transform>
	</Scene>
</X3D>