<?xml version="1.0" encoding="UTF-8"?>
<!DOCTYPE X3D PUBLIC "ISO//Web3D//DTD X3D 3.0//EN" "http://www.web3d.org/specifications/x3d-3.0.dtd">
<X3D version="3.0" profile="Immersive" xmlns:xsd="http://www.w3.org/2001/XMLSchema-instance" xsd:noNamespaceSchemaLocation="http://www.web3d.org/specifications/x3d-3.0.xsd">
	<head>
		<meta name="filename" content="25-1.x3d" />
		<meta name="created" content="2026-06-21 15:09:41" />
		<meta name="generator" content="Blender 4.5.4 LTS" />
		<meta name="translator" content="Web3D X3D/VRML2 format v2.5.1" />
	</head>
	<Scene>
		<NavigationInfo headlight="true"
		                visibilityLimit="0.0"
		                type='"EXAMINE", "ANY"'
		                avatarSize="0.25, 1.75, 0.75"
		                />
		<Background DEF="WO_World"
		            groundColor="0.051 0.051 0.051"
		            skyColor="0.051 0.051 0.051"
		            />
		<Transform DEF="_25-1_TRANSFORM"
		           translation="0.000000 0.000000 0.000000"
		           scale="1.000000 1.000000 1.000000"
		           rotation="0.000000 0.707107 0.707107 3.141593"
		           >
			<Transform DEF="_25-1_ifs_TRANSFORM"
			           translation="0.000000 0.000000 0.000000"
			           scale="1.000000 1.000000 1.000000"
			           rotation="0.000000 1.000000 0.000000 0.000000"
			           >
				<Group DEF="group_ME_25-1_001">
					<Shape>
						<Appearance>
						</Appearance>
						<IndexedFaceSet solid="false"
						                coordIndex="0 1 2 -1 1 0 3 -1 1 4 5 -1 4 1 3 -1 0 6 7 -1 6 0 2 -1 8 6 9 -1 6 8 7 -1 5 8 9 -1 8 5 4 -1 7 4 0 -1 4 7 8 -1 3 0 4 -1 1 6 2 -1 6 1 5 -1 6 5 9 -1 10 11 12 -1 11 10 13 -1 14 15 16 -1 15 14 17 -1 17 14 18 -1 17 18 6 -1 17 6 7 -1 17 7 19 -1 17 19 20 -1 17 20 21 -1 17 21 22 -1 23 22 24 -1 22 23 17 -1 23 25 26 -1 25 23 24 -1 17 26 15 -1 26 17 23 -1 24 12 25 -1 12 24 10 -1 10 21 13 -1 21 10 22 -1 22 10 24 -1 13 27 11 -1 27 13 28 -1 15 11 16 -1 11 15 12 -1 12 15 25 -1 25 15 26 -1 29 6 30 -1 6 29 7 -1 18 30 6 -1 30 18 31 -1 32 31 33 -1 31 32 30 -1 30 32 29 -1 29 32 34 -1 14 31 18 -1 31 14 33 -1 33 14 35 -1 28 35 27 -1 35 28 33 -1 33 28 32 -1 32 28 36 -1 16 35 14 -1 35 16 27 -1 27 16 11 -1 28 20 36 -1 20 28 21 -1 21 28 13 -1 32 19 34 -1 19 32 20 -1 20 32 36 -1 34 7 29 -1 7 34 19 -1 37 38 39 -1 38 37 40 -1 40 37 41 -1 40 41 42 -1 42 41 43 -1 42 43 44 -1 44 43 45 -1 44 45 46 -1 46 45 47 -1 46 47 48 -1 48 47 49 -1 48 49 50 -1 48 50 51 -1 51 50 52 -1 52 50 53 -1 52 53 54 -1 54 53 55 -1 54 55 56 -1 54 56 57 -1 57 56 58 -1 58 56 59 -1 58 59 60 -1 61 40 62 -1 40 61 38 -1 63 38 61 -1 38 63 39 -1 62 42 64 -1 42 62 40 -1 65 37 66 -1 37 65 41 -1 67 41 65 -1 41 67 43 -1 67 45 43 -1 45 67 68 -1 68 47 45 -1 47 68 69 -1 69 49 47 -1 49 69 70 -1 70 50 49 -1 50 70 71 -1 61 66 63 -1 66 61 62 -1 66 62 65 -1 65 62 64 -1 65 64 67 -1 67 64 72 -1 67 72 68 -1 68 72 73 -1 68 73 69 -1 69 73 74 -1 69 74 70 -1 70 74 75 -1 70 75 71 -1 71 75 76 -1 71 76 77 -1 77 76 78 -1 77 78 79 -1 79 78 80 -1 79 80 81 -1 81 80 82 -1 81 82 83 -1 83 82 84 -1 60 82 58 -1 82 60 84 -1 58 80 57 -1 80 58 82 -1 57 78 54 -1 78 57 80 -1 78 52 54 -1 52 78 76 -1 76 51 52 -1 51 76 75 -1 75 48 51 -1 48 75 74 -1 74 46 48 -1 46 74 73 -1 73 44 46 -1 44 73 72 -1 72 42 44 -1 42 72 64 -1 71 53 50 -1 53 71 77 -1 77 55 53 -1 55 77 79 -1 55 81 56 -1 81 55 79 -1 56 83 59 -1 83 56 81 -1 59 84 60 -1 84 59 83 -1 66 39 63 -1 39 66 37 -1 85 86 87 -1 86 85 88 -1 85 89 88 -1 89 85 90 -1 89 91 92 -1 91 89 90 -1 91 86 92 -1 86 91 87 -1 89 86 88 -1 86 89 92 -1 91 85 87 -1 85 91 90 -1 93 94 95 -1 94 93 96 -1 94 96 97 -1 94 97 98 -1 98 97 99 -1 94 100 95 -1 98 101 94 -1 101 98 102 -1 102 98 103 -1 101 102 104 -1 100 105 106 -1 107 108 109 -1 108 107 95 -1 95 107 110 -1 95 110 111 -1 95 111 112 -1 95 112 93 -1 95 106 108 -1 106 95 100 -1 113 114 115 -1 114 113 116 -1 116 113 117 -1 118 115 119 -1 115 118 113 -1 30 119 120 -1 119 30 118 -1 121 122 123 -1 122 121 124 -1 124 121 125 -1 125 121 126 -1 125 126 127 -1 128 129 130 -1 129 128 131 -1 129 132 133 -1 132 129 131 -1 128 134 135 -1 134 128 130 -1 136 134 137 -1 134 136 135 -1 133 136 137 -1 136 133 132 -1 135 132 128 -1 132 135 136 -1 131 128 132 -1 129 134 130 -1 134 129 133 -1 134 133 137 -1 101 138 139 -1 138 101 140 -1 141 142 143 -1 142 141 144 -1 144 141 145 -1 144 145 134 -1 144 134 135 -1 144 135 146 -1 144 146 147 -1 144 147 148 -1 144 148 149 -1 150 149 151 -1 149 150 144 -1 150 152 153 -1 152 150 151 -1 144 153 142 -1 153 144 150 -1 151 139 152 -1 139 151 101 -1 101 148 140 -1 148 101 149 -1 149 101 151 -1 140 154 138 -1 154 140 155 -1 142 138 143 -1 138 142 139 -1 139 142 152 -1 152 142 153 -1 135 156 157 -1 156 135 134 -1 145 156 134 -1 156 145 158 -1 159 158 160 -1 158 159 156 -1 156 159 157 -1 157 159 161 -1 141 158 145 -1 158 141 160 -1 160 141 162 -1 155 162 154 -1 162 155 160 -1 160 155 159 -1 159 155 163 -1 143 162 141 -1 162 143 154 -1 154 143 138 -1 155 147 163 -1 147 155 148 -1 148 155 140 -1 159 146 161 -1 146 159 147 -1 147 159 163 -1 161 135 157 -1 135 161 146 -1 164 165 166 -1 165 164 167 -1 167 164 168 -1 167 168 169 -1 169 168 170 -1 169 170 171 -1 171 170 172 -1 171 172 173 -1 173 172 174 -1 173 174 175 -1 175 174 176 -1 175 176 177 -1 175 177 178 -1 178 177 179 -1 179 177 180 -1 179 180 181 -1 181 180 182 -1 181 182 183 -1 181 183 184 -1 184 183 185 -1 185 183 186 -1 185 186 187 -1 188 167 189 -1 167 188 165 -1 190 165 188 -1 165 190 166 -1 189 169 191 -1 169 189 167 -1 192 164 193 -1 164 192 168 -1 194 168 192 -1 168 194 170 -1 194 172 170 -1 172 194 195 -1 195 174 172 -1 174 195 196 -1 196 176 174 -1 176 196 197 -1 197 177 176 -1 177 197 198 -1 188 193 190 -1 193 188 189 -1 193 189 192 -1 192 189 191 -1 192 191 194 -1 194 191 199 -1 194 199 195 -1 195 199 200 -1 195 200 196 -1 196 200 201 -1 196 201 197 -1 197 201 202 -1 197 202 198 -1 198 202 203 -1 198 203 204 -1 204 203 205 -1 204 205 206 -1 206 205 207 -1 206 207 208 -1 208 207 209 -1 208 209 210 -1 210 209 211 -1 187 209 185 -1 209 187 211 -1 185 207 184 -1 207 185 209 -1 184 205 181 -1 205 184 207 -1 205 179 181 -1 179 205 203 -1 203 178 179 -1 178 203 202 -1 202 175 178 -1 175 202 201 -1 201 173 175 -1 173 201 200 -1 200 171 173 -1 171 200 199 -1 199 169 171 -1 169 199 191 -1 198 180 177 -1 180 198 204 -1 204 182 180 -1 182 204 206 -1 182 208 183 -1 208 182 206 -1 183 210 186 -1 210 183 208 -1 186 211 187 -1 211 186 210 -1 193 166 190 -1 166 193 164 -1 212 213 214 -1 213 212 215 -1 212 216 215 -1 216 212 217 -1 216 218 219 -1 218 216 217 -1 218 213 219 -1 213 218 214 -1 216 213 215 -1 213 216 219 -1 218 212 214 -1 212 218 217 -1 "
						                >
							<Coordinate DEF="coords_ME_25-1_001"
							            point="-5.137838 -18.288460 4.831829 -5.137838 -17.464745 3.354567 -5.137838 -17.805010 3.250538 -5.137838 -17.948195 4.935859 -3.720515 -17.948195 4.935859 -3.720515 -17.464745 3.354567 -2.145712 -17.805010 3.250538 -2.145712 -18.288460 4.831829 -2.145712 -17.158966 5.177150 -2.145712 -16.675516 3.595859 1.003894 -10.618452 7.753151 0.951401 -10.791597 4.818388 1.003894 -9.812703 5.117665 0.951401 -11.597346 7.453873 -2.145712 -14.041471 3.915212 -2.145712 28.458689 16.818403 -2.145712 -10.791597 4.818388 -2.145712 27.652939 19.453890 -2.145712 -16.324438 3.398059 -2.145712 -16.978518 5.537453 -2.145712 -14.796662 6.385334 -2.145712 -11.597346 7.453873 -2.145712 -1.200356 10.632552 1.003894 2.868810 11.876621 1.003894 -1.200356 10.632552 1.003894 -0.394607 7.997066 1.003894 3.674559 9.241136 0.806272 -13.519169 4.060365 0.806272 -14.282487 6.557063 -0.255948 -18.288460 4.831829 -0.255948 -17.805010 3.250538 0.327655 -16.324438 3.398059 0.411027 -16.783709 5.613157 0.411027 -16.120602 3.444233 0.327655 -16.978518 5.537453 0.725988 -14.041471 3.915212 0.725988 -14.796662 6.385334 4.854692 -0.578875 9.914410 4.854692 -0.280956 8.939961 4.921436 -0.423545 9.429133 4.659010 -0.160826 8.480230 4.659010 -0.736361 10.362720 4.347725 -0.071342 8.081269 4.347725 -0.885271 10.743512 3.942050 -0.018601 7.770268 3.942050 -1.015457 11.030836 3.469632 -0.006198 7.568420 3.469632 -1.118046 11.205112 2.962665 -0.034978 7.489481 2.962665 -1.186048 11.254460 2.455698 -1.214828 11.175522 2.455698 -0.102980 7.538831 1.983280 -0.205570 7.713106 1.983280 -1.202425 10.973674 1.577605 -0.335755 8.000430 1.577605 -1.149685 10.662673 1.266320 -1.060200 10.263712 1.266320 -0.484665 8.381223 1.070638 -0.642151 8.829533 1.070638 -0.940070 9.803981 1.003894 -0.797482 9.314809 3.185026 15.716017 13.830727 2.989344 15.836146 13.370996 3.251769 15.573428 14.319899 2.678058 15.925631 12.972034 2.989344 15.260612 15.253485 3.185026 15.418097 14.805175 2.678058 15.111702 15.634277 2.272384 14.981516 15.921601 1.799966 14.878926 16.095877 1.292998 14.810925 16.145226 0.786031 14.782145 16.066288 2.272384 15.978372 12.661034 1.799966 15.990774 12.459186 1.292998 15.961994 12.380247 0.786031 15.893992 12.429597 0.313613 15.791403 12.603871 0.313613 14.794548 15.864439 -0.092062 15.661218 12.891195 -0.092062 14.847288 15.553438 -0.403347 15.512308 13.271988 -0.403347 14.936772 15.154478 -0.599029 15.354821 13.720298 -0.599029 15.056903 14.694746 -0.665772 15.199492 14.205575 -2.460673 -1.315463 11.009049 1.003894 -0.291011 7.658218 1.003894 -1.315463 11.009049 -2.460673 -0.291011 7.658218 -2.460673 0.324457 7.846385 -2.460673 -0.699996 11.197217 1.003894 1.884769 11.987459 1.003894 2.909221 8.636627 1.269752 -18.277922 15.569973 1.269752 -17.201778 16.105635 1.269752 -19.073294 15.636782 1.269752 -17.675526 15.754144 1.269752 -17.073128 15.938315 1.269752 -15.868335 16.306658 1.269752 -16.470732 16.122486 1.269752 -19.868664 15.703590 1.269752 -13.458749 17.043343 1.269752 -14.663542 16.674999 1.269752 -15.265939 16.490829 1.269752 -14.061145 16.859171 1.269752 -21.658247 15.853910 1.269752 -21.535467 15.452312 1.269752 -20.687510 14.833288 1.269752 -21.412685 15.050715 1.269752 -21.289906 14.649117 1.269752 -20.085112 15.017460 1.269752 -19.482716 15.201631 1.269752 -18.880320 15.385802 -0.255948 -14.041471 3.915212 -0.255948 -11.845792 4.496088 -0.255948 -12.899986 4.173789 -0.255948 -11.318695 4.657238 -0.255948 -10.791597 4.818388 -0.255948 -16.324438 3.398059 -0.255948 -15.008374 3.529189 -0.255948 -17.643860 2.723440 -0.255948 -18.449610 5.358926 -0.255948 -16.978518 5.537453 -0.255948 -18.288460 4.831829 -0.255948 -14.796662 6.385334 -0.255948 -11.597346 7.453873 -0.255948 -12.651541 7.131573 -0.255948 -12.124444 7.292723 0.718570 -23.085575 20.522486 -0.934973 -22.745308 20.626514 -0.934973 -23.085575 20.522486 0.718570 -22.745308 20.626514 0.718570 -22.330923 19.271122 -0.934973 -22.330923 19.271122 -0.934973 -22.210762 17.661100 0.718570 -22.210762 17.661100 0.718570 -21.081268 18.006422 -0.934973 -21.081268 18.006422 -1.486154 -14.452991 16.794264 -1.486154 -13.458749 17.043343 1.269752 -14.452991 16.794264 -1.399694 -18.583094 18.770189 -1.486154 23.891787 31.756063 -1.486154 -15.358499 19.756048 1.269752 23.891787 31.756063 -1.226775 -20.815504 18.087673 1.010372 -20.815504 18.087673 1.183292 -18.583094 18.770189 1.269752 -15.358499 19.756048 1.269752 -4.961508 22.934727 1.269752 0.028514 21.166813 1.269752 -4.040653 19.922743 -1.486154 -4.040653 19.922743 -1.486154 0.028514 21.166813 -1.413589 -17.201778 16.105635 1.197187 -17.201778 16.105635 -0.934973 -21.658247 15.853910 0.718570 -21.658247 15.853910 -1.226775 -20.092361 15.722381 1.025811 -19.868664 15.703590 -1.242214 -19.868664 15.703590 1.010372 -20.092361 15.722381 -1.399694 -17.743488 16.023970 1.183292 -17.743488 16.023970 0.401285 -2.547222 16.352583 -0.617687 -2.547222 16.352583 -0.108201 -2.521338 16.290703 -1.092453 -2.623112 16.534004 0.876051 -2.623112 16.534004 -1.500144 -2.743836 16.822603 1.283741 -2.743836 16.822603 -1.812976 -2.901166 17.198713 1.596573 -2.901166 17.198713 -2.009630 -3.084381 17.636703 1.793228 -3.084381 17.636703 -2.076705 -3.280995 18.106724 1.860303 -3.280995 18.106724 1.793228 -3.477609 18.576744 -2.009630 -3.477609 18.576744 -1.812976 -3.660824 19.014732 1.596573 -3.660824 19.014732 -1.500144 -3.818154 19.390842 1.283741 -3.818154 19.390842 0.876051 -3.938878 19.679443 -1.092453 -3.938878 19.679443 -0.617687 -4.014768 19.860863 0.401285 -4.014768 19.860863 -0.108201 -4.040653 19.922743 -0.617687 12.961588 22.840057 -1.092453 12.885697 23.021479 -0.108201 12.987473 22.778179 -1.500144 12.764974 23.310080 0.876051 12.885697 23.021479 0.401285 12.961588 22.840057 1.283741 12.764974 23.310080 1.596573 12.607643 23.686190 1.793228 12.424429 24.124178 1.860303 12.227815 24.594198 1.793228 12.031200 25.064219 -1.812976 12.607643 23.686190 -2.009630 12.424429 24.124178 -2.076705 12.227815 24.594198 -2.009630 12.031200 25.064219 -1.812976 11.847986 25.502209 1.596573 11.847986 25.502209 -1.500144 11.690656 25.878319 1.283741 11.690656 25.878319 -1.092453 11.569932 26.166918 0.876051 11.569932 26.166918 -0.617687 11.494041 26.348339 0.401285 11.494041 26.348339 -0.108201 11.468157 26.410219 1.663452 -5.053594 23.235926 -1.840485 -4.040653 19.922743 1.663452 -4.040653 19.922743 -1.840485 -5.053594 23.235926 -1.840485 -4.438127 23.424091 1.663452 -4.438127 23.424091 1.663452 -0.840420 20.901152 -1.840485 -0.840420 20.901152 "
							            />
						</IndexedFaceSet>
					</Shape>
				</Group>
			</Transform>
		</Transform>
	</Scene>
</X3D>