<?xml version="1.0" encoding="UTF-8"?>
<!DOCTYPE X3D PUBLIC "ISO//Web3D//DTD X3D 3.0//EN" "http://www.web3d.org/specifications/x3d-3.0.dtd">
<X3D version="3.0" profile="Immersive" xmlns:xsd="http://www.w3.org/2001/XMLSchema-instance" xsd:noNamespaceSchemaLocation="http://www.web3d.org/specifications/x3d-3.0.xsd">
	<head>
		<meta name="filename" content="27-3.x3d" />
		<meta name="created" content="2026-06-21 15:09:42" />
		<meta name="generator" content="Blender 4.5.4 LTS" />
		<meta name="translator" content="Web3D X3D/VRML2 format v2.5.1" />
	</head>
	<Scene>
		<NavigationInfo headlight="true"
		                visibilityLimit="0.0"
		                type='"EXAMINE", "ANY"'
		                avatarSize="0.25, 1.75, 0.75"
		                />
		<Background DEF="WO_World"
		            groundColor="0.051 0.051 0.051"
		            skyColor="0.051 0.051 0.051"
		            />
		<Transform DEF="_27-3_TRANSFORM"
		           translation="0.000000 0.000000 0.000000"
		           scale="1.000000 1.000000 1.000000"
		           rotation="0.000000 0.707107 0.707107 3.141593"
		           >
			<Transform DEF="_27-3_ifs_TRANSFORM"
			           translation="0.000000 0.000000 0.000000"
			           scale="1.000000 1.000000 1.000000"
			           rotation="0.000000 1.000000 0.000000 0.000000"
			           >
				<Group DEF="group_ME_27-3_001">
					<Shape>
						<Appearance>
						</Appearance>
						<IndexedFaceSet solid="false"
						                coordIndex="0 1 2 -1 1 0 3 -1 0 4 5 -1 4 0 2 -1 4 6 5 -1 6 4 7 -1 2 7 4 -1 7 2 1 -1 6 0 5 -1 0 6 3 -1 7 3 6 -1 3 7 1 -1 8 9 10 -1 11 12 13 -1 12 11 14 -1 11 15 14 -1 15 11 10 -1 10 11 8 -1 8 11 16 -1 13 16 11 -1 16 13 17 -1 18 13 12 -1 13 18 9 -1 13 9 17 -1 10 19 20 -1 19 10 8 -1 15 12 14 -1 12 15 18 -1 18 10 9 -1 10 18 15 -1 20 9 10 -1 9 16 17 -1 16 9 8 -1 19 8 9 -1 19 9 20 -1 21 22 23 -1 22 21 24 -1 23 25 26 -1 25 23 22 -1 27 21 28 -1 21 27 24 -1 23 28 21 -1 28 23 26 -1 25 28 26 -1 28 25 27 -1 27 22 24 -1 22 27 25 -1 29 30 31 -1 30 29 32 -1 29 33 34 -1 33 29 31 -1 33 35 34 -1 35 33 36 -1 31 36 33 -1 36 31 30 -1 35 29 34 -1 29 35 32 -1 36 32 35 -1 32 36 30 -1 37 38 39 -1 40 41 42 -1 41 40 43 -1 40 44 43 -1 44 40 39 -1 39 40 37 -1 37 40 45 -1 42 45 40 -1 45 42 46 -1 47 42 41 -1 42 47 38 -1 42 38 46 -1 39 48 49 -1 48 39 37 -1 44 41 43 -1 41 44 47 -1 47 39 38 -1 39 47 44 -1 49 38 39 -1 38 45 46 -1 45 38 37 -1 48 37 38 -1 48 38 49 -1 50 51 52 -1 51 50 53 -1 52 54 55 -1 54 52 51 -1 56 50 57 -1 50 56 53 -1 52 57 50 -1 57 52 55 -1 54 57 55 -1 57 54 56 -1 56 51 53 -1 51 56 54 -1 58 59 60 -1 59 58 61 -1 60 62 58 -1 63 64 65 -1 64 63 66 -1 58 62 64 -1 62 65 64 -1 61 66 67 -1 67 66 63 -1 59 61 67 -1 67 65 62 -1 65 67 63 -1 64 61 58 -1 61 64 66 -1 59 62 60 -1 62 59 67 -1 68 69 70 -1 71 72 73 -1 74 75 76 -1 75 74 77 -1 75 77 78 -1 75 78 69 -1 69 78 79 -1 75 69 68 -1 75 68 80 -1 75 80 72 -1 75 72 71 -1 75 71 81 -1 81 71 82 -1 75 81 83 -1 75 83 84 -1 75 84 85 -1 86 87 88 -1 87 86 89 -1 89 86 90 -1 90 86 91 -1 90 91 92 -1 91 86 93 -1 93 86 94 -1 94 86 95 -1 95 86 96 -1 96 86 97 -1 96 97 98 -1 97 86 99 -1 99 86 100 -1 100 86 101 -1 96 102 95 -1 93 103 91 -1 92 78 90 -1 78 92 79 -1 69 92 91 -1 92 69 79 -1 69 103 70 -1 103 69 91 -1 80 93 94 -1 93 80 68 -1 95 80 94 -1 80 95 72 -1 77 90 78 -1 90 77 89 -1 76 86 88 -1 86 76 75 -1 77 87 89 -1 87 77 74 -1 99 81 97 -1 81 99 83 -1 86 85 101 -1 85 86 75 -1 70 93 68 -1 93 70 103 -1 82 96 98 -1 96 82 71 -1 72 102 73 -1 102 72 95 -1 73 96 71 -1 96 73 102 -1 101 84 100 -1 84 101 85 -1 97 82 98 -1 82 97 81 -1 76 87 74 -1 87 76 88 -1 83 100 84 -1 100 83 99 -1 104 105 106 -1 105 104 107 -1 106 108 109 -1 108 106 105 -1 109 110 111 -1 110 109 108 -1 111 112 113 -1 112 111 110 -1 113 114 115 -1 114 113 112 -1 115 116 117 -1 116 115 114 -1 116 118 117 -1 118 116 119 -1 119 120 118 -1 120 119 121 -1 121 122 120 -1 122 121 123 -1 123 124 122 -1 124 123 125 -1 125 126 124 -1 126 125 127 -1 127 128 126 -1 128 127 129 -1 130 128 129 -1 128 130 131 -1 132 131 130 -1 131 132 133 -1 134 133 132 -1 133 134 135 -1 136 135 134 -1 135 136 137 -1 138 137 136 -1 137 138 139 -1 140 139 138 -1 139 140 141 -1 142 141 140 -1 141 142 143 -1 142 144 143 -1 144 142 145 -1 145 146 144 -1 146 145 147 -1 147 148 146 -1 148 147 149 -1 149 150 148 -1 150 149 151 -1 151 152 150 -1 152 151 153 -1 153 104 152 -1 104 153 107 -1 134 138 136 -1 138 134 132 -1 138 132 140 -1 140 132 142 -1 142 132 130 -1 142 130 129 -1 142 129 145 -1 145 129 127 -1 145 127 147 -1 147 127 125 -1 147 125 123 -1 147 123 149 -1 149 123 151 -1 151 123 121 -1 151 121 119 -1 151 119 153 -1 153 119 116 -1 153 116 107 -1 107 116 105 -1 105 116 114 -1 105 114 108 -1 108 114 112 -1 108 112 110 -1 154 155 156 -1 155 154 157 -1 158 159 160 -1 159 158 161 -1 162 163 164 -1 163 162 165 -1 166 167 168 -1 167 166 169 -1 169 166 170 -1 169 170 171 -1 169 171 165 -1 165 171 163 -1 163 171 159 -1 159 171 172 -1 159 172 160 -1 160 172 173 -1 160 173 174 -1 174 173 175 -1 174 175 156 -1 174 156 176 -1 176 156 155 -1 176 155 177 -1 177 155 178 -1 177 178 179 -1 179 178 180 -1 180 178 181 -1 180 181 182 -1 180 182 183 -1 183 182 184 -1 185 165 162 -1 165 185 169 -1 157 178 155 -1 178 157 186 -1 184 187 183 -1 187 184 188 -1 189 167 190 -1 167 189 168 -1 191 160 174 -1 160 191 158 -1 192 166 193 -1 166 192 170 -1 194 176 177 -1 176 194 195 -1 196 156 175 -1 156 196 154 -1 190 169 185 -1 169 190 167 -1 197 173 172 -1 173 197 198 -1 180 199 179 -1 199 180 200 -1 201 170 192 -1 170 201 171 -1 201 172 171 -1 172 201 197 -1 199 177 179 -1 177 199 194 -1 178 202 181 -1 202 178 186 -1 183 200 180 -1 200 183 187 -1 182 188 184 -1 188 182 203 -1 198 175 173 -1 175 198 196 -1 161 163 159 -1 163 161 164 -1 193 168 189 -1 168 193 166 -1 195 174 176 -1 174 195 191 -1 181 203 182 -1 203 181 202 -1 190 193 189 -1 193 190 185 -1 193 185 192 -1 192 185 201 -1 201 185 162 -1 201 162 164 -1 201 164 137 -1 137 164 135 -1 135 164 161 -1 135 161 133 -1 133 161 131 -1 131 161 158 -1 131 158 128 -1 128 158 126 -1 126 158 124 -1 124 158 191 -1 124 191 122 -1 122 191 195 -1 122 195 120 -1 120 195 118 -1 118 195 194 -1 118 194 117 -1 117 194 115 -1 115 194 199 -1 115 199 113 -1 113 199 111 -1 201 139 197 -1 139 201 137 -1 197 139 141 -1 197 141 143 -1 197 143 198 -1 198 143 144 -1 198 144 146 -1 198 146 196 -1 196 146 148 -1 196 148 150 -1 196 150 154 -1 154 150 152 -1 154 152 157 -1 157 152 104 -1 157 104 106 -1 157 106 186 -1 186 106 109 -1 186 109 111 -1 186 111 199 -1 186 199 200 -1 186 200 202 -1 202 200 203 -1 203 200 187 -1 203 187 188 -1 204 205 206 -1 205 204 207 -1 204 208 209 -1 208 204 206 -1 208 210 209 -1 210 208 211 -1 206 211 208 -1 211 206 205 -1 210 204 209 -1 204 210 207 -1 211 207 210 -1 207 211 205 -1 212 213 214 -1 215 216 217 -1 216 215 218 -1 215 219 218 -1 219 215 214 -1 214 215 212 -1 212 215 220 -1 217 220 215 -1 220 217 221 -1 222 217 216 -1 217 222 213 -1 217 213 221 -1 214 223 224 -1 223 214 212 -1 219 216 218 -1 216 219 222 -1 222 214 213 -1 214 222 219 -1 224 213 214 -1 213 220 221 -1 220 213 212 -1 223 212 213 -1 223 213 224 -1 225 226 227 -1 226 225 228 -1 227 229 230 -1 229 227 226 -1 231 225 232 -1 225 231 228 -1 227 232 225 -1 232 227 230 -1 229 232 230 -1 232 229 231 -1 231 226 228 -1 226 231 229 -1 233 234 235 -1 234 233 236 -1 233 237 238 -1 237 233 235 -1 237 239 238 -1 239 237 240 -1 235 240 237 -1 240 235 234 -1 239 233 238 -1 233 239 236 -1 240 236 239 -1 236 240 234 -1 241 242 243 -1 244 245 246 -1 245 244 247 -1 244 248 247 -1 248 244 243 -1 243 244 241 -1 241 244 249 -1 246 249 244 -1 249 246 250 -1 251 246 245 -1 246 251 242 -1 246 242 250 -1 243 252 253 -1 252 243 241 -1 248 245 247 -1 245 248 251 -1 251 243 242 -1 243 251 248 -1 253 242 243 -1 242 249 250 -1 249 242 241 -1 252 241 242 -1 252 242 253 -1 254 255 256 -1 255 254 257 -1 256 258 259 -1 258 256 255 -1 260 254 261 -1 254 260 257 -1 256 261 254 -1 261 256 259 -1 258 261 259 -1 261 258 260 -1 260 255 257 -1 255 260 258 -1 "
						                >
							<Coordinate DEF="coords_ME_27-3_001"
							            point="-47.448151 51.334160 60.790981 -72.881409 67.315781 42.465820 -68.149658 72.047531 42.468884 -52.179901 46.602409 60.787918 -76.740746 80.641823 37.512527 -96.651558 100.555946 32.404640 -101.383308 95.824196 32.401573 -81.472496 75.910072 37.509464 -25.187712 24.382000 82.559509 -38.252541 37.455585 64.030785 -25.185242 24.384668 82.559418 -76.779579 71.216316 39.018990 -69.831657 73.733620 34.013004 -74.564865 69.001602 34.012482 -72.046379 75.948334 39.019516 -22.839600 26.729914 82.559593 -27.581076 21.989622 82.559067 -40.645905 35.063206 64.030350 -35.906898 39.800827 64.030960 -22.972996 22.167284 77.552994 -22.970526 22.169952 77.552910 -44.482563 48.386871 43.503387 -0.034971 -5.589636 113.273621 -49.224983 43.645550 43.502609 4.730034 -0.825728 113.274399 -2.991409 -2.633198 117.444237 -52.181419 46.601986 47.673222 1.773597 2.130709 117.445015 -47.439003 51.343307 47.674000 46.262737 -51.805347 60.790981 71.695992 -67.786964 42.465820 66.964241 -72.518715 42.468884 50.994488 -47.073597 60.787918 75.555336 -81.113014 37.512527 95.466148 -101.027130 32.404640 100.197899 -96.295380 32.401573 80.287086 -76.381264 37.509464 24.002300 -24.853186 82.559509 37.067131 -37.926769 64.030785 23.999832 -24.855854 82.559418 75.594170 -71.687500 39.018990 68.646248 -74.204803 34.013004 73.379456 -69.472786 34.012482 70.860962 -76.419518 39.019516 21.654188 -27.201099 82.559593 26.395664 -22.460808 82.559067 39.460495 -35.534389 64.030350 34.721485 -40.272015 64.030960 21.787584 -22.638470 77.552994 21.785116 -22.641138 77.552910 43.297153 -48.858055 43.503387 -1.150440 5.118450 113.273621 48.039574 -44.116734 43.502609 -5.915445 0.354543 113.274399 1.805998 2.162013 117.444237 50.996010 -47.073174 47.673222 -2.959008 -2.601895 117.445015 46.253590 -51.814495 47.674000 153.550354 -159.112198 17.113485 100.198326 -96.294952 32.403107 95.465721 -101.027557 32.403107 158.282959 -154.379593 17.113485 153.006805 -158.568649 12.164648 179.378494 -176.588669 10.831542 175.885910 -180.334198 15.043128 175.759430 -180.207718 10.831542 179.504959 -176.715149 15.043128 157.739410 -153.836044 12.164648 155.041092 -150.302551 8.148789 155.795563 -151.057022 10.155358 155.614838 -150.876297 9.004300 152.748550 -148.010010 5.977573 153.434113 -148.695587 8.146070 153.332153 -148.593628 6.909546 157.310577 -152.572052 11.042421 23.605820 -18.867285 59.489239 158.156998 -153.418457 12.164648 157.054520 -152.315994 10.422517 156.741119 -152.002579 9.822786 156.219635 -151.481094 9.712126 154.237869 -149.499344 7.832678 151.571915 -146.833374 5.861778 151.892929 -147.154388 5.684944 149.891953 -145.153427 5.132136 148.711243 -143.972702 4.127491 21.724506 -16.985971 48.791504 18.038050 -24.435055 59.489239 151.742813 -158.139816 11.042421 152.589233 -158.986237 12.164648 151.486755 -157.883759 10.422517 151.173340 -157.570343 9.822786 150.227783 -156.624786 10.155358 150.651855 -157.048859 9.712126 149.473328 -155.870331 8.148789 148.670105 -155.067108 7.832678 147.866348 -154.263351 8.146070 147.180771 -153.577774 5.977573 146.004135 -152.401138 5.861778 146.325165 -152.722168 5.684944 144.324188 -150.721191 5.132136 143.143463 -149.540482 4.127491 16.156736 -22.553741 48.791504 147.764389 -154.161392 6.909546 150.047058 -156.444077 9.004300 -0.592705 2.189207 126.319511 0.034879 2.106584 145.965179 0.034879 2.106584 126.319511 -0.592705 2.189207 145.965179 0.619695 1.864346 145.965179 0.619695 1.864346 126.319511 1.121887 1.479000 145.965179 1.121887 1.479000 126.319511 1.507233 0.976807 145.965179 1.507233 0.976807 126.319511 1.749471 0.391992 145.965179 1.749471 0.391992 126.319511 1.832095 -0.235593 145.965179 1.832095 -0.235593 126.319511 1.749471 -0.863177 126.319511 1.749471 -0.863177 145.965179 1.507233 -1.447993 126.319511 1.507233 -1.447993 145.965179 1.121887 -1.950185 126.319511 1.121887 -1.950185 145.965179 0.619695 -2.335531 126.319511 0.619695 -2.335531 145.965179 0.034879 -2.577770 126.319511 0.034879 -2.577770 145.965179 -0.592705 -2.660393 126.319511 -0.592705 -2.660393 145.965179 -0.959758 -2.612069 145.965179 -0.959758 -2.612069 126.319511 -1.220290 -2.577770 145.965179 -1.220290 -2.577770 126.319511 -1.805105 -2.335531 145.965179 -1.805105 -2.335531 126.319511 -2.307298 -1.950185 145.965179 -2.307298 -1.950185 126.319511 -2.692644 -1.447993 145.965179 -2.692644 -1.447993 126.319511 -2.934882 -0.863177 145.965179 -2.934882 -0.863177 126.319511 -3.017505 -0.235593 145.965179 -3.017505 -0.235593 126.319511 -2.934882 0.391992 126.319511 -2.934882 0.391992 145.965179 -2.692644 0.976807 126.319511 -2.692644 0.976807 145.965179 -2.307298 1.479000 126.319511 -2.307298 1.479000 145.965179 -1.805105 1.864346 126.319511 -1.805105 1.864346 145.965179 -1.220290 2.106584 126.319511 -1.220290 2.106584 145.965179 -2.561209 3.173956 126.319511 -1.611678 3.567265 48.705093 -2.561209 3.173956 48.705093 -1.611678 3.567265 126.319511 1.375799 -3.645142 126.319511 0.426267 -4.038450 48.705093 1.375799 -3.645142 48.705093 0.426267 -4.038450 126.319511 -1.155452 -4.098514 126.319511 -0.592705 -4.172601 48.705093 -0.592705 -4.172601 126.319511 -1.155452 -4.098514 48.705093 -4.002254 -2.204097 48.705093 -2.561209 -3.645142 48.705093 -3.376590 -3.019478 48.705093 -1.611678 -4.038450 48.705093 -4.395563 -1.254565 48.705093 -4.529713 -0.235593 48.705093 -4.395563 0.783380 48.705093 -4.002254 1.732911 48.705093 2.191180 -3.019478 48.705093 -3.376590 2.548292 48.705093 2.816844 -2.204097 48.705093 3.210152 -1.254565 48.705093 -0.592705 3.701415 48.705093 3.344302 -0.235593 48.705093 3.210152 0.783380 48.705093 0.426267 3.567265 48.705093 1.375799 3.173956 48.705093 2.816844 1.732911 48.705093 2.191180 2.548292 48.705093 -1.611678 -4.038450 126.319511 -0.592705 3.701415 126.319511 2.816844 1.732911 126.319511 2.191180 2.548292 126.319511 -3.376590 -3.019478 126.319511 -2.561209 -3.645142 126.319511 2.191180 -3.019478 126.319511 -4.395563 -1.254565 126.319511 -4.002254 -2.204097 126.319511 3.210152 -1.254565 126.319511 2.816844 -2.204097 126.319511 -3.376590 2.548292 126.319511 -4.395563 0.783380 126.319511 -4.002254 1.732911 126.319511 3.344302 -0.235593 126.319511 3.210152 0.783380 126.319511 -4.529713 -0.235593 126.319511 0.426267 3.567265 126.319511 1.375799 3.173956 126.319511 -52.162457 -47.091038 60.790981 -68.144073 -72.524292 42.465820 -72.875824 -67.792542 42.468884 -47.430706 -51.822788 60.787918 -81.470123 -76.383629 37.512527 -101.384247 -96.294449 32.404640 -96.652496 -101.026199 32.401573 -76.738373 -81.115379 37.509464 -25.210299 -24.830599 82.559509 -38.283882 -37.895428 64.030785 -25.212967 -24.828129 82.559418 -72.044609 -76.422462 39.018990 -74.561913 -69.474548 34.013004 -69.829895 -74.207748 34.012482 -76.776634 -71.689262 39.019516 -27.558210 -22.482487 82.559593 -22.817919 -27.223963 82.559067 -35.891502 -40.288792 64.030350 -40.629128 -35.549786 64.030960 -22.995583 -22.615883 77.552994 -22.998251 -22.613413 77.552910 -49.215168 -44.125450 43.503387 4.761338 0.322142 113.273621 -44.473846 -48.867870 43.502609 -0.002570 5.087147 113.274399 1.804900 -2.634296 117.444237 -47.430286 -51.824306 47.673222 -2.959008 2.130709 117.445015 -52.171604 -47.081890 47.674000 50.977047 46.619850 60.790981 66.958664 72.053108 42.465820 71.690414 67.321358 42.468884 46.245296 51.351601 60.787918 80.284714 75.912445 37.512527 100.198837 95.823257 32.404640 95.467087 100.555008 32.401573 75.552963 80.644196 37.509464 24.024887 24.359413 82.559509 37.098473 37.424244 64.030785 24.027555 24.356943 82.559418 70.859200 75.951279 39.018990 73.376503 69.003365 34.013004 68.644485 73.736565 34.012482 75.591225 71.218079 39.019516 26.372801 22.011301 82.559593 21.632509 26.752777 82.559067 34.706093 39.817604 64.030350 39.443714 35.078598 64.030960 21.810171 22.144697 77.552994 21.812841 22.142229 77.552910 48.029758 43.654266 43.503387 -5.946748 -0.793327 113.273621 43.288437 48.396687 43.502609 -1.182841 -5.558333 113.274399 -2.990311 2.163110 117.444237 46.244873 51.353123 47.673222 1.773597 -2.601895 117.445015 50.986195 46.610703 47.674000 "
							            />
						</IndexedFaceSet>
					</Shape>
				</Group>
			</Transform>
		</Transform>
	</Scene>
</X3D>