<?xml version="1.0" encoding="UTF-8"?>
<!DOCTYPE X3D PUBLIC "ISO//Web3D//DTD X3D 3.0//EN" "http://www.web3d.org/specifications/x3d-3.0.dtd">
<X3D version="3.0" profile="Immersive" xmlns:xsd="http://www.w3.org/2001/XMLSchema-instance" xsd:noNamespaceSchemaLocation="http://www.web3d.org/specifications/x3d-3.0.xsd">
	<head>
		<meta name="filename" content="28-1.x3d" />
		<meta name="created" content="2026-06-21 15:09:42" />
		<meta name="generator" content="Blender 4.5.4 LTS" />
		<meta name="translator" content="Web3D X3D/VRML2 format v2.5.1" />
	</head>
	<Scene>
		<NavigationInfo headlight="true"
		                visibilityLimit="0.0"
		                type='"EXAMINE", "ANY"'
		                avatarSize="0.25, 1.75, 0.75"
		                />
		<Background DEF="WO_World"
		            groundColor="0.051 0.051 0.051"
		            skyColor="0.051 0.051 0.051"
		            />
		<Transform DEF="_28-1_TRANSFORM"
		           translation="0.000000 0.000000 0.000000"
		           scale="1.000000 1.000000 1.000000"
		           rotation="0.000000 0.707107 0.707107 3.141593"
		           >
			<Transform DEF="_28-1_ifs_TRANSFORM"
			           translation="0.000000 0.000000 0.000000"
			           scale="1.000000 1.000000 1.000000"
			           rotation="0.000000 1.000000 0.000000 0.000000"
			           >
				<Group DEF="group_ME_28-1_001">
					<Shape>
						<Appearance>
						</Appearance>
						<IndexedFaceSet solid="false"
						                coordIndex="0 1 2 -1 1 0 3 -1 1 4 2 -1 4 1 5 -1 6 4 5 -1 4 6 7 -1 6 8 7 -1 8 6 9 -1 8 3 0 -1 3 8 9 -1 9 6 3 -1 1 6 5 -1 6 1 3 -1 8 7 0 -1 2 7 4 -1 7 2 0 -1 7 10 11 -1 10 7 8 -1 7 12 4 -1 12 7 11 -1 2 12 13 -1 12 2 4 -1 14 2 13 -1 2 14 0 -1 10 0 14 -1 0 10 8 -1 10 12 11 -1 12 10 14 -1 13 12 14 -1 15 16 17 -1 16 15 18 -1 19 20 21 -1 20 19 22 -1 23 24 25 -1 24 23 26 -1 27 28 29 -1 28 27 30 -1 31 32 33 -1 32 31 34 -1 33 35 36 -1 35 33 32 -1 37 38 39 -1 38 37 40 -1 39 41 42 -1 41 39 38 -1 43 44 45 -1 44 43 46 -1 45 47 48 -1 47 45 44 -1 49 50 51 -1 50 49 52 -1 51 53 54 -1 53 51 50 -1 55 56 57 -1 56 55 58 -1 57 59 60 -1 59 57 56 -1 61 62 63 -1 62 61 64 -1 63 65 66 -1 65 63 62 -1 67 68 69 -1 68 67 70 -1 69 71 72 -1 71 69 68 -1 73 74 75 -1 74 73 76 -1 75 77 78 -1 77 75 74 -1 79 80 81 -1 80 79 82 -1 81 83 84 -1 83 81 80 -1 85 86 87 -1 86 85 88 -1 87 89 90 -1 89 87 86 -1 91 92 93 -1 92 91 94 -1 93 95 96 -1 95 93 92 -1 97 98 99 -1 98 97 100 -1 99 101 102 -1 101 99 98 -1 103 104 105 -1 104 103 106 -1 105 107 108 -1 107 105 104 -1 109 110 111 -1 110 109 112 -1 111 113 114 -1 113 111 110 -1 115 116 117 -1 116 115 118 -1 117 119 120 -1 119 117 116 -1 121 122 123 -1 122 121 124 -1 123 125 126 -1 125 123 122 -1 127 128 129 -1 128 127 130 -1 129 131 132 -1 131 129 128 -1 133 134 135 -1 134 133 136 -1 135 137 138 -1 137 135 134 -1 139 140 141 -1 140 139 142 -1 141 143 144 -1 143 141 140 -1 145 146 147 -1 146 145 148 -1 147 149 150 -1 149 147 146 -1 151 152 153 -1 152 151 154 -1 153 155 156 -1 155 153 152 -1 157 158 159 -1 158 157 160 -1 159 161 162 -1 161 159 158 -1 163 164 165 -1 164 163 166 -1 165 167 168 -1 167 165 164 -1 169 170 171 -1 170 169 172 -1 171 173 174 -1 173 171 170 -1 175 176 177 -1 176 175 178 -1 177 179 180 -1 179 177 176 -1 181 182 183 -1 182 181 184 -1 183 185 186 -1 185 183 182 -1 187 188 189 -1 188 187 190 -1 189 191 192 -1 191 189 188 -1 193 194 195 -1 194 193 196 -1 195 197 198 -1 197 195 194 -1 199 200 201 -1 200 199 202 -1 201 203 204 -1 203 201 200 -1 205 206 207 -1 206 205 208 -1 207 209 210 -1 209 207 206 -1 211 212 213 -1 212 211 214 -1 213 215 216 -1 215 213 212 -1 217 218 219 -1 218 217 220 -1 219 221 222 -1 221 219 218 -1 223 224 225 -1 224 223 226 -1 225 227 228 -1 227 225 224 -1 229 230 231 -1 230 229 232 -1 231 233 234 -1 233 231 230 -1 235 236 237 -1 236 235 238 -1 237 239 240 -1 239 237 236 -1 241 242 243 -1 242 241 244 -1 243 245 246 -1 245 243 242 -1 247 248 249 -1 248 247 250 -1 249 251 252 -1 251 249 248 -1 253 254 255 -1 254 253 256 -1 255 257 258 -1 257 255 254 -1 259 260 261 -1 260 259 262 -1 261 263 264 -1 263 261 260 -1 265 266 267 -1 266 265 268 -1 267 269 270 -1 269 267 266 -1 271 272 273 -1 272 271 274 -1 273 275 276 -1 275 273 272 -1 277 278 279 -1 278 277 280 -1 279 281 282 -1 281 279 278 -1 283 284 285 -1 284 283 286 -1 285 287 288 -1 287 285 284 -1 289 290 291 -1 290 289 292 -1 291 293 294 -1 293 291 290 -1 295 296 297 -1 296 295 298 -1 297 299 300 -1 299 297 296 -1 301 302 303 -1 302 301 304 -1 303 305 306 -1 305 303 302 -1 307 308 309 -1 308 307 310 -1 309 311 312 -1 311 309 308 -1 313 314 315 -1 314 313 316 -1 315 317 318 -1 317 315 314 -1 319 320 321 -1 320 319 322 -1 321 323 324 -1 323 321 320 -1 325 326 327 -1 326 325 328 -1 327 329 330 -1 329 327 326 -1 331 332 333 -1 332 331 334 -1 333 335 336 -1 335 333 332 -1 337 338 339 -1 338 337 340 -1 339 341 342 -1 341 339 338 -1 343 344 345 -1 344 343 346 -1 345 347 348 -1 347 345 344 -1 349 350 351 -1 350 349 352 -1 351 353 354 -1 353 351 350 -1 355 356 357 -1 356 355 358 -1 357 359 360 -1 359 357 356 -1 361 362 363 -1 362 361 364 -1 363 365 366 -1 365 363 362 -1 367 368 369 -1 368 367 370 -1 369 371 372 -1 371 369 368 -1 373 374 375 -1 374 373 376 -1 375 377 378 -1 377 375 374 -1 379 380 381 -1 380 379 382 -1 381 383 384 -1 383 381 380 -1 385 386 387 -1 386 385 388 -1 387 389 390 -1 389 387 386 -1 391 392 393 -1 392 391 394 -1 393 395 396 -1 395 393 392 -1 397 398 399 -1 398 397 400 -1 399 401 402 -1 401 399 398 -1 403 404 405 -1 404 403 406 -1 405 407 408 -1 407 405 404 -1 409 410 411 -1 410 409 412 -1 411 413 414 -1 413 411 410 -1 415 416 417 -1 416 415 418 -1 417 419 420 -1 419 417 416 -1 421 422 423 -1 422 421 424 -1 423 425 426 -1 425 423 422 -1 427 428 429 -1 428 427 430 -1 429 431 432 -1 431 429 428 -1 433 434 435 -1 434 433 436 -1 435 437 438 -1 437 435 434 -1 439 440 441 -1 440 439 442 -1 441 443 444 -1 443 441 440 -1 445 446 447 -1 446 445 448 -1 447 449 450 -1 449 447 446 -1 451 452 453 -1 452 451 454 -1 453 455 456 -1 455 453 452 -1 457 458 459 -1 458 457 460 -1 459 461 462 -1 461 459 458 -1 463 464 465 -1 464 463 466 -1 465 467 468 -1 467 465 464 -1 469 470 471 -1 470 469 472 -1 471 473 474 -1 473 471 470 -1 475 476 477 -1 476 475 478 -1 477 479 480 -1 479 477 476 -1 481 482 483 -1 482 481 484 -1 482 484 485 -1 485 484 486 -1 485 486 487 -1 487 486 488 -1 487 488 489 -1 489 488 490 -1 489 490 491 -1 491 490 492 -1 491 492 493 -1 493 492 494 -1 493 494 495 -1 495 494 496 -1 495 496 497 -1 497 496 498 -1 497 498 499 -1 499 498 500 -1 499 500 501 -1 501 500 502 -1 501 502 503 -1 503 502 504 -1 505 506 507 -1 507 508 505 -1 507 509 508 -1 509 510 508 -1 509 511 510 -1 511 512 510 -1 511 513 512 -1 513 514 512 -1 513 515 514 -1 515 516 514 -1 515 517 516 -1 517 518 516 -1 517 519 518 -1 519 520 518 -1 519 521 520 -1 521 522 520 -1 521 523 522 -1 523 524 522 -1 523 525 524 -1 525 526 524 -1 525 527 526 -1 527 528 526 -1 529 530 531 -1 531 532 529 -1 531 533 532 -1 533 534 532 -1 533 535 534 -1 535 536 534 -1 535 537 536 -1 537 538 536 -1 537 539 538 -1 539 540 538 -1 539 541 540 -1 541 542 540 -1 541 543 542 -1 543 544 542 -1 543 545 544 -1 545 546 544 -1 545 547 546 -1 547 548 546 -1 547 549 548 -1 549 550 548 -1 549 551 550 -1 551 552 550 -1 553 554 555 -1 554 553 556 -1 554 556 557 -1 557 556 558 -1 557 558 559 -1 559 558 560 -1 559 560 561 -1 561 560 562 -1 561 562 563 -1 563 562 564 -1 563 564 565 -1 565 564 566 -1 565 566 567 -1 567 566 568 -1 567 568 569 -1 569 568 570 -1 569 570 571 -1 571 570 572 -1 571 572 573 -1 573 572 574 -1 573 574 575 -1 575 574 576 -1 577 578 579 -1 578 577 580 -1 578 580 581 -1 581 580 582 -1 581 582 583 -1 583 582 584 -1 583 584 585 -1 585 584 586 -1 585 586 587 -1 587 586 588 -1 587 588 589 -1 589 588 590 -1 589 590 591 -1 591 590 592 -1 591 592 593 -1 593 592 594 -1 593 594 595 -1 595 594 596 -1 595 596 597 -1 597 596 598 -1 597 598 599 -1 599 598 600 -1 601 602 603 -1 602 601 604 -1 602 604 605 -1 605 604 606 -1 605 606 607 -1 607 606 608 -1 607 608 609 -1 609 608 610 -1 609 610 611 -1 611 610 612 -1 611 612 613 -1 613 612 614 -1 613 614 615 -1 615 614 616 -1 615 616 617 -1 617 616 618 -1 617 618 619 -1 619 618 620 -1 619 620 621 -1 621 620 622 -1 621 622 623 -1 623 622 624 -1 625 626 627 -1 626 625 628 -1 626 628 629 -1 629 628 630 -1 629 630 631 -1 631 630 632 -1 631 632 633 -1 633 632 634 -1 633 634 635 -1 635 634 636 -1 635 636 637 -1 637 636 638 -1 637 638 639 -1 639 638 640 -1 639 640 641 -1 641 640 642 -1 641 642 643 -1 643 642 644 -1 643 644 645 -1 645 644 646 -1 645 646 647 -1 647 646 648 -1 649 650 651 -1 651 652 649 -1 651 653 652 -1 653 654 652 -1 653 655 654 -1 655 656 654 -1 655 657 656 -1 657 658 656 -1 657 659 658 -1 659 660 658 -1 659 661 660 -1 661 662 660 -1 661 663 662 -1 663 664 662 -1 663 665 664 -1 665 666 664 -1 665 667 666 -1 667 668 666 -1 667 669 668 -1 669 670 668 -1 669 671 670 -1 671 672 670 -1 673 674 675 -1 674 673 676 -1 674 676 677 -1 677 676 678 -1 677 678 679 -1 679 678 680 -1 679 680 681 -1 681 680 682 -1 681 682 683 -1 683 682 684 -1 683 684 685 -1 685 684 686 -1 685 686 687 -1 687 686 688 -1 687 688 689 -1 689 688 690 -1 689 690 691 -1 691 690 692 -1 691 692 693 -1 693 692 694 -1 693 694 695 -1 695 694 696 -1 697 698 699 -1 699 700 697 -1 699 701 700 -1 701 702 700 -1 701 703 702 -1 703 704 702 -1 703 705 704 -1 705 706 704 -1 705 707 706 -1 707 708 706 -1 707 709 708 -1 709 710 708 -1 709 711 710 -1 711 712 710 -1 711 713 712 -1 713 714 712 -1 713 715 714 -1 715 716 714 -1 715 717 716 -1 717 718 716 -1 717 719 718 -1 719 720 718 -1 721 722 723 -1 722 721 724 -1 722 724 725 -1 725 724 726 -1 725 726 727 -1 727 726 728 -1 727 728 729 -1 729 728 730 -1 729 730 731 -1 731 730 732 -1 731 732 733 -1 733 732 734 -1 733 734 735 -1 735 734 736 -1 735 736 737 -1 737 736 738 -1 737 738 739 -1 739 738 740 -1 739 740 741 -1 741 740 742 -1 741 742 743 -1 743 742 744 -1 745 746 747 -1 747 748 745 -1 747 749 748 -1 749 750 748 -1 749 751 750 -1 751 752 750 -1 751 753 752 -1 753 754 752 -1 753 755 754 -1 755 756 754 -1 755 757 756 -1 757 758 756 -1 757 759 758 -1 759 760 758 -1 759 761 760 -1 761 762 760 -1 761 763 762 -1 763 764 762 -1 763 765 764 -1 765 766 764 -1 765 767 766 -1 767 768 766 -1 769 770 771 -1 770 769 772 -1 770 772 773 -1 773 772 774 -1 773 774 775 -1 775 774 776 -1 775 776 777 -1 777 776 778 -1 777 778 779 -1 779 778 780 -1 779 780 781 -1 781 780 782 -1 781 782 783 -1 783 782 784 -1 783 784 785 -1 785 784 786 -1 785 786 787 -1 787 786 788 -1 787 788 789 -1 789 788 790 -1 789 790 791 -1 791 790 792 -1 793 794 795 -1 794 793 796 -1 794 796 797 -1 797 796 798 -1 797 798 799 -1 799 798 800 -1 799 800 801 -1 801 800 802 -1 801 802 803 -1 803 802 804 -1 803 804 805 -1 805 804 806 -1 805 806 807 -1 807 806 808 -1 807 808 809 -1 809 808 810 -1 809 810 811 -1 811 810 812 -1 811 812 813 -1 813 812 814 -1 813 814 815 -1 815 814 816 -1 817 818 819 -1 819 820 817 -1 819 821 820 -1 821 822 820 -1 821 823 822 -1 823 824 822 -1 823 825 824 -1 825 826 824 -1 825 827 826 -1 827 828 826 -1 827 829 828 -1 829 830 828 -1 829 831 830 -1 831 832 830 -1 831 833 832 -1 833 834 832 -1 833 835 834 -1 835 836 834 -1 835 837 836 -1 837 838 836 -1 837 839 838 -1 839 840 838 -1 841 842 843 -1 842 841 844 -1 842 844 845 -1 845 844 846 -1 845 846 847 -1 847 846 848 -1 847 848 849 -1 849 848 850 -1 849 850 851 -1 851 850 852 -1 851 852 853 -1 853 852 854 -1 853 854 855 -1 855 854 856 -1 855 856 857 -1 857 856 858 -1 857 858 859 -1 859 858 860 -1 859 860 861 -1 861 860 862 -1 861 862 863 -1 863 862 864 -1 865 866 867 -1 866 865 868 -1 866 868 869 -1 869 868 870 -1 869 870 871 -1 871 870 872 -1 871 872 873 -1 873 872 874 -1 873 874 875 -1 875 874 876 -1 875 876 877 -1 877 876 878 -1 877 878 879 -1 879 878 880 -1 879 880 881 -1 881 880 882 -1 881 882 883 -1 883 882 884 -1 883 884 885 -1 885 884 886 -1 885 886 887 -1 887 886 888 -1 889 890 891 -1 891 892 889 -1 891 893 892 -1 893 894 892 -1 893 895 894 -1 895 896 894 -1 895 897 896 -1 897 898 896 -1 897 899 898 -1 899 900 898 -1 899 901 900 -1 901 902 900 -1 901 903 902 -1 903 904 902 -1 903 905 904 -1 905 906 904 -1 905 907 906 -1 907 908 906 -1 907 909 908 -1 909 910 908 -1 909 911 910 -1 911 912 910 -1 913 914 915 -1 915 916 913 -1 915 917 916 -1 917 918 916 -1 917 919 918 -1 919 920 918 -1 919 921 920 -1 921 922 920 -1 921 923 922 -1 923 924 922 -1 923 925 924 -1 925 926 924 -1 925 927 926 -1 927 928 926 -1 927 929 928 -1 929 930 928 -1 929 931 930 -1 931 932 930 -1 931 933 932 -1 933 934 932 -1 933 935 934 -1 935 936 934 -1 937 938 939 -1 939 940 937 -1 939 941 940 -1 941 942 940 -1 941 943 942 -1 943 944 942 -1 943 945 944 -1 945 946 944 -1 945 947 946 -1 947 948 946 -1 947 949 948 -1 949 950 948 -1 949 951 950 -1 951 952 950 -1 951 953 952 -1 953 954 952 -1 953 955 954 -1 955 956 954 -1 955 957 956 -1 957 958 956 -1 957 959 958 -1 959 960 958 -1 961 962 963 -1 963 964 961 -1 963 965 964 -1 965 966 964 -1 965 967 966 -1 967 968 966 -1 967 969 968 -1 969 970 968 -1 969 971 970 -1 971 972 970 -1 971 973 972 -1 973 974 972 -1 973 975 974 -1 975 976 974 -1 975 977 976 -1 977 978 976 -1 977 979 978 -1 979 980 978 -1 979 981 980 -1 981 982 980 -1 981 983 982 -1 983 984 982 -1 985 986 987 -1 987 988 985 -1 987 989 988 -1 989 990 988 -1 989 991 990 -1 991 992 990 -1 991 993 992 -1 993 994 992 -1 993 995 994 -1 995 996 994 -1 995 997 996 -1 997 998 996 -1 997 999 998 -1 999 1000 998 -1 999 1001 1000 -1 1001 1002 1000 -1 1001 1003 1002 -1 1003 1004 1002 -1 1003 1005 1004 -1 1005 1006 1004 -1 1005 1007 1006 -1 1007 1008 1006 -1 1009 1010 1011 -1 1010 1009 1012 -1 1010 1012 1013 -1 1013 1012 1014 -1 1013 1014 1015 -1 1015 1014 1016 -1 1015 1016 1017 -1 1017 1016 1018 -1 1017 1018 1019 -1 1019 1018 1020 -1 1019 1020 1021 -1 1021 1020 1022 -1 1021 1022 1023 -1 1023 1022 1024 -1 1023 1024 1025 -1 1025 1024 1026 -1 1025 1026 1027 -1 1027 1026 1028 -1 1027 1028 1029 -1 1029 1028 1030 -1 1029 1030 1031 -1 1031 1030 1032 -1 1033 1034 1035 -1 1034 1033 1036 -1 1034 1036 1037 -1 1037 1036 1038 -1 1037 1038 1039 -1 1039 1038 1040 -1 1039 1040 1041 -1 1041 1040 1042 -1 1041 1042 1043 -1 1043 1042 1044 -1 1043 1044 1045 -1 1045 1044 1046 -1 1045 1046 1047 -1 1047 1046 1048 -1 1047 1048 1049 -1 1049 1048 1050 -1 1049 1050 1051 -1 1051 1050 1052 -1 1051 1052 1053 -1 1053 1052 1054 -1 1053 1054 1055 -1 1055 1054 1056 -1 1057 1058 1059 -1 1058 1057 1060 -1 1058 1060 1061 -1 1061 1060 1062 -1 1061 1062 1063 -1 1063 1062 1064 -1 1063 1064 1065 -1 1065 1064 1066 -1 1065 1066 1067 -1 1067 1066 1068 -1 1067 1068 1069 -1 1069 1068 1070 -1 1069 1070 1071 -1 1071 1070 1072 -1 1071 1072 1073 -1 1073 1072 1074 -1 1073 1074 1075 -1 1075 1074 1076 -1 1075 1076 1077 -1 1077 1076 1078 -1 1077 1078 1079 -1 1079 1078 1080 -1 1081 1082 1083 -1 1082 1081 1084 -1 1082 1084 1085 -1 1085 1084 1086 -1 1085 1086 1087 -1 1087 1086 1088 -1 1087 1088 1089 -1 1089 1088 1090 -1 1089 1090 1091 -1 1091 1090 1092 -1 1091 1092 1093 -1 1093 1092 1094 -1 1093 1094 1095 -1 1095 1094 1096 -1 1095 1096 1097 -1 1097 1096 1098 -1 1097 1098 1099 -1 1099 1098 1100 -1 1099 1100 1101 -1 1101 1100 1102 -1 1101 1102 1103 -1 1103 1102 1104 -1 1105 1106 1107 -1 1106 1105 1108 -1 1106 1108 1109 -1 1109 1108 1110 -1 1109 1110 1111 -1 1111 1110 1112 -1 1111 1112 1113 -1 1113 1112 1114 -1 1113 1114 1115 -1 1115 1114 1116 -1 1115 1116 1117 -1 1117 1116 1118 -1 1117 1118 1119 -1 1119 1118 1120 -1 1119 1120 1121 -1 1121 1120 1122 -1 1121 1122 1123 -1 1123 1122 1124 -1 1123 1124 1125 -1 1125 1124 1126 -1 1125 1126 1127 -1 1127 1126 1128 -1 1129 1130 1131 -1 1131 1132 1129 -1 1131 1133 1132 -1 1133 1134 1132 -1 1133 1135 1134 -1 1135 1136 1134 -1 1135 1137 1136 -1 1137 1138 1136 -1 1137 1139 1138 -1 1139 1140 1138 -1 1139 1141 1140 -1 1141 1142 1140 -1 1141 1143 1142 -1 1143 1144 1142 -1 1143 1145 1144 -1 1145 1146 1144 -1 1145 1147 1146 -1 1147 1148 1146 -1 1147 1149 1148 -1 1149 1150 1148 -1 1149 1151 1150 -1 1151 1152 1150 -1 1153 1154 1155 -1 1154 1153 1156 -1 1154 1156 1157 -1 1157 1156 1158 -1 1157 1158 1159 -1 1159 1158 1160 -1 1159 1160 1161 -1 1161 1160 1162 -1 1161 1162 1163 -1 1163 1162 1164 -1 1163 1164 1165 -1 1165 1164 1166 -1 1165 1166 1167 -1 1167 1166 1168 -1 1167 1168 1169 -1 1169 1168 1170 -1 1169 1170 1171 -1 1171 1170 1172 -1 1171 1172 1173 -1 1173 1172 1174 -1 1173 1174 1175 -1 1175 1174 1176 -1 1177 1178 1179 -1 1178 1177 1180 -1 1178 1180 1181 -1 1181 1180 1182 -1 1181 1182 1183 -1 1183 1182 1184 -1 1183 1184 1185 -1 1185 1184 1186 -1 1185 1186 1187 -1 1187 1186 1188 -1 1187 1188 1189 -1 1189 1188 1190 -1 1189 1190 1191 -1 1191 1190 1192 -1 1191 1192 1193 -1 1193 1192 1194 -1 1193 1194 1195 -1 1195 1194 1196 -1 1195 1196 1197 -1 1197 1196 1198 -1 1197 1198 1199 -1 1199 1198 1200 -1 1201 1202 1203 -1 1202 1201 1204 -1 1202 1204 1205 -1 1205 1204 1206 -1 1205 1206 1207 -1 1207 1206 1208 -1 1207 1208 1209 -1 1209 1208 1210 -1 1209 1210 1211 -1 1211 1210 1212 -1 1211 1212 1213 -1 1213 1212 1214 -1 1213 1214 1215 -1 1215 1214 1216 -1 1215 1216 1217 -1 1217 1216 1218 -1 1217 1218 1219 -1 1219 1218 1220 -1 1219 1220 1221 -1 1221 1220 1222 -1 1221 1222 1223 -1 1223 1222 1224 -1 1225 1226 1227 -1 1226 1225 1228 -1 1226 1228 1229 -1 1229 1228 1230 -1 1229 1230 1231 -1 1231 1230 1232 -1 1231 1232 1233 -1 1233 1232 1234 -1 1233 1234 1235 -1 1235 1234 1236 -1 1235 1236 1237 -1 1237 1236 1238 -1 1237 1238 1239 -1 1239 1238 1240 -1 1239 1240 1241 -1 1241 1240 1242 -1 1241 1242 1243 -1 1243 1242 1244 -1 1243 1244 1245 -1 1245 1244 1246 -1 1245 1246 1247 -1 1247 1246 1248 -1 1249 1250 1251 -1 1250 1249 1252 -1 1250 1252 1253 -1 1253 1252 1254 -1 1253 1254 1255 -1 1255 1254 1256 -1 1255 1256 1257 -1 1257 1256 1258 -1 1257 1258 1259 -1 1259 1258 1260 -1 1259 1260 1261 -1 1261 1260 1262 -1 1261 1262 1263 -1 1263 1262 1264 -1 1263 1264 1265 -1 1265 1264 1266 -1 1265 1266 1267 -1 1267 1266 1268 -1 1267 1268 1269 -1 1269 1268 1270 -1 1269 1270 1271 -1 1271 1270 1272 -1 1273 1274 1275 -1 1274 1273 1276 -1 1274 1276 1277 -1 1277 1276 1278 -1 1277 1278 1279 -1 1279 1278 1280 -1 1279 1280 1281 -1 1281 1280 1282 -1 1281 1282 1283 -1 1283 1282 1284 -1 1283 1284 1285 -1 1285 1284 1286 -1 1285 1286 1287 -1 1287 1286 1288 -1 1287 1288 1289 -1 1289 1288 1290 -1 1289 1290 1291 -1 1291 1290 1292 -1 1291 1292 1293 -1 1293 1292 1294 -1 1293 1294 1295 -1 1295 1294 1296 -1 1297 1298 1299 -1 1299 1300 1297 -1 1299 1301 1300 -1 1301 1302 1300 -1 1301 1303 1302 -1 1303 1304 1302 -1 1303 1305 1304 -1 1305 1306 1304 -1 1305 1307 1306 -1 1307 1308 1306 -1 1307 1309 1308 -1 1309 1310 1308 -1 1309 1311 1310 -1 1311 1312 1310 -1 1311 1313 1312 -1 1313 1314 1312 -1 1313 1315 1314 -1 1315 1316 1314 -1 1315 1317 1316 -1 1317 1318 1316 -1 1317 1319 1318 -1 1319 1320 1318 -1 1321 1322 1323 -1 1322 1321 1324 -1 1322 1324 1325 -1 1325 1324 1326 -1 1325 1326 1327 -1 1327 1326 1328 -1 1327 1328 1329 -1 1329 1328 1330 -1 1329 1330 1331 -1 1331 1330 1332 -1 1331 1332 1333 -1 1333 1332 1334 -1 1333 1334 1335 -1 1335 1334 1336 -1 1335 1336 1337 -1 1337 1336 1338 -1 1337 1338 1339 -1 1339 1338 1340 -1 1339 1340 1341 -1 1341 1340 1342 -1 1341 1342 1343 -1 1343 1342 1344 -1 1345 1346 1347 -1 1346 1345 1348 -1 1346 1348 1349 -1 1349 1348 1350 -1 1349 1350 1351 -1 1351 1350 1352 -1 1351 1352 1353 -1 1353 1352 1354 -1 1353 1354 1355 -1 1355 1354 1356 -1 1355 1356 1357 -1 1357 1356 1358 -1 1357 1358 1359 -1 1359 1358 1360 -1 1359 1360 1361 -1 1361 1360 1362 -1 1361 1362 1363 -1 1363 1362 1364 -1 1363 1364 1365 -1 1365 1364 1366 -1 1365 1366 1367 -1 1367 1366 1368 -1 1369 1370 1371 -1 1370 1369 1372 -1 1370 1372 1373 -1 1373 1372 1374 -1 1373 1374 1375 -1 1375 1374 1376 -1 1375 1376 1377 -1 1377 1376 1378 -1 1377 1378 1379 -1 1379 1378 1380 -1 1379 1380 1381 -1 1381 1380 1382 -1 1381 1382 1383 -1 1383 1382 1384 -1 1383 1384 1385 -1 1385 1384 1386 -1 1385 1386 1387 -1 1387 1386 1388 -1 1387 1388 1389 -1 1389 1388 1390 -1 1389 1390 1391 -1 1391 1390 1392 -1 1393 1394 1395 -1 1395 1396 1393 -1 1395 1397 1396 -1 1397 1398 1396 -1 1397 1399 1398 -1 1399 1400 1398 -1 1399 1401 1400 -1 1401 1402 1400 -1 1401 1403 1402 -1 1403 1404 1402 -1 1403 1405 1404 -1 1405 1406 1404 -1 1405 1407 1406 -1 1407 1408 1406 -1 1407 1409 1408 -1 1409 1410 1408 -1 1409 1411 1410 -1 1411 1412 1410 -1 1411 1413 1412 -1 1413 1414 1412 -1 1413 1415 1414 -1 1415 1416 1414 -1 1417 1418 1419 -1 1419 1420 1417 -1 1419 1421 1420 -1 1421 1422 1420 -1 1421 1423 1422 -1 1423 1424 1422 -1 1423 1425 1424 -1 1425 1426 1424 -1 1425 1427 1426 -1 1427 1428 1426 -1 1427 1429 1428 -1 1429 1430 1428 -1 1429 1431 1430 -1 1431 1432 1430 -1 1431 1433 1432 -1 1433 1434 1432 -1 1433 1435 1434 -1 1435 1436 1434 -1 1435 1437 1436 -1 1437 1438 1436 -1 1437 1439 1438 -1 1439 1440 1438 -1 1441 1442 1443 -1 1443 1444 1441 -1 1443 1445 1444 -1 1445 1446 1444 -1 1445 1447 1446 -1 1447 1448 1446 -1 1447 1449 1448 -1 1449 1450 1448 -1 1449 1451 1450 -1 1451 1452 1450 -1 1451 1453 1452 -1 1453 1454 1452 -1 1453 1455 1454 -1 1455 1456 1454 -1 1455 1457 1456 -1 1457 1458 1456 -1 1457 1459 1458 -1 1459 1460 1458 -1 1459 1461 1460 -1 1461 1462 1460 -1 1461 1463 1462 -1 1463 1464 1462 -1 1465 1466 1467 -1 1467 1468 1465 -1 1467 1469 1468 -1 1469 1470 1468 -1 1469 1471 1470 -1 1471 1472 1470 -1 1471 1473 1472 -1 1473 1474 1472 -1 1473 1475 1474 -1 1475 1476 1474 -1 1475 1477 1476 -1 1477 1478 1476 -1 1477 1479 1478 -1 1479 1480 1478 -1 1479 1481 1480 -1 1481 1482 1480 -1 1481 1483 1482 -1 1483 1484 1482 -1 1483 1485 1484 -1 1485 1486 1484 -1 1485 1487 1486 -1 1487 1488 1486 -1 1489 1490 1491 -1 1491 1492 1489 -1 1491 1493 1492 -1 1493 1494 1492 -1 1493 1495 1494 -1 1495 1496 1494 -1 1495 1497 1496 -1 1497 1498 1496 -1 1497 1499 1498 -1 1499 1500 1498 -1 1499 1501 1500 -1 1501 1502 1500 -1 1501 1503 1502 -1 1503 1504 1502 -1 1503 1505 1504 -1 1505 1506 1504 -1 1505 1507 1506 -1 1507 1508 1506 -1 1507 1509 1508 -1 1509 1510 1508 -1 1509 1511 1510 -1 1511 1512 1510 -1 1513 1514 1515 -1 1515 1516 1513 -1 1515 1517 1516 -1 1517 1518 1516 -1 1517 1519 1518 -1 1519 1520 1518 -1 1519 1521 1520 -1 1521 1522 1520 -1 1521 1523 1522 -1 1523 1524 1522 -1 1523 1525 1524 -1 1525 1526 1524 -1 1525 1527 1526 -1 1527 1528 1526 -1 1527 1529 1528 -1 1529 1530 1528 -1 1529 1531 1530 -1 1531 1532 1530 -1 1531 1533 1532 -1 1533 1534 1532 -1 1533 1535 1534 -1 1535 1536 1534 -1 1537 1538 1539 -1 1539 1540 1537 -1 1539 1541 1540 -1 1541 1542 1540 -1 1541 1543 1542 -1 1543 1544 1542 -1 1543 1545 1544 -1 1545 1546 1544 -1 1545 1547 1546 -1 1547 1548 1546 -1 1547 1549 1548 -1 1549 1550 1548 -1 1549 1551 1550 -1 1551 1552 1550 -1 1551 1553 1552 -1 1553 1554 1552 -1 1553 1555 1554 -1 1555 1556 1554 -1 1555 1557 1556 -1 1557 1558 1556 -1 1557 1559 1558 -1 1559 1560 1558 -1 1561 1562 1563 -1 1563 1564 1561 -1 1563 1565 1564 -1 1565 1566 1564 -1 1565 1567 1566 -1 1567 1568 1566 -1 1567 1569 1568 -1 1569 1570 1568 -1 1569 1571 1570 -1 1571 1572 1570 -1 1571 1573 1572 -1 1573 1574 1572 -1 1573 1575 1574 -1 1575 1576 1574 -1 1575 1577 1576 -1 1577 1578 1576 -1 1577 1579 1578 -1 1579 1580 1578 -1 1579 1581 1580 -1 1581 1582 1580 -1 1581 1583 1582 -1 1583 1584 1582 -1 1585 1586 1587 -1 1587 1588 1585 -1 1587 1589 1588 -1 1589 1590 1588 -1 1589 1591 1590 -1 1591 1592 1590 -1 1591 1593 1592 -1 1593 1594 1592 -1 1593 1595 1594 -1 1595 1596 1594 -1 1595 1597 1596 -1 1597 1598 1596 -1 1597 1599 1598 -1 1599 1600 1598 -1 1599 1601 1600 -1 1601 1602 1600 -1 1601 1603 1602 -1 1603 1604 1602 -1 1603 1605 1604 -1 1605 1606 1604 -1 1605 1607 1606 -1 1607 1608 1606 -1 1609 1610 1611 -1 1611 1612 1609 -1 1611 1613 1612 -1 1613 1614 1612 -1 1613 1615 1614 -1 1615 1616 1614 -1 1615 1617 1616 -1 1617 1618 1616 -1 1617 1619 1618 -1 1619 1620 1618 -1 1619 1621 1620 -1 1621 1622 1620 -1 1621 1623 1622 -1 1623 1624 1622 -1 1623 1625 1624 -1 1625 1626 1624 -1 1625 1627 1626 -1 1627 1628 1626 -1 1627 1629 1628 -1 1629 1630 1628 -1 1629 1631 1630 -1 1631 1632 1630 -1 1633 1634 1635 -1 1635 1636 1633 -1 1635 1637 1636 -1 1637 1638 1636 -1 1637 1639 1638 -1 1639 1640 1638 -1 1639 1641 1640 -1 1641 1642 1640 -1 1641 1643 1642 -1 1643 1644 1642 -1 1643 1645 1644 -1 1645 1646 1644 -1 1645 1647 1646 -1 1647 1648 1646 -1 1647 1649 1648 -1 1649 1650 1648 -1 1649 1651 1650 -1 1651 1652 1650 -1 1651 1653 1652 -1 1653 1654 1652 -1 1653 1655 1654 -1 1655 1656 1654 -1 1657 1658 1659 -1 1659 1660 1657 -1 1659 1661 1660 -1 1661 1662 1660 -1 1661 1663 1662 -1 1663 1664 1662 -1 1663 1665 1664 -1 1665 1666 1664 -1 1665 1667 1666 -1 1667 1668 1666 -1 1667 1669 1668 -1 1669 1670 1668 -1 1669 1671 1670 -1 1671 1672 1670 -1 1671 1673 1672 -1 1673 1674 1672 -1 1673 1675 1674 -1 1675 1676 1674 -1 1675 1677 1676 -1 1677 1678 1676 -1 1677 1679 1678 -1 1679 1680 1678 -1 1681 1682 1683 -1 1683 1684 1681 -1 1683 1685 1684 -1 1685 1686 1684 -1 1685 1687 1686 -1 1687 1688 1686 -1 1687 1689 1688 -1 1689 1690 1688 -1 1689 1691 1690 -1 1691 1692 1690 -1 1691 1693 1692 -1 1693 1694 1692 -1 1693 1695 1694 -1 1695 1696 1694 -1 1695 1697 1696 -1 1697 1698 1696 -1 1697 1699 1698 -1 1699 1700 1698 -1 1699 1701 1700 -1 1701 1702 1700 -1 1701 1703 1702 -1 1703 1704 1702 -1 1705 1706 1707 -1 1707 1708 1705 -1 1707 1709 1708 -1 1709 1710 1708 -1 1709 1711 1710 -1 1711 1712 1710 -1 1711 1713 1712 -1 1713 1714 1712 -1 1713 1715 1714 -1 1715 1716 1714 -1 1715 1717 1716 -1 1717 1718 1716 -1 1717 1719 1718 -1 1719 1720 1718 -1 1719 1721 1720 -1 1721 1722 1720 -1 1721 1723 1722 -1 1723 1724 1722 -1 1723 1725 1724 -1 1725 1726 1724 -1 1725 1727 1726 -1 1727 1728 1726 -1 1729 1730 1731 -1 1731 1732 1729 -1 1731 1733 1732 -1 1733 1734 1732 -1 1733 1735 1734 -1 1735 1736 1734 -1 1735 1737 1736 -1 1737 1738 1736 -1 1737 1739 1738 -1 1739 1740 1738 -1 1739 1741 1740 -1 1741 1742 1740 -1 1741 1743 1742 -1 1743 1744 1742 -1 1743 1745 1744 -1 1745 1746 1744 -1 1745 1747 1746 -1 1747 1748 1746 -1 1747 1749 1748 -1 1749 1750 1748 -1 1749 1751 1750 -1 1751 1752 1750 -1 1753 1754 1755 -1 1754 1753 1756 -1 1754 1756 1757 -1 1757 1756 1758 -1 1757 1758 1759 -1 1759 1758 1760 -1 1759 1760 1761 -1 1761 1760 1762 -1 1761 1762 1763 -1 1763 1762 1764 -1 1763 1764 1765 -1 1765 1764 1766 -1 1765 1766 1767 -1 1767 1766 1768 -1 1767 1768 1769 -1 1769 1768 1770 -1 1769 1770 1771 -1 1771 1770 1772 -1 1771 1772 1773 -1 1773 1772 1774 -1 1773 1774 1775 -1 1775 1774 1776 -1 "
						                >
							<Coordinate DEF="coords_ME_28-1_001"
							            point="345.669281 -5.905512 -1.968504 345.669281 -298.425201 0.000000 345.669281 -298.425201 -1.968504 345.669281 -5.905512 0.000000 -247.244095 -298.425201 -1.968504 -247.244095 -298.425201 0.000000 -247.244095 0.000000 0.000000 -247.244095 0.000000 -1.968504 345.669281 0.000000 -1.968504 345.669281 0.000000 0.000000 345.669281 0.000000 -3.937008 -247.244095 0.000000 -3.937008 -247.244095 -298.425201 -3.937008 345.669281 -298.425201 -3.937008 345.669281 -5.905512 -3.937008 -183.813904 -103.729561 0.000000 -195.784607 -116.813820 0.000000 -183.257126 -104.286339 0.000000 -196.341385 -116.257042 0.000000 -183.257126 -128.784531 0.000000 -196.341385 -116.813820 0.000000 -183.813904 -129.341309 0.000000 -195.784607 -116.257042 0.000000 294.209808 -116.257042 0.000000 282.239105 -129.341309 0.000000 294.766571 -116.813820 0.000000 281.682312 -128.784531 0.000000 294.766571 -116.257042 0.000000 281.682312 -104.286339 0.000000 294.209808 -116.813820 0.000000 282.239105 -103.729561 0.000000 332.863434 -12.249094 0.000000 345.947693 -0.278389 0.000000 345.390900 0.278389 0.000000 333.420197 -12.805871 0.000000 358.475159 12.249094 0.000000 357.918396 12.805871 0.000000 281.682312 -63.430195 0.000000 294.766571 -51.459492 0.000000 294.209808 -50.902714 0.000000 282.239105 -63.986973 0.000000 307.294067 -38.932007 0.000000 306.737274 -38.375233 0.000000 -247.637802 -316.141724 0.000000 -246.850388 -298.425201 0.000000 -247.637802 -298.425201 0.000000 -246.850388 -316.141724 0.000000 -246.850388 -280.708649 0.000000 -247.637802 -280.708649 0.000000 -260.049957 -310.674286 0.000000 -246.965714 -298.703583 0.000000 -247.522476 -298.146820 0.000000 -259.493195 -311.231079 0.000000 -234.438217 -286.176117 0.000000 -234.994995 -285.619324 0.000000 -208.868866 -259.493195 0.000000 -195.784607 -247.522476 0.000000 -196.341385 -246.965714 0.000000 -208.312088 -260.049957 0.000000 -183.257126 -234.994995 0.000000 -183.813904 -234.438217 0.000000 -234.994995 -12.805871 0.000000 -246.965714 0.278389 0.000000 -247.522476 -0.278389 0.000000 -234.438217 -12.249094 0.000000 -259.493195 12.805871 0.000000 -260.049957 12.249094 0.000000 -183.813904 -63.986973 0.000000 -195.784607 -50.902714 0.000000 -196.341385 -51.459492 0.000000 -183.257126 -63.430195 0.000000 -208.312088 -38.375233 0.000000 -208.868866 -38.932007 0.000000 357.918396 -311.231079 0.000000 345.947693 -298.146820 0.000000 345.390900 -298.703583 0.000000 358.475159 -310.674286 0.000000 333.420197 -285.619324 0.000000 332.863434 -286.176117 0.000000 306.737274 -260.049957 0.000000 294.766571 -246.965714 0.000000 294.209808 -247.522476 0.000000 307.294067 -259.493195 0.000000 282.239105 -234.438217 0.000000 281.682312 -234.994995 0.000000 -65.748032 -68.897636 0.000000 -64.960632 -51.181103 0.000000 -65.748032 -51.181103 0.000000 -64.960632 -68.897636 0.000000 -64.960632 -33.464565 0.000000 -65.748032 -33.464565 0.000000 -196.456696 -68.897636 0.000000 -195.669296 -51.181103 0.000000 -196.456696 -51.181103 0.000000 -195.669296 -68.897636 0.000000 -195.669296 -33.464565 0.000000 -196.456696 -33.464565 0.000000 163.385834 -68.897636 0.000000 164.173233 -51.181103 0.000000 163.385834 -51.181103 0.000000 164.173233 -68.897636 0.000000 164.173233 -33.464565 0.000000 163.385834 -33.464565 0.000000 228.740158 -68.897636 0.000000 229.527557 -51.181103 0.000000 228.740158 -51.181103 0.000000 229.527557 -68.897636 0.000000 229.527557 -33.464565 0.000000 228.740158 -33.464565 0.000000 345.275604 -68.897636 0.000000 346.062988 -51.181103 0.000000 345.275604 -51.181103 0.000000 346.062988 -68.897636 0.000000 346.062988 -33.464565 0.000000 345.275604 -33.464565 0.000000 -0.259551 -68.897636 0.000000 0.527851 -51.181103 0.000000 -0.259551 -51.181103 0.000000 0.527851 -68.897636 0.000000 0.527851 -33.464565 0.000000 -0.259551 -33.464565 0.000000 294.094482 -68.897636 0.000000 294.881897 -51.181103 0.000000 294.094482 -51.181103 0.000000 294.881897 -68.897636 0.000000 294.881897 -33.464565 0.000000 294.094482 -33.464565 0.000000 -131.236511 -68.897636 0.000000 -130.449112 -51.181103 0.000000 -131.236511 -51.181103 0.000000 -130.449112 -68.897636 0.000000 -130.449112 -33.464565 0.000000 -131.236511 -33.464565 0.000000 98.031494 -68.897636 0.000000 98.818901 -51.181103 0.000000 98.031494 -51.181103 0.000000 98.818901 -68.897636 0.000000 98.818901 -33.464565 0.000000 98.031494 -33.464565 0.000000 -131.236511 -134.251968 0.000000 -130.449112 -116.535431 0.000000 -131.236511 -116.535431 0.000000 -130.449112 -134.251968 0.000000 -130.449112 -98.818901 0.000000 -131.236511 -98.818901 0.000000 294.094482 -134.251968 0.000000 294.881897 -116.535431 0.000000 294.094482 -116.535431 0.000000 294.881897 -134.251968 0.000000 294.881897 -98.818901 0.000000 294.094482 -98.818901 0.000000 -0.259551 -134.251968 0.000000 0.527851 -116.535431 0.000000 -0.259551 -116.535431 0.000000 0.527851 -134.251968 0.000000 0.527851 -98.818901 0.000000 -0.259551 -98.818901 0.000000 345.275604 -134.251968 0.000000 346.062988 -116.535431 0.000000 345.275604 -116.535431 0.000000 346.062988 -134.251968 0.000000 346.062988 -98.818901 0.000000 345.275604 -98.818901 0.000000 228.740158 -134.251968 0.000000 229.527557 -116.535431 0.000000 228.740158 -116.535431 0.000000 229.527557 -134.251968 0.000000 229.527557 -98.818901 0.000000 228.740158 -98.818901 0.000000 163.385834 -134.251968 0.000000 164.173233 -116.535431 0.000000 163.385834 -116.535431 0.000000 164.173233 -134.251968 0.000000 164.173233 -98.818901 0.000000 163.385834 -98.818901 0.000000 -196.456696 -134.251968 0.000000 -195.669296 -116.535431 0.000000 -196.456696 -116.535431 0.000000 -195.669296 -134.251968 0.000000 -195.669296 -98.818901 0.000000 -196.456696 -98.818901 0.000000 -65.748032 -134.251968 0.000000 -64.960632 -116.535431 0.000000 -65.748032 -116.535431 0.000000 -64.960632 -134.251968 0.000000 -64.960632 -98.818901 0.000000 -65.748032 -98.818901 0.000000 98.031494 -134.251968 0.000000 98.818901 -116.535431 0.000000 98.031494 -116.535431 0.000000 98.818901 -134.251968 0.000000 98.818901 -98.818901 0.000000 98.031494 -98.818901 0.000000 -131.236511 -264.960632 0.000000 -130.449112 -247.244095 0.000000 -131.236511 -247.244095 0.000000 -130.449112 -264.960632 0.000000 -130.449112 -229.527557 0.000000 -131.236511 -229.527557 0.000000 -0.259551 -264.960632 0.000000 0.527851 -247.244095 0.000000 -0.259551 -247.244095 0.000000 0.527851 -264.960632 0.000000 0.527851 -229.527557 0.000000 -0.259551 -229.527557 0.000000 98.031494 -264.960632 0.000000 98.818901 -247.244095 0.000000 98.031494 -247.244095 0.000000 98.818901 -264.960632 0.000000 98.818901 -229.527557 0.000000 98.031494 -229.527557 0.000000 -196.456696 -264.960632 0.000000 -195.669296 -247.244095 0.000000 -196.456696 -247.244095 0.000000 -195.669296 -264.960632 0.000000 -195.669296 -229.527557 0.000000 -196.456696 -229.527557 0.000000 228.740158 -264.960632 0.000000 229.527557 -247.244095 0.000000 228.740158 -247.244095 0.000000 229.527557 -264.960632 0.000000 229.527557 -229.527557 0.000000 228.740158 -229.527557 0.000000 345.275604 -264.960632 0.000000 346.062988 -247.244095 0.000000 345.275604 -247.244095 0.000000 346.062988 -264.960632 0.000000 346.062988 -229.527557 0.000000 345.275604 -229.527557 0.000000 294.094482 -264.960632 0.000000 294.881897 -247.244095 0.000000 294.094482 -247.244095 0.000000 294.881897 -264.960632 0.000000 294.881897 -229.527557 0.000000 294.094482 -229.527557 0.000000 -65.748032 -264.960632 0.000000 -64.960632 -247.244095 0.000000 -65.748032 -247.244095 0.000000 -64.960632 -264.960632 0.000000 -64.960632 -229.527557 0.000000 -65.748032 -229.527557 0.000000 163.385834 -264.960632 0.000000 164.173233 -247.244095 0.000000 163.385834 -247.244095 0.000000 164.173233 -264.960632 0.000000 164.173233 -229.527557 0.000000 163.385834 -229.527557 0.000000 163.385834 -316.141724 0.000000 164.173233 -298.425201 0.000000 163.385834 -298.425201 0.000000 164.173233 -316.141724 0.000000 164.173233 -280.708649 0.000000 163.385834 -280.708649 0.000000 294.094482 -316.141724 0.000000 294.881897 -298.425201 0.000000 294.094482 -298.425201 0.000000 294.881897 -316.141724 0.000000 294.881897 -280.708649 0.000000 294.094482 -280.708649 0.000000 345.275604 -316.141724 0.000000 346.062988 -298.425201 0.000000 345.275604 -298.425201 0.000000 346.062988 -316.141724 0.000000 346.062988 -280.708649 0.000000 345.275604 -280.708649 0.000000 -196.456696 -316.141724 0.000000 -195.669296 -298.425201 0.000000 -196.456696 -298.425201 0.000000 -195.669296 -316.141724 0.000000 -195.669296 -280.708649 0.000000 -196.456696 -280.708649 0.000000 228.740158 -316.141724 0.000000 229.527557 -298.425201 0.000000 228.740158 -298.425201 0.000000 229.527557 -316.141724 0.000000 229.527557 -280.708649 0.000000 228.740158 -280.708649 0.000000 98.031494 -316.141724 0.000000 98.818901 -298.425201 0.000000 98.031494 -298.425201 0.000000 98.818901 -316.141724 0.000000 98.818901 -280.708649 0.000000 98.031494 -280.708649 0.000000 -0.259551 -316.141724 0.000000 0.527851 -298.425201 0.000000 -0.259551 -298.425201 0.000000 0.527851 -316.141724 0.000000 0.527851 -280.708649 0.000000 -0.259551 -280.708649 0.000000 -65.748032 -316.141724 0.000000 -64.960632 -298.425201 0.000000 -65.748032 -298.425201 0.000000 -64.960632 -316.141724 0.000000 -64.960632 -280.708649 0.000000 -65.748032 -280.708649 0.000000 -131.236511 -316.141724 0.000000 -130.449112 -298.425201 0.000000 -131.236511 -298.425201 0.000000 -130.449112 -316.141724 0.000000 -130.449112 -280.708649 0.000000 -131.236511 -280.708649 0.000000 345.275604 -17.716536 0.000000 346.062988 0.000000 0.000000 345.275604 -0.000000 0.000000 346.062988 -17.716536 0.000000 346.062988 17.716536 0.000000 345.275604 17.716536 0.000000 294.094482 -17.716536 0.000000 294.881897 0.000000 0.000000 294.094482 -0.000000 0.000000 294.881897 -17.716536 0.000000 294.881897 17.716536 0.000000 294.094482 17.716536 0.000000 228.740158 -17.716536 0.000000 229.527557 0.000000 0.000000 228.740158 -0.000000 0.000000 229.527557 -17.716536 0.000000 229.527557 17.716536 0.000000 228.740158 17.716536 0.000000 163.385834 -17.716536 0.000000 164.173233 0.000000 0.000000 163.385834 -0.000000 0.000000 164.173233 -17.716536 0.000000 164.173233 17.716536 0.000000 163.385834 17.716536 0.000000 98.031494 -17.716536 0.000000 98.818901 0.000000 0.000000 98.031494 -0.000000 0.000000 98.818901 -17.716536 0.000000 98.818901 17.716536 0.000000 98.031494 17.716536 0.000000 -0.259551 -17.716536 0.000000 0.527851 0.000000 0.000000 -0.259551 -0.000000 0.000000 0.527851 -17.716536 0.000000 0.527851 17.716536 0.000000 -0.259551 17.716536 0.000000 -65.748032 -17.716536 0.000000 -64.960632 0.000000 0.000000 -65.748032 -0.000000 0.000000 -64.960632 -17.716536 0.000000 -64.960632 17.716536 0.000000 -65.748032 17.716536 0.000000 -131.236511 -17.716536 0.000000 -130.449112 0.000000 0.000000 -131.236511 -0.000000 0.000000 -130.449112 -17.716536 0.000000 -130.449112 17.716536 0.000000 -131.236511 17.716536 0.000000 -196.456696 -17.716536 0.000000 -195.669296 0.000000 0.000000 -196.456696 -0.000000 0.000000 -195.669296 -17.716536 0.000000 -195.669296 17.716536 0.000000 -196.456696 17.716536 0.000000 -247.637802 -17.716536 0.000000 -246.850388 0.000000 0.000000 -247.637802 -0.000000 0.000000 -246.850388 -17.716536 0.000000 -246.850388 17.716536 0.000000 -247.637802 17.716536 0.000000 -178.346451 -51.574802 0.000000 -196.062988 -50.787403 0.000000 -196.062988 -51.574802 0.000000 -178.346451 -50.787403 0.000000 -213.779526 -50.787403 0.000000 -213.779526 -51.574802 0.000000 -178.346451 -116.929131 0.000000 -196.062988 -116.141731 0.000000 -196.062988 -116.929131 0.000000 -178.346451 -116.141731 0.000000 -213.779526 -116.141731 0.000000 -213.779526 -116.929131 0.000000 -178.346451 -247.637802 0.000000 -196.062988 -246.850388 0.000000 -196.062988 -247.637802 0.000000 -178.346451 -246.850388 0.000000 -213.779526 -246.850388 0.000000 -213.779526 -247.637802 0.000000 -178.346451 -182.283463 0.000000 -196.062988 -181.496063 0.000000 -196.062988 -182.283463 0.000000 -178.346451 -181.496063 0.000000 -213.779526 -181.496063 0.000000 -213.779526 -182.283463 0.000000 312.204712 -247.637802 0.000000 294.488190 -246.850388 0.000000 294.488190 -247.637802 0.000000 312.204712 -246.850388 0.000000 276.771667 -246.850388 0.000000 276.771667 -247.637802 0.000000 312.204712 -182.283463 0.000000 294.488190 -181.496063 0.000000 294.488190 -182.283463 0.000000 312.204712 -181.496063 0.000000 276.771667 -181.496063 0.000000 276.771667 -182.283463 0.000000 312.204712 -51.574802 0.000000 294.488190 -50.787403 0.000000 294.488190 -51.574802 0.000000 312.204712 -50.787403 0.000000 276.771667 -50.787403 0.000000 276.771667 -51.574802 0.000000 312.204712 -116.929131 0.000000 294.488190 -116.141731 0.000000 294.488190 -116.929131 0.000000 312.204712 -116.141731 0.000000 276.771667 -116.141731 0.000000 276.771667 -116.929131 0.000000 363.385834 -247.637802 0.000000 345.669281 -246.850388 0.000000 345.669281 -247.637802 0.000000 363.385834 -246.850388 0.000000 327.952759 -246.850388 0.000000 327.952759 -247.637802 0.000000 363.385834 -182.283463 0.000000 345.669281 -181.496063 0.000000 345.669281 -182.283463 0.000000 363.385834 -181.496063 0.000000 327.952759 -181.496063 0.000000 327.952759 -182.283463 0.000000 363.385834 -51.574802 0.000000 345.669281 -50.787403 0.000000 345.669281 -51.574802 0.000000 363.385834 -50.787403 0.000000 327.952759 -50.787403 0.000000 327.952759 -51.574802 0.000000 363.385834 -116.929131 0.000000 345.669281 -116.141731 0.000000 345.669281 -116.929131 0.000000 363.385834 -116.141731 0.000000 327.952759 -116.141731 0.000000 327.952759 -116.929131 0.000000 363.385834 -298.818909 0.000000 345.669281 -298.031494 0.000000 345.669281 -298.818909 0.000000 363.385834 -298.031494 0.000000 327.952759 -298.031494 0.000000 327.952759 -298.818909 0.000000 363.385834 -0.393701 0.000000 345.669281 0.393701 0.000000 345.669281 -0.393701 0.000000 363.385834 0.393701 0.000000 327.952759 0.393701 0.000000 327.952759 -0.393701 0.000000 -229.527557 -0.393701 0.000000 -247.244095 0.393701 0.000000 -247.244095 -0.393701 0.000000 -229.527557 0.393701 0.000000 -264.960632 0.393701 0.000000 -264.960632 -0.393701 0.000000 -229.527557 -298.818909 0.000000 -247.244095 -298.031494 0.000000 -247.244095 -298.818909 0.000000 -229.527557 -298.031494 0.000000 -264.960632 -298.031494 0.000000 -264.960632 -298.818909 0.000000 -229.527557 -247.637802 0.000000 -247.244095 -246.850388 0.000000 -247.244095 -247.637802 0.000000 -229.527557 -246.850388 0.000000 -264.960632 -246.850388 0.000000 -264.960632 -247.637802 0.000000 -229.527557 -182.283463 0.000000 -247.244095 -181.496063 0.000000 -247.244095 -182.283463 0.000000 -229.527557 -181.496063 0.000000 -264.960632 -181.496063 0.000000 -264.960632 -182.283463 0.000000 -229.527557 -116.929131 0.000000 -247.244095 -116.141731 0.000000 -247.244095 -116.929131 0.000000 -229.527557 -116.141731 0.000000 -264.960632 -116.141731 0.000000 -264.960632 -116.929131 0.000000 -229.527557 -51.574802 0.000000 -247.244095 -50.787403 0.000000 -247.244095 -51.574802 0.000000 -229.527557 -50.787403 0.000000 -264.960632 -50.787403 0.000000 -264.960632 -51.574802 0.000000 94.622337 -1.018973 0.000000 94.622337 1.018973 0.000000 94.488190 -0.000000 0.000000 95.015648 -1.968504 0.000000 95.015648 1.968504 0.000000 95.641312 -2.783885 0.000000 95.641312 2.783885 0.000000 96.456696 -3.409549 0.000000 96.456696 3.409549 0.000000 97.406227 -3.802858 0.000000 97.406227 3.802858 0.000000 98.425194 -3.937008 0.000000 98.425194 3.937008 0.000000 99.444168 -3.802858 0.000000 99.444168 3.802858 0.000000 100.393700 -3.409549 0.000000 100.393700 3.409549 0.000000 101.209084 -2.783885 0.000000 101.209084 2.783885 0.000000 101.834747 -1.968504 0.000000 101.834747 1.968504 0.000000 102.228058 -1.018973 0.000000 102.228058 1.018973 0.000000 102.362206 -0.000000 0.000000 -61.551472 -248.263062 0.000000 -61.417324 -247.244095 0.000000 -61.551472 -246.225128 0.000000 -61.944782 -249.212601 0.000000 -61.944782 -245.275589 0.000000 -62.570446 -250.027985 0.000000 -62.570446 -244.460205 0.000000 -63.385826 -250.653641 0.000000 -63.385826 -243.834549 0.000000 -64.335358 -251.046951 0.000000 -64.335358 -243.441238 0.000000 -65.354332 -251.181107 0.000000 -65.354332 -243.307083 0.000000 -66.373306 -251.046951 0.000000 -66.373306 -243.441238 0.000000 -67.322838 -250.653641 0.000000 -67.322838 -243.834549 0.000000 -68.138214 -250.027985 0.000000 -68.138214 -244.460205 0.000000 -68.763878 -249.212601 0.000000 -68.763878 -245.275589 0.000000 -69.157188 -248.263062 0.000000 -69.157188 -246.225128 0.000000 -69.291336 -247.244095 0.000000 3.802858 -248.263062 0.000000 3.937008 -247.244095 0.000000 3.802858 -246.225128 0.000000 3.409549 -249.212601 0.000000 3.409549 -245.275589 0.000000 2.783885 -250.027985 0.000000 2.783885 -244.460205 0.000000 1.968504 -250.653641 0.000000 1.968504 -243.834549 0.000000 1.018973 -251.046951 0.000000 1.018973 -243.441238 0.000000 0.000000 -251.181107 0.000000 0.000000 -243.307083 0.000000 -1.018973 -251.046951 0.000000 -1.018973 -243.441238 0.000000 -1.968504 -250.653641 0.000000 -1.968504 -243.834549 0.000000 -2.783885 -250.027985 0.000000 -2.783885 -244.460205 0.000000 -3.409549 -249.212601 0.000000 -3.409549 -245.275589 0.000000 -3.802858 -248.263062 0.000000 -3.802858 -246.225128 0.000000 -3.937008 -247.244095 0.000000 290.685333 -248.263062 0.000000 290.685333 -246.225128 0.000000 290.551178 -247.244095 0.000000 291.078644 -249.212601 0.000000 291.078644 -245.275589 0.000000 291.704315 -250.027985 0.000000 291.704315 -244.460205 0.000000 292.519684 -250.653641 0.000000 292.519684 -243.834549 0.000000 293.469208 -251.046951 0.000000 293.469208 -243.441238 0.000000 294.488190 -251.181107 0.000000 294.488190 -243.307083 0.000000 295.507172 -251.046951 0.000000 295.507172 -243.441238 0.000000 296.456696 -250.653641 0.000000 296.456696 -243.834549 0.000000 297.272064 -250.027985 0.000000 297.272064 -244.460205 0.000000 297.897736 -249.212601 0.000000 297.897736 -245.275589 0.000000 298.291046 -248.263062 0.000000 298.291046 -246.225128 0.000000 298.425201 -247.244095 0.000000 159.976669 -1.018973 0.000000 159.976669 1.018973 0.000000 159.842514 -0.000000 0.000000 160.369980 -1.968504 0.000000 160.369980 1.968504 0.000000 160.995636 -2.783885 0.000000 160.995636 2.783885 0.000000 161.811020 -3.409549 0.000000 161.811020 3.409549 0.000000 162.760559 -3.802858 0.000000 162.760559 3.802858 0.000000 163.779526 -3.937008 0.000000 163.779526 3.937008 0.000000 164.798508 -3.802858 0.000000 164.798508 3.802858 0.000000 165.748032 -3.409549 0.000000 165.748032 3.409549 0.000000 166.563416 -2.783885 0.000000 166.563416 2.783885 0.000000 167.189072 -1.968504 0.000000 167.189072 1.968504 0.000000 167.582382 -1.018973 0.000000 167.582382 1.018973 0.000000 167.716537 -0.000000 0.000000 159.976669 -248.263062 0.000000 159.976669 -246.225128 0.000000 159.842514 -247.244095 0.000000 160.369980 -249.212601 0.000000 160.369980 -245.275589 0.000000 160.995636 -250.027985 0.000000 160.995636 -244.460205 0.000000 161.811020 -250.653641 0.000000 161.811020 -243.834549 0.000000 162.760559 -251.046951 0.000000 162.760559 -243.441238 0.000000 163.779526 -251.181107 0.000000 163.779526 -243.307083 0.000000 164.798508 -251.046951 0.000000 164.798508 -243.441238 0.000000 165.748032 -250.653641 0.000000 165.748032 -243.834549 0.000000 166.563416 -250.027985 0.000000 166.563416 -244.460205 0.000000 167.189072 -249.212601 0.000000 167.189072 -245.275589 0.000000 167.582382 -248.263062 0.000000 167.582382 -246.225128 0.000000 167.716537 -247.244095 0.000000 225.330994 -248.263062 0.000000 225.330994 -246.225128 0.000000 225.196854 -247.244095 0.000000 225.724304 -249.212601 0.000000 225.724304 -245.275589 0.000000 226.349976 -250.027985 0.000000 226.349976 -244.460205 0.000000 227.165359 -250.653641 0.000000 227.165359 -243.834549 0.000000 228.114883 -251.046951 0.000000 228.114883 -243.441238 0.000000 229.133865 -251.181107 0.000000 229.133865 -243.307083 0.000000 230.152832 -251.046951 0.000000 230.152832 -243.441238 0.000000 231.102356 -250.653641 0.000000 231.102356 -243.834549 0.000000 231.917740 -250.027985 0.000000 231.917740 -244.460205 0.000000 232.543411 -249.212601 0.000000 232.543411 -245.275589 0.000000 232.936722 -248.263062 0.000000 232.936722 -246.225128 0.000000 233.070862 -247.244095 0.000000 -126.905807 -248.263062 0.000000 -126.771652 -247.244095 0.000000 -126.905807 -246.225128 0.000000 -127.299110 -249.212601 0.000000 -127.299110 -245.275589 0.000000 -127.924774 -250.027985 0.000000 -127.924774 -244.460205 0.000000 -128.740158 -250.653641 0.000000 -128.740158 -243.834549 0.000000 -129.689682 -251.046951 0.000000 -129.689682 -243.441238 0.000000 -130.708664 -251.181107 0.000000 -130.708664 -243.307083 0.000000 -131.727631 -251.046951 0.000000 -131.727631 -243.441238 0.000000 -132.677170 -250.653641 0.000000 -132.677170 -243.834549 0.000000 -133.492554 -250.027985 0.000000 -133.492554 -244.460205 0.000000 -134.118210 -249.212601 0.000000 -134.118210 -245.275589 0.000000 -134.511520 -248.263062 0.000000 -134.511520 -246.225128 0.000000 -134.645676 -247.244095 0.000000 94.622337 -248.263062 0.000000 94.622337 -246.225128 0.000000 94.488190 -247.244095 0.000000 95.015648 -249.212601 0.000000 95.015648 -245.275589 0.000000 95.641312 -250.027985 0.000000 95.641312 -244.460205 0.000000 96.456696 -250.653641 0.000000 96.456696 -243.834549 0.000000 97.406227 -251.046951 0.000000 97.406227 -243.441238 0.000000 98.425194 -251.181107 0.000000 98.425194 -243.307083 0.000000 99.444168 -251.046951 0.000000 99.444168 -243.441238 0.000000 100.393700 -250.653641 0.000000 100.393700 -243.834549 0.000000 101.209084 -250.027985 0.000000 101.209084 -244.460205 0.000000 101.834747 -249.212601 0.000000 101.834747 -245.275589 0.000000 102.228058 -248.263062 0.000000 102.228058 -246.225128 0.000000 102.362206 -247.244095 0.000000 -61.551472 -299.444183 0.000000 -61.417324 -298.425201 0.000000 -61.551472 -297.406219 0.000000 -61.944782 -300.393707 0.000000 -61.944782 -296.456696 0.000000 -62.570446 -301.209076 0.000000 -62.570446 -295.641327 0.000000 -63.385826 -301.834747 0.000000 -63.385826 -295.015656 0.000000 -64.335358 -302.228058 0.000000 -64.335358 -294.622345 0.000000 -65.354332 -302.362213 0.000000 -65.354332 -294.488190 0.000000 -66.373306 -302.228058 0.000000 -66.373306 -294.622345 0.000000 -67.322838 -301.834747 0.000000 -67.322838 -295.015656 0.000000 -68.138214 -301.209076 0.000000 -68.138214 -295.641327 0.000000 -68.763878 -300.393707 0.000000 -68.763878 -296.456696 0.000000 -69.157188 -299.444183 0.000000 -69.157188 -297.406219 0.000000 -69.291336 -298.425201 0.000000 341.866425 -182.908737 0.000000 341.866425 -180.870789 0.000000 341.732269 -181.889771 0.000000 342.259735 -183.858261 0.000000 342.259735 -179.921265 0.000000 342.885406 -184.673645 0.000000 342.885406 -179.105881 0.000000 343.700775 -185.299316 0.000000 343.700775 -178.480209 0.000000 344.650330 -185.692627 0.000000 344.650330 -178.086899 0.000000 345.669281 -185.826767 0.000000 345.669281 -177.952759 0.000000 346.688263 -185.692627 0.000000 346.688263 -178.086899 0.000000 347.637787 -185.299316 0.000000 347.637787 -178.480209 0.000000 348.453186 -184.673645 0.000000 348.453186 -179.105881 0.000000 349.078827 -183.858261 0.000000 349.078827 -179.921265 0.000000 349.472137 -182.908737 0.000000 349.472137 -180.870789 0.000000 349.606293 -181.889771 0.000000 -126.905807 -1.018973 0.000000 -126.771652 -0.000000 0.000000 -126.905807 1.018973 0.000000 -127.299110 -1.968504 0.000000 -127.299110 1.968504 0.000000 -127.924774 -2.783885 0.000000 -127.924774 2.783885 0.000000 -128.740158 -3.409549 0.000000 -128.740158 3.409549 0.000000 -129.689682 -3.802858 0.000000 -129.689682 3.802858 0.000000 -130.708664 -3.937008 0.000000 -130.708664 3.937008 0.000000 -131.727631 -3.802858 0.000000 -131.727631 3.802858 0.000000 -132.677170 -3.409549 0.000000 -132.677170 3.409549 0.000000 -133.492554 -2.783885 0.000000 -133.492554 2.783885 0.000000 -134.118210 -1.968504 0.000000 -134.118210 1.968504 0.000000 -134.511520 -1.018973 0.000000 -134.511520 1.018973 0.000000 -134.645676 -0.000000 0.000000 94.622337 -52.200073 0.000000 94.622337 -50.162128 0.000000 94.488190 -51.181103 0.000000 95.015648 -53.149605 0.000000 95.015648 -49.212597 0.000000 95.641312 -53.964989 0.000000 95.641312 -48.397217 0.000000 96.456696 -54.590652 0.000000 96.456696 -47.771553 0.000000 97.406227 -54.983959 0.000000 97.406227 -47.378246 0.000000 98.425194 -55.118111 0.000000 98.425194 -47.244095 0.000000 99.444168 -54.983959 0.000000 99.444168 -47.378246 0.000000 100.393700 -54.590652 0.000000 100.393700 -47.771553 0.000000 101.209084 -53.964989 0.000000 101.209084 -48.397217 0.000000 101.834747 -53.149605 0.000000 101.834747 -49.212597 0.000000 102.228058 -52.200073 0.000000 102.228058 -50.162128 0.000000 102.362206 -51.181103 0.000000 159.976669 -52.200073 0.000000 159.976669 -50.162128 0.000000 159.842514 -51.181103 0.000000 160.369980 -53.149605 0.000000 160.369980 -49.212597 0.000000 160.995636 -53.964989 0.000000 160.995636 -48.397217 0.000000 161.811020 -54.590652 0.000000 161.811020 -47.771553 0.000000 162.760559 -54.983959 0.000000 162.760559 -47.378246 0.000000 163.779526 -55.118111 0.000000 163.779526 -47.244095 0.000000 164.798508 -54.983959 0.000000 164.798508 -47.378246 0.000000 165.748032 -54.590652 0.000000 165.748032 -47.771553 0.000000 166.563416 -53.964989 0.000000 166.563416 -48.397217 0.000000 167.189072 -53.149605 0.000000 167.189072 -49.212597 0.000000 167.582382 -52.200073 0.000000 167.582382 -50.162128 0.000000 167.716537 -51.181103 0.000000 -126.905807 -52.200073 0.000000 -126.771652 -51.181103 0.000000 -126.905807 -50.162128 0.000000 -127.299110 -53.149605 0.000000 -127.299110 -49.212597 0.000000 -127.924774 -53.964989 0.000000 -127.924774 -48.397217 0.000000 -128.740158 -54.590652 0.000000 -128.740158 -47.771553 0.000000 -129.689682 -54.983959 0.000000 -129.689682 -47.378246 0.000000 -130.708664 -55.118111 0.000000 -130.708664 -47.244095 0.000000 -131.727631 -54.983959 0.000000 -131.727631 -47.378246 0.000000 -132.677170 -54.590652 0.000000 -132.677170 -47.771553 0.000000 -133.492554 -53.964989 0.000000 -133.492554 -48.397217 0.000000 -134.118210 -53.149605 0.000000 -134.118210 -49.212597 0.000000 -134.511520 -52.200073 0.000000 -134.511520 -50.162128 0.000000 -134.645676 -51.181103 0.000000 290.685333 -52.200073 0.000000 290.685333 -50.162128 0.000000 290.551178 -51.181103 0.000000 291.078644 -53.149605 0.000000 291.078644 -49.212597 0.000000 291.704315 -53.964989 0.000000 291.704315 -48.397217 0.000000 292.519684 -54.590652 0.000000 292.519684 -47.771553 0.000000 293.469208 -54.983959 0.000000 293.469208 -47.378246 0.000000 294.488190 -55.118111 0.000000 294.488190 -47.244095 0.000000 295.507172 -54.983959 0.000000 295.507172 -47.378246 0.000000 296.456696 -54.590652 0.000000 296.456696 -47.771553 0.000000 297.272064 -53.964989 0.000000 297.272064 -48.397217 0.000000 297.897736 -53.149605 0.000000 297.897736 -49.212597 0.000000 298.291046 -52.200073 0.000000 298.291046 -50.162128 0.000000 298.425201 -51.181103 0.000000 225.330994 -52.200073 0.000000 225.330994 -50.162128 0.000000 225.196854 -51.181103 0.000000 225.724304 -53.149605 0.000000 225.724304 -49.212597 0.000000 226.349976 -53.964989 0.000000 226.349976 -48.397217 0.000000 227.165359 -54.590652 0.000000 227.165359 -47.771553 0.000000 228.114883 -54.983959 0.000000 228.114883 -47.378246 0.000000 229.133865 -55.118111 0.000000 229.133865 -47.244095 0.000000 230.152832 -54.983959 0.000000 230.152832 -47.378246 0.000000 231.102356 -54.590652 0.000000 231.102356 -47.771553 0.000000 231.917740 -53.964989 0.000000 231.917740 -48.397217 0.000000 232.543411 -53.149605 0.000000 232.543411 -49.212597 0.000000 232.936722 -52.200073 0.000000 232.936722 -50.162128 0.000000 233.070862 -51.181103 0.000000 -61.551472 -52.200073 0.000000 -61.417324 -51.181103 0.000000 -61.551472 -50.162128 0.000000 -61.944782 -53.149605 0.000000 -61.944782 -49.212597 0.000000 -62.570446 -53.964989 0.000000 -62.570446 -48.397217 0.000000 -63.385826 -54.590652 0.000000 -63.385826 -47.771553 0.000000 -64.335358 -54.983959 0.000000 -64.335358 -47.378246 0.000000 -65.354332 -55.118111 0.000000 -65.354332 -47.244095 0.000000 -66.373306 -54.983959 0.000000 -66.373306 -47.378246 0.000000 -67.322838 -54.590652 0.000000 -67.322838 -47.771553 0.000000 -68.138214 -53.964989 0.000000 -68.138214 -48.397217 0.000000 -68.763878 -53.149605 0.000000 -68.763878 -49.212597 0.000000 -69.157188 -52.200073 0.000000 -69.157188 -50.162128 0.000000 -69.291336 -51.181103 0.000000 3.802858 -52.200073 0.000000 3.937008 -51.181103 0.000000 3.802858 -50.162128 0.000000 3.409549 -53.149605 0.000000 3.409549 -49.212597 0.000000 2.783885 -53.964989 0.000000 2.783885 -48.397217 0.000000 1.968504 -54.590652 0.000000 1.968504 -47.771553 0.000000 1.018973 -54.983959 0.000000 1.018973 -47.378246 0.000000 0.000000 -55.118111 0.000000 0.000000 -47.244095 0.000000 -1.018973 -54.983959 0.000000 -1.018973 -47.378246 0.000000 -1.968504 -54.590652 0.000000 -1.968504 -47.771553 0.000000 -2.783885 -53.964989 0.000000 -2.783885 -48.397217 0.000000 -3.409549 -53.149605 0.000000 -3.409549 -49.212597 0.000000 -3.802858 -52.200073 0.000000 -3.802858 -50.162128 0.000000 -3.937008 -51.181103 0.000000 298.291046 -182.908737 0.000000 298.425201 -181.889771 0.000000 298.291046 -180.870789 0.000000 297.897736 -183.858261 0.000000 297.897736 -179.921265 0.000000 297.272064 -184.673645 0.000000 297.272064 -179.105881 0.000000 296.456696 -185.299316 0.000000 296.456696 -178.480209 0.000000 295.507172 -185.692627 0.000000 295.507172 -178.086899 0.000000 294.488190 -185.826767 0.000000 294.488190 -177.952759 0.000000 293.469208 -185.692627 0.000000 293.469208 -178.086899 0.000000 292.519684 -185.299316 0.000000 292.519684 -178.480209 0.000000 291.704315 -184.673645 0.000000 291.704315 -179.105881 0.000000 291.078644 -183.858261 0.000000 291.078644 -179.921265 0.000000 290.685333 -182.908737 0.000000 290.685333 -180.870789 0.000000 290.551178 -181.889771 0.000000 -192.260132 -182.908737 0.000000 -192.125992 -181.889771 0.000000 -192.260132 -180.870789 0.000000 -192.653442 -183.858261 0.000000 -192.653442 -179.921265 0.000000 -193.279114 -184.673645 0.000000 -193.279114 -179.105881 0.000000 -194.094482 -185.299316 0.000000 -194.094482 -178.480209 0.000000 -195.044022 -185.692627 0.000000 -195.044022 -178.086899 0.000000 -196.062988 -185.826767 0.000000 -196.062988 -177.952759 0.000000 -197.081970 -185.692627 0.000000 -197.081970 -178.086899 0.000000 -198.031494 -185.299316 0.000000 -198.031494 -178.480209 0.000000 -198.846878 -184.673645 0.000000 -198.846878 -179.105881 0.000000 -199.472534 -183.858261 0.000000 -199.472534 -179.921265 0.000000 -199.865845 -182.908737 0.000000 -199.865845 -180.870789 0.000000 -200.000000 -181.889771 0.000000 -192.260132 -248.263062 0.000000 -192.125992 -247.244095 0.000000 -192.260132 -246.225128 0.000000 -192.653442 -249.212601 0.000000 -192.653442 -245.275589 0.000000 -193.279114 -250.027985 0.000000 -193.279114 -244.460205 0.000000 -194.094482 -250.653641 0.000000 -194.094482 -243.834549 0.000000 -195.044022 -251.046951 0.000000 -195.044022 -243.441238 0.000000 -196.062988 -251.181107 0.000000 -196.062988 -243.307083 0.000000 -197.081970 -251.046951 0.000000 -197.081970 -243.441238 0.000000 -198.031494 -250.653641 0.000000 -198.031494 -243.834549 0.000000 -198.846878 -250.027985 0.000000 -198.846878 -244.460205 0.000000 -199.472534 -249.212601 0.000000 -199.472534 -245.275589 0.000000 -199.865845 -248.263062 0.000000 -199.865845 -246.225128 0.000000 -200.000000 -247.244095 0.000000 341.866425 -52.200073 0.000000 341.866425 -50.162128 0.000000 341.732269 -51.181103 0.000000 342.259735 -53.149605 0.000000 342.259735 -49.212597 0.000000 342.885406 -53.964989 0.000000 342.885406 -48.397217 0.000000 343.700775 -54.590652 0.000000 343.700775 -47.771553 0.000000 344.650330 -54.983959 0.000000 344.650330 -47.378246 0.000000 345.669281 -55.118111 0.000000 345.669281 -47.244095 0.000000 346.688263 -54.983959 0.000000 346.688263 -47.378246 0.000000 347.637787 -54.590652 0.000000 347.637787 -47.771553 0.000000 348.453186 -53.964989 0.000000 348.453186 -48.397217 0.000000 349.078827 -53.149605 0.000000 349.078827 -49.212597 0.000000 349.472137 -52.200073 0.000000 349.472137 -50.162128 0.000000 349.606293 -51.181103 0.000000 341.866425 -117.554405 0.000000 341.866425 -115.516464 0.000000 341.732269 -116.535431 0.000000 342.259735 -118.503937 0.000000 342.259735 -114.566933 0.000000 342.885406 -119.319321 0.000000 342.885406 -113.751549 0.000000 343.700775 -119.944984 0.000000 343.700775 -113.125885 0.000000 344.650330 -120.338287 0.000000 344.650330 -112.732574 0.000000 345.669281 -120.472443 0.000000 345.669281 -112.598427 0.000000 346.688263 -120.338287 0.000000 346.688263 -112.732574 0.000000 347.637787 -119.944984 0.000000 347.637787 -113.125885 0.000000 348.453186 -119.319321 0.000000 348.453186 -113.751549 0.000000 349.078827 -118.503937 0.000000 349.078827 -114.566933 0.000000 349.472137 -117.554405 0.000000 349.472137 -115.516464 0.000000 349.606293 -116.535431 0.000000 341.866425 -299.444183 0.000000 341.866425 -297.406219 0.000000 341.732269 -298.425201 0.000000 342.259735 -300.393707 0.000000 342.259735 -296.456696 0.000000 342.885406 -301.209076 0.000000 342.885406 -295.641327 0.000000 343.700775 -301.834747 0.000000 343.700775 -295.015656 0.000000 344.650330 -302.228058 0.000000 344.650330 -294.622345 0.000000 345.669281 -302.362213 0.000000 345.669281 -294.488190 0.000000 346.688263 -302.228058 0.000000 346.688263 -294.622345 0.000000 347.637787 -301.834747 0.000000 347.637787 -295.015656 0.000000 348.453186 -301.209076 0.000000 348.453186 -295.641327 0.000000 349.078827 -300.393707 0.000000 349.078827 -296.456696 0.000000 349.472137 -299.444183 0.000000 349.472137 -297.406219 0.000000 349.606293 -298.425201 0.000000 290.685333 -117.554405 0.000000 290.685333 -115.516464 0.000000 290.551178 -116.535431 0.000000 291.078644 -118.503937 0.000000 291.078644 -114.566933 0.000000 291.704315 -119.319321 0.000000 291.704315 -113.751549 0.000000 292.519684 -119.944984 0.000000 292.519684 -113.125885 0.000000 293.469208 -120.338287 0.000000 293.469208 -112.732574 0.000000 294.488190 -120.472443 0.000000 294.488190 -112.598427 0.000000 295.507172 -120.338287 0.000000 295.507172 -112.732574 0.000000 296.456696 -119.944984 0.000000 296.456696 -113.125885 0.000000 297.272064 -119.319321 0.000000 297.272064 -113.751549 0.000000 297.897736 -118.503937 0.000000 297.897736 -114.566933 0.000000 298.291046 -117.554405 0.000000 298.291046 -115.516464 0.000000 298.425201 -116.535431 0.000000 341.866425 -248.263062 0.000000 341.866425 -246.225128 0.000000 341.732269 -247.244095 0.000000 342.259735 -249.212601 0.000000 342.259735 -245.275589 0.000000 342.885406 -250.027985 0.000000 342.885406 -244.460205 0.000000 343.700775 -250.653641 0.000000 343.700775 -243.834549 0.000000 344.650330 -251.046951 0.000000 344.650330 -243.441238 0.000000 345.669281 -251.181107 0.000000 345.669281 -243.307083 0.000000 346.688263 -251.046951 0.000000 346.688263 -243.441238 0.000000 347.637787 -250.653641 0.000000 347.637787 -243.834549 0.000000 348.453186 -250.027985 0.000000 348.453186 -244.460205 0.000000 349.078827 -249.212601 0.000000 349.078827 -245.275589 0.000000 349.472137 -248.263062 0.000000 349.472137 -246.225128 0.000000 349.606293 -247.244095 0.000000 -126.905807 -117.554405 0.000000 -126.771652 -116.535431 0.000000 -126.905807 -115.516464 0.000000 -127.299110 -118.503937 0.000000 -127.299110 -114.566933 0.000000 -127.924774 -119.319321 0.000000 -127.924774 -113.751549 0.000000 -128.740158 -119.944984 0.000000 -128.740158 -113.125885 0.000000 -129.689682 -120.338287 0.000000 -129.689682 -112.732574 0.000000 -130.708664 -120.472443 0.000000 -130.708664 -112.598427 0.000000 -131.727631 -120.338287 0.000000 -131.727631 -112.732574 0.000000 -132.677170 -119.944984 0.000000 -132.677170 -113.125885 0.000000 -133.492554 -119.319321 0.000000 -133.492554 -113.751549 0.000000 -134.118210 -118.503937 0.000000 -134.118210 -114.566933 0.000000 -134.511520 -117.554405 0.000000 -134.511520 -115.516464 0.000000 -134.645676 -116.535431 0.000000 225.330994 -299.444183 0.000000 225.330994 -297.406219 0.000000 225.196854 -298.425201 0.000000 225.724304 -300.393707 0.000000 225.724304 -296.456696 0.000000 226.349976 -301.209076 0.000000 226.349976 -295.641327 0.000000 227.165359 -301.834747 0.000000 227.165359 -295.015656 0.000000 228.114883 -302.228058 0.000000 228.114883 -294.622345 0.000000 229.133865 -302.362213 0.000000 229.133865 -294.488190 0.000000 230.152832 -302.228058 0.000000 230.152832 -294.622345 0.000000 231.102356 -301.834747 0.000000 231.102356 -295.015656 0.000000 231.917740 -301.209076 0.000000 231.917740 -295.641327 0.000000 232.543411 -300.393707 0.000000 232.543411 -296.456696 0.000000 232.936722 -299.444183 0.000000 232.936722 -297.406219 0.000000 233.070862 -298.425201 0.000000 225.330994 -117.554405 0.000000 225.330994 -115.516464 0.000000 225.196854 -116.535431 0.000000 225.724304 -118.503937 0.000000 225.724304 -114.566933 0.000000 226.349976 -119.319321 0.000000 226.349976 -113.751549 0.000000 227.165359 -119.944984 0.000000 227.165359 -113.125885 0.000000 228.114883 -120.338287 0.000000 228.114883 -112.732574 0.000000 229.133865 -120.472443 0.000000 229.133865 -112.598427 0.000000 230.152832 -120.338287 0.000000 230.152832 -112.732574 0.000000 231.102356 -119.944984 0.000000 231.102356 -113.125885 0.000000 231.917740 -119.319321 0.000000 231.917740 -113.751549 0.000000 232.543411 -118.503937 0.000000 232.543411 -114.566933 0.000000 232.936722 -117.554405 0.000000 232.936722 -115.516464 0.000000 233.070862 -116.535431 0.000000 290.685333 -299.444183 0.000000 290.685333 -297.406219 0.000000 290.551178 -298.425201 0.000000 291.078644 -300.393707 0.000000 291.078644 -296.456696 0.000000 291.704315 -301.209076 0.000000 291.704315 -295.641327 0.000000 292.519684 -301.834747 0.000000 292.519684 -295.015656 0.000000 293.469208 -302.228058 0.000000 293.469208 -294.622345 0.000000 294.488190 -302.362213 0.000000 294.488190 -294.488190 0.000000 295.507172 -302.228058 0.000000 295.507172 -294.622345 0.000000 296.456696 -301.834747 0.000000 296.456696 -295.015656 0.000000 297.272064 -301.209076 0.000000 297.272064 -295.641327 0.000000 297.897736 -300.393707 0.000000 297.897736 -296.456696 0.000000 298.291046 -299.444183 0.000000 298.291046 -297.406219 0.000000 298.425201 -298.425201 0.000000 159.976669 -117.554405 0.000000 159.976669 -115.516464 0.000000 159.842514 -116.535431 0.000000 160.369980 -118.503937 0.000000 160.369980 -114.566933 0.000000 160.995636 -119.319321 0.000000 160.995636 -113.751549 0.000000 161.811020 -119.944984 0.000000 161.811020 -113.125885 0.000000 162.760559 -120.338287 0.000000 162.760559 -112.732574 0.000000 163.779526 -120.472443 0.000000 163.779526 -112.598427 0.000000 164.798508 -120.338287 0.000000 164.798508 -112.732574 0.000000 165.748032 -119.944984 0.000000 165.748032 -113.125885 0.000000 166.563416 -119.319321 0.000000 166.563416 -113.751549 0.000000 167.189072 -118.503937 0.000000 167.189072 -114.566933 0.000000 167.582382 -117.554405 0.000000 167.582382 -115.516464 0.000000 167.716537 -116.535431 0.000000 94.622337 -299.444183 0.000000 94.622337 -297.406219 0.000000 94.488190 -298.425201 0.000000 95.015648 -300.393707 0.000000 95.015648 -296.456696 0.000000 95.641312 -301.209076 0.000000 95.641312 -295.641327 0.000000 96.456696 -301.834747 0.000000 96.456696 -295.015656 0.000000 97.406227 -302.228058 0.000000 97.406227 -294.622345 0.000000 98.425194 -302.362213 0.000000 98.425194 -294.488190 0.000000 99.444168 -302.228058 0.000000 99.444168 -294.622345 0.000000 100.393700 -301.834747 0.000000 100.393700 -295.015656 0.000000 101.209084 -301.209076 0.000000 101.209084 -295.641327 0.000000 101.834747 -300.393707 0.000000 101.834747 -296.456696 0.000000 102.228058 -299.444183 0.000000 102.228058 -297.406219 0.000000 102.362206 -298.425201 0.000000 94.622337 -117.554405 0.000000 94.622337 -115.516464 0.000000 94.488190 -116.535431 0.000000 95.015648 -118.503937 0.000000 95.015648 -114.566933 0.000000 95.641312 -119.319321 0.000000 95.641312 -113.751549 0.000000 96.456696 -119.944984 0.000000 96.456696 -113.125885 0.000000 97.406227 -120.338287 0.000000 97.406227 -112.732574 0.000000 98.425194 -120.472443 0.000000 98.425194 -112.598427 0.000000 99.444168 -120.338287 0.000000 99.444168 -112.732574 0.000000 100.393700 -119.944984 0.000000 100.393700 -113.125885 0.000000 101.209084 -119.319321 0.000000 101.209084 -113.751549 0.000000 101.834747 -118.503937 0.000000 101.834747 -114.566933 0.000000 102.228058 -117.554405 0.000000 102.228058 -115.516464 0.000000 102.362206 -116.535431 0.000000 -192.260132 -52.200073 0.000000 -192.125992 -51.181103 0.000000 -192.260132 -50.162128 0.000000 -192.653442 -53.149605 0.000000 -192.653442 -49.212597 0.000000 -193.279114 -53.964989 0.000000 -193.279114 -48.397217 0.000000 -194.094482 -54.590652 0.000000 -194.094482 -47.771553 0.000000 -195.044022 -54.983959 0.000000 -195.044022 -47.378246 0.000000 -196.062988 -55.118111 0.000000 -196.062988 -47.244095 0.000000 -197.081970 -54.983959 0.000000 -197.081970 -47.378246 0.000000 -198.031494 -54.590652 0.000000 -198.031494 -47.771553 0.000000 -198.846878 -53.964989 0.000000 -198.846878 -48.397217 0.000000 -199.472534 -53.149605 0.000000 -199.472534 -49.212597 0.000000 -199.865845 -52.200073 0.000000 -199.865845 -50.162128 0.000000 -200.000000 -51.181103 0.000000 341.866425 -1.018973 0.000000 341.866425 1.018973 0.000000 341.732269 -0.000000 0.000000 342.259735 -1.968504 0.000000 342.259735 1.968504 0.000000 342.885406 -2.783885 0.000000 342.885406 2.783885 0.000000 343.700775 -3.409549 0.000000 343.700775 3.409549 0.000000 344.650330 -3.802858 0.000000 344.650330 3.802858 0.000000 345.669281 -3.937008 0.000000 345.669281 3.937008 0.000000 346.688263 -3.802858 0.000000 346.688263 3.802858 0.000000 347.637787 -3.409549 0.000000 347.637787 3.409549 0.000000 348.453186 -2.783885 0.000000 348.453186 2.783885 0.000000 349.078827 -1.968504 0.000000 349.078827 1.968504 0.000000 349.472137 -1.018973 0.000000 349.472137 1.018973 0.000000 349.606293 -0.000000 0.000000 290.685333 -1.018973 0.000000 290.685333 1.018973 0.000000 290.551178 -0.000000 0.000000 291.078644 -1.968504 0.000000 291.078644 1.968504 0.000000 291.704315 -2.783885 0.000000 291.704315 2.783885 0.000000 292.519684 -3.409549 0.000000 292.519684 3.409549 0.000000 293.469208 -3.802858 0.000000 293.469208 3.802858 0.000000 294.488190 -3.937008 0.000000 294.488190 3.937008 0.000000 295.507172 -3.802858 0.000000 295.507172 3.802858 0.000000 296.456696 -3.409549 0.000000 296.456696 3.409549 0.000000 297.272064 -2.783885 0.000000 297.272064 2.783885 0.000000 297.897736 -1.968504 0.000000 297.897736 1.968504 0.000000 298.291046 -1.018973 0.000000 298.291046 1.018973 0.000000 298.425201 -0.000000 0.000000 225.330994 -1.018973 0.000000 225.330994 1.018973 0.000000 225.196854 -0.000000 0.000000 225.724304 -1.968504 0.000000 225.724304 1.968504 0.000000 226.349976 -2.783885 0.000000 226.349976 2.783885 0.000000 227.165359 -3.409549 0.000000 227.165359 3.409549 0.000000 228.114883 -3.802858 0.000000 228.114883 3.802858 0.000000 229.133865 -3.937008 0.000000 229.133865 3.937008 0.000000 230.152832 -3.802858 0.000000 230.152832 3.802858 0.000000 231.102356 -3.409549 0.000000 231.102356 3.409549 0.000000 231.917740 -2.783885 0.000000 231.917740 2.783885 0.000000 232.543411 -1.968504 0.000000 232.543411 1.968504 0.000000 232.936722 -1.018973 0.000000 232.936722 1.018973 0.000000 233.070862 -0.000000 0.000000 3.802858 -1.018973 0.000000 3.937008 -0.000000 0.000000 3.802858 1.018973 0.000000 3.409549 -1.968504 0.000000 3.409549 1.968504 0.000000 2.783885 -2.783885 0.000000 2.783885 2.783885 0.000000 1.968504 -3.409549 0.000000 1.968504 3.409549 0.000000 1.018973 -3.802858 0.000000 1.018973 3.802858 0.000000 0.000000 -3.937008 0.000000 0.000000 3.937008 0.000000 -1.018973 -3.802858 0.000000 -1.018973 3.802858 0.000000 -1.968504 -3.409549 0.000000 -1.968504 3.409549 0.000000 -2.783885 -2.783885 0.000000 -2.783885 2.783885 0.000000 -3.409549 -1.968504 0.000000 -3.409549 1.968504 0.000000 -3.802858 -1.018973 0.000000 -3.802858 1.018973 0.000000 -3.937008 -0.000000 0.000000 -61.551472 -1.018973 0.000000 -61.417324 -0.000000 0.000000 -61.551472 1.018973 0.000000 -61.944782 -1.968504 0.000000 -61.944782 1.968504 0.000000 -62.570446 -2.783885 0.000000 -62.570446 2.783885 0.000000 -63.385826 -3.409549 0.000000 -63.385826 3.409549 0.000000 -64.335358 -3.802858 0.000000 -64.335358 3.802858 0.000000 -65.354332 -3.937008 0.000000 -65.354332 3.937008 0.000000 -66.373306 -3.802858 0.000000 -66.373306 3.802858 0.000000 -67.322838 -3.409549 0.000000 -67.322838 3.409549 0.000000 -68.138214 -2.783885 0.000000 -68.138214 2.783885 0.000000 -68.763878 -1.968504 0.000000 -68.763878 1.968504 0.000000 -69.157188 -1.018973 0.000000 -69.157188 1.018973 0.000000 -69.291336 -0.000000 0.000000 -243.441238 -182.908737 0.000000 -243.307083 -181.889771 0.000000 -243.441238 -180.870789 0.000000 -243.834549 -183.858261 0.000000 -243.834549 -179.921265 0.000000 -244.460205 -184.673645 0.000000 -244.460205 -179.105881 0.000000 -245.275589 -185.299316 0.000000 -245.275589 -178.480209 0.000000 -246.225128 -185.692627 0.000000 -246.225128 -178.086899 0.000000 -247.244095 -185.826767 0.000000 -247.244095 -177.952759 0.000000 -248.263062 -185.692627 0.000000 -248.263062 -178.086899 0.000000 -249.212601 -185.299316 0.000000 -249.212601 -178.480209 0.000000 -250.027985 -184.673645 0.000000 -250.027985 -179.105881 0.000000 -250.653641 -183.858261 0.000000 -250.653641 -179.921265 0.000000 -251.046951 -182.908737 0.000000 -251.046951 -180.870789 0.000000 -251.181107 -181.889771 0.000000 -243.441238 -52.200073 0.000000 -243.307083 -51.181103 0.000000 -243.441238 -50.162128 0.000000 -243.834549 -53.149605 0.000000 -243.834549 -49.212597 0.000000 -244.460205 -53.964989 0.000000 -244.460205 -48.397217 0.000000 -245.275589 -54.590652 0.000000 -245.275589 -47.771553 0.000000 -246.225128 -54.983959 0.000000 -246.225128 -47.378246 0.000000 -247.244095 -55.118111 0.000000 -247.244095 -47.244095 0.000000 -248.263062 -54.983959 0.000000 -248.263062 -47.378246 0.000000 -249.212601 -54.590652 0.000000 -249.212601 -47.771553 0.000000 -250.027985 -53.964989 0.000000 -250.027985 -48.397217 0.000000 -250.653641 -53.149605 0.000000 -250.653641 -49.212597 0.000000 -251.046951 -52.200073 0.000000 -251.046951 -50.162128 0.000000 -251.181107 -51.181103 0.000000 -243.441238 -117.554405 0.000000 -243.307083 -116.535431 0.000000 -243.441238 -115.516464 0.000000 -243.834549 -118.503937 0.000000 -243.834549 -114.566933 0.000000 -244.460205 -119.319321 0.000000 -244.460205 -113.751549 0.000000 -245.275589 -119.944984 0.000000 -245.275589 -113.125885 0.000000 -246.225128 -120.338287 0.000000 -246.225128 -112.732574 0.000000 -247.244095 -120.472443 0.000000 -247.244095 -112.598427 0.000000 -248.263062 -120.338287 0.000000 -248.263062 -112.732574 0.000000 -249.212601 -119.944984 0.000000 -249.212601 -113.125885 0.000000 -250.027985 -119.319321 0.000000 -250.027985 -113.751549 0.000000 -250.653641 -118.503937 0.000000 -250.653641 -114.566933 0.000000 -251.046951 -117.554405 0.000000 -251.046951 -115.516464 0.000000 -251.181107 -116.535431 0.000000 -243.441238 -299.444183 0.000000 -243.307083 -298.425201 0.000000 -243.441238 -297.406219 0.000000 -243.834549 -300.393707 0.000000 -243.834549 -296.456696 0.000000 -244.460205 -301.209076 0.000000 -244.460205 -295.641327 0.000000 -245.275589 -301.834747 0.000000 -245.275589 -295.015656 0.000000 -246.225128 -302.228058 0.000000 -246.225128 -294.622345 0.000000 -247.244095 -302.362213 0.000000 -247.244095 -294.488190 0.000000 -248.263062 -302.228058 0.000000 -248.263062 -294.622345 0.000000 -249.212601 -301.834747 0.000000 -249.212601 -295.015656 0.000000 -250.027985 -301.209076 0.000000 -250.027985 -295.641327 0.000000 -250.653641 -300.393707 0.000000 -250.653641 -296.456696 0.000000 -251.046951 -299.444183 0.000000 -251.046951 -297.406219 0.000000 -251.181107 -298.425201 0.000000 -243.441238 -248.263062 0.000000 -243.307083 -247.244095 0.000000 -243.441238 -246.225128 0.000000 -243.834549 -249.212601 0.000000 -243.834549 -245.275589 0.000000 -244.460205 -250.027985 0.000000 -244.460205 -244.460205 0.000000 -245.275589 -250.653641 0.000000 -245.275589 -243.834549 0.000000 -246.225128 -251.046951 0.000000 -246.225128 -243.441238 0.000000 -247.244095 -251.181107 0.000000 -247.244095 -243.307083 0.000000 -248.263062 -251.046951 0.000000 -248.263062 -243.441238 0.000000 -249.212601 -250.653641 0.000000 -249.212601 -243.834549 0.000000 -250.027985 -250.027985 0.000000 -250.027985 -244.460205 0.000000 -250.653641 -249.212601 0.000000 -250.653641 -245.275589 0.000000 -251.046951 -248.263062 0.000000 -251.046951 -246.225128 0.000000 -251.181107 -247.244095 0.000000 -126.905807 -299.444183 0.000000 -126.771652 -298.425201 0.000000 -126.905807 -297.406219 0.000000 -127.299110 -300.393707 0.000000 -127.299110 -296.456696 0.000000 -127.924774 -301.209076 0.000000 -127.924774 -295.641327 0.000000 -128.740158 -301.834747 0.000000 -128.740158 -295.015656 0.000000 -129.689682 -302.228058 0.000000 -129.689682 -294.622345 0.000000 -130.708664 -302.362213 0.000000 -130.708664 -294.488190 0.000000 -131.727631 -302.228058 0.000000 -131.727631 -294.622345 0.000000 -132.677170 -301.834747 0.000000 -132.677170 -295.015656 0.000000 -133.492554 -301.209076 0.000000 -133.492554 -295.641327 0.000000 -134.118210 -300.393707 0.000000 -134.118210 -296.456696 0.000000 -134.511520 -299.444183 0.000000 -134.511520 -297.406219 0.000000 -134.645676 -298.425201 0.000000 -192.260132 -299.444183 0.000000 -192.125992 -298.425201 0.000000 -192.260132 -297.406219 0.000000 -192.653442 -300.393707 0.000000 -192.653442 -296.456696 0.000000 -193.279114 -301.209076 0.000000 -193.279114 -295.641327 0.000000 -194.094482 -301.834747 0.000000 -194.094482 -295.015656 0.000000 -195.044022 -302.228058 0.000000 -195.044022 -294.622345 0.000000 -196.062988 -302.362213 0.000000 -196.062988 -294.488190 0.000000 -197.081970 -302.228058 0.000000 -197.081970 -294.622345 0.000000 -198.031494 -301.834747 0.000000 -198.031494 -295.015656 0.000000 -198.846878 -301.209076 0.000000 -198.846878 -295.641327 0.000000 -199.472534 -300.393707 0.000000 -199.472534 -296.456696 0.000000 -199.865845 -299.444183 0.000000 -199.865845 -297.406219 0.000000 -200.000000 -298.425201 0.000000 3.802858 -299.444183 0.000000 3.937008 -298.425201 0.000000 3.802858 -297.406219 0.000000 3.409549 -300.393707 0.000000 3.409549 -296.456696 0.000000 2.783885 -301.209076 0.000000 2.783885 -295.641327 0.000000 1.968504 -301.834747 0.000000 1.968504 -295.015656 0.000000 1.018973 -302.228058 0.000000 1.018973 -294.622345 0.000000 0.000000 -302.362213 0.000000 0.000000 -294.488190 0.000000 -1.018973 -302.228058 0.000000 -1.018973 -294.622345 0.000000 -1.968504 -301.834747 0.000000 -1.968504 -295.015656 0.000000 -2.783885 -301.209076 0.000000 -2.783885 -295.641327 0.000000 -3.409549 -300.393707 0.000000 -3.409549 -296.456696 0.000000 -3.802858 -299.444183 0.000000 -3.802858 -297.406219 0.000000 -3.937008 -298.425201 0.000000 -243.441238 -1.018973 0.000000 -243.307083 -0.000000 0.000000 -243.441238 1.018973 0.000000 -243.834549 -1.968504 0.000000 -243.834549 1.968504 0.000000 -244.460205 -2.783885 0.000000 -244.460205 2.783885 0.000000 -245.275589 -3.409549 0.000000 -245.275589 3.409549 0.000000 -246.225128 -3.802858 0.000000 -246.225128 3.802858 0.000000 -247.244095 -3.937008 0.000000 -247.244095 3.937008 0.000000 -248.263062 -3.802858 0.000000 -248.263062 3.802858 0.000000 -249.212601 -3.409549 0.000000 -249.212601 3.409549 0.000000 -250.027985 -2.783885 0.000000 -250.027985 2.783885 0.000000 -250.653641 -1.968504 0.000000 -250.653641 1.968504 0.000000 -251.046951 -1.018973 0.000000 -251.046951 1.018973 0.000000 -251.181107 -0.000000 0.000000 -192.260132 -1.018973 0.000000 -192.125992 -0.000000 0.000000 -192.260132 1.018973 0.000000 -192.653442 -1.968504 0.000000 -192.653442 1.968504 0.000000 -193.279114 -2.783885 0.000000 -193.279114 2.783885 0.000000 -194.094482 -3.409549 0.000000 -194.094482 3.409549 0.000000 -195.044022 -3.802858 0.000000 -195.044022 3.802858 0.000000 -196.062988 -3.937008 0.000000 -196.062988 3.937008 0.000000 -197.081970 -3.802858 0.000000 -197.081970 3.802858 0.000000 -198.031494 -3.409549 0.000000 -198.031494 3.409549 0.000000 -198.846878 -2.783885 0.000000 -198.846878 2.783885 0.000000 -199.472534 -1.968504 0.000000 -199.472534 1.968504 0.000000 -199.865845 -1.018973 0.000000 -199.865845 1.018973 0.000000 -200.000000 -0.000000 0.000000 -61.551472 -117.554405 0.000000 -61.417324 -116.535431 0.000000 -61.551472 -115.516464 0.000000 -61.944782 -118.503937 0.000000 -61.944782 -114.566933 0.000000 -62.570446 -119.319321 0.000000 -62.570446 -113.751549 0.000000 -63.385826 -119.944984 0.000000 -63.385826 -113.125885 0.000000 -64.335358 -120.338287 0.000000 -64.335358 -112.732574 0.000000 -65.354332 -120.472443 0.000000 -65.354332 -112.598427 0.000000 -66.373306 -120.338287 0.000000 -66.373306 -112.732574 0.000000 -67.322838 -119.944984 0.000000 -67.322838 -113.125885 0.000000 -68.138214 -119.319321 0.000000 -68.138214 -113.751549 0.000000 -68.763878 -118.503937 0.000000 -68.763878 -114.566933 0.000000 -69.157188 -117.554405 0.000000 -69.157188 -115.516464 0.000000 -69.291336 -116.535431 0.000000 -192.260132 -117.554405 0.000000 -192.125992 -116.535431 0.000000 -192.260132 -115.516464 0.000000 -192.653442 -118.503937 0.000000 -192.653442 -114.566933 0.000000 -193.279114 -119.319321 0.000000 -193.279114 -113.751549 0.000000 -194.094482 -119.944984 0.000000 -194.094482 -113.125885 0.000000 -195.044022 -120.338287 0.000000 -195.044022 -112.732574 0.000000 -196.062988 -120.472443 0.000000 -196.062988 -112.598427 0.000000 -197.081970 -120.338287 0.000000 -197.081970 -112.732574 0.000000 -198.031494 -119.944984 0.000000 -198.031494 -113.125885 0.000000 -198.846878 -119.319321 0.000000 -198.846878 -113.751549 0.000000 -199.472534 -118.503937 0.000000 -199.472534 -114.566933 0.000000 -199.865845 -117.554405 0.000000 -199.865845 -115.516464 0.000000 -200.000000 -116.535431 0.000000 3.802858 -117.554405 0.000000 3.937008 -116.535431 0.000000 3.802858 -115.516464 0.000000 3.409549 -118.503937 0.000000 3.409549 -114.566933 0.000000 2.783885 -119.319321 0.000000 2.783885 -113.751549 0.000000 1.968504 -119.944984 0.000000 1.968504 -113.125885 0.000000 1.018973 -120.338287 0.000000 1.018973 -112.732574 0.000000 0.000000 -120.472443 0.000000 0.000000 -112.598427 0.000000 -1.018973 -120.338287 0.000000 -1.018973 -112.732574 0.000000 -1.968504 -119.944984 0.000000 -1.968504 -113.125885 0.000000 -2.783885 -119.319321 0.000000 -2.783885 -113.751549 0.000000 -3.409549 -118.503937 0.000000 -3.409549 -114.566933 0.000000 -3.802858 -117.554405 0.000000 -3.802858 -115.516464 0.000000 -3.937008 -116.535431 0.000000 159.976669 -299.444183 0.000000 159.976669 -297.406219 0.000000 159.842514 -298.425201 0.000000 160.369980 -300.393707 0.000000 160.369980 -296.456696 0.000000 160.995636 -301.209076 0.000000 160.995636 -295.641327 0.000000 161.811020 -301.834747 0.000000 161.811020 -295.015656 0.000000 162.760559 -302.228058 0.000000 162.760559 -294.622345 0.000000 163.779526 -302.362213 0.000000 163.779526 -294.488190 0.000000 164.798508 -302.228058 0.000000 164.798508 -294.622345 0.000000 165.748032 -301.834747 0.000000 165.748032 -295.015656 0.000000 166.563416 -301.209076 0.000000 166.563416 -295.641327 0.000000 167.189072 -300.393707 0.000000 167.189072 -296.456696 0.000000 167.582382 -299.444183 0.000000 167.582382 -297.406219 0.000000 167.716537 -298.425201 0.000000 "
							            />
						</IndexedFaceSet>
					</Shape>
				</Group>
			</Transform>
		</Transform>
	</Scene>
</X3D>