<?xml version="1.0" encoding="UTF-8"?>
<!DOCTYPE X3D PUBLIC "ISO//Web3D//DTD X3D 3.0//EN" "http://www.web3d.org/specifications/x3d-3.0.dtd">
<X3D version="3.0" profile="Immersive" xmlns:xsd="http://www.w3.org/2001/XMLSchema-instance" xsd:noNamespaceSchemaLocation="http://www.web3d.org/specifications/x3d-3.0.xsd">
	<head>
		<meta name="filename" content="29-1.x3d" />
		<meta name="created" content="2026-06-21 15:09:42" />
		<meta name="generator" content="Blender 4.5.4 LTS" />
		<meta name="translator" content="Web3D X3D/VRML2 format v2.5.1" />
	</head>
	<Scene>
		<NavigationInfo headlight="true"
		                visibilityLimit="0.0"
		                type='"EXAMINE", "ANY"'
		                avatarSize="0.25, 1.75, 0.75"
		                />
		<Background DEF="WO_World"
		            groundColor="0.051 0.051 0.051"
		            skyColor="0.051 0.051 0.051"
		            />
		<Transform DEF="_29-1_TRANSFORM"
		           translation="0.000000 0.000000 0.000000"
		           scale="1.000000 1.000000 1.000000"
		           rotation="0.000000 0.707107 0.707107 3.141593"
		           >
			<Transform DEF="_29-1_ifs_TRANSFORM"
			           translation="0.000000 0.000000 0.000000"
			           scale="1.000000 1.000000 1.000000"
			           rotation="0.000000 1.000000 0.000000 0.000000"
			           >
				<Group DEF="group_ME_29-1_001">
					<Shape>
						<Appearance>
						</Appearance>
						<IndexedFaceSet solid="false"
						                coordIndex="0 1 2 -1 1 0 3 -1 0 4 5 -1 4 0 2 -1 6 4 7 -1 4 6 5 -1 1 6 7 -1 6 1 3 -1 1 4 2 -1 4 1 7 -1 6 0 5 -1 0 6 3 -1 8 9 10 -1 10 11 8 -1 10 12 11 -1 12 13 11 -1 12 14 13 -1 14 15 13 -1 14 16 15 -1 16 17 15 -1 16 18 17 -1 18 19 17 -1 18 20 19 -1 20 21 19 -1 20 22 21 -1 22 23 21 -1 22 24 23 -1 24 25 23 -1 24 26 25 -1 26 27 25 -1 26 28 27 -1 28 29 27 -1 28 30 29 -1 30 31 29 -1 32 33 34 -1 34 35 32 -1 34 36 35 -1 36 37 35 -1 36 38 37 -1 38 39 37 -1 38 40 39 -1 40 41 39 -1 40 42 41 -1 42 43 41 -1 42 44 43 -1 44 45 43 -1 44 46 45 -1 46 47 45 -1 46 48 47 -1 48 49 47 -1 48 50 49 -1 50 51 49 -1 50 52 51 -1 52 53 51 -1 52 54 53 -1 54 55 53 -1 56 57 58 -1 58 59 56 -1 58 60 59 -1 60 61 59 -1 60 62 61 -1 62 63 61 -1 62 64 63 -1 64 65 63 -1 64 66 65 -1 66 67 65 -1 66 68 67 -1 68 69 67 -1 68 70 69 -1 70 71 69 -1 70 72 71 -1 72 73 71 -1 72 74 73 -1 74 75 73 -1 74 76 75 -1 76 77 75 -1 76 78 77 -1 78 79 77 -1 80 81 82 -1 82 83 80 -1 82 84 83 -1 84 85 83 -1 84 86 85 -1 86 87 85 -1 86 88 87 -1 88 89 87 -1 88 90 89 -1 90 91 89 -1 90 92 91 -1 92 93 91 -1 92 94 93 -1 94 95 93 -1 94 96 95 -1 96 97 95 -1 96 98 97 -1 98 99 97 -1 98 100 99 -1 100 101 99 -1 100 102 101 -1 102 103 101 -1 104 105 106 -1 106 107 104 -1 106 108 107 -1 108 109 107 -1 108 110 109 -1 110 111 109 -1 110 112 111 -1 112 113 111 -1 112 114 113 -1 114 115 113 -1 114 116 115 -1 116 117 115 -1 116 118 117 -1 118 119 117 -1 118 120 119 -1 120 121 119 -1 120 122 121 -1 122 123 121 -1 122 124 123 -1 124 125 123 -1 124 126 125 -1 126 127 125 -1 128 129 130 -1 130 131 128 -1 130 132 131 -1 132 133 131 -1 132 134 133 -1 134 135 133 -1 134 136 135 -1 136 137 135 -1 136 138 137 -1 138 139 137 -1 138 140 139 -1 140 141 139 -1 140 142 141 -1 142 143 141 -1 142 144 143 -1 144 145 143 -1 144 146 145 -1 146 147 145 -1 146 148 147 -1 148 149 147 -1 148 150 149 -1 150 151 149 -1 152 153 154 -1 154 155 152 -1 154 156 155 -1 156 157 155 -1 156 158 157 -1 158 159 157 -1 158 160 159 -1 160 161 159 -1 160 162 161 -1 162 163 161 -1 162 164 163 -1 164 165 163 -1 164 166 165 -1 166 167 165 -1 166 168 167 -1 168 169 167 -1 168 170 169 -1 170 171 169 -1 170 172 171 -1 172 173 171 -1 172 174 173 -1 174 175 173 -1 176 177 178 -1 178 179 176 -1 178 180 179 -1 180 181 179 -1 180 182 181 -1 182 183 181 -1 182 184 183 -1 184 185 183 -1 184 186 185 -1 186 187 185 -1 186 188 187 -1 188 189 187 -1 188 190 189 -1 190 191 189 -1 190 192 191 -1 192 193 191 -1 192 194 193 -1 194 195 193 -1 194 196 195 -1 196 197 195 -1 196 198 197 -1 198 199 197 -1 200 201 202 -1 202 203 200 -1 202 204 203 -1 204 205 203 -1 204 206 205 -1 206 207 205 -1 206 208 207 -1 208 209 207 -1 208 210 209 -1 210 211 209 -1 210 212 211 -1 212 213 211 -1 212 214 213 -1 214 215 213 -1 214 216 215 -1 216 217 215 -1 216 218 217 -1 218 219 217 -1 218 220 219 -1 220 221 219 -1 220 222 221 -1 222 223 221 -1 224 225 226 -1 226 227 224 -1 226 228 227 -1 228 229 227 -1 228 230 229 -1 230 231 229 -1 230 232 231 -1 232 233 231 -1 232 234 233 -1 234 235 233 -1 234 236 235 -1 236 237 235 -1 236 238 237 -1 238 239 237 -1 238 240 239 -1 240 241 239 -1 240 242 241 -1 242 243 241 -1 242 244 243 -1 244 245 243 -1 244 246 245 -1 246 247 245 -1 248 249 250 -1 250 251 248 -1 250 252 251 -1 252 253 251 -1 252 254 253 -1 254 255 253 -1 254 256 255 -1 256 257 255 -1 256 258 257 -1 258 259 257 -1 258 260 259 -1 260 261 259 -1 260 262 261 -1 262 263 261 -1 262 264 263 -1 264 265 263 -1 264 266 265 -1 266 267 265 -1 266 268 267 -1 268 269 267 -1 268 270 269 -1 270 271 269 -1 272 273 274 -1 274 275 272 -1 274 276 275 -1 276 277 275 -1 276 278 277 -1 278 279 277 -1 278 280 279 -1 280 281 279 -1 280 282 281 -1 282 283 281 -1 282 284 283 -1 284 285 283 -1 284 286 285 -1 286 287 285 -1 286 288 287 -1 288 289 287 -1 288 290 289 -1 290 291 289 -1 290 292 291 -1 292 293 291 -1 292 294 293 -1 294 295 293 -1 296 297 298 -1 298 299 296 -1 298 300 299 -1 300 301 299 -1 300 302 301 -1 302 303 301 -1 302 304 303 -1 304 305 303 -1 304 306 305 -1 306 307 305 -1 306 308 307 -1 308 309 307 -1 308 310 309 -1 310 311 309 -1 310 312 311 -1 312 313 311 -1 312 314 313 -1 314 315 313 -1 314 316 315 -1 316 317 315 -1 316 318 317 -1 318 319 317 -1 320 321 322 -1 322 323 320 -1 322 324 323 -1 324 325 323 -1 324 326 325 -1 326 327 325 -1 326 328 327 -1 328 329 327 -1 328 330 329 -1 330 331 329 -1 330 332 331 -1 332 333 331 -1 332 334 333 -1 334 335 333 -1 334 336 335 -1 336 337 335 -1 336 338 337 -1 338 339 337 -1 338 340 339 -1 340 341 339 -1 340 342 341 -1 342 343 341 -1 344 345 346 -1 346 347 344 -1 346 348 347 -1 348 349 347 -1 348 350 349 -1 350 351 349 -1 350 352 351 -1 352 353 351 -1 352 354 353 -1 354 355 353 -1 354 356 355 -1 356 357 355 -1 356 358 357 -1 358 359 357 -1 358 360 359 -1 360 361 359 -1 360 362 361 -1 362 363 361 -1 362 364 363 -1 364 365 363 -1 364 366 365 -1 366 367 365 -1 368 369 370 -1 370 371 368 -1 370 372 371 -1 372 373 371 -1 372 374 373 -1 374 375 373 -1 374 376 375 -1 376 377 375 -1 376 378 377 -1 378 379 377 -1 378 380 379 -1 380 381 379 -1 380 382 381 -1 382 383 381 -1 382 384 383 -1 384 385 383 -1 384 386 385 -1 386 387 385 -1 386 388 387 -1 388 389 387 -1 388 390 389 -1 390 391 389 -1 392 393 394 -1 394 395 392 -1 394 396 395 -1 396 397 395 -1 396 398 397 -1 398 399 397 -1 398 400 399 -1 400 401 399 -1 400 402 401 -1 402 403 401 -1 402 404 403 -1 404 405 403 -1 404 406 405 -1 406 407 405 -1 406 408 407 -1 408 409 407 -1 408 410 409 -1 410 411 409 -1 410 412 411 -1 412 413 411 -1 412 414 413 -1 414 415 413 -1 416 417 418 -1 418 419 416 -1 418 420 419 -1 420 421 419 -1 420 422 421 -1 422 423 421 -1 422 424 423 -1 424 425 423 -1 424 426 425 -1 426 427 425 -1 426 428 427 -1 428 429 427 -1 428 430 429 -1 430 431 429 -1 430 432 431 -1 432 433 431 -1 432 434 433 -1 434 435 433 -1 434 436 435 -1 436 437 435 -1 436 438 437 -1 438 439 437 -1 440 441 442 -1 442 443 440 -1 442 444 443 -1 444 445 443 -1 444 446 445 -1 446 447 445 -1 446 448 447 -1 448 449 447 -1 448 450 449 -1 450 451 449 -1 450 452 451 -1 452 453 451 -1 452 454 453 -1 454 455 453 -1 454 456 455 -1 456 457 455 -1 456 458 457 -1 458 459 457 -1 458 460 459 -1 460 461 459 -1 460 462 461 -1 462 463 461 -1 464 465 466 -1 466 467 464 -1 466 468 467 -1 468 469 467 -1 468 470 469 -1 470 471 469 -1 470 472 471 -1 472 473 471 -1 472 474 473 -1 474 475 473 -1 474 476 475 -1 476 477 475 -1 476 478 477 -1 478 479 477 -1 478 480 479 -1 480 481 479 -1 480 482 481 -1 482 483 481 -1 482 484 483 -1 484 485 483 -1 484 486 485 -1 486 487 485 -1 488 489 490 -1 490 491 488 -1 490 492 491 -1 492 493 491 -1 492 494 493 -1 494 495 493 -1 494 496 495 -1 496 497 495 -1 496 498 497 -1 498 499 497 -1 498 500 499 -1 500 501 499 -1 500 502 501 -1 502 503 501 -1 502 504 503 -1 504 505 503 -1 504 506 505 -1 506 507 505 -1 506 508 507 -1 508 509 507 -1 508 510 509 -1 510 511 509 -1 512 513 514 -1 514 515 512 -1 514 516 515 -1 516 517 515 -1 516 518 517 -1 518 519 517 -1 518 520 519 -1 520 521 519 -1 520 522 521 -1 522 523 521 -1 522 524 523 -1 524 525 523 -1 524 526 525 -1 526 527 525 -1 526 528 527 -1 528 529 527 -1 528 530 529 -1 530 531 529 -1 530 532 531 -1 532 533 531 -1 532 534 533 -1 534 535 533 -1 536 537 538 -1 538 539 536 -1 538 540 539 -1 540 541 539 -1 540 542 541 -1 542 543 541 -1 542 544 543 -1 544 545 543 -1 544 546 545 -1 546 547 545 -1 546 548 547 -1 548 549 547 -1 548 550 549 -1 550 551 549 -1 550 552 551 -1 552 553 551 -1 552 554 553 -1 554 555 553 -1 554 556 555 -1 556 557 555 -1 556 558 557 -1 558 559 557 -1 560 561 562 -1 562 563 560 -1 562 564 563 -1 564 565 563 -1 564 566 565 -1 566 567 565 -1 566 568 567 -1 568 569 567 -1 568 570 569 -1 570 571 569 -1 570 572 571 -1 572 573 571 -1 572 574 573 -1 574 575 573 -1 574 576 575 -1 576 577 575 -1 576 578 577 -1 578 579 577 -1 578 580 579 -1 580 581 579 -1 580 582 581 -1 582 583 581 -1 584 585 586 -1 586 587 584 -1 586 588 587 -1 588 589 587 -1 588 590 589 -1 590 591 589 -1 590 592 591 -1 592 593 591 -1 592 594 593 -1 594 595 593 -1 594 596 595 -1 596 597 595 -1 596 598 597 -1 598 599 597 -1 598 600 599 -1 600 601 599 -1 600 602 601 -1 602 603 601 -1 602 604 603 -1 604 605 603 -1 604 606 605 -1 606 607 605 -1 608 609 610 -1 610 611 608 -1 610 612 611 -1 612 613 611 -1 612 614 613 -1 614 615 613 -1 614 616 615 -1 616 617 615 -1 616 618 617 -1 618 619 617 -1 618 620 619 -1 620 621 619 -1 620 622 621 -1 622 623 621 -1 622 624 623 -1 624 625 623 -1 624 626 625 -1 626 627 625 -1 626 628 627 -1 628 629 627 -1 628 630 629 -1 630 631 629 -1 632 633 634 -1 634 635 632 -1 634 636 635 -1 636 637 635 -1 636 638 637 -1 638 639 637 -1 638 640 639 -1 640 641 639 -1 640 642 641 -1 642 643 641 -1 642 644 643 -1 644 645 643 -1 644 646 645 -1 646 647 645 -1 646 648 647 -1 648 649 647 -1 648 650 649 -1 650 651 649 -1 650 652 651 -1 652 653 651 -1 652 654 653 -1 654 655 653 -1 656 657 658 -1 658 659 656 -1 658 660 659 -1 660 661 659 -1 660 662 661 -1 662 663 661 -1 662 664 663 -1 664 665 663 -1 664 666 665 -1 666 667 665 -1 666 668 667 -1 668 669 667 -1 668 670 669 -1 670 671 669 -1 670 672 671 -1 672 673 671 -1 672 674 673 -1 674 675 673 -1 674 676 675 -1 676 677 675 -1 676 678 677 -1 678 679 677 -1 680 681 682 -1 681 680 683 -1 681 683 684 -1 684 683 685 -1 684 685 686 -1 686 685 687 -1 686 687 688 -1 688 687 689 -1 688 689 690 -1 690 689 691 -1 690 691 692 -1 692 691 693 -1 692 693 694 -1 694 693 695 -1 694 695 696 -1 696 695 697 -1 696 697 698 -1 698 697 699 -1 698 699 700 -1 700 699 701 -1 700 701 702 -1 702 701 703 -1 704 705 706 -1 705 704 707 -1 705 707 708 -1 708 707 709 -1 708 709 710 -1 710 709 711 -1 710 711 712 -1 712 711 713 -1 712 713 714 -1 714 713 715 -1 714 715 716 -1 716 715 717 -1 716 717 718 -1 718 717 719 -1 718 719 720 -1 720 719 721 -1 720 721 722 -1 722 721 723 -1 722 723 724 -1 724 723 725 -1 724 725 726 -1 726 725 727 -1 728 729 730 -1 729 728 731 -1 729 731 732 -1 732 731 733 -1 732 733 734 -1 734 733 735 -1 734 735 736 -1 736 735 737 -1 736 737 738 -1 738 737 739 -1 738 739 740 -1 740 739 741 -1 740 741 742 -1 742 741 743 -1 742 743 744 -1 744 743 745 -1 744 745 746 -1 746 745 747 -1 746 747 748 -1 748 747 749 -1 748 749 750 -1 750 749 751 -1 752 753 754 -1 753 752 755 -1 753 755 756 -1 756 755 757 -1 756 757 758 -1 758 757 759 -1 758 759 760 -1 760 759 761 -1 760 761 762 -1 762 761 763 -1 762 763 764 -1 764 763 765 -1 764 765 766 -1 766 765 767 -1 766 767 768 -1 768 767 769 -1 768 769 770 -1 770 769 771 -1 770 771 772 -1 772 771 773 -1 772 773 774 -1 774 773 775 -1 776 777 778 -1 777 776 779 -1 777 779 780 -1 780 779 781 -1 780 781 782 -1 782 781 783 -1 782 783 784 -1 784 783 785 -1 784 785 786 -1 786 785 787 -1 786 787 788 -1 788 787 789 -1 788 789 790 -1 790 789 791 -1 790 791 792 -1 792 791 793 -1 792 793 794 -1 794 793 795 -1 794 795 796 -1 796 795 797 -1 796 797 798 -1 798 797 799 -1 800 801 802 -1 801 800 803 -1 801 803 804 -1 804 803 805 -1 804 805 806 -1 806 805 807 -1 806 807 808 -1 808 807 809 -1 808 809 810 -1 810 809 811 -1 810 811 812 -1 812 811 813 -1 812 813 814 -1 814 813 815 -1 814 815 816 -1 816 815 817 -1 816 817 818 -1 818 817 819 -1 818 819 820 -1 820 819 821 -1 820 821 822 -1 822 821 823 -1 824 825 826 -1 825 824 827 -1 825 827 828 -1 828 827 829 -1 828 829 830 -1 830 829 831 -1 830 831 832 -1 832 831 833 -1 832 833 834 -1 834 833 835 -1 834 835 836 -1 836 835 837 -1 836 837 838 -1 838 837 839 -1 838 839 840 -1 840 839 841 -1 840 841 842 -1 842 841 843 -1 842 843 844 -1 844 843 845 -1 844 845 846 -1 846 845 847 -1 848 849 850 -1 849 848 851 -1 849 851 852 -1 852 851 853 -1 852 853 854 -1 854 853 855 -1 854 855 856 -1 856 855 857 -1 856 857 858 -1 858 857 859 -1 858 859 860 -1 860 859 861 -1 860 861 862 -1 862 861 863 -1 862 863 864 -1 864 863 865 -1 864 865 866 -1 866 865 867 -1 866 867 868 -1 868 867 869 -1 868 869 870 -1 870 869 871 -1 872 873 874 -1 873 872 875 -1 873 875 876 -1 876 875 877 -1 876 877 878 -1 878 877 879 -1 878 879 880 -1 880 879 881 -1 880 881 882 -1 882 881 883 -1 882 883 884 -1 884 883 885 -1 884 885 886 -1 886 885 887 -1 886 887 888 -1 888 887 889 -1 888 889 890 -1 890 889 891 -1 890 891 892 -1 892 891 893 -1 892 893 894 -1 894 893 895 -1 896 897 898 -1 897 896 899 -1 897 899 900 -1 900 899 901 -1 900 901 902 -1 902 901 903 -1 902 903 904 -1 904 903 905 -1 904 905 906 -1 906 905 907 -1 906 907 908 -1 908 907 909 -1 908 909 910 -1 910 909 911 -1 910 911 912 -1 912 911 913 -1 912 913 914 -1 914 913 915 -1 914 915 916 -1 916 915 917 -1 916 917 918 -1 918 917 919 -1 "
						                >
							<Coordinate DEF="coords_ME_29-1_001"
							            point="-240.944885 3.937008 0.000000 339.580322 3.937008 -3.937008 -240.944885 3.937008 -3.937008 339.580322 3.937008 0.000000 -240.944885 -215.479736 -3.937008 -240.944885 -215.479736 0.000000 339.580322 -215.479736 0.000000 339.580322 -215.479736 -3.937008 343.307098 -41.176453 0.000000 343.441223 -40.157482 0.000000 343.307098 -39.138508 0.000000 342.913788 -42.125984 0.000000 342.913788 -38.188976 0.000000 342.288116 -42.941364 0.000000 342.288116 -37.373596 0.000000 341.472748 -43.567028 0.000000 341.472748 -36.747932 0.000000 340.523193 -43.960339 0.000000 340.523193 -36.354622 0.000000 339.504242 -44.094490 0.000000 339.504242 -36.220474 0.000000 338.485260 -43.960339 0.000000 338.485260 -36.354622 0.000000 337.535736 -43.567028 0.000000 337.535736 -36.747932 0.000000 336.720337 -42.941364 0.000000 336.720337 -37.373596 0.000000 336.094666 -42.125984 0.000000 336.094666 -38.188976 0.000000 335.701385 -41.176453 0.000000 335.701385 -39.138508 0.000000 335.567230 -40.157482 0.000000 167.844849 -41.176453 0.000000 167.979004 -40.157482 0.000000 167.844849 -39.138508 0.000000 167.451538 -42.125984 0.000000 167.451538 -38.188976 0.000000 166.825882 -42.941364 0.000000 166.825882 -37.373596 0.000000 166.010498 -43.567028 0.000000 166.010498 -36.747932 0.000000 165.060974 -43.960339 0.000000 165.060974 -36.354622 0.000000 164.041992 -44.094490 0.000000 164.041992 -36.220474 0.000000 163.023026 -43.960339 0.000000 163.023026 -36.354622 0.000000 162.073486 -43.567028 0.000000 162.073486 -36.747932 0.000000 161.258102 -42.941364 0.000000 161.258102 -37.373596 0.000000 160.632446 -42.125984 0.000000 160.632446 -38.188976 0.000000 160.239136 -41.176453 0.000000 160.239136 -39.138508 0.000000 160.104980 -40.157482 0.000000 -61.813942 -41.176453 0.000000 -61.679790 -40.157482 0.000000 -61.813942 -39.138508 0.000000 -62.207249 -42.125984 0.000000 -62.207249 -38.188976 0.000000 -62.832912 -42.941364 0.000000 -62.832912 -37.373596 0.000000 -63.648293 -43.567028 0.000000 -63.648293 -36.747932 0.000000 -64.597824 -43.960339 0.000000 -64.597824 -36.354622 0.000000 -65.616798 -44.094490 0.000000 -65.616798 -36.220474 0.000000 -66.635773 -43.960339 0.000000 -66.635773 -36.354622 0.000000 -67.585304 -43.567028 0.000000 -67.585304 -36.747932 0.000000 -68.400681 -42.941364 0.000000 -68.400681 -37.373596 0.000000 -69.026344 -42.125984 0.000000 -69.026344 -38.188976 0.000000 -69.419655 -41.176453 0.000000 -69.419655 -39.138508 0.000000 -69.553802 -40.157482 0.000000 -237.142029 -41.176453 0.000000 -237.007874 -40.157482 0.000000 -237.142029 -39.138508 0.000000 -237.535339 -42.125984 0.000000 -237.535339 -38.188976 0.000000 -238.160995 -42.941364 0.000000 -238.160995 -37.373596 0.000000 -238.976379 -43.567028 0.000000 -238.976379 -36.747932 0.000000 -239.925903 -43.960339 0.000000 -239.925903 -36.354622 0.000000 -240.944885 -44.094490 0.000000 -240.944885 -36.220474 0.000000 -241.963852 -43.960339 0.000000 -241.963852 -36.354622 0.000000 -242.913391 -43.567028 0.000000 -242.913391 -36.747932 0.000000 -243.728760 -42.941364 0.000000 -243.728760 -37.373596 0.000000 -244.354431 -42.125984 0.000000 -244.354431 -38.188976 0.000000 -244.747742 -41.176453 0.000000 -244.747742 -39.138508 0.000000 -244.881897 -40.157482 0.000000 343.307098 2.918035 0.000000 343.441223 3.937008 0.000000 343.307098 4.955980 0.000000 342.913788 1.968504 0.000000 342.913788 5.905512 0.000000 342.288116 1.153123 0.000000 342.288116 6.720893 0.000000 341.472748 0.527459 0.000000 341.472748 7.346557 0.000000 340.523193 0.134150 0.000000 340.523193 7.739865 0.000000 339.504242 0.000000 0.000000 339.504242 7.874016 0.000000 338.485260 0.134150 0.000000 338.485260 7.739865 0.000000 337.535736 0.527459 0.000000 337.535736 7.346557 0.000000 336.720337 1.153123 0.000000 336.720337 6.720893 0.000000 336.094666 1.968504 0.000000 336.094666 5.905512 0.000000 335.701385 2.918035 0.000000 335.701385 4.955980 0.000000 335.567230 3.937008 0.000000 299.078461 2.918035 0.000000 299.212585 3.937008 0.000000 299.078461 4.955980 0.000000 298.685150 1.968504 0.000000 298.685150 5.905512 0.000000 298.059479 1.153123 0.000000 298.059479 6.720893 0.000000 297.244080 0.527459 0.000000 297.244080 7.346557 0.000000 296.294556 0.134150 0.000000 296.294556 7.739865 0.000000 295.275604 0.000000 0.000000 295.275604 7.874016 0.000000 294.256622 0.134150 0.000000 294.256622 7.739865 0.000000 293.307098 0.527459 0.000000 293.307098 7.346557 0.000000 292.491699 1.153123 0.000000 292.491699 6.720893 0.000000 291.866028 1.968504 0.000000 291.866028 5.905512 0.000000 291.472748 2.918035 0.000000 291.472748 4.955980 0.000000 291.338593 3.937008 0.000000 -237.142029 -172.538361 0.000000 -237.007874 -171.519394 0.000000 -237.142029 -170.500427 0.000000 -237.535339 -173.487900 0.000000 -237.535339 -169.550888 0.000000 -238.160995 -174.303284 0.000000 -238.160995 -168.735504 0.000000 -238.976379 -174.928940 0.000000 -238.976379 -168.109848 0.000000 -239.925903 -175.322250 0.000000 -239.925903 -167.716537 0.000000 -240.944885 -175.456406 0.000000 -240.944885 -167.582382 0.000000 -241.963852 -175.322250 0.000000 -241.963852 -167.716537 0.000000 -242.913391 -174.928940 0.000000 -242.913391 -168.109848 0.000000 -243.728760 -174.303284 0.000000 -243.728760 -168.735504 0.000000 -244.354431 -173.487900 0.000000 -244.354431 -169.550888 0.000000 -244.747742 -172.538361 0.000000 -244.747742 -170.500427 0.000000 -244.881897 -171.519394 0.000000 343.307098 -172.538361 0.000000 343.441223 -171.519394 0.000000 343.307098 -170.500427 0.000000 342.913788 -173.487900 0.000000 342.913788 -169.550888 0.000000 342.288116 -174.303284 0.000000 342.288116 -168.735504 0.000000 341.472748 -174.928940 0.000000 341.472748 -168.109848 0.000000 340.523193 -175.322250 0.000000 340.523193 -167.716537 0.000000 339.504242 -175.456406 0.000000 339.504242 -167.582382 0.000000 338.485260 -175.322250 0.000000 338.485260 -167.716537 0.000000 337.535736 -174.928940 0.000000 337.535736 -168.109848 0.000000 336.720337 -174.303284 0.000000 336.720337 -168.735504 0.000000 336.094666 -173.487900 0.000000 336.094666 -169.550888 0.000000 335.701385 -172.538361 0.000000 335.701385 -170.500427 0.000000 335.567230 -171.519394 0.000000 -61.813942 -172.538361 0.000000 -61.679790 -171.519394 0.000000 -61.813942 -170.500427 0.000000 -62.207249 -173.487900 0.000000 -62.207249 -169.550888 0.000000 -62.832912 -174.303284 0.000000 -62.832912 -168.735504 0.000000 -63.648293 -174.928940 0.000000 -63.648293 -168.109848 0.000000 -64.597824 -175.322250 0.000000 -64.597824 -167.716537 0.000000 -65.616798 -175.456406 0.000000 -65.616798 -167.582382 0.000000 -66.635773 -175.322250 0.000000 -66.635773 -167.716537 0.000000 -67.585304 -174.928940 0.000000 -67.585304 -168.109848 0.000000 -68.400681 -174.303284 0.000000 -68.400681 -168.735504 0.000000 -69.026344 -173.487900 0.000000 -69.026344 -169.550888 0.000000 -69.419655 -172.538361 0.000000 -69.419655 -170.500427 0.000000 -69.553802 -171.519394 0.000000 167.844849 -172.538361 0.000000 167.979004 -171.519394 0.000000 167.844849 -170.500427 0.000000 167.451538 -173.487900 0.000000 167.451538 -169.550888 0.000000 166.825882 -174.303284 0.000000 166.825882 -168.735504 0.000000 166.010498 -174.928940 0.000000 166.010498 -168.109848 0.000000 165.060974 -175.322250 0.000000 165.060974 -167.716537 0.000000 164.041992 -175.456406 0.000000 164.041992 -167.582382 0.000000 163.023026 -175.322250 0.000000 163.023026 -167.716537 0.000000 162.073486 -174.928940 0.000000 162.073486 -168.109848 0.000000 161.258102 -174.303284 0.000000 161.258102 -168.735504 0.000000 160.632446 -173.487900 0.000000 160.632446 -169.550888 0.000000 160.239136 -172.538361 0.000000 160.239136 -170.500427 0.000000 160.104980 -171.519394 0.000000 3.802858 2.918035 0.000000 3.937008 3.937008 0.000000 3.802858 4.955980 0.000000 3.409549 1.968504 0.000000 3.409549 5.905512 0.000000 2.783885 1.153123 0.000000 2.783885 6.720893 0.000000 1.968504 0.527459 0.000000 1.968504 7.346557 0.000000 1.018973 0.134150 0.000000 1.018973 7.739865 0.000000 0.000000 0.000000 0.000000 0.000000 7.874016 0.000000 -1.018973 0.134150 0.000000 -1.018973 7.739865 0.000000 -1.968504 0.527459 0.000000 -1.968504 7.346557 0.000000 -2.783885 1.153123 0.000000 -2.783885 6.720893 0.000000 -3.409549 1.968504 0.000000 -3.409549 5.905512 0.000000 -3.802858 2.918035 0.000000 -3.802858 4.955980 0.000000 -3.937008 3.937008 0.000000 167.844849 2.918035 0.000000 167.979004 3.937008 0.000000 167.844849 4.955980 0.000000 167.451538 1.968504 0.000000 167.451538 5.905512 0.000000 166.825882 1.153123 0.000000 166.825882 6.720893 0.000000 166.010498 0.527459 0.000000 166.010498 7.346557 0.000000 165.060974 0.134150 0.000000 165.060974 7.739865 0.000000 164.041992 0.000000 0.000000 164.041992 7.874016 0.000000 163.023026 0.134150 0.000000 163.023026 7.739865 0.000000 162.073486 0.527459 0.000000 162.073486 7.346557 0.000000 161.258102 1.153123 0.000000 161.258102 6.720893 0.000000 160.632446 1.968504 0.000000 160.632446 5.905512 0.000000 160.239136 2.918035 0.000000 160.239136 4.955980 0.000000 160.104980 3.937008 0.000000 233.461655 2.918035 0.000000 233.595795 3.937008 0.000000 233.461655 4.955980 0.000000 233.068344 1.968504 0.000000 233.068344 5.905512 0.000000 232.442673 1.153123 0.000000 232.442673 6.720893 0.000000 231.627304 0.527459 0.000000 231.627304 7.346557 0.000000 230.677765 0.134150 0.000000 230.677765 7.739865 0.000000 229.658798 0.000000 0.000000 229.658798 7.874016 0.000000 228.639816 0.134150 0.000000 228.639816 7.739865 0.000000 227.690292 0.527459 0.000000 227.690292 7.346557 0.000000 226.874908 1.153123 0.000000 226.874908 6.720893 0.000000 226.249237 1.968504 0.000000 226.249237 5.905512 0.000000 225.855942 2.918035 0.000000 225.855942 4.955980 0.000000 225.721786 3.937008 0.000000 -237.142029 2.918035 0.000000 -237.007874 3.937008 0.000000 -237.142029 4.955980 0.000000 -237.535339 1.968504 0.000000 -237.535339 5.905512 0.000000 -238.160995 1.153123 0.000000 -238.160995 6.720893 0.000000 -238.976379 0.527459 0.000000 -238.976379 7.346557 0.000000 -239.925903 0.134150 0.000000 -239.925903 7.739865 0.000000 -240.944885 0.000000 0.000000 -240.944885 7.874016 0.000000 -241.963852 0.134150 0.000000 -241.963852 7.739865 0.000000 -242.913391 0.527459 0.000000 -242.913391 7.346557 0.000000 -243.728760 1.153123 0.000000 -243.728760 6.720893 0.000000 -244.354431 1.968504 0.000000 -244.354431 5.905512 0.000000 -244.747742 2.918035 0.000000 -244.747742 4.955980 0.000000 -244.881897 3.937008 0.000000 -193.047531 2.918035 0.000000 -192.913391 3.937008 0.000000 -193.047531 4.955980 0.000000 -193.440842 1.968504 0.000000 -193.440842 5.905512 0.000000 -194.066513 1.153123 0.000000 -194.066513 6.720893 0.000000 -194.881897 0.527459 0.000000 -194.881897 7.346557 0.000000 -195.831421 0.134150 0.000000 -195.831421 7.739865 0.000000 -196.850388 0.000000 0.000000 -196.850388 7.874016 0.000000 -197.869370 0.134150 0.000000 -197.869370 7.739865 0.000000 -198.818893 0.527459 0.000000 -198.818893 7.346557 0.000000 -199.634277 1.153123 0.000000 -199.634277 6.720893 0.000000 -200.259949 1.968504 0.000000 -200.259949 5.905512 0.000000 -200.653244 2.918035 0.000000 -200.653244 4.955980 0.000000 -200.787399 3.937008 0.000000 -127.430740 2.918035 0.000000 -127.296585 3.937008 0.000000 -127.430740 4.955980 0.000000 -127.824043 1.968504 0.000000 -127.824043 5.905512 0.000000 -128.449707 1.153123 0.000000 -128.449707 6.720893 0.000000 -129.265091 0.527459 0.000000 -129.265091 7.346557 0.000000 -130.214630 0.134150 0.000000 -130.214630 7.739865 0.000000 -131.233597 0.000000 0.000000 -131.233597 7.874016 0.000000 -132.252563 0.134150 0.000000 -132.252563 7.739865 0.000000 -133.202103 0.527459 0.000000 -133.202103 7.346557 0.000000 -134.017487 1.153123 0.000000 -134.017487 6.720893 0.000000 -134.643143 1.968504 0.000000 -134.643143 5.905512 0.000000 -135.036453 2.918035 0.000000 -135.036453 4.955980 0.000000 -135.170609 3.937008 0.000000 -61.813942 2.918035 0.000000 -61.679790 3.937008 0.000000 -61.813942 4.955980 0.000000 -62.207249 1.968504 0.000000 -62.207249 5.905512 0.000000 -62.832912 1.153123 0.000000 -62.832912 6.720893 0.000000 -63.648293 0.527459 0.000000 -63.648293 7.346557 0.000000 -64.597824 0.134150 0.000000 -64.597824 7.739865 0.000000 -65.616798 0.000000 0.000000 -65.616798 7.874016 0.000000 -66.635773 0.134150 0.000000 -66.635773 7.739865 0.000000 -67.585304 0.527459 0.000000 -67.585304 7.346557 0.000000 -68.400681 1.153123 0.000000 -68.400681 6.720893 0.000000 -69.026344 1.968504 0.000000 -69.026344 5.905512 0.000000 -69.419655 2.918035 0.000000 -69.419655 4.955980 0.000000 -69.553802 3.937008 0.000000 343.307098 -106.924484 0.000000 343.441223 -105.905510 0.000000 343.307098 -104.886536 0.000000 342.913788 -107.874016 0.000000 342.913788 -103.937004 0.000000 342.288116 -108.689400 0.000000 342.288116 -103.121628 0.000000 341.472748 -109.315063 0.000000 341.472748 -102.495964 0.000000 340.523193 -109.708366 0.000000 340.523193 -102.102654 0.000000 339.504242 -109.842522 0.000000 339.504242 -101.968506 0.000000 338.485260 -109.708366 0.000000 338.485260 -102.102654 0.000000 337.535736 -109.315063 0.000000 337.535736 -102.495964 0.000000 336.720337 -108.689400 0.000000 336.720337 -103.121628 0.000000 336.094666 -107.874016 0.000000 336.094666 -103.937004 0.000000 335.701385 -106.924484 0.000000 335.701385 -104.886536 0.000000 335.567230 -105.905510 0.000000 299.078461 -106.924484 0.000000 299.212585 -105.905510 0.000000 299.078461 -104.886536 0.000000 298.685150 -107.874016 0.000000 298.685150 -103.937004 0.000000 298.059479 -108.689400 0.000000 298.059479 -103.121628 0.000000 297.244080 -109.315063 0.000000 297.244080 -102.495964 0.000000 296.294556 -109.708366 0.000000 296.294556 -102.102654 0.000000 295.275604 -109.842522 0.000000 295.275604 -101.968506 0.000000 294.256622 -109.708366 0.000000 294.256622 -102.102654 0.000000 293.307098 -109.315063 0.000000 293.307098 -102.495964 0.000000 292.491699 -108.689400 0.000000 292.491699 -103.121628 0.000000 291.866028 -107.874016 0.000000 291.866028 -103.937004 0.000000 291.472748 -106.924484 0.000000 291.472748 -104.886536 0.000000 291.338593 -105.905510 0.000000 3.802858 -106.924484 0.000000 3.937008 -105.905510 0.000000 3.802858 -104.886536 0.000000 3.409549 -107.874016 0.000000 3.409549 -103.937004 0.000000 2.783885 -108.689400 0.000000 2.783885 -103.121628 0.000000 1.968504 -109.315063 0.000000 1.968504 -102.495964 0.000000 1.018973 -109.708366 0.000000 1.018973 -102.102654 0.000000 0.000000 -109.842522 0.000000 0.000000 -101.968506 0.000000 -1.018973 -109.708366 0.000000 -1.018973 -102.102654 0.000000 -1.968504 -109.315063 0.000000 -1.968504 -102.495964 0.000000 -2.783885 -108.689400 0.000000 -2.783885 -103.121628 0.000000 -3.409549 -107.874016 0.000000 -3.409549 -103.937004 0.000000 -3.802858 -106.924484 0.000000 -3.802858 -104.886536 0.000000 -3.937008 -105.905510 0.000000 167.844849 -106.924484 0.000000 167.979004 -105.905510 0.000000 167.844849 -104.886536 0.000000 167.451538 -107.874016 0.000000 167.451538 -103.937004 0.000000 166.825882 -108.689400 0.000000 166.825882 -103.121628 0.000000 166.010498 -109.315063 0.000000 166.010498 -102.495964 0.000000 165.060974 -109.708366 0.000000 165.060974 -102.102654 0.000000 164.041992 -109.842522 0.000000 164.041992 -101.968506 0.000000 163.023026 -109.708366 0.000000 163.023026 -102.102654 0.000000 162.073486 -109.315063 0.000000 162.073486 -102.495964 0.000000 161.258102 -108.689400 0.000000 161.258102 -103.121628 0.000000 160.632446 -107.874016 0.000000 160.632446 -103.937004 0.000000 160.239136 -106.924484 0.000000 160.239136 -104.886536 0.000000 160.104980 -105.905510 0.000000 233.461655 -106.924484 0.000000 233.595795 -105.905510 0.000000 233.461655 -104.886536 0.000000 233.068344 -107.874016 0.000000 233.068344 -103.937004 0.000000 232.442673 -108.689400 0.000000 232.442673 -103.121628 0.000000 231.627304 -109.315063 0.000000 231.627304 -102.495964 0.000000 230.677765 -109.708366 0.000000 230.677765 -102.102654 0.000000 229.658798 -109.842522 0.000000 229.658798 -101.968506 0.000000 228.639816 -109.708366 0.000000 228.639816 -102.102654 0.000000 227.690292 -109.315063 0.000000 227.690292 -102.495964 0.000000 226.874908 -108.689400 0.000000 226.874908 -103.121628 0.000000 226.249237 -107.874016 0.000000 226.249237 -103.937004 0.000000 225.855942 -106.924484 0.000000 225.855942 -104.886536 0.000000 225.721786 -105.905510 0.000000 -193.047531 -106.924484 0.000000 -192.913391 -105.905510 0.000000 -193.047531 -104.886536 0.000000 -193.440842 -107.874016 0.000000 -193.440842 -103.937004 0.000000 -194.066513 -108.689400 0.000000 -194.066513 -103.121628 0.000000 -194.881897 -109.315063 0.000000 -194.881897 -102.495964 0.000000 -195.831421 -109.708366 0.000000 -195.831421 -102.102654 0.000000 -196.850388 -109.842522 0.000000 -196.850388 -101.968506 0.000000 -197.869370 -109.708366 0.000000 -197.869370 -102.102654 0.000000 -198.818893 -109.315063 0.000000 -198.818893 -102.495964 0.000000 -199.634277 -108.689400 0.000000 -199.634277 -103.121628 0.000000 -200.259949 -107.874016 0.000000 -200.259949 -103.937004 0.000000 -200.653244 -106.924484 0.000000 -200.653244 -104.886536 0.000000 -200.787399 -105.905510 0.000000 -127.430740 -106.924484 0.000000 -127.296585 -105.905510 0.000000 -127.430740 -104.886536 0.000000 -127.824043 -107.874016 0.000000 -127.824043 -103.937004 0.000000 -128.449707 -108.689400 0.000000 -128.449707 -103.121628 0.000000 -129.265091 -109.315063 0.000000 -129.265091 -102.495964 0.000000 -130.214630 -109.708366 0.000000 -130.214630 -102.102654 0.000000 -131.233597 -109.842522 0.000000 -131.233597 -101.968506 0.000000 -132.252563 -109.708366 0.000000 -132.252563 -102.102654 0.000000 -133.202103 -109.315063 0.000000 -133.202103 -102.495964 0.000000 -134.017487 -108.689400 0.000000 -134.017487 -103.121628 0.000000 -134.643143 -107.874016 0.000000 -134.643143 -103.937004 0.000000 -135.036453 -106.924484 0.000000 -135.036453 -104.886536 0.000000 -135.170609 -105.905510 0.000000 -61.813942 -106.924484 0.000000 -61.679790 -105.905510 0.000000 -61.813942 -104.886536 0.000000 -62.207249 -107.874016 0.000000 -62.207249 -103.937004 0.000000 -62.832912 -108.689400 0.000000 -62.832912 -103.121628 0.000000 -63.648293 -109.315063 0.000000 -63.648293 -102.495964 0.000000 -64.597824 -109.708366 0.000000 -64.597824 -102.102654 0.000000 -65.616798 -109.842522 0.000000 -65.616798 -101.968506 0.000000 -66.635773 -109.708366 0.000000 -66.635773 -102.102654 0.000000 -67.585304 -109.315063 0.000000 -67.585304 -102.495964 0.000000 -68.400681 -108.689400 0.000000 -68.400681 -103.121628 0.000000 -69.026344 -107.874016 0.000000 -69.026344 -103.937004 0.000000 -69.419655 -106.924484 0.000000 -69.419655 -104.886536 0.000000 -69.553802 -105.905510 0.000000 102.228058 -106.924484 0.000000 102.362206 -105.905510 0.000000 102.228058 -104.886536 0.000000 101.834747 -107.874016 0.000000 101.834747 -103.937004 0.000000 101.209084 -108.689400 0.000000 101.209084 -103.121628 0.000000 100.393700 -109.315063 0.000000 100.393700 -102.495964 0.000000 99.444168 -109.708366 0.000000 99.444168 -102.102654 0.000000 98.425194 -109.842522 0.000000 98.425194 -101.968506 0.000000 97.406227 -109.708366 0.000000 97.406227 -102.102654 0.000000 96.456696 -109.315063 0.000000 96.456696 -102.495964 0.000000 95.641312 -108.689400 0.000000 95.641312 -103.121628 0.000000 95.015648 -107.874016 0.000000 95.015648 -103.937004 0.000000 94.622337 -106.924484 0.000000 94.622337 -104.886536 0.000000 94.488190 -105.905510 0.000000 -237.142029 -106.924484 0.000000 -237.007874 -105.905510 0.000000 -237.142029 -104.886536 0.000000 -237.535339 -107.874016 0.000000 -237.535339 -103.937004 0.000000 -238.160995 -108.689400 0.000000 -238.160995 -103.121628 0.000000 -238.976379 -109.315063 0.000000 -238.976379 -102.495964 0.000000 -239.925903 -109.708366 0.000000 -239.925903 -102.102654 0.000000 -240.944885 -109.842522 0.000000 -240.944885 -101.968506 0.000000 -241.963852 -109.708366 0.000000 -241.963852 -102.102654 0.000000 -242.913391 -109.315063 0.000000 -242.913391 -102.495964 0.000000 -243.728760 -108.689400 0.000000 -243.728760 -103.121628 0.000000 -244.354431 -107.874016 0.000000 -244.354431 -103.937004 0.000000 -244.747742 -106.924484 0.000000 -244.747742 -104.886536 0.000000 -244.881897 -105.905510 0.000000 102.228058 2.918035 0.000000 102.362206 3.937008 0.000000 102.228058 4.955980 0.000000 101.834747 1.968504 0.000000 101.834747 5.905512 0.000000 101.209084 1.153123 0.000000 101.209084 6.720893 0.000000 100.393700 0.527459 0.000000 100.393700 7.346557 0.000000 99.444168 0.134150 0.000000 99.444168 7.739865 0.000000 98.425194 0.000000 0.000000 98.425194 7.874016 0.000000 97.406227 0.134150 0.000000 97.406227 7.739865 0.000000 96.456696 0.527459 0.000000 96.456696 7.346557 0.000000 95.641312 1.153123 0.000000 95.641312 6.720893 0.000000 95.015648 1.968504 0.000000 95.015648 5.905512 0.000000 94.622337 2.918035 0.000000 94.622337 4.955980 0.000000 94.488190 3.937008 0.000000 -61.813942 -214.460754 0.000000 -61.813942 -216.498703 0.000000 -61.679790 -215.479736 0.000000 -62.207249 -213.511230 0.000000 -62.207249 -217.448242 0.000000 -62.832912 -212.695847 0.000000 -62.832912 -218.263611 0.000000 -63.648293 -212.070175 0.000000 -63.648293 -218.889282 0.000000 -64.597824 -211.676880 0.000000 -64.597824 -219.282593 0.000000 -65.616798 -211.542725 0.000000 -65.616798 -219.416733 0.000000 -66.635773 -211.676880 0.000000 -66.635773 -219.282593 0.000000 -67.585304 -212.070175 0.000000 -67.585304 -218.889282 0.000000 -68.400681 -212.695847 0.000000 -68.400681 -218.263611 0.000000 -69.026344 -213.511230 0.000000 -69.026344 -217.448242 0.000000 -69.419655 -214.460754 0.000000 -69.419655 -216.498703 0.000000 -69.553802 -215.479736 0.000000 -127.430740 -214.460754 0.000000 -127.430740 -216.498703 0.000000 -127.296585 -215.479736 0.000000 -127.824043 -213.511230 0.000000 -127.824043 -217.448242 0.000000 -128.449707 -212.695847 0.000000 -128.449707 -218.263611 0.000000 -129.265091 -212.070175 0.000000 -129.265091 -218.889282 0.000000 -130.214630 -211.676880 0.000000 -130.214630 -219.282593 0.000000 -131.233597 -211.542725 0.000000 -131.233597 -219.416733 0.000000 -132.252563 -211.676880 0.000000 -132.252563 -219.282593 0.000000 -133.202103 -212.070175 0.000000 -133.202103 -218.889282 0.000000 -134.017487 -212.695847 0.000000 -134.017487 -218.263611 0.000000 -134.643143 -213.511230 0.000000 -134.643143 -217.448242 0.000000 -135.036453 -214.460754 0.000000 -135.036453 -216.498703 0.000000 -135.170609 -215.479736 0.000000 -193.047531 -214.460754 0.000000 -193.047531 -216.498703 0.000000 -192.913391 -215.479736 0.000000 -193.440842 -213.511230 0.000000 -193.440842 -217.448242 0.000000 -194.066513 -212.695847 0.000000 -194.066513 -218.263611 0.000000 -194.881897 -212.070175 0.000000 -194.881897 -218.889282 0.000000 -195.831421 -211.676880 0.000000 -195.831421 -219.282593 0.000000 -196.850388 -211.542725 0.000000 -196.850388 -219.416733 0.000000 -197.869370 -211.676880 0.000000 -197.869370 -219.282593 0.000000 -198.818893 -212.070175 0.000000 -198.818893 -218.889282 0.000000 -199.634277 -212.695847 0.000000 -199.634277 -218.263611 0.000000 -200.259949 -213.511230 0.000000 -200.259949 -217.448242 0.000000 -200.653244 -214.460754 0.000000 -200.653244 -216.498703 0.000000 -200.787399 -215.479736 0.000000 -237.142029 -214.460754 0.000000 -237.142029 -216.498703 0.000000 -237.007874 -215.479736 0.000000 -237.535339 -213.511230 0.000000 -237.535339 -217.448242 0.000000 -238.160995 -212.695847 0.000000 -238.160995 -218.263611 0.000000 -238.976379 -212.070175 0.000000 -238.976379 -218.889282 0.000000 -239.925903 -211.676880 0.000000 -239.925903 -219.282593 0.000000 -240.944885 -211.542725 0.000000 -240.944885 -219.416733 0.000000 -241.963852 -211.676880 0.000000 -241.963852 -219.282593 0.000000 -242.913391 -212.070175 0.000000 -242.913391 -218.889282 0.000000 -243.728760 -212.695847 0.000000 -243.728760 -218.263611 0.000000 -244.354431 -213.511230 0.000000 -244.354431 -217.448242 0.000000 -244.747742 -214.460754 0.000000 -244.747742 -216.498703 0.000000 -244.881897 -215.479736 0.000000 233.461655 -214.460754 0.000000 233.461655 -216.498703 0.000000 233.595795 -215.479736 0.000000 233.068344 -213.511230 0.000000 233.068344 -217.448242 0.000000 232.442673 -212.695847 0.000000 232.442673 -218.263611 0.000000 231.627304 -212.070175 0.000000 231.627304 -218.889282 0.000000 230.677765 -211.676880 0.000000 230.677765 -219.282593 0.000000 229.658798 -211.542725 0.000000 229.658798 -219.416733 0.000000 228.639816 -211.676880 0.000000 228.639816 -219.282593 0.000000 227.690292 -212.070175 0.000000 227.690292 -218.889282 0.000000 226.874908 -212.695847 0.000000 226.874908 -218.263611 0.000000 226.249237 -213.511230 0.000000 226.249237 -217.448242 0.000000 225.855942 -214.460754 0.000000 225.855942 -216.498703 0.000000 225.721786 -215.479736 0.000000 167.844849 -214.460754 0.000000 167.844849 -216.498703 0.000000 167.979004 -215.479736 0.000000 167.451538 -213.511230 0.000000 167.451538 -217.448242 0.000000 166.825882 -212.695847 0.000000 166.825882 -218.263611 0.000000 166.010498 -212.070175 0.000000 166.010498 -218.889282 0.000000 165.060974 -211.676880 0.000000 165.060974 -219.282593 0.000000 164.041992 -211.542725 0.000000 164.041992 -219.416733 0.000000 163.023026 -211.676880 0.000000 163.023026 -219.282593 0.000000 162.073486 -212.070175 0.000000 162.073486 -218.889282 0.000000 161.258102 -212.695847 0.000000 161.258102 -218.263611 0.000000 160.632446 -213.511230 0.000000 160.632446 -217.448242 0.000000 160.239136 -214.460754 0.000000 160.239136 -216.498703 0.000000 160.104980 -215.479736 0.000000 3.802858 -214.460754 0.000000 3.802858 -216.498703 0.000000 3.937008 -215.479736 0.000000 3.409549 -213.511230 0.000000 3.409549 -217.448242 0.000000 2.783885 -212.695847 0.000000 2.783885 -218.263611 0.000000 1.968504 -212.070175 0.000000 1.968504 -218.889282 0.000000 1.018973 -211.676880 0.000000 1.018973 -219.282593 0.000000 0.000000 -211.542725 0.000000 0.000000 -219.416733 0.000000 -1.018973 -211.676880 0.000000 -1.018973 -219.282593 0.000000 -1.968504 -212.070175 0.000000 -1.968504 -218.889282 0.000000 -2.783885 -212.695847 0.000000 -2.783885 -218.263611 0.000000 -3.409549 -213.511230 0.000000 -3.409549 -217.448242 0.000000 -3.802858 -214.460754 0.000000 -3.802858 -216.498703 0.000000 -3.937008 -215.479736 0.000000 299.078461 -214.460754 0.000000 299.078461 -216.498703 0.000000 299.212585 -215.479736 0.000000 298.685150 -213.511230 0.000000 298.685150 -217.448242 0.000000 298.059479 -212.695847 0.000000 298.059479 -218.263611 0.000000 297.244080 -212.070175 0.000000 297.244080 -218.889282 0.000000 296.294556 -211.676880 0.000000 296.294556 -219.282593 0.000000 295.275604 -211.542725 0.000000 295.275604 -219.416733 0.000000 294.256622 -211.676880 0.000000 294.256622 -219.282593 0.000000 293.307098 -212.070175 0.000000 293.307098 -218.889282 0.000000 292.491699 -212.695847 0.000000 292.491699 -218.263611 0.000000 291.866028 -213.511230 0.000000 291.866028 -217.448242 0.000000 291.472748 -214.460754 0.000000 291.472748 -216.498703 0.000000 291.338593 -215.479736 0.000000 343.307098 -214.460754 0.000000 343.307098 -216.498703 0.000000 343.441223 -215.479736 0.000000 342.913788 -213.511230 0.000000 342.913788 -217.448242 0.000000 342.288116 -212.695847 0.000000 342.288116 -218.263611 0.000000 341.472748 -212.070175 0.000000 341.472748 -218.889282 0.000000 340.523193 -211.676880 0.000000 340.523193 -219.282593 0.000000 339.504242 -211.542725 0.000000 339.504242 -219.416733 0.000000 338.485260 -211.676880 0.000000 338.485260 -219.282593 0.000000 337.535736 -212.070175 0.000000 337.535736 -218.889282 0.000000 336.720337 -212.695847 0.000000 336.720337 -218.263611 0.000000 336.094666 -213.511230 0.000000 336.094666 -217.448242 0.000000 335.701385 -214.460754 0.000000 335.701385 -216.498703 0.000000 335.567230 -215.479736 0.000000 102.228058 -214.460754 0.000000 102.228058 -216.498703 0.000000 102.362206 -215.479736 0.000000 101.834747 -213.511230 0.000000 101.834747 -217.448242 0.000000 101.209084 -212.695847 0.000000 101.209084 -218.263611 0.000000 100.393700 -212.070175 0.000000 100.393700 -218.889282 0.000000 99.444168 -211.676880 0.000000 99.444168 -219.282593 0.000000 98.425194 -211.542725 0.000000 98.425194 -219.416733 0.000000 97.406227 -211.676880 0.000000 97.406227 -219.282593 0.000000 96.456696 -212.070175 0.000000 96.456696 -218.889282 0.000000 95.641312 -212.695847 0.000000 95.641312 -218.263611 0.000000 95.015648 -213.511230 0.000000 95.015648 -217.448242 0.000000 94.622337 -214.460754 0.000000 94.622337 -216.498703 0.000000 94.488190 -215.479736 0.000000 "
							            />
						</IndexedFaceSet>
					</Shape>
				</Group>
			</Transform>
		</Transform>
	</Scene>
</X3D>