<?xml version="1.0" encoding="UTF-8"?>
<!DOCTYPE X3D PUBLIC "ISO//Web3D//DTD X3D 3.0//EN" "http://www.web3d.org/specifications/x3d-3.0.dtd">
<X3D version="3.0" profile="Immersive" xmlns:xsd="http://www.w3.org/2001/XMLSchema-instance" xsd:noNamespaceSchemaLocation="http://www.web3d.org/specifications/x3d-3.0.xsd">
	<head>
		<meta name="filename" content="29-2.x3d" />
		<meta name="created" content="2026-06-21 15:09:42" />
		<meta name="generator" content="Blender 4.5.4 LTS" />
		<meta name="translator" content="Web3D X3D/VRML2 format v2.5.1" />
	</head>
	<Scene>
		<NavigationInfo headlight="true"
		                visibilityLimit="0.0"
		                type='"EXAMINE", "ANY"'
		                avatarSize="0.25, 1.75, 0.75"
		                />
		<Background DEF="WO_World"
		            groundColor="0.051 0.051 0.051"
		            skyColor="0.051 0.051 0.051"
		            />
		<Transform DEF="_29-2_TRANSFORM"
		           translation="0.000000 0.000000 0.000000"
		           scale="1.000000 1.000000 1.000000"
		           rotation="0.000000 0.707107 0.707107 3.141593"
		           >
			<Transform DEF="_29-2_ifs_TRANSFORM"
			           translation="0.000000 0.000000 0.000000"
			           scale="1.000000 1.000000 1.000000"
			           rotation="0.000000 1.000000 0.000000 0.000000"
			           >
				<Group DEF="group_ME_29-2_001">
					<Shape>
						<Appearance>
						</Appearance>
						<IndexedFaceSet solid="false"
						                coordIndex="0 1 2 -1 1 0 3 -1 4 0 2 -1 0 4 5 -1 6 4 7 -1 4 6 5 -1 6 1 3 -1 1 6 7 -1 4 1 7 -1 1 4 2 -1 0 6 3 -1 6 0 5 -1 8 9 10 -1 10 11 8 -1 10 12 11 -1 12 13 11 -1 12 14 13 -1 14 15 13 -1 14 16 15 -1 16 17 15 -1 16 18 17 -1 18 19 17 -1 18 20 19 -1 20 21 19 -1 20 22 21 -1 22 23 21 -1 22 24 23 -1 24 25 23 -1 24 26 25 -1 26 27 25 -1 26 28 27 -1 28 29 27 -1 28 30 29 -1 30 31 29 -1 32 33 34 -1 34 35 32 -1 34 36 35 -1 36 37 35 -1 36 38 37 -1 38 39 37 -1 38 40 39 -1 40 41 39 -1 40 42 41 -1 42 43 41 -1 42 44 43 -1 44 45 43 -1 44 46 45 -1 46 47 45 -1 46 48 47 -1 48 49 47 -1 48 50 49 -1 50 51 49 -1 50 52 51 -1 52 53 51 -1 52 54 53 -1 54 55 53 -1 56 57 58 -1 58 59 56 -1 58 60 59 -1 60 61 59 -1 60 62 61 -1 62 63 61 -1 62 64 63 -1 64 65 63 -1 64 66 65 -1 66 67 65 -1 66 68 67 -1 68 69 67 -1 68 70 69 -1 70 71 69 -1 70 72 71 -1 72 73 71 -1 72 74 73 -1 74 75 73 -1 74 76 75 -1 76 77 75 -1 76 78 77 -1 78 79 77 -1 80 81 82 -1 82 83 80 -1 82 84 83 -1 84 85 83 -1 84 86 85 -1 86 87 85 -1 86 88 87 -1 88 89 87 -1 88 90 89 -1 90 91 89 -1 90 92 91 -1 92 93 91 -1 92 94 93 -1 94 95 93 -1 94 96 95 -1 96 97 95 -1 96 98 97 -1 98 99 97 -1 98 100 99 -1 100 101 99 -1 100 102 101 -1 102 103 101 -1 104 105 106 -1 106 107 104 -1 106 108 107 -1 108 109 107 -1 108 110 109 -1 110 111 109 -1 110 112 111 -1 112 113 111 -1 112 114 113 -1 114 115 113 -1 114 116 115 -1 116 117 115 -1 116 118 117 -1 118 119 117 -1 118 120 119 -1 120 121 119 -1 120 122 121 -1 122 123 121 -1 122 124 123 -1 124 125 123 -1 124 126 125 -1 126 127 125 -1 128 129 130 -1 130 131 128 -1 130 132 131 -1 132 133 131 -1 132 134 133 -1 134 135 133 -1 134 136 135 -1 136 137 135 -1 136 138 137 -1 138 139 137 -1 138 140 139 -1 140 141 139 -1 140 142 141 -1 142 143 141 -1 142 144 143 -1 144 145 143 -1 144 146 145 -1 146 147 145 -1 146 148 147 -1 148 149 147 -1 148 150 149 -1 150 151 149 -1 152 153 154 -1 154 155 152 -1 154 156 155 -1 156 157 155 -1 156 158 157 -1 158 159 157 -1 158 160 159 -1 160 161 159 -1 160 162 161 -1 162 163 161 -1 162 164 163 -1 164 165 163 -1 164 166 165 -1 166 167 165 -1 166 168 167 -1 168 169 167 -1 168 170 169 -1 170 171 169 -1 170 172 171 -1 172 173 171 -1 172 174 173 -1 174 175 173 -1 176 177 178 -1 178 179 176 -1 178 180 179 -1 180 181 179 -1 180 182 181 -1 182 183 181 -1 182 184 183 -1 184 185 183 -1 184 186 185 -1 186 187 185 -1 186 188 187 -1 188 189 187 -1 188 190 189 -1 190 191 189 -1 190 192 191 -1 192 193 191 -1 192 194 193 -1 194 195 193 -1 194 196 195 -1 196 197 195 -1 196 198 197 -1 198 199 197 -1 200 201 202 -1 202 203 200 -1 202 204 203 -1 204 205 203 -1 204 206 205 -1 206 207 205 -1 206 208 207 -1 208 209 207 -1 208 210 209 -1 210 211 209 -1 210 212 211 -1 212 213 211 -1 212 214 213 -1 214 215 213 -1 214 216 215 -1 216 217 215 -1 216 218 217 -1 218 219 217 -1 218 220 219 -1 220 221 219 -1 220 222 221 -1 222 223 221 -1 224 225 226 -1 226 227 224 -1 226 228 227 -1 228 229 227 -1 228 230 229 -1 230 231 229 -1 230 232 231 -1 232 233 231 -1 232 234 233 -1 234 235 233 -1 234 236 235 -1 236 237 235 -1 236 238 237 -1 238 239 237 -1 238 240 239 -1 240 241 239 -1 240 242 241 -1 242 243 241 -1 242 244 243 -1 244 245 243 -1 244 246 245 -1 246 247 245 -1 248 249 250 -1 250 251 248 -1 250 252 251 -1 252 253 251 -1 252 254 253 -1 254 255 253 -1 254 256 255 -1 256 257 255 -1 256 258 257 -1 258 259 257 -1 258 260 259 -1 260 261 259 -1 260 262 261 -1 262 263 261 -1 262 264 263 -1 264 265 263 -1 264 266 265 -1 266 267 265 -1 266 268 267 -1 268 269 267 -1 268 270 269 -1 270 271 269 -1 272 273 274 -1 274 275 272 -1 274 276 275 -1 276 277 275 -1 276 278 277 -1 278 279 277 -1 278 280 279 -1 280 281 279 -1 280 282 281 -1 282 283 281 -1 282 284 283 -1 284 285 283 -1 284 286 285 -1 286 287 285 -1 286 288 287 -1 288 289 287 -1 288 290 289 -1 290 291 289 -1 290 292 291 -1 292 293 291 -1 292 294 293 -1 294 295 293 -1 296 297 298 -1 298 299 296 -1 298 300 299 -1 300 301 299 -1 300 302 301 -1 302 303 301 -1 302 304 303 -1 304 305 303 -1 304 306 305 -1 306 307 305 -1 306 308 307 -1 308 309 307 -1 308 310 309 -1 310 311 309 -1 310 312 311 -1 312 313 311 -1 312 314 313 -1 314 315 313 -1 314 316 315 -1 316 317 315 -1 316 318 317 -1 318 319 317 -1 320 321 322 -1 322 323 320 -1 322 324 323 -1 324 325 323 -1 324 326 325 -1 326 327 325 -1 326 328 327 -1 328 329 327 -1 328 330 329 -1 330 331 329 -1 330 332 331 -1 332 333 331 -1 332 334 333 -1 334 335 333 -1 334 336 335 -1 336 337 335 -1 336 338 337 -1 338 339 337 -1 338 340 339 -1 340 341 339 -1 340 342 341 -1 342 343 341 -1 344 345 346 -1 346 347 344 -1 346 348 347 -1 348 349 347 -1 348 350 349 -1 350 351 349 -1 350 352 351 -1 352 353 351 -1 352 354 353 -1 354 355 353 -1 354 356 355 -1 356 357 355 -1 356 358 357 -1 358 359 357 -1 358 360 359 -1 360 361 359 -1 360 362 361 -1 362 363 361 -1 362 364 363 -1 364 365 363 -1 364 366 365 -1 366 367 365 -1 368 369 370 -1 370 371 368 -1 370 372 371 -1 372 373 371 -1 372 374 373 -1 374 375 373 -1 374 376 375 -1 376 377 375 -1 376 378 377 -1 378 379 377 -1 378 380 379 -1 380 381 379 -1 380 382 381 -1 382 383 381 -1 382 384 383 -1 384 385 383 -1 384 386 385 -1 386 387 385 -1 386 388 387 -1 388 389 387 -1 388 390 389 -1 390 391 389 -1 392 393 394 -1 394 395 392 -1 394 396 395 -1 396 397 395 -1 396 398 397 -1 398 399 397 -1 398 400 399 -1 400 401 399 -1 400 402 401 -1 402 403 401 -1 402 404 403 -1 404 405 403 -1 404 406 405 -1 406 407 405 -1 406 408 407 -1 408 409 407 -1 408 410 409 -1 410 411 409 -1 410 412 411 -1 412 413 411 -1 412 414 413 -1 414 415 413 -1 416 417 418 -1 418 419 416 -1 418 420 419 -1 420 421 419 -1 420 422 421 -1 422 423 421 -1 422 424 423 -1 424 425 423 -1 424 426 425 -1 426 427 425 -1 426 428 427 -1 428 429 427 -1 428 430 429 -1 430 431 429 -1 430 432 431 -1 432 433 431 -1 432 434 433 -1 434 435 433 -1 434 436 435 -1 436 437 435 -1 436 438 437 -1 438 439 437 -1 440 441 442 -1 442 443 440 -1 442 444 443 -1 444 445 443 -1 444 446 445 -1 446 447 445 -1 446 448 447 -1 448 449 447 -1 448 450 449 -1 450 451 449 -1 450 452 451 -1 452 453 451 -1 452 454 453 -1 454 455 453 -1 454 456 455 -1 456 457 455 -1 456 458 457 -1 458 459 457 -1 458 460 459 -1 460 461 459 -1 460 462 461 -1 462 463 461 -1 464 465 466 -1 466 467 464 -1 466 468 467 -1 468 469 467 -1 468 470 469 -1 470 471 469 -1 470 472 471 -1 472 473 471 -1 472 474 473 -1 474 475 473 -1 474 476 475 -1 476 477 475 -1 476 478 477 -1 478 479 477 -1 478 480 479 -1 480 481 479 -1 480 482 481 -1 482 483 481 -1 482 484 483 -1 484 485 483 -1 484 486 485 -1 486 487 485 -1 488 489 490 -1 490 491 488 -1 490 492 491 -1 492 493 491 -1 492 494 493 -1 494 495 493 -1 494 496 495 -1 496 497 495 -1 496 498 497 -1 498 499 497 -1 498 500 499 -1 500 501 499 -1 500 502 501 -1 502 503 501 -1 502 504 503 -1 504 505 503 -1 504 506 505 -1 506 507 505 -1 506 508 507 -1 508 509 507 -1 508 510 509 -1 510 511 509 -1 512 513 514 -1 514 515 512 -1 514 516 515 -1 516 517 515 -1 516 518 517 -1 518 519 517 -1 518 520 519 -1 520 521 519 -1 520 522 521 -1 522 523 521 -1 522 524 523 -1 524 525 523 -1 524 526 525 -1 526 527 525 -1 526 528 527 -1 528 529 527 -1 528 530 529 -1 530 531 529 -1 530 532 531 -1 532 533 531 -1 532 534 533 -1 534 535 533 -1 536 537 538 -1 538 539 536 -1 538 540 539 -1 540 541 539 -1 540 542 541 -1 542 543 541 -1 542 544 543 -1 544 545 543 -1 544 546 545 -1 546 547 545 -1 546 548 547 -1 548 549 547 -1 548 550 549 -1 550 551 549 -1 550 552 551 -1 552 553 551 -1 552 554 553 -1 554 555 553 -1 554 556 555 -1 556 557 555 -1 556 558 557 -1 558 559 557 -1 560 561 562 -1 562 563 560 -1 562 564 563 -1 564 565 563 -1 564 566 565 -1 566 567 565 -1 566 568 567 -1 568 569 567 -1 568 570 569 -1 570 571 569 -1 570 572 571 -1 572 573 571 -1 572 574 573 -1 574 575 573 -1 574 576 575 -1 576 577 575 -1 576 578 577 -1 578 579 577 -1 578 580 579 -1 580 581 579 -1 580 582 581 -1 582 583 581 -1 584 585 586 -1 586 587 584 -1 586 588 587 -1 588 589 587 -1 588 590 589 -1 590 591 589 -1 590 592 591 -1 592 593 591 -1 592 594 593 -1 594 595 593 -1 594 596 595 -1 596 597 595 -1 596 598 597 -1 598 599 597 -1 598 600 599 -1 600 601 599 -1 600 602 601 -1 602 603 601 -1 602 604 603 -1 604 605 603 -1 604 606 605 -1 606 607 605 -1 608 609 610 -1 610 611 608 -1 610 612 611 -1 612 613 611 -1 612 614 613 -1 614 615 613 -1 614 616 615 -1 616 617 615 -1 616 618 617 -1 618 619 617 -1 618 620 619 -1 620 621 619 -1 620 622 621 -1 622 623 621 -1 622 624 623 -1 624 625 623 -1 624 626 625 -1 626 627 625 -1 626 628 627 -1 628 629 627 -1 628 630 629 -1 630 631 629 -1 632 633 634 -1 634 635 632 -1 634 636 635 -1 636 637 635 -1 636 638 637 -1 638 639 637 -1 638 640 639 -1 640 641 639 -1 640 642 641 -1 642 643 641 -1 642 644 643 -1 644 645 643 -1 644 646 645 -1 646 647 645 -1 646 648 647 -1 648 649 647 -1 648 650 649 -1 650 651 649 -1 650 652 651 -1 652 653 651 -1 652 654 653 -1 654 655 653 -1 656 657 658 -1 658 659 656 -1 658 660 659 -1 660 661 659 -1 660 662 661 -1 662 663 661 -1 662 664 663 -1 664 665 663 -1 664 666 665 -1 666 667 665 -1 666 668 667 -1 668 669 667 -1 668 670 669 -1 670 671 669 -1 670 672 671 -1 672 673 671 -1 672 674 673 -1 674 675 673 -1 674 676 675 -1 676 677 675 -1 676 678 677 -1 678 679 677 -1 680 681 682 -1 682 683 680 -1 682 684 683 -1 684 685 683 -1 684 686 685 -1 686 687 685 -1 686 688 687 -1 688 689 687 -1 688 690 689 -1 690 691 689 -1 690 692 691 -1 692 693 691 -1 692 694 693 -1 694 695 693 -1 694 696 695 -1 696 697 695 -1 696 698 697 -1 698 699 697 -1 698 700 699 -1 700 701 699 -1 700 702 701 -1 702 703 701 -1 704 705 706 -1 706 707 704 -1 706 708 707 -1 708 709 707 -1 708 710 709 -1 710 711 709 -1 710 712 711 -1 712 713 711 -1 712 714 713 -1 714 715 713 -1 714 716 715 -1 716 717 715 -1 716 718 717 -1 718 719 717 -1 718 720 719 -1 720 721 719 -1 720 722 721 -1 722 723 721 -1 722 724 723 -1 724 725 723 -1 724 726 725 -1 726 727 725 -1 728 729 730 -1 730 731 728 -1 730 732 731 -1 732 733 731 -1 732 734 733 -1 734 735 733 -1 734 736 735 -1 736 737 735 -1 736 738 737 -1 738 739 737 -1 738 740 739 -1 740 741 739 -1 740 742 741 -1 742 743 741 -1 742 744 743 -1 744 745 743 -1 744 746 745 -1 746 747 745 -1 746 748 747 -1 748 749 747 -1 748 750 749 -1 750 751 749 -1 752 753 754 -1 754 755 752 -1 754 756 755 -1 756 757 755 -1 756 758 757 -1 758 759 757 -1 758 760 759 -1 760 761 759 -1 760 762 761 -1 762 763 761 -1 762 764 763 -1 764 765 763 -1 764 766 765 -1 766 767 765 -1 766 768 767 -1 768 769 767 -1 768 770 769 -1 770 771 769 -1 770 772 771 -1 772 773 771 -1 772 774 773 -1 774 775 773 -1 776 777 778 -1 778 779 776 -1 778 780 779 -1 780 781 779 -1 780 782 781 -1 782 783 781 -1 782 784 783 -1 784 785 783 -1 784 786 785 -1 786 787 785 -1 786 788 787 -1 788 789 787 -1 788 790 789 -1 790 791 789 -1 790 792 791 -1 792 793 791 -1 792 794 793 -1 794 795 793 -1 794 796 795 -1 796 797 795 -1 796 798 797 -1 798 799 797 -1 800 801 802 -1 802 803 800 -1 802 804 803 -1 804 805 803 -1 804 806 805 -1 806 807 805 -1 806 808 807 -1 808 809 807 -1 808 810 809 -1 810 811 809 -1 810 812 811 -1 812 813 811 -1 812 814 813 -1 814 815 813 -1 814 816 815 -1 816 817 815 -1 816 818 817 -1 818 819 817 -1 818 820 819 -1 820 821 819 -1 820 822 821 -1 822 823 821 -1 824 825 826 -1 826 827 824 -1 826 828 827 -1 828 829 827 -1 828 830 829 -1 830 831 829 -1 830 832 831 -1 832 833 831 -1 832 834 833 -1 834 835 833 -1 834 836 835 -1 836 837 835 -1 836 838 837 -1 838 839 837 -1 838 840 839 -1 840 841 839 -1 840 842 841 -1 842 843 841 -1 842 844 843 -1 844 845 843 -1 844 846 845 -1 846 847 845 -1 848 849 850 -1 850 851 848 -1 850 852 851 -1 852 853 851 -1 852 854 853 -1 854 855 853 -1 854 856 855 -1 856 857 855 -1 856 858 857 -1 858 859 857 -1 858 860 859 -1 860 861 859 -1 860 862 861 -1 862 863 861 -1 862 864 863 -1 864 865 863 -1 864 866 865 -1 866 867 865 -1 866 868 867 -1 868 869 867 -1 868 870 869 -1 870 871 869 -1 512 872 514 -1 873 874 875 -1 875 876 873 -1 875 877 876 -1 877 878 876 -1 877 879 878 -1 879 880 878 -1 879 881 880 -1 881 882 880 -1 881 883 882 -1 883 884 882 -1 883 885 884 -1 885 886 884 -1 885 887 886 -1 887 888 886 -1 887 889 888 -1 889 890 888 -1 889 891 890 -1 891 892 890 -1 891 893 892 -1 893 894 892 -1 893 895 894 -1 895 896 894 -1 897 898 899 -1 899 900 897 -1 899 901 900 -1 901 902 900 -1 901 903 902 -1 903 904 902 -1 903 905 904 -1 905 906 904 -1 905 907 906 -1 907 908 906 -1 907 909 908 -1 909 910 908 -1 909 911 910 -1 911 912 910 -1 911 913 912 -1 913 914 912 -1 913 915 914 -1 915 916 914 -1 915 917 916 -1 917 918 916 -1 917 919 918 -1 919 920 918 -1 921 922 923 -1 923 924 921 -1 923 925 924 -1 925 926 924 -1 925 927 926 -1 927 928 926 -1 927 929 928 -1 929 930 928 -1 929 931 930 -1 931 932 930 -1 931 933 932 -1 933 934 932 -1 933 935 934 -1 935 936 934 -1 935 937 936 -1 937 938 936 -1 937 939 938 -1 939 940 938 -1 939 941 940 -1 941 942 940 -1 941 943 942 -1 943 944 942 -1 945 946 947 -1 947 948 945 -1 947 949 948 -1 949 950 948 -1 949 951 950 -1 951 952 950 -1 951 953 952 -1 953 954 952 -1 953 955 954 -1 955 956 954 -1 955 957 956 -1 957 958 956 -1 957 959 958 -1 959 960 958 -1 959 961 960 -1 961 962 960 -1 961 963 962 -1 963 964 962 -1 963 965 964 -1 965 966 964 -1 965 967 966 -1 967 968 966 -1 969 970 971 -1 971 972 969 -1 971 973 972 -1 973 974 972 -1 973 975 974 -1 975 976 974 -1 975 977 976 -1 977 978 976 -1 977 979 978 -1 979 980 978 -1 979 981 980 -1 981 982 980 -1 981 983 982 -1 983 984 982 -1 983 985 984 -1 985 986 984 -1 985 987 986 -1 987 988 986 -1 987 989 988 -1 989 990 988 -1 989 991 990 -1 991 992 990 -1 993 994 995 -1 995 996 993 -1 995 997 996 -1 997 998 996 -1 997 999 998 -1 999 1000 998 -1 999 1001 1000 -1 1001 1002 1000 -1 1001 1003 1002 -1 1003 1004 1002 -1 1003 1005 1004 -1 1005 1006 1004 -1 1005 1007 1006 -1 1007 1008 1006 -1 1007 1009 1008 -1 1009 1010 1008 -1 1009 1011 1010 -1 1011 1012 1010 -1 1011 1013 1012 -1 1013 1014 1012 -1 1013 1015 1014 -1 1015 1016 1014 -1 1017 1018 1019 -1 1019 1020 1017 -1 1019 1021 1020 -1 1021 1022 1020 -1 1021 1023 1022 -1 1023 1024 1022 -1 1023 1025 1024 -1 1025 1026 1024 -1 1025 1027 1026 -1 1027 1028 1026 -1 1027 1029 1028 -1 1029 1030 1028 -1 1029 1031 1030 -1 1031 1032 1030 -1 1031 1033 1032 -1 1033 1034 1032 -1 1033 1035 1034 -1 1035 1036 1034 -1 1035 1037 1036 -1 1037 1038 1036 -1 1037 1039 1038 -1 1039 1040 1038 -1 1041 1042 1043 -1 1043 1044 1041 -1 1043 1045 1044 -1 1045 1046 1044 -1 1045 1047 1046 -1 1047 1048 1046 -1 1047 1049 1048 -1 1049 1050 1048 -1 1049 1051 1050 -1 1051 1052 1050 -1 1051 1053 1052 -1 1053 1054 1052 -1 1053 1055 1054 -1 1055 1056 1054 -1 1055 1057 1056 -1 1057 1058 1056 -1 1057 1059 1058 -1 1059 1060 1058 -1 1059 1061 1060 -1 1061 1062 1060 -1 1061 1063 1062 -1 1063 1064 1062 -1 1065 1066 1067 -1 1067 1068 1065 -1 1067 1069 1068 -1 1069 1070 1068 -1 1069 1071 1070 -1 1071 1072 1070 -1 1071 1073 1072 -1 1073 1074 1072 -1 1073 1075 1074 -1 1075 1076 1074 -1 1075 1077 1076 -1 1077 1078 1076 -1 1077 1079 1078 -1 1079 1080 1078 -1 1079 1081 1080 -1 1081 1082 1080 -1 1081 1083 1082 -1 1083 1084 1082 -1 1083 1085 1084 -1 1085 1086 1084 -1 1085 1087 1086 -1 1087 1088 1086 -1 1089 1090 1091 -1 1091 1092 1089 -1 1091 1093 1092 -1 1093 1094 1092 -1 1093 1095 1094 -1 1095 1096 1094 -1 1095 1097 1096 -1 1097 1098 1096 -1 1097 1099 1098 -1 1099 1100 1098 -1 1099 1101 1100 -1 1101 1102 1100 -1 1101 1103 1102 -1 1103 1104 1102 -1 1103 1105 1104 -1 1105 1106 1104 -1 1105 1107 1106 -1 1107 1108 1106 -1 1107 1109 1108 -1 1109 1110 1108 -1 1109 1111 1110 -1 1111 1112 1110 -1 1113 1114 1115 -1 1115 1116 1113 -1 1115 1117 1116 -1 1117 1118 1116 -1 1117 1119 1118 -1 1119 1120 1118 -1 1119 1121 1120 -1 1121 1122 1120 -1 1121 1123 1122 -1 1123 1124 1122 -1 1123 1125 1124 -1 1125 1126 1124 -1 1125 1127 1126 -1 1127 1128 1126 -1 1127 1129 1128 -1 1129 1130 1128 -1 1129 1131 1130 -1 1131 1132 1130 -1 1131 1133 1132 -1 1133 1134 1132 -1 1133 1135 1134 -1 1135 1136 1134 -1 1137 1138 1139 -1 1139 1140 1137 -1 1139 1141 1140 -1 1141 1142 1140 -1 1141 1143 1142 -1 1143 1144 1142 -1 1143 1145 1144 -1 1145 1146 1144 -1 1145 1147 1146 -1 1147 1148 1146 -1 1147 1149 1148 -1 1149 1150 1148 -1 1149 1151 1150 -1 1151 1152 1150 -1 1151 1153 1152 -1 1153 1154 1152 -1 1153 1155 1154 -1 1155 1156 1154 -1 1155 1157 1156 -1 1157 1158 1156 -1 1157 1159 1158 -1 1159 1160 1158 -1 1161 1162 1163 -1 1163 1164 1161 -1 1163 1165 1164 -1 1165 1166 1164 -1 1165 1167 1166 -1 1167 1168 1166 -1 1167 1169 1168 -1 1169 1170 1168 -1 1169 1171 1170 -1 1171 1172 1170 -1 1171 1173 1172 -1 1173 1174 1172 -1 1173 1175 1174 -1 1175 1176 1174 -1 1175 1177 1176 -1 1177 1178 1176 -1 1177 1179 1178 -1 1179 1180 1178 -1 1179 1181 1180 -1 1181 1182 1180 -1 1181 1183 1182 -1 1183 1184 1182 -1 1185 1186 1187 -1 1187 1188 1185 -1 1187 1189 1188 -1 1189 1190 1188 -1 1189 1191 1190 -1 1191 1192 1190 -1 1191 1193 1192 -1 1193 1194 1192 -1 1193 1195 1194 -1 1195 1196 1194 -1 1195 1197 1196 -1 1197 1198 1196 -1 1197 1199 1198 -1 1199 1200 1198 -1 1199 1201 1200 -1 1201 1202 1200 -1 1201 1203 1202 -1 1203 1204 1202 -1 1203 1205 1204 -1 1205 1206 1204 -1 1205 1207 1206 -1 1207 1208 1206 -1 1209 1210 1211 -1 1211 1212 1209 -1 1211 1213 1212 -1 1213 1214 1212 -1 1213 1215 1214 -1 1215 1216 1214 -1 1215 1217 1216 -1 1217 1218 1216 -1 1217 1219 1218 -1 1219 1220 1218 -1 1219 1221 1220 -1 1221 1222 1220 -1 1221 1223 1222 -1 1223 1224 1222 -1 1223 1225 1224 -1 1225 1226 1224 -1 1225 1227 1226 -1 1227 1228 1226 -1 1227 1229 1228 -1 1229 1230 1228 -1 1229 1231 1230 -1 1231 1232 1230 -1 1233 1234 1235 -1 1235 1236 1233 -1 1235 1237 1236 -1 1237 1238 1236 -1 1237 1239 1238 -1 1239 1240 1238 -1 1239 1241 1240 -1 1241 1242 1240 -1 1241 1243 1242 -1 1243 1244 1242 -1 1243 1245 1244 -1 1245 1246 1244 -1 1245 1247 1246 -1 1247 1248 1246 -1 1247 1249 1248 -1 1249 1250 1248 -1 1249 1251 1250 -1 1251 1252 1250 -1 1251 1253 1252 -1 1253 1254 1252 -1 1253 1255 1254 -1 1255 1256 1254 -1 1257 1258 1259 -1 1259 1260 1257 -1 1259 1261 1260 -1 1261 1262 1260 -1 1261 1263 1262 -1 1263 1264 1262 -1 1263 1265 1264 -1 1265 1266 1264 -1 1265 1267 1266 -1 1267 1268 1266 -1 1267 1269 1268 -1 1269 1270 1268 -1 1269 1271 1270 -1 1271 1272 1270 -1 1271 1273 1272 -1 1273 1274 1272 -1 1273 1275 1274 -1 1275 1276 1274 -1 1275 1277 1276 -1 1277 1278 1276 -1 1277 1279 1278 -1 1279 1280 1278 -1 1281 1282 1283 -1 1283 1284 1281 -1 1283 1285 1284 -1 1285 1286 1284 -1 1285 1287 1286 -1 1287 1288 1286 -1 1287 1289 1288 -1 1289 1290 1288 -1 1289 1291 1290 -1 1291 1292 1290 -1 1291 1293 1292 -1 1293 1294 1292 -1 1293 1295 1294 -1 1295 1296 1294 -1 1295 1297 1296 -1 1297 1298 1296 -1 1297 1299 1298 -1 1299 1300 1298 -1 1299 1301 1300 -1 1301 1302 1300 -1 1301 1303 1302 -1 1303 1304 1302 -1 1305 1306 1307 -1 1307 1308 1305 -1 1307 1309 1308 -1 1309 1310 1308 -1 1309 1311 1310 -1 1311 1312 1310 -1 1311 1313 1312 -1 1313 1314 1312 -1 1313 1315 1314 -1 1315 1316 1314 -1 1315 1317 1316 -1 1317 1318 1316 -1 1317 1319 1318 -1 1319 1320 1318 -1 1319 1321 1320 -1 1321 1322 1320 -1 1321 1323 1322 -1 1323 1324 1322 -1 1323 1325 1324 -1 1325 1326 1324 -1 1325 1327 1326 -1 1327 1328 1326 -1 1329 1330 1331 -1 1331 1332 1329 -1 1331 1333 1332 -1 1333 1334 1332 -1 1333 1335 1334 -1 1335 1336 1334 -1 1335 1337 1336 -1 1337 1338 1336 -1 1337 1339 1338 -1 1339 1340 1338 -1 1339 1341 1340 -1 1341 1342 1340 -1 1341 1343 1342 -1 1343 1344 1342 -1 1343 1345 1344 -1 1345 1346 1344 -1 1345 1347 1346 -1 1347 1348 1346 -1 1347 1349 1348 -1 1349 1350 1348 -1 1349 1351 1350 -1 1351 1352 1350 -1 1353 1354 1355 -1 1355 1356 1353 -1 1355 1357 1356 -1 1357 1358 1356 -1 1357 1359 1358 -1 1359 1360 1358 -1 1359 1361 1360 -1 1361 1362 1360 -1 1361 1363 1362 -1 1363 1364 1362 -1 1363 1365 1364 -1 1365 1366 1364 -1 1365 1367 1366 -1 1367 1368 1366 -1 1367 1369 1368 -1 1369 1370 1368 -1 1369 1371 1370 -1 1371 1372 1370 -1 1371 1373 1372 -1 1373 1374 1372 -1 1373 1375 1374 -1 1375 1376 1374 -1 1377 1378 1379 -1 1379 1380 1377 -1 1379 1381 1380 -1 1381 1382 1380 -1 1381 1383 1382 -1 1383 1384 1382 -1 1383 1385 1384 -1 1385 1386 1384 -1 1385 1387 1386 -1 1387 1388 1386 -1 1387 1389 1388 -1 1389 1390 1388 -1 1389 1391 1390 -1 1391 1392 1390 -1 1391 1393 1392 -1 1393 1394 1392 -1 1393 1395 1394 -1 1395 1396 1394 -1 1395 1397 1396 -1 1397 1398 1396 -1 1397 1399 1398 -1 1399 1400 1398 -1 1401 1402 1403 -1 1403 1404 1401 -1 1403 1405 1404 -1 1405 1406 1404 -1 1405 1407 1406 -1 1407 1408 1406 -1 1407 1409 1408 -1 1409 1410 1408 -1 1409 1411 1410 -1 1411 1412 1410 -1 1411 1413 1412 -1 1413 1414 1412 -1 1413 1415 1414 -1 1415 1416 1414 -1 1415 1417 1416 -1 1417 1418 1416 -1 1417 1419 1418 -1 1419 1420 1418 -1 1419 1421 1420 -1 1421 1422 1420 -1 1421 1423 1422 -1 1423 1424 1422 -1 1425 1426 1427 -1 1427 1428 1425 -1 1427 1429 1428 -1 1429 1430 1428 -1 1429 1431 1430 -1 1431 1432 1430 -1 1431 1433 1432 -1 1433 1434 1432 -1 1433 1435 1434 -1 1435 1436 1434 -1 1435 1437 1436 -1 1437 1438 1436 -1 1437 1439 1438 -1 1439 1440 1438 -1 1439 1441 1440 -1 1441 1442 1440 -1 1441 1443 1442 -1 1443 1444 1442 -1 1443 1445 1444 -1 1445 1446 1444 -1 1445 1447 1446 -1 1447 1448 1446 -1 1449 1450 1451 -1 1451 1452 1449 -1 1451 1453 1452 -1 1453 1454 1452 -1 1453 1455 1454 -1 1455 1456 1454 -1 1455 1457 1456 -1 1457 1458 1456 -1 1457 1459 1458 -1 1459 1460 1458 -1 1459 1461 1460 -1 1461 1462 1460 -1 1461 1463 1462 -1 1463 1464 1462 -1 1463 1465 1464 -1 1465 1466 1464 -1 1465 1467 1466 -1 1467 1468 1466 -1 1467 1469 1468 -1 1469 1470 1468 -1 1469 1471 1470 -1 1471 1472 1470 -1 1473 1474 1475 -1 1475 1476 1473 -1 1475 1477 1476 -1 1477 1478 1476 -1 1477 1479 1478 -1 1479 1480 1478 -1 1479 1481 1480 -1 1481 1482 1480 -1 1481 1483 1482 -1 1483 1484 1482 -1 1483 1485 1484 -1 1485 1486 1484 -1 1485 1487 1486 -1 1487 1488 1486 -1 1487 1489 1488 -1 1489 1490 1488 -1 1489 1491 1490 -1 1491 1492 1490 -1 1491 1493 1492 -1 1493 1494 1492 -1 1493 1495 1494 -1 1495 1496 1494 -1 1497 1498 1499 -1 1499 1500 1497 -1 1499 1501 1500 -1 1501 1502 1500 -1 1501 1503 1502 -1 1503 1504 1502 -1 1503 1505 1504 -1 1505 1506 1504 -1 1505 1507 1506 -1 1507 1508 1506 -1 1507 1509 1508 -1 1509 1510 1508 -1 1509 1511 1510 -1 1511 1512 1510 -1 1511 1513 1512 -1 1513 1514 1512 -1 1513 1515 1514 -1 1515 1516 1514 -1 1515 1517 1516 -1 1517 1518 1516 -1 1517 1519 1518 -1 1519 1520 1518 -1 1521 1522 1523 -1 1523 1524 1521 -1 1523 1525 1524 -1 1525 1526 1524 -1 1525 1527 1526 -1 1527 1528 1526 -1 1527 1529 1528 -1 1529 1530 1528 -1 1529 1531 1530 -1 1531 1532 1530 -1 1531 1533 1532 -1 1533 1534 1532 -1 1533 1535 1534 -1 1535 1536 1534 -1 1535 1537 1536 -1 1537 1538 1536 -1 1537 1539 1538 -1 1539 1540 1538 -1 1539 1541 1540 -1 1541 1542 1540 -1 1541 1543 1542 -1 1543 1544 1542 -1 1545 1546 1547 -1 1547 1548 1545 -1 1547 1549 1548 -1 1549 1550 1548 -1 1549 1551 1550 -1 1551 1552 1550 -1 1551 1553 1552 -1 1553 1554 1552 -1 1553 1555 1554 -1 1555 1556 1554 -1 1555 1557 1556 -1 1557 1558 1556 -1 1557 1559 1558 -1 1559 1560 1558 -1 1559 1561 1560 -1 1561 1562 1560 -1 1561 1563 1562 -1 1563 1564 1562 -1 1563 1565 1564 -1 1565 1566 1564 -1 1565 1567 1566 -1 1567 1568 1566 -1 1569 1570 1571 -1 1571 1572 1569 -1 1571 1573 1572 -1 1573 1574 1572 -1 1573 1575 1574 -1 1575 1576 1574 -1 1575 1577 1576 -1 1577 1578 1576 -1 1577 1579 1578 -1 1579 1580 1578 -1 1579 1581 1580 -1 1581 1582 1580 -1 1581 1583 1582 -1 1583 1584 1582 -1 1583 1585 1584 -1 1585 1586 1584 -1 1585 1587 1586 -1 1587 1588 1586 -1 1587 1589 1588 -1 1589 1590 1588 -1 1589 1591 1590 -1 1591 1592 1590 -1 "
						                >
							<Coordinate DEF="coords_ME_29-2_001"
							            point="750.125427 -518.523193 0.000000 -69.291336 -518.523193 -3.937008 750.125427 -518.523193 -3.937008 -69.291336 -518.523193 0.000000 750.125427 -0.134150 -3.937008 750.125427 -0.134150 0.000000 -69.291336 -0.134150 0.000000 -69.291336 -0.134150 -3.937008 196.716248 -359.215240 0.000000 196.850388 -358.196259 0.000000 196.716248 -357.177307 0.000000 196.322937 -360.164764 0.000000 196.322937 -356.227753 0.000000 195.697266 -360.980164 0.000000 195.697266 -355.412384 0.000000 194.881897 -361.605804 0.000000 194.881897 -354.786713 0.000000 193.932358 -361.999115 0.000000 193.932358 -354.393402 0.000000 192.913391 -362.133270 0.000000 192.913391 -354.259247 0.000000 191.894409 -361.999115 0.000000 191.894409 -354.393402 0.000000 190.944885 -361.605804 0.000000 190.944885 -354.786713 0.000000 190.129501 -360.980164 0.000000 190.129501 -355.412384 0.000000 189.503830 -360.164764 0.000000 189.503830 -356.227753 0.000000 189.110535 -359.215240 0.000000 189.110535 -357.177307 0.000000 188.976379 -358.196259 0.000000 491.857697 -359.215240 0.000000 491.991821 -358.196259 0.000000 491.857697 -357.177307 0.000000 491.464386 -360.164764 0.000000 491.464386 -356.227753 0.000000 490.838715 -360.980164 0.000000 490.838715 -355.412384 0.000000 490.023315 -361.605804 0.000000 490.023315 -354.786713 0.000000 489.073792 -361.999115 0.000000 489.073792 -354.393402 0.000000 488.054840 -362.133270 0.000000 488.054840 -354.259247 0.000000 487.035858 -361.999115 0.000000 487.035858 -354.393402 0.000000 486.086334 -361.605804 0.000000 486.086334 -354.786713 0.000000 485.270935 -360.980164 0.000000 485.270935 -355.412384 0.000000 484.645264 -360.164764 0.000000 484.645264 -356.227753 0.000000 484.251984 -359.215240 0.000000 484.251984 -357.177307 0.000000 484.117828 -358.196259 0.000000 393.566650 -359.215240 0.000000 393.700775 -358.196259 0.000000 393.566650 -357.177307 0.000000 393.173340 -360.164764 0.000000 393.173340 -356.227753 0.000000 392.547668 -360.980164 0.000000 392.547668 -355.412384 0.000000 391.732269 -361.605804 0.000000 391.732269 -354.786713 0.000000 390.782745 -361.999115 0.000000 390.782745 -354.393402 0.000000 389.763794 -362.133270 0.000000 389.763794 -354.259247 0.000000 388.744812 -361.999115 0.000000 388.744812 -354.393402 0.000000 387.795288 -361.605804 0.000000 387.795288 -354.786713 0.000000 386.979889 -360.980164 0.000000 386.979889 -355.412384 0.000000 386.354218 -360.164764 0.000000 386.354218 -356.227753 0.000000 385.960907 -359.215240 0.000000 385.960907 -357.177307 0.000000 385.826782 -358.196259 0.000000 295.141449 -359.215240 0.000000 295.275604 -358.196259 0.000000 295.141449 -357.177307 0.000000 294.748138 -360.164764 0.000000 294.748138 -356.227753 0.000000 294.122467 -360.980164 0.000000 294.122467 -355.412384 0.000000 293.307098 -361.605804 0.000000 293.307098 -354.786713 0.000000 292.357544 -361.999115 0.000000 292.357544 -354.393402 0.000000 291.338593 -362.133270 0.000000 291.338593 -354.259247 0.000000 290.319611 -361.999115 0.000000 290.319611 -354.393402 0.000000 289.370087 -361.605804 0.000000 289.370087 -354.786713 0.000000 288.554688 -360.980164 0.000000 288.554688 -355.412384 0.000000 287.929047 -360.164764 0.000000 287.929047 -356.227753 0.000000 287.535736 -359.215240 0.000000 287.535736 -357.177307 0.000000 287.401581 -358.196259 0.000000 590.282898 -359.215240 0.000000 590.417053 -358.196259 0.000000 590.282898 -357.177307 0.000000 589.889587 -360.164764 0.000000 589.889587 -356.227753 0.000000 589.263916 -360.980164 0.000000 589.263916 -355.412384 0.000000 588.448547 -361.605804 0.000000 588.448547 -354.786713 0.000000 587.499023 -361.999115 0.000000 587.499023 -354.393402 0.000000 586.480042 -362.133270 0.000000 586.480042 -354.259247 0.000000 585.461060 -361.999115 0.000000 585.461060 -354.393402 0.000000 584.511536 -361.605804 0.000000 584.511536 -354.786713 0.000000 583.696167 -360.980164 0.000000 583.696167 -355.412384 0.000000 583.070496 -360.164764 0.000000 583.070496 -356.227753 0.000000 582.677185 -359.215240 0.000000 582.677185 -357.177307 0.000000 582.543030 -358.196259 0.000000 590.282898 -260.924194 0.000000 590.417053 -259.905212 0.000000 590.282898 -258.886261 0.000000 589.889587 -261.873718 0.000000 589.889587 -257.936707 0.000000 589.263916 -262.689117 0.000000 589.263916 -257.121338 0.000000 588.448547 -263.314758 0.000000 588.448547 -256.495667 0.000000 587.499023 -263.708069 0.000000 587.499023 -256.102356 0.000000 586.480042 -263.842224 0.000000 586.480042 -255.968216 0.000000 585.461060 -263.708069 0.000000 585.461060 -256.102356 0.000000 584.511536 -263.314758 0.000000 584.511536 -256.495667 0.000000 583.696167 -262.689117 0.000000 583.696167 -257.121338 0.000000 583.070496 -261.873718 0.000000 583.070496 -257.936707 0.000000 582.677185 -260.924194 0.000000 582.677185 -258.886261 0.000000 582.543030 -259.905212 0.000000 98.291046 -260.924194 0.000000 98.425194 -259.905212 0.000000 98.291046 -258.886261 0.000000 97.897736 -261.873718 0.000000 97.897736 -257.936707 0.000000 97.272072 -262.689117 0.000000 97.272072 -257.121338 0.000000 96.456696 -263.314758 0.000000 96.456696 -256.495667 0.000000 95.507164 -263.708069 0.000000 95.507164 -256.102356 0.000000 94.488190 -263.842224 0.000000 94.488190 -255.968216 0.000000 93.469215 -263.708069 0.000000 93.469215 -256.102356 0.000000 92.519684 -263.314758 0.000000 92.519684 -256.495667 0.000000 91.704308 -262.689117 0.000000 91.704308 -257.121338 0.000000 91.078644 -261.873718 0.000000 91.078644 -257.936707 0.000000 90.685333 -260.924194 0.000000 90.685333 -258.886261 0.000000 90.551178 -259.905212 0.000000 98.291046 -359.215240 0.000000 98.425194 -358.196259 0.000000 98.291046 -357.177307 0.000000 97.897736 -360.164764 0.000000 97.897736 -356.227753 0.000000 97.272072 -360.980164 0.000000 97.272072 -355.412384 0.000000 96.456696 -361.605804 0.000000 96.456696 -354.786713 0.000000 95.507164 -361.999115 0.000000 95.507164 -354.393402 0.000000 94.488190 -362.133270 0.000000 94.488190 -354.259247 0.000000 93.469215 -361.999115 0.000000 93.469215 -354.393402 0.000000 92.519684 -361.605804 0.000000 92.519684 -354.786713 0.000000 91.704308 -360.980164 0.000000 91.704308 -355.412384 0.000000 91.078644 -360.164764 0.000000 91.078644 -356.227753 0.000000 90.685333 -359.215240 0.000000 90.685333 -357.177307 0.000000 90.551178 -358.196259 0.000000 590.282898 -162.633148 0.000000 590.417053 -161.614166 0.000000 590.282898 -160.595200 0.000000 589.889587 -163.582672 0.000000 589.889587 -159.645676 0.000000 589.263916 -164.398056 0.000000 589.263916 -158.830292 0.000000 588.448547 -165.023727 0.000000 588.448547 -158.204620 0.000000 587.499023 -165.417038 0.000000 587.499023 -157.811310 0.000000 586.480042 -165.551178 0.000000 586.480042 -157.677170 0.000000 585.461060 -165.417038 0.000000 585.461060 -157.811310 0.000000 584.511536 -165.023727 0.000000 584.511536 -158.204620 0.000000 583.696167 -164.398056 0.000000 583.696167 -158.830292 0.000000 583.070496 -163.582672 0.000000 583.070496 -159.645676 0.000000 582.677185 -162.633148 0.000000 582.677185 -160.595200 0.000000 582.543030 -161.614166 0.000000 196.716248 -162.633148 0.000000 196.850388 -161.614166 0.000000 196.716248 -160.595200 0.000000 196.322937 -163.582672 0.000000 196.322937 -159.645676 0.000000 195.697266 -164.398056 0.000000 195.697266 -158.830292 0.000000 194.881897 -165.023727 0.000000 194.881897 -158.204620 0.000000 193.932358 -165.417038 0.000000 193.932358 -157.811310 0.000000 192.913391 -165.551178 0.000000 192.913391 -157.677170 0.000000 191.894409 -165.417038 0.000000 191.894409 -157.811310 0.000000 190.944885 -165.023727 0.000000 190.944885 -158.204620 0.000000 190.129501 -164.398056 0.000000 190.129501 -158.830292 0.000000 189.503830 -163.582672 0.000000 189.503830 -159.645676 0.000000 189.110535 -162.633148 0.000000 189.110535 -160.595200 0.000000 188.976379 -161.614166 0.000000 98.291046 -162.633148 0.000000 98.425194 -161.614166 0.000000 98.291046 -160.595200 0.000000 97.897736 -163.582672 0.000000 97.897736 -159.645676 0.000000 97.272072 -164.398056 0.000000 97.272072 -158.830292 0.000000 96.456696 -165.023727 0.000000 96.456696 -158.204620 0.000000 95.507164 -165.417038 0.000000 95.507164 -157.811310 0.000000 94.488190 -165.551178 0.000000 94.488190 -157.677170 0.000000 93.469215 -165.417038 0.000000 93.469215 -157.811310 0.000000 92.519684 -165.023727 0.000000 92.519684 -158.204620 0.000000 91.704308 -164.398056 0.000000 91.704308 -158.830292 0.000000 91.078644 -163.582672 0.000000 91.078644 -159.645676 0.000000 90.685333 -162.633148 0.000000 90.685333 -160.595200 0.000000 90.551178 -161.614166 0.000000 491.857697 -162.633148 0.000000 491.991821 -161.614166 0.000000 491.857697 -160.595200 0.000000 491.464386 -163.582672 0.000000 491.464386 -159.645676 0.000000 490.838715 -164.398056 0.000000 490.838715 -158.830292 0.000000 490.023315 -165.023727 0.000000 490.023315 -158.204620 0.000000 489.073792 -165.417038 0.000000 489.073792 -157.811310 0.000000 488.054840 -165.551178 0.000000 488.054840 -157.677170 0.000000 487.035858 -165.417038 0.000000 487.035858 -157.811310 0.000000 486.086334 -165.023727 0.000000 486.086334 -158.204620 0.000000 485.270935 -164.398056 0.000000 485.270935 -158.830292 0.000000 484.645264 -163.582672 0.000000 484.645264 -159.645676 0.000000 484.251984 -162.633148 0.000000 484.251984 -160.595200 0.000000 484.117828 -161.614166 0.000000 295.141449 -162.633148 0.000000 295.275604 -161.614166 0.000000 295.141449 -160.595200 0.000000 294.748138 -163.582672 0.000000 294.748138 -159.645676 0.000000 294.122467 -164.398056 0.000000 294.122467 -158.830292 0.000000 293.307098 -165.023727 0.000000 293.307098 -158.204620 0.000000 292.357544 -165.417038 0.000000 292.357544 -157.811310 0.000000 291.338593 -165.551178 0.000000 291.338593 -157.677170 0.000000 290.319611 -165.417038 0.000000 290.319611 -157.811310 0.000000 289.370087 -165.023727 0.000000 289.370087 -158.204620 0.000000 288.554688 -164.398056 0.000000 288.554688 -158.830292 0.000000 287.929047 -163.582672 0.000000 287.929047 -159.645676 0.000000 287.535736 -162.633148 0.000000 287.535736 -160.595200 0.000000 287.401581 -161.614166 0.000000 393.566650 -162.633148 0.000000 393.700775 -161.614166 0.000000 393.566650 -160.595200 0.000000 393.173340 -163.582672 0.000000 393.173340 -159.645676 0.000000 392.547668 -164.398056 0.000000 392.547668 -158.830292 0.000000 391.732269 -165.023727 0.000000 391.732269 -158.204620 0.000000 390.782745 -165.417038 0.000000 390.782745 -157.811310 0.000000 389.763794 -165.551178 0.000000 389.763794 -157.677170 0.000000 388.744812 -165.417038 0.000000 388.744812 -157.811310 0.000000 387.795288 -165.023727 0.000000 387.795288 -158.204620 0.000000 386.979889 -164.398056 0.000000 386.979889 -158.830292 0.000000 386.354218 -163.582672 0.000000 386.354218 -159.645676 0.000000 385.960907 -162.633148 0.000000 385.960907 -160.595200 0.000000 385.826782 -161.614166 0.000000 590.282898 -64.207947 0.000000 590.417053 -63.188976 0.000000 590.282898 -62.170002 0.000000 589.889587 -65.157478 0.000000 589.889587 -61.220474 0.000000 589.263916 -65.972862 0.000000 589.263916 -60.405090 0.000000 588.448547 -66.598526 0.000000 588.448547 -59.779427 0.000000 587.499023 -66.991837 0.000000 587.499023 -59.386120 0.000000 586.480042 -67.125984 0.000000 586.480042 -59.251968 0.000000 585.461060 -66.991837 0.000000 585.461060 -59.386120 0.000000 584.511536 -66.598526 0.000000 584.511536 -59.779427 0.000000 583.696167 -65.972862 0.000000 583.696167 -60.405090 0.000000 583.070496 -65.157478 0.000000 583.070496 -61.220474 0.000000 582.677185 -64.207947 0.000000 582.677185 -62.170002 0.000000 582.543030 -63.188976 0.000000 98.291046 -64.207947 0.000000 98.425194 -63.188976 0.000000 98.291046 -62.170002 0.000000 97.897736 -65.157478 0.000000 97.897736 -61.220474 0.000000 97.272072 -65.972862 0.000000 97.272072 -60.405090 0.000000 96.456696 -66.598526 0.000000 96.456696 -59.779427 0.000000 95.507164 -66.991837 0.000000 95.507164 -59.386120 0.000000 94.488190 -67.125984 0.000000 94.488190 -59.251968 0.000000 93.469215 -66.991837 0.000000 93.469215 -59.386120 0.000000 92.519684 -66.598526 0.000000 92.519684 -59.779427 0.000000 91.704308 -65.972862 0.000000 91.704308 -60.405090 0.000000 91.078644 -65.157478 0.000000 91.078644 -61.220474 0.000000 90.685333 -64.207947 0.000000 90.685333 -62.170002 0.000000 90.551178 -63.188976 0.000000 196.716248 -64.207947 0.000000 196.850388 -63.188976 0.000000 196.716248 -62.170002 0.000000 196.322937 -65.157478 0.000000 196.322937 -61.220474 0.000000 195.697266 -65.972862 0.000000 195.697266 -60.405090 0.000000 194.881897 -66.598526 0.000000 194.881897 -59.779427 0.000000 193.932358 -66.991837 0.000000 193.932358 -59.386120 0.000000 192.913391 -67.125984 0.000000 192.913391 -59.251968 0.000000 191.894409 -66.991837 0.000000 191.894409 -59.386120 0.000000 190.944885 -66.598526 0.000000 190.944885 -59.779427 0.000000 190.129501 -65.972862 0.000000 190.129501 -60.405090 0.000000 189.503830 -65.157478 0.000000 189.503830 -61.220474 0.000000 189.110535 -64.207947 0.000000 189.110535 -62.170002 0.000000 188.976379 -63.188976 0.000000 295.141449 -64.207947 0.000000 295.275604 -63.188976 0.000000 295.141449 -62.170002 0.000000 294.748138 -65.157478 0.000000 294.748138 -61.220474 0.000000 294.122467 -65.972862 0.000000 294.122467 -60.405090 0.000000 293.307098 -66.598526 0.000000 293.307098 -59.779427 0.000000 292.357544 -66.991837 0.000000 292.357544 -59.386120 0.000000 291.338593 -67.125984 0.000000 291.338593 -59.251968 0.000000 290.319611 -66.991837 0.000000 290.319611 -59.386120 0.000000 289.370087 -66.598526 0.000000 289.370087 -59.779427 0.000000 288.554688 -65.972862 0.000000 288.554688 -60.405090 0.000000 287.929047 -65.157478 0.000000 287.929047 -61.220474 0.000000 287.535736 -64.207947 0.000000 287.535736 -62.170002 0.000000 287.401581 -63.188976 0.000000 393.566650 -64.207947 0.000000 393.700775 -63.188976 0.000000 393.566650 -62.170002 0.000000 393.173340 -65.157478 0.000000 393.173340 -61.220474 0.000000 392.547668 -65.972862 0.000000 392.547668 -60.405090 0.000000 391.732269 -66.598526 0.000000 391.732269 -59.779427 0.000000 390.782745 -66.991837 0.000000 390.782745 -59.386120 0.000000 389.763794 -67.125984 0.000000 389.763794 -59.251968 0.000000 388.744812 -66.991837 0.000000 388.744812 -59.386120 0.000000 387.795288 -66.598526 0.000000 387.795288 -59.779427 0.000000 386.979889 -65.972862 0.000000 386.979889 -60.405090 0.000000 386.354218 -65.157478 0.000000 386.354218 -61.220474 0.000000 385.960907 -64.207947 0.000000 385.960907 -62.170002 0.000000 385.826782 -63.188976 0.000000 491.857697 -64.207947 0.000000 491.991821 -63.188976 0.000000 491.857697 -62.170002 0.000000 491.464386 -65.157478 0.000000 491.464386 -61.220474 0.000000 490.838715 -65.972862 0.000000 490.838715 -60.405090 0.000000 490.023315 -66.598526 0.000000 490.023315 -59.779427 0.000000 489.073792 -66.991837 0.000000 489.073792 -59.386120 0.000000 488.054840 -67.125984 0.000000 488.054840 -59.251968 0.000000 487.035858 -66.991837 0.000000 487.035858 -59.386120 0.000000 486.086334 -66.598526 0.000000 486.086334 -59.779427 0.000000 485.270935 -65.972862 0.000000 485.270935 -60.405090 0.000000 484.645264 -65.157478 0.000000 484.645264 -61.220474 0.000000 484.251984 -64.207947 0.000000 484.251984 -62.170002 0.000000 484.117828 -63.188976 0.000000 98.291046 -457.506287 0.000000 98.425194 -456.487305 0.000000 98.291046 -455.468353 0.000000 97.897736 -458.455811 0.000000 97.897736 -454.518799 0.000000 97.272072 -459.271210 0.000000 97.272072 -453.703430 0.000000 96.456696 -459.896851 0.000000 96.456696 -453.077759 0.000000 95.507164 -460.290161 0.000000 95.507164 -452.684448 0.000000 94.488190 -460.424316 0.000000 94.488190 -452.550293 0.000000 93.469215 -460.290161 0.000000 93.469215 -452.684448 0.000000 92.519684 -459.896851 0.000000 92.519684 -453.077759 0.000000 91.704308 -459.271210 0.000000 91.704308 -453.703430 0.000000 91.078644 -458.455811 0.000000 91.078644 -454.518799 0.000000 90.685333 -457.506287 0.000000 90.685333 -455.468353 0.000000 90.551178 -456.487305 0.000000 -0.134150 -457.506287 0.000000 -0.000000 -456.487305 0.000000 -0.134150 -455.468353 0.000000 -0.527459 -458.455811 0.000000 -0.527459 -454.518799 0.000000 -1.153123 -459.271210 0.000000 -1.153123 -453.703430 0.000000 -1.968504 -459.896851 0.000000 -1.968504 -453.077759 0.000000 -2.918035 -460.290161 0.000000 -2.918035 -452.684448 0.000000 -3.937008 -460.424316 0.000000 -3.937008 -452.550293 0.000000 -4.955980 -460.290161 0.000000 -4.955980 -452.684448 0.000000 -5.905512 -459.896851 0.000000 -5.905512 -453.077759 0.000000 -6.720893 -459.271210 0.000000 -6.720893 -453.703430 0.000000 -7.346557 -458.455811 0.000000 -7.346557 -454.518799 0.000000 -7.739865 -457.506287 0.000000 -7.739865 -455.468353 0.000000 -7.874016 -456.487305 0.000000 196.716248 -457.506287 0.000000 196.850388 -456.487305 0.000000 196.716248 -455.468353 0.000000 196.322937 -458.455811 0.000000 196.322937 -454.518799 0.000000 195.697266 -459.271210 0.000000 195.697266 -453.703430 0.000000 194.881897 -459.896851 0.000000 194.881897 -453.077759 0.000000 193.932358 -460.290161 0.000000 193.932358 -452.684448 0.000000 192.913391 -460.424316 0.000000 192.913391 -452.550293 0.000000 191.894409 -460.290161 0.000000 191.894409 -452.684448 0.000000 190.944885 -459.896851 0.000000 190.944885 -453.077759 0.000000 190.129501 -459.271210 0.000000 190.129501 -453.703430 0.000000 189.503830 -458.455811 0.000000 189.503830 -454.518799 0.000000 189.110535 -457.506287 0.000000 189.110535 -455.468353 0.000000 188.976379 -456.487305 0.000000 295.141449 -457.506287 0.000000 295.275604 -456.487305 0.000000 295.141449 -455.468353 0.000000 294.748138 -458.455811 0.000000 294.748138 -454.518799 0.000000 294.122467 -459.271210 0.000000 294.122467 -453.703430 0.000000 293.307098 -459.896851 0.000000 293.307098 -453.077759 0.000000 292.357544 -460.290161 0.000000 292.357544 -452.684448 0.000000 291.338593 -460.424316 0.000000 291.338593 -452.550293 0.000000 290.319611 -460.290161 0.000000 290.319611 -452.684448 0.000000 289.370087 -459.896851 0.000000 289.370087 -453.077759 0.000000 288.554688 -459.271210 0.000000 288.554688 -453.703430 0.000000 287.929047 -458.455811 0.000000 287.929047 -454.518799 0.000000 287.535736 -457.506287 0.000000 287.535736 -455.468353 0.000000 287.401581 -456.487305 0.000000 688.573914 -457.506287 0.000000 688.708069 -456.487305 0.000000 688.573914 -455.468353 0.000000 688.180603 -458.455811 0.000000 688.180603 -454.518799 0.000000 687.554932 -459.271210 0.000000 687.554932 -453.703430 0.000000 686.739563 -459.896851 0.000000 686.739563 -453.077759 0.000000 685.790039 -460.290161 0.000000 685.790039 -452.684448 0.000000 684.771057 -460.424316 0.000000 684.771057 -452.550293 0.000000 683.752075 -460.290161 0.000000 683.752075 -452.684448 0.000000 682.802551 -459.896851 0.000000 682.802551 -453.077759 0.000000 681.987183 -459.271210 0.000000 681.987183 -453.703430 0.000000 681.361511 -458.455811 0.000000 681.361511 -454.518799 0.000000 680.968201 -457.506287 0.000000 680.968201 -455.468353 0.000000 680.834045 -456.487305 0.000000 393.566650 -457.506287 0.000000 393.700775 -456.487305 0.000000 393.566650 -455.468353 0.000000 393.173340 -458.455811 0.000000 393.173340 -454.518799 0.000000 392.547668 -459.271210 0.000000 392.547668 -453.703430 0.000000 391.732269 -459.896851 0.000000 391.732269 -453.077759 0.000000 390.782745 -460.290161 0.000000 390.782745 -452.684448 0.000000 389.763794 -460.424316 0.000000 389.763794 -452.550293 0.000000 388.744812 -460.290161 0.000000 388.744812 -452.684448 0.000000 387.795288 -459.896851 0.000000 387.795288 -453.077759 0.000000 386.979889 -459.271210 0.000000 386.979889 -453.703430 0.000000 386.354218 -458.455811 0.000000 386.354218 -454.518799 0.000000 385.960907 -457.506287 0.000000 385.960907 -455.468353 0.000000 385.826782 -456.487305 0.000000 491.857697 -457.506287 0.000000 491.991821 -456.487305 0.000000 491.857697 -455.468353 0.000000 491.464386 -458.455811 0.000000 491.464386 -454.518799 0.000000 490.838715 -459.271210 0.000000 490.838715 -453.703430 0.000000 490.023315 -459.896851 0.000000 490.023315 -453.077759 0.000000 489.073792 -460.290161 0.000000 489.073792 -452.684448 0.000000 488.054840 -460.424316 0.000000 488.054840 -452.550293 0.000000 487.035858 -460.290161 0.000000 487.035858 -452.684448 0.000000 486.086334 -459.896851 0.000000 486.086334 -453.077759 0.000000 485.270935 -459.271210 0.000000 485.270935 -453.703430 0.000000 484.645264 -458.455811 0.000000 484.645264 -454.518799 0.000000 484.251984 -457.506287 0.000000 484.251984 -455.468353 0.000000 484.117828 -456.487305 0.000000 590.282898 -457.506287 0.000000 590.417053 -456.487305 0.000000 590.282898 -455.468353 0.000000 589.889587 -458.455811 0.000000 589.889587 -454.518799 0.000000 589.263916 -459.271210 0.000000 589.263916 -453.703430 0.000000 588.448547 -459.896851 0.000000 588.448547 -453.077759 0.000000 587.499023 -460.290161 0.000000 587.499023 -452.684448 0.000000 586.480042 -460.424316 0.000000 586.480042 -452.550293 0.000000 585.461060 -460.290161 0.000000 585.461060 -452.684448 0.000000 584.511536 -459.896851 0.000000 584.511536 -453.077759 0.000000 583.696167 -459.271210 0.000000 583.696167 -453.703430 0.000000 583.070496 -458.455811 0.000000 583.070496 -454.518799 0.000000 582.677185 -457.506287 0.000000 582.677185 -455.468353 0.000000 582.543030 -456.487305 0.000000 688.573914 -359.215240 0.000000 688.708069 -358.196259 0.000000 688.573914 -357.177307 0.000000 688.180603 -360.164764 0.000000 688.180603 -356.227753 0.000000 687.554932 -360.980164 0.000000 687.554932 -355.412384 0.000000 686.739563 -361.605804 0.000000 686.739563 -354.786713 0.000000 685.790039 -361.999115 0.000000 685.790039 -354.393402 0.000000 684.771057 -362.133270 0.000000 684.771057 -354.259247 0.000000 683.752075 -361.999115 0.000000 683.752075 -354.393402 0.000000 682.802551 -361.605804 0.000000 682.802551 -354.786713 0.000000 681.987183 -360.980164 0.000000 681.987183 -355.412384 0.000000 681.361511 -360.164764 0.000000 681.361511 -356.227753 0.000000 680.968201 -359.215240 0.000000 680.968201 -357.177307 0.000000 680.834045 -358.196259 0.000000 688.573914 -260.924194 0.000000 688.708069 -259.905212 0.000000 688.573914 -258.886261 0.000000 688.180603 -261.873718 0.000000 688.180603 -257.936707 0.000000 687.554932 -262.689117 0.000000 687.554932 -257.121338 0.000000 686.739563 -263.314758 0.000000 686.739563 -256.495667 0.000000 685.790039 -263.708069 0.000000 685.790039 -256.102356 0.000000 684.771057 -263.842224 0.000000 684.771057 -255.968216 0.000000 683.752075 -263.708069 0.000000 683.752075 -256.102356 0.000000 682.802551 -263.314758 0.000000 682.802551 -256.495667 0.000000 681.987183 -262.689117 0.000000 681.987183 -257.121338 0.000000 681.361511 -261.873718 0.000000 681.361511 -257.936707 0.000000 680.968201 -260.924194 0.000000 680.968201 -258.886261 0.000000 680.834045 -259.905212 0.000000 688.573914 -64.207947 0.000000 688.708069 -63.188976 0.000000 688.573914 -62.170002 0.000000 688.180603 -65.157478 0.000000 688.180603 -61.220474 0.000000 687.554932 -65.972862 0.000000 687.554932 -60.405090 0.000000 686.739563 -66.598526 0.000000 686.739563 -59.779427 0.000000 685.790039 -66.991837 0.000000 685.790039 -59.386120 0.000000 684.771057 -67.125984 0.000000 684.771057 -59.251968 0.000000 683.752075 -66.991837 0.000000 683.752075 -59.386120 0.000000 682.802551 -66.598526 0.000000 682.802551 -59.779427 0.000000 681.987183 -65.972862 0.000000 681.987183 -60.405090 0.000000 681.361511 -65.157478 0.000000 681.361511 -61.220474 0.000000 680.968201 -64.207947 0.000000 680.968201 -62.170002 0.000000 680.834045 -63.188976 0.000000 688.573914 -162.633148 0.000000 688.708069 -161.614166 0.000000 688.573914 -160.595200 0.000000 688.180603 -163.582672 0.000000 688.180603 -159.645676 0.000000 687.554932 -164.398056 0.000000 687.554932 -158.830292 0.000000 686.739563 -165.023727 0.000000 686.739563 -158.204620 0.000000 685.790039 -165.417038 0.000000 685.790039 -157.811310 0.000000 684.771057 -165.551178 0.000000 684.771057 -157.677170 0.000000 683.752075 -165.417038 0.000000 683.752075 -157.811310 0.000000 682.802551 -165.023727 0.000000 682.802551 -158.204620 0.000000 681.987183 -164.398056 0.000000 681.987183 -158.830292 0.000000 681.361511 -163.582672 0.000000 681.361511 -159.645676 0.000000 680.968201 -162.633148 0.000000 680.968201 -160.595200 0.000000 680.834045 -161.614166 0.000000 -0.134150 -64.207947 0.000000 0.000000 -63.188976 0.000000 -0.134150 -62.170002 0.000000 -0.527459 -65.157478 0.000000 -0.527459 -61.220474 0.000000 -1.153123 -65.972862 0.000000 -1.153123 -60.405090 0.000000 -1.968504 -66.598526 0.000000 -1.968504 -59.779427 0.000000 -2.918035 -66.991837 0.000000 -2.918035 -59.386120 0.000000 -3.937008 -67.125984 0.000000 -3.937008 -59.251968 0.000000 -4.955980 -66.991837 0.000000 -4.955980 -59.386120 0.000000 -5.905512 -66.598526 0.000000 -5.905512 -59.779427 0.000000 -6.720893 -65.972862 0.000000 -6.720893 -60.405090 0.000000 -7.346557 -65.157478 0.000000 -7.346557 -61.220474 0.000000 -7.739865 -64.207947 0.000000 -7.739865 -62.170002 0.000000 -7.874016 -63.188976 0.000000 -0.134150 -260.924194 0.000000 0.000000 -259.905212 0.000000 -0.134150 -258.886261 0.000000 -0.527459 -261.873718 0.000000 -0.527459 -257.936707 0.000000 -1.153123 -262.689117 0.000000 -1.153123 -257.121338 0.000000 -1.968504 -263.314758 0.000000 -1.968504 -256.495667 0.000000 -2.918035 -263.708069 0.000000 -2.918035 -256.102356 0.000000 -3.937008 -263.842224 0.000000 -3.937008 -255.968216 0.000000 -4.955980 -263.708069 0.000000 -4.955980 -256.102356 0.000000 -5.905512 -263.314758 0.000000 -5.905512 -256.495667 0.000000 -6.720893 -262.689117 0.000000 -6.720893 -257.121338 0.000000 -7.346557 -261.873718 0.000000 -7.346557 -257.936707 0.000000 -7.739865 -260.924194 0.000000 -7.739865 -258.886261 0.000000 -7.874016 -259.905212 0.000000 -0.134150 -359.215240 0.000000 0.000000 -358.196259 0.000000 -0.134150 -357.177307 0.000000 -0.527459 -360.164764 0.000000 -0.527459 -356.227753 0.000000 -1.153123 -360.980164 0.000000 -1.153123 -355.412384 0.000000 -1.968504 -361.605804 0.000000 -1.968504 -354.786713 0.000000 -2.918035 -361.999115 0.000000 -2.918035 -354.393402 0.000000 -3.937008 -362.133270 0.000000 -3.937008 -354.259247 0.000000 -4.955980 -361.999115 0.000000 -4.955980 -354.393402 0.000000 -5.905512 -361.605804 0.000000 -5.905512 -354.786713 0.000000 -6.720893 -360.980164 0.000000 -6.720893 -355.412384 0.000000 -7.346557 -360.164764 0.000000 -7.346557 -356.227753 0.000000 -7.739865 -359.215240 0.000000 -7.739865 -357.177307 0.000000 -7.874016 -358.196259 0.000000 -0.134150 -162.633148 0.000000 0.000000 -161.614166 0.000000 -0.134150 -160.595200 0.000000 -0.527459 -163.582672 0.000000 -0.527459 -159.645676 0.000000 -1.153123 -164.398056 0.000000 -1.153123 -158.830292 0.000000 -1.968504 -165.023727 0.000000 -1.968504 -158.204620 0.000000 -2.918035 -165.417038 0.000000 -2.918035 -157.811310 0.000000 -3.937008 -165.551178 0.000000 -3.937008 -157.677170 0.000000 -4.955980 -165.417038 0.000000 -4.955980 -157.811310 0.000000 -5.905512 -165.023727 0.000000 -5.905512 -158.204620 0.000000 -6.720893 -164.398056 0.000000 -6.720893 -158.830292 0.000000 -7.346557 -163.582672 0.000000 -7.346557 -159.645676 0.000000 -7.739865 -162.633148 0.000000 -7.739865 -160.595200 0.000000 -7.874016 -161.614166 0.000000 0.000000 -456.487305 0.000000 -65.488480 -457.506287 0.000000 -65.354332 -456.487305 0.000000 -65.488480 -455.468353 0.000000 -65.881790 -458.455811 0.000000 -65.881790 -454.518799 0.000000 -66.507454 -459.271210 0.000000 -66.507454 -453.703430 0.000000 -67.322838 -459.896851 0.000000 -67.322838 -453.077759 0.000000 -68.272369 -460.290161 0.000000 -68.272369 -452.684448 0.000000 -69.291336 -460.424316 0.000000 -69.291336 -452.550293 0.000000 -70.310310 -460.290161 0.000000 -70.310310 -452.684448 0.000000 -71.259842 -459.896851 0.000000 -71.259842 -453.077759 0.000000 -72.075226 -459.271210 0.000000 -72.075226 -453.703430 0.000000 -72.700890 -458.455811 0.000000 -72.700890 -454.518799 0.000000 -73.094193 -457.506287 0.000000 -73.094193 -455.468353 0.000000 -73.228348 -456.487305 0.000000 688.573914 -1.018973 0.000000 688.708069 -0.000000 0.000000 688.573914 1.018973 0.000000 688.180603 -1.968504 0.000000 688.180603 1.968504 0.000000 687.554932 -2.783885 0.000000 687.554932 2.783885 0.000000 686.739563 -3.409549 0.000000 686.739563 3.409549 0.000000 685.790039 -3.802858 0.000000 685.790039 3.802858 0.000000 684.771057 -3.937008 0.000000 684.771057 3.937008 0.000000 683.752075 -3.802858 0.000000 683.752075 3.802858 0.000000 682.802551 -3.409549 0.000000 682.802551 3.409549 0.000000 681.987183 -2.783885 0.000000 681.987183 2.783885 0.000000 681.361511 -1.968504 0.000000 681.361511 1.968504 0.000000 680.968201 -1.018973 0.000000 680.968201 1.018973 0.000000 680.834045 -0.000000 0.000000 590.282898 -1.018973 0.000000 590.417053 -0.000000 0.000000 590.282898 1.018973 0.000000 589.889587 -1.968504 0.000000 589.889587 1.968504 0.000000 589.263916 -2.783885 0.000000 589.263916 2.783885 0.000000 588.448547 -3.409549 0.000000 588.448547 3.409549 0.000000 587.499023 -3.802858 0.000000 587.499023 3.802858 0.000000 586.480042 -3.937008 0.000000 586.480042 3.937008 0.000000 585.461060 -3.802858 0.000000 585.461060 3.802858 0.000000 584.511536 -3.409549 0.000000 584.511536 3.409549 0.000000 583.696167 -2.783885 0.000000 583.696167 2.783885 0.000000 583.070496 -1.968504 0.000000 583.070496 1.968504 0.000000 582.677185 -1.018973 0.000000 582.677185 1.018973 0.000000 582.543030 -0.000000 0.000000 491.857697 -1.018973 0.000000 491.991821 -0.000000 0.000000 491.857697 1.018973 0.000000 491.464386 -1.968504 0.000000 491.464386 1.968504 0.000000 490.838715 -2.783885 0.000000 490.838715 2.783885 0.000000 490.023315 -3.409549 0.000000 490.023315 3.409549 0.000000 489.073792 -3.802858 0.000000 489.073792 3.802858 0.000000 488.054840 -3.937008 0.000000 488.054840 3.937008 0.000000 487.035858 -3.802858 0.000000 487.035858 3.802858 0.000000 486.086334 -3.409549 0.000000 486.086334 3.409549 0.000000 485.270935 -2.783885 0.000000 485.270935 2.783885 0.000000 484.645264 -1.968504 0.000000 484.645264 1.968504 0.000000 484.251984 -1.018973 0.000000 484.251984 1.018973 0.000000 484.117828 -0.000000 0.000000 393.566650 -1.018973 0.000000 393.700775 -0.000000 0.000000 393.566650 1.018973 0.000000 393.173340 -1.968504 0.000000 393.173340 1.968504 0.000000 392.547668 -2.783885 0.000000 392.547668 2.783885 0.000000 391.732269 -3.409549 0.000000 391.732269 3.409549 0.000000 390.782745 -3.802858 0.000000 390.782745 3.802858 0.000000 389.763794 -3.937008 0.000000 389.763794 3.937008 0.000000 388.744812 -3.802858 0.000000 388.744812 3.802858 0.000000 387.795288 -3.409549 0.000000 387.795288 3.409549 0.000000 386.979889 -2.783885 0.000000 386.979889 2.783885 0.000000 386.354218 -1.968504 0.000000 386.354218 1.968504 0.000000 385.960907 -1.018973 0.000000 385.960907 1.018973 0.000000 385.826782 -0.000000 0.000000 295.141449 -1.018973 0.000000 295.275604 -0.000000 0.000000 295.141449 1.018973 0.000000 294.748138 -1.968504 0.000000 294.748138 1.968504 0.000000 294.122467 -2.783885 0.000000 294.122467 2.783885 0.000000 293.307098 -3.409549 0.000000 293.307098 3.409549 0.000000 292.357544 -3.802858 0.000000 292.357544 3.802858 0.000000 291.338593 -3.937008 0.000000 291.338593 3.937008 0.000000 290.319611 -3.802858 0.000000 290.319611 3.802858 0.000000 289.370087 -3.409549 0.000000 289.370087 3.409549 0.000000 288.554688 -2.783885 0.000000 288.554688 2.783885 0.000000 287.929047 -1.968504 0.000000 287.929047 1.968504 0.000000 287.535736 -1.018973 0.000000 287.535736 1.018973 0.000000 287.401581 -0.000000 0.000000 -65.488480 -162.633148 0.000000 -65.354332 -161.614166 0.000000 -65.488480 -160.595200 0.000000 -65.881790 -163.582672 0.000000 -65.881790 -159.645676 0.000000 -66.507454 -164.398056 0.000000 -66.507454 -158.830292 0.000000 -67.322838 -165.023727 0.000000 -67.322838 -158.204620 0.000000 -68.272369 -165.417038 0.000000 -68.272369 -157.811310 0.000000 -69.291336 -165.551178 0.000000 -69.291336 -157.677170 0.000000 -70.310310 -165.417038 0.000000 -70.310310 -157.811310 0.000000 -71.259842 -165.023727 0.000000 -71.259842 -158.204620 0.000000 -72.075226 -164.398056 0.000000 -72.075226 -158.830292 0.000000 -72.700890 -163.582672 0.000000 -72.700890 -159.645676 0.000000 -73.094193 -162.633148 0.000000 -73.094193 -160.595200 0.000000 -73.228348 -161.614166 0.000000 753.794128 -1.018973 0.000000 753.928284 -0.000000 0.000000 753.794128 1.018973 0.000000 753.400818 -1.968504 0.000000 753.400818 1.968504 0.000000 752.775146 -2.783885 0.000000 752.775146 2.783885 0.000000 751.959778 -3.409549 0.000000 751.959778 3.409549 0.000000 751.010193 -3.802858 0.000000 751.010193 3.802858 0.000000 749.991272 -3.937008 0.000000 749.991272 3.937008 0.000000 748.972290 -3.802858 0.000000 748.972290 3.802858 0.000000 748.022766 -3.409549 0.000000 748.022766 3.409549 0.000000 747.207336 -2.783885 0.000000 747.207336 2.783885 0.000000 746.581726 -1.968504 0.000000 746.581726 1.968504 0.000000 746.188416 -1.018973 0.000000 746.188416 1.018973 0.000000 746.054260 -0.000000 0.000000 -65.488480 -1.018973 0.000000 -65.354332 -0.000000 0.000000 -65.488480 1.018973 0.000000 -65.881790 -1.968504 0.000000 -65.881790 1.968504 0.000000 -66.507454 -2.783885 0.000000 -66.507454 2.783885 0.000000 -67.322838 -3.409549 0.000000 -67.322838 3.409549 0.000000 -68.272369 -3.802858 0.000000 -68.272369 3.802858 0.000000 -69.291336 -3.937008 0.000000 -69.291336 3.937008 0.000000 -70.310310 -3.802858 0.000000 -70.310310 3.802858 0.000000 -71.259842 -3.409549 0.000000 -71.259842 3.409549 0.000000 -72.075226 -2.783885 0.000000 -72.075226 2.783885 0.000000 -72.700890 -1.968504 0.000000 -72.700890 1.968504 0.000000 -73.094193 -1.018973 0.000000 -73.094193 1.018973 0.000000 -73.228348 -0.000000 0.000000 -65.488480 -359.215240 0.000000 -65.354332 -358.196259 0.000000 -65.488480 -357.177307 0.000000 -65.881790 -360.164764 0.000000 -65.881790 -356.227753 0.000000 -66.507454 -360.980164 0.000000 -66.507454 -355.412384 0.000000 -67.322838 -361.605804 0.000000 -67.322838 -354.786713 0.000000 -68.272369 -361.999115 0.000000 -68.272369 -354.393402 0.000000 -69.291336 -362.133270 0.000000 -69.291336 -354.259247 0.000000 -70.310310 -361.999115 0.000000 -70.310310 -354.393402 0.000000 -71.259842 -361.605804 0.000000 -71.259842 -354.786713 0.000000 -72.075226 -360.980164 0.000000 -72.075226 -355.412384 0.000000 -72.700890 -360.164764 0.000000 -72.700890 -356.227753 0.000000 -73.094193 -359.215240 0.000000 -73.094193 -357.177307 0.000000 -73.228348 -358.196259 0.000000 -65.488480 -519.542114 0.000000 -65.354332 -518.523193 0.000000 -65.488480 -517.504211 0.000000 -65.881790 -520.491699 0.000000 -65.881790 -516.554688 0.000000 -66.507454 -521.307068 0.000000 -66.507454 -515.739258 0.000000 -67.322838 -521.932739 0.000000 -67.322838 -515.113647 0.000000 -68.272369 -522.326050 0.000000 -68.272369 -514.720337 0.000000 -69.291336 -522.460144 0.000000 -69.291336 -514.586182 0.000000 -70.310310 -522.326050 0.000000 -70.310310 -514.720337 0.000000 -71.259842 -521.932739 0.000000 -71.259842 -515.113647 0.000000 -72.075226 -521.307068 0.000000 -72.075226 -515.739258 0.000000 -72.700890 -520.491699 0.000000 -72.700890 -516.554688 0.000000 -73.094193 -519.542114 0.000000 -73.094193 -517.504211 0.000000 -73.228348 -518.523193 0.000000 393.566650 -519.542114 0.000000 393.700775 -518.523193 0.000000 393.566650 -517.504211 0.000000 393.173340 -520.491699 0.000000 393.173340 -516.554688 0.000000 392.547668 -521.307068 0.000000 392.547668 -515.739258 0.000000 391.732269 -521.932739 0.000000 391.732269 -515.113647 0.000000 390.782745 -522.326050 0.000000 390.782745 -514.720337 0.000000 389.763794 -522.460144 0.000000 389.763794 -514.586182 0.000000 388.744812 -522.326050 0.000000 388.744812 -514.720337 0.000000 387.795288 -521.932739 0.000000 387.795288 -515.113647 0.000000 386.979889 -521.307068 0.000000 386.979889 -515.739258 0.000000 386.354218 -520.491699 0.000000 386.354218 -516.554688 0.000000 385.960907 -519.542114 0.000000 385.960907 -517.504211 0.000000 385.826782 -518.523193 0.000000 491.857697 -519.542114 0.000000 491.991821 -518.523193 0.000000 491.857697 -517.504211 0.000000 491.464386 -520.491699 0.000000 491.464386 -516.554688 0.000000 490.838715 -521.307068 0.000000 490.838715 -515.739258 0.000000 490.023315 -521.932739 0.000000 490.023315 -515.113647 0.000000 489.073792 -522.326050 0.000000 489.073792 -514.720337 0.000000 488.054840 -522.460144 0.000000 488.054840 -514.586182 0.000000 487.035858 -522.326050 0.000000 487.035858 -514.720337 0.000000 486.086334 -521.932739 0.000000 486.086334 -515.113647 0.000000 485.270935 -521.307068 0.000000 485.270935 -515.739258 0.000000 484.645264 -520.491699 0.000000 484.645264 -516.554688 0.000000 484.251984 -519.542114 0.000000 484.251984 -517.504211 0.000000 484.117828 -518.523193 0.000000 590.282898 -519.542114 0.000000 590.417053 -518.523193 0.000000 590.282898 -517.504211 0.000000 589.889587 -520.491699 0.000000 589.889587 -516.554688 0.000000 589.263916 -521.307068 0.000000 589.263916 -515.739258 0.000000 588.448547 -521.932739 0.000000 588.448547 -515.113647 0.000000 587.499023 -522.326050 0.000000 587.499023 -514.720337 0.000000 586.480042 -522.460144 0.000000 586.480042 -514.586182 0.000000 585.461060 -522.326050 0.000000 585.461060 -514.720337 0.000000 584.511536 -521.932739 0.000000 584.511536 -515.113647 0.000000 583.696167 -521.307068 0.000000 583.696167 -515.739258 0.000000 583.070496 -520.491699 0.000000 583.070496 -516.554688 0.000000 582.677185 -519.542114 0.000000 582.677185 -517.504211 0.000000 582.543030 -518.523193 0.000000 688.573914 -519.542114 0.000000 688.708069 -518.523193 0.000000 688.573914 -517.504211 0.000000 688.180603 -520.491699 0.000000 688.180603 -516.554688 0.000000 687.554932 -521.307068 0.000000 687.554932 -515.739258 0.000000 686.739563 -521.932739 0.000000 686.739563 -515.113647 0.000000 685.790039 -522.326050 0.000000 685.790039 -514.720337 0.000000 684.771057 -522.460144 0.000000 684.771057 -514.586182 0.000000 683.752075 -522.326050 0.000000 683.752075 -514.720337 0.000000 682.802551 -521.932739 0.000000 682.802551 -515.113647 0.000000 681.987183 -521.307068 0.000000 681.987183 -515.739258 0.000000 681.361511 -520.491699 0.000000 681.361511 -516.554688 0.000000 680.968201 -519.542114 0.000000 680.968201 -517.504211 0.000000 680.834045 -518.523193 0.000000 196.716248 -1.018973 0.000000 196.850388 -0.000000 0.000000 196.716248 1.018973 0.000000 196.322937 -1.968504 0.000000 196.322937 1.968504 0.000000 195.697266 -2.783885 0.000000 195.697266 2.783885 0.000000 194.881897 -3.409549 0.000000 194.881897 3.409549 0.000000 193.932358 -3.802858 0.000000 193.932358 3.802858 0.000000 192.913391 -3.937008 0.000000 192.913391 3.937008 0.000000 191.894409 -3.802858 0.000000 191.894409 3.802858 0.000000 190.944885 -3.409549 0.000000 190.944885 3.409549 0.000000 190.129501 -2.783885 0.000000 190.129501 2.783885 0.000000 189.503830 -1.968504 0.000000 189.503830 1.968504 0.000000 189.110535 -1.018973 0.000000 189.110535 1.018973 0.000000 188.976379 -0.000000 0.000000 98.291046 -1.018973 0.000000 98.425194 -0.000000 0.000000 98.291046 1.018973 0.000000 97.897736 -1.968504 0.000000 97.897736 1.968504 0.000000 97.272072 -2.783885 0.000000 97.272072 2.783885 0.000000 96.456696 -3.409549 0.000000 96.456696 3.409549 0.000000 95.507164 -3.802858 0.000000 95.507164 3.802858 0.000000 94.488190 -3.937008 0.000000 94.488190 3.937008 0.000000 93.469215 -3.802858 0.000000 93.469215 3.802858 0.000000 92.519684 -3.409549 0.000000 92.519684 3.409549 0.000000 91.704308 -2.783885 0.000000 91.704308 2.783885 0.000000 91.078644 -1.968504 0.000000 91.078644 1.968504 0.000000 90.685333 -1.018973 0.000000 90.685333 1.018973 0.000000 90.551178 -0.000000 0.000000 -65.488480 -260.924194 0.000000 -65.354332 -259.905212 0.000000 -65.488480 -258.886261 0.000000 -65.881790 -261.873718 0.000000 -65.881790 -257.936707 0.000000 -66.507454 -262.689117 0.000000 -66.507454 -257.121338 0.000000 -67.322838 -263.314758 0.000000 -67.322838 -256.495667 0.000000 -68.272369 -263.708069 0.000000 -68.272369 -256.102356 0.000000 -69.291336 -263.842224 0.000000 -69.291336 -255.968216 0.000000 -70.310310 -263.708069 0.000000 -70.310310 -256.102356 0.000000 -71.259842 -263.314758 0.000000 -71.259842 -256.495667 0.000000 -72.075226 -262.689117 0.000000 -72.075226 -257.121338 0.000000 -72.700890 -261.873718 0.000000 -72.700890 -257.936707 0.000000 -73.094193 -260.924194 0.000000 -73.094193 -258.886261 0.000000 -73.228348 -259.905212 0.000000 -65.488480 -64.207947 0.000000 -65.354332 -63.188976 0.000000 -65.488480 -62.170002 0.000000 -65.881790 -65.157478 0.000000 -65.881790 -61.220474 0.000000 -66.507454 -65.972862 0.000000 -66.507454 -60.405090 0.000000 -67.322838 -66.598526 0.000000 -67.322838 -59.779427 0.000000 -68.272369 -66.991837 0.000000 -68.272369 -59.386120 0.000000 -69.291336 -67.125984 0.000000 -69.291336 -59.251968 0.000000 -70.310310 -66.991837 0.000000 -70.310310 -59.386120 0.000000 -71.259842 -66.598526 0.000000 -71.259842 -59.779427 0.000000 -72.075226 -65.972862 0.000000 -72.075226 -60.405090 0.000000 -72.700890 -65.157478 0.000000 -72.700890 -61.220474 0.000000 -73.094193 -64.207947 0.000000 -73.094193 -62.170002 0.000000 -73.228348 -63.188976 0.000000 -0.134150 -519.542114 0.000000 -0.000000 -518.523193 0.000000 -0.134150 -517.504211 0.000000 -0.527459 -520.491699 0.000000 -0.527459 -516.554688 0.000000 -1.153123 -521.307068 0.000000 -1.153123 -515.739258 0.000000 -1.968504 -521.932739 0.000000 -1.968504 -515.113647 0.000000 -2.918035 -522.326050 0.000000 -2.918035 -514.720337 0.000000 -3.937008 -522.460144 0.000000 -3.937008 -514.586182 0.000000 -4.955980 -522.326050 0.000000 -4.955980 -514.720337 0.000000 -5.905512 -521.932739 0.000000 -5.905512 -515.113647 0.000000 -6.720893 -521.307068 0.000000 -6.720893 -515.739258 0.000000 -7.346557 -520.491699 0.000000 -7.346557 -516.554688 0.000000 -7.739865 -519.542114 0.000000 -7.739865 -517.504211 0.000000 -7.874016 -518.523193 0.000000 196.716248 -519.542114 0.000000 196.850388 -518.523193 0.000000 196.716248 -517.504211 0.000000 196.322937 -520.491699 0.000000 196.322937 -516.554688 0.000000 195.697266 -521.307068 0.000000 195.697266 -515.739258 0.000000 194.881897 -521.932739 0.000000 194.881897 -515.113647 0.000000 193.932358 -522.326050 0.000000 193.932358 -514.720337 0.000000 192.913391 -522.460144 0.000000 192.913391 -514.586182 0.000000 191.894409 -522.326050 0.000000 191.894409 -514.720337 0.000000 190.944885 -521.932739 0.000000 190.944885 -515.113647 0.000000 190.129501 -521.307068 0.000000 190.129501 -515.739258 0.000000 189.503830 -520.491699 0.000000 189.503830 -516.554688 0.000000 189.110535 -519.542114 0.000000 189.110535 -517.504211 0.000000 188.976379 -518.523193 0.000000 295.141449 -519.542114 0.000000 295.275604 -518.523193 0.000000 295.141449 -517.504211 0.000000 294.748138 -520.491699 0.000000 294.748138 -516.554688 0.000000 294.122467 -521.307068 0.000000 294.122467 -515.739258 0.000000 293.307098 -521.932739 0.000000 293.307098 -515.113647 0.000000 292.357544 -522.326050 0.000000 292.357544 -514.720337 0.000000 291.338593 -522.460144 0.000000 291.338593 -514.586182 0.000000 290.319611 -522.326050 0.000000 290.319611 -514.720337 0.000000 289.370087 -521.932739 0.000000 289.370087 -515.113647 0.000000 288.554688 -521.307068 0.000000 288.554688 -515.739258 0.000000 287.929047 -520.491699 0.000000 287.929047 -516.554688 0.000000 287.535736 -519.542114 0.000000 287.535736 -517.504211 0.000000 287.401581 -518.523193 0.000000 98.291046 -519.542114 0.000000 98.425194 -518.523193 0.000000 98.291046 -517.504211 0.000000 97.897736 -520.491699 0.000000 97.897736 -516.554688 0.000000 97.272072 -521.307068 0.000000 97.272072 -515.739258 0.000000 96.456696 -521.932739 0.000000 96.456696 -515.113647 0.000000 95.507164 -522.326050 0.000000 95.507164 -514.720337 0.000000 94.488190 -522.460144 0.000000 94.488190 -514.586182 0.000000 93.469215 -522.326050 0.000000 93.469215 -514.720337 0.000000 92.519684 -521.932739 0.000000 92.519684 -515.113647 0.000000 91.704308 -521.307068 0.000000 91.704308 -515.739258 0.000000 91.078644 -520.491699 0.000000 91.078644 -516.554688 0.000000 90.685333 -519.542114 0.000000 90.685333 -517.504211 0.000000 90.551178 -518.523193 0.000000 -0.134150 -1.018973 0.000000 0.000000 -0.000000 0.000000 -0.134150 1.018973 0.000000 -0.527459 -1.968504 0.000000 -0.527459 1.968504 0.000000 -1.153123 -2.783885 0.000000 -1.153123 2.783885 0.000000 -1.968504 -3.409549 0.000000 -1.968504 3.409549 0.000000 -2.918035 -3.802858 0.000000 -2.918035 3.802858 0.000000 -3.937008 -3.937008 0.000000 -3.937008 3.937008 0.000000 -4.955980 -3.802858 0.000000 -4.955980 3.802858 0.000000 -5.905512 -3.409549 0.000000 -5.905512 3.409549 0.000000 -6.720893 -2.783885 0.000000 -6.720893 2.783885 0.000000 -7.346557 -1.968504 0.000000 -7.346557 1.968504 0.000000 -7.739865 -1.018973 0.000000 -7.739865 1.018973 0.000000 -7.874016 -0.000000 0.000000 753.794128 -162.633148 0.000000 753.928284 -161.614166 0.000000 753.794128 -160.595200 0.000000 753.400818 -163.582672 0.000000 753.400818 -159.645676 0.000000 752.775146 -164.398056 0.000000 752.775146 -158.830292 0.000000 751.959778 -165.023727 0.000000 751.959778 -158.204620 0.000000 751.010193 -165.417038 0.000000 751.010193 -157.811310 0.000000 749.991272 -165.551178 0.000000 749.991272 -157.677170 0.000000 748.972290 -165.417038 0.000000 748.972290 -157.811310 0.000000 748.022766 -165.023727 0.000000 748.022766 -158.204620 0.000000 747.207336 -164.398056 0.000000 747.207336 -158.830292 0.000000 746.581726 -163.582672 0.000000 746.581726 -159.645676 0.000000 746.188416 -162.633148 0.000000 746.188416 -160.595200 0.000000 746.054260 -161.614166 0.000000 753.794128 -457.506287 0.000000 753.928284 -456.487305 0.000000 753.794128 -455.468353 0.000000 753.400818 -458.455811 0.000000 753.400818 -454.518799 0.000000 752.775146 -459.271210 0.000000 752.775146 -453.703430 0.000000 751.959778 -459.896851 0.000000 751.959778 -453.077759 0.000000 751.010193 -460.290161 0.000000 751.010193 -452.684448 0.000000 749.991272 -460.424316 0.000000 749.991272 -452.550293 0.000000 748.972290 -460.290161 0.000000 748.972290 -452.684448 0.000000 748.022766 -459.896851 0.000000 748.022766 -453.077759 0.000000 747.207336 -459.271210 0.000000 747.207336 -453.703430 0.000000 746.581726 -458.455811 0.000000 746.581726 -454.518799 0.000000 746.188416 -457.506287 0.000000 746.188416 -455.468353 0.000000 746.054260 -456.487305 0.000000 753.794128 -64.207947 0.000000 753.928284 -63.188976 0.000000 753.794128 -62.170002 0.000000 753.400818 -65.157478 0.000000 753.400818 -61.220474 0.000000 752.775146 -65.972862 0.000000 752.775146 -60.405090 0.000000 751.959778 -66.598526 0.000000 751.959778 -59.779427 0.000000 751.010193 -66.991837 0.000000 751.010193 -59.386120 0.000000 749.991272 -67.125984 0.000000 749.991272 -59.251968 0.000000 748.972290 -66.991837 0.000000 748.972290 -59.386120 0.000000 748.022766 -66.598526 0.000000 748.022766 -59.779427 0.000000 747.207336 -65.972862 0.000000 747.207336 -60.405090 0.000000 746.581726 -65.157478 0.000000 746.581726 -61.220474 0.000000 746.188416 -64.207947 0.000000 746.188416 -62.170002 0.000000 746.054260 -63.188976 0.000000 753.794128 -359.215240 0.000000 753.928284 -358.196259 0.000000 753.794128 -357.177307 0.000000 753.400818 -360.164764 0.000000 753.400818 -356.227753 0.000000 752.775146 -360.980164 0.000000 752.775146 -355.412384 0.000000 751.959778 -361.605804 0.000000 751.959778 -354.786713 0.000000 751.010193 -361.999115 0.000000 751.010193 -354.393402 0.000000 749.991272 -362.133270 0.000000 749.991272 -354.259247 0.000000 748.972290 -361.999115 0.000000 748.972290 -354.393402 0.000000 748.022766 -361.605804 0.000000 748.022766 -354.786713 0.000000 747.207336 -360.980164 0.000000 747.207336 -355.412384 0.000000 746.581726 -360.164764 0.000000 746.581726 -356.227753 0.000000 746.188416 -359.215240 0.000000 746.188416 -357.177307 0.000000 746.054260 -358.196259 0.000000 753.794128 -260.924194 0.000000 753.928284 -259.905212 0.000000 753.794128 -258.886261 0.000000 753.400818 -261.873718 0.000000 753.400818 -257.936707 0.000000 752.775146 -262.689117 0.000000 752.775146 -257.121338 0.000000 751.959778 -263.314758 0.000000 751.959778 -256.495667 0.000000 751.010193 -263.708069 0.000000 751.010193 -256.102356 0.000000 749.991272 -263.842224 0.000000 749.991272 -255.968216 0.000000 748.972290 -263.708069 0.000000 748.972290 -256.102356 0.000000 748.022766 -263.314758 0.000000 748.022766 -256.495667 0.000000 747.207336 -262.689117 0.000000 747.207336 -257.121338 0.000000 746.581726 -261.873718 0.000000 746.581726 -257.936707 0.000000 746.188416 -260.924194 0.000000 746.188416 -258.886261 0.000000 746.054260 -259.905212 0.000000 753.794128 -519.542114 0.000000 753.928284 -518.523193 0.000000 753.794128 -517.504211 0.000000 753.400818 -520.491699 0.000000 753.400818 -516.554688 0.000000 752.775146 -521.307068 0.000000 752.775146 -515.739258 0.000000 751.959778 -521.932739 0.000000 751.959778 -515.113647 0.000000 751.010193 -522.326050 0.000000 751.010193 -514.720337 0.000000 749.991272 -522.460144 0.000000 749.991272 -514.586182 0.000000 748.972290 -522.326050 0.000000 748.972290 -514.720337 0.000000 748.022766 -521.932739 0.000000 748.022766 -515.113647 0.000000 747.207336 -521.307068 0.000000 747.207336 -515.739258 0.000000 746.581726 -520.491699 0.000000 746.581726 -516.554688 0.000000 746.188416 -519.542114 0.000000 746.188416 -517.504211 0.000000 746.054260 -518.523193 0.000000 "
							            />
						</IndexedFaceSet>
					</Shape>
				</Group>
			</Transform>
		</Transform>
	</Scene>
</X3D>